<svg xmlns="http://www.w3.org/2000/svg" width="2000.000000" height="540.000000" viewBox="0 0 2000 540">
  <rect width="2000.000000" height="540.000000" fill="#ffffff"/>
  <path stroke-width="2.777778" stroke="#cccccc" fill="none" d="M109.344 92.8889 L109.344 441 "/>
  <path stroke-width="2.777778" stroke="#cccccc" fill="none" d="M406.229 92.8889 L406.229 441 "/>
  <path stroke-width="2.777778" stroke="#cccccc" fill="none" d="M703.115 92.8889 L703.115 441 "/>
  <path stroke-width="2.777778" stroke="#cccccc" fill="none" d="M1000 92.8889 L1000 441 "/>
  <path stroke-width="2.777778" stroke="#cccccc" fill="none" d="M1296.89 92.8889 L1296.89 441 "/>
  <path stroke-width="2.777778" stroke="#cccccc" fill="none" d="M1593.77 92.8889 L1593.77 441 "/>
  <path stroke-width="2.777778" stroke="#cccccc" fill="none" d="M1890.66 92.8889 L1890.66 441 "/>
  <path stroke-width="2.222222" stroke="#000000" fill="none" d="M218.509 210.376 L218.509 249.539 L249.064 249.539 L249.064 210.376 Z" stroke-dasharray="5.55556 5.55556 "/>
  <path stroke-width="2.222222" stroke="#000000" fill="none" d="M515.394 114.646 L515.394 232.133 L545.95 232.133 L545.95 114.646 Z" stroke-dasharray="5.55556 5.55556 "/>
  <path stroke-width="2.222222" stroke="#000000" fill="none" d="M812.28 197.322 L812.28 210.376 L842.835 210.376 L842.835 197.322 Z" stroke-dasharray="5.55556 5.55556 "/>
  <path stroke-width="2.222222" stroke="#000000" fill="none" d="M1109.16 232.133 L1109.16 253.89 L1139.72 253.89 L1139.72 232.133 Z" stroke-dasharray="5.55556 5.55556 "/>
  <path stroke-width="2.222222" stroke="#000000" fill="none" d="M1406.05 232.133 L1406.05 306.107 L1436.61 306.107 L1436.61 232.133 Z" stroke-dasharray="5.55556 5.55556 "/>
  <path stroke-width="2.222222" stroke="#000000" fill="none" d="M1702.94 158.16 L1702.94 253.89 L1733.49 253.89 L1733.49 158.16 Z" stroke-dasharray="5.55556 5.55556 "/>
  <path fill="#cccccc" d="M266.509 162.511 L266.509 375.729 L297.064 375.729 L297.064 162.511 Z"/>
  <path fill="#cccccc" d="M563.394 158.16 L563.394 345.269 L593.95 345.269 L593.95 158.16 Z"/>
  <path fill="#cccccc" d="M860.28 123.349 L860.28 397.486 L890.835 397.486 L890.835 123.349 Z"/>
  <path fill="#cccccc" d="M1157.16 166.862 L1157.16 323.512 L1187.72 323.512 L1187.72 166.862 Z"/>
  <path fill="#cccccc" d="M1454.05 219.079 L1454.05 319.161 L1484.61 319.161 L1484.61 219.079 Z"/>
  <path fill="#cccccc" d="M1750.94 166.862 L1750.94 397.486 L1781.49 397.486 L1781.49 166.862 Z"/>
  <path stroke-width="2.777778" stroke="#000000" fill="none" d="M109.344 92.8889 L1890.66 92.8889 "/>
  <path stroke-width="2.777778" stroke="#000000" fill="none" d="M109.344 92.8889 L109.344 104 "/>
  <path stroke-width="2.777778" stroke="#000000" fill="none" d="M406.229 92.8889 L406.229 104 "/>
  <path stroke-width="2.777778" stroke="#000000" fill="none" d="M703.115 92.8889 L703.115 104 "/>
  <path stroke-width="2.777778" stroke="#000000" fill="none" d="M1000 92.8889 L1000 104 "/>
  <path stroke-width="2.777778" stroke="#000000" fill="none" d="M1296.89 92.8889 L1296.89 104 "/>
  <path stroke-width="2.777778" stroke="#000000" fill="none" d="M1593.77 92.8889 L1593.77 104 "/>
  <path stroke-width="2.777778" stroke="#000000" fill="none" d="M1890.66 92.8889 L1890.66 104 "/>
  <path fill="#000000" d="M15.25 -6 C15.25 -8.98438 13.2188 -11.4062 10.6562 -12 L6.75 -12.9375 C4.85938 -13.2188 3.65625 -14.2969 3.65625 -16.0781 C3.65625 -18.25 5.3125 -20.1406 7.6875 -20.1406 C12.7969 -20.1406 13.4688 -15.0469 13.6562 -13.8281 C13.6875 -13.7188 13.6875 -13.6094 14.0156 -13.6094 C14.4219 -13.6094 14.4219 -13.7031 14.4219 -14.0469 L14.4219 -20.2656 C14.4219 -20.7812 14.4219 -21 14.0781 -21 C13.875 -21 13.8438 -20.9688 13.625 -20.5938 L12.5469 -18.8281 C11.6406 -19.7344 10.3906 -21 7.65625 -21 C4.26562 -21 1.70312 -18.2812 1.70312 -15 C1.70312 -13.1094 3.32812 -11.0156 5.70312 -10.2188 C6.04688 -10.0938 7.60938 -9.75 9.73438 -9.25 C10.5625 -9.03125 11.4844 -8.82812 12.3438 -7.73438 C12.9844 -6.96875 13.2812 -5.96875 13.2812 -5.01562 C13.2812 -3 11.7656 -0.9375 9.1875 -0.9375 C8.3125 -0.9375 5.98438 -1.07812 4.35938 -2.48438 C2.59375 -4.01562 2.5 -5.84375 2.46875 -6.9375 C2.4375 -7.23438 2.1875 -7.23438 2.09375 -7.23438 C1.70312 -7.23438 1.70312 -7.03125 1.70312 -6.48438 L1.70312 -0.71875 C1.70312 -0.203125 1.70312 0 2.04688 0 C2.25 0 2.28125 -0.046875 2.5 -0.390625 C2.5 -0.390625 2.59375 -0.515625 3.59375 -2.04688 C4.54688 -1.07812 6.5 0 9.21875 0 C12.7969 0 15.25 -2.85938 15.25 -6 Z" transform="translate(869.502 53.3333)"/>
  <path fill="#000000" d="M12.6719 -3.76562 C12.6719 -4.0625 12.4375 -4.125 12.2812 -4.125 C12 -4.125 11.9375 -3.95312 11.875 -3.71875 C10.8125 -0.75 8.0625 -0.75 7.75 -0.75 C6.23438 -0.75 5 -1.625 4.29688 -2.6875 C3.39062 -4.0625 3.39062 -5.95312 3.39062 -7 L11.9062 -7 C12.5781 -7 12.6719 -7 12.6719 -7.64062 C12.6719 -10.2969 11.0312 -13 7.20312 -13 C3.65625 -13 0.84375 -10.1406 0.84375 -6.67188 C0.84375 -2.82812 4.0625 0 7.57812 0 C11.2969 0 12.6719 -3.23438 12.6719 -3.76562 ZM10.6562 -7.64062 L3.42188 -7.64062 C3.59375 -11.6406 6.17188 -12.3125 7.20312 -12.3125 C10.3594 -12.3125 10.6562 -8.6875 10.6562 -7.64062 Z" transform="translate(886.502 53.3333)"/>
  <path fill="#000000" d="M11.125 -11.125 C11.125 -12.1094 10.1719 -13 8.85938 -13 C6.625 -13 5.53125 -10.9375 5.09375 -9.625 L5.09375 -13 L0.84375 -13 L0.84375 -12.0469 C2.98438 -12.0469 3.23438 -11.8281 3.23438 -10.3594 L3.23438 -2.29688 C3.23438 -0.9375 2.89062 -0.9375 0.84375 -0.9375 L0.84375 0 L4.32812 -0.078125 C5.5625 -0.078125 6.98438 -0.078125 8.21875 0 L8.21875 -0.9375 L7.57812 -0.9375 C5.3125 -0.9375 5.25 -1.26562 5.25 -2.35938 L5.25 -6.98438 C5.25 -9.59375 6.53125 -12.3125 8.85938 -12.3125 C9.0625 -12.3125 9.125 -12.3125 9.1875 -12.2969 C9.09375 -12.2656 8.48438 -11.8906 8.48438 -11.0938 C8.48438 -10.2344 9.125 -9.78125 9.79688 -9.78125 C10.3594 -9.78125 11.125 -10.1562 11.125 -11.125 Z" transform="translate(900.064 53.3333)"/>
  <path fill="#000000" d="M7.54688 0 L7.54688 -0.9375 C5.53125 -0.9375 5.40625 -1.07812 5.40625 -2.21875 L5.40625 -13 L1.125 -13 L1.125 -12.0469 C3.10938 -12.0469 3.39062 -11.8594 3.39062 -10.3906 L3.39062 -2.29688 C3.39062 -0.9375 3.04688 -0.9375 1 -0.9375 L1 0 L4.35938 -0.078125 C5.4375 -0.078125 6.5 -0.015625 7.54688 0 ZM5.85938 -18.375 C5.85938 -19.2031 5.15625 -20 4.23438 -20 C3.20312 -20 2.59375 -19.1406 2.59375 -18.375 C2.59375 -17.5469 3.29688 -16.75 4.20312 -16.75 C5.25 -16.75 5.85938 -17.6094 5.85938 -18.375 Z" transform="translate(912.049 53.3333)"/>
  <path fill="#000000" d="M12.6719 -3.76562 C12.6719 -4.0625 12.4375 -4.125 12.2812 -4.125 C12 -4.125 11.9375 -3.95312 11.875 -3.71875 C10.8125 -0.75 8.0625 -0.75 7.75 -0.75 C6.23438 -0.75 5 -1.625 4.29688 -2.6875 C3.39062 -4.0625 3.39062 -5.95312 3.39062 -7 L11.9062 -7 C12.5781 -7 12.6719 -7 12.6719 -7.64062 C12.6719 -10.2969 11.0312 -13 7.20312 -13 C3.65625 -13 0.84375 -10.1406 0.84375 -6.67188 C0.84375 -2.82812 4.0625 0 7.57812 0 C11.2969 0 12.6719 -3.23438 12.6719 -3.76562 ZM10.6562 -7.64062 L3.42188 -7.64062 C3.59375 -11.6406 6.17188 -12.3125 7.20312 -12.3125 C10.3594 -12.3125 10.6562 -8.6875 10.6562 -7.64062 Z" transform="translate(920.549 53.3333)"/>
  <path fill="#000000" d="M11 -3.21875 C11 -4.82812 10.0781 -5.75 9.71875 -6.10938 C8.70312 -7.09375 7.51562 -7.34375 6.23438 -7.57812 C4.51562 -7.92188 2.46875 -8.3125 2.46875 -10.0938 C2.46875 -11.1562 3.26562 -12.4062 5.89062 -12.4062 C9.25 -12.4062 9.40625 -9.65625 9.46875 -8.71875 C9.5 -8.4375 9.82812 -8.4375 9.82812 -8.4375 C10.2344 -8.4375 10.2344 -8.59375 10.2344 -9.17188 L10.2344 -12.2656 C10.2344 -12.7812 10.2344 -13 9.89062 -13 C9.73438 -13 9.6875 -13 9.28125 -12.625 C9.1875 -12.5 8.89062 -12.2344 8.76562 -12.1406 C7.60938 -13 6.34375 -13 5.89062 -13 C2.15625 -13 1 -10.9375 1 -9.23438 C1 -8.15625 1.48438 -7.3125 2.3125 -6.64062 C3.29688 -5.84375 4.15625 -5.65625 6.34375 -5.23438 C7.01562 -6.40625 9.53125 -5.90625 9.53125 -3.71875 C9.53125 -2.15625 8.45312 -0.671875 6.07812 -0.671875 C3.5 -0.671875 2.40625 -2.67188 1.82812 -5.26562 C1.73438 -5.67188 1.70312 -5.79688 1.39062 -5.79688 C1 -5.79688 1 -5.57812 1 -5.03125 L1 -1 C1 -0.203125 1 0 1.34375 0 C1.48438 0 1.51562 -0.015625 2.09375 -0.609375 C2.15625 -0.671875 2.15625 -1 2.71875 -1.57812 C4.0625 -0.015625 5.4375 0 6.07812 0 C9.59375 0 11 -2.3125 11 -4.5 L11 -3.21875 Z" transform="translate(934.111 53.3333)"/>
  <path fill="#000000" d="" transform="translate(946.158 53.3333)"/>
  <path fill="#000000" d="M21.9062 0 L21.9062 -0.9375 L21.3594 -0.9375 C19.5156 -0.9375 19.0938 -1.15625 18.7656 -2.17188 L12.1562 -21.375 C12 -21.7812 11.9375 -22 11.4531 -22 C10.9688 -22 10.875 -21.8125 10.7188 -21.375 L4.39062 -3 C3.84375 -1.4375 2.625 -0.96875 0.96875 -0.9375 L0.96875 0 L4.09375 -0.078125 L7.60938 0 L7.60938 -0.9375 C6.07812 -0.9375 5.3125 -1.70312 5.3125 -2.5 C5.3125 -2.59375 5.34375 -2.90625 5.375 -2.96875 L6.78125 -7 L14.3281 -7 L15.9531 -2.29688 C15.9844 -2.17188 16.0312 -1.98438 16.0312 -1.85938 C16.0312 -0.9375 14.3281 -0.9375 13.5 -0.9375 L13.5 0 C14.5938 -0.078125 16.7344 -0.078125 17.9062 -0.078125 L21.9062 0 ZM13.9844 -7.9375 L7.10938 -7.9375 L10.5312 -17.9375 L13.9844 -7.9375 Z" transform="translate(956.33 53.3333)"/>
  <path fill="#999999" d="M851.932 40.3333 M829.016 40.3333 a11.4583 11.4583 0 1 0 22.9167 0 a11.4583 11.4583 0 1 0 -22.9167 0 "/>
  <path fill="#000000" d="M15.25 -6 C15.25 -8.98438 13.2188 -11.4062 10.6562 -12 L6.75 -12.9375 C4.85938 -13.2188 3.65625 -14.2969 3.65625 -16.0781 C3.65625 -18.25 5.3125 -20.1406 7.6875 -20.1406 C12.7969 -20.1406 13.4688 -15.0469 13.6562 -13.8281 C13.6875 -13.7188 13.6875 -13.6094 14.0156 -13.6094 C14.4219 -13.6094 14.4219 -13.7031 14.4219 -14.0469 L14.4219 -20.2656 C14.4219 -20.7812 14.4219 -21 14.0781 -21 C13.875 -21 13.8438 -20.9688 13.625 -20.5938 L12.5469 -18.8281 C11.6406 -19.7344 10.3906 -21 7.65625 -21 C4.26562 -21 1.70312 -18.2812 1.70312 -15 C1.70312 -13.1094 3.32812 -11.0156 5.70312 -10.2188 C6.04688 -10.0938 7.60938 -9.75 9.73438 -9.25 C10.5625 -9.03125 11.4844 -8.82812 12.3438 -7.73438 C12.9844 -6.96875 13.2812 -5.96875 13.2812 -5.01562 C13.2812 -3 11.7656 -0.9375 9.1875 -0.9375 C8.3125 -0.9375 5.98438 -1.07812 4.35938 -2.48438 C2.59375 -4.01562 2.5 -5.84375 2.46875 -6.9375 C2.4375 -7.23438 2.1875 -7.23438 2.09375 -7.23438 C1.70312 -7.23438 1.70312 -7.03125 1.70312 -6.48438 L1.70312 -0.71875 C1.70312 -0.203125 1.70312 0 2.04688 0 C2.25 0 2.28125 -0.046875 2.5 -0.390625 C2.5 -0.390625 2.59375 -0.515625 3.59375 -2.04688 C4.54688 -1.07812 6.5 0 9.21875 0 C12.7969 0 15.25 -2.85938 15.25 -6 Z" transform="translate(1055.64 53.3333)"/>
  <path fill="#000000" d="M12.6719 -3.76562 C12.6719 -4.0625 12.4375 -4.125 12.2812 -4.125 C12 -4.125 11.9375 -3.95312 11.875 -3.71875 C10.8125 -0.75 8.0625 -0.75 7.75 -0.75 C6.23438 -0.75 5 -1.625 4.29688 -2.6875 C3.39062 -4.0625 3.39062 -5.95312 3.39062 -7 L11.9062 -7 C12.5781 -7 12.6719 -7 12.6719 -7.64062 C12.6719 -10.2969 11.0312 -13 7.20312 -13 C3.65625 -13 0.84375 -10.1406 0.84375 -6.67188 C0.84375 -2.82812 4.0625 0 7.57812 0 C11.2969 0 12.6719 -3.23438 12.6719 -3.76562 ZM10.6562 -7.64062 L3.42188 -7.64062 C3.59375 -11.6406 6.17188 -12.3125 7.20312 -12.3125 C10.3594 -12.3125 10.6562 -8.6875 10.6562 -7.64062 Z" transform="translate(1072.64 53.3333)"/>
  <path fill="#000000" d="M11.125 -11.125 C11.125 -12.1094 10.1719 -13 8.85938 -13 C6.625 -13 5.53125 -10.9375 5.09375 -9.625 L5.09375 -13 L0.84375 -13 L0.84375 -12.0469 C2.98438 -12.0469 3.23438 -11.8281 3.23438 -10.3594 L3.23438 -2.29688 C3.23438 -0.9375 2.89062 -0.9375 0.84375 -0.9375 L0.84375 0 L4.32812 -0.078125 C5.5625 -0.078125 6.98438 -0.078125 8.21875 0 L8.21875 -0.9375 L7.57812 -0.9375 C5.3125 -0.9375 5.25 -1.26562 5.25 -2.35938 L5.25 -6.98438 C5.25 -9.59375 6.53125 -12.3125 8.85938 -12.3125 C9.0625 -12.3125 9.125 -12.3125 9.1875 -12.2969 C9.09375 -12.2656 8.48438 -11.8906 8.48438 -11.0938 C8.48438 -10.2344 9.125 -9.78125 9.79688 -9.78125 C10.3594 -9.78125 11.125 -10.1562 11.125 -11.125 Z" transform="translate(1086.2 53.3333)"/>
  <path fill="#000000" d="M7.54688 0 L7.54688 -0.9375 C5.53125 -0.9375 5.40625 -1.07812 5.40625 -2.21875 L5.40625 -13 L1.125 -13 L1.125 -12.0469 C3.10938 -12.0469 3.39062 -11.8594 3.39062 -10.3906 L3.39062 -2.29688 C3.39062 -0.9375 3.04688 -0.9375 1 -0.9375 L1 0 L4.35938 -0.078125 C5.4375 -0.078125 6.5 -0.015625 7.54688 0 ZM5.85938 -18.375 C5.85938 -19.2031 5.15625 -20 4.23438 -20 C3.20312 -20 2.59375 -19.1406 2.59375 -18.375 C2.59375 -17.5469 3.29688 -16.75 4.20312 -16.75 C5.25 -16.75 5.85938 -17.6094 5.85938 -18.375 Z" transform="translate(1098.19 53.3333)"/>
  <path fill="#000000" d="M12.6719 -3.76562 C12.6719 -4.0625 12.4375 -4.125 12.2812 -4.125 C12 -4.125 11.9375 -3.95312 11.875 -3.71875 C10.8125 -0.75 8.0625 -0.75 7.75 -0.75 C6.23438 -0.75 5 -1.625 4.29688 -2.6875 C3.39062 -4.0625 3.39062 -5.95312 3.39062 -7 L11.9062 -7 C12.5781 -7 12.6719 -7 12.6719 -7.64062 C12.6719 -10.2969 11.0312 -13 7.20312 -13 C3.65625 -13 0.84375 -10.1406 0.84375 -6.67188 C0.84375 -2.82812 4.0625 0 7.57812 0 C11.2969 0 12.6719 -3.23438 12.6719 -3.76562 ZM10.6562 -7.64062 L3.42188 -7.64062 C3.59375 -11.6406 6.17188 -12.3125 7.20312 -12.3125 C10.3594 -12.3125 10.6562 -8.6875 10.6562 -7.64062 Z" transform="translate(1106.69 53.3333)"/>
  <path fill="#000000" d="M11 -3.21875 C11 -4.82812 10.0781 -5.75 9.71875 -6.10938 C8.70312 -7.09375 7.51562 -7.34375 6.23438 -7.57812 C4.51562 -7.92188 2.46875 -8.3125 2.46875 -10.0938 C2.46875 -11.1562 3.26562 -12.4062 5.89062 -12.4062 C9.25 -12.4062 9.40625 -9.65625 9.46875 -8.71875 C9.5 -8.4375 9.82812 -8.4375 9.82812 -8.4375 C10.2344 -8.4375 10.2344 -8.59375 10.2344 -9.17188 L10.2344 -12.2656 C10.2344 -12.7812 10.2344 -13 9.89062 -13 C9.73438 -13 9.6875 -13 9.28125 -12.625 C9.1875 -12.5 8.89062 -12.2344 8.76562 -12.1406 C7.60938 -13 6.34375 -13 5.89062 -13 C2.15625 -13 1 -10.9375 1 -9.23438 C1 -8.15625 1.48438 -7.3125 2.3125 -6.64062 C3.29688 -5.84375 4.15625 -5.65625 6.34375 -5.23438 C7.01562 -6.40625 9.53125 -5.90625 9.53125 -3.71875 C9.53125 -2.15625 8.45312 -0.671875 6.07812 -0.671875 C3.5 -0.671875 2.40625 -2.67188 1.82812 -5.26562 C1.73438 -5.67188 1.70312 -5.79688 1.39062 -5.79688 C1 -5.79688 1 -5.57812 1 -5.03125 L1 -1 C1 -0.203125 1 0 1.34375 0 C1.48438 0 1.51562 -0.015625 2.09375 -0.609375 C2.15625 -0.671875 2.15625 -1 2.71875 -1.57812 C4.0625 -0.015625 5.4375 0 6.07812 0 C9.59375 0 11 -2.3125 11 -4.5 L11 -3.21875 Z" transform="translate(1120.25 53.3333)"/>
  <path fill="#000000" d="" transform="translate(1132.3 53.3333)"/>
  <path fill="#000000" d="M19.8906 -5.60938 C19.8906 -8.29688 17.375 -10.5938 13.9844 -10.9688 C16.9531 -11.5469 19.0625 -13.5156 19.0625 -15.7969 C19.0625 -18.4688 16.25 -21 12.2812 -21 L1.09375 -21 L1.09375 -20.0469 L1.82812 -20.0469 C4.17188 -20.0469 4.23438 -19.7031 4.23438 -18.5938 L4.23438 -2.39062 C4.23438 -1.28125 4.17188 -0.9375 1.82812 -0.9375 L1.09375 -0.9375 L1.09375 0 L13.0781 0 C17.1406 0.1875 19.8906 -2.53125 19.8906 -5.40625 L19.8906 -5.60938 ZM16.0938 -15.6719 C16.0938 -13.6562 14.5938 -11 11.2031 -11 L6.78125 -11 L6.78125 -18.7812 C6.78125 -19.8281 6.84375 -20.0469 8.28125 -20.0469 L12.0625 -20.0469 C15.0312 -19.7344 16.0938 -17.1406 16.0938 -15.5156 L16.0938 -15.6719 ZM16.8281 -5.53125 C16.8281 -3.39062 15.25 -0.9375 12.0938 -0.9375 L8.28125 -0.9375 C6.84375 -0.9375 6.78125 -1.15625 6.78125 -2.14062 L6.78125 -10.3125 L12.5156 -10.3125 C15.5469 -10.5 16.8281 -7.65625 16.8281 -5.60938 L16.8281 -5.53125 Z" transform="translate(1142.47 53.3333)"/>
  <path fill="#cccccc" d="M1038.07 40.3333 M1015.15 40.3333 a11.4583 11.4583 0 1 0 22.9167 0 a11.4583 11.4583 0 1 0 -22.9167 0 "/>
  <path stroke-width="2.777778" stroke="#000000" fill="none" d="M1890.66 92.8889 L1890.66 441 "/>
  <path stroke-width="2.777778" stroke="#000000" fill="none" d="M1879.55 397.486 L1890.66 397.486 "/>
  <path stroke-width="2.777778" stroke="#000000" fill="none" d="M1879.55 353.972 L1890.66 353.972 "/>
  <path stroke-width="2.777778" stroke="#000000" fill="none" d="M1879.55 310.458 L1890.66 310.458 "/>
  <path stroke-width="2.777778" stroke="#000000" fill="none" d="M1879.55 266.944 L1890.66 266.944 "/>
  <path stroke-width="2.777778" stroke="#000000" fill="none" d="M1879.55 223.431 L1890.66 223.431 "/>
  <path stroke-width="2.777778" stroke="#000000" fill="none" d="M1879.55 179.917 L1890.66 179.917 "/>
  <path stroke-width="2.777778" stroke="#000000" fill="none" d="M1879.55 136.403 L1890.66 136.403 "/>
  <path fill="#000000" d="M14.0469 -10.4375 C14.0469 -12.875 13.9062 -15.3125 12.8281 -17.5781 C11.4219 -20.5 8.92188 -21 7.64062 -21 C5.79688 -21 3.5625 -20.2031 2.3125 -17.3594 C1.34375 -15.25 1.1875 -12.875 1.1875 -10.4375 C1.1875 -8.14062 1.3125 -5.39062 2.5625 -3.07812 C3.875 -0.609375 6.10938 0 7.60938 0 C9.25 0 11.5781 -0.640625 12.9219 -3.53125 C13.9062 -5.64062 14.0469 -8.01562 14.0469 -10.4375 ZM11.5156 -10.7969 C11.5156 -8.5 11.5156 -6.4375 11.1719 -4.48438 C10.7188 -1.57812 8.98438 -0.671875 7.60938 -0.671875 C6.40625 -0.671875 4.60938 -1.42188 4.0625 -4.35938 C3.71875 -6.1875 3.71875 -9 3.71875 -10.7969 C3.71875 -12.75 3.71875 -14.7656 3.96875 -16.4062 C4.54688 -20.0469 6.84375 -20.3125 7.60938 -20.3125 C8.60938 -20.3125 10.625 -19.7656 11.2031 -16.75 C11.5156 -15.0312 11.5156 -12.7188 11.5156 -10.7969 Z" transform="translate(1915.1 410.486)"/>
  <path fill="#000000" d="M5.85938 -1.60938 C5.85938 -2.5 5.125 -3.23438 4.23438 -3.23438 C3.35938 -3.23438 2.625 -2.5 2.625 -1.60938 C2.625 -0.71875 3.35938 0 4.23438 0 C5.125 0 5.85938 -0.71875 5.85938 -1.60938 Z" transform="translate(1930.38 410.486)"/>
  <path fill="#000000" d="M14.0469 -10.4375 C14.0469 -12.875 13.9062 -15.3125 12.8281 -17.5781 C11.4219 -20.5 8.92188 -21 7.64062 -21 C5.79688 -21 3.5625 -20.2031 2.3125 -17.3594 C1.34375 -15.25 1.1875 -12.875 1.1875 -10.4375 C1.1875 -8.14062 1.3125 -5.39062 2.5625 -3.07812 C3.875 -0.609375 6.10938 0 7.60938 0 C9.25 0 11.5781 -0.640625 12.9219 -3.53125 C13.9062 -5.64062 14.0469 -8.01562 14.0469 -10.4375 ZM11.5156 -10.7969 C11.5156 -8.5 11.5156 -6.4375 11.1719 -4.48438 C10.7188 -1.57812 8.98438 -0.671875 7.60938 -0.671875 C6.40625 -0.671875 4.60938 -1.42188 4.0625 -4.35938 C3.71875 -6.1875 3.71875 -9 3.71875 -10.7969 C3.71875 -12.75 3.71875 -14.7656 3.96875 -16.4062 C4.54688 -20.0469 6.84375 -20.3125 7.60938 -20.3125 C8.60938 -20.3125 10.625 -19.7656 11.2031 -16.75 C11.5156 -15.0312 11.5156 -12.7188 11.5156 -10.7969 Z" transform="translate(1938.88 410.486)"/>
  <path fill="#000000" d="M12.7969 0 L12.7969 -0.9375 L11.8125 -0.9375 C9.0625 -0.9375 8.98438 -1.28125 8.98438 -2.45312 L8.98438 -20.1562 C8.98438 -20.9219 8.98438 -21 8.28125 -21 C6.375 -18.9375 3.6875 -18.9375 2.71875 -18.9375 L2.71875 -18 C3.32812 -18 5.125 -18 6.71875 -18.7812 L6.71875 -2.45312 C6.71875 -1.3125 6.625 -0.9375 3.875 -0.9375 L2.89062 -0.9375 L2.89062 0 C3.96875 -0.078125 6.625 -0.078125 7.84375 -0.078125 C9.0625 -0.078125 11.7344 -0.078125 12.7969 0 Z" transform="translate(1915.1 366.972)"/>
  <path fill="#000000" d="M14.0469 -10.4375 C14.0469 -12.875 13.9062 -15.3125 12.8281 -17.5781 C11.4219 -20.5 8.92188 -21 7.64062 -21 C5.79688 -21 3.5625 -20.2031 2.3125 -17.3594 C1.34375 -15.25 1.1875 -12.875 1.1875 -10.4375 C1.1875 -8.14062 1.3125 -5.39062 2.5625 -3.07812 C3.875 -0.609375 6.10938 0 7.60938 0 C9.25 0 11.5781 -0.640625 12.9219 -3.53125 C13.9062 -5.64062 14.0469 -8.01562 14.0469 -10.4375 ZM11.5156 -10.7969 C11.5156 -8.5 11.5156 -6.4375 11.1719 -4.48438 C10.7188 -1.57812 8.98438 -0.671875 7.60938 -0.671875 C6.40625 -0.671875 4.60938 -1.42188 4.0625 -4.35938 C3.71875 -6.1875 3.71875 -9 3.71875 -10.7969 C3.71875 -12.75 3.71875 -14.7656 3.96875 -16.4062 C4.54688 -20.0469 6.84375 -20.3125 7.60938 -20.3125 C8.60938 -20.3125 10.625 -19.7656 11.2031 -16.75 C11.5156 -15.0312 11.5156 -12.7188 11.5156 -10.7969 Z" transform="translate(1930.38 366.972)"/>
  <path fill="#000000" d="M5.85938 -1.60938 C5.85938 -2.5 5.125 -3.23438 4.23438 -3.23438 C3.35938 -3.23438 2.625 -2.5 2.625 -1.60938 C2.625 -0.71875 3.35938 0 4.23438 0 C5.125 0 5.85938 -0.71875 5.85938 -1.60938 Z" transform="translate(1945.66 366.972)"/>
  <path fill="#000000" d="M14.0469 -10.4375 C14.0469 -12.875 13.9062 -15.3125 12.8281 -17.5781 C11.4219 -20.5 8.92188 -21 7.64062 -21 C5.79688 -21 3.5625 -20.2031 2.3125 -17.3594 C1.34375 -15.25 1.1875 -12.875 1.1875 -10.4375 C1.1875 -8.14062 1.3125 -5.39062 2.5625 -3.07812 C3.875 -0.609375 6.10938 0 7.60938 0 C9.25 0 11.5781 -0.640625 12.9219 -3.53125 C13.9062 -5.64062 14.0469 -8.01562 14.0469 -10.4375 ZM11.5156 -10.7969 C11.5156 -8.5 11.5156 -6.4375 11.1719 -4.48438 C10.7188 -1.57812 8.98438 -0.671875 7.60938 -0.671875 C6.40625 -0.671875 4.60938 -1.42188 4.0625 -4.35938 C3.71875 -6.1875 3.71875 -9 3.71875 -10.7969 C3.71875 -12.75 3.71875 -14.7656 3.96875 -16.4062 C4.54688 -20.0469 6.84375 -20.3125 7.60938 -20.3125 C8.60938 -20.3125 10.625 -19.7656 11.2031 -16.75 C11.5156 -15.0312 11.5156 -12.7188 11.5156 -10.7969 Z" transform="translate(1954.16 366.972)"/>
  <path fill="#000000" d="M13.7188 -5.64062 L12.9531 -5.64062 C12.7969 -4.625 12.5781 -3.125 12.2812 -2.60938 C12.0625 -2.34375 10.0469 -2.34375 9.375 -2.34375 L3.875 -2.34375 L7.10938 -5.82812 C11.875 -10.1719 13.7188 -11.9219 13.7188 -15.0938 C13.7188 -18.5625 10.9688 -21 7.23438 -21 C3.78125 -21 1.51562 -18.2031 1.51562 -15.5 C1.51562 -13.7812 3.04688 -13.7812 3.14062 -13.7812 C3.65625 -13.7812 4.73438 -14.1562 4.73438 -15.4062 C4.73438 -16.2031 4.17188 -17 3.10938 -17 C2.85938 -17 2.79688 -17 2.71875 -16.9688 C3.42188 -18.9219 5.0625 -20.0469 6.84375 -20.0469 C9.625 -20.0469 10.9375 -17.5938 10.9375 -15.0938 C10.9375 -12.2969 9.40625 -9.89062 7.71875 -8 L1.85938 -1.125 C1.51562 -0.78125 1.51562 -0.71875 1.51562 0 L12.8594 0 L13.7188 -5.64062 Z" transform="translate(1915.1 323.458)"/>
  <path fill="#000000" d="M14.0469 -10.4375 C14.0469 -12.875 13.9062 -15.3125 12.8281 -17.5781 C11.4219 -20.5 8.92188 -21 7.64062 -21 C5.79688 -21 3.5625 -20.2031 2.3125 -17.3594 C1.34375 -15.25 1.1875 -12.875 1.1875 -10.4375 C1.1875 -8.14062 1.3125 -5.39062 2.5625 -3.07812 C3.875 -0.609375 6.10938 0 7.60938 0 C9.25 0 11.5781 -0.640625 12.9219 -3.53125 C13.9062 -5.64062 14.0469 -8.01562 14.0469 -10.4375 ZM11.5156 -10.7969 C11.5156 -8.5 11.5156 -6.4375 11.1719 -4.48438 C10.7188 -1.57812 8.98438 -0.671875 7.60938 -0.671875 C6.40625 -0.671875 4.60938 -1.42188 4.0625 -4.35938 C3.71875 -6.1875 3.71875 -9 3.71875 -10.7969 C3.71875 -12.75 3.71875 -14.7656 3.96875 -16.4062 C4.54688 -20.0469 6.84375 -20.3125 7.60938 -20.3125 C8.60938 -20.3125 10.625 -19.7656 11.2031 -16.75 C11.5156 -15.0312 11.5156 -12.7188 11.5156 -10.7969 Z" transform="translate(1930.38 323.458)"/>
  <path fill="#000000" d="M5.85938 -1.60938 C5.85938 -2.5 5.125 -3.23438 4.23438 -3.23438 C3.35938 -3.23438 2.625 -2.5 2.625 -1.60938 C2.625 -0.71875 3.35938 0 4.23438 0 C5.125 0 5.85938 -0.71875 5.85938 -1.60938 Z" transform="translate(1945.66 323.458)"/>
  <path fill="#000000" d="M14.0469 -10.4375 C14.0469 -12.875 13.9062 -15.3125 12.8281 -17.5781 C11.4219 -20.5 8.92188 -21 7.64062 -21 C5.79688 -21 3.5625 -20.2031 2.3125 -17.3594 C1.34375 -15.25 1.1875 -12.875 1.1875 -10.4375 C1.1875 -8.14062 1.3125 -5.39062 2.5625 -3.07812 C3.875 -0.609375 6.10938 0 7.60938 0 C9.25 0 11.5781 -0.640625 12.9219 -3.53125 C13.9062 -5.64062 14.0469 -8.01562 14.0469 -10.4375 ZM11.5156 -10.7969 C11.5156 -8.5 11.5156 -6.4375 11.1719 -4.48438 C10.7188 -1.57812 8.98438 -0.671875 7.60938 -0.671875 C6.40625 -0.671875 4.60938 -1.42188 4.0625 -4.35938 C3.71875 -6.1875 3.71875 -9 3.71875 -10.7969 C3.71875 -12.75 3.71875 -14.7656 3.96875 -16.4062 C4.54688 -20.0469 6.84375 -20.3125 7.60938 -20.3125 C8.60938 -20.3125 10.625 -19.7656 11.2031 -16.75 C11.5156 -15.0312 11.5156 -12.7188 11.5156 -10.7969 Z" transform="translate(1954.16 323.458)"/>
  <path fill="#000000" d="M13.9531 -5.85938 C13.9531 -8.39062 12.0312 -10.8125 8.85938 -11.4531 C11.3594 -12.2188 13.1406 -14.1875 13.1406 -16.5156 C13.1406 -19.1562 10.4375 -21 7.51562 -21 C4.42188 -21 2.09375 -19.0156 2.09375 -16.5781 C2.09375 -15.5781 2.78125 -15 3.65625 -15 C4.60938 -15 5.21875 -15.6719 5.21875 -16.5469 C5.21875 -18.0781 3.78125 -18.0781 3.32812 -18.0781 C4.26562 -19.7812 6.28125 -20.2344 7.39062 -20.2344 C8.64062 -20.2344 10.3281 -19.4688 10.3281 -16.5469 C10.3281 -16.1875 10.2656 -14.4688 9.46875 -13.2344 C8.54688 -11.8906 7.51562 -11.8125 6.75 -11.7812 C6.5 -11.75 5.76562 -11.6875 5.5625 -11.6875 C5.3125 -11.6719 5.09375 -11.6406 5.09375 -11.3281 C5.09375 -11 5.3125 -11 5.82812 -11 L7.17188 -11 C9.6875 -11 10.8125 -8.89062 10.8125 -5.85938 C10.8125 -1.71875 8.70312 -0.84375 7.35938 -0.84375 C6.04688 -0.84375 3.75 -1.35938 2.6875 -3.14062 C3.75 -3 4.70312 -3.67188 4.70312 -4.82812 C4.70312 -5.92188 3.875 -6.53125 2.98438 -6.53125 C2.25 -6.53125 1.28125 -6.10938 1.28125 -4.76562 C1.28125 -2 4.125 0 7.45312 0 C11.1719 0 13.9531 -2.75 13.9531 -5.85938 Z" transform="translate(1915.1 279.944)"/>
  <path fill="#000000" d="M14.0469 -10.4375 C14.0469 -12.875 13.9062 -15.3125 12.8281 -17.5781 C11.4219 -20.5 8.92188 -21 7.64062 -21 C5.79688 -21 3.5625 -20.2031 2.3125 -17.3594 C1.34375 -15.25 1.1875 -12.875 1.1875 -10.4375 C1.1875 -8.14062 1.3125 -5.39062 2.5625 -3.07812 C3.875 -0.609375 6.10938 0 7.60938 0 C9.25 0 11.5781 -0.640625 12.9219 -3.53125 C13.9062 -5.64062 14.0469 -8.01562 14.0469 -10.4375 ZM11.5156 -10.7969 C11.5156 -8.5 11.5156 -6.4375 11.1719 -4.48438 C10.7188 -1.57812 8.98438 -0.671875 7.60938 -0.671875 C6.40625 -0.671875 4.60938 -1.42188 4.0625 -4.35938 C3.71875 -6.1875 3.71875 -9 3.71875 -10.7969 C3.71875 -12.75 3.71875 -14.7656 3.96875 -16.4062 C4.54688 -20.0469 6.84375 -20.3125 7.60938 -20.3125 C8.60938 -20.3125 10.625 -19.7656 11.2031 -16.75 C11.5156 -15.0312 11.5156 -12.7188 11.5156 -10.7969 Z" transform="translate(1930.38 279.944)"/>
  <path fill="#000000" d="M5.85938 -1.60938 C5.85938 -2.5 5.125 -3.23438 4.23438 -3.23438 C3.35938 -3.23438 2.625 -2.5 2.625 -1.60938 C2.625 -0.71875 3.35938 0 4.23438 0 C5.125 0 5.85938 -0.71875 5.85938 -1.60938 Z" transform="translate(1945.66 279.944)"/>
  <path fill="#000000" d="M14.0469 -10.4375 C14.0469 -12.875 13.9062 -15.3125 12.8281 -17.5781 C11.4219 -20.5 8.92188 -21 7.64062 -21 C5.79688 -21 3.5625 -20.2031 2.3125 -17.3594 C1.34375 -15.25 1.1875 -12.875 1.1875 -10.4375 C1.1875 -8.14062 1.3125 -5.39062 2.5625 -3.07812 C3.875 -0.609375 6.10938 0 7.60938 0 C9.25 0 11.5781 -0.640625 12.9219 -3.53125 C13.9062 -5.64062 14.0469 -8.01562 14.0469 -10.4375 ZM11.5156 -10.7969 C11.5156 -8.5 11.5156 -6.4375 11.1719 -4.48438 C10.7188 -1.57812 8.98438 -0.671875 7.60938 -0.671875 C6.40625 -0.671875 4.60938 -1.42188 4.0625 -4.35938 C3.71875 -6.1875 3.71875 -9 3.71875 -10.7969 C3.71875 -12.75 3.71875 -14.7656 3.96875 -16.4062 C4.54688 -20.0469 6.84375 -20.3125 7.60938 -20.3125 C8.60938 -20.3125 10.625 -19.7656 11.2031 -16.75 C11.5156 -15.0312 11.5156 -12.7188 11.5156 -10.7969 Z" transform="translate(1954.16 279.944)"/>
  <path fill="#000000" d="M14.3906 -5.04688 L14.3906 -6 L11.3281 -6 L11.3281 -20.1875 C11.3281 -20.8125 11.3281 -21 10.8438 -21 C10.5625 -21 10.4688 -21 10.2344 -20.625 L0.84375 -6 L0.84375 -5.04688 L8.98438 -5.04688 L8.98438 -2.375 C8.98438 -1.28125 8.92188 -0.9375 6.65625 -0.9375 L6.01562 -0.9375 L6.01562 0 C7.26562 -0.078125 8.85938 -0.078125 10.1406 -0.078125 C11.4219 -0.078125 13.0469 -0.078125 14.2969 0 L14.2969 -0.9375 L13.6562 -0.9375 C11.3906 -0.9375 11.3281 -1.28125 11.3281 -2.375 L11.3281 -5.04688 L14.3906 -5.04688 ZM9.15625 -6 L1.70312 -6 L9.15625 -17.625 L9.15625 -6 Z" transform="translate(1915.1 236.431)"/>
  <path fill="#000000" d="M14.0469 -10.4375 C14.0469 -12.875 13.9062 -15.3125 12.8281 -17.5781 C11.4219 -20.5 8.92188 -21 7.64062 -21 C5.79688 -21 3.5625 -20.2031 2.3125 -17.3594 C1.34375 -15.25 1.1875 -12.875 1.1875 -10.4375 C1.1875 -8.14062 1.3125 -5.39062 2.5625 -3.07812 C3.875 -0.609375 6.10938 0 7.60938 0 C9.25 0 11.5781 -0.640625 12.9219 -3.53125 C13.9062 -5.64062 14.0469 -8.01562 14.0469 -10.4375 ZM11.5156 -10.7969 C11.5156 -8.5 11.5156 -6.4375 11.1719 -4.48438 C10.7188 -1.57812 8.98438 -0.671875 7.60938 -0.671875 C6.40625 -0.671875 4.60938 -1.42188 4.0625 -4.35938 C3.71875 -6.1875 3.71875 -9 3.71875 -10.7969 C3.71875 -12.75 3.71875 -14.7656 3.96875 -16.4062 C4.54688 -20.0469 6.84375 -20.3125 7.60938 -20.3125 C8.60938 -20.3125 10.625 -19.7656 11.2031 -16.75 C11.5156 -15.0312 11.5156 -12.7188 11.5156 -10.7969 Z" transform="translate(1930.38 236.431)"/>
  <path fill="#000000" d="M5.85938 -1.60938 C5.85938 -2.5 5.125 -3.23438 4.23438 -3.23438 C3.35938 -3.23438 2.625 -2.5 2.625 -1.60938 C2.625 -0.71875 3.35938 0 4.23438 0 C5.125 0 5.85938 -0.71875 5.85938 -1.60938 Z" transform="translate(1945.66 236.431)"/>
  <path fill="#000000" d="M14.0469 -10.4375 C14.0469 -12.875 13.9062 -15.3125 12.8281 -17.5781 C11.4219 -20.5 8.92188 -21 7.64062 -21 C5.79688 -21 3.5625 -20.2031 2.3125 -17.3594 C1.34375 -15.25 1.1875 -12.875 1.1875 -10.4375 C1.1875 -8.14062 1.3125 -5.39062 2.5625 -3.07812 C3.875 -0.609375 6.10938 0 7.60938 0 C9.25 0 11.5781 -0.640625 12.9219 -3.53125 C13.9062 -5.64062 14.0469 -8.01562 14.0469 -10.4375 ZM11.5156 -10.7969 C11.5156 -8.5 11.5156 -6.4375 11.1719 -4.48438 C10.7188 -1.57812 8.98438 -0.671875 7.60938 -0.671875 C6.40625 -0.671875 4.60938 -1.42188 4.0625 -4.35938 C3.71875 -6.1875 3.71875 -9 3.71875 -10.7969 C3.71875 -12.75 3.71875 -14.7656 3.96875 -16.4062 C4.54688 -20.0469 6.84375 -20.3125 7.60938 -20.3125 C8.60938 -20.3125 10.625 -19.7656 11.2031 -16.75 C11.5156 -15.0312 11.5156 -12.7188 11.5156 -10.7969 Z" transform="translate(1954.16 236.431)"/>
  <path fill="#000000" d="M13.7188 -6.96875 C13.7188 -10.6094 11.2031 -13.6719 7.90625 -13.6719 C6.4375 -13.6719 5.125 -13.1719 4.03125 -12.1094 L4.03125 -18 C4.64062 -17.6719 5.64062 -17.4531 6.625 -17.4531 C10.3906 -17.4531 12.5156 -20.25 12.5156 -20.6562 C12.5156 -20.8438 12.4375 -21 12.2188 -21 C12.2188 -21.0781 12.125 -21.0781 11.9688 -21 C11.3594 -20.7188 9.85938 -20 7.8125 -20 C6.59375 -20 5.1875 -20.2031 3.75 -20.8438 C3.5 -20.9375 3.39062 -20.9375 3.39062 -20.9375 C3.07812 -21.0469 3.07812 -20.8125 3.07812 -20.3125 L3.07812 -11.375 C3.07812 -10.8281 3.07812 -10.5938 3.5 -10.5938 C3.71875 -10.5938 3.78125 -10.6719 3.90625 -10.8594 C4.23438 -11.3438 5.375 -13 7.84375 -13 C9.4375 -13 10.2031 -11.5938 10.4375 -11.0469 C10.9375 -9.92188 11 -8.73438 11 -7.20312 C11 -6.14062 11 -4.29688 10.2656 -2.9375 C9.53125 -1.6875 8.39062 -0.84375 6.98438 -0.84375 C4.76562 -0.84375 3.01562 -2.5625 2.5 -4.45312 C2.59375 -4.03125 2.6875 -4 3.01562 -4 C4.03125 -4 4.54688 -4.76562 4.54688 -5.5 C4.54688 -6.23438 4.03125 -7 3.01562 -7 C2.59375 -7 1.51562 -6.78125 1.51562 -5.375 C1.51562 -3.07812 3.625 0 7.04688 0 C10.5938 0 13.7188 -3.03125 13.7188 -7 L13.7188 -6.96875 Z" transform="translate(1915.1 192.917)"/>
  <path fill="#000000" d="M14.0469 -10.4375 C14.0469 -12.875 13.9062 -15.3125 12.8281 -17.5781 C11.4219 -20.5 8.92188 -21 7.64062 -21 C5.79688 -21 3.5625 -20.2031 2.3125 -17.3594 C1.34375 -15.25 1.1875 -12.875 1.1875 -10.4375 C1.1875 -8.14062 1.3125 -5.39062 2.5625 -3.07812 C3.875 -0.609375 6.10938 0 7.60938 0 C9.25 0 11.5781 -0.640625 12.9219 -3.53125 C13.9062 -5.64062 14.0469 -8.01562 14.0469 -10.4375 ZM11.5156 -10.7969 C11.5156 -8.5 11.5156 -6.4375 11.1719 -4.48438 C10.7188 -1.57812 8.98438 -0.671875 7.60938 -0.671875 C6.40625 -0.671875 4.60938 -1.42188 4.0625 -4.35938 C3.71875 -6.1875 3.71875 -9 3.71875 -10.7969 C3.71875 -12.75 3.71875 -14.7656 3.96875 -16.4062 C4.54688 -20.0469 6.84375 -20.3125 7.60938 -20.3125 C8.60938 -20.3125 10.625 -19.7656 11.2031 -16.75 C11.5156 -15.0312 11.5156 -12.7188 11.5156 -10.7969 Z" transform="translate(1930.38 192.917)"/>
  <path fill="#000000" d="M5.85938 -1.60938 C5.85938 -2.5 5.125 -3.23438 4.23438 -3.23438 C3.35938 -3.23438 2.625 -2.5 2.625 -1.60938 C2.625 -0.71875 3.35938 0 4.23438 0 C5.125 0 5.85938 -0.71875 5.85938 -1.60938 Z" transform="translate(1945.66 192.917)"/>
  <path fill="#000000" d="M14.0469 -10.4375 C14.0469 -12.875 13.9062 -15.3125 12.8281 -17.5781 C11.4219 -20.5 8.92188 -21 7.64062 -21 C5.79688 -21 3.5625 -20.2031 2.3125 -17.3594 C1.34375 -15.25 1.1875 -12.875 1.1875 -10.4375 C1.1875 -8.14062 1.3125 -5.39062 2.5625 -3.07812 C3.875 -0.609375 6.10938 0 7.60938 0 C9.25 0 11.5781 -0.640625 12.9219 -3.53125 C13.9062 -5.64062 14.0469 -8.01562 14.0469 -10.4375 ZM11.5156 -10.7969 C11.5156 -8.5 11.5156 -6.4375 11.1719 -4.48438 C10.7188 -1.57812 8.98438 -0.671875 7.60938 -0.671875 C6.40625 -0.671875 4.60938 -1.42188 4.0625 -4.35938 C3.71875 -6.1875 3.71875 -9 3.71875 -10.7969 C3.71875 -12.75 3.71875 -14.7656 3.96875 -16.4062 C4.54688 -20.0469 6.84375 -20.3125 7.60938 -20.3125 C8.60938 -20.3125 10.625 -19.7656 11.2031 -16.75 C11.5156 -15.0312 11.5156 -12.7188 11.5156 -10.7969 Z" transform="translate(1954.16 192.917)"/>
  <path fill="#000000" d="M13.9531 -6.89062 C13.9531 -10.7656 11.2344 -13.6875 7.84375 -13.6875 C5.76562 -13.6875 4.64062 -12.1406 4.03125 -10.6719 L4.03125 -11.4062 C4.03125 -19.1094 7.8125 -20.2344 9.375 -20.2344 C10.1094 -20.2344 11.3906 -20.0469 12.0625 -19 C11.6094 -19 10.3906 -19 10.3906 -17.6094 C10.3906 -16.6719 11.125 -16.2031 11.7969 -16.2031 C12.2812 -16.2031 13.2031 -16.4844 13.2031 -17.6719 C13.2031 -19.5156 11.8438 -21 9.3125 -21 C5.40625 -21 1.28125 -17.0312 1.28125 -10.3125 C1.28125 -2.15625 4.82812 0 7.65625 0 C11.0625 0 13.9531 -2.85938 13.9531 -6.89062 ZM11.2031 -6.92188 C11.2031 -5.45312 11.2031 -3.9375 10.6875 -2.82812 C9.76562 -1 8.35938 -0.84375 7.65625 -0.84375 C5.73438 -0.84375 4.82812 -2.67188 4.64062 -3.14062 C4.09375 -4.57812 4.09375 -7.01562 4.09375 -7.5625 C4.09375 -9.9375 5.0625 -13 7.8125 -13 C8.3125 -13 9.71875 -13 10.6562 -11.1094 C11.2031 -9.96875 11.2031 -8.42188 11.2031 -6.92188 Z" transform="translate(1915.1 149.403)"/>
  <path fill="#000000" d="M14.0469 -10.4375 C14.0469 -12.875 13.9062 -15.3125 12.8281 -17.5781 C11.4219 -20.5 8.92188 -21 7.64062 -21 C5.79688 -21 3.5625 -20.2031 2.3125 -17.3594 C1.34375 -15.25 1.1875 -12.875 1.1875 -10.4375 C1.1875 -8.14062 1.3125 -5.39062 2.5625 -3.07812 C3.875 -0.609375 6.10938 0 7.60938 0 C9.25 0 11.5781 -0.640625 12.9219 -3.53125 C13.9062 -5.64062 14.0469 -8.01562 14.0469 -10.4375 ZM11.5156 -10.7969 C11.5156 -8.5 11.5156 -6.4375 11.1719 -4.48438 C10.7188 -1.57812 8.98438 -0.671875 7.60938 -0.671875 C6.40625 -0.671875 4.60938 -1.42188 4.0625 -4.35938 C3.71875 -6.1875 3.71875 -9 3.71875 -10.7969 C3.71875 -12.75 3.71875 -14.7656 3.96875 -16.4062 C4.54688 -20.0469 6.84375 -20.3125 7.60938 -20.3125 C8.60938 -20.3125 10.625 -19.7656 11.2031 -16.75 C11.5156 -15.0312 11.5156 -12.7188 11.5156 -10.7969 Z" transform="translate(1930.38 149.403)"/>
  <path fill="#000000" d="M5.85938 -1.60938 C5.85938 -2.5 5.125 -3.23438 4.23438 -3.23438 C3.35938 -3.23438 2.625 -2.5 2.625 -1.60938 C2.625 -0.71875 3.35938 0 4.23438 0 C5.125 0 5.85938 -0.71875 5.85938 -1.60938 Z" transform="translate(1945.66 149.403)"/>
  <path fill="#000000" d="M14.0469 -10.4375 C14.0469 -12.875 13.9062 -15.3125 12.8281 -17.5781 C11.4219 -20.5 8.92188 -21 7.64062 -21 C5.79688 -21 3.5625 -20.2031 2.3125 -17.3594 C1.34375 -15.25 1.1875 -12.875 1.1875 -10.4375 C1.1875 -8.14062 1.3125 -5.39062 2.5625 -3.07812 C3.875 -0.609375 6.10938 0 7.60938 0 C9.25 0 11.5781 -0.640625 12.9219 -3.53125 C13.9062 -5.64062 14.0469 -8.01562 14.0469 -10.4375 ZM11.5156 -10.7969 C11.5156 -8.5 11.5156 -6.4375 11.1719 -4.48438 C10.7188 -1.57812 8.98438 -0.671875 7.60938 -0.671875 C6.40625 -0.671875 4.60938 -1.42188 4.0625 -4.35938 C3.71875 -6.1875 3.71875 -9 3.71875 -10.7969 C3.71875 -12.75 3.71875 -14.7656 3.96875 -16.4062 C4.54688 -20.0469 6.84375 -20.3125 7.60938 -20.3125 C8.60938 -20.3125 10.625 -19.7656 11.2031 -16.75 C11.5156 -15.0312 11.5156 -12.7188 11.5156 -10.7969 Z" transform="translate(1954.16 149.403)"/>
  <path stroke-width="2.777778" stroke="#000000" fill="none" d="M109.344 441 L1890.66 441 "/>
  <path stroke-width="2.777778" stroke="#000000" fill="none" d="M109.344 429.889 L109.344 441 "/>
  <path stroke-width="2.777778" stroke="#000000" fill="none" d="M406.229 429.889 L406.229 441 "/>
  <path stroke-width="2.777778" stroke="#000000" fill="none" d="M703.115 429.889 L703.115 441 "/>
  <path stroke-width="2.777778" stroke="#000000" fill="none" d="M1000 429.889 L1000 441 "/>
  <path stroke-width="2.777778" stroke="#000000" fill="none" d="M1296.89 429.889 L1296.89 441 "/>
  <path stroke-width="2.777778" stroke="#000000" fill="none" d="M1593.77 429.889 L1593.77 441 "/>
  <path stroke-width="2.777778" stroke="#000000" fill="none" d="M1890.66 429.889 L1890.66 441 "/>
  <path fill="#000000" d="M21.9062 0 L21.9062 -0.9375 L21.3594 -0.9375 C19.5156 -0.9375 19.0938 -1.15625 18.7656 -2.17188 L12.1562 -21.375 C12 -21.7812 11.9375 -22 11.4531 -22 C10.9688 -22 10.875 -21.8125 10.7188 -21.375 L4.39062 -3 C3.84375 -1.4375 2.625 -0.96875 0.96875 -0.9375 L0.96875 0 L4.09375 -0.078125 L7.60938 0 L7.60938 -0.9375 C6.07812 -0.9375 5.3125 -1.70312 5.3125 -2.5 C5.3125 -2.59375 5.34375 -2.90625 5.375 -2.96875 L6.78125 -7 L14.3281 -7 L15.9531 -2.29688 C15.9844 -2.17188 16.0312 -1.98438 16.0312 -1.85938 C16.0312 -0.9375 14.3281 -0.9375 13.5 -0.9375 L13.5 0 C14.5938 -0.078125 16.7344 -0.078125 17.9062 -0.078125 L21.9062 0 ZM13.9844 -7.9375 L7.10938 -7.9375 L10.5312 -17.9375 L13.9844 -7.9375 Z" transform="translate(246.326 500.444)"/>
  <path fill="#000000" d="M19.8906 -5.60938 C19.8906 -8.29688 17.375 -10.5938 13.9844 -10.9688 C16.9531 -11.5469 19.0625 -13.5156 19.0625 -15.7969 C19.0625 -18.4688 16.25 -21 12.2812 -21 L1.09375 -21 L1.09375 -20.0469 L1.82812 -20.0469 C4.17188 -20.0469 4.23438 -19.7031 4.23438 -18.5938 L4.23438 -2.39062 C4.23438 -1.28125 4.17188 -0.9375 1.82812 -0.9375 L1.09375 -0.9375 L1.09375 0 L13.0781 0 C17.1406 0.1875 19.8906 -2.53125 19.8906 -5.40625 L19.8906 -5.60938 ZM16.0938 -15.6719 C16.0938 -13.6562 14.5938 -11 11.2031 -11 L6.78125 -11 L6.78125 -18.7812 C6.78125 -19.8281 6.84375 -20.0469 8.28125 -20.0469 L12.0625 -20.0469 C15.0312 -19.7344 16.0938 -17.1406 16.0938 -15.5156 L16.0938 -15.6719 ZM16.8281 -5.53125 C16.8281 -3.39062 15.25 -0.9375 12.0938 -0.9375 L8.28125 -0.9375 C6.84375 -0.9375 6.78125 -1.15625 6.78125 -2.14062 L6.78125 -10.3125 L12.5156 -10.3125 C15.5469 -10.5 16.8281 -7.65625 16.8281 -5.60938 L16.8281 -5.53125 Z" transform="translate(543.852 500.444)"/>
  <path fill="#000000" d="M20.3125 -7.375 C20.3125 -7.65625 20.3125 -7.85938 19.9219 -7.85938 C19.5781 -7.85938 19.5781 -7.6875 19.5469 -7.40625 C19.3125 -3.29688 16.0312 -0.9375 12.7031 -0.9375 C10.8438 -0.9375 4.85938 -1.92188 4.85938 -10.4844 C4.85938 -19.0625 10.8125 -20.0469 12.6719 -20.0469 C16 -20.0469 18.7344 -17.4375 19.3438 -13.2344 C19.4062 -12.8281 19.4062 -12.75 19.8281 -12.75 C20.3125 -12.75 20.3125 -12.8281 20.3125 -13.4375 L20.3125 -20.2656 C20.3125 -20.7812 20.3125 -21 19.9844 -21 C19.8594 -21 19.7344 -21 19.4844 -20.625 L17.9688 -18.4688 C16.8281 -19.5 15.2812 -21 12.3438 -21 C6.625 -21 1.70312 -16.375 1.70312 -10.5 C1.70312 -4.5625 6.65625 0 12.3438 0 C17.3281 0 20.3125 -4.04688 20.3125 -7.375 Z" transform="translate(840.526 500.444)"/>
  <path fill="#000000" d="M21.5938 -10.3281 C21.5938 -16.1719 17.4688 -21 12.25 -21 L1.0625 -21 L1.0625 -20.0469 L1.79688 -20.0469 C4.15625 -20.0469 4.20312 -19.7031 4.20312 -18.5938 L4.20312 -2.39062 C4.20312 -1.28125 4.15625 -0.9375 1.79688 -0.9375 L1.0625 -0.9375 L1.0625 0 L12.25 0 C17.375 0 21.5938 -4.53125 21.5938 -10.3281 ZM18.5469 -10.3281 C18.5469 -6.90625 17.9688 -5.0625 16.8594 -3.54688 C16.25 -2.71875 14.5156 -0.9375 11.4219 -0.9375 L8.34375 -0.9375 C6.90625 -0.9375 6.84375 -1.15625 6.84375 -2.17188 L6.84375 -18.8125 C6.84375 -19.8281 6.90625 -20.0469 8.34375 -20.0469 L11.3906 -20.0469 C13.2812 -20.0469 15.3906 -19.3594 16.9531 -17.1875 C18.2656 -15.3594 18.5469 -12.7188 18.5469 -10.3281 Z" transform="translate(1136.77 500.444)"/>
  <path fill="#000000" d="M19.9219 -7.67188 L19.1562 -7.67188 C18.3906 -3.10938 17.6875 -0.9375 12.4375 -0.9375 L8.35938 -0.9375 C6.9375 -0.9375 6.875 -1.14062 6.875 -2.125 L6.875 -10.0469 L9.625 -10.0469 C12.5781 -10.0469 12.9219 -9.09375 12.9219 -6.57812 L13.6875 -6.57812 L13.6875 -14.9375 L12.9219 -14.9375 C12.9219 -12.0781 12.5781 -11 9.625 -11 L6.875 -11 L6.875 -18.75 C6.875 -19.7812 6.9375 -20 8.35938 -20 L12.3125 -20 C16.9844 -20 17.8125 -18.2812 18.2969 -14 L19.0625 -14 L18.2031 -20.9375 L1 -20.9375 L1 -20 L1.73438 -20 C4.09375 -20 4.15625 -19.6562 4.15625 -18.5312 L4.15625 -2.32812 C4.15625 -1.26562 4.09375 -0.9375 1.73438 -0.9375 L1 -0.9375 L1 0 L18.6406 0 L19.9219 -7.67188 Z" transform="translate(1434.92 500.444)"/>
  <path fill="#000000" d="M18.6406 -14.0156 L17.7812 -20.9375 L1 -20.9375 L1 -20 L1.73438 -20 C4.09375 -20 4.15625 -19.6562 4.15625 -18.5469 L4.15625 -2.39062 C4.15625 -1.28125 4.09375 -0.9375 1.73438 -0.9375 L1 -0.9375 L1 0 C2.07812 -0.078125 4.45312 -0.078125 5.64062 -0.078125 C6.90625 -0.078125 9.6875 -0.078125 10.7812 0 L10.7812 -0.9375 L9.76562 -0.9375 C6.875 -1 6.875 -1.40625 6.875 -2.46875 L6.875 -10 L9.5 -10 C12.4375 -10 12.7344 -9.01562 12.7344 -6.42188 L13.5 -6.42188 L13.5 -14.5156 L12.7344 -14.5156 C12.7344 -11.9531 12.4375 -10.9375 9.5 -10.9375 L6.875 -10.9375 L6.875 -18.6719 C6.875 -19.7812 6.9375 -20 8.35938 -20 L12.0312 -20 C16.625 -20 17.375 -18.2812 17.875 -14.0625 L18.6406 -14.0156 Z" transform="translate(1732.24 500.444)"/>
  <path stroke-width="2.777778" stroke="#000000" fill="none" d="M109.344 92.8889 L109.344 441 "/>
  <path stroke-width="2.777778" stroke="#000000" fill="none" d="M109.344 397.486 L120.455 397.486 "/>
  <path stroke-width="2.777778" stroke="#000000" fill="none" d="M109.344 353.972 L120.455 353.972 "/>
  <path stroke-width="2.777778" stroke="#000000" fill="none" d="M109.344 310.458 L120.455 310.458 "/>
  <path stroke-width="2.777778" stroke="#000000" fill="none" d="M109.344 266.944 L120.455 266.944 "/>
  <path stroke-width="2.777778" stroke="#000000" fill="none" d="M109.344 223.431 L120.455 223.431 "/>
  <path stroke-width="2.777778" stroke="#000000" fill="none" d="M109.344 179.917 L120.455 179.917 "/>
  <path stroke-width="2.777778" stroke="#000000" fill="none" d="M109.344 136.403 L120.455 136.403 "/>
  <path fill="#000000" d="M14.0469 -10.4375 C14.0469 -12.875 13.9062 -15.3125 12.8281 -17.5781 C11.4219 -20.5 8.92188 -21 7.64062 -21 C5.79688 -21 3.5625 -20.2031 2.3125 -17.3594 C1.34375 -15.25 1.1875 -12.875 1.1875 -10.4375 C1.1875 -8.14062 1.3125 -5.39062 2.5625 -3.07812 C3.875 -0.609375 6.10938 0 7.60938 0 C9.25 0 11.5781 -0.640625 12.9219 -3.53125 C13.9062 -5.64062 14.0469 -8.01562 14.0469 -10.4375 ZM11.5156 -10.7969 C11.5156 -8.5 11.5156 -6.4375 11.1719 -4.48438 C10.7188 -1.57812 8.98438 -0.671875 7.60938 -0.671875 C6.40625 -0.671875 4.60938 -1.42188 4.0625 -4.35938 C3.71875 -6.1875 3.71875 -9 3.71875 -10.7969 C3.71875 -12.75 3.71875 -14.7656 3.96875 -16.4062 C4.54688 -20.0469 6.84375 -20.3125 7.60938 -20.3125 C8.60938 -20.3125 10.625 -19.7656 11.2031 -16.75 C11.5156 -15.0312 11.5156 -12.7188 11.5156 -10.7969 Z" transform="translate(45.8368 410.486)"/>
  <path fill="#000000" d="M5.85938 -1.60938 C5.85938 -2.5 5.125 -3.23438 4.23438 -3.23438 C3.35938 -3.23438 2.625 -2.5 2.625 -1.60938 C2.625 -0.71875 3.35938 0 4.23438 0 C5.125 0 5.85938 -0.71875 5.85938 -1.60938 Z" transform="translate(61.1181 410.486)"/>
  <path fill="#000000" d="M14.0469 -10.4375 C14.0469 -12.875 13.9062 -15.3125 12.8281 -17.5781 C11.4219 -20.5 8.92188 -21 7.64062 -21 C5.79688 -21 3.5625 -20.2031 2.3125 -17.3594 C1.34375 -15.25 1.1875 -12.875 1.1875 -10.4375 C1.1875 -8.14062 1.3125 -5.39062 2.5625 -3.07812 C3.875 -0.609375 6.10938 0 7.60938 0 C9.25 0 11.5781 -0.640625 12.9219 -3.53125 C13.9062 -5.64062 14.0469 -8.01562 14.0469 -10.4375 ZM11.5156 -10.7969 C11.5156 -8.5 11.5156 -6.4375 11.1719 -4.48438 C10.7188 -1.57812 8.98438 -0.671875 7.60938 -0.671875 C6.40625 -0.671875 4.60938 -1.42188 4.0625 -4.35938 C3.71875 -6.1875 3.71875 -9 3.71875 -10.7969 C3.71875 -12.75 3.71875 -14.7656 3.96875 -16.4062 C4.54688 -20.0469 6.84375 -20.3125 7.60938 -20.3125 C8.60938 -20.3125 10.625 -19.7656 11.2031 -16.75 C11.5156 -15.0312 11.5156 -12.7188 11.5156 -10.7969 Z" transform="translate(69.6181 410.486)"/>
  <path fill="#000000" d="M12.7969 0 L12.7969 -0.9375 L11.8125 -0.9375 C9.0625 -0.9375 8.98438 -1.28125 8.98438 -2.45312 L8.98438 -20.1562 C8.98438 -20.9219 8.98438 -21 8.28125 -21 C6.375 -18.9375 3.6875 -18.9375 2.71875 -18.9375 L2.71875 -18 C3.32812 -18 5.125 -18 6.71875 -18.7812 L6.71875 -2.45312 C6.71875 -1.3125 6.625 -0.9375 3.875 -0.9375 L2.89062 -0.9375 L2.89062 0 C3.96875 -0.078125 6.625 -0.078125 7.84375 -0.078125 C9.0625 -0.078125 11.7344 -0.078125 12.7969 0 Z" transform="translate(30.5556 366.972)"/>
  <path fill="#000000" d="M14.0469 -10.4375 C14.0469 -12.875 13.9062 -15.3125 12.8281 -17.5781 C11.4219 -20.5 8.92188 -21 7.64062 -21 C5.79688 -21 3.5625 -20.2031 2.3125 -17.3594 C1.34375 -15.25 1.1875 -12.875 1.1875 -10.4375 C1.1875 -8.14062 1.3125 -5.39062 2.5625 -3.07812 C3.875 -0.609375 6.10938 0 7.60938 0 C9.25 0 11.5781 -0.640625 12.9219 -3.53125 C13.9062 -5.64062 14.0469 -8.01562 14.0469 -10.4375 ZM11.5156 -10.7969 C11.5156 -8.5 11.5156 -6.4375 11.1719 -4.48438 C10.7188 -1.57812 8.98438 -0.671875 7.60938 -0.671875 C6.40625 -0.671875 4.60938 -1.42188 4.0625 -4.35938 C3.71875 -6.1875 3.71875 -9 3.71875 -10.7969 C3.71875 -12.75 3.71875 -14.7656 3.96875 -16.4062 C4.54688 -20.0469 6.84375 -20.3125 7.60938 -20.3125 C8.60938 -20.3125 10.625 -19.7656 11.2031 -16.75 C11.5156 -15.0312 11.5156 -12.7188 11.5156 -10.7969 Z" transform="translate(45.8368 366.972)"/>
  <path fill="#000000" d="M5.85938 -1.60938 C5.85938 -2.5 5.125 -3.23438 4.23438 -3.23438 C3.35938 -3.23438 2.625 -2.5 2.625 -1.60938 C2.625 -0.71875 3.35938 0 4.23438 0 C5.125 0 5.85938 -0.71875 5.85938 -1.60938 Z" transform="translate(61.1181 366.972)"/>
  <path fill="#000000" d="M14.0469 -10.4375 C14.0469 -12.875 13.9062 -15.3125 12.8281 -17.5781 C11.4219 -20.5 8.92188 -21 7.64062 -21 C5.79688 -21 3.5625 -20.2031 2.3125 -17.3594 C1.34375 -15.25 1.1875 -12.875 1.1875 -10.4375 C1.1875 -8.14062 1.3125 -5.39062 2.5625 -3.07812 C3.875 -0.609375 6.10938 0 7.60938 0 C9.25 0 11.5781 -0.640625 12.9219 -3.53125 C13.9062 -5.64062 14.0469 -8.01562 14.0469 -10.4375 ZM11.5156 -10.7969 C11.5156 -8.5 11.5156 -6.4375 11.1719 -4.48438 C10.7188 -1.57812 8.98438 -0.671875 7.60938 -0.671875 C6.40625 -0.671875 4.60938 -1.42188 4.0625 -4.35938 C3.71875 -6.1875 3.71875 -9 3.71875 -10.7969 C3.71875 -12.75 3.71875 -14.7656 3.96875 -16.4062 C4.54688 -20.0469 6.84375 -20.3125 7.60938 -20.3125 C8.60938 -20.3125 10.625 -19.7656 11.2031 -16.75 C11.5156 -15.0312 11.5156 -12.7188 11.5156 -10.7969 Z" transform="translate(69.6181 366.972)"/>
  <path fill="#000000" d="M13.7188 -5.64062 L12.9531 -5.64062 C12.7969 -4.625 12.5781 -3.125 12.2812 -2.60938 C12.0625 -2.34375 10.0469 -2.34375 9.375 -2.34375 L3.875 -2.34375 L7.10938 -5.82812 C11.875 -10.1719 13.7188 -11.9219 13.7188 -15.0938 C13.7188 -18.5625 10.9688 -21 7.23438 -21 C3.78125 -21 1.51562 -18.2031 1.51562 -15.5 C1.51562 -13.7812 3.04688 -13.7812 3.14062 -13.7812 C3.65625 -13.7812 4.73438 -14.1562 4.73438 -15.4062 C4.73438 -16.2031 4.17188 -17 3.10938 -17 C2.85938 -17 2.79688 -17 2.71875 -16.9688 C3.42188 -18.9219 5.0625 -20.0469 6.84375 -20.0469 C9.625 -20.0469 10.9375 -17.5938 10.9375 -15.0938 C10.9375 -12.2969 9.40625 -9.89062 7.71875 -8 L1.85938 -1.125 C1.51562 -0.78125 1.51562 -0.71875 1.51562 0 L12.8594 0 L13.7188 -5.64062 Z" transform="translate(30.5556 323.458)"/>
  <path fill="#000000" d="M14.0469 -10.4375 C14.0469 -12.875 13.9062 -15.3125 12.8281 -17.5781 C11.4219 -20.5 8.92188 -21 7.64062 -21 C5.79688 -21 3.5625 -20.2031 2.3125 -17.3594 C1.34375 -15.25 1.1875 -12.875 1.1875 -10.4375 C1.1875 -8.14062 1.3125 -5.39062 2.5625 -3.07812 C3.875 -0.609375 6.10938 0 7.60938 0 C9.25 0 11.5781 -0.640625 12.9219 -3.53125 C13.9062 -5.64062 14.0469 -8.01562 14.0469 -10.4375 ZM11.5156 -10.7969 C11.5156 -8.5 11.5156 -6.4375 11.1719 -4.48438 C10.7188 -1.57812 8.98438 -0.671875 7.60938 -0.671875 C6.40625 -0.671875 4.60938 -1.42188 4.0625 -4.35938 C3.71875 -6.1875 3.71875 -9 3.71875 -10.7969 C3.71875 -12.75 3.71875 -14.7656 3.96875 -16.4062 C4.54688 -20.0469 6.84375 -20.3125 7.60938 -20.3125 C8.60938 -20.3125 10.625 -19.7656 11.2031 -16.75 C11.5156 -15.0312 11.5156 -12.7188 11.5156 -10.7969 Z" transform="translate(45.8368 323.458)"/>
  <path fill="#000000" d="M5.85938 -1.60938 C5.85938 -2.5 5.125 -3.23438 4.23438 -3.23438 C3.35938 -3.23438 2.625 -2.5 2.625 -1.60938 C2.625 -0.71875 3.35938 0 4.23438 0 C5.125 0 5.85938 -0.71875 5.85938 -1.60938 Z" transform="translate(61.1181 323.458)"/>
  <path fill="#000000" d="M14.0469 -10.4375 C14.0469 -12.875 13.9062 -15.3125 12.8281 -17.5781 C11.4219 -20.5 8.92188 -21 7.64062 -21 C5.79688 -21 3.5625 -20.2031 2.3125 -17.3594 C1.34375 -15.25 1.1875 -12.875 1.1875 -10.4375 C1.1875 -8.14062 1.3125 -5.39062 2.5625 -3.07812 C3.875 -0.609375 6.10938 0 7.60938 0 C9.25 0 11.5781 -0.640625 12.9219 -3.53125 C13.9062 -5.64062 14.0469 -8.01562 14.0469 -10.4375 ZM11.5156 -10.7969 C11.5156 -8.5 11.5156 -6.4375 11.1719 -4.48438 C10.7188 -1.57812 8.98438 -0.671875 7.60938 -0.671875 C6.40625 -0.671875 4.60938 -1.42188 4.0625 -4.35938 C3.71875 -6.1875 3.71875 -9 3.71875 -10.7969 C3.71875 -12.75 3.71875 -14.7656 3.96875 -16.4062 C4.54688 -20.0469 6.84375 -20.3125 7.60938 -20.3125 C8.60938 -20.3125 10.625 -19.7656 11.2031 -16.75 C11.5156 -15.0312 11.5156 -12.7188 11.5156 -10.7969 Z" transform="translate(69.6181 323.458)"/>
  <path fill="#000000" d="M13.9531 -5.85938 C13.9531 -8.39062 12.0312 -10.8125 8.85938 -11.4531 C11.3594 -12.2188 13.1406 -14.1875 13.1406 -16.5156 C13.1406 -19.1562 10.4375 -21 7.51562 -21 C4.42188 -21 2.09375 -19.0156 2.09375 -16.5781 C2.09375 -15.5781 2.78125 -15 3.65625 -15 C4.60938 -15 5.21875 -15.6719 5.21875 -16.5469 C5.21875 -18.0781 3.78125 -18.0781 3.32812 -18.0781 C4.26562 -19.7812 6.28125 -20.2344 7.39062 -20.2344 C8.64062 -20.2344 10.3281 -19.4688 10.3281 -16.5469 C10.3281 -16.1875 10.2656 -14.4688 9.46875 -13.2344 C8.54688 -11.8906 7.51562 -11.8125 6.75 -11.7812 C6.5 -11.75 5.76562 -11.6875 5.5625 -11.6875 C5.3125 -11.6719 5.09375 -11.6406 5.09375 -11.3281 C5.09375 -11 5.3125 -11 5.82812 -11 L7.17188 -11 C9.6875 -11 10.8125 -8.89062 10.8125 -5.85938 C10.8125 -1.71875 8.70312 -0.84375 7.35938 -0.84375 C6.04688 -0.84375 3.75 -1.35938 2.6875 -3.14062 C3.75 -3 4.70312 -3.67188 4.70312 -4.82812 C4.70312 -5.92188 3.875 -6.53125 2.98438 -6.53125 C2.25 -6.53125 1.28125 -6.10938 1.28125 -4.76562 C1.28125 -2 4.125 0 7.45312 0 C11.1719 0 13.9531 -2.75 13.9531 -5.85938 Z" transform="translate(30.5556 279.944)"/>
  <path fill="#000000" d="M14.0469 -10.4375 C14.0469 -12.875 13.9062 -15.3125 12.8281 -17.5781 C11.4219 -20.5 8.92188 -21 7.64062 -21 C5.79688 -21 3.5625 -20.2031 2.3125 -17.3594 C1.34375 -15.25 1.1875 -12.875 1.1875 -10.4375 C1.1875 -8.14062 1.3125 -5.39062 2.5625 -3.07812 C3.875 -0.609375 6.10938 0 7.60938 0 C9.25 0 11.5781 -0.640625 12.9219 -3.53125 C13.9062 -5.64062 14.0469 -8.01562 14.0469 -10.4375 ZM11.5156 -10.7969 C11.5156 -8.5 11.5156 -6.4375 11.1719 -4.48438 C10.7188 -1.57812 8.98438 -0.671875 7.60938 -0.671875 C6.40625 -0.671875 4.60938 -1.42188 4.0625 -4.35938 C3.71875 -6.1875 3.71875 -9 3.71875 -10.7969 C3.71875 -12.75 3.71875 -14.7656 3.96875 -16.4062 C4.54688 -20.0469 6.84375 -20.3125 7.60938 -20.3125 C8.60938 -20.3125 10.625 -19.7656 11.2031 -16.75 C11.5156 -15.0312 11.5156 -12.7188 11.5156 -10.7969 Z" transform="translate(45.8368 279.944)"/>
  <path fill="#000000" d="M5.85938 -1.60938 C5.85938 -2.5 5.125 -3.23438 4.23438 -3.23438 C3.35938 -3.23438 2.625 -2.5 2.625 -1.60938 C2.625 -0.71875 3.35938 0 4.23438 0 C5.125 0 5.85938 -0.71875 5.85938 -1.60938 Z" transform="translate(61.1181 279.944)"/>
  <path fill="#000000" d="M14.0469 -10.4375 C14.0469 -12.875 13.9062 -15.3125 12.8281 -17.5781 C11.4219 -20.5 8.92188 -21 7.64062 -21 C5.79688 -21 3.5625 -20.2031 2.3125 -17.3594 C1.34375 -15.25 1.1875 -12.875 1.1875 -10.4375 C1.1875 -8.14062 1.3125 -5.39062 2.5625 -3.07812 C3.875 -0.609375 6.10938 0 7.60938 0 C9.25 0 11.5781 -0.640625 12.9219 -3.53125 C13.9062 -5.64062 14.0469 -8.01562 14.0469 -10.4375 ZM11.5156 -10.7969 C11.5156 -8.5 11.5156 -6.4375 11.1719 -4.48438 C10.7188 -1.57812 8.98438 -0.671875 7.60938 -0.671875 C6.40625 -0.671875 4.60938 -1.42188 4.0625 -4.35938 C3.71875 -6.1875 3.71875 -9 3.71875 -10.7969 C3.71875 -12.75 3.71875 -14.7656 3.96875 -16.4062 C4.54688 -20.0469 6.84375 -20.3125 7.60938 -20.3125 C8.60938 -20.3125 10.625 -19.7656 11.2031 -16.75 C11.5156 -15.0312 11.5156 -12.7188 11.5156 -10.7969 Z" transform="translate(69.6181 279.944)"/>
  <path fill="#000000" d="M14.3906 -5.04688 L14.3906 -6 L11.3281 -6 L11.3281 -20.1875 C11.3281 -20.8125 11.3281 -21 10.8438 -21 C10.5625 -21 10.4688 -21 10.2344 -20.625 L0.84375 -6 L0.84375 -5.04688 L8.98438 -5.04688 L8.98438 -2.375 C8.98438 -1.28125 8.92188 -0.9375 6.65625 -0.9375 L6.01562 -0.9375 L6.01562 0 C7.26562 -0.078125 8.85938 -0.078125 10.1406 -0.078125 C11.4219 -0.078125 13.0469 -0.078125 14.2969 0 L14.2969 -0.9375 L13.6562 -0.9375 C11.3906 -0.9375 11.3281 -1.28125 11.3281 -2.375 L11.3281 -5.04688 L14.3906 -5.04688 ZM9.15625 -6 L1.70312 -6 L9.15625 -17.625 L9.15625 -6 Z" transform="translate(30.5556 236.431)"/>
  <path fill="#000000" d="M14.0469 -10.4375 C14.0469 -12.875 13.9062 -15.3125 12.8281 -17.5781 C11.4219 -20.5 8.92188 -21 7.64062 -21 C5.79688 -21 3.5625 -20.2031 2.3125 -17.3594 C1.34375 -15.25 1.1875 -12.875 1.1875 -10.4375 C1.1875 -8.14062 1.3125 -5.39062 2.5625 -3.07812 C3.875 -0.609375 6.10938 0 7.60938 0 C9.25 0 11.5781 -0.640625 12.9219 -3.53125 C13.9062 -5.64062 14.0469 -8.01562 14.0469 -10.4375 ZM11.5156 -10.7969 C11.5156 -8.5 11.5156 -6.4375 11.1719 -4.48438 C10.7188 -1.57812 8.98438 -0.671875 7.60938 -0.671875 C6.40625 -0.671875 4.60938 -1.42188 4.0625 -4.35938 C3.71875 -6.1875 3.71875 -9 3.71875 -10.7969 C3.71875 -12.75 3.71875 -14.7656 3.96875 -16.4062 C4.54688 -20.0469 6.84375 -20.3125 7.60938 -20.3125 C8.60938 -20.3125 10.625 -19.7656 11.2031 -16.75 C11.5156 -15.0312 11.5156 -12.7188 11.5156 -10.7969 Z" transform="translate(45.8368 236.431)"/>
  <path fill="#000000" d="M5.85938 -1.60938 C5.85938 -2.5 5.125 -3.23438 4.23438 -3.23438 C3.35938 -3.23438 2.625 -2.5 2.625 -1.60938 C2.625 -0.71875 3.35938 0 4.23438 0 C5.125 0 5.85938 -0.71875 5.85938 -1.60938 Z" transform="translate(61.1181 236.431)"/>
  <path fill="#000000" d="M14.0469 -10.4375 C14.0469 -12.875 13.9062 -15.3125 12.8281 -17.5781 C11.4219 -20.5 8.92188 -21 7.64062 -21 C5.79688 -21 3.5625 -20.2031 2.3125 -17.3594 C1.34375 -15.25 1.1875 -12.875 1.1875 -10.4375 C1.1875 -8.14062 1.3125 -5.39062 2.5625 -3.07812 C3.875 -0.609375 6.10938 0 7.60938 0 C9.25 0 11.5781 -0.640625 12.9219 -3.53125 C13.9062 -5.64062 14.0469 -8.01562 14.0469 -10.4375 ZM11.5156 -10.7969 C11.5156 -8.5 11.5156 -6.4375 11.1719 -4.48438 C10.7188 -1.57812 8.98438 -0.671875 7.60938 -0.671875 C6.40625 -0.671875 4.60938 -1.42188 4.0625 -4.35938 C3.71875 -6.1875 3.71875 -9 3.71875 -10.7969 C3.71875 -12.75 3.71875 -14.7656 3.96875 -16.4062 C4.54688 -20.0469 6.84375 -20.3125 7.60938 -20.3125 C8.60938 -20.3125 10.625 -19.7656 11.2031 -16.75 C11.5156 -15.0312 11.5156 -12.7188 11.5156 -10.7969 Z" transform="translate(69.6181 236.431)"/>
  <path fill="#000000" d="M13.7188 -6.96875 C13.7188 -10.6094 11.2031 -13.6719 7.90625 -13.6719 C6.4375 -13.6719 5.125 -13.1719 4.03125 -12.1094 L4.03125 -18 C4.64062 -17.6719 5.64062 -17.4531 6.625 -17.4531 C10.3906 -17.4531 12.5156 -20.25 12.5156 -20.6562 C12.5156 -20.8438 12.4375 -21 12.2188 -21 C12.2188 -21.0781 12.125 -21.0781 11.9688 -21 C11.3594 -20.7188 9.85938 -20 7.8125 -20 C6.59375 -20 5.1875 -20.2031 3.75 -20.8438 C3.5 -20.9375 3.39062 -20.9375 3.39062 -20.9375 C3.07812 -21.0469 3.07812 -20.8125 3.07812 -20.3125 L3.07812 -11.375 C3.07812 -10.8281 3.07812 -10.5938 3.5 -10.5938 C3.71875 -10.5938 3.78125 -10.6719 3.90625 -10.8594 C4.23438 -11.3438 5.375 -13 7.84375 -13 C9.4375 -13 10.2031 -11.5938 10.4375 -11.0469 C10.9375 -9.92188 11 -8.73438 11 -7.20312 C11 -6.14062 11 -4.29688 10.2656 -2.9375 C9.53125 -1.6875 8.39062 -0.84375 6.98438 -0.84375 C4.76562 -0.84375 3.01562 -2.5625 2.5 -4.45312 C2.59375 -4.03125 2.6875 -4 3.01562 -4 C4.03125 -4 4.54688 -4.76562 4.54688 -5.5 C4.54688 -6.23438 4.03125 -7 3.01562 -7 C2.59375 -7 1.51562 -6.78125 1.51562 -5.375 C1.51562 -3.07812 3.625 0 7.04688 0 C10.5938 0 13.7188 -3.03125 13.7188 -7 L13.7188 -6.96875 Z" transform="translate(30.5556 192.917)"/>
  <path fill="#000000" d="M14.0469 -10.4375 C14.0469 -12.875 13.9062 -15.3125 12.8281 -17.5781 C11.4219 -20.5 8.92188 -21 7.64062 -21 C5.79688 -21 3.5625 -20.2031 2.3125 -17.3594 C1.34375 -15.25 1.1875 -12.875 1.1875 -10.4375 C1.1875 -8.14062 1.3125 -5.39062 2.5625 -3.07812 C3.875 -0.609375 6.10938 0 7.60938 0 C9.25 0 11.5781 -0.640625 12.9219 -3.53125 C13.9062 -5.64062 14.0469 -8.01562 14.0469 -10.4375 ZM11.5156 -10.7969 C11.5156 -8.5 11.5156 -6.4375 11.1719 -4.48438 C10.7188 -1.57812 8.98438 -0.671875 7.60938 -0.671875 C6.40625 -0.671875 4.60938 -1.42188 4.0625 -4.35938 C3.71875 -6.1875 3.71875 -9 3.71875 -10.7969 C3.71875 -12.75 3.71875 -14.7656 3.96875 -16.4062 C4.54688 -20.0469 6.84375 -20.3125 7.60938 -20.3125 C8.60938 -20.3125 10.625 -19.7656 11.2031 -16.75 C11.5156 -15.0312 11.5156 -12.7188 11.5156 -10.7969 Z" transform="translate(45.8368 192.917)"/>
  <path fill="#000000" d="M5.85938 -1.60938 C5.85938 -2.5 5.125 -3.23438 4.23438 -3.23438 C3.35938 -3.23438 2.625 -2.5 2.625 -1.60938 C2.625 -0.71875 3.35938 0 4.23438 0 C5.125 0 5.85938 -0.71875 5.85938 -1.60938 Z" transform="translate(61.1181 192.917)"/>
  <path fill="#000000" d="M14.0469 -10.4375 C14.0469 -12.875 13.9062 -15.3125 12.8281 -17.5781 C11.4219 -20.5 8.92188 -21 7.64062 -21 C5.79688 -21 3.5625 -20.2031 2.3125 -17.3594 C1.34375 -15.25 1.1875 -12.875 1.1875 -10.4375 C1.1875 -8.14062 1.3125 -5.39062 2.5625 -3.07812 C3.875 -0.609375 6.10938 0 7.60938 0 C9.25 0 11.5781 -0.640625 12.9219 -3.53125 C13.9062 -5.64062 14.0469 -8.01562 14.0469 -10.4375 ZM11.5156 -10.7969 C11.5156 -8.5 11.5156 -6.4375 11.1719 -4.48438 C10.7188 -1.57812 8.98438 -0.671875 7.60938 -0.671875 C6.40625 -0.671875 4.60938 -1.42188 4.0625 -4.35938 C3.71875 -6.1875 3.71875 -9 3.71875 -10.7969 C3.71875 -12.75 3.71875 -14.7656 3.96875 -16.4062 C4.54688 -20.0469 6.84375 -20.3125 7.60938 -20.3125 C8.60938 -20.3125 10.625 -19.7656 11.2031 -16.75 C11.5156 -15.0312 11.5156 -12.7188 11.5156 -10.7969 Z" transform="translate(69.6181 192.917)"/>
  <path fill="#000000" d="M13.9531 -6.89062 C13.9531 -10.7656 11.2344 -13.6875 7.84375 -13.6875 C5.76562 -13.6875 4.64062 -12.1406 4.03125 -10.6719 L4.03125 -11.4062 C4.03125 -19.1094 7.8125 -20.2344 9.375 -20.2344 C10.1094 -20.2344 11.3906 -20.0469 12.0625 -19 C11.6094 -19 10.3906 -19 10.3906 -17.6094 C10.3906 -16.6719 11.125 -16.2031 11.7969 -16.2031 C12.2812 -16.2031 13.2031 -16.4844 13.2031 -17.6719 C13.2031 -19.5156 11.8438 -21 9.3125 -21 C5.40625 -21 1.28125 -17.0312 1.28125 -10.3125 C1.28125 -2.15625 4.82812 0 7.65625 0 C11.0625 0 13.9531 -2.85938 13.9531 -6.89062 ZM11.2031 -6.92188 C11.2031 -5.45312 11.2031 -3.9375 10.6875 -2.82812 C9.76562 -1 8.35938 -0.84375 7.65625 -0.84375 C5.73438 -0.84375 4.82812 -2.67188 4.64062 -3.14062 C4.09375 -4.57812 4.09375 -7.01562 4.09375 -7.5625 C4.09375 -9.9375 5.0625 -13 7.8125 -13 C8.3125 -13 9.71875 -13 10.6562 -11.1094 C11.2031 -9.96875 11.2031 -8.42188 11.2031 -6.92188 Z" transform="translate(30.5556 149.403)"/>
  <path fill="#000000" d="M14.0469 -10.4375 C14.0469 -12.875 13.9062 -15.3125 12.8281 -17.5781 C11.4219 -20.5 8.92188 -21 7.64062 -21 C5.79688 -21 3.5625 -20.2031 2.3125 -17.3594 C1.34375 -15.25 1.1875 -12.875 1.1875 -10.4375 C1.1875 -8.14062 1.3125 -5.39062 2.5625 -3.07812 C3.875 -0.609375 6.10938 0 7.60938 0 C9.25 0 11.5781 -0.640625 12.9219 -3.53125 C13.9062 -5.64062 14.0469 -8.01562 14.0469 -10.4375 ZM11.5156 -10.7969 C11.5156 -8.5 11.5156 -6.4375 11.1719 -4.48438 C10.7188 -1.57812 8.98438 -0.671875 7.60938 -0.671875 C6.40625 -0.671875 4.60938 -1.42188 4.0625 -4.35938 C3.71875 -6.1875 3.71875 -9 3.71875 -10.7969 C3.71875 -12.75 3.71875 -14.7656 3.96875 -16.4062 C4.54688 -20.0469 6.84375 -20.3125 7.60938 -20.3125 C8.60938 -20.3125 10.625 -19.7656 11.2031 -16.75 C11.5156 -15.0312 11.5156 -12.7188 11.5156 -10.7969 Z" transform="translate(45.8368 149.403)"/>
  <path fill="#000000" d="M5.85938 -1.60938 C5.85938 -2.5 5.125 -3.23438 4.23438 -3.23438 C3.35938 -3.23438 2.625 -2.5 2.625 -1.60938 C2.625 -0.71875 3.35938 0 4.23438 0 C5.125 0 5.85938 -0.71875 5.85938 -1.60938 Z" transform="translate(61.1181 149.403)"/>
  <path fill="#000000" d="M14.0469 -10.4375 C14.0469 -12.875 13.9062 -15.3125 12.8281 -17.5781 C11.4219 -20.5 8.92188 -21 7.64062 -21 C5.79688 -21 3.5625 -20.2031 2.3125 -17.3594 C1.34375 -15.25 1.1875 -12.875 1.1875 -10.4375 C1.1875 -8.14062 1.3125 -5.39062 2.5625 -3.07812 C3.875 -0.609375 6.10938 0 7.60938 0 C9.25 0 11.5781 -0.640625 12.9219 -3.53125 C13.9062 -5.64062 14.0469 -8.01562 14.0469 -10.4375 ZM11.5156 -10.7969 C11.5156 -8.5 11.5156 -6.4375 11.1719 -4.48438 C10.7188 -1.57812 8.98438 -0.671875 7.60938 -0.671875 C6.40625 -0.671875 4.60938 -1.42188 4.0625 -4.35938 C3.71875 -6.1875 3.71875 -9 3.71875 -10.7969 C3.71875 -12.75 3.71875 -14.7656 3.96875 -16.4062 C4.54688 -20.0469 6.84375 -20.3125 7.60938 -20.3125 C8.60938 -20.3125 10.625 -19.7656 11.2031 -16.75 C11.5156 -15.0312 11.5156 -12.7188 11.5156 -10.7969 Z" transform="translate(69.6181 149.403)"/>
</svg>