<svg xmlns="http://www.w3.org/2000/svg" width="900.000000" height="480.000000" viewBox="0 0 900 480">
  <rect width="900.000000" height="480.000000" fill="#ffffff"/>
  <path fill="#eeeeee" d="M100.617 49.2889 L799.383 49.2889 L799.383 430.711 L100.617 430.711 L100.617 49.2889 "/>
  <path stroke-width="1.000000" stroke="#ffffff" fill="none" d="M100.617 49.2889 L100.617 430.711 "/>
  <path stroke-width="1.000000" stroke="#ffffff" fill="none" d="M170.494 49.2889 L170.494 430.711 "/>
  <path stroke-width="1.000000" stroke="#ffffff" fill="none" d="M240.37 49.2889 L240.37 430.711 "/>
  <path stroke-width="1.000000" stroke="#ffffff" fill="none" d="M310.247 49.2889 L310.247 430.711 "/>
  <path stroke-width="1.000000" stroke="#ffffff" fill="none" d="M380.123 49.2889 L380.123 430.711 "/>
  <path stroke-width="1.000000" stroke="#ffffff" fill="none" d="M450 49.2889 L450 430.711 "/>
  <path stroke-width="1.000000" stroke="#ffffff" fill="none" d="M519.877 49.2889 L519.877 430.711 "/>
  <path stroke-width="1.000000" stroke="#ffffff" fill="none" d="M589.753 49.2889 L589.753 430.711 "/>
  <path stroke-width="1.000000" stroke="#ffffff" fill="none" d="M659.63 49.2889 L659.63 430.711 "/>
  <path stroke-width="1.000000" stroke="#ffffff" fill="none" d="M729.506 49.2889 L729.506 430.711 "/>
  <path stroke-width="1.000000" stroke="#ffffff" fill="none" d="M799.383 49.2889 L799.383 430.711 "/>
  <path stroke-width="1.000000" stroke="#ffffff" fill="none" d="M100.617 430.711 L799.383 430.711 "/>
  <path stroke-width="1.000000" stroke="#ffffff" fill="none" d="M100.617 392.569 L799.383 392.569 "/>
  <path stroke-width="1.000000" stroke="#ffffff" fill="none" d="M100.617 354.427 L799.383 354.427 "/>
  <path stroke-width="1.000000" stroke="#ffffff" fill="none" d="M100.617 316.284 L799.383 316.284 "/>
  <path stroke-width="1.000000" stroke="#ffffff" fill="none" d="M100.617 278.142 L799.383 278.142 "/>
  <path stroke-width="1.000000" stroke="#ffffff" fill="none" d="M100.617 240 L799.383 240 "/>
  <path stroke-width="1.000000" stroke="#ffffff" fill="none" d="M100.617 201.858 L799.383 201.858 "/>
  <path stroke-width="1.000000" stroke="#ffffff" fill="none" d="M100.617 163.716 L799.383 163.716 "/>
  <path stroke-width="1.000000" stroke="#ffffff" fill="none" d="M100.617 125.573 L799.383 125.573 "/>
  <path stroke-width="1.000000" stroke="#ffffff" fill="none" d="M100.617 87.4311 L799.383 87.4311 "/>
  <path stroke-width="1.000000" stroke="#ffffff" fill="none" d="M100.617 49.2889 L799.383 49.2889 "/>
  <path stroke-width="2.000000" stroke="#000000" fill="none" d="M100.617 49.2889 L108.936 130.515 L118.684 180.537 L128.432 176.538 L138.181 216.929 L147.929 242.379 L157.678 259.345 L167.426 269.74 L177.175 296.349 L186.923 249.144 L196.671 264.007 L206.42 309.564 L216.168 251.377 L225.917 258.482 L235.665 303.435 L245.413 297.371 L255.162 327.35 L264.91 347.871 L274.659 379.206 L284.407 390.835 L294.155 407.029 L303.904 280.99 L313.652 187.05 L323.401 161.616 L333.149 184.091 L342.897 236.043 L352.646 308.078 L362.394 302.341 L372.143 345.829 L381.891 360.529 L391.64 381.198 L401.388 362.461 L411.136 385.318 L420.885 341.521 L430.633 305.691 L440.382 380.196 L450.13 389.671 L459.878 401.61 L469.627 430.711 L479.375 370.373 L489.124 343.775 L498.872 346.554 L508.62 361.292 L518.369 321.747 L528.117 383.73 L537.866 341.651 L547.614 324.555 L557.362 326.431 L567.111 348.999 L576.859 302.462 L586.608 294.769 L596.356 264.679 L606.105 302.431 L615.853 340.343 L625.601 370.431 L635.35 312.467 L645.098 339.765 L654.847 333.929 L664.595 385.829 L674.343 400.784 L684.092 384.91 L693.84 396.958 L703.589 384.566 L713.337 363.965 L723.085 370.688 L732.834 356.991 L742.582 336.328 L752.331 347.789 L762.079 366.451 L771.827 298.594 L781.576 289.512 L791.324 252.685 L799.383 256.502 "/>
  <path stroke-width="0.000000" stroke="#333333" fill="none" d="M100.617 49.2889 L799.383 49.2889 "/>
  <path stroke-width="0.000000" stroke="#333333" fill="none" d="M100.617 49.2889 L100.617 54.6222 "/>
  <path stroke-width="0.000000" stroke="#333333" fill="none" d="M170.494 49.2889 L170.494 54.6222 "/>
  <path stroke-width="0.000000" stroke="#333333" fill="none" d="M240.37 49.2889 L240.37 54.6222 "/>
  <path stroke-width="0.000000" stroke="#333333" fill="none" d="M310.247 49.2889 L310.247 54.6222 "/>
  <path stroke-width="0.000000" stroke="#333333" fill="none" d="M380.123 49.2889 L380.123 54.6222 "/>
  <path stroke-width="0.000000" stroke="#333333" fill="none" d="M450 49.2889 L450 54.6222 "/>
  <path stroke-width="0.000000" stroke="#333333" fill="none" d="M519.877 49.2889 L519.877 54.6222 "/>
  <path stroke-width="0.000000" stroke="#333333" fill="none" d="M589.753 49.2889 L589.753 54.6222 "/>
  <path stroke-width="0.000000" stroke="#333333" fill="none" d="M659.63 49.2889 L659.63 54.6222 "/>
  <path stroke-width="0.000000" stroke="#333333" fill="none" d="M729.506 49.2889 L729.506 54.6222 "/>
  <path stroke-width="0.000000" stroke="#333333" fill="none" d="M799.383 49.2889 L799.383 54.6222 "/>
  <text x="53.718576" y="33.555556" fill="#333333" font-size="14.666667" font-family="Arial,Helvetica,'Helvetica Neue',sans-serif">1404278144.0</text>
  <text x="123.595175" y="33.555556" fill="#333333" font-size="14.666667" font-family="Arial,Helvetica,'Helvetica Neue',sans-serif">1404280294.4</text>
  <text x="193.471773" y="33.555556" fill="#333333" font-size="14.666667" font-family="Arial,Helvetica,'Helvetica Neue',sans-serif">1404282444.8</text>
  <text x="263.348376" y="33.555556" fill="#333333" font-size="14.666667" font-family="Arial,Helvetica,'Helvetica Neue',sans-serif">1404284595.2</text>
  <text x="333.224969" y="33.555556" fill="#333333" font-size="14.666667" font-family="Arial,Helvetica,'Helvetica Neue',sans-serif">1404286745.6</text>
  <text x="403.101562" y="33.555556" fill="#333333" font-size="14.666667" font-family="Arial,Helvetica,'Helvetica Neue',sans-serif">1404288896.0</text>
  <text x="472.978176" y="33.555556" fill="#333333" font-size="14.666667" font-family="Arial,Helvetica,'Helvetica Neue',sans-serif">1404291046.4</text>
  <text x="542.854749" y="33.555556" fill="#333333" font-size="14.666667" font-family="Arial,Helvetica,'Helvetica Neue',sans-serif">1404293196.8</text>
  <text x="612.731362" y="33.555556" fill="#333333" font-size="14.666667" font-family="Arial,Helvetica,'Helvetica Neue',sans-serif">1404295347.2</text>
  <text x="682.607976" y="33.555556" fill="#333333" font-size="14.666667" font-family="Arial,Helvetica,'Helvetica Neue',sans-serif">1404297497.6</text>
  <text x="752.484549" y="33.555556" fill="#333333" font-size="14.666667" font-family="Arial,Helvetica,'Helvetica Neue',sans-serif">1404299648.0</text>
  <path stroke-width="0.000000" stroke="#333333" fill="none" d="M799.383 49.2889 L799.383 430.711 "/>
  <path stroke-width="0.000000" stroke="#333333" fill="none" d="M799.383 430.711 L794.05 430.711 "/>
  <path stroke-width="0.000000" stroke="#333333" fill="none" d="M799.383 392.569 L794.05 392.569 "/>
  <path stroke-width="0.000000" stroke="#333333" fill="none" d="M799.383 354.427 L794.05 354.427 "/>
  <path stroke-width="0.000000" stroke="#333333" fill="none" d="M799.383 316.284 L794.05 316.284 "/>
  <path stroke-width="0.000000" stroke="#333333" fill="none" d="M799.383 278.142 L794.05 278.142 "/>
  <path stroke-width="0.000000" stroke="#333333" fill="none" d="M799.383 240 L794.05 240 "/>
  <path stroke-width="0.000000" stroke="#333333" fill="none" d="M799.383 201.858 L794.05 201.858 "/>
  <path stroke-width="0.000000" stroke="#333333" fill="none" d="M799.383 163.716 L794.05 163.716 "/>
  <path stroke-width="0.000000" stroke="#333333" fill="none" d="M799.383 125.573 L794.05 125.573 "/>
  <path stroke-width="0.000000" stroke="#333333" fill="none" d="M799.383 87.4311 L794.05 87.4311 "/>
  <path stroke-width="0.000000" stroke="#333333" fill="none" d="M799.383 49.2889 L794.05 49.2889 "/>
  <text x="811.116319" y="435.711111" fill="#333333" font-size="14.666667" font-family="Arial,Helvetica,'Helvetica Neue',sans-serif">7285686.0</text>
  <text x="811.116319" y="397.568888" fill="#333333" font-size="14.666667" font-family="Arial,Helvetica,'Helvetica Neue',sans-serif">7419319.8</text>
  <text x="811.116319" y="359.426666" fill="#333333" font-size="14.666667" font-family="Arial,Helvetica,'Helvetica Neue',sans-serif">7552953.6</text>
  <text x="811.116319" y="321.284440" fill="#333333" font-size="14.666667" font-family="Arial,Helvetica,'Helvetica Neue',sans-serif">7686587.4</text>
  <text x="811.116319" y="283.142220" fill="#333333" font-size="14.666667" font-family="Arial,Helvetica,'Helvetica Neue',sans-serif">7820221.2</text>
  <text x="811.116319" y="245.000000" fill="#333333" font-size="14.666667" font-family="Arial,Helvetica,'Helvetica Neue',sans-serif">7953855.0</text>
  <text x="811.116319" y="206.857769" fill="#333333" font-size="14.666667" font-family="Arial,Helvetica,'Helvetica Neue',sans-serif">8087488.8</text>
  <text x="811.116319" y="168.715560" fill="#333333" font-size="14.666667" font-family="Arial,Helvetica,'Helvetica Neue',sans-serif">8221122.6</text>
  <text x="811.116319" y="130.573329" fill="#333333" font-size="14.666667" font-family="Arial,Helvetica,'Helvetica Neue',sans-serif">8354756.4</text>
  <text x="811.116319" y="92.431097" fill="#333333" font-size="14.666667" font-family="Arial,Helvetica,'Helvetica Neue',sans-serif">8488390.2</text>
  <text x="811.116319" y="54.288889" fill="#333333" font-size="14.666667" font-family="Arial,Helvetica,'Helvetica Neue',sans-serif">8622024.0</text>
  <path stroke-width="0.000000" stroke="#333333" fill="none" d="M100.617 430.711 L799.383 430.711 "/>
  <path stroke-width="0.000000" stroke="#333333" fill="none" d="M100.617 430.711 L100.617 425.378 "/>
  <path stroke-width="0.000000" stroke="#333333" fill="none" d="M170.494 430.711 L170.494 425.378 "/>
  <path stroke-width="0.000000" stroke="#333333" fill="none" d="M240.37 430.711 L240.37 425.378 "/>
  <path stroke-width="0.000000" stroke="#333333" fill="none" d="M310.247 430.711 L310.247 425.378 "/>
  <path stroke-width="0.000000" stroke="#333333" fill="none" d="M380.123 430.711 L380.123 425.378 "/>
  <path stroke-width="0.000000" stroke="#333333" fill="none" d="M450 430.711 L450 425.378 "/>
  <path stroke-width="0.000000" stroke="#333333" fill="none" d="M519.877 430.711 L519.877 425.378 "/>
  <path stroke-width="0.000000" stroke="#333333" fill="none" d="M589.753 430.711 L589.753 425.378 "/>
  <path stroke-width="0.000000" stroke="#333333" fill="none" d="M659.63 430.711 L659.63 425.378 "/>
  <path stroke-width="0.000000" stroke="#333333" fill="none" d="M729.506 430.711 L729.506 425.378 "/>
  <path stroke-width="0.000000" stroke="#333333" fill="none" d="M799.383 430.711 L799.383 425.378 "/>
  <text x="53.718576" y="456.444444" fill="#333333" font-size="14.666667" font-family="Arial,Helvetica,'Helvetica Neue',sans-serif">1404278144.0</text>
  <text x="123.595175" y="456.444444" fill="#333333" font-size="14.666667" font-family="Arial,Helvetica,'Helvetica Neue',sans-serif">1404280294.4</text>
  <text x="193.471773" y="456.444444" fill="#333333" font-size="14.666667" font-family="Arial,Helvetica,'Helvetica Neue',sans-serif">1404282444.8</text>
  <text x="263.348376" y="456.444444" fill="#333333" font-size="14.666667" font-family="Arial,Helvetica,'Helvetica Neue',sans-serif">1404284595.2</text>
  <text x="333.224969" y="456.444444" fill="#333333" font-size="14.666667" font-family="Arial,Helvetica,'Helvetica Neue',sans-serif">1404286745.6</text>
  <text x="403.101562" y="456.444444" fill="#333333" font-size="14.666667" font-family="Arial,Helvetica,'Helvetica Neue',sans-serif">1404288896.0</text>
  <text x="472.978176" y="456.444444" fill="#333333" font-size="14.666667" font-family="Arial,Helvetica,'Helvetica Neue',sans-serif">1404291046.4</text>
  <text x="542.854749" y="456.444444" fill="#333333" font-size="14.666667" font-family="Arial,Helvetica,'Helvetica Neue',sans-serif">1404293196.8</text>
  <text x="612.731362" y="456.444444" fill="#333333" font-size="14.666667" font-family="Arial,Helvetica,'Helvetica Neue',sans-serif">1404295347.2</text>
  <text x="682.607976" y="456.444444" fill="#333333" font-size="14.666667" font-family="Arial,Helvetica,'Helvetica Neue',sans-serif">1404297497.6</text>
  <text x="752.484549" y="456.444444" fill="#333333" font-size="14.666667" font-family="Arial,Helvetica,'Helvetica Neue',sans-serif">1404299648.0</text>
  <path stroke-width="0.000000" stroke="#333333" fill="none" d="M100.617 49.2889 L100.617 430.711 "/>
  <path stroke-width="0.000000" stroke="#333333" fill="none" d="M100.617 430.711 L105.95 430.711 "/>
  <path stroke-width="0.000000" stroke="#333333" fill="none" d="M100.617 392.569 L105.95 392.569 "/>
  <path stroke-width="0.000000" stroke="#333333" fill="none" d="M100.617 354.427 L105.95 354.427 "/>
  <path stroke-width="0.000000" stroke="#333333" fill="none" d="M100.617 316.284 L105.95 316.284 "/>
  <path stroke-width="0.000000" stroke="#333333" fill="none" d="M100.617 278.142 L105.95 278.142 "/>
  <path stroke-width="0.000000" stroke="#333333" fill="none" d="M100.617 240 L105.95 240 "/>
  <path stroke-width="0.000000" stroke="#333333" fill="none" d="M100.617 201.858 L105.95 201.858 "/>
  <path stroke-width="0.000000" stroke="#333333" fill="none" d="M100.617 163.716 L105.95 163.716 "/>
  <path stroke-width="0.000000" stroke="#333333" fill="none" d="M100.617 125.573 L105.95 125.573 "/>
  <path stroke-width="0.000000" stroke="#333333" fill="none" d="M100.617 87.4311 L105.95 87.4311 "/>
  <path stroke-width="0.000000" stroke="#333333" fill="none" d="M100.617 49.2889 L105.95 49.2889 "/>
  <text x="19.555556" y="435.711111" fill="#333333" font-size="14.666667" font-family="Arial,Helvetica,'Helvetica Neue',sans-serif">7285686.0</text>
  <text x="19.555556" y="397.568888" fill="#333333" font-size="14.666667" font-family="Arial,Helvetica,'Helvetica Neue',sans-serif">7419319.8</text>
  <text x="19.555556" y="359.426666" fill="#333333" font-size="14.666667" font-family="Arial,Helvetica,'Helvetica Neue',sans-serif">7552953.6</text>
  <text x="19.555556" y="321.284440" fill="#333333" font-size="14.666667" font-family="Arial,Helvetica,'Helvetica Neue',sans-serif">7686587.4</text>
  <text x="19.555556" y="283.142220" fill="#333333" font-size="14.666667" font-family="Arial,Helvetica,'Helvetica Neue',sans-serif">7820221.2</text>
  <text x="19.555556" y="245.000000" fill="#333333" font-size="14.666667" font-family="Arial,Helvetica,'Helvetica Neue',sans-serif">7953855.0</text>
  <text x="19.555556" y="206.857769" fill="#333333" font-size="14.666667" font-family="Arial,Helvetica,'Helvetica Neue',sans-serif">8087488.8</text>
  <text x="20.649306" y="168.715560" fill="#333333" font-size="14.666667" font-family="Arial,Helvetica,'Helvetica Neue',sans-serif">8221122.6</text>
  <text x="19.555556" y="130.573329" fill="#333333" font-size="14.666667" font-family="Arial,Helvetica,'Helvetica Neue',sans-serif">8354756.4</text>
  <text x="19.555556" y="92.431097" fill="#333333" font-size="14.666667" font-family="Arial,Helvetica,'Helvetica Neue',sans-serif">8488390.2</text>
  <text x="19.555556" y="54.288889" fill="#333333" font-size="14.666667" font-family="Arial,Helvetica,'Helvetica Neue',sans-serif">8622024.0</text>
</svg>