<svg xmlns="http://www.w3.org/2000/svg" width="900.000000" height="480.000000" viewBox="0 0 900 480">
  <rect width="900.000000" height="480.000000" fill="#ffffff"/>
  <path fill="#eeeeee" d="M84.7108 19.5556 L880.444 19.5556 L880.444 430.711 L84.7108 430.711 L84.7108 19.5556 "/>
  <path stroke-width="1.000000" stroke="#ffffff" fill="none" d="M84.7108 19.5556 L84.7108 430.711 "/>
  <path stroke-width="1.000000" stroke="#ffffff" fill="none" d="M164.284 19.5556 L164.284 430.711 "/>
  <path stroke-width="1.000000" stroke="#ffffff" fill="none" d="M243.858 19.5556 L243.858 430.711 "/>
  <path stroke-width="1.000000" stroke="#ffffff" fill="none" d="M323.431 19.5556 L323.431 430.711 "/>
  <path stroke-width="1.000000" stroke="#ffffff" fill="none" d="M403.004 19.5556 L403.004 430.711 "/>
  <path stroke-width="1.000000" stroke="#ffffff" fill="none" d="M482.578 19.5556 L482.578 430.711 "/>
  <path stroke-width="1.000000" stroke="#ffffff" fill="none" d="M562.151 19.5556 L562.151 430.711 "/>
  <path stroke-width="1.000000" stroke="#ffffff" fill="none" d="M641.724 19.5556 L641.724 430.711 "/>
  <path stroke-width="1.000000" stroke="#ffffff" fill="none" d="M721.298 19.5556 L721.298 430.711 "/>
  <path stroke-width="1.000000" stroke="#ffffff" fill="none" d="M800.871 19.5556 L800.871 430.711 "/>
  <path stroke-width="1.000000" stroke="#ffffff" fill="none" d="M880.444 19.5556 L880.444 430.711 "/>
  <path stroke-width="1.000000" stroke="#ffffff" fill="none" d="M84.7108 430.711 L880.444 430.711 "/>
  <path stroke-width="1.000000" stroke="#ffffff" fill="none" d="M84.7108 389.596 L880.444 389.596 "/>
  <path stroke-width="1.000000" stroke="#ffffff" fill="none" d="M84.7108 348.48 L880.444 348.48 "/>
  <path stroke-width="1.000000" stroke="#ffffff" fill="none" d="M84.7108 307.364 L880.444 307.364 "/>
  <path stroke-width="1.000000" stroke="#ffffff" fill="none" d="M84.7108 266.249 L880.444 266.249 "/>
  <path stroke-width="1.000000" stroke="#ffffff" fill="none" d="M84.7108 225.133 L880.444 225.133 "/>
  <path stroke-width="1.000000" stroke="#ffffff" fill="none" d="M84.7108 184.018 L880.444 184.018 "/>
  <path stroke-width="1.000000" stroke="#ffffff" fill="none" d="M84.7108 142.902 L880.444 142.902 "/>
  <path stroke-width="1.000000" stroke="#ffffff" fill="none" d="M84.7108 101.787 L880.444 101.787 "/>
  <path stroke-width="1.000000" stroke="#ffffff" fill="none" d="M84.7108 60.6711 L880.444 60.6711 "/>
  <path stroke-width="1.000000" stroke="#ffffff" fill="none" d="M84.7108 19.5556 L880.444 19.5556 "/>
  <path stroke-width="2.000000" stroke="#000000" fill="none" d="M84.7108 19.5556 L94.1838 107.114 L105.285 161.035 L116.386 156.724 L127.487 200.264 L138.589 227.698 L149.69 245.987 L160.791 257.192 L171.892 285.875 L182.993 234.991 L194.095 251.011 L205.196 300.12 L216.297 237.397 L227.398 245.056 L238.499 293.513 L249.601 286.976 L260.702 319.292 L271.803 341.413 L282.904 375.191 L294.005 387.727 L305.106 405.183 L316.208 269.319 L327.309 168.056 L338.41 140.639 L349.511 164.866 L360.612 220.868 L371.714 298.518 L382.815 292.334 L393.916 339.212 L405.017 355.058 L416.118 377.338 L427.22 357.141 L438.321 381.779 L449.422 334.569 L460.523 295.945 L471.624 376.258 L482.726 386.472 L493.827 399.341 L504.928 430.711 L516.029 365.67 L527.13 336.998 L538.232 339.993 L549.333 355.88 L560.434 313.253 L571.535 380.068 L582.636 334.709 L593.738 316.28 L604.839 318.302 L615.94 342.629 L627.041 292.465 L638.142 284.172 L649.244 251.736 L660.345 292.431 L671.446 333.299 L682.547 365.732 L693.648 303.249 L704.75 332.675 L715.851 326.385 L726.952 382.33 L738.053 398.451 L749.154 381.339 L760.256 394.327 L771.357 380.969 L782.458 358.762 L793.559 366.009 L804.66 351.244 L815.761 328.971 L826.863 341.325 L837.964 361.442 L849.065 288.295 L860.166 278.505 L871.267 238.808 L880.444 242.922 "/>
  <path stroke-width="0.000000" stroke="#333333" fill="none" d="M84.7108 430.711 L880.444 430.711 "/>
  <path stroke-width="0.000000" stroke="#333333" fill="none" d="M84.7108 430.711 L84.7108 425.378 "/>
  <path stroke-width="0.000000" stroke="#333333" fill="none" d="M164.284 430.711 L164.284 425.378 "/>
  <path stroke-width="0.000000" stroke="#333333" fill="none" d="M243.858 430.711 L243.858 425.378 "/>
  <path stroke-width="0.000000" stroke="#333333" fill="none" d="M323.431 430.711 L323.431 425.378 "/>
  <path stroke-width="0.000000" stroke="#333333" fill="none" d="M403.004 430.711 L403.004 425.378 "/>
  <path stroke-width="0.000000" stroke="#333333" fill="none" d="M482.578 430.711 L482.578 425.378 "/>
  <path stroke-width="0.000000" stroke="#333333" fill="none" d="M562.151 430.711 L562.151 425.378 "/>
  <path stroke-width="0.000000" stroke="#333333" fill="none" d="M641.724 430.711 L641.724 425.378 "/>
  <path stroke-width="0.000000" stroke="#333333" fill="none" d="M721.298 430.711 L721.298 425.378 "/>
  <path stroke-width="0.000000" stroke="#333333" fill="none" d="M800.871 430.711 L800.871 425.378 "/>
  <path stroke-width="0.000000" stroke="#333333" fill="none" d="M880.444 430.711 L880.444 425.378 "/>
  <text x="56.163889" y="456.444444" fill="#333333" font-size="14.666667" font-family="Arial,Helvetica,'Helvetica Neue',sans-serif">05:15:44</text>
  <text x="135.737258" y="456.444444" fill="#333333" font-size="14.666667" font-family="Arial,Helvetica,'Helvetica Neue',sans-serif">05:51:34</text>
  <text x="215.310627" y="456.444444" fill="#333333" font-size="14.666667" font-family="Arial,Helvetica,'Helvetica Neue',sans-serif">06:27:24</text>
  <text x="294.884003" y="456.444444" fill="#333333" font-size="14.666667" font-family="Arial,Helvetica,'Helvetica Neue',sans-serif">07:03:15</text>
  <text x="374.457366" y="456.444444" fill="#333333" font-size="14.666667" font-family="Arial,Helvetica,'Helvetica Neue',sans-serif">07:39:05</text>
  <text x="454.030729" y="456.444444" fill="#333333" font-size="14.666667" font-family="Arial,Helvetica,'Helvetica Neue',sans-serif">08:14:56</text>
  <text x="533.604116" y="456.444444" fill="#333333" font-size="14.666667" font-family="Arial,Helvetica,'Helvetica Neue',sans-serif">08:50:46</text>
  <text x="613.177456" y="456.444444" fill="#333333" font-size="14.666667" font-family="Arial,Helvetica,'Helvetica Neue',sans-serif">09:26:36</text>
  <text x="692.750843" y="456.444444" fill="#333333" font-size="14.666667" font-family="Arial,Helvetica,'Helvetica Neue',sans-serif">10:02:27</text>
  <text x="772.324230" y="456.444444" fill="#333333" font-size="14.666667" font-family="Arial,Helvetica,'Helvetica Neue',sans-serif">10:38:17</text>
  <text x="852.444444" y="456.444444" fill="#333333" font-size="14.666667" font-family="Arial,Helvetica,'Helvetica Neue',sans-serif">11:14:08</text>
  <path stroke-width="0.000000" stroke="#333333" fill="none" d="M84.7108 19.5556 L84.7108 430.711 "/>
  <path stroke-width="0.000000" stroke="#333333" fill="none" d="M84.7108 430.711 L90.0441 430.711 "/>
  <path stroke-width="0.000000" stroke="#333333" fill="none" d="M84.7108 389.596 L90.0441 389.596 "/>
  <path stroke-width="0.000000" stroke="#333333" fill="none" d="M84.7108 348.48 L90.0441 348.48 "/>
  <path stroke-width="0.000000" stroke="#333333" fill="none" d="M84.7108 307.364 L90.0441 307.364 "/>
  <path stroke-width="0.000000" stroke="#333333" fill="none" d="M84.7108 266.249 L90.0441 266.249 "/>
  <path stroke-width="0.000000" stroke="#333333" fill="none" d="M84.7108 225.133 L90.0441 225.133 "/>
  <path stroke-width="0.000000" stroke="#333333" fill="none" d="M84.7108 184.018 L90.0441 184.018 "/>
  <path stroke-width="0.000000" stroke="#333333" fill="none" d="M84.7108 142.902 L90.0441 142.902 "/>
  <path stroke-width="0.000000" stroke="#333333" fill="none" d="M84.7108 101.787 L90.0441 101.787 "/>
  <path stroke-width="0.000000" stroke="#333333" fill="none" d="M84.7108 60.6711 L90.0441 60.6711 "/>
  <path stroke-width="0.000000" stroke="#333333" fill="none" d="M84.7108 19.5556 L90.0441 19.5556 "/>
  <text x="19.555556" y="435.711111" fill="#333333" font-size="14.666667" font-family="Arial,Helvetica,'Helvetica Neue',sans-serif">7.3e+06</text>
  <text x="19.555556" y="394.595555" fill="#333333" font-size="14.666667" font-family="Arial,Helvetica,'Helvetica Neue',sans-serif">7.4e+06</text>
  <text x="19.555556" y="353.479999" fill="#333333" font-size="14.666667" font-family="Arial,Helvetica,'Helvetica Neue',sans-serif">7.6e+06</text>
  <text x="19.555556" y="312.364440" fill="#333333" font-size="14.666667" font-family="Arial,Helvetica,'Helvetica Neue',sans-serif">7.7e+06</text>
  <text x="19.555556" y="271.248886" fill="#333333" font-size="14.666667" font-family="Arial,Helvetica,'Helvetica Neue',sans-serif">7.8e+06</text>
  <text x="19.555556" y="230.133333" fill="#333333" font-size="14.666667" font-family="Arial,Helvetica,'Helvetica Neue',sans-serif">8.0e+06</text>
  <text x="19.555556" y="189.017768" fill="#333333" font-size="14.666667" font-family="Arial,Helvetica,'Helvetica Neue',sans-serif">8.1e+06</text>
  <text x="19.555556" y="147.902227" fill="#333333" font-size="14.666667" font-family="Arial,Helvetica,'Helvetica Neue',sans-serif">8.2e+06</text>
  <text x="19.555556" y="106.786662" fill="#333333" font-size="14.666667" font-family="Arial,Helvetica,'Helvetica Neue',sans-serif">8.4e+06</text>
  <text x="19.555556" y="65.671096" fill="#333333" font-size="14.666667" font-family="Arial,Helvetica,'Helvetica Neue',sans-serif">8.5e+06</text>
  <text x="19.555556" y="24.555556" fill="#333333" font-size="14.666667" font-family="Arial,Helvetica,'Helvetica Neue',sans-serif">8.6e+06</text>
</svg>