<?xml version="1.0" encoding="UTF-8" ?>
<!-- Generated by clip v0.6.0 (clip-lang.org) -->
<svg xmlns="http://www.w3.org/2000/svg" width="2048.000000" height="1536.000000">
  <rect width="2048.000000" height="1536.000000" fill="#ffffff" fill-opacity="1.000000"/>
  <path d="M268.474 144 L1864.86 144 " fill="none" stroke-width="4.444444" stroke="#000000ff"/>
  <path d="M268.474 161.778 L268.474 144 " fill="none" stroke-width="4.444444" stroke="#000000ff"/>
  <path d="M615.514 161.778 L615.514 144 " fill="none" stroke-width="4.444444" stroke="#000000ff"/>
  <path d="M962.555 161.778 L962.555 144 " fill="none" stroke-width="4.444444" stroke="#000000ff"/>
  <path d="M1309.59 161.778 L1309.59 144 " fill="none" stroke-width="4.444444" stroke="#000000ff"/>
  <path d="M1656.64 161.778 L1656.64 144 " fill="none" stroke-width="4.444444" stroke="#000000ff"/>
  <text x="199.169271" y="93.888889" fill="#000000ff" font-size="48.888889" font-family="Arial,Helvetica,'Helvetica Neue',sans-serif" font-weight="500.000000">-100.0</text>
  <text x="559.803329" y="93.888889" fill="#000000ff" font-size="48.888889" font-family="Arial,Helvetica,'Helvetica Neue',sans-serif" font-weight="500.000000">-95.0</text>
  <text x="906.843637" y="93.888889" fill="#000000ff" font-size="48.888889" font-family="Arial,Helvetica,'Helvetica Neue',sans-serif" font-weight="500.000000">-90.0</text>
  <text x="1253.883945" y="93.888889" fill="#000000ff" font-size="48.888889" font-family="Arial,Helvetica,'Helvetica Neue',sans-serif" font-weight="500.000000">-85.0</text>
  <text x="1600.924253" y="93.888889" fill="#000000ff" font-size="48.888889" font-family="Arial,Helvetica,'Helvetica Neue',sans-serif" font-weight="500.000000">-80.0</text>
  <path d="M1864.86 1296.89 L1864.86 144 " fill="none" stroke-width="4.444444" stroke="#000000ff"/>
  <path d="M1847.08 1296.89 L1864.86 1296.89 " fill="none" stroke-width="4.444444" stroke="#000000ff"/>
  <path d="M1847.08 1224.83 L1864.86 1224.83 " fill="none" stroke-width="4.444444" stroke="#000000ff"/>
  <path d="M1847.08 1152.78 L1864.86 1152.78 " fill="none" stroke-width="4.444444" stroke="#000000ff"/>
  <path d="M1847.08 1080.72 L1864.86 1080.72 " fill="none" stroke-width="4.444444" stroke="#000000ff"/>
  <path d="M1847.08 1008.67 L1864.86 1008.67 " fill="none" stroke-width="4.444444" stroke="#000000ff"/>
  <path d="M1847.08 936.611 L1864.86 936.611 " fill="none" stroke-width="4.444444" stroke="#000000ff"/>
  <path d="M1847.08 864.556 L1864.86 864.556 " fill="none" stroke-width="4.444444" stroke="#000000ff"/>
  <path d="M1847.08 792.5 L1864.86 792.5 " fill="none" stroke-width="4.444444" stroke="#000000ff"/>
  <path d="M1847.08 720.444 L1864.86 720.444 " fill="none" stroke-width="4.444444" stroke="#000000ff"/>
  <path d="M1847.08 648.389 L1864.86 648.389 " fill="none" stroke-width="4.444444" stroke="#000000ff"/>
  <path d="M1847.08 576.333 L1864.86 576.333 " fill="none" stroke-width="4.444444" stroke="#000000ff"/>
  <path d="M1847.08 504.278 L1864.86 504.278 " fill="none" stroke-width="4.444444" stroke="#000000ff"/>
  <path d="M1847.08 432.222 L1864.86 432.222 " fill="none" stroke-width="4.444444" stroke="#000000ff"/>
  <path d="M1847.08 360.167 L1864.86 360.167 " fill="none" stroke-width="4.444444" stroke="#000000ff"/>
  <path d="M1847.08 288.111 L1864.86 288.111 " fill="none" stroke-width="4.444444" stroke="#000000ff"/>
  <path d="M1847.08 216.056 L1864.86 216.056 " fill="none" stroke-width="4.444444" stroke="#000000ff"/>
  <path d="M1847.08 144 L1864.86 144 " fill="none" stroke-width="4.444444" stroke="#000000ff"/>
  <text x="1903.970486" y="1313.888889" fill="#000000ff" font-size="48.888889" font-family="Arial,Helvetica,'Helvetica Neue',sans-serif" font-weight="500.000000">16.0</text>
  <text x="1903.970486" y="1241.833333" fill="#000000ff" font-size="48.888889" font-family="Arial,Helvetica,'Helvetica Neue',sans-serif" font-weight="500.000000">17.0</text>
  <text x="1903.970486" y="1169.777778" fill="#000000ff" font-size="48.888889" font-family="Arial,Helvetica,'Helvetica Neue',sans-serif" font-weight="500.000000">18.0</text>
  <text x="1903.970486" y="1097.722222" fill="#000000ff" font-size="48.888889" font-family="Arial,Helvetica,'Helvetica Neue',sans-serif" font-weight="500.000000">19.0</text>
  <text x="1903.970486" y="1025.666667" fill="#000000ff" font-size="48.888889" font-family="Arial,Helvetica,'Helvetica Neue',sans-serif" font-weight="500.000000">20.0</text>
  <text x="1903.970486" y="953.611111" fill="#000000ff" font-size="48.888889" font-family="Arial,Helvetica,'Helvetica Neue',sans-serif" font-weight="500.000000">21.0</text>
  <text x="1903.970486" y="881.555556" fill="#000000ff" font-size="48.888889" font-family="Arial,Helvetica,'Helvetica Neue',sans-serif" font-weight="500.000000">22.0</text>
  <text x="1903.970486" y="809.500000" fill="#000000ff" font-size="48.888889" font-family="Arial,Helvetica,'Helvetica Neue',sans-serif" font-weight="500.000000">23.0</text>
  <text x="1903.970486" y="737.444444" fill="#000000ff" font-size="48.888889" font-family="Arial,Helvetica,'Helvetica Neue',sans-serif" font-weight="500.000000">24.0</text>
  <text x="1903.970486" y="665.388889" fill="#000000ff" font-size="48.888889" font-family="Arial,Helvetica,'Helvetica Neue',sans-serif" font-weight="500.000000">25.0</text>
  <text x="1903.970486" y="593.333333" fill="#000000ff" font-size="48.888889" font-family="Arial,Helvetica,'Helvetica Neue',sans-serif" font-weight="500.000000">26.0</text>
  <text x="1903.970486" y="521.277778" fill="#000000ff" font-size="48.888889" font-family="Arial,Helvetica,'Helvetica Neue',sans-serif" font-weight="500.000000">27.0</text>
  <text x="1903.970486" y="449.222222" fill="#000000ff" font-size="48.888889" font-family="Arial,Helvetica,'Helvetica Neue',sans-serif" font-weight="500.000000">28.0</text>
  <text x="1903.970486" y="377.166667" fill="#000000ff" font-size="48.888889" font-family="Arial,Helvetica,'Helvetica Neue',sans-serif" font-weight="500.000000">29.0</text>
  <text x="1903.970486" y="305.111111" fill="#000000ff" font-size="48.888889" font-family="Arial,Helvetica,'Helvetica Neue',sans-serif" font-weight="500.000000">30.0</text>
  <text x="1903.970486" y="233.055556" fill="#000000ff" font-size="48.888889" font-family="Arial,Helvetica,'Helvetica Neue',sans-serif" font-weight="500.000000">31.0</text>
  <text x="1903.970486" y="161.000000" fill="#000000ff" font-size="48.888889" font-family="Arial,Helvetica,'Helvetica Neue',sans-serif" font-weight="500.000000">32.0</text>
  <path d="M268.474 1296.89 L1864.86 1296.89 " fill="none" stroke-width="4.444444" stroke="#000000ff"/>
  <path d="M268.474 1296.89 L268.474 1279.11 " fill="none" stroke-width="4.444444" stroke="#000000ff"/>
  <path d="M615.514 1296.89 L615.514 1279.11 " fill="none" stroke-width="4.444444" stroke="#000000ff"/>
  <path d="M962.555 1296.89 L962.555 1279.11 " fill="none" stroke-width="4.444444" stroke="#000000ff"/>
  <path d="M1309.59 1296.89 L1309.59 1279.11 " fill="none" stroke-width="4.444444" stroke="#000000ff"/>
  <path d="M1656.64 1296.89 L1656.64 1279.11 " fill="none" stroke-width="4.444444" stroke="#000000ff"/>
  <text x="199.169271" y="1381.000000" fill="#000000ff" font-size="48.888889" font-family="Arial,Helvetica,'Helvetica Neue',sans-serif" font-weight="500.000000">-100.0</text>
  <text x="559.803329" y="1381.000000" fill="#000000ff" font-size="48.888889" font-family="Arial,Helvetica,'Helvetica Neue',sans-serif" font-weight="500.000000">-95.0</text>
  <text x="906.843637" y="1381.000000" fill="#000000ff" font-size="48.888889" font-family="Arial,Helvetica,'Helvetica Neue',sans-serif" font-weight="500.000000">-90.0</text>
  <text x="1253.883945" y="1381.000000" fill="#000000ff" font-size="48.888889" font-family="Arial,Helvetica,'Helvetica Neue',sans-serif" font-weight="500.000000">-85.0</text>
  <text x="1600.924253" y="1381.000000" fill="#000000ff" font-size="48.888889" font-family="Arial,Helvetica,'Helvetica Neue',sans-serif" font-weight="500.000000">-80.0</text>
  <text x="959.291667" y="1476.111111" fill="#000000ff" font-size="48.888889" font-family="Arial,Helvetica,'Helvetica Neue',sans-serif" font-weight="500.000000">Longitude</text>
  <path d="M268.474 1296.89 L268.474 144 " fill="none" stroke-width="4.444444" stroke="#000000ff"/>
  <path d="M268.474 1296.89 L286.252 1296.89 " fill="none" stroke-width="4.444444" stroke="#000000ff"/>
  <path d="M268.474 1224.83 L286.252 1224.83 " fill="none" stroke-width="4.444444" stroke="#000000ff"/>
  <path d="M268.474 1152.78 L286.252 1152.78 " fill="none" stroke-width="4.444444" stroke="#000000ff"/>
  <path d="M268.474 1080.72 L286.252 1080.72 " fill="none" stroke-width="4.444444" stroke="#000000ff"/>
  <path d="M268.474 1008.67 L286.252 1008.67 " fill="none" stroke-width="4.444444" stroke="#000000ff"/>
  <path d="M268.474 936.611 L286.252 936.611 " fill="none" stroke-width="4.444444" stroke="#000000ff"/>
  <path d="M268.474 864.556 L286.252 864.556 " fill="none" stroke-width="4.444444" stroke="#000000ff"/>
  <path d="M268.474 792.5 L286.252 792.5 " fill="none" stroke-width="4.444444" stroke="#000000ff"/>
  <path d="M268.474 720.444 L286.252 720.444 " fill="none" stroke-width="4.444444" stroke="#000000ff"/>
  <path d="M268.474 648.389 L286.252 648.389 " fill="none" stroke-width="4.444444" stroke="#000000ff"/>
  <path d="M268.474 576.333 L286.252 576.333 " fill="none" stroke-width="4.444444" stroke="#000000ff"/>
  <path d="M268.474 504.278 L286.252 504.278 " fill="none" stroke-width="4.444444" stroke="#000000ff"/>
  <path d="M268.474 432.222 L286.252 432.222 " fill="none" stroke-width="4.444444" stroke="#000000ff"/>
  <path d="M268.474 360.167 L286.252 360.167 " fill="none" stroke-width="4.444444" stroke="#000000ff"/>
  <path d="M268.474 288.111 L286.252 288.111 " fill="none" stroke-width="4.444444" stroke="#000000ff"/>
  <path d="M268.474 216.056 L286.252 216.056 " fill="none" stroke-width="4.444444" stroke="#000000ff"/>
  <path d="M268.474 144 L286.252 144 " fill="none" stroke-width="4.444444" stroke="#000000ff"/>
  <text x="134.222222" y="1313.888889" fill="#000000ff" font-size="48.888889" font-family="Arial,Helvetica,'Helvetica Neue',sans-serif" font-weight="500.000000">16.0</text>
  <text x="134.222222" y="1241.833333" fill="#000000ff" font-size="48.888889" font-family="Arial,Helvetica,'Helvetica Neue',sans-serif" font-weight="500.000000">17.0</text>
  <text x="134.222222" y="1169.777778" fill="#000000ff" font-size="48.888889" font-family="Arial,Helvetica,'Helvetica Neue',sans-serif" font-weight="500.000000">18.0</text>
  <text x="134.222222" y="1097.722222" fill="#000000ff" font-size="48.888889" font-family="Arial,Helvetica,'Helvetica Neue',sans-serif" font-weight="500.000000">19.0</text>
  <text x="134.222222" y="1025.666667" fill="#000000ff" font-size="48.888889" font-family="Arial,Helvetica,'Helvetica Neue',sans-serif" font-weight="500.000000">20.0</text>
  <text x="134.222222" y="953.611111" fill="#000000ff" font-size="48.888889" font-family="Arial,Helvetica,'Helvetica Neue',sans-serif" font-weight="500.000000">21.0</text>
  <text x="134.222222" y="881.555556" fill="#000000ff" font-size="48.888889" font-family="Arial,Helvetica,'Helvetica Neue',sans-serif" font-weight="500.000000">22.0</text>
  <text x="134.222222" y="809.500000" fill="#000000ff" font-size="48.888889" font-family="Arial,Helvetica,'Helvetica Neue',sans-serif" font-weight="500.000000">23.0</text>
  <text x="134.222222" y="737.444444" fill="#000000ff" font-size="48.888889" font-family="Arial,Helvetica,'Helvetica Neue',sans-serif" font-weight="500.000000">24.0</text>
  <text x="134.222222" y="665.388889" fill="#000000ff" font-size="48.888889" font-family="Arial,Helvetica,'Helvetica Neue',sans-serif" font-weight="500.000000">25.0</text>
  <text x="134.222222" y="593.333333" fill="#000000ff" font-size="48.888889" font-family="Arial,Helvetica,'Helvetica Neue',sans-serif" font-weight="500.000000">26.0</text>
  <text x="134.222222" y="521.277778" fill="#000000ff" font-size="48.888889" font-family="Arial,Helvetica,'Helvetica Neue',sans-serif" font-weight="500.000000">27.0</text>
  <text x="134.222222" y="449.222222" fill="#000000ff" font-size="48.888889" font-family="Arial,Helvetica,'Helvetica Neue',sans-serif" font-weight="500.000000">28.0</text>
  <text x="134.222222" y="377.166667" fill="#000000ff" font-size="48.888889" font-family="Arial,Helvetica,'Helvetica Neue',sans-serif" font-weight="500.000000">29.0</text>
  <text x="134.222222" y="305.111111" fill="#000000ff" font-size="48.888889" font-family="Arial,Helvetica,'Helvetica Neue',sans-serif" font-weight="500.000000">30.0</text>
  <text x="134.222222" y="233.055556" fill="#000000ff" font-size="48.888889" font-family="Arial,Helvetica,'Helvetica Neue',sans-serif" font-weight="500.000000">31.0</text>
  <text x="134.222222" y="161.000000" fill="#000000ff" font-size="48.888889" font-family="Arial,Helvetica,'Helvetica Neue',sans-serif" font-weight="500.000000">32.0</text>
  <text x="-16.876736" y="737.444444" fill="#000000ff" font-size="48.888889" font-family="Arial,Helvetica,'Helvetica Neue',sans-serif" font-weight="500.000000" transform="matrix(6.12323e-17 -1 1 6.12323e-17 -643.556 797.333)">Lattitude</text>
  <path d="M268.474 1296.89 L268.474 144 L1864.86 144 L1864.86 1296.89 Z" fill="#eff7fe" fill-opacity="1.000000" stroke-width="1.000000" stroke="#000000ff"/>
  <path d="M268.474 1296.89 L268.474 144 " fill="none" stroke-width="4.444444" stroke="#00000019" stroke-dasharray="8.88889 8.88889 " stroke-dashoffset="0.000000"/>
  <path d="M615.514 1296.89 L615.514 144 " fill="none" stroke-width="4.444444" stroke="#00000019" stroke-dasharray="8.88889 8.88889 " stroke-dashoffset="0.000000"/>
  <path d="M962.555 1296.89 L962.555 144 " fill="none" stroke-width="4.444444" stroke="#00000019" stroke-dasharray="8.88889 8.88889 " stroke-dashoffset="0.000000"/>
  <path d="M1309.59 1296.89 L1309.59 144 " fill="none" stroke-width="4.444444" stroke="#00000019" stroke-dasharray="8.88889 8.88889 " stroke-dashoffset="0.000000"/>
  <path d="M1656.64 1296.89 L1656.64 144 " fill="none" stroke-width="4.444444" stroke="#00000019" stroke-dasharray="8.88889 8.88889 " stroke-dashoffset="0.000000"/>
  <path d="M268.474 144 L1864.86 144 " fill="none" stroke-width="4.444444" stroke="#00000019" stroke-dasharray="8.88889 8.88889 " stroke-dashoffset="0.000000"/>
  <path d="M268.474 504.278 L1864.86 504.278 " fill="none" stroke-width="4.444444" stroke="#00000019" stroke-dasharray="8.88889 8.88889 " stroke-dashoffset="0.000000"/>
  <path d="M268.474 864.556 L1864.86 864.556 " fill="none" stroke-width="4.444444" stroke="#00000019" stroke-dasharray="8.88889 8.88889 " stroke-dashoffset="0.000000"/>
  <path d="M268.474 1224.83 L1864.86 1224.83 " fill="none" stroke-width="4.444444" stroke="#00000019" stroke-dasharray="8.88889 8.88889 " stroke-dashoffset="0.000000"/>
  <path d="M1864.86 144 L1864.86 144 L1864.86 144 L1864.86 144 Z" fill="#ffefdb" fill-opacity="1.000000" stroke-width="3.111111" stroke="#999187ff"/>
  <path d="M1864.86 144 L1864.86 144 L1864.86 144 L1864.86 144 L1864.86 144 L1864.86 144 L1864.86 144 L1864.86 144 L1864.86 144 L1864.86 144 L1864.86 144 L1864.86 144 L1861.42 144 L1855.57 144 L1847.39 144 L1844.3 144 L1839.98 144 L1838.17 144 L1836.25 144 L1836.2 144 L1836.95 144 L1838.5 144 L1828.93 144 L1819.77 144 L1816.48 144 L1812.75 144 L1805.11 144 L1803.22 144 L1800.46 144 L1800.11 144 L1800.59 144 L1798.69 144 L1797.49 144 L1794.53 144 L1767.28 144 L1755.36 144 L1737.05 144 L1731.57 144 L1716.45 144 L1712.59 144 L1709.5 144 L1710.26 144 L1710.32 144 L1706.52 144 L1710.13 144 L1706.88 144 L1696.9 144 L1691.43 144 L1685.29 144 L1683.36 144 L1675.03 144 L1670.17 144 L1661.28 144 L1664.02 144 L1660.75 144 L1655.12 144 L1648.13 144 L1644.12 144 L1640.69 144 L1638.01 144 L1631.45 144 L1624.64 144 L1616.92 144 L1612.62 144 L1619.85 144 L1623.72 144 L1622.92 144 L1620.99 144 L1616.42 144 L1614.42 144 L1613.2 144 L1611.71 144 L1609.59 144 L1609.23 144 L1607.4 144 L1600.93 144 L1601.25 144 L1603.51 144 L1605.7 144 L1607.91 144 L1608.45 144 L1604.02 144 L1601.75 144 L1597.69 144 L1595.41 144 L1596.09 144 L1592.54 147.969 L1584.07 151.779 L1581.48 151.631 L1579.36 152.747 L1580.6 155.463 L1582.71 157.44 L1582.64 159.277 L1580.4 161.771 L1575.98 162.468 L1573.49 165.314 L1574.28 167.999 L1575.74 169.497 L1575.43 172.08 L1570.4 174.673 L1569.22 177.224 L1571.72 177.977 L1573.64 177.224 L1575.05 177.773 L1572.03 182.037 L1569.33 184.637 L1566.75 189.309 L1560.79 190.6 L1561.01 192.11 L1564.38 193.447 L1567.2 197.039 L1561.9 203.671 L1558.59 203.126 L1556.57 201.666 L1555.28 206.901 L1555.77 209.694 L1554.51 215.405 L1552.48 222.269 L1551.11 225.087 L1551.4 230.336 L1552.25 235.406 L1555.5 241.94 L1560.45 268.658 L1563.83 277.936 L1569.91 302.969 L1579.97 327.239 L1594.17 356.574 L1617.47 392.131 L1620.26 397.197 L1617.22 401.493 L1616.3 405.944 L1616.03 412.653 L1616.87 419.19 L1619.63 427.173 L1624.92 439.379 L1621.96 436.944 L1614.3 419.426 L1613.4 409.138 L1614.51 394.544 L1612.71 394.896 L1611.25 399.639 L1610.45 405.208 L1608.5 407.365 L1605.85 398.868 L1606.03 395.026 L1608.85 390.537 L1608.03 388.922 L1603.47 386.625 L1602.51 383.011 L1603.12 379.444 L1600.51 377.537 L1598.46 377.628 L1599.83 386.424 L1602 391.825 L1604.67 404.769 L1609 412.611 L1611.51 419.187 L1640.94 489.36 L1647.9 498.297 L1650.48 504.714 L1653.16 518.133 L1653.77 535.362 L1648.96 566.851 L1647.86 588.331 L1647.18 587.673 L1646.72 585.411 L1645.6 585.101 L1641.43 594.942 L1635.76 603.819 L1633.89 617.614 L1631.17 624.52 L1623 631.828 L1617.93 631.642 L1605.51 637.123 L1596.79 635.695 L1586.4 638.787 L1579.56 638.443 L1575.61 631.923 L1576.21 629.006 L1577.79 626.076 L1580.45 625.393 L1589.63 632.226 L1591.36 629.351 L1588.59 625.931 L1583.28 624.024 L1579.36 621.927 L1571.46 606.352 L1563.28 595.656 L1561.9 588.507 L1547.79 584.148 L1537.57 577.547 L1530.9 565.806 L1527.08 544.988 L1522.57 542.649 L1520.67 541.03 L1525.07 533.304 L1529.71 526.827 L1526.04 528.438 L1523.33 530.834 L1519.89 536.555 L1517.38 537.435 L1515.07 536.555 L1512.41 525.581 L1513.17 512.092 L1516.9 507.047 L1511.18 506.913 L1505.25 508.834 L1506.12 513.33 L1505.28 515.8 L1500.96 515.167 L1497.69 513.587 L1493.24 508.908 L1487.19 499.978 L1474.75 475.378 L1472.33 471.909 L1468.22 468.278 L1470.16 467.149 L1473.69 466.48 L1481.67 455.405 L1487.94 448.713 L1490.02 444.083 L1489.66 442.102 L1486.88 439.224 L1483.24 441.739 L1481.68 441.022 L1477.59 435.216 L1473.68 433.577 L1470.96 434.833 L1473.83 439.59 L1476.41 441.356 L1475.41 448.273 L1474.37 450.525 L1471.95 452.512 L1468.17 451.453 L1466.26 453.163 L1464.01 451.362 L1461.77 448.322 L1459.27 443.319 L1465.86 415.158 L1471.97 397.215 L1472.66 376.745 L1473.12 373.712 L1472.6 368.273 L1464.42 356.451 L1428.25 327.604 L1400.22 293.445 L1375.93 280.631 L1357.51 283.446 L1354.32 286.021 L1352.95 289.388 L1354.11 293.199 L1352.43 294.785 L1347.49 294.585 L1340.83 295.471 L1323.44 304.464 L1317.31 304.134 L1311.73 306.463 L1307.56 308.208 L1296.68 309.158 L1287.46 311.153 L1283.47 310.073 L1280.87 304.858 L1280.87 299.461 L1282.98 303.599 L1286.24 306.836 L1287.74 305.541 L1288.3 302.677 L1285.05 297.065 L1274.59 289.856 L1262.69 279.326 L1266.32 279.674 L1267.24 277.419 L1263.55 274.46 L1265.11 271.04 L1267.71 267.448 L1262.68 267.986 L1258.18 270.502 L1258.03 273.609 L1257.14 276.078 L1254.71 275.72 L1250.2 272.662 L1228.03 264.151 L1208.64 259.352 L1223.52 257.192 L1231.59 258.87 L1230.63 256.295 L1228.69 254.659 L1222.32 252.586 L1214.22 253.375 L1209.1 252.4 L1203.86 254.455 L1198.12 257.509 L1193.01 259.081 L1173.03 261.28 L1156.82 263.666 L1159.42 261.147 L1162.19 259.528 L1171.76 257.065 L1173.2 251.946 L1170.95 247.017 L1168.43 248.199 L1165.78 252.052 L1162.53 249.276 L1158.94 249.29 L1157.96 255.419 L1153.35 259.528 L1151.27 263.666 L1137.76 266.906 L1136.02 265.826 L1139.98 261.896 L1139.66 259.711 L1135.15 261.586 L1127.59 269.035 L1100.96 271.473 L1102.41 269.781 L1108.03 269.443 L1115.93 267.086 L1114.33 263.117 L1111.29 258.754 L1108.48 258.269 L1106.62 255.711 L1106.72 247.65 L1104.92 242.939 L1100.58 238.091 L1099.12 239.023 L1095.93 247.312 L1093.28 258.184 L1091.97 261.695 L1084.07 261.942 L1077.08 261.199 L1053.33 262.505 L1044.46 258.821 L1040.78 258.114 L1038.54 258.198 L1028.21 261.576 L1016.44 264.162 L1013.67 263.349 L1009.71 263.229 L1001.18 272.032 L991.118 276.152 L965.73 268.746 L959.416 262.79 L953.811 261.516 L946.917 260.781 L939.512 268.109 L933.886 277.999 L942.776 283.421 L950.384 286.014 L962.958 283.84 L969.909 279.041 L975.586 279.199 L978.3 278.225 L980.778 275.72 L985.631 277.697 L985.804 279.678 L982.357 282.468 L978.015 284.818 L975.382 287.587 L980.337 293.167 L988.118 295.042 L991.046 294.233 L992.86 287.96 L997.645 283.921 L1004.15 284.793 L1003.22 287.327 L1004.14 289.719 L1007.12 293.804 L1006.78 299.655 L1007.36 301.066 L1000.35 303.648 L995.13 304.524 L990.952 307.905 L993.141 309.869 L988.884 311.592 L986.007 310.903 L984.56 311.54 L984.126 313.616 L981.926 315.544 L985.126 321.352 L991.684 325.145 L996.31 329.898 L1014.91 336.158 L1019.42 335.978 L1023.85 342.279 L1027.43 344.447 L1030.87 345.548 L1030.48 349.883 L1024.36 353.056 L1022.71 356.842 L1021.17 358.97 L1018.41 356.275 L1015.58 354.323 L1009.02 360.262 L1005.86 361.511 L1007.43 355.107 L1004.95 352.599 L1001.2 346.178 L995.747 342.206 L991.904 340.89 L988.911 338.378 L985.288 337.361 L982.198 337.621 L976.965 336.158 L976.619 332.741 L975.169 330.183 L971.075 327.165 L951.513 321.461 L951.394 323.822 L952.75 325.599 L955.56 326.781 L958.921 329.082 L958.891 335.897 L957.437 338.782 L956.813 342.892 L955.519 347.068 L953.126 350.361 L947.785 352.606 L945.43 350.727 L941.62 341.734 L936.235 338.902 L927.678 338.568 L921.865 340.601 L915.531 349.313 L910.427 350.738 L892.957 346.223 L873.009 339.345 L873.524 337.055 L876.662 336.319 L882.681 337.259 L882.363 334.898 L876.211 327.214 L875.083 323.745 L875.876 319.512 L873.87 319.607 L870.175 323.161 L857.456 320.149 L853.945 316.55 L846.472 306.406 L835.926 306.076 L831.154 299.926 L822.535 302.501 L818.17 305.351 L814.334 309.766 L815.828 312.057 L819.651 315.695 L817.906 317.451 L805.634 320.044 L777.146 317.144 L768.815 314.435 L757.635 308.707 L742.137 304.039 L734.674 303.286 L727.367 304.211 L706.104 304.69 L701.17 305.931 L696.967 307.916 L694.242 305.72 L692.982 301.801 L695.449 301.164 L698.194 298.86 L700.671 294.303 L700.953 291.549 L699.221 289.751 L695.927 289.571 L688.65 301.442 L692.809 308.095 L692.524 310.495 L678.005 311.86 L645.05 325.254 L632.199 332.477 L632.856 330.046 L648.395 320.684 L642.908 319.252 L634.073 321.592 L630.904 320.691 L634.646 312.951 L633.425 306.125 L627.152 305.939 L623.157 311.388 L620.381 311.156 L616.744 308.82 L613.928 309.559 L616.012 321.908 L619.964 326.989 L623.268 333.466 L614.243 341.47 L605.862 348.074 L604.954 354.456 L596.532 362.77 L588.608 367.485 L569.992 378.568 L564.682 380.939 L556.28 386.083 L544.69 389.939 L533.577 396.061 L529.829 396.99 L536.925 391.807 L545.34 386.688 L538.122 387.388 L526.995 385.017 L520.187 384.879 L520.139 386.748 L514.961 389.386 L509.596 385.509 L507.257 382.902 L506.149 380.65 L503.872 380.105 L501.682 381.15 L509.691 397.007 L513.103 397.693 L516.879 399.269 L512.178 402.964 L507.118 405.768 L499.161 407.629 L492.417 401.841 L490.956 409.103 L490.102 416.355 L487.838 418.216 L484.222 420.869 L482.26 418.867 L481.328 416.062 L479.013 418.564 L475.624 420.443 L470.032 420.819 L465.836 421.822 L465.934 424.827 L466.894 427.845 L474.316 425.46 L471.625 433.225 L464.799 440.898 L459.238 442.71 L450.731 441.588 L448.63 442.359 L446.749 443.952 L456.659 455.957 L450.291 474.062 L446.22 480.624 L443.397 481.465 L440.337 481.655 L429.353 475.821 L423.361 471.311 L428.641 483.586 L443.028 487.172 L443.763 491.816 L443.682 495.785 L440.849 500.443 L438.198 506.632 L440.154 510.942 L442.425 521.599 L444.366 526.489 L446.502 541.326 L448.772 547.761 L461.851 571.443 L466.26 571.626 L466.968 574.191 L466.548 579.109 L457.14 580.541 L453.192 582.733 L452.422 584.637 L451.839 585.664 L450.626 585.569 L446.139 584.2 L435.938 577.473 L421.073 573.304 L401.542 571.689 L388.199 568.322 L381.045 563.192 L373.565 560.152 L365.764 559.196 L359.301 556.413 L354.177 551.803 L346.683 548.862 L336.821 547.585 L330.402 544.13 L325.939 535.682 L325.919 535.556 L321.923 521.433 L316.89 512.585 L307.096 501.636 L306.198 500.197 L306.194 500.193 L306.113 498.392 L307.326 492.02 L306.293 487.439 L303.192 483.706 L302.48 479.755 L304.161 475.596 L304.269 470.6 L302.809 464.767 L296.563 458.458 L285.531 451.682 L276.133 441.785 L268.474 428.774 L268.474 419.76 L268.474 414.74 L268.474 408.611 L268.474 401.373 L268.474 397.173 L268.474 396.011 L268.474 387.965 L268.474 373.04 L268.474 362.126 L268.474 355.227 L268.474 347.015 L268.474 337.491 L268.474 331.295 L268.474 326.999 L268.474 326.992 L268.474 314.478 L268.474 306.66 L268.474 304.19 L268.474 304.457 L268.474 303.708 L268.474 301.942 L268.474 301.857 L268.474 303.462 L268.474 303.785 L268.474 302.832 L268.474 300.703 L268.474 297.392 L268.474 297.839 L268.474 302.044 L268.474 304.749 L268.474 305.956 L268.474 313.767 L268.474 328.178 L268.474 337.445 L268.474 341.576 L268.474 344.573 L268.474 346.449 L268.474 350.639 L268.474 357.148 L268.474 360.297 L268.474 360.086 L268.474 355.072 L268.474 345.259 L268.474 339.194 L268.474 336.882 L268.474 332.344 L268.474 325.588 L268.474 321.081 L268.474 318.826 L268.474 311.336 L268.474 298.61 L268.474 288.794 L268.474 278.429 L268.474 255.855 L268.474 246.078 L268.474 241.567 L268.474 236.191 L268.474 229.942 L268.474 217.442 L268.474 198.689 L268.474 187.395 L268.474 183.564 L268.474 176.808 L268.474 167.13 L268.474 160.972 L268.474 160.687 L268.474 160.561 L268.474 160.476 L268.474 160.395 L268.474 160.311 L268.474 160.23 L268.474 160.149 L268.474 160.065 L268.474 159.984 L268.474 159.899 L268.474 168.006 L268.474 176.108 L268.474 184.215 L268.474 192.317 L268.474 192.363 L268.474 192.412 L268.474 192.462 L268.474 192.507 L268.474 192.553 L268.474 192.555 L268.474 144 L1864.86 144 Z" fill="#ffefdb" fill-opacity="1.000000" stroke-width="3.111111" stroke="#999187ff"/>
  <path d="M1864.86 144 L1864.86 144 L1864.86 144 L1864.86 144 L1864.86 144 L1864.86 144 L1864.86 144 Z" fill="#ffefdb" fill-opacity="1.000000" stroke-width="3.111111" stroke="#999187ff"/>
  <path d="M1515.24 543.648 L1512.76 545.527 L1507.76 544.148 L1505.02 541.678 L1503.84 536.844 L1508.2 541.963 L1509.76 543.12 L1515.24 543.648 Z" fill="#ffefdb" fill-opacity="1.000000" stroke-width="3.111111" stroke="#999187ff"/>
  <path d="M1512 536.534 L1511.91 540.766 L1508.41 533.677 L1506.08 525.842 L1509.41 528.378 L1512 536.534 Z" fill="#ffefdb" fill-opacity="1.000000" stroke-width="3.111111" stroke="#999187ff"/>
  <path d="M1630.13 638.136 L1616.34 651.686 L1617.87 648.294 L1623.25 641.043 L1624.98 637.63 L1628.62 635.466 L1632 631.554 L1632.25 626.99 L1637.17 623.799 L1638.79 623.342 L1630.13 638.136 Z" fill="#ffefdb" fill-opacity="1.000000" stroke-width="3.111111" stroke="#999187ff"/>
  <path d="M838.057 324.086 L835.478 325.113 L823.999 318.872 L823.278 316.191 L828.941 313.767 L832.398 313.981 L837.864 317.151 L839.864 318.035 L840.792 319.319 L840.264 321.328 L838.057 324.086 Z" fill="#ffefdb" fill-opacity="1.000000" stroke-width="3.111111" stroke="#999187ff"/>
  <path d="M475.702 439.312 L474.197 439.488 L477.556 433.587 L478.179 431.223 L483.686 423.757 L486.594 422.645 L487.821 425.822 L482.158 431.068 L475.702 439.312 Z" fill="#ffefdb" fill-opacity="1.000000" stroke-width="3.111111" stroke="#999187ff"/>
  <path d="M493.05 421.227 L490.502 421.526 L493.66 417.635 L498.795 415.672 L510.06 408.195 L514.656 407.682 L517.048 405.106 L518.096 404.726 L517.418 407.882 L508.355 412.365 L493.05 421.227 Z" fill="#ffefdb" fill-opacity="1.000000" stroke-width="3.111111" stroke="#999187ff"/>
  <path d="M452.155 482.658 L449.989 486.802 L450.585 480.624 L456.221 466.586 L467.673 448.136 L472.496 445.047 L459.285 465.281 L452.155 482.658 Z" fill="#ffefdb" fill-opacity="1.000000" stroke-width="3.111111" stroke="#999187ff"/>
  <path d="M612.759 349.654 L609.292 350.343 L624.421 339.261 L627.593 335.573 L631.643 335.735 L624.888 341.945 L612.759 349.654 Z" fill="#ffefdb" fill-opacity="1.000000" stroke-width="3.111111" stroke="#999187ff"/>
  <path d="M464.85 564.849 L463.891 568.195 L458.143 552.57 L448.789 517.211 L448.437 497.058 L449.908 490.12 L452.321 518.583 L462.661 554.731 L464.85 564.849 Z" fill="#ffefdb" fill-opacity="1.000000" stroke-width="3.111111" stroke="#999187ff"/>
  <path d="M1864.86 144 L1864.86 144 L1864.86 144 L1864.86 144 L1864.86 144 L1864.86 144 L1864.86 144 Z" fill="#ffefdb" fill-opacity="1.000000" stroke-width="3.111111" stroke="#999187ff"/>
  <path d="M1563.99 673.573 L1561.91 675.054 L1560.92 674.597 L1560.92 672.437 L1557.96 667.655 L1558.07 666.403 L1564.86 671.082 L1565.03 672.338 L1563.99 673.573 Z" fill="#ffefdb" fill-opacity="1.000000" stroke-width="3.111111" stroke="#999187ff"/>
  <path d="M1599.07 662.536 L1597.75 662.536 L1598.41 661.512 L1601.15 659.465 L1602.14 660.26 L1602.03 661.284 L1599.07 662.536 Z" fill="#ffefdb" fill-opacity="1.000000" stroke-width="3.111111" stroke="#999187ff"/>
  <path d="M1612.33 655.366 L1610.47 655.707 L1613.21 652.632 L1613.98 652.861 L1612.33 655.366 Z" fill="#ffefdb" fill-opacity="1.000000" stroke-width="3.111111" stroke="#999187ff"/>
  <path d="M1584.16 668.795 L1580.98 670.502 L1577.69 669.249 L1581.31 667.543 L1592.05 665.72 L1588 667.997 L1584.16 668.795 Z" fill="#ffefdb" fill-opacity="1.000000" stroke-width="3.111111" stroke="#999187ff"/>
  <path d="M1558.15 218.114 L1555.06 235.67 L1553.72 229.453 L1553.59 223.416 L1555.93 219.845 L1558.15 218.114 Z" fill="#ffefdb" fill-opacity="1.000000" stroke-width="3.111111" stroke="#999187ff"/>
  <path d="M1547.89 677.218 L1543.4 677.929 L1547.02 675.093 L1548.2 670.787 L1550.33 674.15 L1550.29 676.191 L1547.89 677.218 Z" fill="#ffefdb" fill-opacity="1.000000" stroke-width="3.111111" stroke="#999187ff"/>
  <path d="M1643.67 484.216 L1644.8 489.522 L1638.42 477.215 L1630.53 457.917 L1626.31 442.992 L1629.17 447.027 L1631.96 455.38 L1643.67 484.216 Z" fill="#ffefdb" fill-opacity="1.000000" stroke-width="3.111111" stroke="#999187ff"/>
  <path d="M1532.82 681.204 L1531.06 681.366 L1530.91 680.251 L1533.94 678.889 L1535.96 678.981 L1535.88 680.49 L1532.82 681.204 Z" fill="#ffefdb" fill-opacity="1.000000" stroke-width="3.111111" stroke="#999187ff"/>
  <path d="M1039.65 308.82 L1035.88 312.592 L1036.05 311.153 L1038.82 307.378 L1040.8 305.91 L1039.65 308.82 Z" fill="#ffefdb" fill-opacity="1.000000" stroke-width="3.111111" stroke="#999187ff"/>
  <path d="M1062.63 272.553 L1061.76 273.355 L1055.61 271.856 L1051.88 270.463 L1051.2 269.07 L1061.53 271.6 L1062.63 272.553 Z" fill="#ffefdb" fill-opacity="1.000000" stroke-width="3.111111" stroke="#999187ff"/>
  <path d="M1096.42 269.928 L1090.31 271.473 L1081.26 271.329 L1079.42 270.787 L1083.05 269.756 L1093.78 268.387 L1096.42 269.928 Z" fill="#ffefdb" fill-opacity="1.000000" stroke-width="3.111111" stroke="#999187ff"/>
  <path d="M1016.42 282.053 L1016.66 285.402 L1013.26 283.734 L1008.23 283.583 L1010.44 282.44 L1012 281.324 L1012.77 280.124 L1019.15 275.959 L1017.34 279.016 L1016.42 282.053 Z" fill="#ffefdb" fill-opacity="1.000000" stroke-width="3.111111" stroke="#999187ff"/>
  <path d="M1043.94 301.966 L1041.98 304.26 L1043.9 293.273 L1041.2 284.023 L1044.05 288.083 L1044.97 292.914 L1043.94 301.966 Z" fill="#ffefdb" fill-opacity="1.000000" stroke-width="3.111111" stroke="#999187ff"/>
  <path d="M1315.99 313.862 L1309.02 316.455 L1301.49 314.569 L1306.17 314.21 L1309.56 314.974 L1318.13 311.265 L1322.63 308.458 L1327.84 307.392 L1315.99 313.862 Z" fill="#ffefdb" fill-opacity="1.000000" stroke-width="3.111111" stroke="#999187ff"/>
  <path d="M1561.58 1055.58 L1563.82 1056.98 L1566.65 1056.13 L1567.46 1054.6 L1578.17 1055.73 L1579.79 1058.73 L1571.64 1058.81 L1567.98 1060.73 L1566.15 1061.13 L1559.13 1060.66 L1558.14 1053.72 L1560.09 1052.99 L1561.58 1055.58 Z" fill="#ffefdb" fill-opacity="1.000000" stroke-width="3.111111" stroke="#999187ff"/>
  <path d="M1658.09 1029.69 L1657.41 1030.1 L1655.19 1029.79 L1650.1 1032.74 L1647.9 1032.56 L1648.58 1031.53 L1649.63 1030.56 L1650.83 1029.84 L1651.94 1029.57 L1655.51 1028.97 L1657.2 1028.89 L1658.36 1029.57 L1658.09 1029.69 Z" fill="#ffefdb" fill-opacity="1.000000" stroke-width="3.111111" stroke="#999187ff"/>
  <path d="M1668.89 1029.42 L1665.65 1030.52 L1663.15 1030.1 L1668.84 1027.11 L1670.3 1026.1 L1671.55 1025.55 L1672.85 1025.55 L1674.52 1026.17 L1674.52 1026.62 L1668.89 1029.42 Z" fill="#ffefdb" fill-opacity="1.000000" stroke-width="3.111111" stroke="#999187ff"/>
  <path d="M1864.86 881.472 L1864.86 882.446 L1864.86 879.67 L1864.86 879.642 L1864.86 875.835 L1864.86 875.213 L1864.86 876.557 L1864.86 879.864 L1864.86 881.472 Z" fill="#ffefdb" fill-opacity="1.000000" stroke-width="3.111111" stroke="#999187ff"/>
  <path d="M1864.86 876.053 L1864.86 876.813 L1864.86 874.326 L1864.86 872.335 L1864.86 872.236 L1864.86 870.445 L1864.86 868.127 L1864.86 868.021 L1864.86 874.463 L1864.86 876.053 Z" fill="#ffefdb" fill-opacity="1.000000" stroke-width="3.111111" stroke="#999187ff"/>
  <path d="M1864.86 875.265 L1864.86 879.234 L1864.86 878.643 L1864.86 879.491 L1864.86 880.406 L1864.86 881.145 L1864.86 882.193 L1864.86 881.992 L1864.86 879.304 L1864.86 875.265 Z" fill="#ffefdb" fill-opacity="1.000000" stroke-width="3.111111" stroke="#999187ff"/>
  <path d="M1417.42 1296.89 L1419.6 1296.89 L1429.21 1296.89 L1417.42 1296.89 Z" fill="#ffefdb" fill-opacity="1.000000" stroke-width="3.111111" stroke="#999187ff"/>
  <path d="M268.474 192.555 L268.474 192.553 L268.474 192.507 L268.474 192.462 L268.474 192.412 L268.474 192.363 L268.474 192.317 L268.474 184.215 L268.474 176.108 L268.474 168.006 L268.474 159.899 L268.474 159.984 L268.474 160.065 L268.474 160.149 L268.474 160.23 L268.474 160.311 L268.474 160.395 L268.474 160.476 L268.474 160.561 L268.474 160.687 L268.474 160.972 L268.474 167.13 L268.474 176.808 L268.474 183.564 L268.474 187.395 L268.474 198.689 L268.474 217.442 L268.474 229.942 L268.474 236.191 L268.474 241.567 L268.474 246.078 L268.474 255.855 L268.474 278.429 L268.474 288.794 L268.474 298.61 L268.474 311.336 L268.474 318.826 L268.474 321.081 L268.474 325.588 L268.474 332.344 L268.474 336.882 L268.474 339.194 L268.474 345.259 L268.474 355.072 L268.474 360.086 L268.474 360.297 L268.474 357.148 L268.474 350.639 L268.474 346.449 L268.474 344.573 L268.474 341.576 L268.474 337.445 L268.474 328.178 L268.474 313.767 L268.474 305.956 L268.474 304.749 L268.474 302.044 L268.474 297.839 L268.474 297.392 L268.474 300.703 L268.474 302.832 L268.474 303.785 L268.474 303.462 L268.474 301.857 L268.474 301.942 L268.474 303.708 L268.474 304.457 L268.474 304.19 L268.474 306.66 L268.474 314.478 L268.474 326.992 L268.474 326.999 L268.474 331.295 L268.474 337.491 L268.474 347.015 L268.474 355.227 L268.474 362.126 L268.474 373.04 L268.474 387.965 L268.474 396.011 L268.474 397.173 L268.474 401.373 L268.474 408.611 L268.474 414.74 L268.474 419.76 L268.474 428.774 L276.133 441.785 L285.531 451.682 L296.563 458.458 L302.809 464.767 L304.269 470.6 L304.161 475.596 L302.48 479.755 L303.192 483.706 L306.293 487.439 L307.326 492.02 L306.113 498.392 L306.194 500.193 L306.198 500.197 L307.096 501.636 L316.89 512.585 L321.923 521.433 L325.919 535.556 L325.939 535.682 L330.402 544.13 L336.821 547.585 L346.683 548.862 L354.177 551.803 L359.301 556.413 L365.764 559.196 L373.565 560.152 L381.045 563.192 L388.199 568.322 L401.542 571.689 L421.073 573.304 L435.938 577.473 L446.139 584.2 L450.626 585.569 L451.839 585.664 L452.422 584.637 L453.192 582.733 L457.14 580.541 L466.548 579.109 L465.284 593.992 L461.088 606.204 L447.264 631.592 L441.503 647.34 L430.356 692.343 L426.93 721.841 L426.127 735.725 L425.15 737.691 L426.211 739.739 L423.541 770.44 L424.974 796.652 L424.063 800.712 L420.013 808.618 L417.159 819.556 L418.284 824.415 L418.223 827.785 L422.395 844.431 L423.72 856.928 L436.111 878.351 L443.068 885.824 L451.7 892.301 L454.869 895.957 L453.317 905.059 L449.799 909.668 L448.298 916.972 L446.566 910.924 L447.24 903.081 L449.989 898.866 L450.084 895.777 L445.007 892.484 L435.721 881.704 L424.378 862.635 L432.447 893.114 L435.219 897.997 L437.375 900.027 L440.984 902.17 L441.92 905.481 L441.953 907.93 L451.911 929.117 L463.166 951.015 L463.765 957 L468.27 964.353 L496.917 995.1 L514.452 1018.05 L520.539 1039.85 L524.22 1046.65 L526.009 1055.95 L537.501 1066.38 L541.012 1073.11 L547.17 1076.85 L552.142 1088.13 L561.506 1094.74 L559.269 1094.86 L551.088 1091.52 L551.634 1093.72 L558.524 1098.4 L572.009 1103.02 L575.374 1103.03 L570.057 1100.63 L565.553 1097.41 L567.129 1096.94 L576.547 1100.96 L602.893 1102.29 L614.494 1111.66 L629.525 1115.7 L637.611 1127.67 L647.012 1140.18 L653.011 1140.77 L657.695 1140.82 L671.803 1138.71 L693.727 1130.84 L701.275 1126.99 L715.993 1121.76 L738.51 1120.8 L745.492 1122.27 L762.329 1119.01 L770.357 1115.01 L773.143 1111.38 L774.451 1108.7 L790.055 1104.88 L793.128 1104.12 L808.942 1103.43 L816.574 1102.02 L825.558 1101.2 L832.042 1106.82 L832.035 1109.57 L827.717 1112.18 L829.737 1114.7 L837.413 1118.87 L851.522 1120.56 L856.084 1119.88 L862.574 1113.73 L874.042 1107.78 L873.798 1100.85 L871.748 1097.06 L868.417 1096.82 L867.62 1094.69 L869.948 1089.6 L869.335 1087.89 L862.221 1092.77 L860.581 1092.75 L861.367 1090.48 L862.838 1088.66 L883.711 1078.02 L889.056 1073.65 L896.268 1069.79 L911.244 1055.34 L914.443 1028.13 L917.433 1023.37 L927.359 1015.02 L928.427 1012.5 L929.071 1006.81 L928.796 992.525 L929.355 981.287 L928.952 968.579 L930.735 957.239 L932.351 954.083 L938.045 935.932 L949.859 927.9 L970.353 918.407 L975.064 916.824 L1040.38 906.772 L1049.55 904.32 L1060.77 897.797 L1068.98 895.584 L1083.95 895.763 L1088.55 894.894 L1089.45 893.993 L1089.48 893.124 L1092.23 892.234 L1100.9 893.086 L1117.08 897.016 L1122.97 898.001 L1137.43 902.568 L1153.37 904.404 L1155.65 903.609 L1157.76 902.219 L1159.37 899.559 L1157.71 897.237 L1156.16 897.417 L1153.46 898.666 L1150.25 898.785 L1143.94 896.875 L1145.2 895.271 L1151.64 895.422 L1155.76 894.644 L1161.86 891.83 L1168.37 893.937 L1176.91 903.261 L1182.99 906.227 L1183.47 919.734 L1184.39 922.196 L1186.62 925.764 L1183.58 936.235 L1180.17 944.893 L1175.9 951.997 L1166.64 963.182 L1155.42 972.115 L1141.53 991.993 L1138.35 1001.31 L1138.45 1008.77 L1140.8 1015.98 L1140.12 1018.64 L1138.42 1021.34 L1135.6 1021.1 L1130.12 1024.56 L1123.05 1034.81 L1122.88 1037.94 L1125.99 1040.81 L1130.02 1039.43 L1135.26 1039.31 L1138.2 1038.46 L1141.3 1038.69 L1140.61 1044.57 L1137.28 1048.75 L1135.18 1050.06 L1131.42 1050.77 L1127.22 1053.15 L1125.06 1055.33 L1125.26 1062.14 L1127.6 1062.67 L1132.55 1057.6 L1135.42 1057.85 L1136 1059.99 L1129.58 1077.38 L1125.45 1095.24 L1119.86 1105.58 L1117.9 1120.63 L1114.97 1127.05 L1111.56 1133.4 L1109.56 1133.04 L1104.17 1121.01 L1098.66 1117.91 L1097.45 1114.99 L1100.6 1100.4 L1099.17 1092.33 L1096.25 1092.65 L1092.57 1097.08 L1087.71 1100.92 L1087.81 1106.47 L1082.23 1115.7 L1080.85 1118.74 L1075.52 1118.02 L1069.35 1118.42 L1065.07 1120.65 L1060.68 1131.84 L1049.76 1147.62 L1045.4 1155.26 L1041.86 1157.91 L1039.06 1158.93 L1035.94 1157.13 L1028.46 1152.8 L1022.69 1154.88 L1020.69 1159.84 L1020.75 1166.12 L1006.18 1166.11 L981.377 1166.08 L949.812 1166.06 L919.381 1166.03 L893.899 1166.01 L893.811 1180.1 L893.729 1192.59 L893.635 1206.64 L879.577 1206.52 L864.716 1206.4 L865.915 1207.8 L870.992 1210.44 L877.587 1216.74 L885.382 1226.55 L894.824 1234.36 L905.917 1240.17 L913.227 1245.87 L916.748 1251.43 L918.524 1256.17 L918.544 1260.09 L922.591 1263.18 L929.857 1265.22 L933.612 1268.71 L933.612 1271.57 L931.311 1278.06 L930.636 1285.19 L931.518 1291.65 L926.325 1291.76 L913.745 1291.77 L894.563 1291.79 L876.92 1291.8 L863.024 1291.81 L842.022 1291.83 L836.271 1296.89 L826.707 1296.89 L818.038 1296.89 L810.748 1296.89 L809.562 1296.89 L809.555 1296.89 L818.546 1296.89 L816.886 1296.89 L813.727 1296.89 L813.677 1296.89 L776.536 1296.89 L767.592 1296.89 L759.994 1296.89 L752.636 1296.89 L742.747 1296.89 L716.769 1296.89 L703.359 1296.89 L690.748 1293.03 L679.442 1286.42 L668.272 1282.11 L663.317 1279.64 L658.952 1276.37 L656.532 1276.18 L655.326 1280.58 L659.23 1282.81 L663.903 1284.69 L667.604 1284.82 L671.498 1286.4 L682.957 1292.42 L684.834 1295.52 L652.248 1283.45 L639.007 1282.34 L637.567 1280.44 L644.172 1274.13 L642.108 1271.85 L639.753 1271.54 L632.67 1275.91 L630.033 1276.2 L629.572 1273.32 L629.887 1270.62 L625.322 1266.65 L622.425 1266.81 L620.045 1269.57 L613.881 1274.82 L614.067 1276.88 L626.2 1279.12 L630.382 1280.38 L629.437 1281.78 L619.032 1281.76 L606.188 1284.14 L583.281 1296.89 L561.947 1296.89 L531.282 1296.89 L517.743 1296.89 L510.65 1296.89 L490.027 1296.89 L463.881 1296.89 L424.31 1296.89 L397.645 1282.02 L371.176 1274.92 L354.387 1258.36 L344.27 1257.65 L337.767 1254.99 L313.725 1248.99 L289.944 1245.04 L268.474 1230.56 L268.474 1225.97 L268.474 1220.22 L268.474 1210.39 L268.474 1204.94 L268.474 1196.51 L268.474 1187.78 L268.474 1180.5 L268.474 1177.88 L268.474 1164.16 L268.474 1158.38 L268.474 1155.68 L268.474 1154.74 L268.474 1155.85 L268.474 1149.79 L268.474 1148.25 L268.474 1139.31 L268.474 1129.33 L268.474 1117.88 L268.474 1107.17 L268.474 1093.08 L268.474 1087.08 L268.474 1079.93 L268.474 1074.15 L268.474 1069.71 L268.474 1058.43 L268.474 1048.78 L268.474 1040.21 L268.474 1029.82 L268.474 1010.39 L268.474 1003.23 L268.474 992.25 L268.474 985.875 L268.474 980.882 L268.474 977.251 L268.474 972.787 L268.474 971.784 L268.474 966.943 L268.474 962.97 L268.474 960.497 L268.474 954.41 L268.474 952.795 L268.474 952.708 L268.474 950.392 L268.474 947.866 L268.474 941.934 L268.474 934.697 L268.474 928.023 L268.474 918.618 L268.474 909.2 L268.474 901.245 L268.474 892.062 L268.474 888.157 L268.474 877.637 L268.474 865.414 L268.474 841 L268.474 819.341 L268.474 808.568 L268.474 804.818 L268.474 788.109 L268.474 778.406 L268.474 760.114 L268.474 748.496 L268.474 729.001 L268.474 719.283 L268.474 686.44 L268.474 686.44 L268.474 694.5 L268.474 693.828 L268.474 689.895 L268.474 685.198 L268.474 684.072 L268.474 685.127 L268.474 684.16 L268.474 682.612 L268.474 681.606 L268.474 676.138 L268.474 670.47 L268.474 663.996 L268.474 650.204 L268.474 642.513 L268.474 643.08 L268.474 646.179 L268.474 647.062 L268.474 647.087 L268.474 645.842 L268.474 643.558 L268.474 641.651 L268.474 634.386 L268.474 629.284 L268.474 620.798 L268.474 617.822 L268.474 609.62 L268.474 609.24 L268.474 611.527 L268.474 613.768 L268.474 611.158 L268.474 608.646 L268.474 605.986 L268.474 598.235 L268.474 595.54 L268.474 598.65 L268.474 602.13 L268.474 604.072 L268.474 605.694 L268.474 604.522 L268.474 602.767 L268.474 595.994 L268.474 573.987 L268.474 566.355 L268.474 558.816 L268.474 554.34 L268.474 557.718 L268.474 558.122 L268.474 554.305 L268.474 550.734 L268.474 547.173 L268.474 543.912 L268.474 537.864 L268.474 525.149 L268.474 526.123 L268.474 525.683 L268.474 520.842 L268.474 512.68 L268.474 505.85 L268.474 502.213 L268.474 498.56 L268.474 497.557 L268.474 192.555 Z" fill="#ffefdb" fill-opacity="1.000000" stroke-width="3.111111" stroke="#999187ff"/>
  <path d="M268.474 710.524 L268.474 712.563 L268.474 718.066 L268.474 724.839 L268.474 730.18 L268.474 734.581 L268.474 744.83 L268.474 749.418 L268.474 757.904 L268.474 763.277 L268.474 777.026 L268.474 780.984 L268.474 786.832 L268.474 793.809 L268.474 798.108 L268.474 800.722 L268.474 800.179 L268.474 710.524 Z" fill="#ffefdb" fill-opacity="1.000000" stroke-width="3.111111" stroke="#999187ff"/>
  <path d="M1174.97 986.811 L1171.38 989.055 L1169.43 981.118 L1172.31 973.374 L1175.79 968.927 L1182.68 968.403 L1187.21 966.943 L1187.78 968.909 L1184.05 974.912 L1174.97 986.811 Z" fill="#ffefdb" fill-opacity="1.000000" stroke-width="3.111111" stroke="#999187ff"/>
  <path d="M268.474 892.597 L268.474 898.529 L268.474 896.154 L268.474 892.431 L268.474 886.327 L268.474 885.296 L268.474 887.875 L268.474 889.606 L268.474 892.597 Z" fill="#ffefdb" fill-opacity="1.000000" stroke-width="3.111111" stroke="#999187ff"/>
  <path d="M1190.63 919.368 L1191.86 922.847 L1190.66 922.432 L1189.08 919.8 L1187.93 916.521 L1188.89 916.437 L1189.73 917.566 L1190.63 919.368 Z" fill="#ffefdb" fill-opacity="1.000000" stroke-width="3.111111" stroke="#999187ff"/>
  <path d="M845.693 1103.97 L837.888 1105.64 L836.502 1104.08 L852.257 1096.72 L854.952 1097.03 L855.894 1098.01 L847.736 1101.51 L845.693 1103.97 Z" fill="#ffefdb" fill-opacity="1.000000" stroke-width="3.111111" stroke="#999187ff"/>
  <path d="M268.474 709.559 L268.474 709.812 L268.474 705.988 L268.474 696.601 L268.474 695.598 L268.474 707.23 L268.474 708.658 L268.474 709.559 Z" fill="#ffefdb" fill-opacity="1.000000" stroke-width="3.111111" stroke="#999187ff"/>
  <path d="M1846.71 1119.82 L1855.17 1122.41 L1863.9 1123.74 L1864.86 1123.82 L1864.86 1124.65 L1864.86 1130.85 L1864.86 1134.25 L1864.86 1141.84 L1864.86 1154.92 L1864.86 1159.01 L1864.86 1161.44 L1864.86 1162.27 L1864.86 1162.42 L1864.86 1159.91 L1864.86 1157.99 L1864.86 1157.07 L1864.86 1155.31 L1864.86 1154.48 L1864.86 1154.67 L1864.86 1159.69 L1864.86 1163.67 L1862.37 1163.29 L1859.91 1159.89 L1856.57 1161.42 L1853.87 1163.94 L1850.63 1173.32 L1845.43 1168.66 L1839.77 1164.76 L1832.66 1163.15 L1818.3 1162.89 L1811.54 1161.61 L1805.9 1153.68 L1803.69 1151.41 L1798.02 1149.35 L1792.36 1140.25 L1790.34 1139 L1775.04 1137.06 L1771.89 1132.08 L1772.83 1127.58 L1777.93 1122.06 L1780.41 1120.49 L1788.89 1120.73 L1796.97 1119.07 L1800.53 1116.7 L1804.24 1115.15 L1833.51 1119.12 L1840.27 1119.17 L1846.71 1119.82 Z" fill="#ffefdb" fill-opacity="1.000000" stroke-width="3.111111" stroke="#999187ff"/>
  <path d="M1429.21 1296.89 L1419.6 1296.89 L1417.42 1296.89 L1019.43 1296.89 L1020.14 1296.89 L1022.07 1296.89 L1033.6 1296.89 L1034.67 1296.89 L1043.77 1296.89 L1053.86 1296.89 L1064.36 1296.89 L1076.07 1296.89 L1082.53 1296.89 L1085.52 1296.89 L1092.27 1296.89 L1097.58 1296.89 L1100.65 1296.89 L1107.82 1296.89 L1110.05 1296.89 L1122.06 1296.89 L1127.87 1296.89 L1132.95 1296.89 L1136.98 1296.89 L1144.58 1296.89 L1150.94 1296.89 L1177.22 1296.89 L1187.64 1296.89 L1206.81 1296.89 L1215.43 1296.89 L1227.61 1296.89 L1235.43 1296.89 L1244.61 1296.89 L1243.39 1296.73 L1241.18 1295.15 L1255.18 1296.68 L1276.02 1296.89 L1298.23 1296.89 L1306.25 1296.89 L1311.42 1296.89 L1334.16 1296.89 L1340.16 1296.89 L1344.83 1296.89 L1348.46 1296.89 L1349.44 1296.89 L1344.97 1296.89 L1342.94 1296.89 L1360.86 1296.89 L1394.59 1296.89 L1395.29 1296.89 L1380.89 1296.89 L1373.26 1296.89 L1371.28 1296.89 L1371.7 1296.89 L1372.4 1296.89 L1375.67 1296.89 L1378.09 1296.89 L1384.04 1296.89 L1387.98 1296.89 L1392.77 1296.89 L1395.63 1296.89 L1398.72 1296.89 L1401.76 1296.89 L1407.48 1296.89 L1411.21 1296.89 L1413.85 1296.89 L1410.16 1296.89 L1401.48 1296.89 L1403.55 1296.89 L1422.79 1296.89 L1428.22 1296.89 L1432.75 1296.89 L1436.81 1296.89 L1429.21 1296.89 Z" fill="#ffefdb" fill-opacity="1.000000" stroke-width="3.111111" stroke="#999187ff"/>
  <path d="M1211.04 1269.63 L1199.91 1275.25 L1196.43 1275.15 L1201.53 1270.8 L1209.77 1267.07 L1216.74 1265.24 L1222.45 1266.03 L1211.04 1269.63 Z" fill="#ffefdb" fill-opacity="1.000000" stroke-width="3.111111" stroke="#999187ff"/>
  <path d="M1249.14 1263.63 L1243.85 1267.81 L1242.89 1265.93 L1245.45 1262.06 L1248.64 1259.85 L1251.72 1260.08 L1250.98 1261.74 L1249.14 1263.63 Z" fill="#ffefdb" fill-opacity="1.000000" stroke-width="3.111111" stroke="#999187ff"/>
  <path d="M1864.86 1028.97 L1864.86 1031.13 L1864.86 1045.66 L1864.86 1050.32 L1864.86 1057.34 L1864.86 1060.13 L1864.86 1066.6 L1864.86 1068.94 L1864.86 1071.3 L1864.86 1077.44 L1864.86 1081.66 L1864.86 1086.49 L1864.86 1091.07 L1864.86 1094.9 L1864.86 1099.97 L1864.86 1106.27 L1864.86 1108.52 L1864.86 1108.8 L1864.86 1109.7 L1864.86 1115.84 L1864.86 1122.79 L1864.86 1128.18 L1864.86 1133.27 L1864.86 1138.08 L1864.86 1149.96 L1864.86 1144.19 L1864.86 1139.37 L1864.86 1137.5 L1864.86 1136.31 L1864.86 1136.93 L1864.86 1137.76 L1864.86 1139.31 L1864.86 1140.08 L1864.86 1141.53 L1864.86 1141.84 L1864.86 1137.96 L1864.86 1135.95 L1864.86 1134.68 L1864.86 1135.1 L1864.86 1136.27 L1864.86 1139.07 L1864.86 1144 L1864.86 1148.58 L1864.86 1149.76 L1864.86 1142.46 L1864.86 1137.28 L1864.86 1133.38 L1864.86 1127.83 L1864.86 1124.46 L1864.86 1120.35 L1864.86 1107.76 L1864.86 1105.46 L1864.86 1105.03 L1864.86 1106.58 L1864.86 1109.44 L1864.86 1111.31 L1864.86 1112.04 L1864.86 1115.14 L1864.86 1119.94 L1864.86 1121.45 L1864.86 1120.92 L1864.86 1119.04 L1864.86 1115.65 L1864.86 1113.09 L1864.86 1112.52 L1864.86 1111.38 L1864.86 1107.83 L1864.86 1104.14 L1864.86 1099.2 L1864.86 1088.35 L1864.86 1075.56 L1864.86 1071.26 L1864.86 1063.38 L1864.86 1056.09 L1864.86 1048.94 L1864.86 1042.82 L1864.86 1036.71 L1864.86 1034.8 L1864.86 1033.26 L1864.86 1028.69 L1864.86 1022.54 L1864.86 1019.14 L1864.86 1017.05 L1864.86 1015.6 L1864.86 1013.85 L1864.86 1015.81 L1864.86 1022.12 L1864.86 1027.07 L1864.86 1028.72 L1864.86 1030.52 L1864.86 1028.97 Z" fill="#ffefdb" fill-opacity="1.000000" stroke-width="3.111111" stroke="#999187ff"/>
  <path d="M1864.86 1096.74 L1864.86 1101.83 L1864.86 1095.79 L1864.86 1088.16 L1864.86 1084.03 L1864.86 1083.08 L1864.86 1085.62 L1864.86 1090.7 L1864.86 1096.74 Z" fill="#ffefdb" fill-opacity="1.000000" stroke-width="3.111111" stroke="#999187ff"/>
  <path d="M1864.86 1005.96 L1864.86 1007.65 L1864.86 1009.69 L1864.86 1008.42 L1864.86 1006.11 L1864.86 1006.69 L1864.86 1006.4 L1864.86 1004.18 L1864.86 1002.48 L1864.86 1001.92 L1864.86 1002.05 L1864.86 1005.96 Z" fill="#ffefdb" fill-opacity="1.000000" stroke-width="3.111111" stroke="#999187ff"/>
  <path d="M813.677 1296.89 L813.727 1296.89 L816.886 1296.89 L818.546 1296.89 L809.555 1296.89 L809.562 1296.89 L810.748 1296.89 L818.038 1296.89 L826.707 1296.89 L836.271 1296.89 L842.022 1291.83 L863.024 1291.81 L876.92 1291.8 L894.563 1291.79 L913.745 1291.77 L926.325 1291.76 L931.518 1291.65 L930.636 1285.19 L931.311 1278.06 L933.612 1271.57 L933.612 1268.71 L929.857 1265.22 L922.591 1263.18 L918.544 1260.09 L918.524 1256.17 L916.748 1251.43 L913.227 1245.87 L905.917 1240.17 L894.824 1234.36 L885.382 1226.55 L877.587 1216.74 L870.992 1210.44 L865.915 1207.8 L864.716 1206.4 L879.577 1206.52 L893.635 1206.64 L893.729 1192.59 L893.811 1180.1 L893.899 1166.01 L919.381 1166.03 L949.812 1166.06 L981.377 1166.08 L1006.18 1166.11 L1020.75 1166.12 L1020.09 1183.6 L1019.32 1203.85 L1018.75 1218.73 L1017.99 1238.6 L1017.22 1258.9 L1016.16 1286.6 L1015.48 1296.89 L1015.8 1296.89 L1024.08 1296.89 L1036.32 1296.89 L1039.32 1296.89 L1043.07 1296.89 L1045.96 1296.89 L1052.19 1296.89 L1059.49 1296.89 L1064.15 1296.89 L1061.7 1296.89 L1059.86 1296.89 L1060.15 1296.89 L1085.52 1296.89 L1082.53 1296.89 L1076.07 1296.89 L1064.36 1296.89 L1053.86 1296.89 L1043.77 1296.89 L1034.67 1296.89 L1033.6 1296.89 L1022.07 1296.89 L1020.14 1296.89 L1019.43 1296.89 L813.677 1296.89 Z" fill="#ffefdb" fill-opacity="1.000000" stroke-width="3.111111" stroke="#999187ff"/>
  <path d="M1864.86 1149.96 L1864.86 1138.08 L1864.86 1133.27 L1864.86 1128.18 L1864.86 1122.79 L1864.86 1115.84 L1864.86 1109.7 L1864.86 1108.8 L1864.86 1108.52 L1864.86 1106.27 L1864.86 1099.97 L1864.86 1094.9 L1864.86 1091.07 L1864.86 1086.49 L1864.86 1081.66 L1864.86 1077.44 L1864.86 1071.3 L1864.86 1068.94 L1864.86 1066.6 L1864.86 1060.13 L1864.86 1057.34 L1864.86 1050.32 L1864.86 1045.66 L1864.86 1031.13 L1864.86 1028.97 L1864.86 1027.75 L1864.86 1023.43 L1864.86 1019.57 L1864.86 1017.5 L1864.86 1016.21 L1864.86 1016.3 L1864.86 1019.66 L1864.86 1019.61 L1864.86 1016.56 L1864.86 1014.87 L1864.86 1016.79 L1864.86 1019.41 L1864.86 1023.56 L1864.86 1024.83 L1864.86 1024.74 L1864.86 1025.15 L1864.86 1032.01 L1864.86 1034.75 L1864.86 1034.89 L1864.86 1032.23 L1864.86 1032.25 L1864.86 1125.38 L1864.86 1125.86 L1864.86 1127.87 L1864.86 1132.81 L1864.86 1134.64 L1864.86 1137.12 L1864.86 1133.5 L1864.86 1128.55 L1864.86 1127.87 L1864.86 1131.7 L1864.86 1133.09 L1864.86 1134.74 L1864.86 1136.61 L1864.86 1143.53 L1864.86 1147.73 L1864.86 1163.61 L1864.86 1174.82 L1864.86 1178.28 L1864.86 1179.04 L1864.86 1172.59 L1864.86 1170.26 L1864.86 1169.09 L1864.86 1165.67 L1864.86 1160.8 L1864.86 1156.09 L1864.86 1152.38 L1864.86 1149.96 Z" fill="#ffefdb" fill-opacity="1.000000" stroke-width="3.111111" stroke="#999187ff"/>
  <path d="M1529.1 780.752 L1547.29 784.105 L1561.99 783.155 L1569.02 781.199 L1568.37 783.233 L1574.83 788.201 L1577.19 788.542 L1586.7 786.026 L1611.51 785.073 L1614.06 786.466 L1618.43 791.304 L1624.76 794.301 L1631.31 796.578 L1638.16 797.186 L1645 796.149 L1651.41 796.655 L1659.42 801.37 L1661.94 801.929 L1669.11 800.641 L1667 804.951 L1679.08 811.013 L1687.92 822.923 L1694.36 827.817 L1701.17 832.208 L1706.91 835.184 L1713.34 836.606 L1732.85 836.022 L1737.46 836.388 L1741.59 838.087 L1745.53 838.756 L1747.8 838.122 L1785.52 856.671 L1797.5 866.575 L1804.82 871.719 L1820.66 879.157 L1827.02 880.796 L1830.36 879.808 L1829.7 878.172 L1825.06 874.045 L1824.38 872.535 L1830.35 873.805 L1841.11 882.189 L1844.07 885.289 L1849.45 888.16 L1854.85 890.236 L1852.28 893.547 L1847.89 893.828 L1839.44 892.467 L1846.15 897.853 L1847.31 901.773 L1850.43 902.107 L1855.08 897.8 L1858.01 894.169 L1864.86 903.539 L1864.86 907.824 L1864.86 910.326 L1864.86 912.803 L1864.86 910.498 L1864.86 910.751 L1864.86 912.081 L1864.86 916.11 L1864.86 917.003 L1864.86 916.894 L1864.86 920.226 L1864.86 926.995 L1864.86 928.378 L1864.86 928.61 L1864.86 932.192 L1864.86 936.995 L1864.86 940.397 L1864.86 943.95 L1864.86 948.31 L1864.86 950.16 L1864.86 952.785 L1864.86 955.621 L1864.86 957.179 L1864.86 955.814 L1864.86 957.028 L1864.86 958.112 L1864.86 957.229 L1864.86 960.198 L1864.86 961.785 L1864.86 967.365 L1864.86 971.045 L1864.86 980.956 L1864.86 984.855 L1864.86 985.797 L1864.86 985.147 L1864.86 986.223 L1864.86 987.613 L1864.86 991.955 L1864.86 996.521 L1864.86 1000.23 L1864.86 1002.92 L1864.86 1003.24 L1864.86 1004.48 L1864.86 1008.5 L1864.86 1011.7 L1864.86 1013.81 L1864.86 1015.77 L1864.86 1014.1 L1864.86 1011.99 L1864.86 1008.07 L1864.86 1011.59 L1864.86 1014.17 L1864.86 1016.37 L1864.86 1016.51 L1864.86 1013.55 L1864.86 1011.52 L1864.86 1009.41 L1864.86 1009.59 L1864.86 1011.79 L1864.86 1012.98 L1864.86 1014.33 L1864.86 1016.39 L1850.15 1016.32 L1832.71 1018.66 L1815.23 1019.08 L1826.42 1002.75 L1850.05 987.022 L1854.49 983.644 L1857.65 979.303 L1858.4 976.031 L1857.37 973.241 L1851.74 968.318 L1850.6 964.652 L1848.92 962.281 L1840.74 960.219 L1832.44 958.984 L1823.72 958.942 L1805.38 957.246 L1795.64 957.12 L1787.38 953.77 L1773.67 941.836 L1767.25 938.493 L1763.95 935.819 L1761.39 932.741 L1758.16 915.223 L1755.43 906.793 L1751.27 899.465 L1744.94 893.902 L1738.33 892.013 L1712.91 896.776 L1707 896.069 L1701.24 894.447 L1662.86 883.104 L1647.03 876.859 L1640.58 873.767 L1635.07 869.355 L1629.36 862.124 L1622.94 855.661 L1622.99 858.275 L1622 859.978 L1589.87 860.745 L1584.75 859.253 L1581.46 857.498 L1579.13 854.884 L1577.41 849.645 L1574.35 845.247 L1573.38 849.933 L1571.79 854.257 L1567.49 856.671 L1562.57 857.054 L1556.61 851.313 L1530.58 850.13 L1528.27 849.159 L1519.72 843.597 L1512.42 836.62 L1519.69 834.161 L1534.68 830.924 L1537.92 828.767 L1539.8 826.019 L1538.45 821.906 L1535.47 818.951 L1532.4 817.213 L1529.01 816.101 L1524.52 815.63 L1466.59 814.891 L1463.24 817.118 L1458.04 821.674 L1447.76 827.518 L1440.98 833.58 L1438.43 836.708 L1435.26 838.946 L1428.13 842.707 L1422.06 848.487 L1414.68 851.073 L1410.65 849.501 L1406.66 849.515 L1403.78 850.94 L1400.75 851.59 L1385.89 852.298 L1383.67 853.772 L1381.55 857.92 L1379.14 865.988 L1376.85 868.654 L1369.4 869.671 L1362.3 871.881 L1347.85 879.568 L1344.12 880.684 L1344.93 875.054 L1344.2 869.58 L1340.13 869.383 L1335.49 870.294 L1331.62 871.828 L1324.46 875.92 L1320.82 876.954 L1317.42 874.861 L1318.11 872.183 L1342.02 862.311 L1344.7 861.558 L1348.95 862.3 L1353.1 861.966 L1356.35 859.201 L1352.42 846.141 L1353.93 837.253 L1359.48 830.385 L1370.55 819.985 L1375.89 816.565 L1430.52 794.836 L1436.11 793.724 L1471.61 789.362 L1477.02 787.849 L1493.49 781.407 L1510.78 778.778 L1529.1 780.752 Z" fill="#ffefdb" fill-opacity="1.000000" stroke-width="3.111111" stroke="#999187ff"/>
  <path d="M1818.43 868.018 L1815.58 870.224 L1812.45 867.036 L1810.47 866.688 L1807.72 865.425 L1802.39 861.878 L1801.1 858.208 L1805.53 857.931 L1811.11 858.578 L1820.88 860.664 L1820.02 864.809 L1818.43 868.018 Z" fill="#ffefdb" fill-opacity="1.000000" stroke-width="3.111111" stroke="#999187ff"/>
  <path d="M1793.57 844.008 L1792.15 845.208 L1788.4 842.524 L1782.96 841.356 L1779.76 837.176 L1776.71 835.571 L1776.47 834.034 L1781.5 833.021 L1785 833.464 L1788.92 836.655 L1791.17 842.513 L1793.57 844.008 Z" fill="#ffefdb" fill-opacity="1.000000" stroke-width="3.111111" stroke="#999187ff"/>
  <path d="M1751.72 824.763 L1761.24 826.29 L1764.54 825.375 L1767.72 825.108 L1771.07 825.745 L1775.75 831.737 L1771.64 832.482 L1768.39 832.482 L1765.98 831.402 L1757.44 831.121 L1751.79 829.379 L1748.7 827.891 L1747.18 826.079 L1751.72 824.763 Z" fill="#ffefdb" fill-opacity="1.000000" stroke-width="3.111111" stroke="#999187ff"/>
  <path d="M1803.82 855.366 L1801.53 855.57 L1794.62 852.565 L1792.56 850.053 L1794.99 846.686 L1795.51 843.03 L1796.45 842.788 L1797.56 847.214 L1802.83 849.096 L1803.15 850.067 L1806.38 853.821 L1803.82 855.366 Z" fill="#ffefdb" fill-opacity="1.000000" stroke-width="3.111111" stroke="#999187ff"/>
  <path d="M1478.83 895.418 L1472.37 899.239 L1458.6 904.626 L1451.21 904.812 L1443.74 902.789 L1438.59 898.286 L1435.65 893.849 L1435.9 891.717 L1440.57 895.274 L1444.6 897.023 L1447.91 895.858 L1450.24 893.934 L1442.68 879.586 L1443.02 876.553 L1449.02 868.683 L1465.36 871.075 L1468.22 872.461 L1470.49 877.443 L1474.13 881.352 L1478.41 891.805 L1478.83 895.418 Z" fill="#ffefdb" fill-opacity="1.000000" stroke-width="3.111111" stroke="#999187ff"/>
  <path d="M1701.78 816.717 L1701.9 818.606 L1689.76 813.314 L1684.55 807.801 L1682.44 806.535 L1685.85 806.426 L1699.52 815.461 L1701.78 816.717 Z" fill="#ffefdb" fill-opacity="1.000000" stroke-width="3.111111" stroke="#999187ff"/>
  <path d="M1020.75 1166.12 L1020.69 1159.84 L1022.69 1154.88 L1028.46 1152.8 L1035.94 1157.13 L1039.06 1158.93 L1041.86 1157.91 L1045.4 1155.26 L1049.76 1147.62 L1060.68 1131.84 L1065.07 1120.65 L1069.35 1118.42 L1075.52 1118.02 L1080.85 1118.74 L1077.13 1126.92 L1080.85 1127.98 L1084.21 1127.22 L1092.33 1127.51 L1095.45 1136.48 L1094.62 1144.01 L1086.97 1163.87 L1086 1170.69 L1082.51 1180.89 L1087.25 1187.61 L1082.83 1196.55 L1081.32 1202.3 L1080.97 1210.99 L1083.2 1227.5 L1079.62 1251.29 L1073.29 1261.68 L1069.36 1265.63 L1062.34 1275.96 L1053.12 1279.04 L1040.35 1295.69 L1038.09 1296.89 L1039.32 1296.89 L1036.32 1296.89 L1024.08 1296.89 L1015.8 1296.89 L1015.48 1296.89 L1016.16 1286.6 L1017.22 1258.9 L1017.99 1238.6 L1018.75 1218.73 L1019.32 1203.85 L1020.09 1183.6 L1020.75 1166.12 Z" fill="#ffefdb" fill-opacity="1.000000" stroke-width="3.111111" stroke="#999187ff"/>
  <path d="M1104.8 1158.19 L1101.5 1159.53 L1104.21 1155.37 L1104.61 1152.7 L1108.43 1141.61 L1111.16 1141.68 L1111.88 1142.66 L1104.8 1158.19 Z" fill="#ffefdb" fill-opacity="1.000000" stroke-width="3.111111" stroke="#999187ff"/>
  <path d="M1111.58 1194.36 L1106.23 1204.44 L1105.89 1201.56 L1108.11 1194.1 L1111.13 1191.49 L1113 1188.73 L1113.42 1185.47 L1116.04 1187.06 L1115.38 1190.28 L1111.58 1194.36 Z" fill="#ffefdb" fill-opacity="1.000000" stroke-width="3.111111" stroke="#999187ff"/>
  <path d="M1819.21 702.469 L1819.32 704.119 L1812.44 708.665 L1817.44 711.909 L1822.15 704.855 L1825.89 710.586 L1827.93 721.335 L1827.6 723.206 L1827.94 724.811 L1828.67 726.869 L1828.85 729.852 L1825.04 739.239 L1811.33 738.275 L1811.01 730.363 L1808.9 728.836 L1805.71 717.535 L1801.42 713.893 L1795.46 704.605 L1798.92 702.209 L1803.53 703.008 L1805.89 701.889 L1812.29 700.995 L1816.17 699.725 L1819.21 702.469 Z" fill="#ffefdb" fill-opacity="1.000000" stroke-width="3.111111" stroke="#999187ff"/>
  <path d="M1849.2 583.236 L1847.75 583.866 L1841.73 576.65 L1836.88 574.553 L1844.46 569.451 L1847.73 565.068 L1847.66 555.505 L1849.51 550.266 L1848.89 545.731 L1850.56 541.101 L1848.3 535.901 L1841.96 531.777 L1829.42 515.375 L1809.61 511.392 L1799.36 511.226 L1804.99 508.595 L1810.2 508.915 L1818.21 510.481 L1827.8 511.237 L1833.67 516.064 L1839.27 522.464 L1844.32 525.054 L1846.4 526.7 L1846.17 528.558 L1847.01 530.303 L1853.61 533.297 L1860.25 538.131 L1862.2 552.307 L1853.25 559.016 L1851.6 579.542 L1849.2 583.236 Z" fill="#ffefdb" fill-opacity="1.000000" stroke-width="3.111111" stroke="#999187ff"/>
  <path d="M1864.86 922.749 L1864.86 928.033 L1864.86 938.113 L1864.86 940.654 L1864.86 941.122 L1864.86 938.37 L1864.86 935.953 L1864.86 932.174 L1864.86 930.686 L1864.86 929.166 L1864.86 927.537 L1864.86 922.861 L1864.86 922.073 L1864.86 925.359 L1864.86 925.479 L1864.86 921.855 L1864.86 914.03 L1864.86 915.03 L1864.86 922.749 Z" fill="#ffefdb" fill-opacity="1.000000" stroke-width="3.111111" stroke="#999187ff"/>
  <path d="M1813.23 669.471 L1813.08 678.196 L1813.84 684.723 L1813.14 687.048 L1805.63 691.411 L1803.7 693.849 L1796.62 696.309 L1792.33 699.732 L1790.19 694.169 L1786.03 690.732 L1785.33 684.888 L1782.15 686.862 L1777.57 685.659 L1770.01 681.233 L1765.24 675.223 L1771.93 674.182 L1773.31 677.915 L1778.6 673.334 L1777.4 670.92 L1776.45 670.611 L1774.71 666.121 L1782.67 654.363 L1784.39 646.777 L1780.78 634.608 L1784.15 633.809 L1793.14 638.077 L1797.17 642.278 L1797.3 648.044 L1801.08 652.509 L1806.55 663.205 L1813.23 669.471 Z" fill="#ffefdb" fill-opacity="1.000000" stroke-width="3.111111" stroke="#999187ff"/>
  <path d="M1761.24 523.801 L1769.65 526.042 L1774.15 525.736 L1776.86 524.262 L1789.3 524.864 L1799.34 522.707 L1800.83 526.535 L1800.58 528.533 L1779.22 530.408 L1759.62 536.027 L1748.88 539.834 L1743.84 540.256 L1739.98 538.254 L1727.04 526.651 L1730.5 527.808 L1740.06 534.367 L1746 533.17 L1751.5 528.836 L1752.34 525.56 L1751.52 524.009 L1754.01 518.837 L1761.24 523.801 Z" fill="#ffefdb" fill-opacity="1.000000" stroke-width="3.111111" stroke="#999187ff"/>
  <path d="M1840.74 647.39 L1832.9 648.885 L1827.29 647.411 L1825.86 646.225 L1828.26 644.234 L1833.54 642.573 L1842.02 642.408 L1845.73 644.371 L1846.18 645.229 L1840.74 647.39 Z" fill="#ffefdb" fill-opacity="1.000000" stroke-width="3.111111" stroke="#999187ff"/>
  <path d="M1864.86 812.424 L1864.86 813.716 L1864.86 816.608 L1864.86 813.03 L1864.86 813.276 L1864.86 809.472 L1864.86 806.654 L1864.86 804.058 L1864.86 806.077 L1864.86 809.8 L1864.86 812.424 Z" fill="#ffefdb" fill-opacity="1.000000" stroke-width="3.111111" stroke="#999187ff"/>
  <path d="M1864.86 715.54 L1864.86 723.347 L1864.86 722.682 L1864.86 712.873 L1864.86 711.318 L1864.86 711.402 L1864.86 715.54 Z" fill="#ffefdb" fill-opacity="1.000000" stroke-width="3.111111" stroke="#999187ff"/>
  <path d="M1864.86 849.152 L1864.86 851.32 L1864.86 847.583 L1864.86 841.254 L1864.86 835.688 L1864.86 833.717 L1864.86 832.187 L1864.86 830.132 L1864.86 826.55 L1864.86 823.627 L1864.86 818.796 L1864.86 815.394 L1864.86 812.998 L1864.86 811.879 L1864.86 815.503 L1864.86 825.759 L1864.86 838.53 L1864.86 842.489 L1864.86 849.152 Z" fill="#ffefdb" fill-opacity="1.000000" stroke-width="3.111111" stroke="#999187ff"/>
  <path d="M1864.86 613.269 L1864.86 621.396 L1864.86 624.464 L1864.86 634.639 L1864.86 638.263 L1864.86 641.563 L1864.86 656.629 L1864.86 665.699 L1864.86 673.651 L1864.86 671.297 L1864.86 666.09 L1864.86 663.096 L1864.86 661.526 L1864.86 661.182 L1864.86 652.984 L1864.86 646.517 L1864.86 639.79 L1864.86 632.384 L1864.86 625.864 L1864.86 623.778 L1864.86 617.287 L1864.86 616.488 L1864.86 617.632 L1864.86 613.761 L1864.86 608.642 L1864.86 607.685 L1864.86 613.269 Z" fill="#ffefdb" fill-opacity="1.000000" stroke-width="3.111111" stroke="#999187ff"/>
  <path d="M1864.86 760.064 L1864.86 760.49 L1864.86 758.587 L1864.86 749.823 L1864.86 749.066 L1864.86 744.123 L1864.86 745.85 L1864.86 753.408 L1864.86 757.193 L1864.86 760.064 Z" fill="#ffefdb" fill-opacity="1.000000" stroke-width="3.111111" stroke="#999187ff"/>
  <path d="M1864.86 800.114 L1864.86 801.961 L1864.86 787.56 L1864.86 784.063 L1864.86 780.587 L1864.86 778.613 L1864.86 777.755 L1864.86 773.195 L1864.86 768.262 L1864.86 758.302 L1864.86 751.554 L1864.86 749.998 L1864.86 744.341 L1864.86 753.102 L1864.86 760.891 L1864.86 768.519 L1864.86 781.678 L1864.86 786.149 L1864.86 792.507 L1864.86 800.114 Z" fill="#ffefdb" fill-opacity="1.000000" stroke-width="3.111111" stroke="#999187ff"/>
  <path d="M1864.86 706.033 L1864.86 709.696 L1864.86 708.954 L1864.86 710.386 L1864.86 710.424 L1864.86 707.916 L1864.86 704.524 L1864.86 701.294 L1864.86 696.636 L1864.86 685.046 L1864.86 682.299 L1864.86 677.943 L1864.86 673.271 L1864.86 670.773 L1864.86 670.185 L1864.86 671.385 L1864.86 688.055 L1864.86 689.652 L1864.86 706.033 Z" fill="#ffefdb" fill-opacity="1.000000" stroke-width="3.111111" stroke="#999187ff"/>
  <path d="M1864.86 833.64 L1864.86 834.681 L1864.86 834.607 L1864.86 836.771 L1864.86 839.741 L1864.86 840.965 L1864.86 843.614 L1864.86 838.597 L1864.86 837.95 L1864.86 838.07 L1864.86 837.123 L1864.86 831.747 L1864.86 833.64 Z" fill="#ffefdb" fill-opacity="1.000000" stroke-width="3.111111" stroke="#999187ff"/>
  <path d="M1864.86 900.101 L1864.86 903.637 L1864.86 899.479 L1864.86 896.143 L1864.86 900.101 Z" fill="#ffefdb" fill-opacity="1.000000" stroke-width="3.111111" stroke="#999187ff"/>
  <text x="763.726449" y="681.616667" fill="#00000099" font-size="62.222222" font-family="Arial,Helvetica,'Helvetica Neue',sans-serif" font-weight="500.000000">Gulf of Mexico</text>
</svg>