<?xml version="1.0" encoding="UTF-8" ?>
<!-- Generated by clip v0.6.0 (clip-lang.org) -->
<svg xmlns="http://www.w3.org/2000/svg" width="2048.000000" height="1536.000000">
  <rect width="2048.000000" height="1536.000000" fill="#ffffff" fill-opacity="1.000000"/>
  <path d="M268.474 144 L1864.86 144 " fill="none" stroke-width="4.444444" stroke="#000000ff"/>
  <path d="M268.474 161.778 L268.474 144 " fill="none" stroke-width="4.444444" stroke="#000000ff"/>
  <path d="M615.514 161.778 L615.514 144 " fill="none" stroke-width="4.444444" stroke="#000000ff"/>
  <path d="M962.555 161.778 L962.555 144 " fill="none" stroke-width="4.444444" stroke="#000000ff"/>
  <path d="M1309.59 161.778 L1309.59 144 " fill="none" stroke-width="4.444444" stroke="#000000ff"/>
  <path d="M1656.64 161.778 L1656.64 144 " fill="none" stroke-width="4.444444" stroke="#000000ff"/>
  <text x="199.169271" y="93.888889" fill="#000000ff" font-size="48.888889" font-family="Arial,Helvetica,'Helvetica Neue',sans-serif" font-weight="500.000000">-100.0</text>
  <text x="559.803329" y="93.888889" fill="#000000ff" font-size="48.888889" font-family="Arial,Helvetica,'Helvetica Neue',sans-serif" font-weight="500.000000">-95.0</text>
  <text x="906.843637" y="93.888889" fill="#000000ff" font-size="48.888889" font-family="Arial,Helvetica,'Helvetica Neue',sans-serif" font-weight="500.000000">-90.0</text>
  <text x="1253.883945" y="93.888889" fill="#000000ff" font-size="48.888889" font-family="Arial,Helvetica,'Helvetica Neue',sans-serif" font-weight="500.000000">-85.0</text>
  <text x="1600.924253" y="93.888889" fill="#000000ff" font-size="48.888889" font-family="Arial,Helvetica,'Helvetica Neue',sans-serif" font-weight="500.000000">-80.0</text>
  <path d="M1864.86 1296.89 L1864.86 144 " fill="none" stroke-width="4.444444" stroke="#000000ff"/>
  <path d="M1847.08 1296.89 L1864.86 1296.89 " fill="none" stroke-width="4.444444" stroke="#000000ff"/>
  <path d="M1847.08 1224.83 L1864.86 1224.83 " fill="none" stroke-width="4.444444" stroke="#000000ff"/>
  <path d="M1847.08 1152.78 L1864.86 1152.78 " fill="none" stroke-width="4.444444" stroke="#000000ff"/>
  <path d="M1847.08 1080.72 L1864.86 1080.72 " fill="none" stroke-width="4.444444" stroke="#000000ff"/>
  <path d="M1847.08 1008.67 L1864.86 1008.67 " fill="none" stroke-width="4.444444" stroke="#000000ff"/>
  <path d="M1847.08 936.611 L1864.86 936.611 " fill="none" stroke-width="4.444444" stroke="#000000ff"/>
  <path d="M1847.08 864.556 L1864.86 864.556 " fill="none" stroke-width="4.444444" stroke="#000000ff"/>
  <path d="M1847.08 792.5 L1864.86 792.5 " fill="none" stroke-width="4.444444" stroke="#000000ff"/>
  <path d="M1847.08 720.444 L1864.86 720.444 " fill="none" stroke-width="4.444444" stroke="#000000ff"/>
  <path d="M1847.08 648.389 L1864.86 648.389 " fill="none" stroke-width="4.444444" stroke="#000000ff"/>
  <path d="M1847.08 576.333 L1864.86 576.333 " fill="none" stroke-width="4.444444" stroke="#000000ff"/>
  <path d="M1847.08 504.278 L1864.86 504.278 " fill="none" stroke-width="4.444444" stroke="#000000ff"/>
  <path d="M1847.08 432.222 L1864.86 432.222 " fill="none" stroke-width="4.444444" stroke="#000000ff"/>
  <path d="M1847.08 360.167 L1864.86 360.167 " fill="none" stroke-width="4.444444" stroke="#000000ff"/>
  <path d="M1847.08 288.111 L1864.86 288.111 " fill="none" stroke-width="4.444444" stroke="#000000ff"/>
  <path d="M1847.08 216.056 L1864.86 216.056 " fill="none" stroke-width="4.444444" stroke="#000000ff"/>
  <path d="M1847.08 144 L1864.86 144 " fill="none" stroke-width="4.444444" stroke="#000000ff"/>
  <text x="1903.970486" y="1313.888889" fill="#000000ff" font-size="48.888889" font-family="Arial,Helvetica,'Helvetica Neue',sans-serif" font-weight="500.000000">16.0</text>
  <text x="1903.970486" y="1241.833333" fill="#000000ff" font-size="48.888889" font-family="Arial,Helvetica,'Helvetica Neue',sans-serif" font-weight="500.000000">17.0</text>
  <text x="1903.970486" y="1169.777778" fill="#000000ff" font-size="48.888889" font-family="Arial,Helvetica,'Helvetica Neue',sans-serif" font-weight="500.000000">18.0</text>
  <text x="1903.970486" y="1097.722222" fill="#000000ff" font-size="48.888889" font-family="Arial,Helvetica,'Helvetica Neue',sans-serif" font-weight="500.000000">19.0</text>
  <text x="1903.970486" y="1025.666667" fill="#000000ff" font-size="48.888889" font-family="Arial,Helvetica,'Helvetica Neue',sans-serif" font-weight="500.000000">20.0</text>
  <text x="1903.970486" y="953.611111" fill="#000000ff" font-size="48.888889" font-family="Arial,Helvetica,'Helvetica Neue',sans-serif" font-weight="500.000000">21.0</text>
  <text x="1903.970486" y="881.555556" fill="#000000ff" font-size="48.888889" font-family="Arial,Helvetica,'Helvetica Neue',sans-serif" font-weight="500.000000">22.0</text>
  <text x="1903.970486" y="809.500000" fill="#000000ff" font-size="48.888889" font-family="Arial,Helvetica,'Helvetica Neue',sans-serif" font-weight="500.000000">23.0</text>
  <text x="1903.970486" y="737.444444" fill="#000000ff" font-size="48.888889" font-family="Arial,Helvetica,'Helvetica Neue',sans-serif" font-weight="500.000000">24.0</text>
  <text x="1903.970486" y="665.388889" fill="#000000ff" font-size="48.888889" font-family="Arial,Helvetica,'Helvetica Neue',sans-serif" font-weight="500.000000">25.0</text>
  <text x="1903.970486" y="593.333333" fill="#000000ff" font-size="48.888889" font-family="Arial,Helvetica,'Helvetica Neue',sans-serif" font-weight="500.000000">26.0</text>
  <text x="1903.970486" y="521.277778" fill="#000000ff" font-size="48.888889" font-family="Arial,Helvetica,'Helvetica Neue',sans-serif" font-weight="500.000000">27.0</text>
  <text x="1903.970486" y="449.222222" fill="#000000ff" font-size="48.888889" font-family="Arial,Helvetica,'Helvetica Neue',sans-serif" font-weight="500.000000">28.0</text>
  <text x="1903.970486" y="377.166667" fill="#000000ff" font-size="48.888889" font-family="Arial,Helvetica,'Helvetica Neue',sans-serif" font-weight="500.000000">29.0</text>
  <text x="1903.970486" y="305.111111" fill="#000000ff" font-size="48.888889" font-family="Arial,Helvetica,'Helvetica Neue',sans-serif" font-weight="500.000000">30.0</text>
  <text x="1903.970486" y="233.055556" fill="#000000ff" font-size="48.888889" font-family="Arial,Helvetica,'Helvetica Neue',sans-serif" font-weight="500.000000">31.0</text>
  <text x="1903.970486" y="161.000000" fill="#000000ff" font-size="48.888889" font-family="Arial,Helvetica,'Helvetica Neue',sans-serif" font-weight="500.000000">32.0</text>
  <path d="M268.474 1296.89 L1864.86 1296.89 " fill="none" stroke-width="4.444444" stroke="#000000ff"/>
  <path d="M268.474 1296.89 L268.474 1279.11 " fill="none" stroke-width="4.444444" stroke="#000000ff"/>
  <path d="M615.514 1296.89 L615.514 1279.11 " fill="none" stroke-width="4.444444" stroke="#000000ff"/>
  <path d="M962.555 1296.89 L962.555 1279.11 " fill="none" stroke-width="4.444444" stroke="#000000ff"/>
  <path d="M1309.59 1296.89 L1309.59 1279.11 " fill="none" stroke-width="4.444444" stroke="#000000ff"/>
  <path d="M1656.64 1296.89 L1656.64 1279.11 " fill="none" stroke-width="4.444444" stroke="#000000ff"/>
  <text x="199.169271" y="1381.000000" fill="#000000ff" font-size="48.888889" font-family="Arial,Helvetica,'Helvetica Neue',sans-serif" font-weight="500.000000">-100.0</text>
  <text x="559.803329" y="1381.000000" fill="#000000ff" font-size="48.888889" font-family="Arial,Helvetica,'Helvetica Neue',sans-serif" font-weight="500.000000">-95.0</text>
  <text x="906.843637" y="1381.000000" fill="#000000ff" font-size="48.888889" font-family="Arial,Helvetica,'Helvetica Neue',sans-serif" font-weight="500.000000">-90.0</text>
  <text x="1253.883945" y="1381.000000" fill="#000000ff" font-size="48.888889" font-family="Arial,Helvetica,'Helvetica Neue',sans-serif" font-weight="500.000000">-85.0</text>
  <text x="1600.924253" y="1381.000000" fill="#000000ff" font-size="48.888889" font-family="Arial,Helvetica,'Helvetica Neue',sans-serif" font-weight="500.000000">-80.0</text>
  <text x="959.291667" y="1476.111111" fill="#000000ff" font-size="48.888889" font-family="Arial,Helvetica,'Helvetica Neue',sans-serif" font-weight="500.000000">Longitude</text>
  <path d="M268.474 1296.89 L268.474 144 " fill="none" stroke-width="4.444444" stroke="#000000ff"/>
  <path d="M268.474 1296.89 L286.252 1296.89 " fill="none" stroke-width="4.444444" stroke="#000000ff"/>
  <path d="M268.474 1224.83 L286.252 1224.83 " fill="none" stroke-width="4.444444" stroke="#000000ff"/>
  <path d="M268.474 1152.78 L286.252 1152.78 " fill="none" stroke-width="4.444444" stroke="#000000ff"/>
  <path d="M268.474 1080.72 L286.252 1080.72 " fill="none" stroke-width="4.444444" stroke="#000000ff"/>
  <path d="M268.474 1008.67 L286.252 1008.67 " fill="none" stroke-width="4.444444" stroke="#000000ff"/>
  <path d="M268.474 936.611 L286.252 936.611 " fill="none" stroke-width="4.444444" stroke="#000000ff"/>
  <path d="M268.474 864.556 L286.252 864.556 " fill="none" stroke-width="4.444444" stroke="#000000ff"/>
  <path d="M268.474 792.5 L286.252 792.5 " fill="none" stroke-width="4.444444" stroke="#000000ff"/>
  <path d="M268.474 720.444 L286.252 720.444 " fill="none" stroke-width="4.444444" stroke="#000000ff"/>
  <path d="M268.474 648.389 L286.252 648.389 " fill="none" stroke-width="4.444444" stroke="#000000ff"/>
  <path d="M268.474 576.333 L286.252 576.333 " fill="none" stroke-width="4.444444" stroke="#000000ff"/>
  <path d="M268.474 504.278 L286.252 504.278 " fill="none" stroke-width="4.444444" stroke="#000000ff"/>
  <path d="M268.474 432.222 L286.252 432.222 " fill="none" stroke-width="4.444444" stroke="#000000ff"/>
  <path d="M268.474 360.167 L286.252 360.167 " fill="none" stroke-width="4.444444" stroke="#000000ff"/>
  <path d="M268.474 288.111 L286.252 288.111 " fill="none" stroke-width="4.444444" stroke="#000000ff"/>
  <path d="M268.474 216.056 L286.252 216.056 " fill="none" stroke-width="4.444444" stroke="#000000ff"/>
  <path d="M268.474 144 L286.252 144 " fill="none" stroke-width="4.444444" stroke="#000000ff"/>
  <text x="134.222222" y="1313.888889" fill="#000000ff" font-size="48.888889" font-family="Arial,Helvetica,'Helvetica Neue',sans-serif" font-weight="500.000000">16.0</text>
  <text x="134.222222" y="1241.833333" fill="#000000ff" font-size="48.888889" font-family="Arial,Helvetica,'Helvetica Neue',sans-serif" font-weight="500.000000">17.0</text>
  <text x="134.222222" y="1169.777778" fill="#000000ff" font-size="48.888889" font-family="Arial,Helvetica,'Helvetica Neue',sans-serif" font-weight="500.000000">18.0</text>
  <text x="134.222222" y="1097.722222" fill="#000000ff" font-size="48.888889" font-family="Arial,Helvetica,'Helvetica Neue',sans-serif" font-weight="500.000000">19.0</text>
  <text x="134.222222" y="1025.666667" fill="#000000ff" font-size="48.888889" font-family="Arial,Helvetica,'Helvetica Neue',sans-serif" font-weight="500.000000">20.0</text>
  <text x="134.222222" y="953.611111" fill="#000000ff" font-size="48.888889" font-family="Arial,Helvetica,'Helvetica Neue',sans-serif" font-weight="500.000000">21.0</text>
  <text x="134.222222" y="881.555556" fill="#000000ff" font-size="48.888889" font-family="Arial,Helvetica,'Helvetica Neue',sans-serif" font-weight="500.000000">22.0</text>
  <text x="134.222222" y="809.500000" fill="#000000ff" font-size="48.888889" font-family="Arial,Helvetica,'Helvetica Neue',sans-serif" font-weight="500.000000">23.0</text>
  <text x="134.222222" y="737.444444" fill="#000000ff" font-size="48.888889" font-family="Arial,Helvetica,'Helvetica Neue',sans-serif" font-weight="500.000000">24.0</text>
  <text x="134.222222" y="665.388889" fill="#000000ff" font-size="48.888889" font-family="Arial,Helvetica,'Helvetica Neue',sans-serif" font-weight="500.000000">25.0</text>
  <text x="134.222222" y="593.333333" fill="#000000ff" font-size="48.888889" font-family="Arial,Helvetica,'Helvetica Neue',sans-serif" font-weight="500.000000">26.0</text>
  <text x="134.222222" y="521.277778" fill="#000000ff" font-size="48.888889" font-family="Arial,Helvetica,'Helvetica Neue',sans-serif" font-weight="500.000000">27.0</text>
  <text x="134.222222" y="449.222222" fill="#000000ff" font-size="48.888889" font-family="Arial,Helvetica,'Helvetica Neue',sans-serif" font-weight="500.000000">28.0</text>
  <text x="134.222222" y="377.166667" fill="#000000ff" font-size="48.888889" font-family="Arial,Helvetica,'Helvetica Neue',sans-serif" font-weight="500.000000">29.0</text>
  <text x="134.222222" y="305.111111" fill="#000000ff" font-size="48.888889" font-family="Arial,Helvetica,'Helvetica Neue',sans-serif" font-weight="500.000000">30.0</text>
  <text x="134.222222" y="233.055556" fill="#000000ff" font-size="48.888889" font-family="Arial,Helvetica,'Helvetica Neue',sans-serif" font-weight="500.000000">31.0</text>
  <text x="134.222222" y="161.000000" fill="#000000ff" font-size="48.888889" font-family="Arial,Helvetica,'Helvetica Neue',sans-serif" font-weight="500.000000">32.0</text>
  <text x="-16.876736" y="737.444444" fill="#000000ff" font-size="48.888889" font-family="Arial,Helvetica,'Helvetica Neue',sans-serif" font-weight="500.000000" transform="matrix(6.12323e-17 -1 1 6.12323e-17 -643.556 797.333)">Lattitude</text>
  <path d="M268.474 1296.89 L268.474 144 L1864.86 144 L1864.86 1296.89 Z" fill="#eff7fe" fill-opacity="1.000000" stroke-width="1.000000" stroke="#000000ff"/>
  <path d="M268.474 1296.89 L268.474 144 " fill="none" stroke-width="4.444444" stroke="#00000019" stroke-dasharray="8.88889 8.88889 " stroke-dashoffset="0.000000"/>
  <path d="M615.514 1296.89 L615.514 144 " fill="none" stroke-width="4.444444" stroke="#00000019" stroke-dasharray="8.88889 8.88889 " stroke-dashoffset="0.000000"/>
  <path d="M962.555 1296.89 L962.555 144 " fill="none" stroke-width="4.444444" stroke="#00000019" stroke-dasharray="8.88889 8.88889 " stroke-dashoffset="0.000000"/>
  <path d="M1309.59 1296.89 L1309.59 144 " fill="none" stroke-width="4.444444" stroke="#00000019" stroke-dasharray="8.88889 8.88889 " stroke-dashoffset="0.000000"/>
  <path d="M1656.64 1296.89 L1656.64 144 " fill="none" stroke-width="4.444444" stroke="#00000019" stroke-dasharray="8.88889 8.88889 " stroke-dashoffset="0.000000"/>
  <path d="M268.474 144 L1864.86 144 " fill="none" stroke-width="4.444444" stroke="#00000019" stroke-dasharray="8.88889 8.88889 " stroke-dashoffset="0.000000"/>
  <path d="M268.474 504.278 L1864.86 504.278 " fill="none" stroke-width="4.444444" stroke="#00000019" stroke-dasharray="8.88889 8.88889 " stroke-dashoffset="0.000000"/>
  <path d="M268.474 864.556 L1864.86 864.556 " fill="none" stroke-width="4.444444" stroke="#00000019" stroke-dasharray="8.88889 8.88889 " stroke-dashoffset="0.000000"/>
  <path d="M268.474 1224.83 L1864.86 1224.83 " fill="none" stroke-width="4.444444" stroke="#00000019" stroke-dasharray="8.88889 8.88889 " stroke-dashoffset="0.000000"/>
  <path d="M1595.01 144 L1594.31 144.557 L1592.15 144 L1595.01 144 Z" fill="#ffefdb" fill-opacity="1.000000" stroke-width="3.111111" stroke="#999187ff"/>
  <path d="M1587.89 144 L1589.54 145.714 L1595.67 147.403 L1607.17 144.614 L1610.95 147.659 L1607.85 153.055 L1604.77 156.841 L1600.74 157.263 L1597.18 158.287 L1596.14 160.891 L1593.61 161.054 L1589.65 161.209 L1583.52 161.445 L1580.15 160.837 L1575.44 166.157 L1573.67 166.889 L1571.19 165.89 L1570.15 161.617 L1569.04 159.517 L1569.01 167.511 L1569.45 169.664 L1570.33 171.288 L1564.83 175.626 L1559.56 181.035 L1557.68 182.508 L1555.53 185.218 L1551.14 193.046 L1550.05 198.754 L1548.46 205.118 L1548.26 202.252 L1548.53 197.428 L1547.45 191.903 L1546.76 202.024 L1545.05 206.728 L1529.38 206.396 L1522.53 208.951 L1512 217.55 L1508.85 221.319 L1500.16 235.891 L1497.94 245.216 L1496.16 241.295 L1496.6 238.353 L1496.63 235.95 L1494.44 241.106 L1496.52 248.616 L1494.66 251.484 L1488.91 256.837 L1485.77 257.715 L1482.24 259.238 L1481.13 264.519 L1476.34 269.388 L1473.55 271.544 L1468.43 270.238 L1470.01 274.927 L1468.13 278.476 L1464.89 281.198 L1460.87 282.974 L1458.57 282.758 L1456.6 283.701 L1455.05 285.958 L1451.28 288.069 L1447.37 286.881 L1442.93 286.169 L1440.45 287.436 L1444.61 289.53 L1446.84 292.564 L1446.38 296.654 L1445.26 298.233 L1442.64 300.372 L1441.49 300.054 L1440.79 298.126 L1439.93 294.109 L1438.71 294.965 L1438.5 296.837 L1437.45 297.504 L1433.73 291.106 L1433.92 295.987 L1435.22 299.736 L1436.48 301.638 L1437.74 302.759 L1438.06 304.498 L1435.51 308.737 L1434.2 309.68 L1431.87 310.367 L1430.56 312.979 L1430.95 315.228 L1428.91 320.108 L1424.04 323.157 L1422.55 323.038 L1421.33 323.931 L1422.04 326.104 L1423.26 327.685 L1423.21 329.155 L1421.93 331.15 L1419.38 331.708 L1417.96 333.985 L1418.41 336.132 L1419.25 337.331 L1419.07 339.397 L1416.18 341.472 L1415.5 343.512 L1416.94 344.115 L1418.04 343.512 L1418.85 343.951 L1417.12 347.363 L1415.56 349.443 L1414.08 353.181 L1410.65 354.214 L1410.78 355.421 L1412.72 356.491 L1414.34 359.364 L1411.29 364.67 L1409.39 364.234 L1408.22 363.066 L1407.48 367.254 L1407.77 369.489 L1407.04 374.057 L1405.88 379.548 L1405.08 381.803 L1405.25 386.003 L1405.74 390.058 L1407.61 395.285 L1410.46 416.66 L1412.4 424.082 L1415.9 444.109 L1421.68 463.524 L1429.84 486.993 L1443.24 515.438 L1444.85 519.491 L1443.1 522.928 L1442.57 526.488 L1442.42 531.856 L1442.9 537.086 L1444.49 543.472 L1447.53 553.236 L1445.83 551.288 L1441.42 537.274 L1440.91 529.044 L1441.54 517.369 L1440.51 517.65 L1439.67 521.444 L1439.2 525.9 L1438.09 527.625 L1436.56 520.828 L1436.67 517.754 L1438.29 514.163 L1437.82 512.871 L1435.2 511.033 L1434.64 508.142 L1434.99 505.288 L1433.49 503.763 L1432.31 503.836 L1433.1 510.873 L1434.35 515.193 L1435.89 525.548 L1438.37 531.822 L1439.82 537.083 L1456.74 593.221 L1460.74 600.371 L1462.22 605.505 L1463.77 616.24 L1464.11 630.023 L1461.35 655.214 L1460.72 672.398 L1460.32 671.872 L1460.06 670.062 L1459.42 669.814 L1457.02 677.687 L1453.76 684.788 L1452.68 695.825 L1451.12 701.35 L1446.42 707.196 L1443.51 707.047 L1436.37 711.432 L1431.35 710.289 L1425.38 712.763 L1421.44 712.487 L1419.17 707.272 L1419.52 704.938 L1420.42 702.594 L1421.96 702.048 L1427.24 707.514 L1428.23 705.214 L1426.64 702.478 L1423.59 700.953 L1421.33 699.275 L1416.79 686.815 L1412.08 678.258 L1411.29 672.539 L1403.17 669.051 L1397.3 663.771 L1393.47 654.379 L1391.27 637.724 L1388.68 635.852 L1387.58 634.558 L1390.11 628.377 L1392.78 623.195 L1390.67 624.484 L1389.11 626.401 L1387.13 630.977 L1385.69 631.681 L1384.36 630.977 L1382.84 622.198 L1383.27 611.407 L1385.41 607.371 L1382.12 607.264 L1378.72 608.801 L1379.21 612.398 L1378.73 614.374 L1376.25 613.867 L1374.37 612.603 L1371.81 608.86 L1368.33 601.716 L1361.18 582.036 L1359.79 579.261 L1357.42 576.356 L1358.54 575.452 L1360.57 574.918 L1365.16 566.057 L1368.76 560.703 L1369.96 556.999 L1369.75 555.415 L1368.16 553.112 L1366.06 555.125 L1365.17 554.551 L1362.81 549.906 L1360.56 548.595 L1359 549.6 L1360.65 553.405 L1362.13 554.818 L1361.56 560.352 L1360.96 562.153 L1359.57 563.743 L1357.4 562.896 L1356.3 564.264 L1355 562.823 L1353.71 560.391 L1352.28 556.389 L1356.07 533.86 L1359.58 519.505 L1359.98 503.129 L1360.24 500.703 L1359.94 496.352 L1355.24 486.894 L1334.44 463.817 L1318.32 436.489 L1304.36 426.238 L1293.77 428.49 L1291.93 430.55 L1291.14 433.244 L1291.81 436.292 L1290.85 437.562 L1288 437.401 L1284.17 438.111 L1274.18 445.305 L1270.65 445.04 L1267.44 446.904 L1265.05 448.3 L1258.79 449.06 L1253.49 450.655 L1251.19 449.791 L1249.7 445.62 L1249.7 441.302 L1250.91 444.612 L1252.79 447.202 L1253.65 446.166 L1253.97 443.875 L1252.1 439.386 L1246.09 433.618 L1239.24 425.194 L1241.33 425.473 L1241.86 423.668 L1239.74 421.301 L1240.63 418.565 L1242.13 415.692 L1239.24 416.122 L1236.65 418.135 L1236.56 420.62 L1236.05 422.596 L1234.66 422.309 L1232.07 419.863 L1219.32 413.054 L1208.17 409.215 L1216.72 407.487 L1221.36 408.829 L1220.81 406.769 L1219.69 405.46 L1216.03 403.802 L1211.37 404.433 L1208.43 403.653 L1205.42 405.297 L1202.12 407.74 L1199.18 408.998 L1187.69 410.758 L1178.37 412.666 L1179.86 410.651 L1181.46 409.356 L1186.96 407.386 L1187.79 403.29 L1186.49 399.347 L1185.04 400.293 L1183.52 403.375 L1181.65 401.154 L1179.59 401.165 L1179.03 406.068 L1176.38 409.356 L1175.18 412.666 L1167.41 415.258 L1166.41 414.394 L1168.69 411.25 L1168.5 409.502 L1165.91 411.002 L1161.56 416.961 L1146.25 418.912 L1147.08 417.558 L1150.32 417.288 L1154.86 415.402 L1153.94 412.227 L1152.19 408.737 L1150.57 408.348 L1149.51 406.302 L1149.56 399.854 L1148.53 396.085 L1146.03 392.206 L1145.19 392.952 L1143.36 399.583 L1141.83 408.281 L1141.08 411.09 L1136.54 411.287 L1132.52 410.693 L1118.86 411.737 L1113.76 408.79 L1111.65 408.224 L1110.36 408.292 L1104.42 410.994 L1097.65 413.063 L1096.06 412.413 L1093.78 412.317 L1088.88 419.359 L1083.09 422.655 L1068.49 416.73 L1064.86 411.965 L1061.64 410.946 L1057.68 410.358 L1053.42 416.221 L1050.18 424.133 L1055.29 428.47 L1059.67 430.545 L1066.9 428.805 L1070.9 424.966 L1074.16 425.093 L1075.72 424.313 L1077.14 422.309 L1079.94 423.891 L1080.03 425.475 L1078.05 427.707 L1075.56 429.588 L1074.04 431.803 L1076.89 436.267 L1081.37 437.767 L1083.05 437.12 L1084.09 432.101 L1086.84 428.87 L1090.58 429.568 L1090.05 431.595 L1090.58 433.509 L1092.29 436.776 L1092.1 441.457 L1092.43 442.586 L1088.4 444.652 L1085.4 445.353 L1082.99 448.058 L1084.25 449.628 L1081.81 451.007 L1080.15 450.456 L1079.32 450.965 L1079.07 452.626 L1077.81 454.168 L1079.65 458.815 L1083.42 461.849 L1086.08 465.652 L1096.77 470.659 L1099.36 470.516 L1101.91 475.557 L1103.97 477.291 L1105.95 478.172 L1105.72 481.639 L1102.21 484.178 L1101.25 487.207 L1100.37 488.91 L1098.78 486.754 L1097.15 485.191 L1093.38 489.943 L1091.57 490.942 L1092.47 485.819 L1091.04 483.812 L1088.89 478.676 L1085.75 475.498 L1083.54 474.445 L1081.82 472.435 L1079.74 471.622 L1077.96 471.83 L1074.95 470.659 L1074.75 467.926 L1073.92 465.88 L1071.57 463.465 L1060.32 458.902 L1060.25 460.791 L1061.03 462.213 L1062.64 463.158 L1064.58 464.999 L1064.56 470.451 L1063.72 472.759 L1063.37 476.047 L1062.62 479.388 L1061.25 482.022 L1058.17 483.818 L1056.82 482.315 L1054.63 475.121 L1051.53 472.855 L1046.61 472.587 L1043.27 474.214 L1039.63 481.183 L1036.69 482.323 L1026.65 478.712 L1015.18 473.209 L1015.47 471.377 L1017.28 470.789 L1020.74 471.54 L1020.56 469.652 L1017.02 463.504 L1016.37 460.729 L1016.83 457.343 L1015.67 457.419 L1013.55 460.262 L1006.24 457.853 L1004.22 454.973 L999.919 446.859 L993.855 446.594 L991.111 441.674 L986.156 443.734 L983.646 446.014 L981.44 449.547 L982.299 451.379 L984.497 454.289 L983.494 455.694 L976.437 457.768 L960.056 455.449 L955.267 453.282 L948.838 448.699 L939.926 444.964 L935.635 444.362 L931.434 445.102 L919.208 445.485 L916.37 446.479 L913.954 448.066 L912.387 446.31 L911.662 443.174 L913.081 442.665 L914.659 440.821 L916.084 437.176 L916.246 434.972 L915.25 433.534 L913.356 433.39 L909.172 442.887 L911.563 448.21 L911.399 450.129 L903.051 451.221 L884.102 461.937 L876.712 467.715 L877.09 465.77 L886.025 458.28 L882.87 457.135 L877.79 459.007 L875.968 458.286 L878.119 452.094 L877.417 446.633 L873.81 446.484 L871.513 450.844 L869.917 450.658 L867.826 448.789 L866.206 449.38 L867.405 459.26 L869.677 463.324 L871.577 468.506 L866.388 474.91 L861.569 480.193 L861.046 485.298 L856.204 491.95 L851.648 495.721 L840.943 504.587 L837.89 506.484 L833.059 510.6 L826.394 513.684 L820.004 518.582 L817.849 519.325 L821.93 515.179 L826.768 511.084 L822.618 511.644 L816.22 509.747 L812.305 509.637 L812.278 511.131 L809.3 513.243 L806.215 510.141 L804.871 508.055 L804.234 506.254 L802.924 505.817 L801.665 506.653 L806.27 519.339 L808.232 519.888 L810.403 521.149 L807.7 524.104 L804.791 526.348 L800.215 527.837 L796.337 523.206 L795.497 529.016 L795.006 534.817 L793.705 536.306 L791.625 538.428 L790.497 536.827 L789.961 534.583 L788.63 536.585 L786.681 538.088 L783.466 538.389 L781.054 539.191 L781.11 541.595 L781.662 544.01 L785.929 542.101 L784.382 548.313 L780.457 554.452 L777.259 555.902 L772.368 555.004 L771.16 555.62 L770.078 556.895 L775.776 566.499 L772.115 580.983 L769.774 586.233 L768.151 586.905 L766.391 587.057 L760.076 582.391 L756.63 578.782 L759.666 588.602 L767.939 591.471 L768.362 595.186 L768.315 598.361 L766.686 602.088 L765.162 607.039 L766.286 610.487 L767.592 619.012 L768.708 622.925 L769.936 634.794 L771.242 639.942 L778.762 658.888 L781.297 659.034 L781.704 661.086 L781.463 665.021 L776.053 666.166 L773.783 667.92 L773.341 669.443 L773.005 670.265 L772.308 670.189 L769.728 669.094 L763.862 663.712 L755.315 660.377 L744.085 659.085 L736.412 656.391 L732.299 652.287 L727.998 649.855 L723.512 649.09 L719.796 646.863 L716.849 643.176 L712.541 640.823 L706.87 639.801 L703.179 637.037 L700.613 630.279 L700.601 630.178 L698.303 618.88 L695.41 611.801 L689.778 603.042 L689.261 601.891 L689.259 601.888 L689.213 600.447 L689.91 595.349 L689.316 591.685 L687.533 588.698 L687.124 585.537 L688.09 582.21 L688.153 578.214 L687.313 573.547 L683.721 568.5 L677.378 563.079 L671.974 555.161 L667.514 544.753 L663.102 537.542 L658.739 533.525 L655.755 528.622 L654.15 522.832 L653.676 519.471 L654.331 518.543 L651.649 512.105 L645.632 500.166 L642.175 491.434 L641.284 485.915 L637.455 479.345 L630.689 471.726 L627.01 466.769 L626.119 463.333 L626.106 463.327 L615.547 453.315 L612.48 447.061 L610.085 445.085 L607.336 445.299 L605.925 444.7 L605.855 443.287 L604.964 443.219 L603.251 444.503 L597.635 444.762 L588.114 443.999 L581.242 442.296 L577.018 439.647 L574.059 440.005 L572.36 443.368 L568.743 445.533 L563.209 446.498 L558.45 452.747 L554.467 464.276 L552.717 471.69 L553.202 474.994 L552.152 477.392 L549.564 478.892 L546.929 482.245 L544.25 487.452 L541.124 489.971 L537.556 489.802 L530.962 485.791 L521.343 477.941 L513.801 473.088 L508.341 471.239 L503.518 467.608 L499.33 462.204 L495.472 458.598 L491.943 456.794 L487.817 450.802 L483.099 440.621 L480.739 432.768 L480.739 424.476 L474.572 406.417 L471.3 398.595 L468.868 394.987 L464.105 390.686 L457.014 385.687 L447.508 375.687 L435.588 360.685 L427.152 351.649 L422.204 348.584 L417.907 343.18 L414.265 335.437 L410.71 330.511 L410.336 330.283 L410.025 330.182 L401.251 330.114 L392.478 330.05 L383.705 329.982 L374.932 329.917 L366.159 329.853 L357.384 329.785 L348.611 329.72 L339.84 329.653 L339.812 336.138 L339.785 342.62 L339.76 349.105 L339.734 355.587 L325.63 355.624 L311.523 355.663 L297.418 355.703 L283.311 355.739 L269.207 355.776 L268.474 355.778 L268.474 144 L1587.89 144 Z" fill="#ffefdb" fill-opacity="1.000000" stroke-width="3.111111" stroke="#999187ff"/>
  <path d="M1605.3 164.581 L1604.31 165.242 L1607.96 158.045 L1615.18 148.917 L1617.13 147.521 L1611.13 155.318 L1605.3 164.581 Z" fill="#ffefdb" fill-opacity="1.000000" stroke-width="3.111111" stroke="#999187ff"/>
  <path d="M1384.46 636.652 L1383.04 638.155 L1380.16 637.051 L1378.59 635.075 L1377.91 631.208 L1380.41 635.303 L1381.31 636.23 L1384.46 636.652 Z" fill="#ffefdb" fill-opacity="1.000000" stroke-width="3.111111" stroke="#999187ff"/>
  <path d="M1382.6 630.96 L1382.54 634.346 L1380.53 628.675 L1379.19 622.407 L1381.11 624.436 L1382.6 630.96 Z" fill="#ffefdb" fill-opacity="1.000000" stroke-width="3.111111" stroke="#999187ff"/>
  <path d="M1450.52 712.242 L1442.59 723.082 L1443.47 720.368 L1446.56 714.567 L1447.56 711.837 L1449.65 710.106 L1451.6 706.976 L1451.74 703.326 L1454.57 700.773 L1455.5 700.407 L1450.52 712.242 Z" fill="#ffefdb" fill-opacity="1.000000" stroke-width="3.111111" stroke="#999187ff"/>
  <path d="M995.081 461.002 L993.598 461.824 L986.997 456.831 L986.582 454.686 L989.839 452.747 L991.826 452.918 L994.97 455.455 L996.119 456.161 L996.653 457.188 L996.349 458.796 L995.081 461.002 Z" fill="#ffefdb" fill-opacity="1.000000" stroke-width="3.111111" stroke="#999187ff"/>
  <path d="M786.726 553.183 L785.861 553.323 L787.792 548.603 L788.151 546.712 L791.317 540.739 L792.989 539.85 L793.695 542.391 L790.439 546.588 L786.726 553.183 Z" fill="#ffefdb" fill-opacity="1.000000" stroke-width="3.111111" stroke="#999187ff"/>
  <path d="M796.702 538.715 L795.236 538.955 L797.053 535.841 L800.005 534.271 L806.482 528.29 L809.125 527.879 L810.501 525.818 L811.103 525.514 L810.713 528.039 L805.502 531.625 L796.702 538.715 Z" fill="#ffefdb" fill-opacity="1.000000" stroke-width="3.111111" stroke="#999187ff"/>
  <path d="M773.187 587.859 L771.941 591.175 L772.284 586.233 L775.525 575.002 L782.11 560.242 L784.883 557.771 L777.287 573.958 L773.187 587.859 Z" fill="#ffefdb" fill-opacity="1.000000" stroke-width="3.111111" stroke="#999187ff"/>
  <path d="M865.534 481.456 L863.541 482.008 L872.24 473.142 L874.064 470.192 L876.392 470.322 L872.509 475.289 L865.534 481.456 Z" fill="#ffefdb" fill-opacity="1.000000" stroke-width="3.111111" stroke="#999187ff"/>
  <path d="M780.487 653.613 L779.935 656.29 L776.63 643.79 L771.252 615.502 L771.049 599.38 L771.895 593.829 L773.282 616.6 L779.228 645.518 L780.487 653.613 Z" fill="#ffefdb" fill-opacity="1.000000" stroke-width="3.111111" stroke="#999187ff"/>
  <path d="M1603.6 163.894 L1602.71 164.029 L1601.14 163.393 L1598.98 162.177 L1598.51 161.285 L1600.57 161.609 L1603.6 163.894 Z" fill="#ffefdb" fill-opacity="1.000000" stroke-width="3.111111" stroke="#999187ff"/>
  <path d="M1412.49 740.592 L1411.29 741.777 L1410.73 741.411 L1410.73 739.683 L1409.02 735.858 L1409.09 734.856 L1412.99 738.599 L1413.09 739.604 L1412.49 740.592 Z" fill="#ffefdb" fill-opacity="1.000000" stroke-width="3.111111" stroke="#999187ff"/>
  <path d="M1432.66 731.762 L1431.91 731.762 L1432.28 730.943 L1433.86 729.305 L1434.43 729.941 L1434.36 730.76 L1432.66 731.762 Z" fill="#ffefdb" fill-opacity="1.000000" stroke-width="3.111111" stroke="#999187ff"/>
  <path d="M1440.29 726.026 L1439.22 726.299 L1440.79 723.839 L1441.23 724.022 L1440.29 726.026 Z" fill="#ffefdb" fill-opacity="1.000000" stroke-width="3.111111" stroke="#999187ff"/>
  <path d="M1424.09 736.77 L1422.26 738.135 L1420.37 737.133 L1422.45 735.768 L1428.63 734.31 L1426.3 736.131 L1424.09 736.77 Z" fill="#ffefdb" fill-opacity="1.000000" stroke-width="3.111111" stroke="#999187ff"/>
  <path d="M1409.13 376.224 L1407.36 390.27 L1406.59 385.296 L1406.51 380.466 L1407.86 377.609 L1409.13 376.224 Z" fill="#ffefdb" fill-opacity="1.000000" stroke-width="3.111111" stroke="#999187ff"/>
  <path d="M1403.24 743.508 L1400.65 744.076 L1402.74 741.808 L1403.41 738.363 L1404.64 741.053 L1404.61 742.686 L1403.24 743.508 Z" fill="#ffefdb" fill-opacity="1.000000" stroke-width="3.111111" stroke="#999187ff"/>
  <path d="M1458.31 589.106 L1458.96 593.351 L1455.29 583.505 L1450.75 568.067 L1448.33 556.127 L1449.97 559.355 L1451.57 566.037 L1458.31 589.106 Z" fill="#ffefdb" fill-opacity="1.000000" stroke-width="3.111111" stroke="#999187ff"/>
  <path d="M1394.57 746.697 L1393.56 746.826 L1393.47 745.934 L1395.22 744.845 L1396.37 744.918 L1396.33 746.125 L1394.57 746.697 Z" fill="#ffefdb" fill-opacity="1.000000" stroke-width="3.111111" stroke="#999187ff"/>
  <path d="M1110.99 448.789 L1108.83 451.807 L1108.93 450.655 L1110.52 447.635 L1111.66 446.462 L1110.99 448.789 Z" fill="#ffefdb" fill-opacity="1.000000" stroke-width="3.111111" stroke="#999187ff"/>
  <path d="M1124.21 419.776 L1123.71 420.417 L1120.18 419.218 L1118.03 418.104 L1117.64 416.989 L1123.58 419.013 L1124.21 419.776 Z" fill="#ffefdb" fill-opacity="1.000000" stroke-width="3.111111" stroke="#999187ff"/>
  <path d="M1143.64 417.676 L1140.13 418.912 L1134.92 418.796 L1133.86 418.363 L1135.95 417.538 L1142.12 416.443 L1143.64 417.676 Z" fill="#ffefdb" fill-opacity="1.000000" stroke-width="3.111111" stroke="#999187ff"/>
  <path d="M1097.64 427.375 L1097.78 430.055 L1095.82 428.721 L1092.93 428.6 L1094.2 427.685 L1095.1 426.793 L1095.54 425.833 L1099.21 422.5 L1098.17 424.946 L1097.64 427.375 Z" fill="#ffefdb" fill-opacity="1.000000" stroke-width="3.111111" stroke="#999187ff"/>
  <path d="M1113.46 443.306 L1112.34 445.142 L1113.44 436.351 L1111.89 428.952 L1113.53 432.2 L1114.06 436.064 L1113.46 443.306 Z" fill="#ffefdb" fill-opacity="1.000000" stroke-width="3.111111" stroke="#999187ff"/>
  <path d="M1269.89 452.823 L1265.89 454.897 L1261.56 453.389 L1264.25 453.101 L1266.19 453.712 L1271.12 450.746 L1273.71 448.499 L1276.7 447.647 L1269.89 452.823 Z" fill="#ffefdb" fill-opacity="1.000000" stroke-width="3.111111" stroke="#999187ff"/>
  <path d="M1411.11 1046.2 L1412.39 1047.32 L1414.02 1046.63 L1414.49 1045.41 L1420.65 1046.32 L1421.58 1048.72 L1416.89 1048.78 L1414.79 1050.32 L1413.73 1050.64 L1409.7 1050.26 L1409.13 1044.71 L1410.25 1044.12 L1411.11 1046.2 Z" fill="#ffefdb" fill-opacity="1.000000" stroke-width="3.111111" stroke="#999187ff"/>
  <path d="M1466.6 1025.49 L1466.21 1025.81 L1464.93 1025.57 L1462 1027.92 L1460.74 1027.78 L1461.13 1026.96 L1461.74 1026.19 L1462.42 1025.61 L1463.07 1025.39 L1465.12 1024.91 L1466.09 1024.85 L1466.76 1025.39 L1466.6 1025.49 Z" fill="#ffefdb" fill-opacity="1.000000" stroke-width="3.111111" stroke="#999187ff"/>
  <path d="M1472.81 1025.27 L1470.95 1026.15 L1469.51 1025.81 L1472.78 1023.42 L1473.62 1022.61 L1474.34 1022.18 L1475.09 1022.17 L1476.05 1022.67 L1476.05 1023.03 L1472.81 1025.27 Z" fill="#ffefdb" fill-opacity="1.000000" stroke-width="3.111111" stroke="#999187ff"/>
  <path d="M1798.55 906.911 L1798.39 907.69 L1796.14 905.47 L1791.81 905.447 L1791.12 902.402 L1792.78 901.903 L1798.28 902.979 L1799.53 905.624 L1798.55 906.911 Z" fill="#ffefdb" fill-opacity="1.000000" stroke-width="3.111111" stroke="#999187ff"/>
  <path d="M1789.83 902.576 L1789.13 903.184 L1786.82 901.194 L1786.49 899.601 L1785.66 899.522 L1784.28 898.09 L1784.62 896.235 L1787.77 896.15 L1789.05 901.304 L1789.83 902.576 Z" fill="#ffefdb" fill-opacity="1.000000" stroke-width="3.111111" stroke="#999187ff"/>
  <path d="M1771.76 901.946 L1776.31 905.121 L1779.06 904.648 L1779.28 905.326 L1777.79 906.058 L1777.43 906.649 L1773.03 907.488 L1771.65 907.327 L1771.38 905.177 L1771.76 901.946 Z" fill="#ffefdb" fill-opacity="1.000000" stroke-width="3.111111" stroke="#999187ff"/>
  <path d="M1328.21 1296.89 L1329.47 1296.42 L1334.99 1296.89 L1328.21 1296.89 Z" fill="#ffefdb" fill-opacity="1.000000" stroke-width="3.111111" stroke="#999187ff"/>
  <path d="M268.474 355.778 L269.207 355.776 L283.311 355.739 L297.418 355.703 L311.523 355.663 L325.63 355.624 L339.734 355.587 L339.76 349.105 L339.785 342.62 L339.812 336.138 L339.84 329.653 L348.611 329.72 L357.384 329.785 L366.159 329.853 L374.932 329.917 L383.705 329.982 L392.478 330.05 L401.251 330.114 L410.025 330.182 L410.336 330.283 L410.71 330.511 L414.265 335.437 L417.907 343.18 L422.204 348.584 L427.152 351.649 L435.588 360.685 L447.508 375.687 L457.014 385.687 L464.105 390.686 L468.868 394.987 L471.3 398.595 L474.572 406.417 L480.739 424.476 L480.739 432.768 L483.099 440.621 L487.817 450.802 L491.943 456.794 L495.472 458.598 L499.33 462.204 L503.518 467.608 L508.341 471.239 L513.801 473.088 L521.343 477.941 L530.962 485.791 L537.556 489.802 L541.124 489.971 L544.25 487.452 L546.929 482.245 L549.564 478.892 L552.152 477.392 L553.202 474.994 L552.717 471.69 L554.467 464.276 L558.45 452.747 L563.209 446.498 L568.743 445.533 L572.36 443.368 L574.059 440.005 L577.018 439.647 L581.242 442.296 L588.114 443.999 L597.635 444.762 L603.251 444.503 L604.964 443.219 L605.855 443.287 L605.925 444.7 L607.336 445.299 L610.085 445.085 L612.48 447.061 L615.547 453.315 L626.106 463.327 L626.119 463.333 L627.01 466.769 L630.689 471.726 L637.455 479.345 L641.284 485.915 L642.175 491.434 L645.632 500.166 L651.649 512.105 L654.331 518.543 L653.676 519.471 L654.15 522.832 L655.755 528.622 L658.739 533.525 L663.102 537.542 L667.514 544.753 L671.974 555.161 L677.378 563.079 L683.721 568.5 L687.313 573.547 L688.153 578.214 L688.09 582.21 L687.124 585.537 L687.533 588.698 L689.316 591.685 L689.91 595.349 L689.213 600.447 L689.259 601.888 L689.261 601.891 L689.778 603.042 L695.41 611.801 L698.303 618.88 L700.601 630.178 L700.613 630.279 L703.179 637.037 L706.87 639.801 L712.541 640.823 L716.849 643.176 L719.796 646.863 L723.512 649.09 L727.998 649.855 L732.299 652.287 L736.412 656.391 L744.085 659.085 L755.315 660.377 L763.862 663.712 L769.728 669.094 L772.308 670.189 L773.005 670.265 L773.341 669.443 L773.783 667.92 L776.053 666.166 L781.463 665.021 L780.736 676.927 L778.323 686.697 L770.375 707.007 L767.062 719.606 L760.653 755.608 L758.682 779.206 L758.221 790.313 L757.659 791.886 L758.269 793.525 L756.734 818.085 L757.558 839.055 L757.034 842.303 L754.705 848.627 L753.064 857.378 L753.711 861.265 L753.676 863.962 L756.075 877.278 L756.837 887.276 L763.961 904.414 L767.962 910.392 L772.926 915.574 L774.748 918.499 L773.855 925.78 L771.832 929.467 L770.969 935.311 L769.973 930.472 L770.361 924.198 L771.941 920.826 L771.996 918.355 L769.077 915.721 L763.737 907.096 L757.215 891.841 L761.855 916.224 L763.449 920.131 L764.688 921.755 L766.764 923.469 L767.302 926.118 L767.321 928.077 L773.046 945.027 L779.518 962.545 L779.863 967.333 L782.453 973.216 L798.925 997.813 L809.008 1016.17 L812.508 1033.61 L814.624 1039.05 L815.653 1046.5 L822.261 1054.84 L824.28 1060.22 L827.821 1063.21 L830.68 1072.24 L836.064 1077.52 L834.778 1077.62 L830.073 1074.95 L830.387 1076.71 L834.349 1080.45 L842.103 1084.15 L844.038 1084.16 L840.98 1082.24 L838.391 1079.66 L839.297 1079.29 L844.712 1082.5 L859.861 1083.56 L866.532 1091.06 L875.174 1094.29 L879.824 1103.87 L885.23 1113.88 L888.679 1114.35 L891.372 1114.39 L899.485 1112.7 L912.091 1106.41 L916.431 1103.32 L924.894 1099.14 L937.841 1098.37 L941.856 1099.55 L951.537 1096.94 L956.153 1093.74 L957.755 1090.84 L958.507 1088.7 L967.479 1085.63 L969.247 1085.03 L978.339 1084.48 L982.728 1083.35 L987.894 1082.69 L991.622 1087.19 L991.618 1089.39 L989.135 1091.48 L990.297 1093.49 L994.71 1096.83 L1002.82 1098.18 L1005.45 1097.64 L1009.18 1092.72 L1015.77 1087.96 L1015.63 1082.41 L1014.45 1079.38 L1012.54 1079.19 L1012.08 1077.49 L1013.42 1073.41 L1013.07 1072.04 L1008.98 1075.95 L1008.03 1075.94 L1008.48 1074.11 L1009.33 1072.66 L1021.33 1064.15 L1024.4 1060.65 L1028.55 1057.57 L1037.16 1046.01 L1039 1024.24 L1040.72 1020.43 L1046.43 1013.75 L1047.04 1011.73 L1047.41 1007.18 L1047.26 995.753 L1047.58 986.763 L1047.35 976.596 L1048.37 967.525 L1049.3 965 L1052.57 950.479 L1059.37 944.053 L1071.15 936.459 L1073.86 935.193 L1111.42 927.151 L1116.69 925.189 L1123.14 919.971 L1127.86 918.2 L1136.47 918.344 L1139.11 917.649 L1139.63 916.928 L1139.65 916.233 L1141.23 915.521 L1146.21 916.202 L1155.52 919.346 L1158.91 920.134 L1167.22 923.787 L1176.38 925.257 L1177.7 924.621 L1178.91 923.509 L1179.84 921.381 L1178.88 919.523 L1177.99 919.667 L1176.44 920.666 L1174.59 920.762 L1170.96 919.233 L1171.69 917.95 L1175.39 918.071 L1177.76 917.449 L1181.27 915.197 L1185.01 916.883 L1189.92 924.342 L1193.42 926.715 L1193.7 937.52 L1194.22 939.491 L1195.5 942.345 L1193.76 950.721 L1191.8 957.648 L1189.34 963.331 L1184.02 972.279 L1177.57 979.425 L1169.58 995.328 L1167.75 1002.78 L1167.8 1008.75 L1169.16 1014.52 L1168.77 1016.65 L1167.79 1018.8 L1166.17 1018.61 L1163.02 1021.38 L1158.95 1029.59 L1158.85 1032.09 L1160.64 1034.38 L1162.96 1033.28 L1165.98 1033.18 L1167.66 1032.5 L1169.44 1032.68 L1169.05 1037.39 L1167.13 1040.73 L1165.93 1041.78 L1163.77 1042.35 L1161.35 1044.25 L1160.11 1046 L1160.22 1051.45 L1161.57 1051.87 L1164.41 1047.81 L1166.06 1048.01 L1166.4 1049.72 L1162.71 1063.64 L1160.33 1077.92 L1157.12 1086.2 L1155.99 1098.24 L1154.3 1103.37 L1152.34 1108.45 L1151.2 1108.17 L1148.1 1098.54 L1144.93 1096.06 L1144.23 1093.72 L1146.04 1082.06 L1145.22 1075.6 L1143.54 1075.85 L1141.43 1079.39 L1138.63 1082.47 L1138.69 1086.91 L1135.48 1094.29 L1134.69 1096.72 L1131.62 1096.15 L1128.08 1096.47 L1125.61 1098.25 L1123.09 1107.21 L1116.81 1119.83 L1114.3 1125.94 L1112.27 1128.06 L1110.65 1128.88 L1108.87 1127.43 L1104.56 1123.97 L1101.25 1125.64 L1100.1 1129.61 L1100.13 1134.63 L1091.75 1134.62 L1077.49 1134.6 L1059.34 1134.58 L1041.84 1134.56 L1027.19 1134.54 L1027.14 1145.82 L1027.09 1155.81 L1027.04 1167.05 L1018.95 1166.95 L1010.41 1166.85 L1011.1 1167.97 L1014.02 1170.08 L1017.81 1175.13 L1022.29 1182.97 L1027.72 1189.22 L1034.1 1193.87 L1038.3 1198.43 L1040.33 1202.88 L1041.35 1206.67 L1041.36 1209.8 L1043.69 1212.28 L1047.87 1213.91 L1050.02 1216.7 L1050.02 1218.99 L1048.7 1224.18 L1048.31 1229.89 L1048.82 1235.05 L1045.83 1235.14 L1038.6 1235.15 L1027.57 1235.16 L1017.43 1235.17 L1009.44 1235.18 L997.361 1235.2 L994.054 1243.14 L988.554 1256.35 L983.57 1268.32 L979.378 1278.39 L978.696 1281.04 L978.692 1283.19 L983.862 1292.61 L982.907 1295.35 L981.091 1296.78 L981.062 1296.89 L959.706 1296.89 L954.563 1288.9 L950.194 1283.28 L945.963 1279 L940.277 1271.06 L925.34 1253.63 L917.629 1245.67 L910.378 1236.16 L903.877 1230.87 L897.454 1227.42 L894.605 1225.45 L892.095 1222.83 L890.704 1222.68 L890.01 1226.2 L892.255 1227.98 L894.942 1229.48 L897.07 1229.59 L899.309 1230.85 L905.898 1235.67 L906.977 1238.15 L888.241 1228.49 L880.627 1227.61 L879.799 1226.09 L883.597 1221.04 L882.41 1219.21 L881.056 1218.96 L876.983 1222.46 L875.467 1222.69 L875.202 1220.39 L875.383 1218.23 L872.758 1215.05 L871.092 1215.18 L869.724 1217.39 L866.179 1221.59 L866.286 1223.24 L873.263 1225.03 L875.667 1226.04 L875.124 1227.16 L869.141 1227.14 L861.756 1229.04 L848.584 1240.7 L836.317 1245.71 L818.685 1256.94 L810.9 1257.51 L806.821 1259.31 L794.964 1255.02 L779.929 1244.47 L757.176 1241.16 L741.844 1227.35 L726.624 1221.67 L716.97 1208.42 L711.153 1207.85 L707.414 1205.73 L693.59 1200.93 L679.915 1197.76 L666.592 1186.18 L657.872 1182.51 L650.334 1177.91 L633.735 1170.04 L627.583 1165.68 L621.76 1158.94 L612.276 1151.96 L608.222 1146.13 L603.703 1144.04 L597.233 1133.06 L593.854 1128.44 L590.996 1126.27 L587.93 1125.53 L579.107 1126.41 L565.922 1121.57 L559.832 1120.33 L547.103 1113.18 L530.217 1105.2 L524.683 1096.03 L519.948 1087.47 L511.426 1076.2 L506.11 1071.39 L496.877 1065.68 L491.761 1061.05 L483.867 1057.5 L470.478 1048.48 L466.218 1040.76 L463.725 1033.9 L456.593 1025.59 L448.782 1010.05 L446.773 1004.32 L445.257 995.533 L443.441 990.433 L441.305 986.439 L442.395 983.534 L446.368 979.963 L452.974 979.16 L457.639 975.287 L458.257 972.11 L457.953 970.131 L454.97 965.262 L451.255 963.97 L448.371 963.899 L447.635 962.047 L449.809 960.026 L452.298 955.281 L455.971 949.491 L458.561 944.152 L459.042 936.628 L458.713 929.093 L459.693 922.729 L450.803 915.383 L449.767 912.259 L446.972 903.843 L442.116 894.065 L442.26 874.534 L436.422 857.206 L430.373 848.588 L427.245 845.587 L418.751 832.221 L412.059 824.458 L405.504 809.824 L399.028 800.53 L390.777 784.934 L384.816 777.16 L357.674 750.885 L359.204 750.885 L367.161 757.334 L368.499 756.796 L368.69 753.649 L367.773 749.892 L366.297 748.991 L364.177 749.835 L361.316 749.061 L359.886 747.823 L355.609 747.018 L350.242 742.644 L347.942 738.109 L347.691 732.93 L340.005 721.897 L337.088 715.744 L338.583 716.197 L340.629 718.677 L342.702 719.383 L345.115 719.403 L346.869 718.407 L346.239 716.58 L344.589 715.054 L333.38 709.242 L329.685 705.161 L320.501 698.372 L318.322 695.991 L316.874 689.43 L314.625 689.126 L312.647 690.955 L307.234 692.748 L305.85 690.66 L305.651 688.65 L309.471 686.522 L312.979 680.321 L312.91 678.165 L310.971 680.653 L308.05 683.437 L305.028 684.991 L300.542 686.288 L298.248 685.351 L296.239 683.947 L293.02 678.528 L291.397 660.923 L294.25 654.818 L297.582 648.786 L300.413 645.205 L302.046 647.908 L303.726 648.231 L302.543 645.177 L299.762 642.32 L298.78 639.472 L298.675 636.863 L297.358 632.024 L289.113 621.852 L281.402 622.632 L278.26 622.28 L275.324 618.407 L272.827 611.877 L271.598 606.414 L271.442 603.503 L270.709 600.582 L268.474 599.779 L268.474 355.778 Z" fill="#ffefdb" fill-opacity="1.000000" stroke-width="3.111111" stroke="#999187ff"/>
  <path d="M268.474 770.152 L269.172 771.784 L272.738 776.186 L276.004 781.604 L277.415 785.877 L280.026 789.398 L281.382 797.597 L288.045 801.268 L291.588 808.057 L291.821 812.355 L290.103 823.354 L288.6 826.521 L283.222 831.199 L279.313 836.78 L275.536 840.22 L271.53 842.311 L268.474 841.877 L268.474 770.152 Z" fill="#ffefdb" fill-opacity="1.000000" stroke-width="3.111111" stroke="#999187ff"/>
  <path d="M1188.8 991.182 L1186.74 992.978 L1185.62 986.628 L1187.27 980.433 L1189.28 976.875 L1193.24 976.456 L1195.84 975.287 L1196.17 976.861 L1194.03 981.663 L1188.8 991.182 Z" fill="#ffefdb" fill-opacity="1.000000" stroke-width="3.111111" stroke="#999187ff"/>
  <path d="M408.068 915.811 L406.907 920.556 L403.886 918.656 L402.803 915.678 L402.596 910.795 L404.272 909.97 L406.704 912.033 L407.207 913.418 L408.068 915.811 Z" fill="#ffefdb" fill-opacity="1.000000" stroke-width="3.111111" stroke="#999187ff"/>
  <path d="M1197.81 937.228 L1198.52 940.011 L1197.82 939.679 L1196.92 937.574 L1196.26 934.95 L1196.81 934.883 L1197.29 935.786 L1197.81 937.228 Z" fill="#ffefdb" fill-opacity="1.000000" stroke-width="3.111111" stroke="#999187ff"/>
  <path d="M999.471 1084.91 L994.983 1086.24 L994.186 1084.99 L1003.25 1079.11 L1004.8 1079.36 L1005.34 1080.15 L1000.65 1082.94 L999.471 1084.91 Z" fill="#ffefdb" fill-opacity="1.000000" stroke-width="3.111111" stroke="#999187ff"/>
  <path d="M276.253 769.38 L275.388 769.583 L273.346 766.523 L272.445 759.014 L272.851 758.212 L276.703 767.517 L276.631 768.66 L276.253 769.38 Z" fill="#ffefdb" fill-opacity="1.000000" stroke-width="3.111111" stroke="#999187ff"/>
  <path d="M1575.06 1097.59 L1579.92 1099.66 L1584.94 1100.73 L1587.11 1100.79 L1589.16 1101.45 L1593.74 1106.41 L1597.44 1109.13 L1611.44 1115.2 L1616.11 1125.67 L1616.99 1128.94 L1613.37 1130.88 L1608.82 1131.55 L1604.46 1131.67 L1600.44 1129.66 L1598.69 1128.13 L1594.5 1127.39 L1595.54 1125.98 L1593.68 1125.32 L1591.35 1125.47 L1589.63 1129.48 L1587.72 1132.67 L1584.06 1132.37 L1582.65 1129.65 L1580.72 1130.87 L1579.17 1132.89 L1577.31 1140.39 L1574.32 1136.66 L1571.07 1133.54 L1566.98 1132.25 L1558.72 1132.04 L1554.83 1131.02 L1551.59 1124.68 L1550.32 1122.86 L1547.06 1121.21 L1543.81 1113.94 L1542.64 1112.94 L1533.85 1111.39 L1532.03 1107.4 L1532.57 1103.79 L1535.51 1099.38 L1536.93 1098.13 L1541.81 1098.31 L1546.45 1096.99 L1548.5 1095.09 L1550.63 1093.85 L1567.47 1097.03 L1571.35 1097.07 L1575.06 1097.59 Z" fill="#ffefdb" fill-opacity="1.000000" stroke-width="3.111111" stroke="#999187ff"/>
  <path d="M1334.99 1296.89 L1329.47 1296.42 L1328.21 1296.89 L1099.37 1296.89 L1099.78 1294.59 L1100.89 1292.72 L1107.52 1288.66 L1108.13 1288.1 L1113.36 1282.42 L1119.17 1276.11 L1125.2 1269.15 L1131.94 1261.38 L1135.65 1256.83 L1137.37 1254.87 L1141.25 1256.48 L1144.31 1252.8 L1146.07 1251.57 L1150.2 1247.16 L1151.48 1246.2 L1158.38 1244.4 L1161.72 1244.44 L1164.65 1248.91 L1166.96 1251.34 L1171.33 1249.25 L1174.99 1248.79 L1190.1 1252.94 L1196.09 1251.11 L1207.12 1250.71 L1212.07 1251.74 L1219.07 1245.86 L1223.57 1244.68 L1228.85 1241.93 L1228.14 1239.11 L1226.88 1237.85 L1234.93 1239.08 L1246.91 1245.04 L1259.68 1243.96 L1264.29 1240.74 L1267.26 1239.83 L1280.34 1245.95 L1283.79 1250.66 L1286.48 1251.12 L1288.56 1250.05 L1289.12 1249.07 L1286.55 1248.05 L1285.39 1246.58 L1295.69 1249.47 L1315.08 1271.71 L1315.49 1273.52 L1307.21 1266.94 L1302.82 1267.44 L1301.68 1268.5 L1301.93 1272.09 L1302.33 1273.78 L1304.21 1273.97 L1305.6 1273 L1309.02 1274.17 L1311.29 1276.56 L1314.04 1280.21 L1315.68 1284.19 L1317.46 1284.25 L1319.21 1281.86 L1322.5 1281.57 L1324.65 1284.24 L1326.16 1284.08 L1324.04 1279.94 L1319.05 1275.82 L1320.24 1275.65 L1331.3 1283.05 L1334.43 1292.34 L1337.03 1294.45 L1339.36 1296.89 L1334.99 1296.89 Z" fill="#ffefdb" fill-opacity="1.000000" stroke-width="3.111111" stroke="#999187ff"/>
  <path d="M1209.55 1217.43 L1203.15 1221.94 L1201.15 1221.85 L1204.08 1218.37 L1208.81 1215.39 L1212.82 1213.93 L1216.11 1214.56 L1209.55 1217.43 Z" fill="#ffefdb" fill-opacity="1.000000" stroke-width="3.111111" stroke="#999187ff"/>
  <path d="M1231.46 1212.64 L1228.41 1215.98 L1227.86 1214.48 L1229.33 1211.38 L1231.17 1209.62 L1232.94 1209.79 L1232.51 1211.13 L1231.46 1212.64 Z" fill="#ffefdb" fill-opacity="1.000000" stroke-width="3.111111" stroke="#999187ff"/>
  <path d="M1793.85 1024.91 L1794.72 1026.64 L1796.56 1038.26 L1796.74 1041.99 L1794.89 1047.61 L1795.16 1049.83 L1799.12 1055.02 L1799.2 1056.88 L1798.73 1058.77 L1795.34 1063.69 L1792.74 1067.06 L1793.57 1070.92 L1795.67 1074.59 L1795.93 1077.65 L1795.29 1081.71 L1792.06 1086.75 L1790.37 1088.55 L1785.56 1088.77 L1785.02 1089.49 L1787.42 1094.41 L1790.13 1099.96 L1794.54 1104.28 L1795.53 1108.35 L1794.47 1112.2 L1794.29 1121.7 L1790.91 1117.09 L1787.19 1113.23 L1784.96 1111.73 L1782.65 1110.78 L1764.94 1111.28 L1762.96 1111.94 L1761.42 1113.18 L1759.77 1113.8 L1754.9 1114.95 L1750.05 1115.21 L1738.74 1112.1 L1734.26 1110.49 L1729.76 1109.48 L1724.58 1109.81 L1719.43 1110.75 L1715.31 1112.99 L1712.22 1116.94 L1711.64 1120.6 L1709.81 1121.54 L1705.64 1115.7 L1701.81 1111.55 L1697.45 1108.44 L1688.5 1104 L1686.86 1101.3 L1686.14 1098.02 L1689.76 1087.94 L1693.87 1086.1 L1696.13 1085.75 L1701.22 1087 L1706.18 1089.29 L1710.71 1090.78 L1717.71 1091.37 L1721.52 1093.84 L1748.43 1097.69 L1753.54 1098.89 L1755.53 1098.47 L1757.26 1096.97 L1758.71 1094.25 L1760.37 1092.21 L1768.35 1091.75 L1770.03 1090.84 L1771.2 1088 L1771.17 1085.05 L1766.47 1081.09 L1759.13 1072.41 L1752.67 1062.18 L1755.46 1058.74 L1754.39 1052.44 L1755.44 1046.61 L1756.97 1040.89 L1750.58 1035.99 L1743.03 1031.11 L1732.54 1029.57 L1729.31 1028.34 L1727.63 1024.68 L1729.15 1019.77 L1732.55 1017.05 L1736.44 1015.37 L1740.43 1014.21 L1750.06 1012.81 L1759.62 1014.38 L1767.88 1019.43 L1776.27 1023.39 L1786.86 1024.71 L1791.64 1026.15 L1793.85 1024.91 Z" fill="#ffefdb" fill-opacity="1.000000" stroke-width="3.111111" stroke="#999187ff"/>
  <path d="M1752.93 1079.13 L1752.23 1083.19 L1742.02 1078.36 L1733.75 1072.26 L1734.1 1068.96 L1738.32 1068.2 L1742.37 1070.23 L1748.35 1074.3 L1752.93 1079.13 Z" fill="#ffefdb" fill-opacity="1.000000" stroke-width="3.111111" stroke="#999187ff"/>
  <path d="M1758.54 1006.5 L1760.16 1007.85 L1759.54 1009.48 L1755.52 1008.47 L1751.35 1006.62 L1749.98 1007.08 L1749.15 1006.85 L1746.71 1005.08 L1748.85 1003.72 L1751.06 1003.27 L1753.47 1003.37 L1758.54 1006.5 Z" fill="#ffefdb" fill-opacity="1.000000" stroke-width="3.111111" stroke="#999187ff"/>
  <path d="M981.062 1296.89 L981.091 1296.78 L982.907 1295.35 L983.862 1292.61 L978.692 1283.19 L978.696 1281.04 L979.378 1278.39 L983.57 1268.32 L988.554 1256.35 L994.054 1243.14 L997.361 1235.2 L1009.44 1235.18 L1017.43 1235.17 L1027.57 1235.16 L1038.6 1235.15 L1045.83 1235.14 L1048.82 1235.05 L1048.31 1229.89 L1048.7 1224.18 L1050.02 1218.99 L1050.02 1216.7 L1047.87 1213.91 L1043.69 1212.28 L1041.36 1209.8 L1041.35 1206.67 L1040.33 1202.88 L1038.3 1198.43 L1034.1 1193.87 L1027.72 1189.22 L1022.29 1182.97 L1017.81 1175.13 L1014.02 1170.08 L1011.1 1167.97 L1010.41 1166.85 L1018.95 1166.95 L1027.04 1167.05 L1027.09 1155.81 L1027.14 1145.82 L1027.19 1134.54 L1041.84 1134.56 L1059.34 1134.58 L1077.49 1134.6 L1091.75 1134.62 L1100.13 1134.63 L1099.75 1148.61 L1099.31 1164.81 L1098.98 1176.72 L1098.54 1192.61 L1098.1 1208.86 L1097.49 1231.01 L1097.1 1245.33 L1097.28 1245.66 L1102.04 1244.97 L1109.08 1245.59 L1110.81 1245.55 L1112.96 1246.8 L1114.62 1247.17 L1118.2 1250.4 L1122.41 1252.84 L1125.09 1247.91 L1123.67 1244.95 L1122.62 1243.43 L1122.78 1242.11 L1137.37 1254.87 L1135.65 1256.83 L1131.94 1261.38 L1125.2 1269.15 L1119.17 1276.11 L1113.36 1282.42 L1108.13 1288.1 L1107.52 1288.66 L1100.89 1292.72 L1099.78 1294.59 L1099.37 1296.89 L981.062 1296.89 Z" fill="#ffefdb" fill-opacity="1.000000" stroke-width="3.111111" stroke="#999187ff"/>
  <path d="M1794.29 1121.7 L1794.47 1112.2 L1795.53 1108.35 L1794.54 1104.28 L1790.13 1099.96 L1787.42 1094.41 L1785.02 1089.49 L1785.56 1088.77 L1790.37 1088.55 L1792.06 1086.75 L1795.29 1081.71 L1795.93 1077.65 L1795.67 1074.59 L1793.57 1070.92 L1792.74 1067.06 L1795.34 1063.69 L1798.73 1058.77 L1799.2 1056.88 L1799.12 1055.02 L1795.16 1049.83 L1794.89 1047.61 L1796.74 1041.99 L1796.56 1038.26 L1794.72 1026.64 L1793.85 1024.91 L1795.61 1023.94 L1796.77 1020.47 L1798.31 1017.39 L1800.37 1015.73 L1802.69 1014.7 L1807.32 1014.78 L1813.72 1017.47 L1815.53 1017.42 L1821.68 1014.98 L1826.78 1013.63 L1831.58 1015.17 L1833.52 1017.26 L1837.48 1020.58 L1839.47 1021.6 L1845.73 1021.52 L1847.44 1021.85 L1852.7 1027.34 L1857.12 1029.53 L1859.69 1029.64 L1864.3 1027.52 L1864.86 1027.53 L1864.86 1102.04 L1864.13 1102.42 L1862.33 1104.03 L1859.21 1107.98 L1857.55 1109.44 L1845.71 1111.43 L1842.29 1108.53 L1839.13 1104.57 L1834.57 1104.03 L1827.97 1107.1 L1823.84 1108.21 L1822.16 1109.52 L1821.67 1111.02 L1821.65 1116.56 L1820.72 1119.92 L1814.28 1132.62 L1810.65 1141.59 L1809.16 1144.36 L1807.43 1144.96 L1804.26 1139.81 L1802.24 1137.94 L1799.74 1137 L1798.68 1134.27 L1798.72 1130.37 L1798.06 1126.6 L1796.52 1123.64 L1794.29 1121.7 Z" fill="#ffefdb" fill-opacity="1.000000" stroke-width="3.111111" stroke="#999187ff"/>
  <path d="M1392.43 826.335 L1402.89 829.018 L1411.34 828.258 L1415.38 826.693 L1415.01 828.319 L1418.72 832.294 L1420.08 832.567 L1425.55 830.554 L1439.82 829.792 L1441.28 830.906 L1443.79 834.776 L1447.44 837.174 L1451.2 838.996 L1455.14 839.482 L1459.07 838.652 L1462.76 839.057 L1467.36 842.829 L1468.81 843.277 L1472.94 842.246 L1471.72 845.694 L1478.67 850.544 L1483.75 860.072 L1487.45 863.987 L1491.37 867.5 L1494.67 869.881 L1498.37 871.018 L1509.59 870.551 L1512.24 870.844 L1514.61 872.203 L1516.88 872.738 L1518.19 872.231 L1539.87 887.07 L1546.76 894.993 L1550.97 899.108 L1560.08 905.059 L1563.74 906.37 L1565.65 905.579 L1565.28 904.271 L1562.61 900.969 L1562.22 899.761 L1565.65 900.778 L1571.84 907.485 L1573.54 909.965 L1576.63 912.261 L1579.74 913.922 L1578.26 916.571 L1575.73 916.796 L1570.88 915.707 L1574.73 920.016 L1575.4 923.151 L1577.19 923.419 L1579.87 919.974 L1581.56 917.069 L1588.36 924.564 L1592.02 927.993 L1591.09 929.994 L1590.78 931.975 L1594.87 930.132 L1596.42 930.334 L1597.92 931.398 L1599.56 934.621 L1603.38 935.336 L1607.24 935.249 L1615.06 937.914 L1622.46 943.33 L1629.43 944.436 L1636.46 944.622 L1640.02 947.487 L1641.53 951.329 L1639.83 954.051 L1638.85 956.894 L1641.47 960.381 L1635.77 961.862 L1634.96 963.961 L1635.26 966.23 L1636.39 967.477 L1639.66 966.385 L1644.37 967.356 L1651.82 968.223 L1656.8 967.516 L1666.92 969.892 L1670 971.161 L1676 975.625 L1678.78 978.569 L1684.74 986.498 L1689.88 989.617 L1694.33 990.371 L1695.89 989.851 L1697.3 990.712 L1698.54 991.824 L1699.76 995.297 L1699.09 998.95 L1696.54 1001.91 L1695.13 1004.07 L1688.77 1004.32 L1679.89 1005.31 L1671.3 1008.53 L1667.1 1011.09 L1665.18 1012.78 L1660.67 1014.35 L1660.36 1013.01 L1660.44 1011.32 L1659.26 1008.19 L1658.24 1011.01 L1656.55 1013.07 L1653.72 1014.83 L1643.28 1014.94 L1639.08 1012.57 L1634.77 1010.95 L1619.08 1009.26 L1615.31 1009.41 L1604.82 1011.16 L1594.28 1012.11 L1589.87 1013.2 L1585.51 1014.84 L1577.03 1014.79 L1567.01 1016.66 L1556.95 1017 L1563.39 1003.93 L1576.98 991.351 L1579.53 988.649 L1581.35 985.175 L1581.78 982.558 L1581.19 980.326 L1577.95 976.388 L1577.29 973.455 L1576.33 971.558 L1571.62 969.909 L1566.85 968.921 L1561.84 968.887 L1551.29 967.53 L1545.69 967.429 L1540.94 964.749 L1533.06 955.202 L1529.37 952.528 L1527.47 950.389 L1526 947.926 L1524.14 933.912 L1522.57 927.168 L1520.18 921.305 L1516.54 916.855 L1512.74 915.343 L1498.12 919.155 L1494.72 918.589 L1491.41 917.291 L1469.34 908.217 L1460.24 903.221 L1456.53 900.747 L1453.36 897.217 L1450.08 891.433 L1446.39 886.262 L1446.41 888.354 L1445.85 889.716 L1427.37 890.329 L1424.43 889.136 L1422.54 887.732 L1421.2 885.64 L1420.21 881.449 L1418.45 877.931 L1417.89 881.68 L1416.98 885.139 L1414.5 887.07 L1411.67 887.377 L1408.25 882.783 L1393.28 881.838 L1391.95 881.061 L1387.04 876.611 L1382.84 871.029 L1387.02 869.062 L1395.64 866.472 L1397.5 864.747 L1398.59 862.549 L1397.81 859.258 L1396.09 856.894 L1394.33 855.504 L1392.38 854.614 L1389.8 854.237 L1356.49 853.646 L1354.56 855.428 L1351.57 859.073 L1345.66 863.748 L1341.76 868.597 L1340.3 871.1 L1338.48 872.89 L1334.37 875.899 L1330.88 880.523 L1326.64 882.592 L1324.32 881.334 L1322.03 881.345 L1320.37 882.485 L1318.63 883.006 L1310.09 883.571 L1308.81 884.751 L1307.59 888.069 L1306.2 894.523 L1304.89 896.657 L1300.6 897.47 L1296.52 899.238 L1288.21 905.388 L1286.07 906.28 L1286.53 901.777 L1286.12 897.397 L1283.77 897.24 L1281.1 897.969 L1278.88 899.196 L1274.76 902.469 L1272.67 903.297 L1270.72 901.622 L1271.11 899.48 L1284.86 891.582 L1286.4 890.98 L1288.84 891.574 L1291.23 891.306 L1293.1 889.094 L1290.84 878.646 L1291.71 871.536 L1294.9 866.042 L1301.26 857.722 L1304.33 854.986 L1335.74 837.602 L1338.96 836.713 L1359.37 833.223 L1362.49 832.012 L1371.95 826.859 L1381.9 824.756 L1392.43 826.335 Z" fill="#ffefdb" fill-opacity="1.000000" stroke-width="3.111111" stroke="#999187ff"/>
  <path d="M1558.79 896.147 L1557.15 897.912 L1555.36 895.362 L1554.22 895.083 L1552.64 894.073 L1549.57 891.236 L1548.83 888.3 L1551.38 888.078 L1554.59 888.596 L1560.2 890.265 L1559.71 893.58 L1558.79 896.147 Z" fill="#ffefdb" fill-opacity="1.000000" stroke-width="3.111111" stroke="#999187ff"/>
  <path d="M1544.5 876.94 L1543.69 877.9 L1541.53 875.752 L1538.4 874.818 L1536.56 871.474 L1534.81 870.191 L1534.67 868.961 L1537.56 868.15 L1539.57 868.505 L1541.83 871.057 L1543.12 875.744 L1544.5 876.94 Z" fill="#ffefdb" fill-opacity="1.000000" stroke-width="3.111111" stroke="#999187ff"/>
  <path d="M1520.43 861.544 L1525.91 862.765 L1527.81 862.034 L1529.64 861.82 L1531.57 862.329 L1534.25 867.123 L1531.89 867.719 L1530.02 867.719 L1528.64 866.855 L1523.73 866.63 L1520.48 865.237 L1518.7 864.046 L1517.82 862.597 L1520.43 861.544 Z" fill="#ffefdb" fill-opacity="1.000000" stroke-width="3.111111" stroke="#999187ff"/>
  <path d="M1550.4 886.026 L1549.08 886.189 L1545.11 883.785 L1543.92 881.776 L1545.32 879.082 L1545.61 876.158 L1546.16 875.963 L1546.8 879.504 L1549.83 881.01 L1550.01 881.787 L1551.87 884.79 L1550.4 886.026 Z" fill="#ffefdb" fill-opacity="1.000000" stroke-width="3.111111" stroke="#999187ff"/>
  <path d="M1363.52 918.068 L1359.81 921.125 L1351.89 925.434 L1347.65 925.583 L1343.35 923.965 L1340.39 920.362 L1338.7 916.813 L1338.84 915.107 L1341.53 917.953 L1343.84 919.352 L1345.75 918.42 L1347.09 916.88 L1342.74 905.402 L1342.93 902.976 L1346.38 896.679 L1355.78 898.593 L1357.43 899.702 L1358.73 903.688 L1360.82 906.815 L1363.28 915.177 L1363.52 918.068 Z" fill="#ffefdb" fill-opacity="1.000000" stroke-width="3.111111" stroke="#999187ff"/>
  <path d="M1491.72 855.107 L1491.79 856.618 L1484.81 852.385 L1481.81 847.974 L1480.6 846.961 L1482.56 846.874 L1490.42 854.102 L1491.72 855.107 Z" fill="#ffefdb" fill-opacity="1.000000" stroke-width="3.111111" stroke="#999187ff"/>
  <path d="M1100.13 1134.63 L1100.1 1129.61 L1101.25 1125.64 L1104.56 1123.97 L1108.87 1127.43 L1110.65 1128.88 L1112.27 1128.06 L1114.3 1125.94 L1116.81 1119.83 L1123.09 1107.21 L1125.61 1098.25 L1128.08 1096.47 L1131.62 1096.15 L1134.69 1096.72 L1132.55 1103.27 L1134.69 1104.12 L1136.62 1103.51 L1141.29 1103.74 L1143.08 1110.92 L1142.61 1116.94 L1138.21 1132.83 L1137.65 1138.29 L1135.64 1146.44 L1138.37 1151.82 L1135.82 1158.97 L1134.96 1163.57 L1134.75 1170.52 L1136.04 1183.73 L1133.98 1202.77 L1130.34 1211.08 L1128.08 1214.24 L1124.04 1222.5 L1118.74 1224.97 L1111.4 1238.28 L1110.1 1241.78 L1110.81 1245.55 L1109.08 1245.59 L1102.04 1244.97 L1097.28 1245.66 L1097.1 1245.33 L1097.49 1231.01 L1098.1 1208.86 L1098.54 1192.61 L1098.98 1176.72 L1099.31 1164.81 L1099.75 1148.61 L1100.13 1134.63 Z" fill="#ffefdb" fill-opacity="1.000000" stroke-width="3.111111" stroke="#999187ff"/>
  <path d="M1148.46 1128.28 L1146.56 1129.35 L1148.12 1126.03 L1148.35 1123.89 L1150.54 1115.02 L1152.12 1115.08 L1152.53 1115.86 L1148.46 1128.28 Z" fill="#ffefdb" fill-opacity="1.000000" stroke-width="3.111111" stroke="#999187ff"/>
  <path d="M1152.36 1157.22 L1149.28 1165.29 L1149.09 1162.98 L1150.36 1157.02 L1152.1 1154.92 L1153.17 1152.72 L1153.41 1150.11 L1154.92 1151.38 L1154.54 1153.95 L1152.36 1157.22 Z" fill="#ffefdb" fill-opacity="1.000000" stroke-width="3.111111" stroke="#999187ff"/>
  <path d="M1559.24 763.709 L1559.31 765.029 L1555.35 768.665 L1558.22 771.26 L1560.93 765.617 L1563.08 770.202 L1564.26 778.801 L1564.07 780.298 L1564.26 781.582 L1564.69 783.228 L1564.79 785.615 L1562.59 793.125 L1554.71 792.354 L1554.53 786.023 L1553.31 784.802 L1551.48 775.761 L1549.01 772.848 L1545.59 765.417 L1547.58 763.5 L1550.23 764.139 L1551.59 763.244 L1555.26 762.529 L1557.5 761.513 L1559.24 763.709 Z" fill="#ffefdb" fill-opacity="1.000000" stroke-width="3.111111" stroke="#999187ff"/>
  <path d="M1576.49 668.322 L1575.66 668.826 L1572.19 663.053 L1569.4 661.376 L1573.76 657.295 L1575.64 653.787 L1575.6 646.137 L1576.67 641.946 L1576.31 638.318 L1577.27 634.614 L1575.97 630.454 L1572.32 627.155 L1565.11 614.033 L1553.72 610.847 L1547.83 610.715 L1551.07 608.609 L1554.06 608.865 L1558.67 610.118 L1564.18 610.723 L1567.56 614.585 L1570.78 619.705 L1573.68 621.776 L1574.88 623.093 L1574.74 624.58 L1575.23 625.976 L1579.02 628.371 L1582.84 632.238 L1583.96 643.579 L1578.82 648.946 L1577.87 665.367 L1576.49 668.322 Z" fill="#ffefdb" fill-opacity="1.000000" stroke-width="3.111111" stroke="#999187ff"/>
  <path d="M1744.06 939.932 L1742.79 944.16 L1738.56 952.224 L1729.14 954.256 L1718.75 954.631 L1717.95 952.43 L1717.72 950.496 L1718.48 947.473 L1718.41 946.282 L1717.98 945.066 L1721.78 943.763 L1724.25 940.022 L1728.19 939.392 L1733.1 942.021 L1735.74 942.117 L1739.65 939.217 L1742.8 932.958 L1744.66 933.757 L1744.06 939.932 Z" fill="#ffefdb" fill-opacity="1.000000" stroke-width="3.111111" stroke="#999187ff"/>
  <path d="M1555.81 737.31 L1555.72 744.29 L1556.15 749.512 L1555.75 751.372 L1551.43 754.862 L1550.32 756.813 L1546.25 758.78 L1543.79 761.519 L1542.56 757.069 L1540.16 754.319 L1539.76 749.644 L1537.94 751.223 L1535.3 750.26 L1530.96 746.719 L1528.21 741.912 L1532.06 741.079 L1532.85 744.065 L1535.9 740.4 L1535.2 738.47 L1534.65 738.222 L1533.66 734.63 L1538.24 725.224 L1539.22 719.155 L1537.15 709.419 L1539.09 708.78 L1544.25 712.195 L1546.57 715.555 L1546.64 720.169 L1548.82 723.74 L1551.96 732.297 L1555.81 737.31 Z" fill="#ffefdb" fill-opacity="1.000000" stroke-width="3.111111" stroke="#999187ff"/>
  <path d="M1525.91 620.774 L1530.75 622.567 L1533.34 622.322 L1534.89 621.143 L1542.04 621.624 L1547.82 619.899 L1548.68 622.961 L1548.53 624.56 L1536.25 626.06 L1524.98 630.555 L1518.81 633.601 L1515.9 633.938 L1513.69 632.337 L1506.25 623.054 L1508.24 623.98 L1513.73 629.227 L1517.15 628.27 L1520.31 624.802 L1520.79 622.181 L1520.32 620.94 L1521.75 616.803 L1525.91 620.774 Z" fill="#ffefdb" fill-opacity="1.000000" stroke-width="3.111111" stroke="#999187ff"/>
  <path d="M1571.62 719.645 L1567.11 720.841 L1563.89 719.662 L1563.07 718.713 L1564.45 717.12 L1567.48 715.792 L1572.36 715.66 L1574.49 717.23 L1574.75 717.917 L1571.62 719.645 Z" fill="#ffefdb" fill-opacity="1.000000" stroke-width="3.111111" stroke="#999187ff"/>
  <path d="M1702.93 851.673 L1703.83 852.706 L1701.29 855.019 L1695.55 852.157 L1694.26 852.354 L1693.12 849.311 L1692.69 847.057 L1692.97 844.98 L1696.38 846.595 L1698.22 849.573 L1702.93 851.673 Z" fill="#ffefdb" fill-opacity="1.000000" stroke-width="3.111111" stroke="#999187ff"/>
  <path d="M1688.08 774.165 L1684.92 780.411 L1683.23 779.879 L1684.19 772.032 L1686.38 770.788 L1687.24 770.855 L1688.08 774.165 Z" fill="#ffefdb" fill-opacity="1.000000" stroke-width="3.111111" stroke="#999187ff"/>
  <path d="M1696.97 881.055 L1694.17 882.789 L1694.79 879.8 L1700.16 874.736 L1703.13 870.283 L1704.82 868.707 L1705.42 867.483 L1707.78 865.839 L1708.96 862.974 L1708.63 860.635 L1706.16 856.77 L1706.2 854.048 L1707.05 852.132 L1711.21 851.237 L1710.11 854.136 L1711.75 862.34 L1706.23 872.558 L1701.51 875.724 L1696.97 881.055 Z" fill="#ffefdb" fill-opacity="1.000000" stroke-width="3.111111" stroke="#999187ff"/>
  <path d="M1599.51 692.348 L1606.08 698.85 L1611.68 701.305 L1617.74 709.445 L1620.35 712.344 L1620.81 714.984 L1619.79 727.036 L1618.43 734.293 L1618.64 740.654 L1617.21 738.771 L1615.77 734.605 L1613.42 732.21 L1612.63 730.954 L1616.87 730.679 L1617.25 724.12 L1619.31 718.947 L1619 713.565 L1614.05 707.641 L1610.66 702.425 L1605.45 700.756 L1600.63 695.563 L1597.75 694.924 L1594.25 695.839 L1595.51 692.742 L1596.39 688.647 L1597.03 687.882 L1599.51 692.348 Z" fill="#ffefdb" fill-opacity="1.000000" stroke-width="3.111111" stroke="#999187ff"/>
  <path d="M1638.79 809.785 L1637.12 810.125 L1634.14 808.603 L1627.16 801.591 L1623.92 800.986 L1624.98 797.032 L1627.45 798.414 L1633.08 804.46 L1635.21 807.488 L1638.79 809.785 Z" fill="#ffefdb" fill-opacity="1.000000" stroke-width="3.111111" stroke="#999187ff"/>
  <path d="M1671.68 841.824 L1671.42 843.302 L1666.38 831.782 L1660.04 828.984 L1656.4 826.203 L1657.15 824.624 L1659.68 823.937 L1660.1 820.289 L1659.02 816.343 L1655.68 808.375 L1653.81 802.976 L1652.95 801.732 L1652.7 797.206 L1656.67 804.215 L1658.32 810.446 L1660.97 816.549 L1662.75 827.075 L1667.82 830.653 L1671.47 835.739 L1671.68 841.824 Z" fill="#ffefdb" fill-opacity="1.000000" stroke-width="3.111111" stroke="#999187ff"/>
  <path d="M1653 766.56 L1653.27 769.49 L1650.59 768.896 L1646.65 770.042 L1645.23 770.073 L1646.11 768.066 L1648.85 765.353 L1648.99 762.769 L1645.6 759.042 L1641.65 749.77 L1639.81 747.572 L1638.93 744.088 L1635.62 740.35 L1636.31 738.351 L1636.99 737.881 L1639.23 738.841 L1644.3 752.177 L1644.63 753.455 L1653 766.56 Z" fill="#ffefdb" fill-opacity="1.000000" stroke-width="3.111111" stroke="#999187ff"/>
  <path d="M1743.49 868.645 L1745.97 869.478 L1747.32 869.419 L1751.88 871.15 L1754.61 873.526 L1755.22 874.505 L1753.76 876.625 L1749.55 872.611 L1745.89 872.093 L1740.73 872.189 L1738.67 871.432 L1740.05 867.131 L1743.49 868.645 Z" fill="#ffefdb" fill-opacity="1.000000" stroke-width="3.111111" stroke="#999187ff"/>
  <path d="M1748.48 921.814 L1743.16 924.643 L1742.63 921.316 L1745.34 918.648 L1748.48 921.814 Z" fill="#ffefdb" fill-opacity="1.000000" stroke-width="3.111111" stroke="#999187ff"/>
  <text x="-nan" y="-nan" fill="#00000099" font-size="62.222222" font-family="Arial,Helvetica,'Helvetica Neue',sans-serif" font-weight="500.000000">Gulf of Mexico</text>
</svg>