<svg xmlns="http://www.w3.org/2000/svg" width="1200.000000" height="480.000000" viewBox="0 0 1200.0 480.0">
  <rect width="1200.000000" height="480.000000" fill="#ffffff"/>
  <path stroke-width="1.333333" stroke="#a8a8a8" fill="none" d="M59.8375 44.4 L1119.629167 44.4 "/>
  <path stroke-width="1.333333" stroke="#a8a8a8" fill="none" d="M59.8375 44.4 L59.8375 49.733333 "/>
  <path stroke-width="1.333333" stroke="#a8a8a8" fill="none" d="M148.153475 44.4 L148.153475 49.733333 "/>
  <path stroke-width="1.333333" stroke="#a8a8a8" fill="none" d="M236.46945 44.4 L236.46945 49.733333 "/>
  <path stroke-width="1.333333" stroke="#a8a8a8" fill="none" d="M324.785417 44.4 L324.785417 49.733333 "/>
  <path stroke-width="1.333333" stroke="#a8a8a8" fill="none" d="M413.101399 44.4 L413.101399 49.733333 "/>
  <path stroke-width="1.333333" stroke="#a8a8a8" fill="none" d="M501.417382 44.4 L501.417382 49.733333 "/>
  <path stroke-width="1.333333" stroke="#a8a8a8" fill="none" d="M589.733333 44.4 L589.733333 49.733333 "/>
  <path stroke-width="1.333333" stroke="#a8a8a8" fill="none" d="M678.049348 44.4 L678.049348 49.733333 "/>
  <path stroke-width="1.333333" stroke="#a8a8a8" fill="none" d="M766.365299 44.4 L766.365299 49.733333 "/>
  <path stroke-width="1.333333" stroke="#a8a8a8" fill="none" d="M854.68125 44.4 L854.68125 49.733333 "/>
  <path stroke-width="1.333333" stroke="#a8a8a8" fill="none" d="M942.997264 44.4 L942.997264 49.733333 "/>
  <path stroke-width="1.333333" stroke="#a8a8a8" fill="none" d="M1031.313216 44.4 L1031.313216 49.733333 "/>
  <path stroke-width="1.333333" stroke="#a8a8a8" fill="none" d="M1119.629167 44.4 L1119.629167 49.733333 "/>
  <text x="92.167364" y="28.666667" fill="#333333" font-size="14.666667" font-family="Arial,Helvetica,'Helvetica Neue',sans-serif">Jan</text>
  <text x="179.670839" y="28.666667" fill="#333333" font-size="14.666667" font-family="Arial,Helvetica,'Helvetica Neue',sans-serif">Feb</text>
  <text x="267.994618" y="28.666667" fill="#333333" font-size="14.666667" font-family="Arial,Helvetica,'Helvetica Neue',sans-serif">Mar</text>
  <text x="357.529351" y="28.666667" fill="#333333" font-size="14.666667" font-family="Arial,Helvetica,'Helvetica Neue',sans-serif">Apr</text>
  <text x="443.400021" y="28.666667" fill="#333333" font-size="14.666667" font-family="Arial,Helvetica,'Helvetica Neue',sans-serif">May</text>
  <text x="533.747222" y="28.666667" fill="#333333" font-size="14.666667" font-family="Arial,Helvetica,'Helvetica Neue',sans-serif">Jun</text>
  <text x="624.508549" y="28.666667" fill="#333333" font-size="14.666667" font-family="Arial,Helvetica,'Helvetica Neue',sans-serif">Jul</text>
  <text x="709.160438" y="28.666667" fill="#333333" font-size="14.666667" font-family="Arial,Helvetica,'Helvetica Neue',sans-serif">Aug</text>
  <text x="797.476389" y="28.666667" fill="#333333" font-size="14.666667" font-family="Arial,Helvetica,'Helvetica Neue',sans-serif">Sep</text>
  <text x="887.425216" y="28.666667" fill="#333333" font-size="14.666667" font-family="Arial,Helvetica,'Helvetica Neue',sans-serif">Oct</text>
  <text x="974.108354" y="28.666667" fill="#333333" font-size="14.666667" font-family="Arial,Helvetica,'Helvetica Neue',sans-serif">Nov</text>
  <text x="1062.424306" y="28.666667" fill="#333333" font-size="14.666667" font-family="Arial,Helvetica,'Helvetica Neue',sans-serif">Dec</text>
  <path stroke-width="1.333333" stroke="#a8a8a8" fill="none" d="M1119.629167 44.4 L1119.629167 435.6 "/>
  <path stroke-width="1.333333" stroke="#a8a8a8" fill="none" d="M1119.629167 435.6 L1114.295833 435.6 "/>
  <path stroke-width="1.333333" stroke="#a8a8a8" fill="none" d="M1119.629167 379.714283 L1114.295833 379.714283 "/>
  <path stroke-width="1.333333" stroke="#a8a8a8" fill="none" d="M1119.629167 323.828566 L1114.295833 323.828566 "/>
  <path stroke-width="1.333333" stroke="#a8a8a8" fill="none" d="M1119.629167 267.942844 L1114.295833 267.942844 "/>
  <path stroke-width="1.333333" stroke="#a8a8a8" fill="none" d="M1119.629167 212.057133 L1114.295833 212.057133 "/>
  <path stroke-width="1.333333" stroke="#a8a8a8" fill="none" d="M1119.629167 156.171422 L1114.295833 156.171422 "/>
  <path stroke-width="1.333333" stroke="#a8a8a8" fill="none" d="M1119.629167 100.285688 L1114.295833 100.285688 "/>
  <path stroke-width="1.333333" stroke="#a8a8a8" fill="none" d="M1119.629167 44.4 L1114.295833 44.4 "/>
  <text x="1131.362500" y="440.600000" fill="#333333" font-size="14.666667" font-family="Arial,Helvetica,'Helvetica Neue',sans-serif">-30.0</text>
  <text x="1131.362500" y="384.714283" fill="#333333" font-size="14.666667" font-family="Arial,Helvetica,'Helvetica Neue',sans-serif">-20.0</text>
  <text x="1131.362500" y="328.828566" fill="#333333" font-size="14.666667" font-family="Arial,Helvetica,'Helvetica Neue',sans-serif">-10.0</text>
  <text x="1131.362500" y="272.942844" fill="#333333" font-size="14.666667" font-family="Arial,Helvetica,'Helvetica Neue',sans-serif">0.0</text>
  <text x="1131.362500" y="217.057133" fill="#333333" font-size="14.666667" font-family="Arial,Helvetica,'Helvetica Neue',sans-serif">10.0</text>
  <text x="1131.362500" y="161.171422" fill="#333333" font-size="14.666667" font-family="Arial,Helvetica,'Helvetica Neue',sans-serif">20.0</text>
  <text x="1131.362500" y="105.285688" fill="#333333" font-size="14.666667" font-family="Arial,Helvetica,'Helvetica Neue',sans-serif">30.0</text>
  <text x="1131.362500" y="49.400000" fill="#333333" font-size="14.666667" font-family="Arial,Helvetica,'Helvetica Neue',sans-serif">40.0</text>
  <path stroke-width="1.333333" stroke="#a8a8a8" fill="none" d="M59.8375 435.6 L1119.629167 435.6 "/>
  <path stroke-width="1.333333" stroke="#a8a8a8" fill="none" d="M59.8375 435.6 L59.8375 430.266667 "/>
  <path stroke-width="1.333333" stroke="#a8a8a8" fill="none" d="M148.153475 435.6 L148.153475 430.266667 "/>
  <path stroke-width="1.333333" stroke="#a8a8a8" fill="none" d="M236.46945 435.6 L236.46945 430.266667 "/>
  <path stroke-width="1.333333" stroke="#a8a8a8" fill="none" d="M324.785417 435.6 L324.785417 430.266667 "/>
  <path stroke-width="1.333333" stroke="#a8a8a8" fill="none" d="M413.101399 435.6 L413.101399 430.266667 "/>
  <path stroke-width="1.333333" stroke="#a8a8a8" fill="none" d="M501.417382 435.6 L501.417382 430.266667 "/>
  <path stroke-width="1.333333" stroke="#a8a8a8" fill="none" d="M589.733333 435.6 L589.733333 430.266667 "/>
  <path stroke-width="1.333333" stroke="#a8a8a8" fill="none" d="M678.049348 435.6 L678.049348 430.266667 "/>
  <path stroke-width="1.333333" stroke="#a8a8a8" fill="none" d="M766.365299 435.6 L766.365299 430.266667 "/>
  <path stroke-width="1.333333" stroke="#a8a8a8" fill="none" d="M854.68125 435.6 L854.68125 430.266667 "/>
  <path stroke-width="1.333333" stroke="#a8a8a8" fill="none" d="M942.997264 435.6 L942.997264 430.266667 "/>
  <path stroke-width="1.333333" stroke="#a8a8a8" fill="none" d="M1031.313216 435.6 L1031.313216 430.266667 "/>
  <path stroke-width="1.333333" stroke="#a8a8a8" fill="none" d="M1119.629167 435.6 L1119.629167 430.266667 "/>
  <text x="92.167364" y="461.333333" fill="#333333" font-size="14.666667" font-family="Arial,Helvetica,'Helvetica Neue',sans-serif">Jan</text>
  <text x="179.670839" y="461.333333" fill="#333333" font-size="14.666667" font-family="Arial,Helvetica,'Helvetica Neue',sans-serif">Feb</text>
  <text x="267.994618" y="461.333333" fill="#333333" font-size="14.666667" font-family="Arial,Helvetica,'Helvetica Neue',sans-serif">Mar</text>
  <text x="357.529351" y="461.333333" fill="#333333" font-size="14.666667" font-family="Arial,Helvetica,'Helvetica Neue',sans-serif">Apr</text>
  <text x="443.400021" y="461.333333" fill="#333333" font-size="14.666667" font-family="Arial,Helvetica,'Helvetica Neue',sans-serif">May</text>
  <text x="533.747222" y="461.333333" fill="#333333" font-size="14.666667" font-family="Arial,Helvetica,'Helvetica Neue',sans-serif">Jun</text>
  <text x="624.508549" y="461.333333" fill="#333333" font-size="14.666667" font-family="Arial,Helvetica,'Helvetica Neue',sans-serif">Jul</text>
  <text x="709.160438" y="461.333333" fill="#333333" font-size="14.666667" font-family="Arial,Helvetica,'Helvetica Neue',sans-serif">Aug</text>
  <text x="797.476389" y="461.333333" fill="#333333" font-size="14.666667" font-family="Arial,Helvetica,'Helvetica Neue',sans-serif">Sep</text>
  <text x="887.425216" y="461.333333" fill="#333333" font-size="14.666667" font-family="Arial,Helvetica,'Helvetica Neue',sans-serif">Oct</text>
  <text x="974.108354" y="461.333333" fill="#333333" font-size="14.666667" font-family="Arial,Helvetica,'Helvetica Neue',sans-serif">Nov</text>
  <text x="1062.424306" y="461.333333" fill="#333333" font-size="14.666667" font-family="Arial,Helvetica,'Helvetica Neue',sans-serif">Dec</text>
  <path stroke-width="1.333333" stroke="#a8a8a8" fill="none" d="M59.8375 44.4 L59.8375 435.6 "/>
  <path stroke-width="1.333333" stroke="#a8a8a8" fill="none" d="M59.8375 435.6 L65.170833 435.6 "/>
  <path stroke-width="1.333333" stroke="#a8a8a8" fill="none" d="M59.8375 379.714283 L65.170833 379.714283 "/>
  <path stroke-width="1.333333" stroke="#a8a8a8" fill="none" d="M59.8375 323.828566 L65.170833 323.828566 "/>
  <path stroke-width="1.333333" stroke="#a8a8a8" fill="none" d="M59.8375 267.942844 L65.170833 267.942844 "/>
  <path stroke-width="1.333333" stroke="#a8a8a8" fill="none" d="M59.8375 212.057133 L65.170833 212.057133 "/>
  <path stroke-width="1.333333" stroke="#a8a8a8" fill="none" d="M59.8375 156.171422 L65.170833 156.171422 "/>
  <path stroke-width="1.333333" stroke="#a8a8a8" fill="none" d="M59.8375 100.285688 L65.170833 100.285688 "/>
  <path stroke-width="1.333333" stroke="#a8a8a8" fill="none" d="M59.8375 44.4 L65.170833 44.4 "/>
  <text x="14.666667" y="440.600000" fill="#333333" font-size="14.666667" font-family="Arial,Helvetica,'Helvetica Neue',sans-serif">-30.0</text>
  <text x="14.666667" y="384.714283" fill="#333333" font-size="14.666667" font-family="Arial,Helvetica,'Helvetica Neue',sans-serif">-20.0</text>
  <text x="14.666667" y="328.828566" fill="#333333" font-size="14.666667" font-family="Arial,Helvetica,'Helvetica Neue',sans-serif">-10.0</text>
  <text x="27.713542" y="272.942844" fill="#333333" font-size="14.666667" font-family="Arial,Helvetica,'Helvetica Neue',sans-serif">0.0</text>
  <text x="19.557292" y="217.057133" fill="#333333" font-size="14.666667" font-family="Arial,Helvetica,'Helvetica Neue',sans-serif">10.0</text>
  <text x="19.557292" y="161.171422" fill="#333333" font-size="14.666667" font-family="Arial,Helvetica,'Helvetica Neue',sans-serif">20.0</text>
  <text x="19.557292" y="105.285688" fill="#333333" font-size="14.666667" font-family="Arial,Helvetica,'Helvetica Neue',sans-serif">30.0</text>
  <text x="19.557292" y="49.400000" fill="#333333" font-size="14.666667" font-family="Arial,Helvetica,'Helvetica Neue',sans-serif">40.0</text>
  <path stroke-width="2.666667" stroke="#4572a7" fill="none" d="M103.995486 269.060571 L192.311458 263.472 L280.627431 236.088 L368.943403 204.792 L457.259375 172.937143 L545.575347 144.994286 L633.891319 129.346286 L722.207292 133.258286 L810.523264 155.612571 L898.839236 189.144 L987.155208 219.881143 L1075.471181 253.971429 "/>
  <path stroke-width="2.666667" stroke="#aa4643" fill="none" d="M103.995486 309.298286 L192.311458 300.356571 L280.627431 268.501714 L368.943403 228.264 L457.259375 185.790857 L545.575347 169.025143 L633.891319 152.818286 L722.207292 162.877714 L810.523264 197.526857 L898.839236 233.852571 L987.155208 261.795429 L1075.471181 288.061714 "/>
  <path stroke-width="2.666667" stroke="#89a54e" fill="none" d="M103.995486 290.297143 L192.311458 275.766857 L280.627431 237.764571 L368.943403 192.497143 L457.259375 156.730286 L545.575347 132.140571 L633.891319 120.963429 L722.207292 128.787429 L810.523264 156.730286 L898.839236 194.732571 L987.155208 241.676571 L1075.471181 278.002286 "/>
  <path stroke-width="2.666667" stroke="#80699b" fill="none" d="M103.995486 272.972571 L192.311458 264.589714 L280.627431 248.382857 L368.943403 220.998857 L457.259375 192.497143 L545.575347 172.937143 L633.891319 163.995429 L722.207292 167.907429 L810.523264 188.026286 L898.839236 217.645714 L987.155208 246.147429 L1075.471181 262.354286 "/>
  <path fill="#4572a7" d="M107.995486 269.060571 M99.995486 269.060571 a4.0 4.0 0 1 0 8.0 0 a4.0 4.0 0 1 0 -8.0 0 "/>
  <path fill="#4572a7" d="M196.311458 263.472 M188.311458 263.472 a4.0 4.0 0 1 0 8.0 0 a4.0 4.0 0 1 0 -8.0 0 "/>
  <path fill="#4572a7" d="M284.627431 236.088 M276.627431 236.088 a4.0 4.0 0 1 0 8.0 0 a4.0 4.0 0 1 0 -8.0 0 "/>
  <path fill="#4572a7" d="M372.943403 204.792 M364.943403 204.792 a4.0 4.0 0 1 0 8.0 0 a4.0 4.0 0 1 0 -8.0 0 "/>
  <path fill="#4572a7" d="M461.259375 172.937143 M453.259375 172.937143 a4.0 4.0 0 1 0 8.0 0 a4.0 4.0 0 1 0 -8.0 0 "/>
  <path fill="#4572a7" d="M549.575347 144.994286 M541.575347 144.994286 a4.0 4.0 0 1 0 8.0 0 a4.0 4.0 0 1 0 -8.0 0 "/>
  <path fill="#4572a7" d="M637.891319 129.346286 M629.891319 129.346286 a4.0 4.0 0 1 0 8.0 0 a4.0 4.0 0 1 0 -8.0 0 "/>
  <path fill="#4572a7" d="M726.207292 133.258286 M718.207292 133.258286 a4.0 4.0 0 1 0 8.0 0 a4.0 4.0 0 1 0 -8.0 0 "/>
  <path fill="#4572a7" d="M814.523264 155.612571 M806.523264 155.612571 a4.0 4.0 0 1 0 8.0 0 a4.0 4.0 0 1 0 -8.0 0 "/>
  <path fill="#4572a7" d="M902.839236 189.144 M894.839236 189.144 a4.0 4.0 0 1 0 8.0 0 a4.0 4.0 0 1 0 -8.0 0 "/>
  <path fill="#4572a7" d="M991.155208 219.881143 M983.155208 219.881143 a4.0 4.0 0 1 0 8.0 0 a4.0 4.0 0 1 0 -8.0 0 "/>
  <path fill="#4572a7" d="M1079.471181 253.971429 M1071.471181 253.971429 a4.0 4.0 0 1 0 8.0 0 a4.0 4.0 0 1 0 -8.0 0 "/>
  <path fill="#aa4643" d="M107.995486 309.298286 M99.995486 309.298286 a4.0 4.0 0 1 0 8.0 0 a4.0 4.0 0 1 0 -8.0 0 "/>
  <path fill="#aa4643" d="M196.311458 300.356571 M188.311458 300.356571 a4.0 4.0 0 1 0 8.0 0 a4.0 4.0 0 1 0 -8.0 0 "/>
  <path fill="#aa4643" d="M284.627431 268.501714 M276.627431 268.501714 a4.0 4.0 0 1 0 8.0 0 a4.0 4.0 0 1 0 -8.0 0 "/>
  <path fill="#aa4643" d="M372.943403 228.264 M364.943403 228.264 a4.0 4.0 0 1 0 8.0 0 a4.0 4.0 0 1 0 -8.0 0 "/>
  <path fill="#aa4643" d="M461.259375 185.790857 M453.259375 185.790857 a4.0 4.0 0 1 0 8.0 0 a4.0 4.0 0 1 0 -8.0 0 "/>
  <path fill="#aa4643" d="M549.575347 169.025143 M541.575347 169.025143 a4.0 4.0 0 1 0 8.0 0 a4.0 4.0 0 1 0 -8.0 0 "/>
  <path fill="#aa4643" d="M637.891319 152.818286 M629.891319 152.818286 a4.0 4.0 0 1 0 8.0 0 a4.0 4.0 0 1 0 -8.0 0 "/>
  <path fill="#aa4643" d="M726.207292 162.877714 M718.207292 162.877714 a4.0 4.0 0 1 0 8.0 0 a4.0 4.0 0 1 0 -8.0 0 "/>
  <path fill="#aa4643" d="M814.523264 197.526857 M806.523264 197.526857 a4.0 4.0 0 1 0 8.0 0 a4.0 4.0 0 1 0 -8.0 0 "/>
  <path fill="#aa4643" d="M902.839236 233.852571 M894.839236 233.852571 a4.0 4.0 0 1 0 8.0 0 a4.0 4.0 0 1 0 -8.0 0 "/>
  <path fill="#aa4643" d="M991.155208 261.795429 M983.155208 261.795429 a4.0 4.0 0 1 0 8.0 0 a4.0 4.0 0 1 0 -8.0 0 "/>
  <path fill="#aa4643" d="M1079.471181 288.061714 M1071.471181 288.061714 a4.0 4.0 0 1 0 8.0 0 a4.0 4.0 0 1 0 -8.0 0 "/>
  <path fill="#89a54e" d="M107.995486 290.297143 M99.995486 290.297143 a4.0 4.0 0 1 0 8.0 0 a4.0 4.0 0 1 0 -8.0 0 "/>
  <path fill="#89a54e" d="M196.311458 275.766857 M188.311458 275.766857 a4.0 4.0 0 1 0 8.0 0 a4.0 4.0 0 1 0 -8.0 0 "/>
  <path fill="#89a54e" d="M284.627431 237.764571 M276.627431 237.764571 a4.0 4.0 0 1 0 8.0 0 a4.0 4.0 0 1 0 -8.0 0 "/>
  <path fill="#89a54e" d="M372.943403 192.497143 M364.943403 192.497143 a4.0 4.0 0 1 0 8.0 0 a4.0 4.0 0 1 0 -8.0 0 "/>
  <path fill="#89a54e" d="M461.259375 156.730286 M453.259375 156.730286 a4.0 4.0 0 1 0 8.0 0 a4.0 4.0 0 1 0 -8.0 0 "/>
  <path fill="#89a54e" d="M549.575347 132.140571 M541.575347 132.140571 a4.0 4.0 0 1 0 8.0 0 a4.0 4.0 0 1 0 -8.0 0 "/>
  <path fill="#89a54e" d="M637.891319 120.963429 M629.891319 120.963429 a4.0 4.0 0 1 0 8.0 0 a4.0 4.0 0 1 0 -8.0 0 "/>
  <path fill="#89a54e" d="M726.207292 128.787429 M718.207292 128.787429 a4.0 4.0 0 1 0 8.0 0 a4.0 4.0 0 1 0 -8.0 0 "/>
  <path fill="#89a54e" d="M814.523264 156.730286 M806.523264 156.730286 a4.0 4.0 0 1 0 8.0 0 a4.0 4.0 0 1 0 -8.0 0 "/>
  <path fill="#89a54e" d="M902.839236 194.732571 M894.839236 194.732571 a4.0 4.0 0 1 0 8.0 0 a4.0 4.0 0 1 0 -8.0 0 "/>
  <path fill="#89a54e" d="M991.155208 241.676571 M983.155208 241.676571 a4.0 4.0 0 1 0 8.0 0 a4.0 4.0 0 1 0 -8.0 0 "/>
  <path fill="#89a54e" d="M1079.471181 278.002286 M1071.471181 278.002286 a4.0 4.0 0 1 0 8.0 0 a4.0 4.0 0 1 0 -8.0 0 "/>
  <path fill="#80699b" d="M107.995486 272.972571 M99.995486 272.972571 a4.0 4.0 0 1 0 8.0 0 a4.0 4.0 0 1 0 -8.0 0 "/>
  <path fill="#80699b" d="M196.311458 264.589714 M188.311458 264.589714 a4.0 4.0 0 1 0 8.0 0 a4.0 4.0 0 1 0 -8.0 0 "/>
  <path fill="#80699b" d="M284.627431 248.382857 M276.627431 248.382857 a4.0 4.0 0 1 0 8.0 0 a4.0 4.0 0 1 0 -8.0 0 "/>
  <path fill="#80699b" d="M372.943403 220.998857 M364.943403 220.998857 a4.0 4.0 0 1 0 8.0 0 a4.0 4.0 0 1 0 -8.0 0 "/>
  <path fill="#80699b" d="M461.259375 192.497143 M453.259375 192.497143 a4.0 4.0 0 1 0 8.0 0 a4.0 4.0 0 1 0 -8.0 0 "/>
  <path fill="#80699b" d="M549.575347 172.937143 M541.575347 172.937143 a4.0 4.0 0 1 0 8.0 0 a4.0 4.0 0 1 0 -8.0 0 "/>
  <path fill="#80699b" d="M637.891319 163.995429 M629.891319 163.995429 a4.0 4.0 0 1 0 8.0 0 a4.0 4.0 0 1 0 -8.0 0 "/>
  <path fill="#80699b" d="M726.207292 167.907429 M718.207292 167.907429 a4.0 4.0 0 1 0 8.0 0 a4.0 4.0 0 1 0 -8.0 0 "/>
  <path fill="#80699b" d="M814.523264 188.026286 M806.523264 188.026286 a4.0 4.0 0 1 0 8.0 0 a4.0 4.0 0 1 0 -8.0 0 "/>
  <path fill="#80699b" d="M902.839236 217.645714 M894.839236 217.645714 a4.0 4.0 0 1 0 8.0 0 a4.0 4.0 0 1 0 -8.0 0 "/>
  <path fill="#80699b" d="M991.155208 246.147429 M983.155208 246.147429 a4.0 4.0 0 1 0 8.0 0 a4.0 4.0 0 1 0 -8.0 0 "/>
  <path fill="#80699b" d="M1079.471181 262.354286 M1071.471181 262.354286 a4.0 4.0 0 1 0 8.0 0 a4.0 4.0 0 1 0 -8.0 0 "/>
  <path fill="#4572a7" d="M102.5375 404.8 M92.5375 404.8 a5.0 5.0 0 1 0 10.0 0 a5.0 5.0 0 1 0 -10.0 0 "/>
  <text x="109.037500" y="409.800000" fill="#333333" font-size="14.666667" font-family="Arial,Helvetica,'Helvetica Neue',sans-serif">New York</text>
  <path fill="#aa4643" d="M213.721875 404.8 M203.721875 404.8 a5.0 5.0 0 1 0 10.0 0 a5.0 5.0 0 1 0 -10.0 0 "/>
  <text x="220.221875" y="409.800000" fill="#333333" font-size="14.666667" font-family="Arial,Helvetica,'Helvetica Neue',sans-serif">北京市   </text>
  <path fill="#89a54e" d="M308.15625 404.8 M298.15625 404.8 a5.0 5.0 0 1 0 10.0 0 a5.0 5.0 0 1 0 -10.0 0 "/>
  <text x="314.656250" y="409.800000" fill="#333333" font-size="14.666667" font-family="Arial,Helvetica,'Helvetica Neue',sans-serif">Москва</text>
  <path fill="#80699b" d="M407.45 404.8 M397.45 404.8 a5.0 5.0 0 1 0 10.0 0 a5.0 5.0 0 1 0 -10.0 0 "/>
  <text x="413.950000" y="409.800000" fill="#333333" font-size="14.666667" font-family="Arial,Helvetica,'Helvetica Neue',sans-serif">Berlin</text>
</svg>