<svg xmlns="http://www.w3.org/2000/svg" width="1200.000000" height="280.000000" viewBox="0 0 1200.0 280.0">
  <rect width="1200.000000" height="280.000000" fill="#ffffff"/>
  <path stroke-width="1.333333" stroke="#333333" fill="none" d="M68.436458 230.266667 L1180.0 230.266667 "/>
  <path stroke-width="1.333333" stroke="#333333" fill="none" d="M68.436458 230.266667 L68.436458 224.933333 "/>
  <path stroke-width="1.333333" stroke="#333333" fill="none" d="M227.231257 230.266667 L227.231257 224.933333 "/>
  <path stroke-width="1.333333" stroke="#333333" fill="none" d="M386.026056 230.266667 L386.026056 224.933333 "/>
  <path stroke-width="1.333333" stroke="#333333" fill="none" d="M544.820871 230.266667 L544.820871 224.933333 "/>
  <path stroke-width="1.333333" stroke="#333333" fill="none" d="M703.615653 230.266667 L703.615653 224.933333 "/>
  <path stroke-width="1.333333" stroke="#333333" fill="none" d="M862.410436 230.266667 L862.410436 224.933333 "/>
  <path stroke-width="1.333333" stroke="#333333" fill="none" d="M1021.205284 230.266667 L1021.205284 224.933333 "/>
  <path stroke-width="1.333333" stroke="#333333" fill="none" d="M1180.0 230.266667 L1180.0 224.933333 "/>
  <text x="39.889583" y="256.000000" fill="#333333" font-size="14.666667" font-family="Arial,Helvetica,'Helvetica Neue',sans-serif">05:15:44</text>
  <text x="198.684382" y="256.000000" fill="#333333" font-size="14.666667" font-family="Arial,Helvetica,'Helvetica Neue',sans-serif">06:06:56</text>
  <text x="357.479181" y="256.000000" fill="#333333" font-size="14.666667" font-family="Arial,Helvetica,'Helvetica Neue',sans-serif">06:58:08</text>
  <text x="516.273996" y="256.000000" fill="#333333" font-size="14.666667" font-family="Arial,Helvetica,'Helvetica Neue',sans-serif">07:49:20</text>
  <text x="675.068778" y="256.000000" fill="#333333" font-size="14.666667" font-family="Arial,Helvetica,'Helvetica Neue',sans-serif">08:40:32</text>
  <text x="833.863561" y="256.000000" fill="#333333" font-size="14.666667" font-family="Arial,Helvetica,'Helvetica Neue',sans-serif">09:31:44</text>
  <text x="992.658409" y="256.000000" fill="#333333" font-size="14.666667" font-family="Arial,Helvetica,'Helvetica Neue',sans-serif">10:22:56</text>
  <text x="1152.000000" y="256.000000" fill="#333333" font-size="14.666667" font-family="Arial,Helvetica,'Helvetica Neue',sans-serif">11:14:08</text>
  <path stroke-width="1.333333" stroke="#333333" fill="none" d="M68.436458 20.0 L68.436458 230.266667 "/>
  <path stroke-width="1.333333" stroke="#333333" fill="none" d="M68.436458 20.0 L73.769792 20.0 "/>
  <path stroke-width="1.333333" stroke="#333333" fill="none" d="M68.436458 50.038095 L73.769792 50.038095 "/>
  <path stroke-width="1.333333" stroke="#333333" fill="none" d="M68.436458 80.07619 L73.769792 80.07619 "/>
  <path stroke-width="1.333333" stroke="#333333" fill="none" d="M68.436458 110.114286 L73.769792 110.114286 "/>
  <path stroke-width="1.333333" stroke="#333333" fill="none" d="M68.436458 140.152381 L73.769792 140.152381 "/>
  <path stroke-width="1.333333" stroke="#333333" fill="none" d="M68.436458 170.190476 L73.769792 170.190476 "/>
  <path stroke-width="1.333333" stroke="#333333" fill="none" d="M68.436458 200.228571 L73.769792 200.228571 "/>
  <path stroke-width="1.333333" stroke="#333333" fill="none" d="M68.436458 230.266667 L73.769792 230.266667 "/>
  <text x="36.312500" y="25.000000" fill="#333333" font-size="14.666667" font-family="Arial,Helvetica,'Helvetica Neue',sans-serif">0.0</text>
  <text x="28.156250" y="55.038095" fill="#333333" font-size="14.666667" font-family="Arial,Helvetica,'Helvetica Neue',sans-serif">20.0</text>
  <text x="28.156250" y="85.076190" fill="#333333" font-size="14.666667" font-family="Arial,Helvetica,'Helvetica Neue',sans-serif">40.0</text>
  <text x="28.156250" y="115.114286" fill="#333333" font-size="14.666667" font-family="Arial,Helvetica,'Helvetica Neue',sans-serif">60.0</text>
  <text x="28.156250" y="145.152381" fill="#333333" font-size="14.666667" font-family="Arial,Helvetica,'Helvetica Neue',sans-serif">80.0</text>
  <text x="20.000000" y="175.190476" fill="#333333" font-size="14.666667" font-family="Arial,Helvetica,'Helvetica Neue',sans-serif">100.0</text>
  <text x="20.000000" y="205.228571" fill="#333333" font-size="14.666667" font-family="Arial,Helvetica,'Helvetica Neue',sans-serif">120.0</text>
  <text x="20.000000" y="235.266667" fill="#333333" font-size="14.666667" font-family="Arial,Helvetica,'Helvetica Neue',sans-serif">140.0</text>
  <path stroke-width="2.000000" stroke="#0066cc" fill="none" d="M68.436458 67.294713 L81.669358 63.35495 L97.176662 31.749437 L112.683965 33.180104 L128.191269 39.839189 L143.698573 24.664768 L159.205877 23.559895 L174.713181 33.150371 L190.220485 42.161543 L205.727789 23.892681 L221.235093 34.969913 L236.742396 30.769114 L252.2497 54.855642 L267.757004 47.178619 L283.264308 36.995 L298.771612 48.774817 L314.278916 35.052395 L329.78622 29.206595 L345.293523 24.397004 L360.800827 24.205718 L376.308131 24.229742 L391.815435 46.219634 L407.322739 130.125094 L422.830043 194.038121 L438.337347 191.026975 L453.844651 185.539568 L469.351954 110.924208 L484.859258 91.00025 L500.366562 53.497904 L515.873866 34.049349 L531.38117 27.197876 L546.888474 28.997691 L562.395778 26.807945 L577.903082 28.984544 L593.410385 50.594416 L608.917689 52.485293 L624.424993 53.25166 L639.932297 61.680063 L655.439601 57.805681 L670.946905 51.158019 L686.454209 54.30848 L701.961513 65.071386 L717.468816 81.722734 L732.97612 79.83684 L748.483424 90.785985 L763.990728 73.515928 L779.498032 65.811207 L795.005336 47.974625 L810.51264 57.250048 L826.019944 87.978203 L841.527247 93.878655 L857.034551 79.087949 L872.541855 76.023361 L888.049159 80.252643 L903.556463 88.098039 L919.063767 56.963229 L934.571071 46.854397 L950.078375 74.677497 L965.585678 56.574323 L981.092982 36.372824 L996.600286 38.482567 L1012.10759 59.418417 L1027.614894 43.861327 L1043.122198 42.201203 L1058.629502 39.096441 L1074.136806 42.384718 L1089.644109 39.276747 L1105.151413 50.909129 L1120.658717 40.719613 L1136.166021 47.081153 L1151.673325 53.457024 L1167.180629 47.810853 L1180.0 36.498618 "/>
</svg>