<svg xmlns="http://www.w3.org/2000/svg" width="1200.000000" height="480.000000" viewBox="0 0 1200.0 480.0">
  <rect width="1200.000000" height="480.000000" fill="#ffffff"/>
  <path stroke-width="1.333333" stroke="#a8a8a8" fill="none" d="M59.8375 44.4 L1140.1625 44.4 "/>
  <path stroke-width="1.333333" stroke="#a8a8a8" fill="none" d="M59.8375 44.4 L59.8375 49.733333 "/>
  <path stroke-width="1.333333" stroke="#a8a8a8" fill="none" d="M149.864586 44.4 L149.864586 49.733333 "/>
  <path stroke-width="1.333333" stroke="#a8a8a8" fill="none" d="M239.891672 44.4 L239.891672 49.733333 "/>
  <path stroke-width="1.333333" stroke="#a8a8a8" fill="none" d="M329.91875 44.4 L329.91875 49.733333 "/>
  <path stroke-width="1.333333" stroke="#a8a8a8" fill="none" d="M419.945844 44.4 L419.945844 49.733333 "/>
  <path stroke-width="1.333333" stroke="#a8a8a8" fill="none" d="M509.972938 44.4 L509.972938 49.733333 "/>
  <path stroke-width="1.333333" stroke="#a8a8a8" fill="none" d="M600.0 44.4 L600.0 49.733333 "/>
  <path stroke-width="1.333333" stroke="#a8a8a8" fill="none" d="M690.027126 44.4 L690.027126 49.733333 "/>
  <path stroke-width="1.333333" stroke="#a8a8a8" fill="none" d="M780.054188 44.4 L780.054188 49.733333 "/>
  <path stroke-width="1.333333" stroke="#a8a8a8" fill="none" d="M870.08125 44.4 L870.08125 49.733333 "/>
  <path stroke-width="1.333333" stroke="#a8a8a8" fill="none" d="M960.108376 44.4 L960.108376 49.733333 "/>
  <path stroke-width="1.333333" stroke="#a8a8a8" fill="none" d="M1050.135438 44.4 L1050.135438 49.733333 "/>
  <path stroke-width="1.333333" stroke="#a8a8a8" fill="none" d="M1140.1625 44.4 L1140.1625 49.733333 "/>
  <text x="93.022919" y="28.666667" fill="#333333" font-size="14.666667" font-family="Arial,Helvetica,'Helvetica Neue',sans-serif">Jan</text>
  <text x="182.237505" y="28.666667" fill="#333333" font-size="14.666667" font-family="Arial,Helvetica,'Helvetica Neue',sans-serif">Feb</text>
  <text x="272.272396" y="28.666667" fill="#333333" font-size="14.666667" font-family="Arial,Helvetica,'Helvetica Neue',sans-serif">Mar</text>
  <text x="363.518240" y="28.666667" fill="#333333" font-size="14.666667" font-family="Arial,Helvetica,'Helvetica Neue',sans-serif">Apr</text>
  <text x="451.100021" y="28.666667" fill="#333333" font-size="14.666667" font-family="Arial,Helvetica,'Helvetica Neue',sans-serif">May</text>
  <text x="543.158333" y="28.666667" fill="#333333" font-size="14.666667" font-family="Arial,Helvetica,'Helvetica Neue',sans-serif">Jun</text>
  <text x="635.630772" y="28.666667" fill="#333333" font-size="14.666667" font-family="Arial,Helvetica,'Helvetica Neue',sans-serif">Jul</text>
  <text x="721.993771" y="28.666667" fill="#333333" font-size="14.666667" font-family="Arial,Helvetica,'Helvetica Neue',sans-serif">Aug</text>
  <text x="812.020833" y="28.666667" fill="#333333" font-size="14.666667" font-family="Arial,Helvetica,'Helvetica Neue',sans-serif">Sep</text>
  <text x="903.680772" y="28.666667" fill="#333333" font-size="14.666667" font-family="Arial,Helvetica,'Helvetica Neue',sans-serif">Oct</text>
  <text x="992.075021" y="28.666667" fill="#333333" font-size="14.666667" font-family="Arial,Helvetica,'Helvetica Neue',sans-serif">Nov</text>
  <text x="1082.102083" y="28.666667" fill="#333333" font-size="14.666667" font-family="Arial,Helvetica,'Helvetica Neue',sans-serif">Dec</text>
  <path stroke-width="1.333333" stroke="#a8a8a8" fill="none" d="M1140.1625 44.4 L1140.1625 435.6 "/>
  <path stroke-width="1.333333" stroke="#a8a8a8" fill="none" d="M1140.1625 435.6 L1134.829167 435.6 "/>
  <path stroke-width="1.333333" stroke="#a8a8a8" fill="none" d="M1140.1625 379.714283 L1134.829167 379.714283 "/>
  <path stroke-width="1.333333" stroke="#a8a8a8" fill="none" d="M1140.1625 323.828566 L1134.829167 323.828566 "/>
  <path stroke-width="1.333333" stroke="#a8a8a8" fill="none" d="M1140.1625 267.942844 L1134.829167 267.942844 "/>
  <path stroke-width="1.333333" stroke="#a8a8a8" fill="none" d="M1140.1625 212.057133 L1134.829167 212.057133 "/>
  <path stroke-width="1.333333" stroke="#a8a8a8" fill="none" d="M1140.1625 156.171422 L1134.829167 156.171422 "/>
  <path stroke-width="1.333333" stroke="#a8a8a8" fill="none" d="M1140.1625 100.285688 L1134.829167 100.285688 "/>
  <path stroke-width="1.333333" stroke="#a8a8a8" fill="none" d="M1140.1625 44.4 L1134.829167 44.4 "/>
  <text x="1151.895833" y="440.600000" fill="#333333" font-size="14.666667" font-family="Arial,Helvetica,'Helvetica Neue',sans-serif">32.0</text>
  <text x="1151.895833" y="384.714283" fill="#333333" font-size="14.666667" font-family="Arial,Helvetica,'Helvetica Neue',sans-serif">26.0</text>
  <text x="1151.895833" y="328.828566" fill="#333333" font-size="14.666667" font-family="Arial,Helvetica,'Helvetica Neue',sans-serif">20.0</text>
  <text x="1151.895833" y="272.942844" fill="#333333" font-size="14.666667" font-family="Arial,Helvetica,'Helvetica Neue',sans-serif">14.0</text>
  <text x="1151.895833" y="217.057133" fill="#333333" font-size="14.666667" font-family="Arial,Helvetica,'Helvetica Neue',sans-serif">8.0</text>
  <text x="1151.895833" y="161.171422" fill="#333333" font-size="14.666667" font-family="Arial,Helvetica,'Helvetica Neue',sans-serif">2.0</text>
  <text x="1151.895833" y="105.285688" fill="#333333" font-size="14.666667" font-family="Arial,Helvetica,'Helvetica Neue',sans-serif">-4.0</text>
  <text x="1151.895833" y="49.400000" fill="#333333" font-size="14.666667" font-family="Arial,Helvetica,'Helvetica Neue',sans-serif">-10.0</text>
  <path stroke-width="1.333333" stroke="#a8a8a8" fill="none" d="M59.8375 435.6 L1140.1625 435.6 "/>
  <path stroke-width="1.333333" stroke="#a8a8a8" fill="none" d="M59.8375 435.6 L59.8375 430.266667 "/>
  <path stroke-width="1.333333" stroke="#a8a8a8" fill="none" d="M149.864586 435.6 L149.864586 430.266667 "/>
  <path stroke-width="1.333333" stroke="#a8a8a8" fill="none" d="M239.891672 435.6 L239.891672 430.266667 "/>
  <path stroke-width="1.333333" stroke="#a8a8a8" fill="none" d="M329.91875 435.6 L329.91875 430.266667 "/>
  <path stroke-width="1.333333" stroke="#a8a8a8" fill="none" d="M419.945844 435.6 L419.945844 430.266667 "/>
  <path stroke-width="1.333333" stroke="#a8a8a8" fill="none" d="M509.972938 435.6 L509.972938 430.266667 "/>
  <path stroke-width="1.333333" stroke="#a8a8a8" fill="none" d="M600.0 435.6 L600.0 430.266667 "/>
  <path stroke-width="1.333333" stroke="#a8a8a8" fill="none" d="M690.027126 435.6 L690.027126 430.266667 "/>
  <path stroke-width="1.333333" stroke="#a8a8a8" fill="none" d="M780.054188 435.6 L780.054188 430.266667 "/>
  <path stroke-width="1.333333" stroke="#a8a8a8" fill="none" d="M870.08125 435.6 L870.08125 430.266667 "/>
  <path stroke-width="1.333333" stroke="#a8a8a8" fill="none" d="M960.108376 435.6 L960.108376 430.266667 "/>
  <path stroke-width="1.333333" stroke="#a8a8a8" fill="none" d="M1050.135438 435.6 L1050.135438 430.266667 "/>
  <path stroke-width="1.333333" stroke="#a8a8a8" fill="none" d="M1140.1625 435.6 L1140.1625 430.266667 "/>
  <text x="93.022919" y="461.333333" fill="#333333" font-size="14.666667" font-family="Arial,Helvetica,'Helvetica Neue',sans-serif">Jan</text>
  <text x="182.237505" y="461.333333" fill="#333333" font-size="14.666667" font-family="Arial,Helvetica,'Helvetica Neue',sans-serif">Feb</text>
  <text x="272.272396" y="461.333333" fill="#333333" font-size="14.666667" font-family="Arial,Helvetica,'Helvetica Neue',sans-serif">Mar</text>
  <text x="363.518240" y="461.333333" fill="#333333" font-size="14.666667" font-family="Arial,Helvetica,'Helvetica Neue',sans-serif">Apr</text>
  <text x="451.100021" y="461.333333" fill="#333333" font-size="14.666667" font-family="Arial,Helvetica,'Helvetica Neue',sans-serif">May</text>
  <text x="543.158333" y="461.333333" fill="#333333" font-size="14.666667" font-family="Arial,Helvetica,'Helvetica Neue',sans-serif">Jun</text>
  <text x="635.630772" y="461.333333" fill="#333333" font-size="14.666667" font-family="Arial,Helvetica,'Helvetica Neue',sans-serif">Jul</text>
  <text x="721.993771" y="461.333333" fill="#333333" font-size="14.666667" font-family="Arial,Helvetica,'Helvetica Neue',sans-serif">Aug</text>
  <text x="812.020833" y="461.333333" fill="#333333" font-size="14.666667" font-family="Arial,Helvetica,'Helvetica Neue',sans-serif">Sep</text>
  <text x="903.680772" y="461.333333" fill="#333333" font-size="14.666667" font-family="Arial,Helvetica,'Helvetica Neue',sans-serif">Oct</text>
  <text x="992.075021" y="461.333333" fill="#333333" font-size="14.666667" font-family="Arial,Helvetica,'Helvetica Neue',sans-serif">Nov</text>
  <text x="1082.102083" y="461.333333" fill="#333333" font-size="14.666667" font-family="Arial,Helvetica,'Helvetica Neue',sans-serif">Dec</text>
  <path stroke-width="1.333333" stroke="#a8a8a8" fill="none" d="M59.8375 44.4 L59.8375 435.6 "/>
  <path stroke-width="1.333333" stroke="#a8a8a8" fill="none" d="M59.8375 435.6 L65.170833 435.6 "/>
  <path stroke-width="1.333333" stroke="#a8a8a8" fill="none" d="M59.8375 379.714283 L65.170833 379.714283 "/>
  <path stroke-width="1.333333" stroke="#a8a8a8" fill="none" d="M59.8375 323.828566 L65.170833 323.828566 "/>
  <path stroke-width="1.333333" stroke="#a8a8a8" fill="none" d="M59.8375 267.942844 L65.170833 267.942844 "/>
  <path stroke-width="1.333333" stroke="#a8a8a8" fill="none" d="M59.8375 212.057133 L65.170833 212.057133 "/>
  <path stroke-width="1.333333" stroke="#a8a8a8" fill="none" d="M59.8375 156.171422 L65.170833 156.171422 "/>
  <path stroke-width="1.333333" stroke="#a8a8a8" fill="none" d="M59.8375 100.285688 L65.170833 100.285688 "/>
  <path stroke-width="1.333333" stroke="#a8a8a8" fill="none" d="M59.8375 44.4 L65.170833 44.4 "/>
  <text x="19.557292" y="440.600000" fill="#333333" font-size="14.666667" font-family="Arial,Helvetica,'Helvetica Neue',sans-serif">32.0</text>
  <text x="19.557292" y="384.714283" fill="#333333" font-size="14.666667" font-family="Arial,Helvetica,'Helvetica Neue',sans-serif">26.0</text>
  <text x="19.557292" y="328.828566" fill="#333333" font-size="14.666667" font-family="Arial,Helvetica,'Helvetica Neue',sans-serif">20.0</text>
  <text x="19.557292" y="272.942844" fill="#333333" font-size="14.666667" font-family="Arial,Helvetica,'Helvetica Neue',sans-serif">14.0</text>
  <text x="27.713542" y="217.057133" fill="#333333" font-size="14.666667" font-family="Arial,Helvetica,'Helvetica Neue',sans-serif">8.0</text>
  <text x="27.713542" y="161.171422" fill="#333333" font-size="14.666667" font-family="Arial,Helvetica,'Helvetica Neue',sans-serif">2.0</text>
  <text x="22.822917" y="105.285688" fill="#333333" font-size="14.666667" font-family="Arial,Helvetica,'Helvetica Neue',sans-serif">-4.0</text>
  <text x="14.666667" y="49.400000" fill="#333333" font-size="14.666667" font-family="Arial,Helvetica,'Helvetica Neue',sans-serif">-10.0</text>
  <path stroke-width="2.666667" stroke="#4572a7" fill="none" d="M104.851042 135.68 L194.878125 144.994286 L284.905208 190.634286 L374.932292 242.794286 L464.959375 295.885714 L554.986458 342.457143 L645.013542 368.537143 L735.040625 362.017143 L825.067708 324.76 L915.094792 268.874286 L1005.121875 217.645714 L1095.148958 160.828571 "/>
  <path fill="#4572a7" d="M109.251042 135.68 M100.451042 135.68 a4.4 4.4 0 1 0 8.8 0 a4.4 4.4 0 1 0 -8.8 0 "/>
  <path fill="#4572a7" d="M199.278125 144.994286 M190.478125 144.994286 a4.4 4.4 0 1 0 8.8 0 a4.4 4.4 0 1 0 -8.8 0 "/>
  <path fill="#4572a7" d="M289.305208 190.634286 M280.505208 190.634286 a4.4 4.4 0 1 0 8.8 0 a4.4 4.4 0 1 0 -8.8 0 "/>
  <path fill="#4572a7" d="M379.332292 242.794286 M370.532292 242.794286 a4.4 4.4 0 1 0 8.8 0 a4.4 4.4 0 1 0 -8.8 0 "/>
  <path fill="#4572a7" d="M469.359375 295.885714 M460.559375 295.885714 a4.4 4.4 0 1 0 8.8 0 a4.4 4.4 0 1 0 -8.8 0 "/>
  <path fill="#4572a7" d="M559.386458 342.457143 M550.586458 342.457143 a4.4 4.4 0 1 0 8.8 0 a4.4 4.4 0 1 0 -8.8 0 "/>
  <path fill="#4572a7" d="M649.413542 368.537143 M640.613542 368.537143 a4.4 4.4 0 1 0 8.8 0 a4.4 4.4 0 1 0 -8.8 0 "/>
  <path fill="#4572a7" d="M739.440625 362.017143 M730.640625 362.017143 a4.4 4.4 0 1 0 8.8 0 a4.4 4.4 0 1 0 -8.8 0 "/>
  <path fill="#4572a7" d="M829.467708 324.76 M820.667708 324.76 a4.4 4.4 0 1 0 8.8 0 a4.4 4.4 0 1 0 -8.8 0 "/>
  <path fill="#4572a7" d="M919.494792 268.874286 M910.694792 268.874286 a4.4 4.4 0 1 0 8.8 0 a4.4 4.4 0 1 0 -8.8 0 "/>
  <path fill="#4572a7" d="M1009.521875 217.645714 M1000.721875 217.645714 a4.4 4.4 0 1 0 8.8 0 a4.4 4.4 0 1 0 -8.8 0 "/>
  <path fill="#4572a7" d="M1099.548958 160.828571 M1090.748958 160.828571 a4.4 4.4 0 1 0 8.8 0 a4.4 4.4 0 1 0 -8.8 0 "/>
  <path stroke-width="2.666667" stroke="#aa4643" fill="none" d="M104.851042 100.285714 L194.878125 124.502857 L284.905208 187.84 L374.932292 263.285714 L464.959375 322.897143 L554.986458 363.88 L645.013542 382.508571 L735.040625 369.468571 L825.067708 322.897143 L915.094792 259.56 L1005.121875 181.32 L1095.148958 120.777143 "/>
  <path fill="#aa4643" d="M109.251042 100.285714 M100.451042 100.285714 a4.4 4.4 0 1 0 8.8 0 a4.4 4.4 0 1 0 -8.8 0 "/>
  <path fill="#aa4643" d="M199.278125 124.502857 M190.478125 124.502857 a4.4 4.4 0 1 0 8.8 0 a4.4 4.4 0 1 0 -8.8 0 "/>
  <path fill="#aa4643" d="M289.305208 187.84 M280.505208 187.84 a4.4 4.4 0 1 0 8.8 0 a4.4 4.4 0 1 0 -8.8 0 "/>
  <path fill="#aa4643" d="M379.332292 263.285714 M370.532292 263.285714 a4.4 4.4 0 1 0 8.8 0 a4.4 4.4 0 1 0 -8.8 0 "/>
  <path fill="#aa4643" d="M469.359375 322.897143 M460.559375 322.897143 a4.4 4.4 0 1 0 8.8 0 a4.4 4.4 0 1 0 -8.8 0 "/>
  <path fill="#aa4643" d="M559.386458 363.88 M550.586458 363.88 a4.4 4.4 0 1 0 8.8 0 a4.4 4.4 0 1 0 -8.8 0 "/>
  <path fill="#aa4643" d="M649.413542 382.508571 M640.613542 382.508571 a4.4 4.4 0 1 0 8.8 0 a4.4 4.4 0 1 0 -8.8 0 "/>
  <path fill="#aa4643" d="M739.440625 369.468571 M730.640625 369.468571 a4.4 4.4 0 1 0 8.8 0 a4.4 4.4 0 1 0 -8.8 0 "/>
  <path fill="#aa4643" d="M829.467708 322.897143 M820.667708 322.897143 a4.4 4.4 0 1 0 8.8 0 a4.4 4.4 0 1 0 -8.8 0 "/>
  <path fill="#aa4643" d="M919.494792 259.56 M910.694792 259.56 a4.4 4.4 0 1 0 8.8 0 a4.4 4.4 0 1 0 -8.8 0 "/>
  <path fill="#aa4643" d="M1009.521875 181.32 M1000.721875 181.32 a4.4 4.4 0 1 0 8.8 0 a4.4 4.4 0 1 0 -8.8 0 "/>
  <path fill="#aa4643" d="M1099.548958 120.777143 M1090.748958 120.777143 a4.4 4.4 0 1 0 8.8 0 a4.4 4.4 0 1 0 -8.8 0 "/>
  <path stroke-width="2.666667" stroke="#89a54e" fill="none" d="M104.851042 68.617143 L194.878125 83.52 L284.905208 136.611429 L374.932292 203.674286 L464.959375 274.462857 L554.986458 302.405714 L645.013542 329.417143 L735.040625 312.651429 L825.067708 254.902857 L915.094792 194.36 L1005.121875 147.788571 L1095.148958 104.011429 "/>
  <path fill="#89a54e" d="M109.251042 68.617143 M100.451042 68.617143 a4.4 4.4 0 1 0 8.8 0 a4.4 4.4 0 1 0 -8.8 0 "/>
  <path fill="#89a54e" d="M199.278125 83.52 M190.478125 83.52 a4.4 4.4 0 1 0 8.8 0 a4.4 4.4 0 1 0 -8.8 0 "/>
  <path fill="#89a54e" d="M289.305208 136.611429 M280.505208 136.611429 a4.4 4.4 0 1 0 8.8 0 a4.4 4.4 0 1 0 -8.8 0 "/>
  <path fill="#89a54e" d="M379.332292 203.674286 M370.532292 203.674286 a4.4 4.4 0 1 0 8.8 0 a4.4 4.4 0 1 0 -8.8 0 "/>
  <path fill="#89a54e" d="M469.359375 274.462857 M460.559375 274.462857 a4.4 4.4 0 1 0 8.8 0 a4.4 4.4 0 1 0 -8.8 0 "/>
  <path fill="#89a54e" d="M559.386458 302.405714 M550.586458 302.405714 a4.4 4.4 0 1 0 8.8 0 a4.4 4.4 0 1 0 -8.8 0 "/>
  <path fill="#89a54e" d="M649.413542 329.417143 M640.613542 329.417143 a4.4 4.4 0 1 0 8.8 0 a4.4 4.4 0 1 0 -8.8 0 "/>
  <path fill="#89a54e" d="M739.440625 312.651429 M730.640625 312.651429 a4.4 4.4 0 1 0 8.8 0 a4.4 4.4 0 1 0 -8.8 0 "/>
  <path fill="#89a54e" d="M829.467708 254.902857 M820.667708 254.902857 a4.4 4.4 0 1 0 8.8 0 a4.4 4.4 0 1 0 -8.8 0 "/>
  <path fill="#89a54e" d="M919.494792 194.36 M910.694792 194.36 a4.4 4.4 0 1 0 8.8 0 a4.4 4.4 0 1 0 -8.8 0 "/>
  <path fill="#89a54e" d="M1009.521875 147.788571 M1000.721875 147.788571 a4.4 4.4 0 1 0 8.8 0 a4.4 4.4 0 1 0 -8.8 0 "/>
  <path fill="#89a54e" d="M1099.548958 104.011429 M1090.748958 104.011429 a4.4 4.4 0 1 0 8.8 0 a4.4 4.4 0 1 0 -8.8 0 "/>
  <path stroke-width="2.666667" stroke="#80699b" fill="none" d="M104.851042 129.16 L194.878125 143.131429 L284.905208 170.142857 L374.932292 215.782857 L464.959375 263.285714 L554.986458 295.885714 L645.013542 310.788571 L735.040625 304.268571 L825.067708 270.737143 L915.094792 221.371429 L1005.121875 173.868571 L1095.148958 146.857143 "/>
  <path fill="#80699b" d="M109.251042 129.16 M100.451042 129.16 a4.4 4.4 0 1 0 8.8 0 a4.4 4.4 0 1 0 -8.8 0 "/>
  <path fill="#80699b" d="M199.278125 143.131429 M190.478125 143.131429 a4.4 4.4 0 1 0 8.8 0 a4.4 4.4 0 1 0 -8.8 0 "/>
  <path fill="#80699b" d="M289.305208 170.142857 M280.505208 170.142857 a4.4 4.4 0 1 0 8.8 0 a4.4 4.4 0 1 0 -8.8 0 "/>
  <path fill="#80699b" d="M379.332292 215.782857 M370.532292 215.782857 a4.4 4.4 0 1 0 8.8 0 a4.4 4.4 0 1 0 -8.8 0 "/>
  <path fill="#80699b" d="M469.359375 263.285714 M460.559375 263.285714 a4.4 4.4 0 1 0 8.8 0 a4.4 4.4 0 1 0 -8.8 0 "/>
  <path fill="#80699b" d="M559.386458 295.885714 M550.586458 295.885714 a4.4 4.4 0 1 0 8.8 0 a4.4 4.4 0 1 0 -8.8 0 "/>
  <path fill="#80699b" d="M649.413542 310.788571 M640.613542 310.788571 a4.4 4.4 0 1 0 8.8 0 a4.4 4.4 0 1 0 -8.8 0 "/>
  <path fill="#80699b" d="M739.440625 304.268571 M730.640625 304.268571 a4.4 4.4 0 1 0 8.8 0 a4.4 4.4 0 1 0 -8.8 0 "/>
  <path fill="#80699b" d="M829.467708 270.737143 M820.667708 270.737143 a4.4 4.4 0 1 0 8.8 0 a4.4 4.4 0 1 0 -8.8 0 "/>
  <path fill="#80699b" d="M919.494792 221.371429 M910.694792 221.371429 a4.4 4.4 0 1 0 8.8 0 a4.4 4.4 0 1 0 -8.8 0 "/>
  <path fill="#80699b" d="M1009.521875 173.868571 M1000.721875 173.868571 a4.4 4.4 0 1 0 8.8 0 a4.4 4.4 0 1 0 -8.8 0 "/>
  <path fill="#80699b" d="M1099.548958 146.857143 M1090.748958 146.857143 a4.4 4.4 0 1 0 8.8 0 a4.4 4.4 0 1 0 -8.8 0 "/>
  <path fill="#4572a7" d="M102.5375 404.8 M92.5375 404.8 a5.0 5.0 0 1 0 10.0 0 a5.0 5.0 0 1 0 -10.0 0 "/>
  <text x="109.037500" y="409.800000" fill="#333333" font-size="14.666667" font-family="Arial,Helvetica,'Helvetica Neue',sans-serif">New York</text>
  <path fill="#aa4643" d="M213.721875 404.8 M203.721875 404.8 a5.0 5.0 0 1 0 10.0 0 a5.0 5.0 0 1 0 -10.0 0 "/>
  <text x="220.221875" y="409.800000" fill="#333333" font-size="14.666667" font-family="Arial,Helvetica,'Helvetica Neue',sans-serif">北京市   </text>
  <path fill="#89a54e" d="M308.15625 404.8 M298.15625 404.8 a5.0 5.0 0 1 0 10.0 0 a5.0 5.0 0 1 0 -10.0 0 "/>
  <text x="314.656250" y="409.800000" fill="#333333" font-size="14.666667" font-family="Arial,Helvetica,'Helvetica Neue',sans-serif">Москва</text>
  <path fill="#80699b" d="M407.45 404.8 M397.45 404.8 a5.0 5.0 0 1 0 10.0 0 a5.0 5.0 0 1 0 -10.0 0 "/>
  <text x="413.950000" y="409.800000" fill="#333333" font-size="14.666667" font-family="Arial,Helvetica,'Helvetica Neue',sans-serif">Berlin</text>
</svg>