<svg xmlns="http://www.w3.org/2000/svg" width="1200.000000" height="480.000000" viewBox="0 0 1200.0 480.0">
  <rect width="1200.000000" height="480.000000" fill="#ffffff"/>
  <path stroke-width="1.333333" stroke="#a8a8a8" fill="none" d="M59.8375 435.6 L1164.8 435.6 "/>
  <path stroke-width="1.333333" stroke="#a8a8a8" fill="none" d="M59.8375 435.6 L59.8375 430.266667 "/>
  <path stroke-width="1.333333" stroke="#a8a8a8" fill="none" d="M151.917711 435.6 L151.917711 430.266667 "/>
  <path stroke-width="1.333333" stroke="#a8a8a8" fill="none" d="M243.997922 435.6 L243.997922 430.266667 "/>
  <path stroke-width="1.333333" stroke="#a8a8a8" fill="none" d="M336.078125 435.6 L336.078125 430.266667 "/>
  <path stroke-width="1.333333" stroke="#a8a8a8" fill="none" d="M428.158344 435.6 L428.158344 430.266667 "/>
  <path stroke-width="1.333333" stroke="#a8a8a8" fill="none" d="M520.238564 435.6 L520.238564 430.266667 "/>
  <path stroke-width="1.333333" stroke="#a8a8a8" fill="none" d="M612.31875 435.6 L612.31875 430.266667 "/>
  <path stroke-width="1.333333" stroke="#a8a8a8" fill="none" d="M704.399002 435.6 L704.399002 430.266667 "/>
  <path stroke-width="1.333333" stroke="#a8a8a8" fill="none" d="M796.479189 435.6 L796.479189 430.266667 "/>
  <path stroke-width="1.333333" stroke="#a8a8a8" fill="none" d="M888.559375 435.6 L888.559375 430.266667 "/>
  <path stroke-width="1.333333" stroke="#a8a8a8" fill="none" d="M980.639627 435.6 L980.639627 430.266667 "/>
  <path stroke-width="1.333333" stroke="#a8a8a8" fill="none" d="M1072.719814 435.6 L1072.719814 430.266667 "/>
  <path stroke-width="1.333333" stroke="#a8a8a8" fill="none" d="M1164.8 435.6 L1164.8 430.266667 "/>
  <text x="94.049482" y="461.333333" fill="#333333" font-size="14.666667" font-family="Arial,Helvetica,'Helvetica Neue',sans-serif">Jan</text>
  <text x="185.317193" y="461.333333" fill="#333333" font-size="14.666667" font-family="Arial,Helvetica,'Helvetica Neue',sans-serif">Feb</text>
  <text x="277.405208" y="461.333333" fill="#333333" font-size="14.666667" font-family="Arial,Helvetica,'Helvetica Neue',sans-serif">Mar</text>
  <text x="370.704178" y="461.333333" fill="#333333" font-size="14.666667" font-family="Arial,Helvetica,'Helvetica Neue',sans-serif">Apr</text>
  <text x="460.339084" y="461.333333" fill="#333333" font-size="14.666667" font-family="Arial,Helvetica,'Helvetica Neue',sans-serif">May</text>
  <text x="554.450521" y="461.333333" fill="#333333" font-size="14.666667" font-family="Arial,Helvetica,'Helvetica Neue',sans-serif">Jun</text>
  <text x="648.976086" y="461.333333" fill="#333333" font-size="14.666667" font-family="Arial,Helvetica,'Helvetica Neue',sans-serif">Jul</text>
  <text x="737.392209" y="461.333333" fill="#333333" font-size="14.666667" font-family="Arial,Helvetica,'Helvetica Neue',sans-serif">Aug</text>
  <text x="829.472396" y="461.333333" fill="#333333" font-size="14.666667" font-family="Arial,Helvetica,'Helvetica Neue',sans-serif">Sep</text>
  <text x="923.185461" y="461.333333" fill="#333333" font-size="14.666667" font-family="Arial,Helvetica,'Helvetica Neue',sans-serif">Oct</text>
  <text x="1013.632834" y="461.333333" fill="#333333" font-size="14.666667" font-family="Arial,Helvetica,'Helvetica Neue',sans-serif">Nov</text>
  <text x="1105.713021" y="461.333333" fill="#333333" font-size="14.666667" font-family="Arial,Helvetica,'Helvetica Neue',sans-serif">Dec</text>
  <path stroke-width="1.333333" stroke="#a8a8a8" fill="none" d="M59.8375 14.666667 L59.8375 435.6 "/>
  <path stroke-width="1.333333" stroke="#a8a8a8" fill="none" d="M59.8375 435.6 L65.170833 435.6 "/>
  <path stroke-width="1.333333" stroke="#a8a8a8" fill="none" d="M59.8375 375.466664 L65.170833 375.466664 "/>
  <path stroke-width="1.333333" stroke="#a8a8a8" fill="none" d="M59.8375 315.333328 L65.170833 315.333328 "/>
  <path stroke-width="1.333333" stroke="#a8a8a8" fill="none" d="M59.8375 255.199986 L65.170833 255.199986 "/>
  <path stroke-width="1.333333" stroke="#a8a8a8" fill="none" d="M59.8375 195.066656 L65.170833 195.066656 "/>
  <path stroke-width="1.333333" stroke="#a8a8a8" fill="none" d="M59.8375 134.933326 L65.170833 134.933326 "/>
  <path stroke-width="1.333333" stroke="#a8a8a8" fill="none" d="M59.8375 74.799971 L65.170833 74.799971 "/>
  <path stroke-width="1.333333" stroke="#a8a8a8" fill="none" d="M59.8375 14.666667 L65.170833 14.666667 "/>
  <text x="14.666667" y="440.600000" fill="#333333" font-size="14.666667" font-family="Arial,Helvetica,'Helvetica Neue',sans-serif">-10.0</text>
  <text x="22.822917" y="380.466664" fill="#333333" font-size="14.666667" font-family="Arial,Helvetica,'Helvetica Neue',sans-serif">-4.0</text>
  <text x="27.713542" y="320.333328" fill="#333333" font-size="14.666667" font-family="Arial,Helvetica,'Helvetica Neue',sans-serif">2.0</text>
  <text x="27.713542" y="260.199986" fill="#333333" font-size="14.666667" font-family="Arial,Helvetica,'Helvetica Neue',sans-serif">8.0</text>
  <text x="19.557292" y="200.066656" fill="#333333" font-size="14.666667" font-family="Arial,Helvetica,'Helvetica Neue',sans-serif">14.0</text>
  <text x="19.557292" y="139.933326" fill="#333333" font-size="14.666667" font-family="Arial,Helvetica,'Helvetica Neue',sans-serif">20.0</text>
  <text x="19.557292" y="79.799971" fill="#333333" font-size="14.666667" font-family="Arial,Helvetica,'Helvetica Neue',sans-serif">26.0</text>
  <text x="19.557292" y="19.666667" fill="#333333" font-size="14.666667" font-family="Arial,Helvetica,'Helvetica Neue',sans-serif">32.0</text>
  <path stroke-width="2.666667" stroke="#4572a7" fill="none" d="M105.877604 296.291111 L197.957812 293.284444 L290.038021 278.251111 L382.118229 250.188889 L474.198437 216.113333 L566.278646 183.04 L658.358854 165.0 L750.439062 169.008889 L842.519271 193.062222 L934.599479 232.148889 L1026.679688 269.231111 L1118.759896 287.271111 "/>
  <path fill="#4572a7" d="M110.277604 296.291111 M101.477604 296.291111 a4.4 4.4 0 1 0 8.8 0 a4.4 4.4 0 1 0 -8.8 0 "/>
  <path fill="#4572a7" d="M202.357812 293.284444 M193.557812 293.284444 a4.4 4.4 0 1 0 8.8 0 a4.4 4.4 0 1 0 -8.8 0 "/>
  <path fill="#4572a7" d="M294.438021 278.251111 M285.638021 278.251111 a4.4 4.4 0 1 0 8.8 0 a4.4 4.4 0 1 0 -8.8 0 "/>
  <path fill="#4572a7" d="M386.518229 250.188889 M377.718229 250.188889 a4.4 4.4 0 1 0 8.8 0 a4.4 4.4 0 1 0 -8.8 0 "/>
  <path fill="#4572a7" d="M478.598437 216.113333 M469.798437 216.113333 a4.4 4.4 0 1 0 8.8 0 a4.4 4.4 0 1 0 -8.8 0 "/>
  <path fill="#4572a7" d="M570.678646 183.04 M561.878646 183.04 a4.4 4.4 0 1 0 8.8 0 a4.4 4.4 0 1 0 -8.8 0 "/>
  <path fill="#4572a7" d="M662.758854 165.0 M653.958854 165.0 a4.4 4.4 0 1 0 8.8 0 a4.4 4.4 0 1 0 -8.8 0 "/>
  <path fill="#4572a7" d="M754.839062 169.008889 M746.039062 169.008889 a4.4 4.4 0 1 0 8.8 0 a4.4 4.4 0 1 0 -8.8 0 "/>
  <path fill="#4572a7" d="M846.919271 193.062222 M838.119271 193.062222 a4.4 4.4 0 1 0 8.8 0 a4.4 4.4 0 1 0 -8.8 0 "/>
  <path fill="#4572a7" d="M938.999479 232.148889 M930.199479 232.148889 a4.4 4.4 0 1 0 8.8 0 a4.4 4.4 0 1 0 -8.8 0 "/>
  <path fill="#4572a7" d="M1031.079688 269.231111 M1022.279688 269.231111 a4.4 4.4 0 1 0 8.8 0 a4.4 4.4 0 1 0 -8.8 0 "/>
  <path fill="#4572a7" d="M1123.159896 287.271111 M1114.359896 287.271111 a4.4 4.4 0 1 0 8.8 0 a4.4 4.4 0 1 0 -8.8 0 "/>
  <text x="87.447917" y="280.557778" fill="#333333" font-size="14.666667" font-family="Arial,Helvetica,'Helvetica Neue',sans-serif">3.9°C</text>
  <text x="179.528125" y="277.551111" fill="#333333" font-size="14.666667" font-family="Arial,Helvetica,'Helvetica Neue',sans-serif">4.2°C</text>
  <text x="271.608333" y="262.517778" fill="#333333" font-size="14.666667" font-family="Arial,Helvetica,'Helvetica Neue',sans-serif">5.7°C</text>
  <text x="363.688542" y="234.455556" fill="#333333" font-size="14.666667" font-family="Arial,Helvetica,'Helvetica Neue',sans-serif">8.5°C</text>
  <text x="452.237500" y="200.380000" fill="#333333" font-size="14.666667" font-family="Arial,Helvetica,'Helvetica Neue',sans-serif">11.9°C</text>
  <text x="543.770833" y="167.306667" fill="#333333" font-size="14.666667" font-family="Arial,Helvetica,'Helvetica Neue',sans-serif">15.2°C</text>
  <text x="635.851042" y="149.266667" fill="#333333" font-size="14.666667" font-family="Arial,Helvetica,'Helvetica Neue',sans-serif">17.0°C</text>
  <text x="727.931250" y="153.275556" fill="#333333" font-size="14.666667" font-family="Arial,Helvetica,'Helvetica Neue',sans-serif">16.6°C</text>
  <text x="820.011458" y="177.328889" fill="#333333" font-size="14.666667" font-family="Arial,Helvetica,'Helvetica Neue',sans-serif">14.2°C</text>
  <text x="912.091667" y="216.415556" fill="#333333" font-size="14.666667" font-family="Arial,Helvetica,'Helvetica Neue',sans-serif">10.3°C</text>
  <text x="1008.250000" y="253.497778" fill="#333333" font-size="14.666667" font-family="Arial,Helvetica,'Helvetica Neue',sans-serif">6.6°C</text>
  <text x="1100.330208" y="271.537778" fill="#333333" font-size="14.666667" font-family="Arial,Helvetica,'Helvetica Neue',sans-serif">4.8°C</text>
  <path fill="#4572a7" d="M102.5375 45.466667 M92.5375 45.466667 a5.0 5.0 0 1 0 10.0 0 a5.0 5.0 0 1 0 -10.0 0 "/>
  <text x="109.037500" y="50.466667" fill="#333333" font-size="14.666667" font-family="Arial,Helvetica,'Helvetica Neue',sans-serif">London</text>
</svg>