<svg xmlns="http://www.w3.org/2000/svg" width="1200.000000" height="480.000000" viewBox="0 0 1200.0 480.0">
  <rect width="1200.000000" height="480.000000" fill="#ffffff"/>
  <path stroke-width="1.333333" stroke="#a8a8a8" fill="none" d="M65.170833 20.0 L65.170833 430.266667 "/>
  <path stroke-width="1.333333" stroke="#a8a8a8" fill="none" d="M65.170833 430.266667 L70.504167 430.266667 "/>
  <path stroke-width="1.333333" stroke="#a8a8a8" fill="none" d="M65.170833 381.425397 L70.504167 381.425397 "/>
  <path stroke-width="1.333333" stroke="#a8a8a8" fill="none" d="M65.170833 332.584127 L70.504167 332.584127 "/>
  <path stroke-width="1.333333" stroke="#a8a8a8" fill="none" d="M65.170833 283.742857 L70.504167 283.742857 "/>
  <path stroke-width="1.333333" stroke="#a8a8a8" fill="none" d="M65.170833 234.901587 L70.504167 234.901587 "/>
  <path stroke-width="1.333333" stroke="#a8a8a8" fill="none" d="M65.170833 186.060317 L70.504167 186.060317 "/>
  <path stroke-width="1.333333" stroke="#a8a8a8" fill="none" d="M65.170833 137.219048 L70.504167 137.219048 "/>
  <path stroke-width="1.333333" stroke="#a8a8a8" fill="none" d="M65.170833 88.377778 L70.504167 88.377778 "/>
  <path stroke-width="1.333333" stroke="#a8a8a8" fill="none" d="M65.170833 39.536508 L70.504167 39.536508 "/>
  <text x="20.000000" y="435.266667" fill="#333333" font-size="14.666667" font-family="Arial,Helvetica,'Helvetica Neue',sans-serif">-10.0</text>
  <text x="28.156250" y="386.425397" fill="#333333" font-size="14.666667" font-family="Arial,Helvetica,'Helvetica Neue',sans-serif">-5.0</text>
  <text x="33.046875" y="337.584127" fill="#333333" font-size="14.666667" font-family="Arial,Helvetica,'Helvetica Neue',sans-serif">0.0</text>
  <text x="33.046875" y="288.742857" fill="#333333" font-size="14.666667" font-family="Arial,Helvetica,'Helvetica Neue',sans-serif">5.0</text>
  <text x="24.890625" y="239.901587" fill="#333333" font-size="14.666667" font-family="Arial,Helvetica,'Helvetica Neue',sans-serif">10.0</text>
  <text x="24.890625" y="191.060317" fill="#333333" font-size="14.666667" font-family="Arial,Helvetica,'Helvetica Neue',sans-serif">15.0</text>
  <text x="24.890625" y="142.219048" fill="#333333" font-size="14.666667" font-family="Arial,Helvetica,'Helvetica Neue',sans-serif">20.0</text>
  <text x="24.890625" y="93.377778" fill="#333333" font-size="14.666667" font-family="Arial,Helvetica,'Helvetica Neue',sans-serif">25.0</text>
  <text x="24.890625" y="44.536508" fill="#333333" font-size="14.666667" font-family="Arial,Helvetica,'Helvetica Neue',sans-serif">30.0</text>
  <path stroke-width="1.333333" stroke="#a8a8a8" fill="none" d="M65.170833 430.266667 L1180.0 430.266667 "/>
  <path stroke-width="1.333333" stroke="#a8a8a8" fill="none" d="M119.998495 430.266667 L119.998495 424.933333 "/>
  <path stroke-width="1.333333" stroke="#a8a8a8" fill="none" d="M211.377932 430.266667 L211.377932 424.933333 "/>
  <path stroke-width="1.333333" stroke="#a8a8a8" fill="none" d="M302.757369 430.266667 L302.757369 424.933333 "/>
  <path stroke-width="1.333333" stroke="#a8a8a8" fill="none" d="M394.136806 430.266667 L394.136806 424.933333 "/>
  <path stroke-width="1.333333" stroke="#a8a8a8" fill="none" d="M485.516243 430.266667 L485.516243 424.933333 "/>
  <path stroke-width="1.333333" stroke="#a8a8a8" fill="none" d="M576.89568 430.266667 L576.89568 424.933333 "/>
  <path stroke-width="1.333333" stroke="#a8a8a8" fill="none" d="M668.275118 430.266667 L668.275118 424.933333 "/>
  <path stroke-width="1.333333" stroke="#a8a8a8" fill="none" d="M759.654555 430.266667 L759.654555 424.933333 "/>
  <path stroke-width="1.333333" stroke="#a8a8a8" fill="none" d="M851.033992 430.266667 L851.033992 424.933333 "/>
  <path stroke-width="1.333333" stroke="#a8a8a8" fill="none" d="M942.413429 430.266667 L942.413429 424.933333 "/>
  <path stroke-width="1.333333" stroke="#a8a8a8" fill="none" d="M1033.792866 430.266667 L1033.792866 424.933333 "/>
  <path stroke-width="1.333333" stroke="#a8a8a8" fill="none" d="M1125.172303 430.266667 L1125.172303 424.933333 "/>
  <text x="108.170370" y="456.000000" fill="#333333" font-size="14.666667" font-family="Arial,Helvetica,'Helvetica Neue',sans-serif">Jan</text>
  <text x="198.737307" y="456.000000" fill="#333333" font-size="14.666667" font-family="Arial,Helvetica,'Helvetica Neue',sans-serif">Feb</text>
  <text x="290.124557" y="456.000000" fill="#333333" font-size="14.666667" font-family="Arial,Helvetica,'Helvetica Neue',sans-serif">Mar</text>
  <text x="382.722744" y="456.000000" fill="#333333" font-size="14.666667" font-family="Arial,Helvetica,'Helvetica Neue',sans-serif">Apr</text>
  <text x="471.656868" y="456.000000" fill="#333333" font-size="14.666667" font-family="Arial,Helvetica,'Helvetica Neue',sans-serif">May</text>
  <text x="565.067555" y="456.000000" fill="#333333" font-size="14.666667" font-family="Arial,Helvetica,'Helvetica Neue',sans-serif">Jun</text>
  <text x="658.892305" y="456.000000" fill="#333333" font-size="14.666667" font-family="Arial,Helvetica,'Helvetica Neue',sans-serif">Jul</text>
  <text x="746.607680" y="456.000000" fill="#333333" font-size="14.666667" font-family="Arial,Helvetica,'Helvetica Neue',sans-serif">Aug</text>
  <text x="837.987117" y="456.000000" fill="#333333" font-size="14.666667" font-family="Arial,Helvetica,'Helvetica Neue',sans-serif">Sep</text>
  <text x="930.999366" y="456.000000" fill="#333333" font-size="14.666667" font-family="Arial,Helvetica,'Helvetica Neue',sans-serif">Oct</text>
  <text x="1020.745991" y="456.000000" fill="#333333" font-size="14.666667" font-family="Arial,Helvetica,'Helvetica Neue',sans-serif">Nov</text>
  <text x="1112.125428" y="456.000000" fill="#333333" font-size="14.666667" font-family="Arial,Helvetica,'Helvetica Neue',sans-serif">Dec</text>
  <path stroke-width="2.000000" stroke="#0066cc" fill="none" d="M119.998495 294.487937 L211.377932 291.55746 L302.757369 276.905079 L394.136806 249.553968 L485.516243 216.341905 L576.89568 184.106667 L668.275118 166.52381 L759.654555 170.431111 L851.033992 193.874921 L942.413429 231.971111 L1033.792866 268.113651 L1125.172303 285.696508 "/>
  <path fill="#0066cc" d="M123.998495 294.487937 M115.998495 294.487937 a4.0 4.0 0 1 0 8.0 0 a4.0 4.0 0 1 0 -8.0 0 "/>
  <path fill="#0066cc" d="M215.377932 291.55746 M207.377932 291.55746 a4.0 4.0 0 1 0 8.0 0 a4.0 4.0 0 1 0 -8.0 0 "/>
  <path fill="#0066cc" d="M306.757369 276.905079 M298.757369 276.905079 a4.0 4.0 0 1 0 8.0 0 a4.0 4.0 0 1 0 -8.0 0 "/>
  <path fill="#0066cc" d="M398.136806 249.553968 M390.136806 249.553968 a4.0 4.0 0 1 0 8.0 0 a4.0 4.0 0 1 0 -8.0 0 "/>
  <path fill="#0066cc" d="M489.516243 216.341905 M481.516243 216.341905 a4.0 4.0 0 1 0 8.0 0 a4.0 4.0 0 1 0 -8.0 0 "/>
  <path fill="#0066cc" d="M580.89568 184.106667 M572.89568 184.106667 a4.0 4.0 0 1 0 8.0 0 a4.0 4.0 0 1 0 -8.0 0 "/>
  <path fill="#0066cc" d="M672.275118 166.52381 M664.275118 166.52381 a4.0 4.0 0 1 0 8.0 0 a4.0 4.0 0 1 0 -8.0 0 "/>
  <path fill="#0066cc" d="M763.654555 170.431111 M755.654555 170.431111 a4.0 4.0 0 1 0 8.0 0 a4.0 4.0 0 1 0 -8.0 0 "/>
  <path fill="#0066cc" d="M855.033992 193.874921 M847.033992 193.874921 a4.0 4.0 0 1 0 8.0 0 a4.0 4.0 0 1 0 -8.0 0 "/>
  <path fill="#0066cc" d="M946.413429 231.971111 M938.413429 231.971111 a4.0 4.0 0 1 0 8.0 0 a4.0 4.0 0 1 0 -8.0 0 "/>
  <path fill="#0066cc" d="M1037.792866 268.113651 M1029.792866 268.113651 a4.0 4.0 0 1 0 8.0 0 a4.0 4.0 0 1 0 -8.0 0 "/>
  <path fill="#0066cc" d="M1129.172303 285.696508 M1121.172303 285.696508 a4.0 4.0 0 1 0 8.0 0 a4.0 4.0 0 1 0 -8.0 0 "/>
  <text x="101.568808" y="284.621270" fill="#000000" font-size="14.666667" font-family="Arial,Helvetica,'Helvetica Neue',sans-serif">3.9°C</text>
  <text x="192.948245" y="281.690794" fill="#000000" font-size="14.666667" font-family="Arial,Helvetica,'Helvetica Neue',sans-serif">4.2°C</text>
  <text x="284.327682" y="267.038413" fill="#000000" font-size="14.666667" font-family="Arial,Helvetica,'Helvetica Neue',sans-serif">5.7°C</text>
  <text x="375.707119" y="239.687302" fill="#000000" font-size="14.666667" font-family="Arial,Helvetica,'Helvetica Neue',sans-serif">8.5°C</text>
  <text x="463.555306" y="206.475238" fill="#000000" font-size="14.666667" font-family="Arial,Helvetica,'Helvetica Neue',sans-serif">11.9°C</text>
  <text x="554.387868" y="174.240000" fill="#000000" font-size="14.666667" font-family="Arial,Helvetica,'Helvetica Neue',sans-serif">15.2°C</text>
  <text x="645.767305" y="156.657143" fill="#000000" font-size="14.666667" font-family="Arial,Helvetica,'Helvetica Neue',sans-serif">17.0°C</text>
  <text x="737.146742" y="160.564444" fill="#000000" font-size="14.666667" font-family="Arial,Helvetica,'Helvetica Neue',sans-serif">16.6°C</text>
  <text x="828.526179" y="184.008254" fill="#000000" font-size="14.666667" font-family="Arial,Helvetica,'Helvetica Neue',sans-serif">14.2°C</text>
  <text x="919.905616" y="222.104444" fill="#000000" font-size="14.666667" font-family="Arial,Helvetica,'Helvetica Neue',sans-serif">10.3°C</text>
  <text x="1015.363178" y="258.246984" fill="#000000" font-size="14.666667" font-family="Arial,Helvetica,'Helvetica Neue',sans-serif">6.6°C</text>
  <text x="1106.742615" y="275.829841" fill="#000000" font-size="14.666667" font-family="Arial,Helvetica,'Helvetica Neue',sans-serif">4.8°C</text>
</svg>