<svg xmlns="http://www.w3.org/2000/svg" width="1200.000000" height="600.000000" viewBox="0 0 1200.0 600.0" viewport-fill="#ffffff">
  <path stroke-width="1.333333" stroke="#a8a8a8" fill="none" d="M0.0 600.0 L1200.0 600.0 "/>
  <path stroke-width="1.333333" stroke="#a8a8a8" fill="none" d="M0.0 600.0 L0.0 594.133333 "/>
  <path stroke-width="1.333333" stroke="#a8a8a8" fill="none" d="M100.000003 600.0 L100.000003 594.133333 "/>
  <path stroke-width="1.333333" stroke="#a8a8a8" fill="none" d="M200.000006 600.0 L200.000006 594.133333 "/>
  <path stroke-width="1.333333" stroke="#a8a8a8" fill="none" d="M300.0 600.0 L300.0 594.133333 "/>
  <path stroke-width="1.333333" stroke="#a8a8a8" fill="none" d="M400.000012 600.0 L400.000012 594.133333 "/>
  <path stroke-width="1.333333" stroke="#a8a8a8" fill="none" d="M500.000024 600.0 L500.000024 594.133333 "/>
  <path stroke-width="1.333333" stroke="#a8a8a8" fill="none" d="M600.0 600.0 L600.0 594.133333 "/>
  <path stroke-width="1.333333" stroke="#a8a8a8" fill="none" d="M700.000048 600.0 L700.000048 594.133333 "/>
  <path stroke-width="1.333333" stroke="#a8a8a8" fill="none" d="M800.000024 600.0 L800.000024 594.133333 "/>
  <path stroke-width="1.333333" stroke="#a8a8a8" fill="none" d="M900.0 600.0 L900.0 594.133333 "/>
  <path stroke-width="1.333333" stroke="#a8a8a8" fill="none" d="M1000.000048 600.0 L1000.000048 594.133333 "/>
  <path stroke-width="1.333333" stroke="#a8a8a8" fill="none" d="M1100.000024 600.0 L1100.000024 594.133333 "/>
  <path stroke-width="1.333333" stroke="#a8a8a8" fill="none" d="M1200.0 600.0 L1200.0 594.133333 "/>
  <text x="38.171878" y="625.733334" fill="#333333" font-size="14.666667" font-family="Arial,Helvetica,'Helvetica Neue',sans-serif">Jan</text>
  <text x="137.359381" y="625.733334" fill="#333333" font-size="14.666667" font-family="Arial,Helvetica,'Helvetica Neue',sans-serif">Feb</text>
  <text x="237.367188" y="625.733334" fill="#333333" font-size="14.666667" font-family="Arial,Helvetica,'Helvetica Neue',sans-serif">Mar</text>
  <text x="338.585949" y="625.733334" fill="#333333" font-size="14.666667" font-family="Arial,Helvetica,'Helvetica Neue',sans-serif">Apr</text>
  <text x="436.140649" y="625.733334" fill="#333333" font-size="14.666667" font-family="Arial,Helvetica,'Helvetica Neue',sans-serif">May</text>
  <text x="538.171875" y="625.733334" fill="#333333" font-size="14.666667" font-family="Arial,Helvetica,'Helvetica Neue',sans-serif">Jun</text>
  <text x="640.617235" y="625.733334" fill="#333333" font-size="14.666667" font-family="Arial,Helvetica,'Helvetica Neue',sans-serif">Jul</text>
  <text x="736.953149" y="625.733334" fill="#333333" font-size="14.666667" font-family="Arial,Helvetica,'Helvetica Neue',sans-serif">Aug</text>
  <text x="836.953125" y="625.733334" fill="#333333" font-size="14.666667" font-family="Arial,Helvetica,'Helvetica Neue',sans-serif">Sep</text>
  <text x="938.585985" y="625.733334" fill="#333333" font-size="14.666667" font-family="Arial,Helvetica,'Helvetica Neue',sans-serif">Oct</text>
  <text x="1036.953149" y="625.733334" fill="#333333" font-size="14.666667" font-family="Arial,Helvetica,'Helvetica Neue',sans-serif">Nov</text>
  <text x="1136.953125" y="625.733334" fill="#333333" font-size="14.666667" font-family="Arial,Helvetica,'Helvetica Neue',sans-serif">Dec</text>
  <path stroke-width="1.333333" stroke="#a8a8a8" fill="none" d="M0.0 0.0 L0.0 600.0 "/>
  <path stroke-width="1.333333" stroke="#a8a8a8" fill="none" d="M0.0 600.0 L5.866667 600.0 "/>
  <path stroke-width="1.333333" stroke="#a8a8a8" fill="none" d="M0.0 514.28571 L5.866667 514.28571 "/>
  <path stroke-width="1.333333" stroke="#a8a8a8" fill="none" d="M0.0 428.571421 L5.866667 428.571421 "/>
  <path stroke-width="1.333333" stroke="#a8a8a8" fill="none" d="M0.0 342.857122 L5.866667 342.857122 "/>
  <path stroke-width="1.333333" stroke="#a8a8a8" fill="none" d="M0.0 257.142842 L5.866667 257.142842 "/>
  <path stroke-width="1.333333" stroke="#a8a8a8" fill="none" d="M0.0 171.428561 L5.866667 171.428561 "/>
  <path stroke-width="1.333333" stroke="#a8a8a8" fill="none" d="M0.0 85.714245 L5.866667 85.714245 "/>
  <path stroke-width="1.333333" stroke="#a8a8a8" fill="none" d="M0.0 0.0 L5.866667 0.0 "/>
  <text x="-45.170834" y="605.000000" fill="#333333" font-size="14.666667" font-family="Arial,Helvetica,'Helvetica Neue',sans-serif">-10.0</text>
  <text x="-37.014584" y="519.285710" fill="#333333" font-size="14.666667" font-family="Arial,Helvetica,'Helvetica Neue',sans-serif">-4.0</text>
  <text x="-32.123959" y="433.571421" fill="#333333" font-size="14.666667" font-family="Arial,Helvetica,'Helvetica Neue',sans-serif">2.0</text>
  <text x="-32.123959" y="347.857122" fill="#333333" font-size="14.666667" font-family="Arial,Helvetica,'Helvetica Neue',sans-serif">8.0</text>
  <text x="-40.280209" y="262.142842" fill="#333333" font-size="14.666667" font-family="Arial,Helvetica,'Helvetica Neue',sans-serif">14.0</text>
  <text x="-40.280209" y="176.428561" fill="#333333" font-size="14.666667" font-family="Arial,Helvetica,'Helvetica Neue',sans-serif">20.0</text>
  <text x="-40.280209" y="90.714245" fill="#333333" font-size="14.666667" font-family="Arial,Helvetica,'Helvetica Neue',sans-serif">26.0</text>
  <text x="-40.280209" y="5.000000" fill="#333333" font-size="14.666667" font-family="Arial,Helvetica,'Helvetica Neue',sans-serif">32.0</text>
  <path stroke-width="2.666667" stroke="#4572a7" fill="none" d="M50.0 460.0 L150.0 445.714286 L250.0 375.714286 L350.0 295.714286 L450.0 214.285714 L550.0 142.857143 L650.0 102.857143 L750.0 112.857143 L850.0 170.0 L950.0 255.714286 L1050.0 334.285714 L1150.0 421.428571 "/>
  <path fill="#4572a7" d="M54.4 460.0 M45.6 460.0 a4.4 4.4 0 1 0 8.8 0 a4.4 4.4 0 1 0 -8.8 0 "/>
  <path fill="#4572a7" d="M154.4 445.714286 M145.6 445.714286 a4.4 4.4 0 1 0 8.8 0 a4.4 4.4 0 1 0 -8.8 0 "/>
  <path fill="#4572a7" d="M254.4 375.714286 M245.6 375.714286 a4.4 4.4 0 1 0 8.8 0 a4.4 4.4 0 1 0 -8.8 0 "/>
  <path fill="#4572a7" d="M354.4 295.714286 M345.6 295.714286 a4.4 4.4 0 1 0 8.8 0 a4.4 4.4 0 1 0 -8.8 0 "/>
  <path fill="#4572a7" d="M454.4 214.285714 M445.6 214.285714 a4.4 4.4 0 1 0 8.8 0 a4.4 4.4 0 1 0 -8.8 0 "/>
  <path fill="#4572a7" d="M554.4 142.857143 M545.6 142.857143 a4.4 4.4 0 1 0 8.8 0 a4.4 4.4 0 1 0 -8.8 0 "/>
  <path fill="#4572a7" d="M654.4 102.857143 M645.6 102.857143 a4.4 4.4 0 1 0 8.8 0 a4.4 4.4 0 1 0 -8.8 0 "/>
  <path fill="#4572a7" d="M754.4 112.857143 M745.6 112.857143 a4.4 4.4 0 1 0 8.8 0 a4.4 4.4 0 1 0 -8.8 0 "/>
  <path fill="#4572a7" d="M854.4 170.0 M845.6 170.0 a4.4 4.4 0 1 0 8.8 0 a4.4 4.4 0 1 0 -8.8 0 "/>
  <path fill="#4572a7" d="M954.4 255.714286 M945.6 255.714286 a4.4 4.4 0 1 0 8.8 0 a4.4 4.4 0 1 0 -8.8 0 "/>
  <path fill="#4572a7" d="M1054.4 334.285714 M1045.6 334.285714 a4.4 4.4 0 1 0 8.8 0 a4.4 4.4 0 1 0 -8.8 0 "/>
  <path fill="#4572a7" d="M1154.4 421.428571 M1145.6 421.428571 a4.4 4.4 0 1 0 8.8 0 a4.4 4.4 0 1 0 -8.8 0 "/>
  <path stroke-width="2.666667" stroke="#aa4643" fill="none" d="M50.0 514.285714 L150.0 477.142857 L250.0 380.0 L350.0 264.285714 L450.0 172.857143 L550.0 110.0 L650.0 81.428571 L750.0 101.428571 L850.0 172.857143 L950.0 270.0 L1050.0 390.0 L1150.0 482.857143 "/>
  <path fill="#aa4643" d="M54.4 514.285714 M45.6 514.285714 a4.4 4.4 0 1 0 8.8 0 a4.4 4.4 0 1 0 -8.8 0 "/>
  <path fill="#aa4643" d="M154.4 477.142857 M145.6 477.142857 a4.4 4.4 0 1 0 8.8 0 a4.4 4.4 0 1 0 -8.8 0 "/>
  <path fill="#aa4643" d="M254.4 380.0 M245.6 380.0 a4.4 4.4 0 1 0 8.8 0 a4.4 4.4 0 1 0 -8.8 0 "/>
  <path fill="#aa4643" d="M354.4 264.285714 M345.6 264.285714 a4.4 4.4 0 1 0 8.8 0 a4.4 4.4 0 1 0 -8.8 0 "/>
  <path fill="#aa4643" d="M454.4 172.857143 M445.6 172.857143 a4.4 4.4 0 1 0 8.8 0 a4.4 4.4 0 1 0 -8.8 0 "/>
  <path fill="#aa4643" d="M554.4 110.0 M545.6 110.0 a4.4 4.4 0 1 0 8.8 0 a4.4 4.4 0 1 0 -8.8 0 "/>
  <path fill="#aa4643" d="M654.4 81.428571 M645.6 81.428571 a4.4 4.4 0 1 0 8.8 0 a4.4 4.4 0 1 0 -8.8 0 "/>
  <path fill="#aa4643" d="M754.4 101.428571 M745.6 101.428571 a4.4 4.4 0 1 0 8.8 0 a4.4 4.4 0 1 0 -8.8 0 "/>
  <path fill="#aa4643" d="M854.4 172.857143 M845.6 172.857143 a4.4 4.4 0 1 0 8.8 0 a4.4 4.4 0 1 0 -8.8 0 "/>
  <path fill="#aa4643" d="M954.4 270.0 M945.6 270.0 a4.4 4.4 0 1 0 8.8 0 a4.4 4.4 0 1 0 -8.8 0 "/>
  <path fill="#aa4643" d="M1054.4 390.0 M1045.6 390.0 a4.4 4.4 0 1 0 8.8 0 a4.4 4.4 0 1 0 -8.8 0 "/>
  <path fill="#aa4643" d="M1154.4 482.857143 M1145.6 482.857143 a4.4 4.4 0 1 0 8.8 0 a4.4 4.4 0 1 0 -8.8 0 "/>
  <path stroke-width="2.666667" stroke="#89a54e" fill="none" d="M50.0 562.857143 L150.0 540.0 L250.0 458.571429 L350.0 355.714286 L450.0 247.142857 L550.0 204.285714 L650.0 162.857143 L750.0 188.571429 L850.0 277.142857 L950.0 370.0 L1050.0 441.428571 L1150.0 508.571429 "/>
  <path fill="#89a54e" d="M54.4 562.857143 M45.6 562.857143 a4.4 4.4 0 1 0 8.8 0 a4.4 4.4 0 1 0 -8.8 0 "/>
  <path fill="#89a54e" d="M154.4 540.0 M145.6 540.0 a4.4 4.4 0 1 0 8.8 0 a4.4 4.4 0 1 0 -8.8 0 "/>
  <path fill="#89a54e" d="M254.4 458.571429 M245.6 458.571429 a4.4 4.4 0 1 0 8.8 0 a4.4 4.4 0 1 0 -8.8 0 "/>
  <path fill="#89a54e" d="M354.4 355.714286 M345.6 355.714286 a4.4 4.4 0 1 0 8.8 0 a4.4 4.4 0 1 0 -8.8 0 "/>
  <path fill="#89a54e" d="M454.4 247.142857 M445.6 247.142857 a4.4 4.4 0 1 0 8.8 0 a4.4 4.4 0 1 0 -8.8 0 "/>
  <path fill="#89a54e" d="M554.4 204.285714 M545.6 204.285714 a4.4 4.4 0 1 0 8.8 0 a4.4 4.4 0 1 0 -8.8 0 "/>
  <path fill="#89a54e" d="M654.4 162.857143 M645.6 162.857143 a4.4 4.4 0 1 0 8.8 0 a4.4 4.4 0 1 0 -8.8 0 "/>
  <path fill="#89a54e" d="M754.4 188.571429 M745.6 188.571429 a4.4 4.4 0 1 0 8.8 0 a4.4 4.4 0 1 0 -8.8 0 "/>
  <path fill="#89a54e" d="M854.4 277.142857 M845.6 277.142857 a4.4 4.4 0 1 0 8.8 0 a4.4 4.4 0 1 0 -8.8 0 "/>
  <path fill="#89a54e" d="M954.4 370.0 M945.6 370.0 a4.4 4.4 0 1 0 8.8 0 a4.4 4.4 0 1 0 -8.8 0 "/>
  <path fill="#89a54e" d="M1054.4 441.428571 M1045.6 441.428571 a4.4 4.4 0 1 0 8.8 0 a4.4 4.4 0 1 0 -8.8 0 "/>
  <path fill="#89a54e" d="M1154.4 508.571429 M1145.6 508.571429 a4.4 4.4 0 1 0 8.8 0 a4.4 4.4 0 1 0 -8.8 0 "/>
  <path stroke-width="2.666667" stroke="#80699b" fill="none" d="M50.0 470.0 L150.0 448.571429 L250.0 407.142857 L350.0 337.142857 L450.0 264.285714 L550.0 214.285714 L650.0 191.428571 L750.0 201.428571 L850.0 252.857143 L950.0 328.571429 L1050.0 401.428571 L1150.0 442.857143 "/>
  <path fill="#80699b" d="M54.4 470.0 M45.6 470.0 a4.4 4.4 0 1 0 8.8 0 a4.4 4.4 0 1 0 -8.8 0 "/>
  <path fill="#80699b" d="M154.4 448.571429 M145.6 448.571429 a4.4 4.4 0 1 0 8.8 0 a4.4 4.4 0 1 0 -8.8 0 "/>
  <path fill="#80699b" d="M254.4 407.142857 M245.6 407.142857 a4.4 4.4 0 1 0 8.8 0 a4.4 4.4 0 1 0 -8.8 0 "/>
  <path fill="#80699b" d="M354.4 337.142857 M345.6 337.142857 a4.4 4.4 0 1 0 8.8 0 a4.4 4.4 0 1 0 -8.8 0 "/>
  <path fill="#80699b" d="M454.4 264.285714 M445.6 264.285714 a4.4 4.4 0 1 0 8.8 0 a4.4 4.4 0 1 0 -8.8 0 "/>
  <path fill="#80699b" d="M554.4 214.285714 M545.6 214.285714 a4.4 4.4 0 1 0 8.8 0 a4.4 4.4 0 1 0 -8.8 0 "/>
  <path fill="#80699b" d="M654.4 191.428571 M645.6 191.428571 a4.4 4.4 0 1 0 8.8 0 a4.4 4.4 0 1 0 -8.8 0 "/>
  <path fill="#80699b" d="M754.4 201.428571 M745.6 201.428571 a4.4 4.4 0 1 0 8.8 0 a4.4 4.4 0 1 0 -8.8 0 "/>
  <path fill="#80699b" d="M854.4 252.857143 M845.6 252.857143 a4.4 4.4 0 1 0 8.8 0 a4.4 4.4 0 1 0 -8.8 0 "/>
  <path fill="#80699b" d="M954.4 328.571429 M945.6 328.571429 a4.4 4.4 0 1 0 8.8 0 a4.4 4.4 0 1 0 -8.8 0 "/>
  <path fill="#80699b" d="M1054.4 401.428571 M1045.6 401.428571 a4.4 4.4 0 1 0 8.8 0 a4.4 4.4 0 1 0 -8.8 0 "/>
  <path fill="#80699b" d="M1154.4 442.857143 M1145.6 442.857143 a4.4 4.4 0 1 0 8.8 0 a4.4 4.4 0 1 0 -8.8 0 "/>
  <path fill="#4572a7" d="M40.2 24.6 M30.2 24.6 a5.0 5.0 0 1 0 10.0 0 a5.0 5.0 0 1 0 -10.0 0 "/>
  <text x="47.200000" y="29.600000" fill="#333333" font-size="14.666667" font-family="Arial,Helvetica,'Helvetica Neue',sans-serif">New York</text>
  <path fill="#aa4643" d="M146.451042 24.6 M136.451042 24.6 a5.0 5.0 0 1 0 10.0 0 a5.0 5.0 0 1 0 -10.0 0 "/>
  <text x="153.451042" y="29.600000" fill="#333333" font-size="14.666667" font-family="Arial,Helvetica,'Helvetica Neue',sans-serif">北京市  </text>
  <path fill="#89a54e" d="M231.873958 24.6 M221.873958 24.6 a5.0 5.0 0 1 0 10.0 0 a5.0 5.0 0 1 0 -10.0 0 "/>
  <text x="238.873958" y="29.600000" fill="#333333" font-size="14.666667" font-family="Arial,Helvetica,'Helvetica Neue',sans-serif">Москва</text>
  <path fill="#80699b" d="M326.234375 24.6 M316.234375 24.6 a5.0 5.0 0 1 0 10.0 0 a5.0 5.0 0 1 0 -10.0 0 "/>
  <text x="333.234375" y="29.600000" fill="#333333" font-size="14.666667" font-family="Arial,Helvetica,'Helvetica Neue',sans-serif">Berlin</text>
</svg>