<svg xmlns="http://www.w3.org/2000/svg" width="800.000000" height="400.000000" viewBox="0 0 800.0 400.0">
  <rect width="800.000000" height="400.000000" fill="#ffffff"/>
  <path stroke-width="1.333333" stroke="#333333" fill="none" d="M60.280208 20.0 L60.280208 350.266667 "/>
  <path stroke-width="1.333333" stroke="#333333" fill="none" d="M60.280208 350.266667 L65.613542 350.266667 "/>
  <path stroke-width="1.333333" stroke="#333333" fill="none" d="M60.280208 308.983333 L65.613542 308.983333 "/>
  <path stroke-width="1.333333" stroke="#333333" fill="none" d="M60.280208 267.7 L65.613542 267.7 "/>
  <path stroke-width="1.333333" stroke="#333333" fill="none" d="M60.280208 226.416667 L65.613542 226.416667 "/>
  <path stroke-width="1.333333" stroke="#333333" fill="none" d="M60.280208 185.133333 L65.613542 185.133333 "/>
  <path stroke-width="1.333333" stroke="#333333" fill="none" d="M60.280208 143.85 L65.613542 143.85 "/>
  <path stroke-width="1.333333" stroke="#333333" fill="none" d="M60.280208 102.566667 L65.613542 102.566667 "/>
  <path stroke-width="1.333333" stroke="#333333" fill="none" d="M60.280208 61.283333 L65.613542 61.283333 "/>
  <path stroke-width="1.333333" stroke="#333333" fill="none" d="M60.280208 20.0 L65.613542 20.0 "/>
  <text x="28.156250" y="355.266667" fill="#333333" font-size="14.666667" font-family="Arial,Helvetica,'Helvetica Neue',sans-serif">0.0</text>
  <text x="20.000000" y="313.983333" fill="#333333" font-size="14.666667" font-family="Arial,Helvetica,'Helvetica Neue',sans-serif">10.0</text>
  <text x="20.000000" y="272.700000" fill="#333333" font-size="14.666667" font-family="Arial,Helvetica,'Helvetica Neue',sans-serif">20.0</text>
  <text x="20.000000" y="231.416667" fill="#333333" font-size="14.666667" font-family="Arial,Helvetica,'Helvetica Neue',sans-serif">30.0</text>
  <text x="20.000000" y="190.133333" fill="#333333" font-size="14.666667" font-family="Arial,Helvetica,'Helvetica Neue',sans-serif">40.0</text>
  <text x="20.000000" y="148.850000" fill="#333333" font-size="14.666667" font-family="Arial,Helvetica,'Helvetica Neue',sans-serif">50.0</text>
  <text x="20.000000" y="107.566667" fill="#333333" font-size="14.666667" font-family="Arial,Helvetica,'Helvetica Neue',sans-serif">60.0</text>
  <text x="20.000000" y="66.283333" fill="#333333" font-size="14.666667" font-family="Arial,Helvetica,'Helvetica Neue',sans-serif">70.0</text>
  <text x="20.000000" y="25.000000" fill="#333333" font-size="14.666667" font-family="Arial,Helvetica,'Helvetica Neue',sans-serif">80.0</text>
  <path stroke-width="1.333333" stroke="#333333" fill="none" d="M60.280208 350.266667 L780.0 350.266667 "/>
  <path stroke-width="1.333333" stroke="#333333" fill="none" d="M60.280208 350.266667 L60.280208 344.933333 "/>
  <path stroke-width="1.333333" stroke="#333333" fill="none" d="M180.233507 350.266667 L180.233507 344.933333 "/>
  <path stroke-width="1.333333" stroke="#333333" fill="none" d="M300.186806 350.266667 L300.186806 344.933333 "/>
  <path stroke-width="1.333333" stroke="#333333" fill="none" d="M420.140104 350.266667 L420.140104 344.933333 "/>
  <path stroke-width="1.333333" stroke="#333333" fill="none" d="M540.093403 350.266667 L540.093403 344.933333 "/>
  <path stroke-width="1.333333" stroke="#333333" fill="none" d="M660.046701 350.266667 L660.046701 344.933333 "/>
  <path stroke-width="1.333333" stroke="#333333" fill="none" d="M780.0 350.266667 L780.0 344.933333 "/>
  <text x="50.084896" y="376.000000" fill="#333333" font-size="14.666667" font-family="Arial,Helvetica,'Helvetica Neue',sans-serif">0.0</text>
  <text x="165.960069" y="376.000000" fill="#333333" font-size="14.666667" font-family="Arial,Helvetica,'Helvetica Neue',sans-serif">10.0</text>
  <text x="285.913368" y="376.000000" fill="#333333" font-size="14.666667" font-family="Arial,Helvetica,'Helvetica Neue',sans-serif">20.0</text>
  <text x="405.866667" y="376.000000" fill="#333333" font-size="14.666667" font-family="Arial,Helvetica,'Helvetica Neue',sans-serif">30.0</text>
  <text x="525.819965" y="376.000000" fill="#333333" font-size="14.666667" font-family="Arial,Helvetica,'Helvetica Neue',sans-serif">40.0</text>
  <text x="645.773264" y="376.000000" fill="#333333" font-size="14.666667" font-family="Arial,Helvetica,'Helvetica Neue',sans-serif">50.0</text>
  <text x="765.726562" y="376.000000" fill="#333333" font-size="14.666667" font-family="Arial,Helvetica,'Helvetica Neue',sans-serif">60.0</text>
  <path fill="#0066cc" d="M184.233507 209.903333 M176.233507 209.903333 a4.0 4.0 0 1 0 8.0 0 a4.0 4.0 0 1 0 -8.0 0 "/>
  <path fill="#0066cc" d="M244.210156 275.956667 M236.210156 275.956667 a4.0 4.0 0 1 0 8.0 0 a4.0 4.0 0 1 0 -8.0 0 "/>
  <path fill="#0066cc" d="M304.186806 172.748333 M296.186806 172.748333 a4.0 4.0 0 1 0 8.0 0 a4.0 4.0 0 1 0 -8.0 0 "/>
  <path fill="#0066cc" d="M424.140104 271.828333 M416.140104 271.828333 a4.0 4.0 0 1 0 8.0 0 a4.0 4.0 0 1 0 -8.0 0 "/>
  <path fill="#0066cc" d="M544.093403 247.058333 M536.093403 247.058333 a4.0 4.0 0 1 0 8.0 0 a4.0 4.0 0 1 0 -8.0 0 "/>
  <path fill="#0066cc" d="M664.046701 214.031667 M656.046701 214.031667 a4.0 4.0 0 1 0 8.0 0 a4.0 4.0 0 1 0 -8.0 0 "/>
</svg>