<svg xmlns="http://www.w3.org/2000/svg" width="800.000000" height="400.000000" viewBox="0 0 800.0 400.0">
  <rect width="800.000000" height="400.000000" fill="#ffffff"/>
  <path stroke-width="1.333333" stroke="#333333" fill="none" d="M52.123958 20.0 L52.123958 350.266667 "/>
  <path stroke-width="1.333333" stroke="#333333" fill="none" d="M52.123958 350.266667 L57.457292 350.266667 "/>
  <path stroke-width="1.333333" stroke="#333333" fill="none" d="M52.123958 303.085712 L57.457292 303.085712 "/>
  <path stroke-width="1.333333" stroke="#333333" fill="none" d="M52.123958 255.904758 L57.457292 255.904758 "/>
  <path stroke-width="1.333333" stroke="#333333" fill="none" d="M52.123958 208.723798 L57.457292 208.723798 "/>
  <path stroke-width="1.333333" stroke="#333333" fill="none" d="M52.123958 161.542849 L57.457292 161.542849 "/>
  <path stroke-width="1.333333" stroke="#333333" fill="none" d="M52.123958 114.361899 L57.457292 114.361899 "/>
  <path stroke-width="1.333333" stroke="#333333" fill="none" d="M52.123958 67.18093 L57.457292 67.18093 "/>
  <path stroke-width="1.333333" stroke="#333333" fill="none" d="M52.123958 20.0 L57.457292 20.0 "/>
  <text x="20.000000" y="355.266667" fill="#333333" font-size="14.666667" font-family="Arial,Helvetica,'Helvetica Neue',sans-serif">0.0</text>
  <text x="20.000000" y="308.085712" fill="#333333" font-size="14.666667" font-family="Arial,Helvetica,'Helvetica Neue',sans-serif">0.1</text>
  <text x="20.000000" y="260.904758" fill="#333333" font-size="14.666667" font-family="Arial,Helvetica,'Helvetica Neue',sans-serif">0.3</text>
  <text x="20.000000" y="213.723798" fill="#333333" font-size="14.666667" font-family="Arial,Helvetica,'Helvetica Neue',sans-serif">0.4</text>
  <text x="20.000000" y="166.542849" fill="#333333" font-size="14.666667" font-family="Arial,Helvetica,'Helvetica Neue',sans-serif">0.6</text>
  <text x="20.000000" y="119.361899" fill="#333333" font-size="14.666667" font-family="Arial,Helvetica,'Helvetica Neue',sans-serif">0.7</text>
  <text x="20.000000" y="72.180930" fill="#333333" font-size="14.666667" font-family="Arial,Helvetica,'Helvetica Neue',sans-serif">0.9</text>
  <text x="20.000000" y="25.000000" fill="#333333" font-size="14.666667" font-family="Arial,Helvetica,'Helvetica Neue',sans-serif">1.0</text>
  <path stroke-width="1.333333" stroke="#333333" fill="none" d="M52.123958 350.266667 L780.0 350.266667 "/>
  <path stroke-width="1.333333" stroke="#333333" fill="none" d="M52.123958 350.266667 L52.123958 344.933333 "/>
  <path stroke-width="1.333333" stroke="#333333" fill="none" d="M156.106255 350.266667 L156.106255 344.933333 "/>
  <path stroke-width="1.333333" stroke="#333333" fill="none" d="M260.088551 350.266667 L260.088551 344.933333 "/>
  <path stroke-width="1.333333" stroke="#333333" fill="none" d="M364.070858 350.266667 L364.070858 344.933333 "/>
  <path stroke-width="1.333333" stroke="#333333" fill="none" d="M468.053144 350.266667 L468.053144 344.933333 "/>
  <path stroke-width="1.333333" stroke="#333333" fill="none" d="M572.035429 350.266667 L572.035429 344.933333 "/>
  <path stroke-width="1.333333" stroke="#333333" fill="none" d="M676.017758 350.266667 L676.017758 344.933333 "/>
  <path stroke-width="1.333333" stroke="#333333" fill="none" d="M780.0 350.266667 L780.0 344.933333 "/>
  <text x="41.928646" y="376.000000" fill="#333333" font-size="14.666667" font-family="Arial,Helvetica,'Helvetica Neue',sans-serif">0.0</text>
  <text x="145.910942" y="376.000000" fill="#333333" font-size="14.666667" font-family="Arial,Helvetica,'Helvetica Neue',sans-serif">0.1</text>
  <text x="249.893238" y="376.000000" fill="#333333" font-size="14.666667" font-family="Arial,Helvetica,'Helvetica Neue',sans-serif">0.3</text>
  <text x="353.875546" y="376.000000" fill="#333333" font-size="14.666667" font-family="Arial,Helvetica,'Helvetica Neue',sans-serif">0.4</text>
  <text x="457.857831" y="376.000000" fill="#333333" font-size="14.666667" font-family="Arial,Helvetica,'Helvetica Neue',sans-serif">0.6</text>
  <text x="561.840117" y="376.000000" fill="#333333" font-size="14.666667" font-family="Arial,Helvetica,'Helvetica Neue',sans-serif">0.7</text>
  <text x="665.822445" y="376.000000" fill="#333333" font-size="14.666667" font-family="Arial,Helvetica,'Helvetica Neue',sans-serif">0.9</text>
  <text x="769.804688" y="376.000000" fill="#333333" font-size="14.666667" font-family="Arial,Helvetica,'Helvetica Neue',sans-serif">1.0</text>
  <path fill="#0066cc" d="M146.123958 170.266667 M138.123958 170.266667 a4.0 4.0 0 1 0 8.0 0 a4.0 4.0 0 1 0 -8.0 0 "/>
  <path fill="#00cc66" d="M710.123958 50.266667 M694.123958 50.266667 a8.0 8.0 0 1 0 16.0 0 a8.0 8.0 0 1 0 -16.0 0 "/>
  <path fill="#cc0066" d="M486.790625 230.266667 M457.457292 230.266667 a14.666667 14.666667 0 1 0 29.333333 0 a14.666667 14.666667 0 1 0 -29.333333 0 "/>
</svg>