<?xml version="1.0" encoding="UTF-8" ?>
<!-- Generated by clip v0.8.0 (clip-lang.org) -->
<svg xmlns="http://www.w3.org/2000/svg" width="1600" height="800">
  <rect width="1600" height="800" fill="#ffffff" fill-opacity="1"/>
  <path d="M160 480 L320 320 L480 453.333 L640 373.333 L800 400 L960 453.333 L1120 320 L1280 293.333 L1440 266.667" fill="none" stroke="#000000" stroke-width="4"/>
  <path d="M149.336 476.438 L160.180 468.562 L171.023 476.438 L166.883 489.188 L153.477 489.188 L149.336 476.438 Z"/>
  <path d="M309.336 316.438 L320.180 308.562 L331.023 316.438 L326.883 329.188 L313.477 329.188 L309.336 316.438 Z"/>
  <path d="M469.336 449.771 L480.180 441.896 L491.023 449.771 L486.883 462.521 L473.477 462.521 L469.336 449.771 Z"/>
  <path d="M629.336 369.771 L640.180 361.896 L651.023 369.771 L646.883 382.521 L633.477 382.521 L629.336 369.771 Z"/>
  <path d="M789.336 396.438 L800.180 388.562 L811.023 396.438 L806.883 409.188 L793.477 409.188 L789.336 396.438 Z"/>
  <path d="M949.336 449.771 L960.180 441.896 L971.023 449.771 L966.883 462.521 L953.477 462.521 L949.336 449.771 Z"/>
  <path d="M1109.336 316.438 L1120.180 308.562 L1131.023 316.438 L1126.883 329.188 L1113.477 329.188 L1109.336 316.438 Z"/>
  <path d="M1269.336 289.771 L1280.180 281.896 L1291.023 289.771 L1286.883 302.521 L1273.477 302.521 L1269.336 289.771 Z"/>
  <path d="M1429.336 263.104 L1440.180 255.229 L1451.023 263.104 L1446.883 275.854 L1433.477 275.854 L1429.336 263.104 Z"/>
</svg>
