<?xml version="1.0" encoding="UTF-8" ?>
<!-- Generated by clip v0.8.0 (clip-lang.org) -->
<svg xmlns="http://www.w3.org/2000/svg" width="1024" height="512">
  <rect width="1024" height="512" fill="#ffffff" fill-opacity="1"/>
  <path d="M102.400 307.200 L204.800 204.800 L307.200 290.133 L409.600 238.933 L512 256 L614.400 290.133 L716.800 204.800 L819.200 187.733 L921.600 170.667" fill="none" stroke="#000000" stroke-width="2"/>
  <path d="M97.072 305.169 L102.494 301.231 L107.916 305.169 L105.838 311.544 L99.134 311.544 L97.072 305.169 Z"/>
  <path d="M199.472 202.769 L204.894 198.831 L210.316 202.769 L208.238 209.144 L201.534 209.144 L199.472 202.769 Z"/>
  <path d="M301.872 288.102 L307.294 284.165 L312.716 288.102 L310.637 294.477 L303.934 294.477 L301.872 288.102 Z"/>
  <path d="M404.272 236.902 L409.694 232.965 L415.116 236.902 L413.038 243.277 L406.334 243.277 L404.272 236.902 Z"/>
  <path d="M506.672 253.969 L512.094 250.031 L517.516 253.969 L515.438 260.344 L508.734 260.344 L506.672 253.969 Z"/>
  <path d="M609.072 288.102 L614.494 284.165 L619.916 288.102 L617.837 294.477 L611.134 294.477 L609.072 288.102 Z"/>
  <path d="M711.472 202.769 L716.894 198.831 L722.316 202.769 L720.237 209.144 L713.534 209.144 L711.472 202.769 Z"/>
  <path d="M813.872 185.702 L819.294 181.765 L824.716 185.702 L822.638 192.077 L815.934 192.077 L813.872 185.702 Z"/>
  <path d="M916.272 168.635 L921.694 164.698 L927.116 168.635 L925.038 175.010 L918.334 175.010 L916.272 168.635 Z"/>
</svg>
