<?xml version="1.0" encoding="UTF-8" ?>
<!-- Generated by clip v0.8.0 (clip-lang.org) -->
<svg xmlns="http://www.w3.org/2000/svg" width="1024" height="512">
  <rect width="1024" height="512" fill="#ffffff" fill-opacity="1"/>
  <path d="M46.791 44.400 L977.209 44.400" fill="none" stroke="#000000" stroke-width="1.333"/>
  <path d="M139.833 49.733 L139.833 44.400" fill="none" stroke="#000000" stroke-width="1.333"/>
  <path d="M232.874 49.733 L232.874 44.400" fill="none" stroke="#000000" stroke-width="1.333"/>
  <path d="M325.916 49.733 L325.916 44.400" fill="none" stroke="#000000" stroke-width="1.333"/>
  <path d="M418.958 49.733 L418.958 44.400" fill="none" stroke="#000000" stroke-width="1.333"/>
  <path d="M512 49.733 L512 44.400" fill="none" stroke="#000000" stroke-width="1.333"/>
  <path d="M605.042 49.733 L605.042 44.400" fill="none" stroke="#000000" stroke-width="1.333"/>
  <path d="M698.084 49.733 L698.084 44.400" fill="none" stroke="#000000" stroke-width="1.333"/>
  <path d="M791.126 49.733 L791.126 44.400" fill="none" stroke="#000000" stroke-width="1.333"/>
  <path d="M884.168 49.733 L884.168 44.400" fill="none" stroke="#000000" stroke-width="1.333"/>
  <path d="M117.411 28.667 L116.083 28.667 L116.083 20.089 Q115.614 20.557 114.840 21.018 Q114.067 21.479 113.458 21.714 L113.458 20.417 Q114.567 19.885 115.387 19.128 Q116.208 18.370 116.551 17.667 L117.411 17.667 L117.411 28.667 Z"/>
  <path d="M121.333 28.667 L121.333 27.667 L122.833 27.667 L122.833 28.667 L121.333 28.667 Z"/>
  <path d="M124.676 23.167 Q124.676 21.260 125.067 20.096 Q125.458 18.932 126.231 18.299 Q127.004 17.667 128.176 17.667 Q129.036 17.667 129.692 18.018 Q130.348 18.370 130.770 19.026 Q131.192 19.682 131.434 20.628 Q131.676 21.573 131.676 23.167 Q131.676 25.073 131.286 26.237 Q130.895 27.401 130.122 28.034 Q129.348 28.667 128.176 28.667 Q126.629 28.667 125.739 27.557 Q124.676 26.198 124.676 23.167 Z M126.036 23.167 Q126.036 25.870 126.653 26.768 Q127.270 27.667 128.176 27.667 Q129.083 27.667 129.700 26.768 Q130.317 25.870 130.317 23.167 Q130.317 20.448 129.700 19.557 Q129.083 18.667 128.161 18.667 Q127.254 18.667 126.708 19.448 Q126.036 20.464 126.036 23.167 Z"/>
  <path d=""/>
  <path d="M136.317 25.667 L138.614 23.167 L136.333 20.667 L137.223 19.667 L139.520 22.182 L141.817 19.667 L142.692 20.010 L140.411 23.151 L142.708 26.323 L141.817 26.667 L139.504 24.151 L137.208 26.667 L136.317 25.667 Z"/>
  <path d=""/>
  <path d="M152.239 28.667 L150.911 28.667 L150.911 20.089 Q150.442 20.557 149.668 21.018 Q148.895 21.479 148.286 21.714 L148.286 20.417 Q149.395 19.885 150.215 19.128 Q151.036 18.370 151.379 17.667 L152.239 17.667 L152.239 28.667 Z"/>
  <path d="M155.426 23.167 Q155.426 21.260 155.817 20.096 Q156.208 18.932 156.981 18.299 Q157.754 17.667 158.926 17.667 Q159.786 17.667 160.442 18.018 Q161.098 18.370 161.520 19.026 Q161.942 19.682 162.184 20.628 Q162.426 21.573 162.426 23.167 Q162.426 25.073 162.036 26.237 Q161.645 27.401 160.872 28.034 Q160.098 28.667 158.926 28.667 Q157.379 28.667 156.489 27.557 Q155.426 26.198 155.426 23.167 Z M156.786 23.167 Q156.786 25.870 157.403 26.768 Q158.020 27.667 158.926 27.667 Q159.833 27.667 160.450 26.768 Q161.067 25.870 161.067 23.167 Q161.067 20.448 160.450 19.557 Q159.833 18.667 158.911 18.667 Q158.004 18.667 157.458 19.448 Q156.786 20.464 156.786 23.167 Z"/>
  <path d="M163.145 23.667 Q163.192 23.214 163.489 22.760 Q163.942 22.089 164.997 21.260 Q166.051 20.432 166.254 20.198 Q166.520 19.870 166.520 19.542 Q166.520 19.151 166.262 18.909 Q166.004 18.667 165.504 18.667 Q165.020 18.667 164.786 18.870 Q164.551 19.073 164.395 19.667 L163.301 19.667 Q163.520 18.635 164.043 18.151 Q164.567 17.667 165.536 17.667 Q166.645 17.667 167.161 18.135 Q167.676 18.604 167.676 19.292 Q167.676 19.948 167.239 20.557 Q166.911 20.995 165.739 21.917 Q165.129 22.385 164.879 22.667 L167.708 22.667 L167.708 23.667 L163.145 23.667 Z"/>
  <path d="M212.406 27.667 L212.406 28.667 L205.312 28.667 Q205.296 28.276 205.468 27.901 Q205.734 27.292 206.335 26.706 Q206.937 26.120 208.062 25.057 Q209.812 23.401 210.429 22.471 Q211.046 21.542 211.046 20.729 Q211.046 19.854 210.484 19.260 Q209.921 18.667 209.031 18.667 Q208.078 18.667 207.499 19.198 Q206.921 19.729 206.921 20.667 L205.562 20.667 Q205.703 19.198 206.609 18.432 Q207.515 17.667 209.046 17.667 Q210.593 17.667 211.492 18.557 Q212.390 19.448 212.390 20.776 Q212.390 21.448 212.124 22.096 Q211.859 22.745 211.249 23.464 Q210.640 24.182 209.218 25.464 Q208.031 26.526 207.695 26.901 Q207.359 27.276 207.140 27.667 L212.406 27.667 Z"/>
  <path d="M214.374 28.667 L214.374 27.667 L215.874 27.667 L215.874 28.667 L214.374 28.667 Z"/>
  <path d="M217.718 23.167 Q217.718 21.260 218.109 20.096 Q218.499 18.932 219.273 18.299 Q220.046 17.667 221.218 17.667 Q222.078 17.667 222.734 18.018 Q223.390 18.370 223.812 19.026 Q224.234 19.682 224.476 20.628 Q224.718 21.573 224.718 23.167 Q224.718 25.073 224.328 26.237 Q223.937 27.401 223.163 28.034 Q222.390 28.667 221.218 28.667 Q219.671 28.667 218.781 27.557 Q217.718 26.198 217.718 23.167 Z M219.078 23.167 Q219.078 25.870 219.695 26.768 Q220.312 27.667 221.218 27.667 Q222.124 27.667 222.742 26.768 Q223.359 25.870 223.359 23.167 Q223.359 20.448 222.742 19.557 Q222.124 18.667 221.203 18.667 Q220.296 18.667 219.749 19.448 Q219.078 20.464 219.078 23.167 Z"/>
  <path d=""/>
  <path d="M229.359 25.667 L231.656 23.167 L229.374 20.667 L230.265 19.667 L232.562 22.182 L234.859 19.667 L235.734 20.010 L233.453 23.151 L235.749 26.323 L234.859 26.667 L232.546 24.151 L230.249 26.667 L229.359 25.667 Z"/>
  <path d=""/>
  <path d="M245.281 28.667 L243.953 28.667 L243.953 20.089 Q243.484 20.557 242.710 21.018 Q241.937 21.479 241.328 21.714 L241.328 20.417 Q242.437 19.885 243.257 19.128 Q244.078 18.370 244.421 17.667 L245.281 17.667 L245.281 28.667 Z"/>
  <path d="M248.468 23.167 Q248.468 21.260 248.859 20.096 Q249.249 18.932 250.023 18.299 Q250.796 17.667 251.968 17.667 Q252.828 17.667 253.484 18.018 Q254.140 18.370 254.562 19.026 Q254.984 19.682 255.226 20.628 Q255.468 21.573 255.468 23.167 Q255.468 25.073 255.078 26.237 Q254.687 27.401 253.913 28.034 Q253.140 28.667 251.968 28.667 Q250.421 28.667 249.531 27.557 Q248.468 26.198 248.468 23.167 Z M249.828 23.167 Q249.828 25.870 250.445 26.768 Q251.062 27.667 251.968 27.667 Q252.874 27.667 253.492 26.768 Q254.109 25.870 254.109 23.167 Q254.109 20.448 253.492 19.557 Q252.874 18.667 251.953 18.667 Q251.046 18.667 250.499 19.448 Q249.828 20.464 249.828 23.167 Z"/>
  <path d="M256.187 23.667 Q256.234 23.214 256.531 22.760 Q256.984 22.089 258.038 21.260 Q259.093 20.432 259.296 20.198 Q259.562 19.870 259.562 19.542 Q259.562 19.151 259.304 18.909 Q259.046 18.667 258.546 18.667 Q258.062 18.667 257.827 18.870 Q257.593 19.073 257.437 19.667 L256.343 19.667 Q256.562 18.635 257.085 18.151 Q257.609 17.667 258.577 17.667 Q259.687 17.667 260.202 18.135 Q260.718 18.604 260.718 19.292 Q260.718 19.948 260.281 20.557 Q259.952 20.995 258.781 21.917 Q258.171 22.385 257.921 22.667 L260.749 22.667 L260.749 23.667 L256.187 23.667 Z"/>
  <path d="M298.526 25.667 L299.854 25.667 Q300.088 26.729 300.627 27.198 Q301.166 27.667 301.947 27.667 Q302.885 27.667 303.526 27.049 Q304.166 26.432 304.166 25.526 Q304.166 24.651 303.572 24.081 Q302.979 23.510 302.057 23.510 Q301.682 23.510 301.135 23.667 L301.276 22.667 Q301.416 22.682 301.494 22.682 Q302.338 22.682 303.010 22.174 Q303.682 21.667 303.682 20.604 Q303.682 19.776 303.190 19.221 Q302.697 18.667 301.916 18.667 Q301.151 18.667 300.635 19.167 Q300.119 19.667 299.979 20.667 L298.666 20.667 Q298.901 19.245 299.760 18.456 Q300.619 17.667 301.901 17.667 Q302.776 17.667 303.518 18.073 Q304.260 18.479 304.651 19.182 Q305.041 19.885 305.041 20.682 Q305.041 21.432 304.666 22.049 Q304.291 22.667 303.557 23.026 Q304.510 23.229 305.033 23.878 Q305.557 24.526 305.557 25.510 Q305.557 26.823 304.533 27.745 Q303.510 28.667 301.932 28.667 Q300.526 28.667 299.588 27.831 Q298.651 26.995 298.526 25.667 Z"/>
  <path d="M307.416 28.667 L307.416 27.667 L308.916 27.667 L308.916 28.667 L307.416 28.667 Z"/>
  <path d="M310.760 23.167 Q310.760 21.260 311.151 20.096 Q311.541 18.932 312.315 18.299 Q313.088 17.667 314.260 17.667 Q315.119 17.667 315.776 18.018 Q316.432 18.370 316.854 19.026 Q317.276 19.682 317.518 20.628 Q317.760 21.573 317.760 23.167 Q317.760 25.073 317.369 26.237 Q316.979 27.401 316.205 28.034 Q315.432 28.667 314.260 28.667 Q312.713 28.667 311.822 27.557 Q310.760 26.198 310.760 23.167 Z M312.119 23.167 Q312.119 25.870 312.737 26.768 Q313.354 27.667 314.260 27.667 Q315.166 27.667 315.783 26.768 Q316.401 25.870 316.401 23.167 Q316.401 20.448 315.783 19.557 Q315.166 18.667 314.244 18.667 Q313.338 18.667 312.791 19.448 Q312.119 20.464 312.119 23.167 Z"/>
  <path d=""/>
  <path d="M322.401 25.667 L324.697 23.167 L322.416 20.667 L323.307 19.667 L325.604 22.182 L327.901 19.667 L328.776 20.010 L326.494 23.151 L328.791 26.323 L327.901 26.667 L325.588 24.151 L323.291 26.667 L322.401 25.667 Z"/>
  <path d=""/>
  <path d="M338.322 28.667 L336.994 28.667 L336.994 20.089 Q336.526 20.557 335.752 21.018 Q334.979 21.479 334.369 21.714 L334.369 20.417 Q335.479 19.885 336.299 19.128 Q337.119 18.370 337.463 17.667 L338.322 17.667 L338.322 28.667 Z"/>
  <path d="M341.510 23.167 Q341.510 21.260 341.901 20.096 Q342.291 18.932 343.065 18.299 Q343.838 17.667 345.010 17.667 Q345.869 17.667 346.526 18.018 Q347.182 18.370 347.604 19.026 Q348.026 19.682 348.268 20.628 Q348.510 21.573 348.510 23.167 Q348.510 25.073 348.119 26.237 Q347.729 27.401 346.955 28.034 Q346.182 28.667 345.010 28.667 Q343.463 28.667 342.572 27.557 Q341.510 26.198 341.510 23.167 Z M342.869 23.167 Q342.869 25.870 343.487 26.768 Q344.104 27.667 345.010 27.667 Q345.916 27.667 346.533 26.768 Q347.151 25.870 347.151 23.167 Q347.151 20.448 346.533 19.557 Q345.916 18.667 344.994 18.667 Q344.088 18.667 343.541 19.448 Q342.869 20.464 342.869 23.167 Z"/>
  <path d="M349.229 23.667 Q349.276 23.214 349.572 22.760 Q350.026 22.089 351.080 21.260 Q352.135 20.432 352.338 20.198 Q352.604 19.870 352.604 19.542 Q352.604 19.151 352.346 18.909 Q352.088 18.667 351.588 18.667 Q351.104 18.667 350.869 18.870 Q350.635 19.073 350.479 19.667 L349.385 19.667 Q349.604 18.635 350.127 18.151 Q350.651 17.667 351.619 17.667 Q352.729 17.667 353.244 18.135 Q353.760 18.604 353.760 19.292 Q353.760 19.948 353.322 20.557 Q352.994 20.995 351.822 21.917 Q351.213 22.385 350.963 22.667 L353.791 22.667 L353.791 23.667 L349.229 23.667 Z"/>
  <path d="M395.786 28.667 L395.786 25.667 L391.130 25.667 L391.130 24.667 L396.036 17.667 L397.114 17.667 L397.114 24.667 L398.567 24.667 L398.567 25.667 L397.114 25.667 L397.114 28.667 L395.786 28.667 Z M395.786 24.667 L395.786 19.870 L392.427 24.667 L395.786 24.667 Z"/>
  <path d="M400.458 28.667 L400.458 27.667 L401.958 27.667 L401.958 28.667 L400.458 28.667 Z"/>
  <path d="M403.802 23.167 Q403.802 21.260 404.192 20.096 Q404.583 18.932 405.357 18.299 Q406.130 17.667 407.302 17.667 Q408.161 17.667 408.817 18.018 Q409.474 18.370 409.896 19.026 Q410.317 19.682 410.560 20.628 Q410.802 21.573 410.802 23.167 Q410.802 25.073 410.411 26.237 Q410.021 27.401 409.247 28.034 Q408.474 28.667 407.302 28.667 Q405.755 28.667 404.864 27.557 Q403.802 26.198 403.802 23.167 Z M405.161 23.167 Q405.161 25.870 405.778 26.768 Q406.396 27.667 407.302 27.667 Q408.208 27.667 408.825 26.768 Q409.442 25.870 409.442 23.167 Q409.442 20.448 408.825 19.557 Q408.208 18.667 407.286 18.667 Q406.380 18.667 405.833 19.448 Q405.161 20.464 405.161 23.167 Z"/>
  <path d=""/>
  <path d="M415.442 25.667 L417.739 23.167 L415.458 20.667 L416.349 19.667 L418.646 22.182 L420.942 19.667 L421.817 20.010 L419.536 23.151 L421.833 26.323 L420.942 26.667 L418.630 24.151 L416.333 26.667 L415.442 25.667 Z"/>
  <path d=""/>
  <path d="M431.364 28.667 L430.036 28.667 L430.036 20.089 Q429.567 20.557 428.794 21.018 Q428.021 21.479 427.411 21.714 L427.411 20.417 Q428.521 19.885 429.341 19.128 Q430.161 18.370 430.505 17.667 L431.364 17.667 L431.364 28.667 Z"/>
  <path d="M434.552 23.167 Q434.552 21.260 434.942 20.096 Q435.333 18.932 436.107 18.299 Q436.880 17.667 438.052 17.667 Q438.911 17.667 439.567 18.018 Q440.224 18.370 440.646 19.026 Q441.067 19.682 441.310 20.628 Q441.552 21.573 441.552 23.167 Q441.552 25.073 441.161 26.237 Q440.771 27.401 439.997 28.034 Q439.224 28.667 438.052 28.667 Q436.505 28.667 435.614 27.557 Q434.552 26.198 434.552 23.167 Z M435.911 23.167 Q435.911 25.870 436.528 26.768 Q437.146 27.667 438.052 27.667 Q438.958 27.667 439.575 26.768 Q440.192 25.870 440.192 23.167 Q440.192 20.448 439.575 19.557 Q438.958 18.667 438.036 18.667 Q437.130 18.667 436.583 19.448 Q435.911 20.464 435.911 23.167 Z"/>
  <path d="M442.271 23.667 Q442.317 23.214 442.614 22.760 Q443.067 22.089 444.122 21.260 Q445.177 20.432 445.380 20.198 Q445.646 19.870 445.646 19.542 Q445.646 19.151 445.388 18.909 Q445.130 18.667 444.630 18.667 Q444.146 18.667 443.911 18.870 Q443.677 19.073 443.521 19.667 L442.427 19.667 Q442.646 18.635 443.169 18.151 Q443.692 17.667 444.661 17.667 Q445.771 17.667 446.286 18.135 Q446.802 18.604 446.802 19.292 Q446.802 19.948 446.364 20.557 Q446.036 20.995 444.864 21.917 Q444.255 22.385 444.005 22.667 L446.833 22.667 L446.833 23.667 L442.271 23.667 Z"/>
  <path d="M484.609 25.667 L485.984 25.667 Q486.141 26.667 486.703 27.167 Q487.266 27.667 488.047 27.667 Q489 27.667 489.664 26.956 Q490.328 26.245 490.328 25.073 Q490.328 23.964 489.695 23.315 Q489.062 22.667 488.031 22.667 Q487.391 22.667 486.883 22.948 Q486.375 23.229 486.078 23.667 L484.844 23.667 L485.875 17.667 L491.219 17.667 L491.219 18.667 L486.938 18.667 L486.359 22.245 Q487.328 21.667 488.391 21.667 Q489.781 21.667 490.750 22.604 Q491.719 23.542 491.719 24.995 Q491.719 26.401 490.875 27.417 Q489.844 28.667 488.047 28.667 Q486.594 28.667 485.664 27.846 Q484.734 27.026 484.609 25.667 Z"/>
  <path d="M493.500 28.667 L493.500 27.667 L495 27.667 L495 28.667 L493.500 28.667 Z"/>
  <path d="M496.844 23.167 Q496.844 21.260 497.234 20.096 Q497.625 18.932 498.398 18.299 Q499.172 17.667 500.344 17.667 Q501.203 17.667 501.859 18.018 Q502.516 18.370 502.938 19.026 Q503.359 19.682 503.602 20.628 Q503.844 21.573 503.844 23.167 Q503.844 25.073 503.453 26.237 Q503.062 27.401 502.289 28.034 Q501.516 28.667 500.344 28.667 Q498.797 28.667 497.906 27.557 Q496.844 26.198 496.844 23.167 Z M498.203 23.167 Q498.203 25.870 498.820 26.768 Q499.438 27.667 500.344 27.667 Q501.250 27.667 501.867 26.768 Q502.484 25.870 502.484 23.167 Q502.484 20.448 501.867 19.557 Q501.250 18.667 500.328 18.667 Q499.422 18.667 498.875 19.448 Q498.203 20.464 498.203 23.167 Z"/>
  <path d=""/>
  <path d="M508.484 25.667 L510.781 23.167 L508.500 20.667 L509.391 19.667 L511.688 22.182 L513.984 19.667 L514.859 20.010 L512.578 23.151 L514.875 26.323 L513.984 26.667 L511.672 24.151 L509.375 26.667 L508.484 25.667 Z"/>
  <path d=""/>
  <path d="M524.406 28.667 L523.078 28.667 L523.078 20.089 Q522.609 20.557 521.836 21.018 Q521.062 21.479 520.453 21.714 L520.453 20.417 Q521.562 19.885 522.383 19.128 Q523.203 18.370 523.547 17.667 L524.406 17.667 L524.406 28.667 Z"/>
  <path d="M527.594 23.167 Q527.594 21.260 527.984 20.096 Q528.375 18.932 529.148 18.299 Q529.922 17.667 531.094 17.667 Q531.953 17.667 532.609 18.018 Q533.266 18.370 533.688 19.026 Q534.109 19.682 534.352 20.628 Q534.594 21.573 534.594 23.167 Q534.594 25.073 534.203 26.237 Q533.812 27.401 533.039 28.034 Q532.266 28.667 531.094 28.667 Q529.547 28.667 528.656 27.557 Q527.594 26.198 527.594 23.167 Z M528.953 23.167 Q528.953 25.870 529.570 26.768 Q530.188 27.667 531.094 27.667 Q532 27.667 532.617 26.768 Q533.234 25.870 533.234 23.167 Q533.234 20.448 532.617 19.557 Q532 18.667 531.078 18.667 Q530.172 18.667 529.625 19.448 Q528.953 20.464 528.953 23.167 Z"/>
  <path d="M535.312 23.667 Q535.359 23.214 535.656 22.760 Q536.109 22.089 537.164 21.260 Q538.219 20.432 538.422 20.198 Q538.688 19.870 538.688 19.542 Q538.688 19.151 538.430 18.909 Q538.172 18.667 537.672 18.667 Q537.188 18.667 536.953 18.870 Q536.719 19.073 536.562 19.667 L535.469 19.667 Q535.688 18.635 536.211 18.151 Q536.734 17.667 537.703 17.667 Q538.812 17.667 539.328 18.135 Q539.844 18.604 539.844 19.292 Q539.844 19.948 539.406 20.557 Q539.078 20.995 537.906 21.917 Q537.297 22.385 537.047 22.667 L539.875 22.667 L539.875 23.667 L535.312 23.667 Z"/>
  <path d="M584.495 20.667 L583.183 20.667 Q583.011 19.745 582.683 19.339 Q582.151 18.667 581.370 18.667 Q580.729 18.667 580.261 19.057 Q579.636 19.557 579.276 20.510 Q578.917 21.464 578.901 23.104 Q579.370 22.370 580.065 22.018 Q580.761 21.667 581.511 21.667 Q582.823 21.667 583.753 22.620 Q584.683 23.573 584.683 25.073 Q584.683 26.057 584.245 26.909 Q583.808 27.760 583.050 28.214 Q582.292 28.667 581.323 28.667 Q579.667 28.667 578.628 27.448 Q577.589 26.229 577.589 23.448 Q577.589 20.323 578.745 18.901 Q579.745 17.667 581.448 17.667 Q582.714 17.667 583.526 18.464 Q584.339 19.260 584.495 20.667 Z M579.104 25.042 Q579.104 25.729 579.393 26.362 Q579.683 26.995 580.206 27.331 Q580.729 27.667 581.292 27.667 Q582.136 27.667 582.737 26.979 Q583.339 26.292 583.339 25.104 Q583.339 23.979 582.745 23.323 Q582.151 22.667 581.245 22.667 Q580.354 22.667 579.729 23.323 Q579.104 23.979 579.104 25.042 Z"/>
  <path d="M586.542 28.667 L586.542 27.667 L588.042 27.667 L588.042 28.667 L586.542 28.667 Z"/>
  <path d="M589.886 23.167 Q589.886 21.260 590.276 20.096 Q590.667 18.932 591.440 18.299 Q592.214 17.667 593.386 17.667 Q594.245 17.667 594.901 18.018 Q595.558 18.370 595.979 19.026 Q596.401 19.682 596.643 20.628 Q596.886 21.573 596.886 23.167 Q596.886 25.073 596.495 26.237 Q596.104 27.401 595.331 28.034 Q594.558 28.667 593.386 28.667 Q591.839 28.667 590.948 27.557 Q589.886 26.198 589.886 23.167 Z M591.245 23.167 Q591.245 25.870 591.862 26.768 Q592.479 27.667 593.386 27.667 Q594.292 27.667 594.909 26.768 Q595.526 25.870 595.526 23.167 Q595.526 20.448 594.909 19.557 Q594.292 18.667 593.370 18.667 Q592.464 18.667 591.917 19.448 Q591.245 20.464 591.245 23.167 Z"/>
  <path d=""/>
  <path d="M601.526 25.667 L603.823 23.167 L601.542 20.667 L602.433 19.667 L604.729 22.182 L607.026 19.667 L607.901 20.010 L605.620 23.151 L607.917 26.323 L607.026 26.667 L604.714 24.151 L602.417 26.667 L601.526 25.667 Z"/>
  <path d=""/>
  <path d="M617.448 28.667 L616.120 28.667 L616.120 20.089 Q615.651 20.557 614.878 21.018 Q614.104 21.479 613.495 21.714 L613.495 20.417 Q614.604 19.885 615.425 19.128 Q616.245 18.370 616.589 17.667 L617.448 17.667 L617.448 28.667 Z"/>
  <path d="M620.636 23.167 Q620.636 21.260 621.026 20.096 Q621.417 18.932 622.190 18.299 Q622.964 17.667 624.136 17.667 Q624.995 17.667 625.651 18.018 Q626.308 18.370 626.729 19.026 Q627.151 19.682 627.393 20.628 Q627.636 21.573 627.636 23.167 Q627.636 25.073 627.245 26.237 Q626.854 27.401 626.081 28.034 Q625.308 28.667 624.136 28.667 Q622.589 28.667 621.698 27.557 Q620.636 26.198 620.636 23.167 Z M621.995 23.167 Q621.995 25.870 622.612 26.768 Q623.229 27.667 624.136 27.667 Q625.042 27.667 625.659 26.768 Q626.276 25.870 626.276 23.167 Q626.276 20.448 625.659 19.557 Q625.042 18.667 624.120 18.667 Q623.214 18.667 622.667 19.448 Q621.995 20.464 621.995 23.167 Z"/>
  <path d="M628.354 23.667 Q628.401 23.214 628.698 22.760 Q629.151 22.089 630.206 21.260 Q631.261 20.432 631.464 20.198 Q631.729 19.870 631.729 19.542 Q631.729 19.151 631.472 18.909 Q631.214 18.667 630.714 18.667 Q630.229 18.667 629.995 18.870 Q629.761 19.073 629.604 19.667 L628.511 19.667 Q628.729 18.635 629.253 18.151 Q629.776 17.667 630.745 17.667 Q631.854 17.667 632.370 18.135 Q632.886 18.604 632.886 19.292 Q632.886 19.948 632.448 20.557 Q632.120 20.995 630.948 21.917 Q630.339 22.385 630.089 22.667 L632.917 22.667 L632.917 23.667 L628.354 23.667 Z"/>
  <path d="M670.771 18.667 L670.771 17.667 L677.724 17.667 L677.724 18.479 Q676.709 19.573 675.701 21.510 Q674.693 23.448 674.131 25.495 Q673.740 26.948 673.631 28.667 L672.287 28.667 Q672.303 27.307 672.779 25.385 Q673.256 23.464 674.146 21.674 Q675.037 19.885 676.037 18.667 L670.771 18.667 Z"/>
  <path d="M679.584 28.667 L679.584 27.667 L681.084 27.667 L681.084 28.667 L679.584 28.667 Z"/>
  <path d="M682.928 23.167 Q682.928 21.260 683.318 20.096 Q683.709 18.932 684.482 18.299 Q685.256 17.667 686.428 17.667 Q687.287 17.667 687.943 18.018 Q688.599 18.370 689.021 19.026 Q689.443 19.682 689.685 20.628 Q689.928 21.573 689.928 23.167 Q689.928 25.073 689.537 26.237 Q689.146 27.401 688.373 28.034 Q687.599 28.667 686.428 28.667 Q684.881 28.667 683.990 27.557 Q682.928 26.198 682.928 23.167 Z M684.287 23.167 Q684.287 25.870 684.904 26.768 Q685.521 27.667 686.428 27.667 Q687.334 27.667 687.951 26.768 Q688.568 25.870 688.568 23.167 Q688.568 20.448 687.951 19.557 Q687.334 18.667 686.412 18.667 Q685.506 18.667 684.959 19.448 Q684.287 20.464 684.287 23.167 Z"/>
  <path d=""/>
  <path d="M694.568 25.667 L696.865 23.167 L694.584 20.667 L695.474 19.667 L697.771 22.182 L700.068 19.667 L700.943 20.010 L698.662 23.151 L700.959 26.323 L700.068 26.667 L697.756 24.151 L695.459 26.667 L694.568 25.667 Z"/>
  <path d=""/>
  <path d="M710.490 28.667 L709.162 28.667 L709.162 20.089 Q708.693 20.557 707.920 21.018 Q707.146 21.479 706.537 21.714 L706.537 20.417 Q707.646 19.885 708.467 19.128 Q709.287 18.370 709.631 17.667 L710.490 17.667 L710.490 28.667 Z"/>
  <path d="M713.678 23.167 Q713.678 21.260 714.068 20.096 Q714.459 18.932 715.232 18.299 Q716.006 17.667 717.178 17.667 Q718.037 17.667 718.693 18.018 Q719.349 18.370 719.771 19.026 Q720.193 19.682 720.435 20.628 Q720.678 21.573 720.678 23.167 Q720.678 25.073 720.287 26.237 Q719.896 27.401 719.123 28.034 Q718.349 28.667 717.178 28.667 Q715.631 28.667 714.740 27.557 Q713.678 26.198 713.678 23.167 Z M715.037 23.167 Q715.037 25.870 715.654 26.768 Q716.271 27.667 717.178 27.667 Q718.084 27.667 718.701 26.768 Q719.318 25.870 719.318 23.167 Q719.318 20.448 718.701 19.557 Q718.084 18.667 717.162 18.667 Q716.256 18.667 715.709 19.448 Q715.037 20.464 715.037 23.167 Z"/>
  <path d="M721.396 23.667 Q721.443 23.214 721.740 22.760 Q722.193 22.089 723.248 21.260 Q724.303 20.432 724.506 20.198 Q724.771 19.870 724.771 19.542 Q724.771 19.151 724.513 18.909 Q724.256 18.667 723.756 18.667 Q723.271 18.667 723.037 18.870 Q722.803 19.073 722.646 19.667 L721.553 19.667 Q721.771 18.635 722.295 18.151 Q722.818 17.667 723.787 17.667 Q724.896 17.667 725.412 18.135 Q725.928 18.604 725.928 19.292 Q725.928 19.948 725.490 20.557 Q725.162 20.995 723.990 21.917 Q723.381 22.385 723.131 22.667 L725.959 22.667 L725.959 23.667 L721.396 23.667 Z"/>
  <path d="M765.766 23.135 Q764.954 22.807 764.555 22.190 Q764.157 21.573 764.157 20.714 Q764.157 19.432 765.001 18.549 Q765.844 17.667 767.235 17.667 Q768.641 17.667 769.501 18.565 Q770.360 19.464 770.360 20.760 Q770.360 21.589 769.962 22.198 Q769.563 22.807 768.766 23.135 Q769.766 23.432 770.282 24.096 Q770.798 24.760 770.798 25.667 Q770.798 26.932 769.821 27.799 Q768.844 28.667 767.266 28.667 Q765.673 28.667 764.696 27.799 Q763.719 26.932 763.719 25.635 Q763.719 24.667 764.251 24.018 Q764.782 23.370 765.766 23.135 Z M765.501 20.620 Q765.501 21.526 765.993 22.096 Q766.485 22.667 767.266 22.667 Q768.032 22.667 768.516 22.096 Q769.001 21.526 769.001 20.698 Q769.001 19.839 768.501 19.253 Q768.001 18.667 767.251 18.667 Q766.501 18.667 766.001 19.237 Q765.501 19.807 765.501 20.620 Z M765.079 25.651 Q765.079 26.167 765.344 26.651 Q765.610 27.135 766.133 27.401 Q766.657 27.667 767.266 27.667 Q768.204 27.667 768.821 27.104 Q769.438 26.542 769.438 25.682 Q769.438 24.807 768.805 24.237 Q768.173 23.667 767.219 23.667 Q766.298 23.667 765.688 24.229 Q765.079 24.792 765.079 25.651 Z"/>
  <path d="M772.626 28.667 L772.626 27.667 L774.126 27.667 L774.126 28.667 L772.626 28.667 Z"/>
  <path d="M775.969 23.167 Q775.969 21.260 776.360 20.096 Q776.751 18.932 777.524 18.299 Q778.298 17.667 779.469 17.667 Q780.329 17.667 780.985 18.018 Q781.641 18.370 782.063 19.026 Q782.485 19.682 782.727 20.628 Q782.969 21.573 782.969 23.167 Q782.969 25.073 782.579 26.237 Q782.188 27.401 781.415 28.034 Q780.641 28.667 779.469 28.667 Q777.923 28.667 777.032 27.557 Q775.969 26.198 775.969 23.167 Z M777.329 23.167 Q777.329 25.870 777.946 26.768 Q778.563 27.667 779.469 27.667 Q780.376 27.667 780.993 26.768 Q781.610 25.870 781.610 23.167 Q781.610 20.448 780.993 19.557 Q780.376 18.667 779.454 18.667 Q778.548 18.667 778.001 19.448 Q777.329 20.464 777.329 23.167 Z"/>
  <path d=""/>
  <path d="M787.610 25.667 L789.907 23.167 L787.626 20.667 L788.516 19.667 L790.813 22.182 L793.110 19.667 L793.985 20.010 L791.704 23.151 L794.001 26.323 L793.110 26.667 L790.798 24.151 L788.501 26.667 L787.610 25.667 Z"/>
  <path d=""/>
  <path d="M803.532 28.667 L802.204 28.667 L802.204 20.089 Q801.735 20.557 800.962 21.018 Q800.188 21.479 799.579 21.714 L799.579 20.417 Q800.688 19.885 801.508 19.128 Q802.329 18.370 802.673 17.667 L803.532 17.667 L803.532 28.667 Z"/>
  <path d="M806.719 23.167 Q806.719 21.260 807.110 20.096 Q807.501 18.932 808.274 18.299 Q809.048 17.667 810.219 17.667 Q811.079 17.667 811.735 18.018 Q812.391 18.370 812.813 19.026 Q813.235 19.682 813.477 20.628 Q813.719 21.573 813.719 23.167 Q813.719 25.073 813.329 26.237 Q812.938 27.401 812.165 28.034 Q811.391 28.667 810.219 28.667 Q808.673 28.667 807.782 27.557 Q806.719 26.198 806.719 23.167 Z M808.079 23.167 Q808.079 25.870 808.696 26.768 Q809.313 27.667 810.219 27.667 Q811.126 27.667 811.743 26.768 Q812.360 25.870 812.360 23.167 Q812.360 20.448 811.743 19.557 Q811.126 18.667 810.204 18.667 Q809.298 18.667 808.751 19.448 Q808.079 20.464 808.079 23.167 Z"/>
  <path d="M814.438 23.667 Q814.485 23.214 814.782 22.760 Q815.235 22.089 816.290 21.260 Q817.344 20.432 817.548 20.198 Q817.813 19.870 817.813 19.542 Q817.813 19.151 817.555 18.909 Q817.298 18.667 816.798 18.667 Q816.313 18.667 816.079 18.870 Q815.844 19.073 815.688 19.667 L814.594 19.667 Q814.813 18.635 815.337 18.151 Q815.860 17.667 816.829 17.667 Q817.938 17.667 818.454 18.135 Q818.969 18.604 818.969 19.292 Q818.969 19.948 818.532 20.557 Q818.204 20.995 817.032 21.917 Q816.423 22.385 816.173 22.667 L819.001 22.667 L819.001 23.667 L814.438 23.667 Z"/>
  <path d="M856.980 25.667 L858.246 25.667 Q858.402 26.714 858.855 27.190 Q859.308 27.667 860.027 27.667 Q860.621 27.667 861.082 27.362 Q861.543 27.057 861.832 26.549 Q862.121 26.042 862.324 25.190 Q862.527 24.339 862.527 23.510 Q862.527 23.432 862.511 23.260 Q862.121 23.885 861.433 24.276 Q860.746 24.667 859.949 24.667 Q858.621 24.667 857.699 23.721 Q856.777 22.776 856.777 21.214 Q856.777 19.620 857.738 18.643 Q858.699 17.667 860.152 17.667 Q861.199 17.667 862.066 18.229 Q862.933 18.792 863.386 19.839 Q863.839 20.885 863.839 22.870 Q863.839 24.948 863.394 26.167 Q862.949 27.385 862.066 28.026 Q861.183 28.667 859.996 28.667 Q858.730 28.667 857.933 27.878 Q857.136 27.089 856.980 25.667 Z M862.371 21.198 Q862.371 20.026 861.769 19.346 Q861.168 18.667 860.308 18.667 Q859.433 18.667 858.785 19.401 Q858.136 20.135 858.136 21.307 Q858.136 22.354 858.753 23.010 Q859.371 23.667 860.277 23.667 Q861.199 23.667 861.785 23.010 Q862.371 22.354 862.371 21.198 Z"/>
  <path d="M865.668 28.667 L865.668 27.667 L867.168 27.667 L867.168 28.667 L865.668 28.667 Z"/>
  <path d="M869.011 23.167 Q869.011 21.260 869.402 20.096 Q869.793 18.932 870.566 18.299 Q871.339 17.667 872.511 17.667 Q873.371 17.667 874.027 18.018 Q874.683 18.370 875.105 19.026 Q875.527 19.682 875.769 20.628 Q876.011 21.573 876.011 23.167 Q876.011 25.073 875.621 26.237 Q875.230 27.401 874.457 28.034 Q873.683 28.667 872.511 28.667 Q870.964 28.667 870.074 27.557 Q869.011 26.198 869.011 23.167 Z M870.371 23.167 Q870.371 25.870 870.988 26.768 Q871.605 27.667 872.511 27.667 Q873.418 27.667 874.035 26.768 Q874.652 25.870 874.652 23.167 Q874.652 20.448 874.035 19.557 Q873.418 18.667 872.496 18.667 Q871.589 18.667 871.043 19.448 Q870.371 20.464 870.371 23.167 Z"/>
  <path d=""/>
  <path d="M880.652 25.667 L882.949 23.167 L880.668 20.667 L881.558 19.667 L883.855 22.182 L886.152 19.667 L887.027 20.010 L884.746 23.151 L887.043 26.323 L886.152 26.667 L883.839 24.151 L881.543 26.667 L880.652 25.667 Z"/>
  <path d=""/>
  <path d="M896.574 28.667 L895.246 28.667 L895.246 20.089 Q894.777 20.557 894.003 21.018 Q893.230 21.479 892.621 21.714 L892.621 20.417 Q893.730 19.885 894.550 19.128 Q895.371 18.370 895.714 17.667 L896.574 17.667 L896.574 28.667 Z"/>
  <path d="M899.761 23.167 Q899.761 21.260 900.152 20.096 Q900.543 18.932 901.316 18.299 Q902.089 17.667 903.261 17.667 Q904.121 17.667 904.777 18.018 Q905.433 18.370 905.855 19.026 Q906.277 19.682 906.519 20.628 Q906.761 21.573 906.761 23.167 Q906.761 25.073 906.371 26.237 Q905.980 27.401 905.207 28.034 Q904.433 28.667 903.261 28.667 Q901.714 28.667 900.824 27.557 Q899.761 26.198 899.761 23.167 Z M901.121 23.167 Q901.121 25.870 901.738 26.768 Q902.355 27.667 903.261 27.667 Q904.168 27.667 904.785 26.768 Q905.402 25.870 905.402 23.167 Q905.402 20.448 904.785 19.557 Q904.168 18.667 903.246 18.667 Q902.339 18.667 901.793 19.448 Q901.121 20.464 901.121 23.167 Z"/>
  <path d="M907.480 23.667 Q907.527 23.214 907.824 22.760 Q908.277 22.089 909.332 21.260 Q910.386 20.432 910.589 20.198 Q910.855 19.870 910.855 19.542 Q910.855 19.151 910.597 18.909 Q910.339 18.667 909.839 18.667 Q909.355 18.667 909.121 18.870 Q908.886 19.073 908.730 19.667 L907.636 19.667 Q907.855 18.635 908.378 18.151 Q908.902 17.667 909.871 17.667 Q910.980 17.667 911.496 18.135 Q912.011 18.604 912.011 19.292 Q912.011 19.948 911.574 20.557 Q911.246 20.995 910.074 21.917 Q909.464 22.385 909.214 22.667 L912.043 22.667 L912.043 23.667 L907.480 23.667 Z"/>
  <path d="M977.209 467.600 L977.209 44.400" fill="none" stroke="#000000" stroke-width="1.333"/>
  <path d="M971.876 467.600 L977.209 467.600" fill="none" stroke="#000000" stroke-width="1.333"/>
  <path d="M971.876 425.280 L977.209 425.280" fill="none" stroke="#000000" stroke-width="1.333"/>
  <path d="M971.876 382.960 L977.209 382.960" fill="none" stroke="#000000" stroke-width="1.333"/>
  <path d="M971.876 340.640 L977.209 340.640" fill="none" stroke="#000000" stroke-width="1.333"/>
  <path d="M971.876 298.320 L977.209 298.320" fill="none" stroke="#000000" stroke-width="1.333"/>
  <path d="M971.876 256 L977.209 256" fill="none" stroke="#000000" stroke-width="1.333"/>
  <path d="M971.876 213.680 L977.209 213.680" fill="none" stroke="#000000" stroke-width="1.333"/>
  <path d="M971.876 171.360 L977.209 171.360" fill="none" stroke="#000000" stroke-width="1.333"/>
  <path d="M971.876 129.040 L977.209 129.040" fill="none" stroke="#000000" stroke-width="1.333"/>
  <path d="M971.876 86.720 L977.209 86.720" fill="none" stroke="#000000" stroke-width="1.333"/>
  <path d="M971.876 44.400 L977.209 44.400" fill="none" stroke="#000000" stroke-width="1.333"/>
  <path d="M989.568 467.100 Q989.568 465.194 989.958 464.030 Q990.349 462.866 991.122 462.233 Q991.896 461.600 993.068 461.600 Q993.927 461.600 994.583 461.952 Q995.240 462.303 995.661 462.959 Q996.083 463.616 996.326 464.561 Q996.568 465.506 996.568 467.100 Q996.568 469.006 996.177 470.170 Q995.786 471.334 995.013 471.967 Q994.240 472.600 993.068 472.600 Q991.521 472.600 990.630 471.491 Q989.568 470.131 989.568 467.100 Z M990.927 467.100 Q990.927 469.803 991.544 470.702 Q992.161 471.600 993.068 471.600 Q993.974 471.600 994.591 470.702 Q995.208 469.803 995.208 467.100 Q995.208 464.381 994.591 463.491 Q993.974 462.600 993.052 462.600 Q992.146 462.600 991.599 463.381 Q990.927 464.397 990.927 467.100 Z"/>
  <path d="M998.458 472.600 L998.458 471.600 L999.958 471.600 L999.958 472.600 L998.458 472.600 Z"/>
  <path d="M1001.802 467.100 Q1001.802 465.194 1002.193 464.030 Q1002.583 462.866 1003.357 462.233 Q1004.130 461.600 1005.302 461.600 Q1006.161 461.600 1006.818 461.952 Q1007.474 462.303 1007.896 462.959 Q1008.318 463.616 1008.560 464.561 Q1008.802 465.506 1008.802 467.100 Q1008.802 469.006 1008.411 470.170 Q1008.021 471.334 1007.247 471.967 Q1006.474 472.600 1005.302 472.600 Q1003.755 472.600 1002.865 471.491 Q1001.802 470.131 1001.802 467.100 Z M1003.161 467.100 Q1003.161 469.803 1003.779 470.702 Q1004.396 471.600 1005.302 471.600 Q1006.208 471.600 1006.826 470.702 Q1007.443 469.803 1007.443 467.100 Q1007.443 464.381 1006.826 463.491 Q1006.208 462.600 1005.286 462.600 Q1004.380 462.600 1003.833 463.381 Q1003.161 464.397 1003.161 467.100 Z"/>
  <path d="M989.568 424.780 Q989.568 422.874 989.958 421.710 Q990.349 420.546 991.122 419.913 Q991.896 419.280 993.068 419.280 Q993.927 419.280 994.583 419.632 Q995.240 419.983 995.661 420.639 Q996.083 421.296 996.326 422.241 Q996.568 423.186 996.568 424.780 Q996.568 426.686 996.177 427.850 Q995.786 429.014 995.013 429.647 Q994.240 430.280 993.068 430.280 Q991.521 430.280 990.630 429.171 Q989.568 427.811 989.568 424.780 Z M990.927 424.780 Q990.927 427.483 991.544 428.382 Q992.161 429.280 993.068 429.280 Q993.974 429.280 994.591 428.382 Q995.208 427.483 995.208 424.780 Q995.208 422.061 994.591 421.171 Q993.974 420.280 993.052 420.280 Q992.146 420.280 991.599 421.061 Q990.927 422.077 990.927 424.780 Z"/>
  <path d="M998.458 430.280 L998.458 429.280 L999.958 429.280 L999.958 430.280 L998.458 430.280 Z"/>
  <path d="M1001.802 427.280 L1003.130 427.280 Q1003.365 428.342 1003.904 428.811 Q1004.443 429.280 1005.224 429.280 Q1006.161 429.280 1006.802 428.663 Q1007.443 428.046 1007.443 427.139 Q1007.443 426.264 1006.849 425.694 Q1006.255 425.124 1005.333 425.124 Q1004.958 425.124 1004.411 425.280 L1004.552 424.280 Q1004.693 424.296 1004.771 424.296 Q1005.615 424.296 1006.286 423.788 Q1006.958 423.280 1006.958 422.217 Q1006.958 421.389 1006.466 420.835 Q1005.974 420.280 1005.193 420.280 Q1004.427 420.280 1003.911 420.780 Q1003.396 421.280 1003.255 422.280 L1001.943 422.280 Q1002.177 420.858 1003.036 420.069 Q1003.896 419.280 1005.177 419.280 Q1006.052 419.280 1006.794 419.686 Q1007.536 420.092 1007.927 420.796 Q1008.318 421.499 1008.318 422.296 Q1008.318 423.046 1007.943 423.663 Q1007.568 424.280 1006.833 424.639 Q1007.786 424.842 1008.310 425.491 Q1008.833 426.139 1008.833 427.124 Q1008.833 428.436 1007.810 429.358 Q1006.786 430.280 1005.208 430.280 Q1003.802 430.280 1002.865 429.444 Q1001.927 428.608 1001.802 427.280 Z"/>
  <path d="M989.568 382.460 Q989.568 380.554 989.958 379.390 Q990.349 378.226 991.122 377.593 Q991.896 376.960 993.068 376.960 Q993.927 376.960 994.583 377.312 Q995.240 377.663 995.661 378.319 Q996.083 378.976 996.326 379.921 Q996.568 380.866 996.568 382.460 Q996.568 384.366 996.177 385.530 Q995.786 386.694 995.013 387.327 Q994.240 387.960 993.068 387.960 Q991.521 387.960 990.630 386.851 Q989.568 385.491 989.568 382.460 Z M990.927 382.460 Q990.927 385.163 991.544 386.062 Q992.161 386.960 993.068 386.960 Q993.974 386.960 994.591 386.062 Q995.208 385.163 995.208 382.460 Q995.208 379.741 994.591 378.851 Q993.974 377.960 993.052 377.960 Q992.146 377.960 991.599 378.741 Q990.927 379.757 990.927 382.460 Z"/>
  <path d="M998.458 387.960 L998.458 386.960 L999.958 386.960 L999.958 387.960 L998.458 387.960 Z"/>
  <path d="M1008.646 379.960 L1007.333 379.960 Q1007.161 379.038 1006.833 378.632 Q1006.302 377.960 1005.521 377.960 Q1004.880 377.960 1004.411 378.351 Q1003.786 378.851 1003.427 379.804 Q1003.068 380.757 1003.052 382.397 Q1003.521 381.663 1004.216 381.312 Q1004.911 380.960 1005.661 380.960 Q1006.974 380.960 1007.904 381.913 Q1008.833 382.866 1008.833 384.366 Q1008.833 385.351 1008.396 386.202 Q1007.958 387.054 1007.201 387.507 Q1006.443 387.960 1005.474 387.960 Q1003.818 387.960 1002.779 386.741 Q1001.740 385.522 1001.740 382.741 Q1001.740 379.616 1002.896 378.194 Q1003.896 376.960 1005.599 376.960 Q1006.865 376.960 1007.677 377.757 Q1008.490 378.554 1008.646 379.960 Z M1003.255 384.335 Q1003.255 385.022 1003.544 385.655 Q1003.833 386.288 1004.357 386.624 Q1004.880 386.960 1005.443 386.960 Q1006.286 386.960 1006.888 386.272 Q1007.490 385.585 1007.490 384.397 Q1007.490 383.272 1006.896 382.616 Q1006.302 381.960 1005.396 381.960 Q1004.505 381.960 1003.880 382.616 Q1003.255 383.272 1003.255 384.335 Z"/>
  <path d="M989.568 340.140 Q989.568 338.234 989.958 337.070 Q990.349 335.906 991.122 335.273 Q991.896 334.640 993.068 334.640 Q993.927 334.640 994.583 334.992 Q995.240 335.343 995.661 335.999 Q996.083 336.656 996.326 337.601 Q996.568 338.546 996.568 340.140 Q996.568 342.046 996.177 343.210 Q995.786 344.374 995.013 345.007 Q994.240 345.640 993.068 345.640 Q991.521 345.640 990.630 344.531 Q989.568 343.171 989.568 340.140 Z M990.927 340.140 Q990.927 342.843 991.544 343.742 Q992.161 344.640 993.068 344.640 Q993.974 344.640 994.591 343.742 Q995.208 342.843 995.208 340.140 Q995.208 337.421 994.591 336.531 Q993.974 335.640 993.052 335.640 Q992.146 335.640 991.599 336.421 Q990.927 337.437 990.927 340.140 Z"/>
  <path d="M998.458 345.640 L998.458 344.640 L999.958 344.640 L999.958 345.640 L998.458 345.640 Z"/>
  <path d="M1002.005 342.640 L1003.271 342.640 Q1003.427 343.687 1003.880 344.163 Q1004.333 344.640 1005.052 344.640 Q1005.646 344.640 1006.107 344.335 Q1006.568 344.031 1006.857 343.523 Q1007.146 343.015 1007.349 342.163 Q1007.552 341.312 1007.552 340.484 Q1007.552 340.406 1007.536 340.234 Q1007.146 340.859 1006.458 341.249 Q1005.771 341.640 1004.974 341.640 Q1003.646 341.640 1002.724 340.695 Q1001.802 339.749 1001.802 338.187 Q1001.802 336.593 1002.763 335.617 Q1003.724 334.640 1005.177 334.640 Q1006.224 334.640 1007.091 335.202 Q1007.958 335.765 1008.411 336.812 Q1008.865 337.859 1008.865 339.843 Q1008.865 341.921 1008.419 343.140 Q1007.974 344.359 1007.091 344.999 Q1006.208 345.640 1005.021 345.640 Q1003.755 345.640 1002.958 344.851 Q1002.161 344.062 1002.005 342.640 Z M1007.396 338.171 Q1007.396 336.999 1006.794 336.320 Q1006.193 335.640 1005.333 335.640 Q1004.458 335.640 1003.810 336.374 Q1003.161 337.109 1003.161 338.281 Q1003.161 339.327 1003.779 339.984 Q1004.396 340.640 1005.302 340.640 Q1006.224 340.640 1006.810 339.984 Q1007.396 339.327 1007.396 338.171 Z"/>
  <path d="M994.536 303.320 L993.208 303.320 L993.208 294.742 Q992.740 295.211 991.966 295.672 Q991.193 296.132 990.583 296.367 L990.583 295.070 Q991.693 294.539 992.513 293.781 Q993.333 293.023 993.677 292.320 L994.536 292.320 L994.536 303.320 Z"/>
  <path d="M998.458 303.320 L998.458 302.320 L999.958 302.320 L999.958 303.320 L998.458 303.320 Z"/>
  <path d="M1008.724 302.320 L1008.724 303.320 L1001.630 303.320 Q1001.615 302.929 1001.786 302.554 Q1002.052 301.945 1002.654 301.359 Q1003.255 300.773 1004.380 299.711 Q1006.130 298.054 1006.747 297.125 Q1007.365 296.195 1007.365 295.382 Q1007.365 294.507 1006.802 293.914 Q1006.240 293.320 1005.349 293.320 Q1004.396 293.320 1003.818 293.851 Q1003.240 294.382 1003.240 295.320 L1001.880 295.320 Q1002.021 293.851 1002.927 293.086 Q1003.833 292.320 1005.365 292.320 Q1006.911 292.320 1007.810 293.211 Q1008.708 294.101 1008.708 295.429 Q1008.708 296.101 1008.443 296.750 Q1008.177 297.398 1007.568 298.117 Q1006.958 298.836 1005.536 300.117 Q1004.349 301.179 1004.013 301.554 Q1003.677 301.929 1003.458 302.320 L1008.724 302.320 Z"/>
  <path d="M994.536 261 L993.208 261 L993.208 252.422 Q992.740 252.891 991.966 253.352 Q991.193 253.812 990.583 254.047 L990.583 252.750 Q991.693 252.219 992.513 251.461 Q993.333 250.703 993.677 250 L994.536 250 L994.536 261 Z"/>
  <path d="M998.458 261 L998.458 260 L999.958 260 L999.958 261 L998.458 261 Z"/>
  <path d="M1001.802 258 L1003.177 258 Q1003.333 259 1003.896 259.500 Q1004.458 260 1005.240 260 Q1006.193 260 1006.857 259.289 Q1007.521 258.578 1007.521 257.406 Q1007.521 256.297 1006.888 255.648 Q1006.255 255 1005.224 255 Q1004.583 255 1004.076 255.281 Q1003.568 255.562 1003.271 256 L1002.036 256 L1003.068 250 L1008.411 250 L1008.411 251 L1004.130 251 L1003.552 254.578 Q1004.521 254 1005.583 254 Q1006.974 254 1007.943 254.938 Q1008.911 255.875 1008.911 257.328 Q1008.911 258.734 1008.068 259.750 Q1007.036 261 1005.240 261 Q1003.786 261 1002.857 260.180 Q1001.927 259.359 1001.802 258 Z"/>
  <path d="M994.536 218.680 L993.208 218.680 L993.208 210.102 Q992.740 210.571 991.966 211.032 Q991.193 211.492 990.583 211.727 L990.583 210.430 Q991.693 209.899 992.513 209.141 Q993.333 208.383 993.677 207.680 L994.536 207.680 L994.536 218.680 Z"/>
  <path d="M998.458 218.680 L998.458 217.680 L999.958 217.680 L999.958 218.680 L998.458 218.680 Z"/>
  <path d="M1003.833 213.149 Q1003.021 212.821 1002.622 212.203 Q1002.224 211.586 1002.224 210.727 Q1002.224 209.446 1003.068 208.563 Q1003.911 207.680 1005.302 207.680 Q1006.708 207.680 1007.568 208.578 Q1008.427 209.477 1008.427 210.774 Q1008.427 211.602 1008.029 212.211 Q1007.630 212.821 1006.833 213.149 Q1007.833 213.446 1008.349 214.110 Q1008.865 214.774 1008.865 215.680 Q1008.865 216.946 1007.888 217.813 Q1006.911 218.680 1005.333 218.680 Q1003.740 218.680 1002.763 217.813 Q1001.786 216.946 1001.786 215.649 Q1001.786 214.680 1002.318 214.032 Q1002.849 213.383 1003.833 213.149 Z M1003.568 210.633 Q1003.568 211.539 1004.060 212.110 Q1004.552 212.680 1005.333 212.680 Q1006.099 212.680 1006.583 212.110 Q1007.068 211.539 1007.068 210.711 Q1007.068 209.852 1006.568 209.266 Q1006.068 208.680 1005.318 208.680 Q1004.568 208.680 1004.068 209.250 Q1003.568 209.821 1003.568 210.633 Z M1003.146 215.664 Q1003.146 216.180 1003.411 216.664 Q1003.677 217.149 1004.201 217.414 Q1004.724 217.680 1005.333 217.680 Q1006.271 217.680 1006.888 217.117 Q1007.505 216.555 1007.505 215.696 Q1007.505 214.821 1006.872 214.250 Q1006.240 213.680 1005.286 213.680 Q1004.365 213.680 1003.755 214.242 Q1003.146 214.805 1003.146 215.664 Z"/>
  <path d="M996.490 175.360 L996.490 176.360 L989.396 176.360 Q989.380 175.969 989.552 175.594 Q989.818 174.985 990.419 174.399 Q991.021 173.813 992.146 172.751 Q993.896 171.094 994.513 170.165 Q995.130 169.235 995.130 168.423 Q995.130 167.548 994.568 166.954 Q994.005 166.360 993.115 166.360 Q992.161 166.360 991.583 166.891 Q991.005 167.423 991.005 168.360 L989.646 168.360 Q989.786 166.891 990.693 166.126 Q991.599 165.360 993.130 165.360 Q994.677 165.360 995.576 166.251 Q996.474 167.141 996.474 168.469 Q996.474 169.141 996.208 169.790 Q995.943 170.438 995.333 171.157 Q994.724 171.876 993.302 173.157 Q992.115 174.219 991.779 174.594 Q991.443 174.969 991.224 175.360 L996.490 175.360 Z"/>
  <path d="M998.458 176.360 L998.458 175.360 L999.958 175.360 L999.958 176.360 L998.458 176.360 Z"/>
  <path d="M1006.771 176.360 L1005.443 176.360 L1005.443 167.782 Q1004.974 168.251 1004.201 168.712 Q1003.427 169.173 1002.818 169.407 L1002.818 168.110 Q1003.927 167.579 1004.747 166.821 Q1005.568 166.063 1005.911 165.360 L1006.771 165.360 L1006.771 176.360 Z"/>
  <path d="M996.490 133.040 L996.490 134.040 L989.396 134.040 Q989.380 133.649 989.552 133.274 Q989.818 132.665 990.419 132.079 Q991.021 131.493 992.146 130.431 Q993.896 128.774 994.513 127.845 Q995.130 126.915 995.130 126.102 Q995.130 125.227 994.568 124.634 Q994.005 124.040 993.115 124.040 Q992.161 124.040 991.583 124.571 Q991.005 125.102 991.005 126.040 L989.646 126.040 Q989.786 124.571 990.693 123.806 Q991.599 123.040 993.130 123.040 Q994.677 123.040 995.576 123.931 Q996.474 124.821 996.474 126.149 Q996.474 126.821 996.208 127.470 Q995.943 128.118 995.333 128.837 Q994.724 129.556 993.302 130.837 Q992.115 131.899 991.779 132.274 Q991.443 132.649 991.224 133.040 L996.490 133.040 Z"/>
  <path d="M998.458 134.040 L998.458 133.040 L999.958 133.040 L999.958 134.040 L998.458 134.040 Z"/>
  <path d="M1006.021 134.040 L1006.021 131.040 L1001.365 131.040 L1001.365 130.040 L1006.271 123.040 L1007.349 123.040 L1007.349 130.040 L1008.802 130.040 L1008.802 131.040 L1007.349 131.040 L1007.349 134.040 L1006.021 134.040 Z M1006.021 130.040 L1006.021 125.243 L1002.661 130.040 L1006.021 130.040 Z"/>
  <path d="M996.490 90.720 L996.490 91.720 L989.396 91.720 Q989.380 91.329 989.552 90.954 Q989.818 90.345 990.419 89.759 Q991.021 89.173 992.146 88.111 Q993.896 86.454 994.513 85.525 Q995.130 84.595 995.130 83.782 Q995.130 82.907 994.568 82.314 Q994.005 81.720 993.115 81.720 Q992.161 81.720 991.583 82.251 Q991.005 82.782 991.005 83.720 L989.646 83.720 Q989.786 82.251 990.693 81.486 Q991.599 80.720 993.130 80.720 Q994.677 80.720 995.576 81.611 Q996.474 82.501 996.474 83.829 Q996.474 84.501 996.208 85.150 Q995.943 85.798 995.333 86.517 Q994.724 87.236 993.302 88.517 Q992.115 89.579 991.779 89.954 Q991.443 90.329 991.224 90.720 L996.490 90.720 Z"/>
  <path d="M998.458 91.720 L998.458 90.720 L999.958 90.720 L999.958 91.720 L998.458 91.720 Z"/>
  <path d="M1001.880 81.720 L1001.880 80.720 L1008.833 80.720 L1008.833 81.532 Q1007.818 82.626 1006.810 84.564 Q1005.802 86.501 1005.240 88.548 Q1004.849 90.001 1004.740 91.720 L1003.396 91.720 Q1003.411 90.361 1003.888 88.439 Q1004.365 86.517 1005.255 84.728 Q1006.146 82.939 1007.146 81.720 L1001.880 81.720 Z"/>
  <path d="M989.568 46.400 L990.896 46.400 Q991.130 47.462 991.669 47.931 Q992.208 48.400 992.990 48.400 Q993.927 48.400 994.568 47.783 Q995.208 47.166 995.208 46.259 Q995.208 45.384 994.615 44.814 Q994.021 44.244 993.099 44.244 Q992.724 44.244 992.177 44.400 L992.318 43.400 Q992.458 43.416 992.536 43.416 Q993.380 43.416 994.052 42.908 Q994.724 42.400 994.724 41.337 Q994.724 40.509 994.232 39.955 Q993.740 39.400 992.958 39.400 Q992.193 39.400 991.677 39.900 Q991.161 40.400 991.021 41.400 L989.708 41.400 Q989.943 39.978 990.802 39.189 Q991.661 38.400 992.943 38.400 Q993.818 38.400 994.560 38.806 Q995.302 39.212 995.693 39.916 Q996.083 40.619 996.083 41.416 Q996.083 42.166 995.708 42.783 Q995.333 43.400 994.599 43.759 Q995.552 43.962 996.076 44.611 Q996.599 45.259 996.599 46.244 Q996.599 47.556 995.576 48.478 Q994.552 49.400 992.974 49.400 Q991.568 49.400 990.630 48.564 Q989.693 47.728 989.568 46.400 Z"/>
  <path d="M998.458 49.400 L998.458 48.400 L999.958 48.400 L999.958 49.400 L998.458 49.400 Z"/>
  <path d="M1001.802 43.900 Q1001.802 41.994 1002.193 40.830 Q1002.583 39.666 1003.357 39.033 Q1004.130 38.400 1005.302 38.400 Q1006.161 38.400 1006.818 38.752 Q1007.474 39.103 1007.896 39.759 Q1008.318 40.416 1008.560 41.361 Q1008.802 42.306 1008.802 43.900 Q1008.802 45.806 1008.411 46.970 Q1008.021 48.134 1007.247 48.767 Q1006.474 49.400 1005.302 49.400 Q1003.755 49.400 1002.865 48.291 Q1001.802 46.931 1001.802 43.900 Z M1003.161 43.900 Q1003.161 46.603 1003.779 47.502 Q1004.396 48.400 1005.302 48.400 Q1006.208 48.400 1006.826 47.502 Q1007.443 46.603 1007.443 43.900 Q1007.443 41.181 1006.826 40.291 Q1006.208 39.400 1005.286 39.400 Q1004.380 39.400 1003.833 40.181 Q1003.161 41.197 1003.161 43.900 Z"/>
  <path d="M46.791 467.600 L977.209 467.600" fill="none" stroke="#000000" stroke-width="1.333"/>
  <path d="M139.833 467.600 L139.833 462.267" fill="none" stroke="#000000" stroke-width="1.333"/>
  <path d="M232.874 467.600 L232.874 462.267" fill="none" stroke="#000000" stroke-width="1.333"/>
  <path d="M325.916 467.600 L325.916 462.267" fill="none" stroke="#000000" stroke-width="1.333"/>
  <path d="M418.958 467.600 L418.958 462.267" fill="none" stroke="#000000" stroke-width="1.333"/>
  <path d="M512 467.600 L512 462.267" fill="none" stroke="#000000" stroke-width="1.333"/>
  <path d="M605.042 467.600 L605.042 462.267" fill="none" stroke="#000000" stroke-width="1.333"/>
  <path d="M698.084 467.600 L698.084 462.267" fill="none" stroke="#000000" stroke-width="1.333"/>
  <path d="M791.126 467.600 L791.126 462.267" fill="none" stroke="#000000" stroke-width="1.333"/>
  <path d="M884.168 467.600 L884.168 462.267" fill="none" stroke="#000000" stroke-width="1.333"/>
  <path d="M117.411 493.333 L116.083 493.333 L116.083 484.755 Q115.614 485.224 114.840 485.685 Q114.067 486.146 113.458 486.380 L113.458 485.083 Q114.567 484.552 115.387 483.794 Q116.208 483.036 116.551 482.333 L117.411 482.333 L117.411 493.333 Z"/>
  <path d="M121.333 493.333 L121.333 492.333 L122.833 492.333 L122.833 493.333 L121.333 493.333 Z"/>
  <path d="M124.676 487.833 Q124.676 485.927 125.067 484.763 Q125.458 483.599 126.231 482.966 Q127.004 482.333 128.176 482.333 Q129.036 482.333 129.692 482.685 Q130.348 483.036 130.770 483.693 Q131.192 484.349 131.434 485.294 Q131.676 486.240 131.676 487.833 Q131.676 489.740 131.286 490.904 Q130.895 492.068 130.122 492.701 Q129.348 493.333 128.176 493.333 Q126.629 493.333 125.739 492.224 Q124.676 490.865 124.676 487.833 Z M126.036 487.833 Q126.036 490.536 126.653 491.435 Q127.270 492.333 128.176 492.333 Q129.083 492.333 129.700 491.435 Q130.317 490.536 130.317 487.833 Q130.317 485.115 129.700 484.224 Q129.083 483.333 128.161 483.333 Q127.254 483.333 126.708 484.115 Q126.036 485.130 126.036 487.833 Z"/>
  <path d=""/>
  <path d="M136.317 490.333 L138.614 487.833 L136.333 485.333 L137.223 484.333 L139.520 486.849 L141.817 484.333 L142.692 484.677 L140.411 487.818 L142.708 490.990 L141.817 491.333 L139.504 488.818 L137.208 491.333 L136.317 490.333 Z"/>
  <path d=""/>
  <path d="M152.239 493.333 L150.911 493.333 L150.911 484.755 Q150.442 485.224 149.668 485.685 Q148.895 486.146 148.286 486.380 L148.286 485.083 Q149.395 484.552 150.215 483.794 Q151.036 483.036 151.379 482.333 L152.239 482.333 L152.239 493.333 Z"/>
  <path d="M155.426 487.833 Q155.426 485.927 155.817 484.763 Q156.208 483.599 156.981 482.966 Q157.754 482.333 158.926 482.333 Q159.786 482.333 160.442 482.685 Q161.098 483.036 161.520 483.693 Q161.942 484.349 162.184 485.294 Q162.426 486.240 162.426 487.833 Q162.426 489.740 162.036 490.904 Q161.645 492.068 160.872 492.701 Q160.098 493.333 158.926 493.333 Q157.379 493.333 156.489 492.224 Q155.426 490.865 155.426 487.833 Z M156.786 487.833 Q156.786 490.536 157.403 491.435 Q158.020 492.333 158.926 492.333 Q159.833 492.333 160.450 491.435 Q161.067 490.536 161.067 487.833 Q161.067 485.115 160.450 484.224 Q159.833 483.333 158.911 483.333 Q158.004 483.333 157.458 484.115 Q156.786 485.130 156.786 487.833 Z"/>
  <path d="M163.145 488.333 Q163.192 487.880 163.489 487.427 Q163.942 486.755 164.997 485.927 Q166.051 485.099 166.254 484.865 Q166.520 484.536 166.520 484.208 Q166.520 483.818 166.262 483.576 Q166.004 483.333 165.504 483.333 Q165.020 483.333 164.786 483.536 Q164.551 483.740 164.395 484.333 L163.301 484.333 Q163.520 483.302 164.043 482.818 Q164.567 482.333 165.536 482.333 Q166.645 482.333 167.161 482.802 Q167.676 483.271 167.676 483.958 Q167.676 484.615 167.239 485.224 Q166.911 485.661 165.739 486.583 Q165.129 487.052 164.879 487.333 L167.708 487.333 L167.708 488.333 L163.145 488.333 Z"/>
  <path d="M212.406 492.333 L212.406 493.333 L205.312 493.333 Q205.296 492.943 205.468 492.568 Q205.734 491.958 206.335 491.372 Q206.937 490.786 208.062 489.724 Q209.812 488.068 210.429 487.138 Q211.046 486.208 211.046 485.396 Q211.046 484.521 210.484 483.927 Q209.921 483.333 209.031 483.333 Q208.078 483.333 207.499 483.865 Q206.921 484.396 206.921 485.333 L205.562 485.333 Q205.703 483.865 206.609 483.099 Q207.515 482.333 209.046 482.333 Q210.593 482.333 211.492 483.224 Q212.390 484.115 212.390 485.443 Q212.390 486.115 212.124 486.763 Q211.859 487.411 211.249 488.130 Q210.640 488.849 209.218 490.130 Q208.031 491.193 207.695 491.568 Q207.359 491.943 207.140 492.333 L212.406 492.333 Z"/>
  <path d="M214.374 493.333 L214.374 492.333 L215.874 492.333 L215.874 493.333 L214.374 493.333 Z"/>
  <path d="M217.718 487.833 Q217.718 485.927 218.109 484.763 Q218.499 483.599 219.273 482.966 Q220.046 482.333 221.218 482.333 Q222.078 482.333 222.734 482.685 Q223.390 483.036 223.812 483.693 Q224.234 484.349 224.476 485.294 Q224.718 486.240 224.718 487.833 Q224.718 489.740 224.328 490.904 Q223.937 492.068 223.163 492.701 Q222.390 493.333 221.218 493.333 Q219.671 493.333 218.781 492.224 Q217.718 490.865 217.718 487.833 Z M219.078 487.833 Q219.078 490.536 219.695 491.435 Q220.312 492.333 221.218 492.333 Q222.124 492.333 222.742 491.435 Q223.359 490.536 223.359 487.833 Q223.359 485.115 222.742 484.224 Q222.124 483.333 221.203 483.333 Q220.296 483.333 219.749 484.115 Q219.078 485.130 219.078 487.833 Z"/>
  <path d=""/>
  <path d="M229.359 490.333 L231.656 487.833 L229.374 485.333 L230.265 484.333 L232.562 486.849 L234.859 484.333 L235.734 484.677 L233.453 487.818 L235.749 490.990 L234.859 491.333 L232.546 488.818 L230.249 491.333 L229.359 490.333 Z"/>
  <path d=""/>
  <path d="M245.281 493.333 L243.953 493.333 L243.953 484.755 Q243.484 485.224 242.710 485.685 Q241.937 486.146 241.328 486.380 L241.328 485.083 Q242.437 484.552 243.257 483.794 Q244.078 483.036 244.421 482.333 L245.281 482.333 L245.281 493.333 Z"/>
  <path d="M248.468 487.833 Q248.468 485.927 248.859 484.763 Q249.249 483.599 250.023 482.966 Q250.796 482.333 251.968 482.333 Q252.828 482.333 253.484 482.685 Q254.140 483.036 254.562 483.693 Q254.984 484.349 255.226 485.294 Q255.468 486.240 255.468 487.833 Q255.468 489.740 255.078 490.904 Q254.687 492.068 253.913 492.701 Q253.140 493.333 251.968 493.333 Q250.421 493.333 249.531 492.224 Q248.468 490.865 248.468 487.833 Z M249.828 487.833 Q249.828 490.536 250.445 491.435 Q251.062 492.333 251.968 492.333 Q252.874 492.333 253.492 491.435 Q254.109 490.536 254.109 487.833 Q254.109 485.115 253.492 484.224 Q252.874 483.333 251.953 483.333 Q251.046 483.333 250.499 484.115 Q249.828 485.130 249.828 487.833 Z"/>
  <path d="M256.187 488.333 Q256.234 487.880 256.531 487.427 Q256.984 486.755 258.038 485.927 Q259.093 485.099 259.296 484.865 Q259.562 484.536 259.562 484.208 Q259.562 483.818 259.304 483.576 Q259.046 483.333 258.546 483.333 Q258.062 483.333 257.827 483.536 Q257.593 483.740 257.437 484.333 L256.343 484.333 Q256.562 483.302 257.085 482.818 Q257.609 482.333 258.577 482.333 Q259.687 482.333 260.202 482.802 Q260.718 483.271 260.718 483.958 Q260.718 484.615 260.281 485.224 Q259.952 485.661 258.781 486.583 Q258.171 487.052 257.921 487.333 L260.749 487.333 L260.749 488.333 L256.187 488.333 Z"/>
  <path d="M298.526 490.333 L299.854 490.333 Q300.088 491.396 300.627 491.865 Q301.166 492.333 301.947 492.333 Q302.885 492.333 303.526 491.716 Q304.166 491.099 304.166 490.193 Q304.166 489.318 303.572 488.747 Q302.979 488.177 302.057 488.177 Q301.682 488.177 301.135 488.333 L301.276 487.333 Q301.416 487.349 301.494 487.349 Q302.338 487.349 303.010 486.841 Q303.682 486.333 303.682 485.271 Q303.682 484.443 303.190 483.888 Q302.697 483.333 301.916 483.333 Q301.151 483.333 300.635 483.833 Q300.119 484.333 299.979 485.333 L298.666 485.333 Q298.901 483.911 299.760 483.122 Q300.619 482.333 301.901 482.333 Q302.776 482.333 303.518 482.740 Q304.260 483.146 304.651 483.849 Q305.041 484.552 305.041 485.349 Q305.041 486.099 304.666 486.716 Q304.291 487.333 303.557 487.693 Q304.510 487.896 305.033 488.544 Q305.557 489.193 305.557 490.177 Q305.557 491.490 304.533 492.411 Q303.510 493.333 301.932 493.333 Q300.526 493.333 299.588 492.497 Q298.651 491.661 298.526 490.333 Z"/>
  <path d="M307.416 493.333 L307.416 492.333 L308.916 492.333 L308.916 493.333 L307.416 493.333 Z"/>
  <path d="M310.760 487.833 Q310.760 485.927 311.151 484.763 Q311.541 483.599 312.315 482.966 Q313.088 482.333 314.260 482.333 Q315.119 482.333 315.776 482.685 Q316.432 483.036 316.854 483.693 Q317.276 484.349 317.518 485.294 Q317.760 486.240 317.760 487.833 Q317.760 489.740 317.369 490.904 Q316.979 492.068 316.205 492.701 Q315.432 493.333 314.260 493.333 Q312.713 493.333 311.822 492.224 Q310.760 490.865 310.760 487.833 Z M312.119 487.833 Q312.119 490.536 312.737 491.435 Q313.354 492.333 314.260 492.333 Q315.166 492.333 315.783 491.435 Q316.401 490.536 316.401 487.833 Q316.401 485.115 315.783 484.224 Q315.166 483.333 314.244 483.333 Q313.338 483.333 312.791 484.115 Q312.119 485.130 312.119 487.833 Z"/>
  <path d=""/>
  <path d="M322.401 490.333 L324.697 487.833 L322.416 485.333 L323.307 484.333 L325.604 486.849 L327.901 484.333 L328.776 484.677 L326.494 487.818 L328.791 490.990 L327.901 491.333 L325.588 488.818 L323.291 491.333 L322.401 490.333 Z"/>
  <path d=""/>
  <path d="M338.322 493.333 L336.994 493.333 L336.994 484.755 Q336.526 485.224 335.752 485.685 Q334.979 486.146 334.369 486.380 L334.369 485.083 Q335.479 484.552 336.299 483.794 Q337.119 483.036 337.463 482.333 L338.322 482.333 L338.322 493.333 Z"/>
  <path d="M341.510 487.833 Q341.510 485.927 341.901 484.763 Q342.291 483.599 343.065 482.966 Q343.838 482.333 345.010 482.333 Q345.869 482.333 346.526 482.685 Q347.182 483.036 347.604 483.693 Q348.026 484.349 348.268 485.294 Q348.510 486.240 348.510 487.833 Q348.510 489.740 348.119 490.904 Q347.729 492.068 346.955 492.701 Q346.182 493.333 345.010 493.333 Q343.463 493.333 342.572 492.224 Q341.510 490.865 341.510 487.833 Z M342.869 487.833 Q342.869 490.536 343.487 491.435 Q344.104 492.333 345.010 492.333 Q345.916 492.333 346.533 491.435 Q347.151 490.536 347.151 487.833 Q347.151 485.115 346.533 484.224 Q345.916 483.333 344.994 483.333 Q344.088 483.333 343.541 484.115 Q342.869 485.130 342.869 487.833 Z"/>
  <path d="M349.229 488.333 Q349.276 487.880 349.572 487.427 Q350.026 486.755 351.080 485.927 Q352.135 485.099 352.338 484.865 Q352.604 484.536 352.604 484.208 Q352.604 483.818 352.346 483.576 Q352.088 483.333 351.588 483.333 Q351.104 483.333 350.869 483.536 Q350.635 483.740 350.479 484.333 L349.385 484.333 Q349.604 483.302 350.127 482.818 Q350.651 482.333 351.619 482.333 Q352.729 482.333 353.244 482.802 Q353.760 483.271 353.760 483.958 Q353.760 484.615 353.322 485.224 Q352.994 485.661 351.822 486.583 Q351.213 487.052 350.963 487.333 L353.791 487.333 L353.791 488.333 L349.229 488.333 Z"/>
  <path d="M395.786 493.333 L395.786 490.333 L391.130 490.333 L391.130 489.333 L396.036 482.333 L397.114 482.333 L397.114 489.333 L398.567 489.333 L398.567 490.333 L397.114 490.333 L397.114 493.333 L395.786 493.333 Z M395.786 489.333 L395.786 484.536 L392.427 489.333 L395.786 489.333 Z"/>
  <path d="M400.458 493.333 L400.458 492.333 L401.958 492.333 L401.958 493.333 L400.458 493.333 Z"/>
  <path d="M403.802 487.833 Q403.802 485.927 404.192 484.763 Q404.583 483.599 405.357 482.966 Q406.130 482.333 407.302 482.333 Q408.161 482.333 408.817 482.685 Q409.474 483.036 409.896 483.693 Q410.317 484.349 410.560 485.294 Q410.802 486.240 410.802 487.833 Q410.802 489.740 410.411 490.904 Q410.021 492.068 409.247 492.701 Q408.474 493.333 407.302 493.333 Q405.755 493.333 404.864 492.224 Q403.802 490.865 403.802 487.833 Z M405.161 487.833 Q405.161 490.536 405.778 491.435 Q406.396 492.333 407.302 492.333 Q408.208 492.333 408.825 491.435 Q409.442 490.536 409.442 487.833 Q409.442 485.115 408.825 484.224 Q408.208 483.333 407.286 483.333 Q406.380 483.333 405.833 484.115 Q405.161 485.130 405.161 487.833 Z"/>
  <path d=""/>
  <path d="M415.442 490.333 L417.739 487.833 L415.458 485.333 L416.349 484.333 L418.646 486.849 L420.942 484.333 L421.817 484.677 L419.536 487.818 L421.833 490.990 L420.942 491.333 L418.630 488.818 L416.333 491.333 L415.442 490.333 Z"/>
  <path d=""/>
  <path d="M431.364 493.333 L430.036 493.333 L430.036 484.755 Q429.567 485.224 428.794 485.685 Q428.021 486.146 427.411 486.380 L427.411 485.083 Q428.521 484.552 429.341 483.794 Q430.161 483.036 430.505 482.333 L431.364 482.333 L431.364 493.333 Z"/>
  <path d="M434.552 487.833 Q434.552 485.927 434.942 484.763 Q435.333 483.599 436.107 482.966 Q436.880 482.333 438.052 482.333 Q438.911 482.333 439.567 482.685 Q440.224 483.036 440.646 483.693 Q441.067 484.349 441.310 485.294 Q441.552 486.240 441.552 487.833 Q441.552 489.740 441.161 490.904 Q440.771 492.068 439.997 492.701 Q439.224 493.333 438.052 493.333 Q436.505 493.333 435.614 492.224 Q434.552 490.865 434.552 487.833 Z M435.911 487.833 Q435.911 490.536 436.528 491.435 Q437.146 492.333 438.052 492.333 Q438.958 492.333 439.575 491.435 Q440.192 490.536 440.192 487.833 Q440.192 485.115 439.575 484.224 Q438.958 483.333 438.036 483.333 Q437.130 483.333 436.583 484.115 Q435.911 485.130 435.911 487.833 Z"/>
  <path d="M442.271 488.333 Q442.317 487.880 442.614 487.427 Q443.067 486.755 444.122 485.927 Q445.177 485.099 445.380 484.865 Q445.646 484.536 445.646 484.208 Q445.646 483.818 445.388 483.576 Q445.130 483.333 444.630 483.333 Q444.146 483.333 443.911 483.536 Q443.677 483.740 443.521 484.333 L442.427 484.333 Q442.646 483.302 443.169 482.818 Q443.692 482.333 444.661 482.333 Q445.771 482.333 446.286 482.802 Q446.802 483.271 446.802 483.958 Q446.802 484.615 446.364 485.224 Q446.036 485.661 444.864 486.583 Q444.255 487.052 444.005 487.333 L446.833 487.333 L446.833 488.333 L442.271 488.333 Z"/>
  <path d="M484.609 490.333 L485.984 490.333 Q486.141 491.333 486.703 491.833 Q487.266 492.333 488.047 492.333 Q489 492.333 489.664 491.622 Q490.328 490.911 490.328 489.740 Q490.328 488.630 489.695 487.982 Q489.062 487.333 488.031 487.333 Q487.391 487.333 486.883 487.615 Q486.375 487.896 486.078 488.333 L484.844 488.333 L485.875 482.333 L491.219 482.333 L491.219 483.333 L486.938 483.333 L486.359 486.911 Q487.328 486.333 488.391 486.333 Q489.781 486.333 490.750 487.271 Q491.719 488.208 491.719 489.661 Q491.719 491.068 490.875 492.083 Q489.844 493.333 488.047 493.333 Q486.594 493.333 485.664 492.513 Q484.734 491.693 484.609 490.333 Z"/>
  <path d="M493.500 493.333 L493.500 492.333 L495 492.333 L495 493.333 L493.500 493.333 Z"/>
  <path d="M496.844 487.833 Q496.844 485.927 497.234 484.763 Q497.625 483.599 498.398 482.966 Q499.172 482.333 500.344 482.333 Q501.203 482.333 501.859 482.685 Q502.516 483.036 502.938 483.693 Q503.359 484.349 503.602 485.294 Q503.844 486.240 503.844 487.833 Q503.844 489.740 503.453 490.904 Q503.062 492.068 502.289 492.701 Q501.516 493.333 500.344 493.333 Q498.797 493.333 497.906 492.224 Q496.844 490.865 496.844 487.833 Z M498.203 487.833 Q498.203 490.536 498.820 491.435 Q499.438 492.333 500.344 492.333 Q501.250 492.333 501.867 491.435 Q502.484 490.536 502.484 487.833 Q502.484 485.115 501.867 484.224 Q501.250 483.333 500.328 483.333 Q499.422 483.333 498.875 484.115 Q498.203 485.130 498.203 487.833 Z"/>
  <path d=""/>
  <path d="M508.484 490.333 L510.781 487.833 L508.500 485.333 L509.391 484.333 L511.688 486.849 L513.984 484.333 L514.859 484.677 L512.578 487.818 L514.875 490.990 L513.984 491.333 L511.672 488.818 L509.375 491.333 L508.484 490.333 Z"/>
  <path d=""/>
  <path d="M524.406 493.333 L523.078 493.333 L523.078 484.755 Q522.609 485.224 521.836 485.685 Q521.062 486.146 520.453 486.380 L520.453 485.083 Q521.562 484.552 522.383 483.794 Q523.203 483.036 523.547 482.333 L524.406 482.333 L524.406 493.333 Z"/>
  <path d="M527.594 487.833 Q527.594 485.927 527.984 484.763 Q528.375 483.599 529.148 482.966 Q529.922 482.333 531.094 482.333 Q531.953 482.333 532.609 482.685 Q533.266 483.036 533.688 483.693 Q534.109 484.349 534.352 485.294 Q534.594 486.240 534.594 487.833 Q534.594 489.740 534.203 490.904 Q533.812 492.068 533.039 492.701 Q532.266 493.333 531.094 493.333 Q529.547 493.333 528.656 492.224 Q527.594 490.865 527.594 487.833 Z M528.953 487.833 Q528.953 490.536 529.570 491.435 Q530.188 492.333 531.094 492.333 Q532 492.333 532.617 491.435 Q533.234 490.536 533.234 487.833 Q533.234 485.115 532.617 484.224 Q532 483.333 531.078 483.333 Q530.172 483.333 529.625 484.115 Q528.953 485.130 528.953 487.833 Z"/>
  <path d="M535.312 488.333 Q535.359 487.880 535.656 487.427 Q536.109 486.755 537.164 485.927 Q538.219 485.099 538.422 484.865 Q538.688 484.536 538.688 484.208 Q538.688 483.818 538.430 483.576 Q538.172 483.333 537.672 483.333 Q537.188 483.333 536.953 483.536 Q536.719 483.740 536.562 484.333 L535.469 484.333 Q535.688 483.302 536.211 482.818 Q536.734 482.333 537.703 482.333 Q538.812 482.333 539.328 482.802 Q539.844 483.271 539.844 483.958 Q539.844 484.615 539.406 485.224 Q539.078 485.661 537.906 486.583 Q537.297 487.052 537.047 487.333 L539.875 487.333 L539.875 488.333 L535.312 488.333 Z"/>
  <path d="M584.495 485.333 L583.183 485.333 Q583.011 484.411 582.683 484.005 Q582.151 483.333 581.370 483.333 Q580.729 483.333 580.261 483.724 Q579.636 484.224 579.276 485.177 Q578.917 486.130 578.901 487.771 Q579.370 487.036 580.065 486.685 Q580.761 486.333 581.511 486.333 Q582.823 486.333 583.753 487.286 Q584.683 488.240 584.683 489.740 Q584.683 490.724 584.245 491.576 Q583.808 492.427 583.050 492.880 Q582.292 493.333 581.323 493.333 Q579.667 493.333 578.628 492.115 Q577.589 490.896 577.589 488.115 Q577.589 484.990 578.745 483.568 Q579.745 482.333 581.448 482.333 Q582.714 482.333 583.526 483.130 Q584.339 483.927 584.495 485.333 Z M579.104 489.708 Q579.104 490.396 579.393 491.029 Q579.683 491.661 580.206 491.997 Q580.729 492.333 581.292 492.333 Q582.136 492.333 582.737 491.646 Q583.339 490.958 583.339 489.771 Q583.339 488.646 582.745 487.990 Q582.151 487.333 581.245 487.333 Q580.354 487.333 579.729 487.990 Q579.104 488.646 579.104 489.708 Z"/>
  <path d="M586.542 493.333 L586.542 492.333 L588.042 492.333 L588.042 493.333 L586.542 493.333 Z"/>
  <path d="M589.886 487.833 Q589.886 485.927 590.276 484.763 Q590.667 483.599 591.440 482.966 Q592.214 482.333 593.386 482.333 Q594.245 482.333 594.901 482.685 Q595.558 483.036 595.979 483.693 Q596.401 484.349 596.643 485.294 Q596.886 486.240 596.886 487.833 Q596.886 489.740 596.495 490.904 Q596.104 492.068 595.331 492.701 Q594.558 493.333 593.386 493.333 Q591.839 493.333 590.948 492.224 Q589.886 490.865 589.886 487.833 Z M591.245 487.833 Q591.245 490.536 591.862 491.435 Q592.479 492.333 593.386 492.333 Q594.292 492.333 594.909 491.435 Q595.526 490.536 595.526 487.833 Q595.526 485.115 594.909 484.224 Q594.292 483.333 593.370 483.333 Q592.464 483.333 591.917 484.115 Q591.245 485.130 591.245 487.833 Z"/>
  <path d=""/>
  <path d="M601.526 490.333 L603.823 487.833 L601.542 485.333 L602.433 484.333 L604.729 486.849 L607.026 484.333 L607.901 484.677 L605.620 487.818 L607.917 490.990 L607.026 491.333 L604.714 488.818 L602.417 491.333 L601.526 490.333 Z"/>
  <path d=""/>
  <path d="M617.448 493.333 L616.120 493.333 L616.120 484.755 Q615.651 485.224 614.878 485.685 Q614.104 486.146 613.495 486.380 L613.495 485.083 Q614.604 484.552 615.425 483.794 Q616.245 483.036 616.589 482.333 L617.448 482.333 L617.448 493.333 Z"/>
  <path d="M620.636 487.833 Q620.636 485.927 621.026 484.763 Q621.417 483.599 622.190 482.966 Q622.964 482.333 624.136 482.333 Q624.995 482.333 625.651 482.685 Q626.308 483.036 626.729 483.693 Q627.151 484.349 627.393 485.294 Q627.636 486.240 627.636 487.833 Q627.636 489.740 627.245 490.904 Q626.854 492.068 626.081 492.701 Q625.308 493.333 624.136 493.333 Q622.589 493.333 621.698 492.224 Q620.636 490.865 620.636 487.833 Z M621.995 487.833 Q621.995 490.536 622.612 491.435 Q623.229 492.333 624.136 492.333 Q625.042 492.333 625.659 491.435 Q626.276 490.536 626.276 487.833 Q626.276 485.115 625.659 484.224 Q625.042 483.333 624.120 483.333 Q623.214 483.333 622.667 484.115 Q621.995 485.130 621.995 487.833 Z"/>
  <path d="M628.354 488.333 Q628.401 487.880 628.698 487.427 Q629.151 486.755 630.206 485.927 Q631.261 485.099 631.464 484.865 Q631.729 484.536 631.729 484.208 Q631.729 483.818 631.472 483.576 Q631.214 483.333 630.714 483.333 Q630.229 483.333 629.995 483.536 Q629.761 483.740 629.604 484.333 L628.511 484.333 Q628.729 483.302 629.253 482.818 Q629.776 482.333 630.745 482.333 Q631.854 482.333 632.370 482.802 Q632.886 483.271 632.886 483.958 Q632.886 484.615 632.448 485.224 Q632.120 485.661 630.948 486.583 Q630.339 487.052 630.089 487.333 L632.917 487.333 L632.917 488.333 L628.354 488.333 Z"/>
  <path d="M670.771 483.333 L670.771 482.333 L677.724 482.333 L677.724 483.146 Q676.709 484.240 675.701 486.177 Q674.693 488.115 674.131 490.161 Q673.740 491.615 673.631 493.333 L672.287 493.333 Q672.303 491.974 672.779 490.052 Q673.256 488.130 674.146 486.341 Q675.037 484.552 676.037 483.333 L670.771 483.333 Z"/>
  <path d="M679.584 493.333 L679.584 492.333 L681.084 492.333 L681.084 493.333 L679.584 493.333 Z"/>
  <path d="M682.928 487.833 Q682.928 485.927 683.318 484.763 Q683.709 483.599 684.482 482.966 Q685.256 482.333 686.428 482.333 Q687.287 482.333 687.943 482.685 Q688.599 483.036 689.021 483.693 Q689.443 484.349 689.685 485.294 Q689.928 486.240 689.928 487.833 Q689.928 489.740 689.537 490.904 Q689.146 492.068 688.373 492.701 Q687.599 493.333 686.428 493.333 Q684.881 493.333 683.990 492.224 Q682.928 490.865 682.928 487.833 Z M684.287 487.833 Q684.287 490.536 684.904 491.435 Q685.521 492.333 686.428 492.333 Q687.334 492.333 687.951 491.435 Q688.568 490.536 688.568 487.833 Q688.568 485.115 687.951 484.224 Q687.334 483.333 686.412 483.333 Q685.506 483.333 684.959 484.115 Q684.287 485.130 684.287 487.833 Z"/>
  <path d=""/>
  <path d="M694.568 490.333 L696.865 487.833 L694.584 485.333 L695.474 484.333 L697.771 486.849 L700.068 484.333 L700.943 484.677 L698.662 487.818 L700.959 490.990 L700.068 491.333 L697.756 488.818 L695.459 491.333 L694.568 490.333 Z"/>
  <path d=""/>
  <path d="M710.490 493.333 L709.162 493.333 L709.162 484.755 Q708.693 485.224 707.920 485.685 Q707.146 486.146 706.537 486.380 L706.537 485.083 Q707.646 484.552 708.467 483.794 Q709.287 483.036 709.631 482.333 L710.490 482.333 L710.490 493.333 Z"/>
  <path d="M713.678 487.833 Q713.678 485.927 714.068 484.763 Q714.459 483.599 715.232 482.966 Q716.006 482.333 717.178 482.333 Q718.037 482.333 718.693 482.685 Q719.349 483.036 719.771 483.693 Q720.193 484.349 720.435 485.294 Q720.678 486.240 720.678 487.833 Q720.678 489.740 720.287 490.904 Q719.896 492.068 719.123 492.701 Q718.349 493.333 717.178 493.333 Q715.631 493.333 714.740 492.224 Q713.678 490.865 713.678 487.833 Z M715.037 487.833 Q715.037 490.536 715.654 491.435 Q716.271 492.333 717.178 492.333 Q718.084 492.333 718.701 491.435 Q719.318 490.536 719.318 487.833 Q719.318 485.115 718.701 484.224 Q718.084 483.333 717.162 483.333 Q716.256 483.333 715.709 484.115 Q715.037 485.130 715.037 487.833 Z"/>
  <path d="M721.396 488.333 Q721.443 487.880 721.740 487.427 Q722.193 486.755 723.248 485.927 Q724.303 485.099 724.506 484.865 Q724.771 484.536 724.771 484.208 Q724.771 483.818 724.513 483.576 Q724.256 483.333 723.756 483.333 Q723.271 483.333 723.037 483.536 Q722.803 483.740 722.646 484.333 L721.553 484.333 Q721.771 483.302 722.295 482.818 Q722.818 482.333 723.787 482.333 Q724.896 482.333 725.412 482.802 Q725.928 483.271 725.928 483.958 Q725.928 484.615 725.490 485.224 Q725.162 485.661 723.990 486.583 Q723.381 487.052 723.131 487.333 L725.959 487.333 L725.959 488.333 L721.396 488.333 Z"/>
  <path d="M765.766 487.802 Q764.954 487.474 764.555 486.857 Q764.157 486.240 764.157 485.380 Q764.157 484.099 765.001 483.216 Q765.844 482.333 767.235 482.333 Q768.641 482.333 769.501 483.232 Q770.360 484.130 770.360 485.427 Q770.360 486.255 769.962 486.865 Q769.563 487.474 768.766 487.802 Q769.766 488.099 770.282 488.763 Q770.798 489.427 770.798 490.333 Q770.798 491.599 769.821 492.466 Q768.844 493.333 767.266 493.333 Q765.673 493.333 764.696 492.466 Q763.719 491.599 763.719 490.302 Q763.719 489.333 764.251 488.685 Q764.782 488.036 765.766 487.802 Z M765.501 485.286 Q765.501 486.193 765.993 486.763 Q766.485 487.333 767.266 487.333 Q768.032 487.333 768.516 486.763 Q769.001 486.193 769.001 485.365 Q769.001 484.505 768.501 483.919 Q768.001 483.333 767.251 483.333 Q766.501 483.333 766.001 483.904 Q765.501 484.474 765.501 485.286 Z M765.079 490.318 Q765.079 490.833 765.344 491.318 Q765.610 491.802 766.133 492.068 Q766.657 492.333 767.266 492.333 Q768.204 492.333 768.821 491.771 Q769.438 491.208 769.438 490.349 Q769.438 489.474 768.805 488.904 Q768.173 488.333 767.219 488.333 Q766.298 488.333 765.688 488.896 Q765.079 489.458 765.079 490.318 Z"/>
  <path d="M772.626 493.333 L772.626 492.333 L774.126 492.333 L774.126 493.333 L772.626 493.333 Z"/>
  <path d="M775.969 487.833 Q775.969 485.927 776.360 484.763 Q776.751 483.599 777.524 482.966 Q778.298 482.333 779.469 482.333 Q780.329 482.333 780.985 482.685 Q781.641 483.036 782.063 483.693 Q782.485 484.349 782.727 485.294 Q782.969 486.240 782.969 487.833 Q782.969 489.740 782.579 490.904 Q782.188 492.068 781.415 492.701 Q780.641 493.333 779.469 493.333 Q777.923 493.333 777.032 492.224 Q775.969 490.865 775.969 487.833 Z M777.329 487.833 Q777.329 490.536 777.946 491.435 Q778.563 492.333 779.469 492.333 Q780.376 492.333 780.993 491.435 Q781.610 490.536 781.610 487.833 Q781.610 485.115 780.993 484.224 Q780.376 483.333 779.454 483.333 Q778.548 483.333 778.001 484.115 Q777.329 485.130 777.329 487.833 Z"/>
  <path d=""/>
  <path d="M787.610 490.333 L789.907 487.833 L787.626 485.333 L788.516 484.333 L790.813 486.849 L793.110 484.333 L793.985 484.677 L791.704 487.818 L794.001 490.990 L793.110 491.333 L790.798 488.818 L788.501 491.333 L787.610 490.333 Z"/>
  <path d=""/>
  <path d="M803.532 493.333 L802.204 493.333 L802.204 484.755 Q801.735 485.224 800.962 485.685 Q800.188 486.146 799.579 486.380 L799.579 485.083 Q800.688 484.552 801.508 483.794 Q802.329 483.036 802.673 482.333 L803.532 482.333 L803.532 493.333 Z"/>
  <path d="M806.719 487.833 Q806.719 485.927 807.110 484.763 Q807.501 483.599 808.274 482.966 Q809.048 482.333 810.219 482.333 Q811.079 482.333 811.735 482.685 Q812.391 483.036 812.813 483.693 Q813.235 484.349 813.477 485.294 Q813.719 486.240 813.719 487.833 Q813.719 489.740 813.329 490.904 Q812.938 492.068 812.165 492.701 Q811.391 493.333 810.219 493.333 Q808.673 493.333 807.782 492.224 Q806.719 490.865 806.719 487.833 Z M808.079 487.833 Q808.079 490.536 808.696 491.435 Q809.313 492.333 810.219 492.333 Q811.126 492.333 811.743 491.435 Q812.360 490.536 812.360 487.833 Q812.360 485.115 811.743 484.224 Q811.126 483.333 810.204 483.333 Q809.298 483.333 808.751 484.115 Q808.079 485.130 808.079 487.833 Z"/>
  <path d="M814.438 488.333 Q814.485 487.880 814.782 487.427 Q815.235 486.755 816.290 485.927 Q817.344 485.099 817.548 484.865 Q817.813 484.536 817.813 484.208 Q817.813 483.818 817.555 483.576 Q817.298 483.333 816.798 483.333 Q816.313 483.333 816.079 483.536 Q815.844 483.740 815.688 484.333 L814.594 484.333 Q814.813 483.302 815.337 482.818 Q815.860 482.333 816.829 482.333 Q817.938 482.333 818.454 482.802 Q818.969 483.271 818.969 483.958 Q818.969 484.615 818.532 485.224 Q818.204 485.661 817.032 486.583 Q816.423 487.052 816.173 487.333 L819.001 487.333 L819.001 488.333 L814.438 488.333 Z"/>
  <path d="M856.980 490.333 L858.246 490.333 Q858.402 491.380 858.855 491.857 Q859.308 492.333 860.027 492.333 Q860.621 492.333 861.082 492.029 Q861.543 491.724 861.832 491.216 Q862.121 490.708 862.324 489.857 Q862.527 489.005 862.527 488.177 Q862.527 488.099 862.511 487.927 Q862.121 488.552 861.433 488.943 Q860.746 489.333 859.949 489.333 Q858.621 489.333 857.699 488.388 Q856.777 487.443 856.777 485.880 Q856.777 484.286 857.738 483.310 Q858.699 482.333 860.152 482.333 Q861.199 482.333 862.066 482.896 Q862.933 483.458 863.386 484.505 Q863.839 485.552 863.839 487.536 Q863.839 489.615 863.394 490.833 Q862.949 492.052 862.066 492.693 Q861.183 493.333 859.996 493.333 Q858.730 493.333 857.933 492.544 Q857.136 491.755 856.980 490.333 Z M862.371 485.865 Q862.371 484.693 861.769 484.013 Q861.168 483.333 860.308 483.333 Q859.433 483.333 858.785 484.068 Q858.136 484.802 858.136 485.974 Q858.136 487.021 858.753 487.677 Q859.371 488.333 860.277 488.333 Q861.199 488.333 861.785 487.677 Q862.371 487.021 862.371 485.865 Z"/>
  <path d="M865.668 493.333 L865.668 492.333 L867.168 492.333 L867.168 493.333 L865.668 493.333 Z"/>
  <path d="M869.011 487.833 Q869.011 485.927 869.402 484.763 Q869.793 483.599 870.566 482.966 Q871.339 482.333 872.511 482.333 Q873.371 482.333 874.027 482.685 Q874.683 483.036 875.105 483.693 Q875.527 484.349 875.769 485.294 Q876.011 486.240 876.011 487.833 Q876.011 489.740 875.621 490.904 Q875.230 492.068 874.457 492.701 Q873.683 493.333 872.511 493.333 Q870.964 493.333 870.074 492.224 Q869.011 490.865 869.011 487.833 Z M870.371 487.833 Q870.371 490.536 870.988 491.435 Q871.605 492.333 872.511 492.333 Q873.418 492.333 874.035 491.435 Q874.652 490.536 874.652 487.833 Q874.652 485.115 874.035 484.224 Q873.418 483.333 872.496 483.333 Q871.589 483.333 871.043 484.115 Q870.371 485.130 870.371 487.833 Z"/>
  <path d=""/>
  <path d="M880.652 490.333 L882.949 487.833 L880.668 485.333 L881.558 484.333 L883.855 486.849 L886.152 484.333 L887.027 484.677 L884.746 487.818 L887.043 490.990 L886.152 491.333 L883.839 488.818 L881.543 491.333 L880.652 490.333 Z"/>
  <path d=""/>
  <path d="M896.574 493.333 L895.246 493.333 L895.246 484.755 Q894.777 485.224 894.003 485.685 Q893.230 486.146 892.621 486.380 L892.621 485.083 Q893.730 484.552 894.550 483.794 Q895.371 483.036 895.714 482.333 L896.574 482.333 L896.574 493.333 Z"/>
  <path d="M899.761 487.833 Q899.761 485.927 900.152 484.763 Q900.543 483.599 901.316 482.966 Q902.089 482.333 903.261 482.333 Q904.121 482.333 904.777 482.685 Q905.433 483.036 905.855 483.693 Q906.277 484.349 906.519 485.294 Q906.761 486.240 906.761 487.833 Q906.761 489.740 906.371 490.904 Q905.980 492.068 905.207 492.701 Q904.433 493.333 903.261 493.333 Q901.714 493.333 900.824 492.224 Q899.761 490.865 899.761 487.833 Z M901.121 487.833 Q901.121 490.536 901.738 491.435 Q902.355 492.333 903.261 492.333 Q904.168 492.333 904.785 491.435 Q905.402 490.536 905.402 487.833 Q905.402 485.115 904.785 484.224 Q904.168 483.333 903.246 483.333 Q902.339 483.333 901.793 484.115 Q901.121 485.130 901.121 487.833 Z"/>
  <path d="M907.480 488.333 Q907.527 487.880 907.824 487.427 Q908.277 486.755 909.332 485.927 Q910.386 485.099 910.589 484.865 Q910.855 484.536 910.855 484.208 Q910.855 483.818 910.597 483.576 Q910.339 483.333 909.839 483.333 Q909.355 483.333 909.121 483.536 Q908.886 483.740 908.730 484.333 L907.636 484.333 Q907.855 483.302 908.378 482.818 Q908.902 482.333 909.871 482.333 Q910.980 482.333 911.496 482.802 Q912.011 483.271 912.011 483.958 Q912.011 484.615 911.574 485.224 Q911.246 485.661 910.074 486.583 Q909.464 487.052 909.214 487.333 L912.043 487.333 L912.043 488.333 L907.480 488.333 Z"/>
  <path d="M46.791 467.600 L46.791 44.400" fill="none" stroke="#000000" stroke-width="1.333"/>
  <path d="M46.791 467.600 L52.124 467.600" fill="none" stroke="#000000" stroke-width="1.333"/>
  <path d="M46.791 425.280 L52.124 425.280" fill="none" stroke="#000000" stroke-width="1.333"/>
  <path d="M46.791 382.960 L52.124 382.960" fill="none" stroke="#000000" stroke-width="1.333"/>
  <path d="M46.791 340.640 L52.124 340.640" fill="none" stroke="#000000" stroke-width="1.333"/>
  <path d="M46.791 298.320 L52.124 298.320" fill="none" stroke="#000000" stroke-width="1.333"/>
  <path d="M46.791 256 L52.124 256" fill="none" stroke="#000000" stroke-width="1.333"/>
  <path d="M46.791 213.680 L52.124 213.680" fill="none" stroke="#000000" stroke-width="1.333"/>
  <path d="M46.791 171.360 L52.124 171.360" fill="none" stroke="#000000" stroke-width="1.333"/>
  <path d="M46.791 129.040 L52.124 129.040" fill="none" stroke="#000000" stroke-width="1.333"/>
  <path d="M46.791 86.720 L52.124 86.720" fill="none" stroke="#000000" stroke-width="1.333"/>
  <path d="M46.791 44.400 L52.124 44.400" fill="none" stroke="#000000" stroke-width="1.333"/>
  <path d="M15.292 467.100 Q15.292 465.194 15.682 464.030 Q16.073 462.866 16.846 462.233 Q17.620 461.600 18.792 461.600 Q19.651 461.600 20.307 461.952 Q20.964 462.303 21.385 462.959 Q21.807 463.616 22.049 464.561 Q22.292 465.506 22.292 467.100 Q22.292 469.006 21.901 470.170 Q21.510 471.334 20.737 471.967 Q19.964 472.600 18.792 472.600 Q17.245 472.600 16.354 471.491 Q15.292 470.131 15.292 467.100 Z M16.651 467.100 Q16.651 469.803 17.268 470.702 Q17.885 471.600 18.792 471.600 Q19.698 471.600 20.315 470.702 Q20.932 469.803 20.932 467.100 Q20.932 464.381 20.315 463.491 Q19.698 462.600 18.776 462.600 Q17.870 462.600 17.323 463.381 Q16.651 464.397 16.651 467.100 Z"/>
  <path d="M24.182 472.600 L24.182 471.600 L25.682 471.600 L25.682 472.600 L24.182 472.600 Z"/>
  <path d="M27.526 467.100 Q27.526 465.194 27.917 464.030 Q28.307 462.866 29.081 462.233 Q29.854 461.600 31.026 461.600 Q31.885 461.600 32.542 461.952 Q33.198 462.303 33.620 462.959 Q34.042 463.616 34.284 464.561 Q34.526 465.506 34.526 467.100 Q34.526 469.006 34.135 470.170 Q33.745 471.334 32.971 471.967 Q32.198 472.600 31.026 472.600 Q29.479 472.600 28.589 471.491 Q27.526 470.131 27.526 467.100 Z M28.885 467.100 Q28.885 469.803 29.503 470.702 Q30.120 471.600 31.026 471.600 Q31.932 471.600 32.549 470.702 Q33.167 469.803 33.167 467.100 Q33.167 464.381 32.549 463.491 Q31.932 462.600 31.010 462.600 Q30.104 462.600 29.557 463.381 Q28.885 464.397 28.885 467.100 Z"/>
  <path d="M15.292 424.780 Q15.292 422.874 15.682 421.710 Q16.073 420.546 16.846 419.913 Q17.620 419.280 18.792 419.280 Q19.651 419.280 20.307 419.632 Q20.964 419.983 21.385 420.639 Q21.807 421.296 22.049 422.241 Q22.292 423.186 22.292 424.780 Q22.292 426.686 21.901 427.850 Q21.510 429.014 20.737 429.647 Q19.964 430.280 18.792 430.280 Q17.245 430.280 16.354 429.171 Q15.292 427.811 15.292 424.780 Z M16.651 424.780 Q16.651 427.483 17.268 428.382 Q17.885 429.280 18.792 429.280 Q19.698 429.280 20.315 428.382 Q20.932 427.483 20.932 424.780 Q20.932 422.061 20.315 421.171 Q19.698 420.280 18.776 420.280 Q17.870 420.280 17.323 421.061 Q16.651 422.077 16.651 424.780 Z"/>
  <path d="M24.182 430.280 L24.182 429.280 L25.682 429.280 L25.682 430.280 L24.182 430.280 Z"/>
  <path d="M27.526 427.280 L28.854 427.280 Q29.089 428.342 29.628 428.811 Q30.167 429.280 30.948 429.280 Q31.885 429.280 32.526 428.663 Q33.167 428.046 33.167 427.139 Q33.167 426.264 32.573 425.694 Q31.979 425.124 31.057 425.124 Q30.682 425.124 30.135 425.280 L30.276 424.280 Q30.417 424.296 30.495 424.296 Q31.339 424.296 32.010 423.788 Q32.682 423.280 32.682 422.217 Q32.682 421.389 32.190 420.835 Q31.698 420.280 30.917 420.280 Q30.151 420.280 29.635 420.780 Q29.120 421.280 28.979 422.280 L27.667 422.280 Q27.901 420.858 28.760 420.069 Q29.620 419.280 30.901 419.280 Q31.776 419.280 32.518 419.686 Q33.260 420.092 33.651 420.796 Q34.042 421.499 34.042 422.296 Q34.042 423.046 33.667 423.663 Q33.292 424.280 32.557 424.639 Q33.510 424.842 34.034 425.491 Q34.557 426.139 34.557 427.124 Q34.557 428.436 33.534 429.358 Q32.510 430.280 30.932 430.280 Q29.526 430.280 28.589 429.444 Q27.651 428.608 27.526 427.280 Z"/>
  <path d="M15.292 382.460 Q15.292 380.554 15.682 379.390 Q16.073 378.226 16.846 377.593 Q17.620 376.960 18.792 376.960 Q19.651 376.960 20.307 377.312 Q20.964 377.663 21.385 378.319 Q21.807 378.976 22.049 379.921 Q22.292 380.866 22.292 382.460 Q22.292 384.366 21.901 385.530 Q21.510 386.694 20.737 387.327 Q19.964 387.960 18.792 387.960 Q17.245 387.960 16.354 386.851 Q15.292 385.491 15.292 382.460 Z M16.651 382.460 Q16.651 385.163 17.268 386.062 Q17.885 386.960 18.792 386.960 Q19.698 386.960 20.315 386.062 Q20.932 385.163 20.932 382.460 Q20.932 379.741 20.315 378.851 Q19.698 377.960 18.776 377.960 Q17.870 377.960 17.323 378.741 Q16.651 379.757 16.651 382.460 Z"/>
  <path d="M24.182 387.960 L24.182 386.960 L25.682 386.960 L25.682 387.960 L24.182 387.960 Z"/>
  <path d="M34.370 379.960 L33.057 379.960 Q32.885 379.038 32.557 378.632 Q32.026 377.960 31.245 377.960 Q30.604 377.960 30.135 378.351 Q29.510 378.851 29.151 379.804 Q28.792 380.757 28.776 382.397 Q29.245 381.663 29.940 381.312 Q30.635 380.960 31.385 380.960 Q32.698 380.960 33.628 381.913 Q34.557 382.866 34.557 384.366 Q34.557 385.351 34.120 386.202 Q33.682 387.054 32.924 387.507 Q32.167 387.960 31.198 387.960 Q29.542 387.960 28.503 386.741 Q27.464 385.522 27.464 382.741 Q27.464 379.616 28.620 378.194 Q29.620 376.960 31.323 376.960 Q32.589 376.960 33.401 377.757 Q34.214 378.554 34.370 379.960 Z M28.979 384.335 Q28.979 385.022 29.268 385.655 Q29.557 386.288 30.081 386.624 Q30.604 386.960 31.167 386.960 Q32.010 386.960 32.612 386.272 Q33.214 385.585 33.214 384.397 Q33.214 383.272 32.620 382.616 Q32.026 381.960 31.120 381.960 Q30.229 381.960 29.604 382.616 Q28.979 383.272 28.979 384.335 Z"/>
  <path d="M15.292 340.140 Q15.292 338.234 15.682 337.070 Q16.073 335.906 16.846 335.273 Q17.620 334.640 18.792 334.640 Q19.651 334.640 20.307 334.992 Q20.964 335.343 21.385 335.999 Q21.807 336.656 22.049 337.601 Q22.292 338.546 22.292 340.140 Q22.292 342.046 21.901 343.210 Q21.510 344.374 20.737 345.007 Q19.964 345.640 18.792 345.640 Q17.245 345.640 16.354 344.531 Q15.292 343.171 15.292 340.140 Z M16.651 340.140 Q16.651 342.843 17.268 343.742 Q17.885 344.640 18.792 344.640 Q19.698 344.640 20.315 343.742 Q20.932 342.843 20.932 340.140 Q20.932 337.421 20.315 336.531 Q19.698 335.640 18.776 335.640 Q17.870 335.640 17.323 336.421 Q16.651 337.437 16.651 340.140 Z"/>
  <path d="M24.182 345.640 L24.182 344.640 L25.682 344.640 L25.682 345.640 L24.182 345.640 Z"/>
  <path d="M27.729 342.640 L28.995 342.640 Q29.151 343.687 29.604 344.163 Q30.057 344.640 30.776 344.640 Q31.370 344.640 31.831 344.335 Q32.292 344.031 32.581 343.523 Q32.870 343.015 33.073 342.163 Q33.276 341.312 33.276 340.484 Q33.276 340.406 33.260 340.234 Q32.870 340.859 32.182 341.249 Q31.495 341.640 30.698 341.640 Q29.370 341.640 28.448 340.695 Q27.526 339.749 27.526 338.187 Q27.526 336.593 28.487 335.617 Q29.448 334.640 30.901 334.640 Q31.948 334.640 32.815 335.202 Q33.682 335.765 34.135 336.812 Q34.589 337.859 34.589 339.843 Q34.589 341.921 34.143 343.140 Q33.698 344.359 32.815 344.999 Q31.932 345.640 30.745 345.640 Q29.479 345.640 28.682 344.851 Q27.885 344.062 27.729 342.640 Z M33.120 338.171 Q33.120 336.999 32.518 336.320 Q31.917 335.640 31.057 335.640 Q30.182 335.640 29.534 336.374 Q28.885 337.109 28.885 338.281 Q28.885 339.327 29.503 339.984 Q30.120 340.640 31.026 340.640 Q31.948 340.640 32.534 339.984 Q33.120 339.327 33.120 338.171 Z"/>
  <path d="M20.260 303.320 L18.932 303.320 L18.932 294.742 Q18.464 295.211 17.690 295.672 Q16.917 296.132 16.307 296.367 L16.307 295.070 Q17.417 294.539 18.237 293.781 Q19.057 293.023 19.401 292.320 L20.260 292.320 L20.260 303.320 Z"/>
  <path d="M24.182 303.320 L24.182 302.320 L25.682 302.320 L25.682 303.320 L24.182 303.320 Z"/>
  <path d="M34.448 302.320 L34.448 303.320 L27.354 303.320 Q27.339 302.929 27.510 302.554 Q27.776 301.945 28.378 301.359 Q28.979 300.773 30.104 299.711 Q31.854 298.054 32.471 297.125 Q33.089 296.195 33.089 295.382 Q33.089 294.507 32.526 293.914 Q31.964 293.320 31.073 293.320 Q30.120 293.320 29.542 293.851 Q28.964 294.382 28.964 295.320 L27.604 295.320 Q27.745 293.851 28.651 293.086 Q29.557 292.320 31.089 292.320 Q32.635 292.320 33.534 293.211 Q34.432 294.101 34.432 295.429 Q34.432 296.101 34.167 296.750 Q33.901 297.398 33.292 298.117 Q32.682 298.836 31.260 300.117 Q30.073 301.179 29.737 301.554 Q29.401 301.929 29.182 302.320 L34.448 302.320 Z"/>
  <path d="M20.260 261 L18.932 261 L18.932 252.422 Q18.464 252.891 17.690 253.352 Q16.917 253.812 16.307 254.047 L16.307 252.750 Q17.417 252.219 18.237 251.461 Q19.057 250.703 19.401 250 L20.260 250 L20.260 261 Z"/>
  <path d="M24.182 261 L24.182 260 L25.682 260 L25.682 261 L24.182 261 Z"/>
  <path d="M27.526 258 L28.901 258 Q29.057 259 29.620 259.500 Q30.182 260 30.964 260 Q31.917 260 32.581 259.289 Q33.245 258.578 33.245 257.406 Q33.245 256.297 32.612 255.648 Q31.979 255 30.948 255 Q30.307 255 29.799 255.281 Q29.292 255.562 28.995 256 L27.760 256 L28.792 250 L34.135 250 L34.135 251 L29.854 251 L29.276 254.578 Q30.245 254 31.307 254 Q32.698 254 33.667 254.938 Q34.635 255.875 34.635 257.328 Q34.635 258.734 33.792 259.750 Q32.760 261 30.964 261 Q29.510 261 28.581 260.180 Q27.651 259.359 27.526 258 Z"/>
  <path d="M20.260 218.680 L18.932 218.680 L18.932 210.102 Q18.464 210.571 17.690 211.032 Q16.917 211.492 16.307 211.727 L16.307 210.430 Q17.417 209.899 18.237 209.141 Q19.057 208.383 19.401 207.680 L20.260 207.680 L20.260 218.680 Z"/>
  <path d="M24.182 218.680 L24.182 217.680 L25.682 217.680 L25.682 218.680 L24.182 218.680 Z"/>
  <path d="M29.557 213.149 Q28.745 212.821 28.346 212.203 Q27.948 211.586 27.948 210.727 Q27.948 209.446 28.792 208.563 Q29.635 207.680 31.026 207.680 Q32.432 207.680 33.292 208.578 Q34.151 209.477 34.151 210.774 Q34.151 211.602 33.753 212.211 Q33.354 212.821 32.557 213.149 Q33.557 213.446 34.073 214.110 Q34.589 214.774 34.589 215.680 Q34.589 216.946 33.612 217.813 Q32.635 218.680 31.057 218.680 Q29.464 218.680 28.487 217.813 Q27.510 216.946 27.510 215.649 Q27.510 214.680 28.042 214.032 Q28.573 213.383 29.557 213.149 Z M29.292 210.633 Q29.292 211.539 29.784 212.110 Q30.276 212.680 31.057 212.680 Q31.823 212.680 32.307 212.110 Q32.792 211.539 32.792 210.711 Q32.792 209.852 32.292 209.266 Q31.792 208.680 31.042 208.680 Q30.292 208.680 29.792 209.250 Q29.292 209.821 29.292 210.633 Z M28.870 215.664 Q28.870 216.180 29.135 216.664 Q29.401 217.149 29.924 217.414 Q30.448 217.680 31.057 217.680 Q31.995 217.680 32.612 217.117 Q33.229 216.555 33.229 215.696 Q33.229 214.821 32.596 214.250 Q31.964 213.680 31.010 213.680 Q30.089 213.680 29.479 214.242 Q28.870 214.805 28.870 215.664 Z"/>
  <path d="M22.214 175.360 L22.214 176.360 L15.120 176.360 Q15.104 175.969 15.276 175.594 Q15.542 174.985 16.143 174.399 Q16.745 173.813 17.870 172.751 Q19.620 171.094 20.237 170.165 Q20.854 169.235 20.854 168.423 Q20.854 167.548 20.292 166.954 Q19.729 166.360 18.839 166.360 Q17.885 166.360 17.307 166.891 Q16.729 167.423 16.729 168.360 L15.370 168.360 Q15.510 166.891 16.417 166.126 Q17.323 165.360 18.854 165.360 Q20.401 165.360 21.299 166.251 Q22.198 167.141 22.198 168.469 Q22.198 169.141 21.932 169.790 Q21.667 170.438 21.057 171.157 Q20.448 171.876 19.026 173.157 Q17.839 174.219 17.503 174.594 Q17.167 174.969 16.948 175.360 L22.214 175.360 Z"/>
  <path d="M24.182 176.360 L24.182 175.360 L25.682 175.360 L25.682 176.360 L24.182 176.360 Z"/>
  <path d="M32.495 176.360 L31.167 176.360 L31.167 167.782 Q30.698 168.251 29.924 168.712 Q29.151 169.173 28.542 169.407 L28.542 168.110 Q29.651 167.579 30.471 166.821 Q31.292 166.063 31.635 165.360 L32.495 165.360 L32.495 176.360 Z"/>
  <path d="M22.214 133.040 L22.214 134.040 L15.120 134.040 Q15.104 133.649 15.276 133.274 Q15.542 132.665 16.143 132.079 Q16.745 131.493 17.870 130.431 Q19.620 128.774 20.237 127.845 Q20.854 126.915 20.854 126.102 Q20.854 125.227 20.292 124.634 Q19.729 124.040 18.839 124.040 Q17.885 124.040 17.307 124.571 Q16.729 125.102 16.729 126.040 L15.370 126.040 Q15.510 124.571 16.417 123.806 Q17.323 123.040 18.854 123.040 Q20.401 123.040 21.299 123.931 Q22.198 124.821 22.198 126.149 Q22.198 126.821 21.932 127.470 Q21.667 128.118 21.057 128.837 Q20.448 129.556 19.026 130.837 Q17.839 131.899 17.503 132.274 Q17.167 132.649 16.948 133.040 L22.214 133.040 Z"/>
  <path d="M24.182 134.040 L24.182 133.040 L25.682 133.040 L25.682 134.040 L24.182 134.040 Z"/>
  <path d="M31.745 134.040 L31.745 131.040 L27.089 131.040 L27.089 130.040 L31.995 123.040 L33.073 123.040 L33.073 130.040 L34.526 130.040 L34.526 131.040 L33.073 131.040 L33.073 134.040 L31.745 134.040 Z M31.745 130.040 L31.745 125.243 L28.385 130.040 L31.745 130.040 Z"/>
  <path d="M22.214 90.720 L22.214 91.720 L15.120 91.720 Q15.104 91.329 15.276 90.954 Q15.542 90.345 16.143 89.759 Q16.745 89.173 17.870 88.111 Q19.620 86.454 20.237 85.525 Q20.854 84.595 20.854 83.782 Q20.854 82.907 20.292 82.314 Q19.729 81.720 18.839 81.720 Q17.885 81.720 17.307 82.251 Q16.729 82.782 16.729 83.720 L15.370 83.720 Q15.510 82.251 16.417 81.486 Q17.323 80.720 18.854 80.720 Q20.401 80.720 21.299 81.611 Q22.198 82.501 22.198 83.829 Q22.198 84.501 21.932 85.150 Q21.667 85.798 21.057 86.517 Q20.448 87.236 19.026 88.517 Q17.839 89.579 17.503 89.954 Q17.167 90.329 16.948 90.720 L22.214 90.720 Z"/>
  <path d="M24.182 91.720 L24.182 90.720 L25.682 90.720 L25.682 91.720 L24.182 91.720 Z"/>
  <path d="M27.604 81.720 L27.604 80.720 L34.557 80.720 L34.557 81.532 Q33.542 82.626 32.534 84.564 Q31.526 86.501 30.964 88.548 Q30.573 90.001 30.464 91.720 L29.120 91.720 Q29.135 90.361 29.612 88.439 Q30.089 86.517 30.979 84.728 Q31.870 82.939 32.870 81.720 L27.604 81.720 Z"/>
  <path d="M15.292 46.400 L16.620 46.400 Q16.854 47.462 17.393 47.931 Q17.932 48.400 18.714 48.400 Q19.651 48.400 20.292 47.783 Q20.932 47.166 20.932 46.259 Q20.932 45.384 20.339 44.814 Q19.745 44.244 18.823 44.244 Q18.448 44.244 17.901 44.400 L18.042 43.400 Q18.182 43.416 18.260 43.416 Q19.104 43.416 19.776 42.908 Q20.448 42.400 20.448 41.337 Q20.448 40.509 19.956 39.955 Q19.464 39.400 18.682 39.400 Q17.917 39.400 17.401 39.900 Q16.885 40.400 16.745 41.400 L15.432 41.400 Q15.667 39.978 16.526 39.189 Q17.385 38.400 18.667 38.400 Q19.542 38.400 20.284 38.806 Q21.026 39.212 21.417 39.916 Q21.807 40.619 21.807 41.416 Q21.807 42.166 21.432 42.783 Q21.057 43.400 20.323 43.759 Q21.276 43.962 21.799 44.611 Q22.323 45.259 22.323 46.244 Q22.323 47.556 21.299 48.478 Q20.276 49.400 18.698 49.400 Q17.292 49.400 16.354 48.564 Q15.417 47.728 15.292 46.400 Z"/>
  <path d="M24.182 49.400 L24.182 48.400 L25.682 48.400 L25.682 49.400 L24.182 49.400 Z"/>
  <path d="M27.526 43.900 Q27.526 41.994 27.917 40.830 Q28.307 39.666 29.081 39.033 Q29.854 38.400 31.026 38.400 Q31.885 38.400 32.542 38.752 Q33.198 39.103 33.620 39.759 Q34.042 40.416 34.284 41.361 Q34.526 42.306 34.526 43.900 Q34.526 45.806 34.135 46.970 Q33.745 48.134 32.971 48.767 Q32.198 49.400 31.026 49.400 Q29.479 49.400 28.589 48.291 Q27.526 46.931 27.526 43.900 Z M28.885 43.900 Q28.885 46.603 29.503 47.502 Q30.120 48.400 31.026 48.400 Q31.932 48.400 32.549 47.502 Q33.167 46.603 33.167 43.900 Q33.167 41.181 32.549 40.291 Q31.932 39.400 31.010 39.400 Q30.104 39.400 29.557 40.181 Q28.885 41.197 28.885 43.900 Z"/>
  <path d="M139.833 298.320 L232.874 213.680 L325.916 284.213 L418.958 241.893 L512 256 L605.042 284.213 L698.084 213.680 L791.126 199.573 L884.168 185.467" fill="none" stroke="#000000" stroke-width="2"/>
  <path d="M134.504 296.289 L139.926 292.351 L145.348 296.289 L143.270 302.664 L136.567 302.664 L134.504 296.289 Z"/>
  <path d="M227.546 211.649 L232.968 207.711 L238.390 211.649 L236.312 218.024 L229.609 218.024 L227.546 211.649 Z"/>
  <path d="M320.588 282.182 L326.010 278.245 L331.432 282.182 L329.354 288.557 L322.651 288.557 L320.588 282.182 Z"/>
  <path d="M413.630 239.862 L419.052 235.925 L424.474 239.862 L422.396 246.237 L415.692 246.237 L413.630 239.862 Z"/>
  <path d="M506.672 253.969 L512.094 250.031 L517.516 253.969 L515.438 260.344 L508.734 260.344 L506.672 253.969 Z"/>
  <path d="M599.714 282.182 L605.136 278.245 L610.558 282.182 L608.479 288.557 L601.776 288.557 L599.714 282.182 Z"/>
  <path d="M692.756 211.649 L698.178 207.711 L703.599 211.649 L701.521 218.024 L694.818 218.024 L692.756 211.649 Z"/>
  <path d="M785.798 197.542 L791.219 193.605 L796.641 197.542 L794.563 203.917 L787.860 203.917 L785.798 197.542 Z"/>
  <path d="M878.839 183.435 L884.261 179.498 L889.683 183.435 L887.605 189.810 L880.902 189.810 L878.839 183.435 Z"/>
</svg>
