<svg xmlns="http://www.w3.org/2000/svg" width="1280.000000" height="480.000000" viewBox="0 0 1280.0 480.0">
  <rect width="1280.000000" height="480.000000" fill="#ffffff"/>
  <path stroke-width="1.333333" stroke="#a8a8a8" fill="none" d="M36.99375 44.4 L1243.00625 44.4 "/>
  <path stroke-width="1.333333" stroke="#a8a8a8" fill="none" d="M36.99375 44.4 L36.99375 49.733333 "/>
  <path stroke-width="1.333333" stroke="#a8a8a8" fill="none" d="M209.281258 44.4 L209.281258 49.733333 "/>
  <path stroke-width="1.333333" stroke="#a8a8a8" fill="none" d="M381.568765 44.4 L381.568765 49.733333 "/>
  <path stroke-width="1.333333" stroke="#a8a8a8" fill="none" d="M553.856291 44.4 L553.856291 49.733333 "/>
  <path stroke-width="1.333333" stroke="#a8a8a8" fill="none" d="M726.143781 44.4 L726.143781 49.733333 "/>
  <path stroke-width="1.333333" stroke="#a8a8a8" fill="none" d="M898.431271 44.4 L898.431271 49.733333 "/>
  <path stroke-width="1.333333" stroke="#a8a8a8" fill="none" d="M1070.718832 44.4 L1070.718832 49.733333 "/>
  <path stroke-width="1.333333" stroke="#a8a8a8" fill="none" d="M1243.00625 44.4 L1243.00625 49.733333 "/>
  <text x="20.275000" y="28.666667" fill="#333333" font-size="14.666667" font-family="Arial,Helvetica,'Helvetica Neue',sans-serif">-25.0</text>
  <text x="192.562508" y="28.666667" fill="#333333" font-size="14.666667" font-family="Arial,Helvetica,'Helvetica Neue',sans-serif">-10.7</text>
  <text x="371.373453" y="28.666667" fill="#333333" font-size="14.666667" font-family="Arial,Helvetica,'Helvetica Neue',sans-serif">3.6</text>
  <text x="539.582854" y="28.666667" fill="#333333" font-size="14.666667" font-family="Arial,Helvetica,'Helvetica Neue',sans-serif">17.9</text>
  <text x="711.870343" y="28.666667" fill="#333333" font-size="14.666667" font-family="Arial,Helvetica,'Helvetica Neue',sans-serif">32.1</text>
  <text x="884.157833" y="28.666667" fill="#333333" font-size="14.666667" font-family="Arial,Helvetica,'Helvetica Neue',sans-serif">46.4</text>
  <text x="1056.445395" y="28.666667" fill="#333333" font-size="14.666667" font-family="Arial,Helvetica,'Helvetica Neue',sans-serif">60.7</text>
  <text x="1228.732813" y="28.666667" fill="#333333" font-size="14.666667" font-family="Arial,Helvetica,'Helvetica Neue',sans-serif">75.0</text>
  <path stroke-width="1.333333" stroke="#a8a8a8" fill="none" d="M1243.00625 44.4 L1243.00625 435.6 "/>
  <path stroke-width="1.333333" stroke="#a8a8a8" fill="none" d="M1243.00625 435.6 L1237.672917 435.6 "/>
  <path stroke-width="1.333333" stroke="#a8a8a8" fill="none" d="M1243.00625 370.399998 L1237.672917 370.399998 "/>
  <path stroke-width="1.333333" stroke="#a8a8a8" fill="none" d="M1243.00625 305.199996 L1237.672917 305.199996 "/>
  <path stroke-width="1.333333" stroke="#a8a8a8" fill="none" d="M1243.00625 240.0 L1237.672917 240.0 "/>
  <path stroke-width="1.333333" stroke="#a8a8a8" fill="none" d="M1243.00625 174.799992 L1237.672917 174.799992 "/>
  <path stroke-width="1.333333" stroke="#a8a8a8" fill="none" d="M1243.00625 109.599984 L1237.672917 109.599984 "/>
  <path stroke-width="1.333333" stroke="#a8a8a8" fill="none" d="M1243.00625 44.4 L1237.672917 44.4 "/>
  <text x="1254.739583" y="407.999998" fill="#333333" font-size="14.666667" font-family="Arial,Helvetica,'Helvetica Neue',sans-serif">A</text>
  <text x="1254.739583" y="342.799996" fill="#333333" font-size="14.666667" font-family="Arial,Helvetica,'Helvetica Neue',sans-serif">B</text>
  <text x="1254.739583" y="277.600000" fill="#333333" font-size="14.666667" font-family="Arial,Helvetica,'Helvetica Neue',sans-serif">C</text>
  <text x="1254.739583" y="212.399992" fill="#333333" font-size="14.666667" font-family="Arial,Helvetica,'Helvetica Neue',sans-serif">D</text>
  <text x="1254.739583" y="147.199984" fill="#333333" font-size="14.666667" font-family="Arial,Helvetica,'Helvetica Neue',sans-serif">E</text>
  <text x="1254.739583" y="82.000000" fill="#333333" font-size="14.666667" font-family="Arial,Helvetica,'Helvetica Neue',sans-serif">F</text>
  <path stroke-width="1.333333" stroke="#a8a8a8" fill="none" d="M36.99375 435.6 L1243.00625 435.6 "/>
  <path stroke-width="1.333333" stroke="#a8a8a8" fill="none" d="M36.99375 435.6 L36.99375 430.266667 "/>
  <path stroke-width="1.333333" stroke="#a8a8a8" fill="none" d="M209.281258 435.6 L209.281258 430.266667 "/>
  <path stroke-width="1.333333" stroke="#a8a8a8" fill="none" d="M381.568765 435.6 L381.568765 430.266667 "/>
  <path stroke-width="1.333333" stroke="#a8a8a8" fill="none" d="M553.856291 435.6 L553.856291 430.266667 "/>
  <path stroke-width="1.333333" stroke="#a8a8a8" fill="none" d="M726.143781 435.6 L726.143781 430.266667 "/>
  <path stroke-width="1.333333" stroke="#a8a8a8" fill="none" d="M898.431271 435.6 L898.431271 430.266667 "/>
  <path stroke-width="1.333333" stroke="#a8a8a8" fill="none" d="M1070.718832 435.6 L1070.718832 430.266667 "/>
  <path stroke-width="1.333333" stroke="#a8a8a8" fill="none" d="M1243.00625 435.6 L1243.00625 430.266667 "/>
  <text x="20.275000" y="461.333333" fill="#333333" font-size="14.666667" font-family="Arial,Helvetica,'Helvetica Neue',sans-serif">-25.0</text>
  <text x="192.562508" y="461.333333" fill="#333333" font-size="14.666667" font-family="Arial,Helvetica,'Helvetica Neue',sans-serif">-10.7</text>
  <text x="371.373453" y="461.333333" fill="#333333" font-size="14.666667" font-family="Arial,Helvetica,'Helvetica Neue',sans-serif">3.6</text>
  <text x="539.582854" y="461.333333" fill="#333333" font-size="14.666667" font-family="Arial,Helvetica,'Helvetica Neue',sans-serif">17.9</text>
  <text x="711.870343" y="461.333333" fill="#333333" font-size="14.666667" font-family="Arial,Helvetica,'Helvetica Neue',sans-serif">32.1</text>
  <text x="884.157833" y="461.333333" fill="#333333" font-size="14.666667" font-family="Arial,Helvetica,'Helvetica Neue',sans-serif">46.4</text>
  <text x="1056.445395" y="461.333333" fill="#333333" font-size="14.666667" font-family="Arial,Helvetica,'Helvetica Neue',sans-serif">60.7</text>
  <text x="1228.732813" y="461.333333" fill="#333333" font-size="14.666667" font-family="Arial,Helvetica,'Helvetica Neue',sans-serif">75.0</text>
  <path stroke-width="1.333333" stroke="#a8a8a8" fill="none" d="M36.99375 44.4 L36.99375 435.6 "/>
  <path stroke-width="1.333333" stroke="#a8a8a8" fill="none" d="M36.99375 435.6 L42.327083 435.6 "/>
  <path stroke-width="1.333333" stroke="#a8a8a8" fill="none" d="M36.99375 370.399998 L42.327083 370.399998 "/>
  <path stroke-width="1.333333" stroke="#a8a8a8" fill="none" d="M36.99375 305.199996 L42.327083 305.199996 "/>
  <path stroke-width="1.333333" stroke="#a8a8a8" fill="none" d="M36.99375 240.0 L42.327083 240.0 "/>
  <path stroke-width="1.333333" stroke="#a8a8a8" fill="none" d="M36.99375 174.799992 L42.327083 174.799992 "/>
  <path stroke-width="1.333333" stroke="#a8a8a8" fill="none" d="M36.99375 109.599984 L42.327083 109.599984 "/>
  <path stroke-width="1.333333" stroke="#a8a8a8" fill="none" d="M36.99375 44.4 L42.327083 44.4 "/>
  <text x="15.479167" y="407.999998" fill="#333333" font-size="14.666667" font-family="Arial,Helvetica,'Helvetica Neue',sans-serif">A</text>
  <text x="15.479167" y="342.799996" fill="#333333" font-size="14.666667" font-family="Arial,Helvetica,'Helvetica Neue',sans-serif">B</text>
  <text x="14.666667" y="277.600000" fill="#333333" font-size="14.666667" font-family="Arial,Helvetica,'Helvetica Neue',sans-serif">C</text>
  <text x="14.666667" y="212.399992" fill="#333333" font-size="14.666667" font-family="Arial,Helvetica,'Helvetica Neue',sans-serif">D</text>
  <text x="15.479167" y="147.199984" fill="#333333" font-size="14.666667" font-family="Arial,Helvetica,'Helvetica Neue',sans-serif">E</text>
  <text x="16.291667" y="82.000000" fill="#333333" font-size="14.666667" font-family="Arial,Helvetica,'Helvetica Neue',sans-serif">F</text>
  <path fill="#4572a7" d="M748.541125 386.93472 L857.08225 386.93472 L857.08225 400.80928 L748.541125 400.80928 "/>
  <path fill="#4572a7" d="M796.781625 321.73472 L1122.405 321.73472 L1122.405 335.60928 L796.781625 335.60928 "/>
  <path fill="#4572a7" d="M857.08225 256.53472 L893.262625 256.53472 L893.262625 270.40928 L857.08225 270.40928 "/>
  <path fill="#4572a7" d="M736.481 191.33472 L796.781625 191.33472 L796.781625 205.20928 L736.481 205.20928 "/>
  <path fill="#4572a7" d="M591.7595 126.13472 L796.781625 126.13472 L796.781625 140.00928 L591.7595 140.00928 "/>
  <path fill="#4572a7" d="M736.481 60.93472 L1001.80375 60.93472 L1001.80375 74.80928 L736.481 74.80928 "/>
  <path fill="#aa4643" d="M169.655125 405.19072 L989.743625 405.19072 L989.743625 419.06528 L169.655125 419.06528 "/>
  <path fill="#aa4643" d="M217.895625 339.99072 L1037.984125 339.99072 L1037.984125 353.86528 L217.895625 353.86528 "/>
  <path fill="#aa4643" d="M338.496875 274.79072 L1098.28475 274.79072 L1098.28475 288.66528 L338.496875 288.66528 "/>
  <path fill="#aa4643" d="M290.256375 209.59072 L977.6835 209.59072 L977.6835 223.46528 L290.256375 223.46528 "/>
  <path fill="#aa4643" d="M555.579125 144.39072 L832.962 144.39072 L832.962 158.26528 L555.579125 158.26528 "/>
  <path fill="#aa4643" d="M193.775375 79.19072 L977.6835 79.19072 L977.6835 93.06528 L193.775375 93.06528 "/>
</svg>