<svg xmlns="http://www.w3.org/2000/svg" width="1280.000000" height="480.000000" viewBox="0 0 1280.0 480.0">
  <rect width="1280.000000" height="480.000000" fill="#ffffff"/>
  <path stroke-width="1.333333" stroke="#a8a8a8" fill="none" d="M42.327083 430.266667 L1237.672917 430.266667 "/>
  <path stroke-width="1.333333" stroke="#a8a8a8" fill="none" d="M102.094375 430.266667 L102.094375 424.933333 "/>
  <path stroke-width="1.333333" stroke="#a8a8a8" fill="none" d="M221.628958 430.266667 L221.628958 424.933333 "/>
  <path stroke-width="1.333333" stroke="#a8a8a8" fill="none" d="M341.163542 430.266667 L341.163542 424.933333 "/>
  <path stroke-width="1.333333" stroke="#a8a8a8" fill="none" d="M460.698125 430.266667 L460.698125 424.933333 "/>
  <path stroke-width="1.333333" stroke="#a8a8a8" fill="none" d="M580.232708 430.266667 L580.232708 424.933333 "/>
  <path stroke-width="1.333333" stroke="#a8a8a8" fill="none" d="M699.767292 430.266667 L699.767292 424.933333 "/>
  <path stroke-width="1.333333" stroke="#a8a8a8" fill="none" d="M819.301875 430.266667 L819.301875 424.933333 "/>
  <path stroke-width="1.333333" stroke="#a8a8a8" fill="none" d="M938.836458 430.266667 L938.836458 424.933333 "/>
  <path stroke-width="1.333333" stroke="#a8a8a8" fill="none" d="M1058.371042 430.266667 L1058.371042 424.933333 "/>
  <path stroke-width="1.333333" stroke="#a8a8a8" fill="none" d="M1177.905625 430.266667 L1177.905625 424.933333 "/>
  <text x="85.375625" y="456.000000" fill="#333333" font-size="14.666667" font-family="Arial,Helvetica,'Helvetica Neue',sans-serif">-20.0</text>
  <text x="204.910208" y="456.000000" fill="#333333" font-size="14.666667" font-family="Arial,Helvetica,'Helvetica Neue',sans-serif">-10.0</text>
  <text x="330.968229" y="456.000000" fill="#333333" font-size="14.666667" font-family="Arial,Helvetica,'Helvetica Neue',sans-serif">0.0</text>
  <text x="446.424688" y="456.000000" fill="#333333" font-size="14.666667" font-family="Arial,Helvetica,'Helvetica Neue',sans-serif">10.0</text>
  <text x="565.959271" y="456.000000" fill="#333333" font-size="14.666667" font-family="Arial,Helvetica,'Helvetica Neue',sans-serif">20.0</text>
  <text x="685.493854" y="456.000000" fill="#333333" font-size="14.666667" font-family="Arial,Helvetica,'Helvetica Neue',sans-serif">30.0</text>
  <text x="805.028437" y="456.000000" fill="#333333" font-size="14.666667" font-family="Arial,Helvetica,'Helvetica Neue',sans-serif">40.0</text>
  <text x="924.563021" y="456.000000" fill="#333333" font-size="14.666667" font-family="Arial,Helvetica,'Helvetica Neue',sans-serif">50.0</text>
  <text x="1044.097604" y="456.000000" fill="#333333" font-size="14.666667" font-family="Arial,Helvetica,'Helvetica Neue',sans-serif">60.0</text>
  <text x="1163.632187" y="456.000000" fill="#333333" font-size="14.666667" font-family="Arial,Helvetica,'Helvetica Neue',sans-serif">70.0</text>
  <path stroke-width="1.333333" stroke="#a8a8a8" fill="none" d="M42.327083 49.733333 L42.327083 430.266667 "/>
  <path stroke-width="1.333333" stroke="#a8a8a8" fill="none" d="M42.327083 430.266667 L47.660417 430.266667 "/>
  <path stroke-width="1.333333" stroke="#a8a8a8" fill="none" d="M42.327083 430.266667 L47.660417 430.266667 "/>
  <path stroke-width="1.333333" stroke="#a8a8a8" fill="none" d="M42.327083 366.844444 L47.660417 366.844444 "/>
  <path stroke-width="1.333333" stroke="#a8a8a8" fill="none" d="M42.327083 366.844444 L47.660417 366.844444 "/>
  <path stroke-width="1.333333" stroke="#a8a8a8" fill="none" d="M42.327083 303.422222 L47.660417 303.422222 "/>
  <path stroke-width="1.333333" stroke="#a8a8a8" fill="none" d="M42.327083 303.422222 L47.660417 303.422222 "/>
  <path stroke-width="1.333333" stroke="#a8a8a8" fill="none" d="M42.327083 240.0 L47.660417 240.0 "/>
  <path stroke-width="1.333333" stroke="#a8a8a8" fill="none" d="M42.327083 240.0 L47.660417 240.0 "/>
  <path stroke-width="1.333333" stroke="#a8a8a8" fill="none" d="M42.327083 176.577778 L47.660417 176.577778 "/>
  <path stroke-width="1.333333" stroke="#a8a8a8" fill="none" d="M42.327083 176.577778 L47.660417 176.577778 "/>
  <path stroke-width="1.333333" stroke="#a8a8a8" fill="none" d="M42.327083 113.155556 L47.660417 113.155556 "/>
  <path stroke-width="1.333333" stroke="#a8a8a8" fill="none" d="M42.327083 113.155556 L47.660417 113.155556 "/>
  <path stroke-width="1.333333" stroke="#a8a8a8" fill="none" d="M42.327083 49.733333 L47.660417 49.733333 "/>
  <text x="20.812500" y="403.555556" fill="#333333" font-size="14.666667" font-family="Arial,Helvetica,'Helvetica Neue',sans-serif">A</text>
  <text x="20.812500" y="340.133333" fill="#333333" font-size="14.666667" font-family="Arial,Helvetica,'Helvetica Neue',sans-serif">B</text>
  <text x="20.000000" y="276.711111" fill="#333333" font-size="14.666667" font-family="Arial,Helvetica,'Helvetica Neue',sans-serif">C</text>
  <text x="20.000000" y="213.288889" fill="#333333" font-size="14.666667" font-family="Arial,Helvetica,'Helvetica Neue',sans-serif">D</text>
  <text x="20.812500" y="149.866667" fill="#333333" font-size="14.666667" font-family="Arial,Helvetica,'Helvetica Neue',sans-serif">E</text>
  <text x="21.625000" y="86.444444" fill="#333333" font-size="14.666667" font-family="Arial,Helvetica,'Helvetica Neue',sans-serif">F</text>
  <path stroke-width="1.333333" stroke="#a8a8a8" fill="none" d="M1237.672917 49.733333 L1237.672917 430.266667 "/>
  <path stroke-width="1.333333" stroke="#a8a8a8" fill="none" d="M1237.672917 430.266667 L1232.339583 430.266667 "/>
  <path stroke-width="1.333333" stroke="#a8a8a8" fill="none" d="M1237.672917 430.266667 L1232.339583 430.266667 "/>
  <path stroke-width="1.333333" stroke="#a8a8a8" fill="none" d="M1237.672917 366.844444 L1232.339583 366.844444 "/>
  <path stroke-width="1.333333" stroke="#a8a8a8" fill="none" d="M1237.672917 366.844444 L1232.339583 366.844444 "/>
  <path stroke-width="1.333333" stroke="#a8a8a8" fill="none" d="M1237.672917 303.422222 L1232.339583 303.422222 "/>
  <path stroke-width="1.333333" stroke="#a8a8a8" fill="none" d="M1237.672917 303.422222 L1232.339583 303.422222 "/>
  <path stroke-width="1.333333" stroke="#a8a8a8" fill="none" d="M1237.672917 240.0 L1232.339583 240.0 "/>
  <path stroke-width="1.333333" stroke="#a8a8a8" fill="none" d="M1237.672917 240.0 L1232.339583 240.0 "/>
  <path stroke-width="1.333333" stroke="#a8a8a8" fill="none" d="M1237.672917 176.577778 L1232.339583 176.577778 "/>
  <path stroke-width="1.333333" stroke="#a8a8a8" fill="none" d="M1237.672917 176.577778 L1232.339583 176.577778 "/>
  <path stroke-width="1.333333" stroke="#a8a8a8" fill="none" d="M1237.672917 113.155556 L1232.339583 113.155556 "/>
  <path stroke-width="1.333333" stroke="#a8a8a8" fill="none" d="M1237.672917 113.155556 L1232.339583 113.155556 "/>
  <path stroke-width="1.333333" stroke="#a8a8a8" fill="none" d="M1237.672917 49.733333 L1232.339583 49.733333 "/>
  <text x="1249.406250" y="403.555556" fill="#333333" font-size="14.666667" font-family="Arial,Helvetica,'Helvetica Neue',sans-serif">A</text>
  <text x="1249.406250" y="340.133333" fill="#333333" font-size="14.666667" font-family="Arial,Helvetica,'Helvetica Neue',sans-serif">B</text>
  <text x="1249.406250" y="276.711111" fill="#333333" font-size="14.666667" font-family="Arial,Helvetica,'Helvetica Neue',sans-serif">C</text>
  <text x="1249.406250" y="213.288889" fill="#333333" font-size="14.666667" font-family="Arial,Helvetica,'Helvetica Neue',sans-serif">D</text>
  <text x="1249.406250" y="149.866667" fill="#333333" font-size="14.666667" font-family="Arial,Helvetica,'Helvetica Neue',sans-serif">E</text>
  <text x="1249.406250" y="86.444444" fill="#333333" font-size="14.666667" font-family="Arial,Helvetica,'Helvetica Neue',sans-serif">F</text>
  <path stroke-width="1.333333" stroke="#a8a8a8" fill="none" d="M42.327083 49.733333 L1237.672917 49.733333 "/>
  <path stroke-width="1.333333" stroke="#a8a8a8" fill="none" d="M102.094375 49.733333 L102.094375 55.066667 "/>
  <path stroke-width="1.333333" stroke="#a8a8a8" fill="none" d="M221.628958 49.733333 L221.628958 55.066667 "/>
  <path stroke-width="1.333333" stroke="#a8a8a8" fill="none" d="M341.163542 49.733333 L341.163542 55.066667 "/>
  <path stroke-width="1.333333" stroke="#a8a8a8" fill="none" d="M460.698125 49.733333 L460.698125 55.066667 "/>
  <path stroke-width="1.333333" stroke="#a8a8a8" fill="none" d="M580.232708 49.733333 L580.232708 55.066667 "/>
  <path stroke-width="1.333333" stroke="#a8a8a8" fill="none" d="M699.767292 49.733333 L699.767292 55.066667 "/>
  <path stroke-width="1.333333" stroke="#a8a8a8" fill="none" d="M819.301875 49.733333 L819.301875 55.066667 "/>
  <path stroke-width="1.333333" stroke="#a8a8a8" fill="none" d="M938.836458 49.733333 L938.836458 55.066667 "/>
  <path stroke-width="1.333333" stroke="#a8a8a8" fill="none" d="M1058.371042 49.733333 L1058.371042 55.066667 "/>
  <path stroke-width="1.333333" stroke="#a8a8a8" fill="none" d="M1177.905625 49.733333 L1177.905625 55.066667 "/>
  <text x="85.375625" y="34.000000" fill="#333333" font-size="14.666667" font-family="Arial,Helvetica,'Helvetica Neue',sans-serif">-20.0</text>
  <text x="204.910208" y="34.000000" fill="#333333" font-size="14.666667" font-family="Arial,Helvetica,'Helvetica Neue',sans-serif">-10.0</text>
  <text x="330.968229" y="34.000000" fill="#333333" font-size="14.666667" font-family="Arial,Helvetica,'Helvetica Neue',sans-serif">0.0</text>
  <text x="446.424688" y="34.000000" fill="#333333" font-size="14.666667" font-family="Arial,Helvetica,'Helvetica Neue',sans-serif">10.0</text>
  <text x="565.959271" y="34.000000" fill="#333333" font-size="14.666667" font-family="Arial,Helvetica,'Helvetica Neue',sans-serif">20.0</text>
  <text x="685.493854" y="34.000000" fill="#333333" font-size="14.666667" font-family="Arial,Helvetica,'Helvetica Neue',sans-serif">30.0</text>
  <text x="805.028437" y="34.000000" fill="#333333" font-size="14.666667" font-family="Arial,Helvetica,'Helvetica Neue',sans-serif">40.0</text>
  <text x="924.563021" y="34.000000" fill="#333333" font-size="14.666667" font-family="Arial,Helvetica,'Helvetica Neue',sans-serif">50.0</text>
  <text x="1044.097604" y="34.000000" fill="#333333" font-size="14.666667" font-family="Arial,Helvetica,'Helvetica Neue',sans-serif">60.0</text>
  <text x="1163.632187" y="34.000000" fill="#333333" font-size="14.666667" font-family="Arial,Helvetica,'Helvetica Neue',sans-serif">70.0</text>
  <path fill="#4572a7" d="M863.2 410.466667 L751.6 410.466667 L751.6 422.2 L863.2 422.2 "/>
  <path fill="#4572a7" d="M1136.0 337.133333 L801.2 337.133333 L801.2 348.866667 L1136.0 348.866667 "/>
  <path fill="#4572a7" d="M900.4 263.8 L863.2 263.8 L863.2 275.533333 L900.4 275.533333 "/>
  <path fill="#4572a7" d="M801.2 190.466667 L739.2 190.466667 L739.2 202.2 L801.2 202.2 "/>
  <path fill="#4572a7" d="M801.2 117.133333 L590.4 117.133333 L590.4 128.866667 L801.2 128.866667 "/>
  <path fill="#4572a7" d="M1012.0 43.8 L739.2 43.8 L739.2 55.533333 L1012.0 55.533333 "/>
  <path fill="#aa4643" d="M999.6 424.466667 L156.4 424.466667 L156.4 436.2 L999.6 436.2 "/>
  <path fill="#aa4643" d="M1049.2 351.133333 L206.0 351.133333 L206.0 362.866667 L1049.2 362.866667 "/>
  <path fill="#aa4643" d="M1111.2 277.8 L330.0 277.8 L330.0 289.533333 L1111.2 289.533333 "/>
  <path fill="#aa4643" d="M987.2 204.466667 L280.4 204.466667 L280.4 216.2 L987.2 216.2 "/>
  <path fill="#aa4643" d="M838.4 131.133333 L553.2 131.133333 L553.2 142.866667 L838.4 142.866667 "/>
  <path fill="#aa4643" d="M987.2 57.8 L181.2 57.8 L181.2 69.533333 L987.2 69.533333 "/>
</svg>