<svg xmlns="http://www.w3.org/2000/svg" width="1280.000000" height="480.000000" viewBox="0 0 1280.0 480.0">
  <rect width="1280.000000" height="480.000000" fill="#ffffff"/>
  <path fill="#4572a7" d="M120.375694 171.504 L120.375694 205.752 L155.575694 205.752 L155.575694 171.504 "/>
  <path fill="#4572a7" d="M311.985417 87.786667 L311.985417 190.530667 L347.185417 190.530667 L347.185417 87.786667 "/>
  <path fill="#4572a7" d="M503.595139 160.088 L503.595139 171.504 L538.795139 171.504 L538.795139 160.088 "/>
  <path fill="#4572a7" d="M695.204861 190.530667 L695.204861 209.557333 L730.404861 209.557333 L730.404861 190.530667 "/>
  <path fill="#4572a7" d="M886.814583 190.530667 L886.814583 255.221333 L922.014583 255.221333 L922.014583 190.530667 "/>
  <path fill="#4572a7" d="M1078.424306 125.84 L1078.424306 209.557333 L1113.624306 209.557333 L1113.624306 125.84 "/>
  <path fill="#aa4643" d="M166.375694 129.645333 L166.375694 388.408 L201.575694 388.408 L201.575694 129.645333 "/>
  <path fill="#aa4643" d="M357.985417 114.424 L357.985417 373.186667 L393.185417 373.186667 L393.185417 114.424 "/>
  <path fill="#aa4643" d="M549.595139 95.397333 L549.595139 335.133333 L584.795139 335.133333 L584.795139 95.397333 "/>
  <path fill="#aa4643" d="M741.204861 133.450667 L741.204861 350.354667 L776.404861 350.354667 L776.404861 133.450667 "/>
  <path fill="#aa4643" d="M932.814583 179.114667 L932.814583 266.637333 L968.014583 266.637333 L968.014583 179.114667 "/>
  <path fill="#aa4643" d="M1124.424306 133.450667 L1124.424306 380.797333 L1159.624306 380.797333 L1159.624306 133.450667 "/>
  <path stroke-width="1.333333" stroke="#a8a8a8" fill="none" d="M65.170833 49.733333 L65.170833 430.266667 "/>
  <path stroke-width="1.333333" stroke="#a8a8a8" fill="none" d="M65.170833 411.24 L70.504167 411.24 "/>
  <path stroke-width="1.333333" stroke="#a8a8a8" fill="none" d="M65.170833 373.186667 L70.504167 373.186667 "/>
  <path stroke-width="1.333333" stroke="#a8a8a8" fill="none" d="M65.170833 335.133333 L70.504167 335.133333 "/>
  <path stroke-width="1.333333" stroke="#a8a8a8" fill="none" d="M65.170833 297.08 L70.504167 297.08 "/>
  <path stroke-width="1.333333" stroke="#a8a8a8" fill="none" d="M65.170833 259.026667 L70.504167 259.026667 "/>
  <path stroke-width="1.333333" stroke="#a8a8a8" fill="none" d="M65.170833 220.973333 L70.504167 220.973333 "/>
  <path stroke-width="1.333333" stroke="#a8a8a8" fill="none" d="M65.170833 182.92 L70.504167 182.92 "/>
  <path stroke-width="1.333333" stroke="#a8a8a8" fill="none" d="M65.170833 144.866667 L70.504167 144.866667 "/>
  <path stroke-width="1.333333" stroke="#a8a8a8" fill="none" d="M65.170833 106.813333 L70.504167 106.813333 "/>
  <path stroke-width="1.333333" stroke="#a8a8a8" fill="none" d="M65.170833 68.76 L70.504167 68.76 "/>
  <text x="20.000000" y="416.240000" fill="#333333" font-size="14.666667" font-family="Arial,Helvetica,'Helvetica Neue',sans-serif">-20.0</text>
  <text x="20.000000" y="378.186667" fill="#333333" font-size="14.666667" font-family="Arial,Helvetica,'Helvetica Neue',sans-serif">-10.0</text>
  <text x="33.046875" y="340.133333" fill="#333333" font-size="14.666667" font-family="Arial,Helvetica,'Helvetica Neue',sans-serif">0.0</text>
  <text x="24.890625" y="302.080000" fill="#333333" font-size="14.666667" font-family="Arial,Helvetica,'Helvetica Neue',sans-serif">10.0</text>
  <text x="24.890625" y="264.026667" fill="#333333" font-size="14.666667" font-family="Arial,Helvetica,'Helvetica Neue',sans-serif">20.0</text>
  <text x="24.890625" y="225.973333" fill="#333333" font-size="14.666667" font-family="Arial,Helvetica,'Helvetica Neue',sans-serif">30.0</text>
  <text x="24.890625" y="187.920000" fill="#333333" font-size="14.666667" font-family="Arial,Helvetica,'Helvetica Neue',sans-serif">40.0</text>
  <text x="24.890625" y="149.866667" fill="#333333" font-size="14.666667" font-family="Arial,Helvetica,'Helvetica Neue',sans-serif">50.0</text>
  <text x="24.890625" y="111.813333" fill="#333333" font-size="14.666667" font-family="Arial,Helvetica,'Helvetica Neue',sans-serif">60.0</text>
  <text x="24.890625" y="73.760000" fill="#333333" font-size="14.666667" font-family="Arial,Helvetica,'Helvetica Neue',sans-serif">70.0</text>
  <path stroke-width="1.333333" stroke="#a8a8a8" fill="none" d="M1214.829167 49.733333 L1214.829167 430.266667 "/>
  <path stroke-width="1.333333" stroke="#a8a8a8" fill="none" d="M1214.829167 411.24 L1209.495833 411.24 "/>
  <path stroke-width="1.333333" stroke="#a8a8a8" fill="none" d="M1214.829167 373.186667 L1209.495833 373.186667 "/>
  <path stroke-width="1.333333" stroke="#a8a8a8" fill="none" d="M1214.829167 335.133333 L1209.495833 335.133333 "/>
  <path stroke-width="1.333333" stroke="#a8a8a8" fill="none" d="M1214.829167 297.08 L1209.495833 297.08 "/>
  <path stroke-width="1.333333" stroke="#a8a8a8" fill="none" d="M1214.829167 259.026667 L1209.495833 259.026667 "/>
  <path stroke-width="1.333333" stroke="#a8a8a8" fill="none" d="M1214.829167 220.973333 L1209.495833 220.973333 "/>
  <path stroke-width="1.333333" stroke="#a8a8a8" fill="none" d="M1214.829167 182.92 L1209.495833 182.92 "/>
  <path stroke-width="1.333333" stroke="#a8a8a8" fill="none" d="M1214.829167 144.866667 L1209.495833 144.866667 "/>
  <path stroke-width="1.333333" stroke="#a8a8a8" fill="none" d="M1214.829167 106.813333 L1209.495833 106.813333 "/>
  <path stroke-width="1.333333" stroke="#a8a8a8" fill="none" d="M1214.829167 68.76 L1209.495833 68.76 "/>
  <text x="1226.562500" y="416.240000" fill="#333333" font-size="14.666667" font-family="Arial,Helvetica,'Helvetica Neue',sans-serif">-20.0</text>
  <text x="1226.562500" y="378.186667" fill="#333333" font-size="14.666667" font-family="Arial,Helvetica,'Helvetica Neue',sans-serif">-10.0</text>
  <text x="1226.562500" y="340.133333" fill="#333333" font-size="14.666667" font-family="Arial,Helvetica,'Helvetica Neue',sans-serif">0.0</text>
  <text x="1226.562500" y="302.080000" fill="#333333" font-size="14.666667" font-family="Arial,Helvetica,'Helvetica Neue',sans-serif">10.0</text>
  <text x="1226.562500" y="264.026667" fill="#333333" font-size="14.666667" font-family="Arial,Helvetica,'Helvetica Neue',sans-serif">20.0</text>
  <text x="1226.562500" y="225.973333" fill="#333333" font-size="14.666667" font-family="Arial,Helvetica,'Helvetica Neue',sans-serif">30.0</text>
  <text x="1226.562500" y="187.920000" fill="#333333" font-size="14.666667" font-family="Arial,Helvetica,'Helvetica Neue',sans-serif">40.0</text>
  <text x="1226.562500" y="149.866667" fill="#333333" font-size="14.666667" font-family="Arial,Helvetica,'Helvetica Neue',sans-serif">50.0</text>
  <text x="1226.562500" y="111.813333" fill="#333333" font-size="14.666667" font-family="Arial,Helvetica,'Helvetica Neue',sans-serif">60.0</text>
  <text x="1226.562500" y="73.760000" fill="#333333" font-size="14.666667" font-family="Arial,Helvetica,'Helvetica Neue',sans-serif">70.0</text>
  <path stroke-width="1.333333" stroke="#a8a8a8" fill="none" d="M65.170833 49.733333 L1214.829167 49.733333 "/>
  <path stroke-width="1.333333" stroke="#a8a8a8" fill="none" d="M65.170833 49.733333 L65.170833 55.066667 "/>
  <path stroke-width="1.333333" stroke="#a8a8a8" fill="none" d="M65.170833 49.733333 L65.170833 55.066667 "/>
  <path stroke-width="1.333333" stroke="#a8a8a8" fill="none" d="M256.780556 49.733333 L256.780556 55.066667 "/>
  <path stroke-width="1.333333" stroke="#a8a8a8" fill="none" d="M256.780556 49.733333 L256.780556 55.066667 "/>
  <path stroke-width="1.333333" stroke="#a8a8a8" fill="none" d="M448.390278 49.733333 L448.390278 55.066667 "/>
  <path stroke-width="1.333333" stroke="#a8a8a8" fill="none" d="M448.390278 49.733333 L448.390278 55.066667 "/>
  <path stroke-width="1.333333" stroke="#a8a8a8" fill="none" d="M640.0 49.733333 L640.0 55.066667 "/>
  <path stroke-width="1.333333" stroke="#a8a8a8" fill="none" d="M640.0 49.733333 L640.0 55.066667 "/>
  <path stroke-width="1.333333" stroke="#a8a8a8" fill="none" d="M831.609722 49.733333 L831.609722 55.066667 "/>
  <path stroke-width="1.333333" stroke="#a8a8a8" fill="none" d="M831.609722 49.733333 L831.609722 55.066667 "/>
  <path stroke-width="1.333333" stroke="#a8a8a8" fill="none" d="M1023.219444 49.733333 L1023.219444 55.066667 "/>
  <path stroke-width="1.333333" stroke="#a8a8a8" fill="none" d="M1023.219444 49.733333 L1023.219444 55.066667 "/>
  <path stroke-width="1.333333" stroke="#a8a8a8" fill="none" d="M1214.829167 49.733333 L1214.829167 55.066667 "/>
  <text x="156.085069" y="34.000000" fill="#333333" font-size="14.666667" font-family="Arial,Helvetica,'Helvetica Neue',sans-serif">A</text>
  <text x="347.694792" y="34.000000" fill="#333333" font-size="14.666667" font-family="Arial,Helvetica,'Helvetica Neue',sans-serif">B</text>
  <text x="538.898264" y="34.000000" fill="#333333" font-size="14.666667" font-family="Arial,Helvetica,'Helvetica Neue',sans-serif">C</text>
  <text x="730.507986" y="34.000000" fill="#333333" font-size="14.666667" font-family="Arial,Helvetica,'Helvetica Neue',sans-serif">D</text>
  <text x="922.523958" y="34.000000" fill="#333333" font-size="14.666667" font-family="Arial,Helvetica,'Helvetica Neue',sans-serif">E</text>
  <text x="1114.539931" y="34.000000" fill="#333333" font-size="14.666667" font-family="Arial,Helvetica,'Helvetica Neue',sans-serif">F</text>
  <path stroke-width="1.333333" stroke="#a8a8a8" fill="none" d="M65.170833 430.266667 L1214.829167 430.266667 "/>
  <path stroke-width="1.333333" stroke="#a8a8a8" fill="none" d="M65.170833 430.266667 L65.170833 424.933333 "/>
  <path stroke-width="1.333333" stroke="#a8a8a8" fill="none" d="M65.170833 430.266667 L65.170833 424.933333 "/>
  <path stroke-width="1.333333" stroke="#a8a8a8" fill="none" d="M256.780556 430.266667 L256.780556 424.933333 "/>
  <path stroke-width="1.333333" stroke="#a8a8a8" fill="none" d="M256.780556 430.266667 L256.780556 424.933333 "/>
  <path stroke-width="1.333333" stroke="#a8a8a8" fill="none" d="M448.390278 430.266667 L448.390278 424.933333 "/>
  <path stroke-width="1.333333" stroke="#a8a8a8" fill="none" d="M448.390278 430.266667 L448.390278 424.933333 "/>
  <path stroke-width="1.333333" stroke="#a8a8a8" fill="none" d="M640.0 430.266667 L640.0 424.933333 "/>
  <path stroke-width="1.333333" stroke="#a8a8a8" fill="none" d="M640.0 430.266667 L640.0 424.933333 "/>
  <path stroke-width="1.333333" stroke="#a8a8a8" fill="none" d="M831.609722 430.266667 L831.609722 424.933333 "/>
  <path stroke-width="1.333333" stroke="#a8a8a8" fill="none" d="M831.609722 430.266667 L831.609722 424.933333 "/>
  <path stroke-width="1.333333" stroke="#a8a8a8" fill="none" d="M1023.219444 430.266667 L1023.219444 424.933333 "/>
  <path stroke-width="1.333333" stroke="#a8a8a8" fill="none" d="M1023.219444 430.266667 L1023.219444 424.933333 "/>
  <path stroke-width="1.333333" stroke="#a8a8a8" fill="none" d="M1214.829167 430.266667 L1214.829167 424.933333 "/>
  <text x="156.085069" y="456.000000" fill="#333333" font-size="14.666667" font-family="Arial,Helvetica,'Helvetica Neue',sans-serif">A</text>
  <text x="347.694792" y="456.000000" fill="#333333" font-size="14.666667" font-family="Arial,Helvetica,'Helvetica Neue',sans-serif">B</text>
  <text x="538.898264" y="456.000000" fill="#333333" font-size="14.666667" font-family="Arial,Helvetica,'Helvetica Neue',sans-serif">C</text>
  <text x="730.507986" y="456.000000" fill="#333333" font-size="14.666667" font-family="Arial,Helvetica,'Helvetica Neue',sans-serif">D</text>
  <text x="922.523958" y="456.000000" fill="#333333" font-size="14.666667" font-family="Arial,Helvetica,'Helvetica Neue',sans-serif">E</text>
  <text x="1114.539931" y="456.000000" fill="#333333" font-size="14.666667" font-family="Arial,Helvetica,'Helvetica Neue',sans-serif">F</text>
</svg>