<svg xmlns="http://www.w3.org/2000/svg" width="1280.000000" height="480.000000" viewBox="0 0 1280.0 480.0">
  <rect width="1280.000000" height="480.000000" fill="#ffffff"/>
  <path stroke-width="1.333333" stroke="#a8a8a8" fill="none" d="M1200.584375 14.666667 L1200.584375 435.6 "/>
  <path stroke-width="1.333333" stroke="#a8a8a8" fill="none" d="M1200.584375 435.6 L1195.251042 435.6 "/>
  <path stroke-width="1.333333" stroke="#a8a8a8" fill="none" d="M1200.584375 375.466664 L1195.251042 375.466664 "/>
  <path stroke-width="1.333333" stroke="#a8a8a8" fill="none" d="M1200.584375 315.333328 L1195.251042 315.333328 "/>
  <path stroke-width="1.333333" stroke="#a8a8a8" fill="none" d="M1200.584375 255.199986 L1195.251042 255.199986 "/>
  <path stroke-width="1.333333" stroke="#a8a8a8" fill="none" d="M1200.584375 195.066656 L1195.251042 195.066656 "/>
  <path stroke-width="1.333333" stroke="#a8a8a8" fill="none" d="M1200.584375 134.933326 L1195.251042 134.933326 "/>
  <path stroke-width="1.333333" stroke="#a8a8a8" fill="none" d="M1200.584375 74.799971 L1195.251042 74.799971 "/>
  <path stroke-width="1.333333" stroke="#a8a8a8" fill="none" d="M1200.584375 14.666667 L1195.251042 14.666667 "/>
  <text x="1212.317708" y="440.600000" fill="#333333" font-size="14.666667" font-family="Arial,Helvetica,'Helvetica Neue',sans-serif">0.0</text>
  <text x="1212.317708" y="380.466664" fill="#333333" font-size="14.666667" font-family="Arial,Helvetica,'Helvetica Neue',sans-serif">5714.3</text>
  <text x="1212.317708" y="320.333328" fill="#333333" font-size="14.666667" font-family="Arial,Helvetica,'Helvetica Neue',sans-serif">11428.6</text>
  <text x="1212.317708" y="260.199986" fill="#333333" font-size="14.666667" font-family="Arial,Helvetica,'Helvetica Neue',sans-serif">17142.9</text>
  <text x="1212.317708" y="200.066656" fill="#333333" font-size="14.666667" font-family="Arial,Helvetica,'Helvetica Neue',sans-serif">22857.1</text>
  <text x="1212.317708" y="139.933326" fill="#333333" font-size="14.666667" font-family="Arial,Helvetica,'Helvetica Neue',sans-serif">28571.4</text>
  <text x="1212.317708" y="79.799971" fill="#333333" font-size="14.666667" font-family="Arial,Helvetica,'Helvetica Neue',sans-serif">34285.7</text>
  <text x="1212.317708" y="19.666667" fill="#333333" font-size="14.666667" font-family="Arial,Helvetica,'Helvetica Neue',sans-serif">40000.0</text>
  <path stroke-width="1.333333" stroke="#a8a8a8" fill="none" d="M79.415625 435.6 L1200.584375 435.6 "/>
  <path stroke-width="1.333333" stroke="#a8a8a8" fill="none" d="M79.415625 435.6 L79.415625 430.266667 "/>
  <path stroke-width="1.333333" stroke="#a8a8a8" fill="none" d="M359.707813 435.6 L359.707813 430.266667 "/>
  <path stroke-width="1.333333" stroke="#a8a8a8" fill="none" d="M640.0 435.6 L640.0 430.266667 "/>
  <path stroke-width="1.333333" stroke="#a8a8a8" fill="none" d="M920.292188 435.6 L920.292188 430.266667 "/>
  <path stroke-width="1.333333" stroke="#a8a8a8" fill="none" d="M1200.584375 435.6 L1200.584375 430.266667 "/>
  <text x="196.725781" y="461.333333" fill="#333333" font-size="14.666667" font-family="Arial,Helvetica,'Helvetica Neue',sans-serif">France</text>
  <text x="486.392969" y="461.333333" fill="#333333" font-size="14.666667" font-family="Arial,Helvetica,'Helvetica Neue',sans-serif">Italy</text>
  <text x="761.388281" y="461.333333" fill="#333333" font-size="14.666667" font-family="Arial,Helvetica,'Helvetica Neue',sans-serif">Spain</text>
  <text x="1036.383594" y="461.333333" fill="#333333" font-size="14.666667" font-family="Arial,Helvetica,'Helvetica Neue',sans-serif">Greece</text>
  <path stroke-width="1.333333" stroke="#a8a8a8" fill="none" d="M79.415625 14.666667 L79.415625 435.6 "/>
  <path stroke-width="1.333333" stroke="#a8a8a8" fill="none" d="M79.415625 435.6 L84.748958 435.6 "/>
  <path stroke-width="1.333333" stroke="#a8a8a8" fill="none" d="M79.415625 375.466664 L84.748958 375.466664 "/>
  <path stroke-width="1.333333" stroke="#a8a8a8" fill="none" d="M79.415625 315.333328 L84.748958 315.333328 "/>
  <path stroke-width="1.333333" stroke="#a8a8a8" fill="none" d="M79.415625 255.199986 L84.748958 255.199986 "/>
  <path stroke-width="1.333333" stroke="#a8a8a8" fill="none" d="M79.415625 195.066656 L84.748958 195.066656 "/>
  <path stroke-width="1.333333" stroke="#a8a8a8" fill="none" d="M79.415625 134.933326 L84.748958 134.933326 "/>
  <path stroke-width="1.333333" stroke="#a8a8a8" fill="none" d="M79.415625 74.799971 L84.748958 74.799971 "/>
  <path stroke-width="1.333333" stroke="#a8a8a8" fill="none" d="M79.415625 14.666667 L84.748958 14.666667 "/>
  <text x="47.291667" y="440.600000" fill="#333333" font-size="14.666667" font-family="Arial,Helvetica,'Helvetica Neue',sans-serif">0.0</text>
  <text x="22.822917" y="380.466664" fill="#333333" font-size="14.666667" font-family="Arial,Helvetica,'Helvetica Neue',sans-serif">5714.3</text>
  <text x="15.760417" y="320.333328" fill="#333333" font-size="14.666667" font-family="Arial,Helvetica,'Helvetica Neue',sans-serif">11428.6</text>
  <text x="14.666667" y="260.199986" fill="#333333" font-size="14.666667" font-family="Arial,Helvetica,'Helvetica Neue',sans-serif">17142.9</text>
  <text x="14.666667" y="200.066656" fill="#333333" font-size="14.666667" font-family="Arial,Helvetica,'Helvetica Neue',sans-serif">22857.1</text>
  <text x="14.666667" y="139.933326" fill="#333333" font-size="14.666667" font-family="Arial,Helvetica,'Helvetica Neue',sans-serif">28571.4</text>
  <text x="14.666667" y="79.799971" fill="#333333" font-size="14.666667" font-family="Arial,Helvetica,'Helvetica Neue',sans-serif">34285.7</text>
  <text x="14.666667" y="19.666667" fill="#333333" font-size="14.666667" font-family="Arial,Helvetica,'Helvetica Neue',sans-serif">40000.0</text>
  <path stroke-width="1.333333" stroke="#e5e5e5" fill="none" d="M79.415625 435.6 L1200.584375 435.6 "/>
  <path stroke-width="1.333333" stroke="#e5e5e5" fill="none" d="M79.415625 375.466664 L1200.584375 375.466664 "/>
  <path stroke-width="1.333333" stroke="#e5e5e5" fill="none" d="M79.415625 315.333328 L1200.584375 315.333328 "/>
  <path stroke-width="1.333333" stroke="#e5e5e5" fill="none" d="M79.415625 255.199986 L1200.584375 255.199986 "/>
  <path stroke-width="1.333333" stroke="#e5e5e5" fill="none" d="M79.415625 195.066656 L1200.584375 195.066656 "/>
  <path stroke-width="1.333333" stroke="#e5e5e5" fill="none" d="M79.415625 134.933326 L1200.584375 134.933326 "/>
  <path stroke-width="1.333333" stroke="#e5e5e5" fill="none" d="M79.415625 74.799971 L1200.584375 74.799971 "/>
  <path stroke-width="1.333333" stroke="#e5e5e5" fill="none" d="M79.415625 14.666667 L1200.584375 14.666667 "/>
  <path fill="#4572a7" d="M147.358451 97.038309 L147.358451 435.6 L187.12257 435.6 L187.12257 97.038309 "/>
  <path fill="#4572a7" d="M427.650639 120.936958 L427.650639 435.6 L467.414757 435.6 L467.414757 120.936958 "/>
  <path fill="#4572a7" d="M707.942826 128.895959 L707.942826 435.6 L747.706945 435.6 L747.706945 128.895959 "/>
  <path fill="#4572a7" d="M988.235014 146.98853 L988.235014 435.6 L1027.999132 435.6 L1027.999132 146.98853 "/>
  <path fill="#aa4643" d="M199.67966 109.249193 L199.67966 435.6 L239.443778 435.6 L239.443778 109.249193 "/>
  <path fill="#aa4643" d="M479.971847 140.864254 L479.971847 435.6 L519.735965 435.6 L519.735965 140.864254 "/>
  <path fill="#aa4643" d="M760.264035 144.478104 L760.264035 435.6 L800.028153 435.6 L800.028153 144.478104 "/>
  <path fill="#aa4643" d="M1040.556222 160.312553 L1040.556222 435.6 L1080.32034 435.6 L1080.32034 160.312553 "/>
  <path fill="#89a54e" d="M252.000868 106.227035 L252.000868 435.6 L291.764986 435.6 L291.764986 106.227035 "/>
  <path fill="#89a54e" d="M532.293055 136.938079 L532.293055 435.6 L572.057174 435.6 L572.057174 136.938079 "/>
  <path fill="#89a54e" d="M812.585243 147.976171 L812.585243 435.6 L852.349361 435.6 L852.349361 147.976171 "/>
  <path fill="#89a54e" d="M1092.87743 170.143488 L1092.87743 435.6 L1132.641549 435.6 L1132.641549 170.143488 "/>
</svg>