<svg xmlns="http://www.w3.org/2000/svg" width="1280.000000" height="480.000000" viewBox="0 0 1280.0 480.0">
  <rect width="1280.000000" height="480.000000" fill="#ffffff"/>
  <path stroke-width="1.333333" stroke="#a8a8a8" fill="none" d="M1200.584375 14.666667 L1200.584375 435.6 "/>
  <path stroke-width="1.333333" stroke="#a8a8a8" fill="none" d="M1200.584375 435.6 L1195.251042 435.6 "/>
  <path stroke-width="1.333333" stroke="#a8a8a8" fill="none" d="M1200.584375 375.466664 L1195.251042 375.466664 "/>
  <path stroke-width="1.333333" stroke="#a8a8a8" fill="none" d="M1200.584375 315.333328 L1195.251042 315.333328 "/>
  <path stroke-width="1.333333" stroke="#a8a8a8" fill="none" d="M1200.584375 255.199986 L1195.251042 255.199986 "/>
  <path stroke-width="1.333333" stroke="#a8a8a8" fill="none" d="M1200.584375 195.066656 L1195.251042 195.066656 "/>
  <path stroke-width="1.333333" stroke="#a8a8a8" fill="none" d="M1200.584375 134.933326 L1195.251042 134.933326 "/>
  <path stroke-width="1.333333" stroke="#a8a8a8" fill="none" d="M1200.584375 74.799971 L1195.251042 74.799971 "/>
  <path stroke-width="1.333333" stroke="#a8a8a8" fill="none" d="M1200.584375 14.666667 L1195.251042 14.666667 "/>
  <text x="1212.317708" y="440.600000" fill="#333333" font-size="14.666667" font-family="Arial,Helvetica,'Helvetica Neue',sans-serif">0.0</text>
  <text x="1212.317708" y="380.466664" fill="#333333" font-size="14.666667" font-family="Arial,Helvetica,'Helvetica Neue',sans-serif">5714.3</text>
  <text x="1212.317708" y="320.333328" fill="#333333" font-size="14.666667" font-family="Arial,Helvetica,'Helvetica Neue',sans-serif">11428.6</text>
  <text x="1212.317708" y="260.199986" fill="#333333" font-size="14.666667" font-family="Arial,Helvetica,'Helvetica Neue',sans-serif">17142.9</text>
  <text x="1212.317708" y="200.066656" fill="#333333" font-size="14.666667" font-family="Arial,Helvetica,'Helvetica Neue',sans-serif">22857.1</text>
  <text x="1212.317708" y="139.933326" fill="#333333" font-size="14.666667" font-family="Arial,Helvetica,'Helvetica Neue',sans-serif">28571.4</text>
  <text x="1212.317708" y="79.799971" fill="#333333" font-size="14.666667" font-family="Arial,Helvetica,'Helvetica Neue',sans-serif">34285.7</text>
  <text x="1212.317708" y="19.666667" fill="#333333" font-size="14.666667" font-family="Arial,Helvetica,'Helvetica Neue',sans-serif">40000.0</text>
  <path stroke-width="1.333333" stroke="#a8a8a8" fill="none" d="M79.415625 435.6 L1200.584375 435.6 "/>
  <path stroke-width="1.333333" stroke="#a8a8a8" fill="none" d="M79.415625 435.6 L79.415625 430.266667 "/>
  <path stroke-width="1.333333" stroke="#a8a8a8" fill="none" d="M359.707813 435.6 L359.707813 430.266667 "/>
  <path stroke-width="1.333333" stroke="#a8a8a8" fill="none" d="M640.0 435.6 L640.0 430.266667 "/>
  <path stroke-width="1.333333" stroke="#a8a8a8" fill="none" d="M920.292188 435.6 L920.292188 430.266667 "/>
  <path stroke-width="1.333333" stroke="#a8a8a8" fill="none" d="M1200.584375 435.6 L1200.584375 430.266667 "/>
  <text x="196.725781" y="461.333333" fill="#333333" font-size="14.666667" font-family="Arial,Helvetica,'Helvetica Neue',sans-serif">France</text>
  <text x="486.392969" y="461.333333" fill="#333333" font-size="14.666667" font-family="Arial,Helvetica,'Helvetica Neue',sans-serif">Italy</text>
  <text x="761.388281" y="461.333333" fill="#333333" font-size="14.666667" font-family="Arial,Helvetica,'Helvetica Neue',sans-serif">Spain</text>
  <text x="1036.383594" y="461.333333" fill="#333333" font-size="14.666667" font-family="Arial,Helvetica,'Helvetica Neue',sans-serif">Greece</text>
  <path stroke-width="1.333333" stroke="#a8a8a8" fill="none" d="M79.415625 14.666667 L79.415625 435.6 "/>
  <path stroke-width="1.333333" stroke="#a8a8a8" fill="none" d="M79.415625 435.6 L84.748958 435.6 "/>
  <path stroke-width="1.333333" stroke="#a8a8a8" fill="none" d="M79.415625 375.466664 L84.748958 375.466664 "/>
  <path stroke-width="1.333333" stroke="#a8a8a8" fill="none" d="M79.415625 315.333328 L84.748958 315.333328 "/>
  <path stroke-width="1.333333" stroke="#a8a8a8" fill="none" d="M79.415625 255.199986 L84.748958 255.199986 "/>
  <path stroke-width="1.333333" stroke="#a8a8a8" fill="none" d="M79.415625 195.066656 L84.748958 195.066656 "/>
  <path stroke-width="1.333333" stroke="#a8a8a8" fill="none" d="M79.415625 134.933326 L84.748958 134.933326 "/>
  <path stroke-width="1.333333" stroke="#a8a8a8" fill="none" d="M79.415625 74.799971 L84.748958 74.799971 "/>
  <path stroke-width="1.333333" stroke="#a8a8a8" fill="none" d="M79.415625 14.666667 L84.748958 14.666667 "/>
  <text x="47.291667" y="440.600000" fill="#333333" font-size="14.666667" font-family="Arial,Helvetica,'Helvetica Neue',sans-serif">0.0</text>
  <text x="22.822917" y="380.466664" fill="#333333" font-size="14.666667" font-family="Arial,Helvetica,'Helvetica Neue',sans-serif">5714.3</text>
  <text x="15.760417" y="320.333328" fill="#333333" font-size="14.666667" font-family="Arial,Helvetica,'Helvetica Neue',sans-serif">11428.6</text>
  <text x="14.666667" y="260.199986" fill="#333333" font-size="14.666667" font-family="Arial,Helvetica,'Helvetica Neue',sans-serif">17142.9</text>
  <text x="14.666667" y="200.066656" fill="#333333" font-size="14.666667" font-family="Arial,Helvetica,'Helvetica Neue',sans-serif">22857.1</text>
  <text x="14.666667" y="139.933326" fill="#333333" font-size="14.666667" font-family="Arial,Helvetica,'Helvetica Neue',sans-serif">28571.4</text>
  <text x="14.666667" y="79.799971" fill="#333333" font-size="14.666667" font-family="Arial,Helvetica,'Helvetica Neue',sans-serif">34285.7</text>
  <text x="14.666667" y="19.666667" fill="#333333" font-size="14.666667" font-family="Arial,Helvetica,'Helvetica Neue',sans-serif">40000.0</text>
  <path stroke-width="1.333333" stroke="#e5e5e5" fill="none" d="M79.415625 435.6 L1200.584375 435.6 "/>
  <path stroke-width="1.333333" stroke="#e5e5e5" fill="none" d="M79.415625 375.466664 L1200.584375 375.466664 "/>
  <path stroke-width="1.333333" stroke="#e5e5e5" fill="none" d="M79.415625 315.333328 L1200.584375 315.333328 "/>
  <path stroke-width="1.333333" stroke="#e5e5e5" fill="none" d="M79.415625 255.199986 L1200.584375 255.199986 "/>
  <path stroke-width="1.333333" stroke="#e5e5e5" fill="none" d="M79.415625 195.066656 L1200.584375 195.066656 "/>
  <path stroke-width="1.333333" stroke="#e5e5e5" fill="none" d="M79.415625 134.933326 L1200.584375 134.933326 "/>
  <path stroke-width="1.333333" stroke="#e5e5e5" fill="none" d="M79.415625 74.799971 L1200.584375 74.799971 "/>
  <path stroke-width="1.333333" stroke="#e5e5e5" fill="none" d="M79.415625 14.666667 L1200.584375 14.666667 "/>
  <path fill="#4572a7" d="M144.847033 100.633175 L144.847033 435.6 L168.705504 435.6 L168.705504 100.633175 "/>
  <path fill="#4572a7" d="M425.139221 118.069431 L425.139221 435.6 L448.997692 435.6 L448.997692 118.069431 "/>
  <path fill="#4572a7" d="M705.431408 131.13086 L705.431408 435.6 L729.289879 435.6 L729.289879 131.13086 "/>
  <path fill="#4572a7" d="M985.723596 153.525536 L985.723596 435.6 L1009.582067 435.6 L1009.582067 153.525536 "/>
  <path fill="#aa4643" d="M176.239758 94.647092 L176.239758 435.6 L200.098229 435.6 L200.098229 94.647092 "/>
  <path fill="#aa4643" d="M456.531946 114.526754 L456.531946 435.6 L480.390417 435.6 L480.390417 114.526754 "/>
  <path fill="#aa4643" d="M736.824133 126.306162 L736.824133 435.6 L760.682604 435.6 L760.682604 126.306162 "/>
  <path fill="#aa4643" d="M1017.116321 145.179374 L1017.116321 435.6 L1040.974792 435.6 L1040.974792 145.179374 "/>
  <path fill="#89a54e" d="M207.632483 97.038309 L207.632483 435.6 L231.490954 435.6 L231.490954 97.038309 "/>
  <path fill="#89a54e" d="M487.924671 120.936958 L487.924671 435.6 L511.783142 435.6 L511.783142 120.936958 "/>
  <path fill="#89a54e" d="M768.216858 128.895959 L768.216858 435.6 L792.075329 435.6 L792.075329 128.895959 "/>
  <path fill="#89a54e" d="M1048.509046 146.98853 L1048.509046 435.6 L1072.367517 435.6 L1072.367517 146.98853 "/>
  <path fill="#80699b" d="M239.025208 109.249193 L239.025208 435.6 L262.883679 435.6 L262.883679 109.249193 "/>
  <path fill="#80699b" d="M519.317396 140.864254 L519.317396 435.6 L543.175867 435.6 L543.175867 140.864254 "/>
  <path fill="#80699b" d="M799.609583 144.478104 L799.609583 435.6 L823.468054 435.6 L823.468054 144.478104 "/>
  <path fill="#80699b" d="M1079.901771 160.312553 L1079.901771 435.6 L1103.760242 435.6 L1103.760242 160.312553 "/>
  <path fill="#3d96ae" d="M270.417933 106.227035 L270.417933 435.6 L294.276404 435.6 L294.276404 106.227035 "/>
  <path fill="#3d96ae" d="M550.710121 136.938079 L550.710121 435.6 L574.568592 435.6 L574.568592 136.938079 "/>
  <path fill="#3d96ae" d="M831.002308 147.976171 L831.002308 435.6 L854.860779 435.6 L854.860779 147.976171 "/>
  <path fill="#3d96ae" d="M1111.294496 170.143488 L1111.294496 435.6 L1135.152967 435.6 L1135.152967 170.143488 "/>
</svg>