<svg xmlns="http://www.w3.org/2000/svg" width="2048.000000" height="800.000000">
  <rect width="2048.000000" height="800.000000" fill="#ffffffff"/>
  <path d="M301.992 549.733 L449.349 516.107 L596.706 428.16 L744.063 323.4 L891.42 240.627 L1038.78 196.653 L1186.13 183.72 L1333.49 188.893 L1480.85 240.627 L1628.21 328.573 L1775.56 437.213 L1922.92 521.28 " fill="none" stroke-width="5.000000" stroke="#aa4643ff"/>
  <path d="M301.992 556.4 C298.31 556.4 295.326 553.415 295.326 549.733 C295.326 546.051 298.31 543.067 301.992 543.067 C305.674 543.067 308.659 546.051 308.659 549.733 C308.659 553.415 305.674 556.4 301.992 556.4 Z" fill="#aa4643ff"/>
  <path d="M449.349 522.773 C445.667 522.773 442.683 519.789 442.683 516.107 C442.683 512.425 445.667 509.44 449.349 509.44 C453.031 509.44 456.016 512.425 456.016 516.107 C456.016 519.789 453.031 522.773 449.349 522.773 Z" fill="#aa4643ff"/>
  <path d="M596.706 434.827 C593.024 434.827 590.04 431.842 590.04 428.16 C590.04 424.478 593.024 421.493 596.706 421.493 C600.388 421.493 603.373 424.478 603.373 428.16 C603.373 431.842 600.388 434.827 596.706 434.827 Z" fill="#aa4643ff"/>
  <path d="M744.063 330.067 C740.381 330.067 737.397 327.082 737.397 323.4 C737.397 319.718 740.381 316.733 744.063 316.733 C747.745 316.733 750.73 319.718 750.73 323.4 C750.73 327.082 747.745 330.067 744.063 330.067 Z" fill="#aa4643ff"/>
  <path d="M891.42 247.293 C887.738 247.293 884.754 244.309 884.754 240.627 C884.754 236.945 887.738 233.96 891.42 233.96 C895.102 233.96 898.087 236.945 898.087 240.627 C898.087 244.309 895.102 247.293 891.42 247.293 Z" fill="#aa4643ff"/>
  <path d="M1038.78 203.32 C1035.1 203.32 1032.11 200.335 1032.11 196.653 C1032.11 192.971 1035.1 189.987 1038.78 189.987 C1042.46 189.987 1045.44 192.971 1045.44 196.653 C1045.44 200.335 1042.46 203.32 1038.78 203.32 Z" fill="#aa4643ff"/>
  <path d="M1186.13 190.387 C1182.45 190.387 1179.47 187.402 1179.47 183.72 C1179.47 180.038 1182.45 177.053 1186.13 177.053 C1189.82 177.053 1192.8 180.038 1192.8 183.72 C1192.8 187.402 1189.82 190.387 1186.13 190.387 Z" fill="#aa4643ff"/>
  <path d="M1333.49 195.56 C1329.81 195.56 1326.82 192.575 1326.82 188.893 C1326.82 185.211 1329.81 182.227 1333.49 182.227 C1337.17 182.227 1340.16 185.211 1340.16 188.893 C1340.16 192.575 1337.17 195.56 1333.49 195.56 Z" fill="#aa4643ff"/>
  <path d="M1480.85 247.293 C1477.17 247.293 1474.18 244.309 1474.18 240.627 C1474.18 236.945 1477.17 233.96 1480.85 233.96 C1484.53 233.96 1487.51 236.945 1487.51 240.627 C1487.51 244.309 1484.53 247.293 1480.85 247.293 Z" fill="#aa4643ff"/>
  <path d="M1628.21 335.24 C1624.52 335.24 1621.54 332.255 1621.54 328.573 C1621.54 324.891 1624.52 321.907 1628.21 321.907 C1631.89 321.907 1634.87 324.891 1634.87 328.573 C1634.87 332.255 1631.89 335.24 1628.21 335.24 Z" fill="#aa4643ff"/>
  <path d="M1775.56 443.88 C1771.88 443.88 1768.9 440.895 1768.9 437.213 C1768.9 433.531 1771.88 430.547 1775.56 430.547 C1779.24 430.547 1782.23 433.531 1782.23 437.213 C1782.23 440.895 1779.24 443.88 1775.56 443.88 Z" fill="#aa4643ff"/>
  <path d="M1922.92 527.947 C1919.24 527.947 1916.25 524.962 1916.25 521.28 C1916.25 517.598 1919.24 514.613 1922.92 514.613 C1926.6 514.613 1929.59 517.598 1929.59 521.28 C1929.59 524.962 1926.6 527.947 1922.92 527.947 Z" fill="#aa4643ff"/>
  <path d="M301.992 593.707 L449.349 573.013 L596.706 499.293 L744.063 406.173 L891.42 307.88 L1038.78 269.08 L1186.13 231.573 L1333.49 254.853 L1480.85 335.04 L1628.21 419.107 L1775.56 483.773 L1922.92 544.56 " fill="none" stroke-width="5.000000" stroke="#89a54eff"/>
  <path d="M301.992 600.373 C298.31 600.373 295.326 597.389 295.326 593.707 C295.326 590.025 298.31 587.04 301.992 587.04 C305.674 587.04 308.659 590.025 308.659 593.707 C308.659 597.389 305.674 600.373 301.992 600.373 Z" fill="#89a54eff"/>
  <path d="M449.349 579.68 C445.667 579.68 442.683 576.695 442.683 573.013 C442.683 569.331 445.667 566.347 449.349 566.347 C453.031 566.347 456.016 569.331 456.016 573.013 C456.016 576.695 453.031 579.68 449.349 579.68 Z" fill="#89a54eff"/>
  <path d="M596.706 505.96 C593.024 505.96 590.04 502.975 590.04 499.293 C590.04 495.611 593.024 492.627 596.706 492.627 C600.388 492.627 603.373 495.611 603.373 499.293 C603.373 502.975 600.388 505.96 596.706 505.96 Z" fill="#89a54eff"/>
  <path d="M744.063 412.84 C740.381 412.84 737.397 409.855 737.397 406.173 C737.397 402.491 740.381 399.507 744.063 399.507 C747.745 399.507 750.73 402.491 750.73 406.173 C750.73 409.855 747.745 412.84 744.063 412.84 Z" fill="#89a54eff"/>
  <path d="M891.42 314.547 C887.738 314.547 884.754 311.562 884.754 307.88 C884.754 304.198 887.738 301.213 891.42 301.213 C895.102 301.213 898.087 304.198 898.087 307.88 C898.087 311.562 895.102 314.547 891.42 314.547 Z" fill="#89a54eff"/>
  <path d="M1038.78 275.747 C1035.1 275.747 1032.11 272.762 1032.11 269.08 C1032.11 265.398 1035.1 262.413 1038.78 262.413 C1042.46 262.413 1045.44 265.398 1045.44 269.08 C1045.44 272.762 1042.46 275.747 1038.78 275.747 Z" fill="#89a54eff"/>
  <path d="M1186.13 238.24 C1182.45 238.24 1179.47 235.255 1179.47 231.573 C1179.47 227.891 1182.45 224.907 1186.13 224.907 C1189.82 224.907 1192.8 227.891 1192.8 231.573 C1192.8 235.255 1189.82 238.24 1186.13 238.24 Z" fill="#89a54eff"/>
  <path d="M1333.49 261.52 C1329.81 261.52 1326.82 258.535 1326.82 254.853 C1326.82 251.171 1329.81 248.187 1333.49 248.187 C1337.17 248.187 1340.16 251.171 1340.16 254.853 C1340.16 258.535 1337.17 261.52 1333.49 261.52 Z" fill="#89a54eff"/>
  <path d="M1480.85 341.707 C1477.17 341.707 1474.18 338.722 1474.18 335.04 C1474.18 331.358 1477.17 328.373 1480.85 328.373 C1484.53 328.373 1487.51 331.358 1487.51 335.04 C1487.51 338.722 1484.53 341.707 1480.85 341.707 Z" fill="#89a54eff"/>
  <path d="M1628.21 425.773 C1624.52 425.773 1621.54 422.789 1621.54 419.107 C1621.54 415.425 1624.52 412.44 1628.21 412.44 C1631.89 412.44 1634.87 415.425 1634.87 419.107 C1634.87 422.789 1631.89 425.773 1628.21 425.773 Z" fill="#89a54eff"/>
  <path d="M1775.56 490.44 C1771.88 490.44 1768.9 487.455 1768.9 483.773 C1768.9 480.091 1771.88 477.107 1775.56 477.107 C1779.24 477.107 1782.23 480.091 1782.23 483.773 C1782.23 487.455 1779.24 490.44 1775.56 490.44 Z" fill="#89a54eff"/>
  <path d="M1922.92 551.227 C1919.24 551.227 1916.25 548.242 1916.25 544.56 C1916.25 540.878 1919.24 537.893 1922.92 537.893 C1926.6 537.893 1929.59 540.878 1929.59 544.56 C1929.59 548.242 1926.6 551.227 1922.92 551.227 Z" fill="#89a54eff"/>
  <path d="M301.992 329.867 L449.349 329.867 L596.706 304 L744.063 252.267 L891.42 187.6 L1038.78 161.733 L1186.13 135.867 L1333.49 135.867 L1480.85 174.667 L1628.21 200.533 L1775.56 265.2 L1922.92 316.933 " fill="none" stroke-width="5.000000" stroke="#4572a7ff"/>
  <path d="M301.992 336.533 C298.31 336.533 295.326 333.549 295.326 329.867 C295.326 326.185 298.31 323.2 301.992 323.2 C305.674 323.2 308.659 326.185 308.659 329.867 C308.659 333.549 305.674 336.533 301.992 336.533 Z" fill="#4572a7ff"/>
  <path d="M449.349 336.533 C445.667 336.533 442.683 333.549 442.683 329.867 C442.683 326.185 445.667 323.2 449.349 323.2 C453.031 323.2 456.016 326.185 456.016 329.867 C456.016 333.549 453.031 336.533 449.349 336.533 Z" fill="#4572a7ff"/>
  <path d="M596.706 310.667 C593.024 310.667 590.04 307.682 590.04 304 C590.04 300.318 593.024 297.333 596.706 297.333 C600.388 297.333 603.373 300.318 603.373 304 C603.373 307.682 600.388 310.667 596.706 310.667 Z" fill="#4572a7ff"/>
  <path d="M744.063 258.933 C740.381 258.933 737.397 255.949 737.397 252.267 C737.397 248.585 740.381 245.6 744.063 245.6 C747.745 245.6 750.73 248.585 750.73 252.267 C750.73 255.949 747.745 258.933 744.063 258.933 Z" fill="#4572a7ff"/>
  <path d="M891.42 194.267 C887.738 194.267 884.754 191.282 884.754 187.6 C884.754 183.918 887.738 180.933 891.42 180.933 C895.102 180.933 898.087 183.918 898.087 187.6 C898.087 191.282 895.102 194.267 891.42 194.267 Z" fill="#4572a7ff"/>
  <path d="M1038.78 168.4 C1035.1 168.4 1032.11 165.415 1032.11 161.733 C1032.11 158.051 1035.1 155.067 1038.78 155.067 C1042.46 155.067 1045.44 158.051 1045.44 161.733 C1045.44 165.415 1042.46 168.4 1038.78 168.4 Z" fill="#4572a7ff"/>
  <path d="M1186.13 142.533 C1182.45 142.533 1179.47 139.549 1179.47 135.867 C1179.47 132.185 1182.45 129.2 1186.13 129.2 C1189.82 129.2 1192.8 132.185 1192.8 135.867 C1192.8 139.549 1189.82 142.533 1186.13 142.533 Z" fill="#4572a7ff"/>
  <path d="M1333.49 142.533 C1329.81 142.533 1326.82 139.549 1326.82 135.867 C1326.82 132.185 1329.81 129.2 1333.49 129.2 C1337.17 129.2 1340.16 132.185 1340.16 135.867 C1340.16 139.549 1337.17 142.533 1333.49 142.533 Z" fill="#4572a7ff"/>
  <path d="M1480.85 181.333 C1477.17 181.333 1474.18 178.349 1474.18 174.667 C1474.18 170.985 1477.17 168 1480.85 168 C1484.53 168 1487.51 170.985 1487.51 174.667 C1487.51 178.349 1484.53 181.333 1480.85 181.333 Z" fill="#4572a7ff"/>
  <path d="M1628.21 207.2 C1624.52 207.2 1621.54 204.215 1621.54 200.533 C1621.54 196.851 1624.52 193.867 1628.21 193.867 C1631.89 193.867 1634.87 196.851 1634.87 200.533 C1634.87 204.215 1631.89 207.2 1628.21 207.2 Z" fill="#4572a7ff"/>
  <path d="M1775.56 271.867 C1771.88 271.867 1768.9 268.882 1768.9 265.2 C1768.9 261.518 1771.88 258.533 1775.56 258.533 C1779.24 258.533 1782.23 261.518 1782.23 265.2 C1782.23 268.882 1779.24 271.867 1775.56 271.867 Z" fill="#4572a7ff"/>
  <path d="M1922.92 323.6 C1919.24 323.6 1916.25 320.615 1916.25 316.933 C1916.25 313.251 1919.24 310.267 1922.92 310.267 C1926.6 310.267 1929.59 313.251 1929.59 316.933 C1929.59 320.615 1926.6 323.6 1922.92 323.6 Z" fill="#4572a7ff"/>
  <text x="863.268229" y="640.166667" fill="#000000ff" font-size="36.666667" font-family="Arial,Helvetica,'Helvetica Neue',sans-serif" font-weight="500.000000">Москва</text>
  <path d="M828.435 640.917 C820.841 640.917 814.685 634.761 814.685 627.167 C814.685 619.573 820.841 613.417 828.435 613.417 C836.029 613.417 842.185 619.573 842.185 627.167 C842.185 634.761 836.029 640.917 828.435 640.917 Z" fill="#89a54eff"/>
  <text x="1080.138021" y="640.166667" fill="#000000ff" font-size="36.666667" font-family="Arial,Helvetica,'Helvetica Neue',sans-serif" font-weight="500.000000">תל אביב</text>
  <path d="M1045.3 640.917 C1037.71 640.917 1031.55 634.761 1031.55 627.167 C1031.55 619.573 1037.71 613.417 1045.3 613.417 C1052.9 613.417 1059.05 619.573 1059.05 627.167 C1059.05 634.761 1052.9 640.917 1045.3 640.917 Z" fill="#4572a7ff"/>
  <text x="1291.960938" y="641.666667" fill="#000000ff" font-size="36.666667" font-family="Arial,Helvetica,'Helvetica Neue',sans-serif" font-weight="500.000000">北京市</text>
  <path d="M1257.13 640.917 C1249.53 640.917 1243.38 634.761 1243.38 627.167 C1243.38 619.573 1249.53 613.417 1257.13 613.417 C1264.72 613.417 1270.88 619.573 1270.88 627.167 C1270.88 634.761 1264.72 640.917 1257.13 640.917 Z" fill="#aa4643ff"/>
  <path d="M213.578 692 L2011.33 692 " fill="none" stroke-width="3.333333" stroke="#000000ff"/>
  <path d="M301.992 692 L301.992 678.667 " fill="none" stroke-width="3.333333" stroke="#000000ff"/>
  <path d="M449.349 692 L449.349 678.667 " fill="none" stroke-width="3.333333" stroke="#000000ff"/>
  <path d="M596.706 692 L596.706 678.667 " fill="none" stroke-width="3.333333" stroke="#000000ff"/>
  <path d="M744.063 692 L744.063 678.667 " fill="none" stroke-width="3.333333" stroke="#000000ff"/>
  <path d="M891.42 692 L891.42 678.667 " fill="none" stroke-width="3.333333" stroke="#000000ff"/>
  <path d="M1038.78 692 L1038.78 678.667 " fill="none" stroke-width="3.333333" stroke="#000000ff"/>
  <path d="M1186.13 692 L1186.13 678.667 " fill="none" stroke-width="3.333333" stroke="#000000ff"/>
  <path d="M1333.49 692 L1333.49 678.667 " fill="none" stroke-width="3.333333" stroke="#000000ff"/>
  <path d="M1480.85 692 L1480.85 678.667 " fill="none" stroke-width="3.333333" stroke="#000000ff"/>
  <path d="M1628.21 692 L1628.21 678.667 " fill="none" stroke-width="3.333333" stroke="#000000ff"/>
  <path d="M1775.56 692 L1775.56 678.667 " fill="none" stroke-width="3.333333" stroke="#000000ff"/>
  <path d="M1922.92 692 L1922.92 678.667 " fill="none" stroke-width="3.333333" stroke="#000000ff"/>
  <text x="272.429816" y="755.333333" fill="#000000ff" font-size="36.666667" font-family="Arial,Helvetica,'Helvetica Neue',sans-serif" font-weight="500.000000">Jan</text>
  <text x="417.755550" y="755.333333" fill="#000000ff" font-size="36.666667" font-family="Arial,Helvetica,'Helvetica Neue',sans-serif" font-weight="500.000000">Feb</text>
  <text x="565.128159" y="755.333333" fill="#000000ff" font-size="36.666667" font-family="Arial,Helvetica,'Helvetica Neue',sans-serif" font-weight="500.000000">Mar</text>
  <text x="715.532018" y="755.333333" fill="#000000ff" font-size="36.666667" font-family="Arial,Helvetica,'Helvetica Neue',sans-serif" font-weight="500.000000">Apr</text>
  <text x="856.779628" y="755.333333" fill="#000000ff" font-size="36.666667" font-family="Arial,Helvetica,'Helvetica Neue',sans-serif" font-weight="500.000000">May</text>
  <text x="1009.214737" y="755.333333" fill="#000000ff" font-size="36.666667" font-family="Arial,Helvetica,'Helvetica Neue',sans-serif" font-weight="500.000000">Jun</text>
  <text x="1162.696721" y="755.333333" fill="#000000ff" font-size="36.666667" font-family="Arial,Helvetica,'Helvetica Neue',sans-serif" font-weight="500.000000">Jul</text>
  <text x="1300.874018" y="755.333333" fill="#000000ff" font-size="36.666667" font-family="Arial,Helvetica,'Helvetica Neue',sans-serif" font-weight="500.000000">Aug</text>
  <text x="1448.231002" y="755.333333" fill="#000000ff" font-size="36.666667" font-family="Arial,Helvetica,'Helvetica Neue',sans-serif" font-weight="500.000000">Sep</text>
  <text x="1599.673924" y="755.333333" fill="#000000ff" font-size="36.666667" font-family="Arial,Helvetica,'Helvetica Neue',sans-serif" font-weight="500.000000">Oct</text>
  <text x="1742.952783" y="755.333333" fill="#000000ff" font-size="36.666667" font-family="Arial,Helvetica,'Helvetica Neue',sans-serif" font-weight="500.000000">Nov</text>
  <text x="1890.309768" y="755.333333" fill="#000000ff" font-size="36.666667" font-family="Arial,Helvetica,'Helvetica Neue',sans-serif" font-weight="500.000000">Dec</text>
  <path d="M213.578 692 L213.578 110 " fill="none" stroke-width="3.333333" stroke="#000000ff"/>
  <path d="M213.578 627.333 L226.911 627.333 " fill="none" stroke-width="3.333333" stroke="#000000ff"/>
  <path d="M213.578 562.667 L226.911 562.667 " fill="none" stroke-width="3.333333" stroke="#000000ff"/>
  <path d="M213.578 498 L226.911 498 " fill="none" stroke-width="3.333333" stroke="#000000ff"/>
  <path d="M213.578 433.333 L226.911 433.333 " fill="none" stroke-width="3.333333" stroke="#000000ff"/>
  <path d="M213.578 368.667 L226.911 368.667 " fill="none" stroke-width="3.333333" stroke="#000000ff"/>
  <path d="M213.578 304 L226.911 304 " fill="none" stroke-width="3.333333" stroke="#000000ff"/>
  <path d="M213.578 239.333 L226.911 239.333 " fill="none" stroke-width="3.333333" stroke="#000000ff"/>
  <path d="M213.578 174.667 L226.911 174.667 " fill="none" stroke-width="3.333333" stroke="#000000ff"/>
  <path d="M213.578 110 L226.911 110 " fill="none" stroke-width="3.333333" stroke="#000000ff"/>
  <text x="100.666667" y="640.333333" fill="#000000ff" font-size="36.666667" font-family="Arial,Helvetica,'Helvetica Neue',sans-serif" font-weight="500.000000">-10.0</text>
  <text x="121.057292" y="575.666667" fill="#000000ff" font-size="36.666667" font-family="Arial,Helvetica,'Helvetica Neue',sans-serif" font-weight="500.000000">-5.0</text>
  <text x="133.276042" y="511.000000" fill="#000000ff" font-size="36.666667" font-family="Arial,Helvetica,'Helvetica Neue',sans-serif" font-weight="500.000000">0.0</text>
  <text x="133.276042" y="446.333333" fill="#000000ff" font-size="36.666667" font-family="Arial,Helvetica,'Helvetica Neue',sans-serif" font-weight="500.000000">5.0</text>
  <text x="112.885417" y="381.666667" fill="#000000ff" font-size="36.666667" font-family="Arial,Helvetica,'Helvetica Neue',sans-serif" font-weight="500.000000">10.0</text>
  <text x="112.885417" y="317.000000" fill="#000000ff" font-size="36.666667" font-family="Arial,Helvetica,'Helvetica Neue',sans-serif" font-weight="500.000000">15.0</text>
  <text x="112.885417" y="252.333333" fill="#000000ff" font-size="36.666667" font-family="Arial,Helvetica,'Helvetica Neue',sans-serif" font-weight="500.000000">20.0</text>
  <text x="112.885417" y="187.666667" fill="#000000ff" font-size="36.666667" font-family="Arial,Helvetica,'Helvetica Neue',sans-serif" font-weight="500.000000">25.0</text>
  <text x="112.885417" y="123.000000" fill="#000000ff" font-size="36.666667" font-family="Arial,Helvetica,'Helvetica Neue',sans-serif" font-weight="500.000000">30.0</text>
  <text x="-83.153646" y="414.000000" fill="#000000ff" font-size="36.666667" font-family="Arial,Helvetica,'Helvetica Neue',sans-serif" font-weight="500.000000" transform="matrix(6.12323e-17 -1 1 6.12323e-17 -343.333 458.667)">Temperature (°C)</text>
</svg>