<svg xmlns="http://www.w3.org/2000/svg" width="900.000000" height="200.000000" viewBox="0 0 900 200">
  <rect width="900.000000" height="200.000000" fill="#ffffff"/>
  <path stroke-width="2.000000" stroke="#aa4643" fill="none" d="M125.918 121.15 L191.384 113.007 L256.851 91.7102 L322.318 66.3422 L387.785 46.2984 L453.252 35.6501 L518.719 32.5182 L584.186 33.771 L649.653 46.2984 L715.119 67.595 L780.586 93.9025 L846.053 114.26 "/>
  <path fill="#aa4643" d="M127.251 121.15 M124.584 121.15 a1.33333 1.33333 0 1 0 2.66667 0 a1.33333 1.33333 0 1 0 -2.66667 0 "/>
  <path fill="#aa4643" d="M192.718 113.007 M190.051 113.007 a1.33333 1.33333 0 1 0 2.66667 0 a1.33333 1.33333 0 1 0 -2.66667 0 "/>
  <path fill="#aa4643" d="M258.185 91.7102 M255.518 91.7102 a1.33333 1.33333 0 1 0 2.66667 0 a1.33333 1.33333 0 1 0 -2.66667 0 "/>
  <path fill="#aa4643" d="M323.652 66.3422 M320.985 66.3422 a1.33333 1.33333 0 1 0 2.66667 0 a1.33333 1.33333 0 1 0 -2.66667 0 "/>
  <path fill="#aa4643" d="M389.118 46.2984 M386.452 46.2984 a1.33333 1.33333 0 1 0 2.66667 0 a1.33333 1.33333 0 1 0 -2.66667 0 "/>
  <path fill="#aa4643" d="M454.585 35.6501 M451.919 35.6501 a1.33333 1.33333 0 1 0 2.66667 0 a1.33333 1.33333 0 1 0 -2.66667 0 "/>
  <path fill="#aa4643" d="M520.052 32.5182 M517.386 32.5182 a1.33333 1.33333 0 1 0 2.66667 0 a1.33333 1.33333 0 1 0 -2.66667 0 "/>
  <path fill="#aa4643" d="M585.519 33.771 M582.852 33.771 a1.33333 1.33333 0 1 0 2.66667 0 a1.33333 1.33333 0 1 0 -2.66667 0 "/>
  <path fill="#aa4643" d="M650.986 46.2984 M648.319 46.2984 a1.33333 1.33333 0 1 0 2.66667 0 a1.33333 1.33333 0 1 0 -2.66667 0 "/>
  <path fill="#aa4643" d="M716.453 67.595 M713.786 67.595 a1.33333 1.33333 0 1 0 2.66667 0 a1.33333 1.33333 0 1 0 -2.66667 0 "/>
  <path fill="#aa4643" d="M781.92 93.9025 M779.253 93.9025 a1.33333 1.33333 0 1 0 2.66667 0 a1.33333 1.33333 0 1 0 -2.66667 0 "/>
  <path fill="#aa4643" d="M847.387 114.26 M844.72 114.26 a1.33333 1.33333 0 1 0 2.66667 0 a1.33333 1.33333 0 1 0 -2.66667 0 "/>
  <path stroke-width="2.000000" stroke="#89a54e" fill="none" d="M125.918 131.798 L191.384 126.787 L256.851 108.935 L322.318 86.3861 L387.785 62.584 L453.252 53.1884 L518.719 44.1061 L584.186 49.7434 L649.653 69.1609 L715.119 89.5179 L780.586 105.177 L846.053 119.897 "/>
  <path fill="#89a54e" d="M127.251 131.798 M124.584 131.798 a1.33333 1.33333 0 1 0 2.66667 0 a1.33333 1.33333 0 1 0 -2.66667 0 "/>
  <path fill="#89a54e" d="M192.718 126.787 M190.051 126.787 a1.33333 1.33333 0 1 0 2.66667 0 a1.33333 1.33333 0 1 0 -2.66667 0 "/>
  <path fill="#89a54e" d="M258.185 108.935 M255.518 108.935 a1.33333 1.33333 0 1 0 2.66667 0 a1.33333 1.33333 0 1 0 -2.66667 0 "/>
  <path fill="#89a54e" d="M323.652 86.3861 M320.985 86.3861 a1.33333 1.33333 0 1 0 2.66667 0 a1.33333 1.33333 0 1 0 -2.66667 0 "/>
  <path fill="#89a54e" d="M389.118 62.584 M386.452 62.584 a1.33333 1.33333 0 1 0 2.66667 0 a1.33333 1.33333 0 1 0 -2.66667 0 "/>
  <path fill="#89a54e" d="M454.585 53.1884 M451.919 53.1884 a1.33333 1.33333 0 1 0 2.66667 0 a1.33333 1.33333 0 1 0 -2.66667 0 "/>
  <path fill="#89a54e" d="M520.052 44.1061 M517.386 44.1061 a1.33333 1.33333 0 1 0 2.66667 0 a1.33333 1.33333 0 1 0 -2.66667 0 "/>
  <path fill="#89a54e" d="M585.519 49.7434 M582.852 49.7434 a1.33333 1.33333 0 1 0 2.66667 0 a1.33333 1.33333 0 1 0 -2.66667 0 "/>
  <path fill="#89a54e" d="M650.986 69.1609 M648.319 69.1609 a1.33333 1.33333 0 1 0 2.66667 0 a1.33333 1.33333 0 1 0 -2.66667 0 "/>
  <path fill="#89a54e" d="M716.453 89.5179 M713.786 89.5179 a1.33333 1.33333 0 1 0 2.66667 0 a1.33333 1.33333 0 1 0 -2.66667 0 "/>
  <path fill="#89a54e" d="M781.92 105.177 M779.253 105.177 a1.33333 1.33333 0 1 0 2.66667 0 a1.33333 1.33333 0 1 0 -2.66667 0 "/>
  <path fill="#89a54e" d="M847.387 119.897 M844.72 119.897 a1.33333 1.33333 0 1 0 2.66667 0 a1.33333 1.33333 0 1 0 -2.66667 0 "/>
  <path stroke-width="2.000000" stroke="#4572a7" fill="none" d="M125.918 67.9081 L191.384 67.9081 L256.851 61.6444 L322.318 49.117 L387.785 33.4578 L453.252 27.1941 L518.719 20.9304 L584.186 20.9304 L649.653 30.3259 L715.119 36.5896 L780.586 52.2489 L846.053 64.7763 "/>
  <path fill="#4572a7" d="M127.251 67.9081 M124.584 67.9081 a1.33333 1.33333 0 1 0 2.66667 0 a1.33333 1.33333 0 1 0 -2.66667 0 "/>
  <path fill="#4572a7" d="M192.718 67.9081 M190.051 67.9081 a1.33333 1.33333 0 1 0 2.66667 0 a1.33333 1.33333 0 1 0 -2.66667 0 "/>
  <path fill="#4572a7" d="M258.185 61.6444 M255.518 61.6444 a1.33333 1.33333 0 1 0 2.66667 0 a1.33333 1.33333 0 1 0 -2.66667 0 "/>
  <path fill="#4572a7" d="M323.652 49.117 M320.985 49.117 a1.33333 1.33333 0 1 0 2.66667 0 a1.33333 1.33333 0 1 0 -2.66667 0 "/>
  <path fill="#4572a7" d="M389.118 33.4578 M386.452 33.4578 a1.33333 1.33333 0 1 0 2.66667 0 a1.33333 1.33333 0 1 0 -2.66667 0 "/>
  <path fill="#4572a7" d="M454.585 27.1941 M451.919 27.1941 a1.33333 1.33333 0 1 0 2.66667 0 a1.33333 1.33333 0 1 0 -2.66667 0 "/>
  <path fill="#4572a7" d="M520.052 20.9304 M517.386 20.9304 a1.33333 1.33333 0 1 0 2.66667 0 a1.33333 1.33333 0 1 0 -2.66667 0 "/>
  <path fill="#4572a7" d="M585.519 20.9304 M582.852 20.9304 a1.33333 1.33333 0 1 0 2.66667 0 a1.33333 1.33333 0 1 0 -2.66667 0 "/>
  <path fill="#4572a7" d="M650.986 30.3259 M648.319 30.3259 a1.33333 1.33333 0 1 0 2.66667 0 a1.33333 1.33333 0 1 0 -2.66667 0 "/>
  <path fill="#4572a7" d="M716.453 36.5896 M713.786 36.5896 a1.33333 1.33333 0 1 0 2.66667 0 a1.33333 1.33333 0 1 0 -2.66667 0 "/>
  <path fill="#4572a7" d="M781.92 52.2489 M779.253 52.2489 a1.33333 1.33333 0 1 0 2.66667 0 a1.33333 1.33333 0 1 0 -2.66667 0 "/>
  <path fill="#4572a7" d="M847.387 64.7763 M844.72 64.7763 a1.33333 1.33333 0 1 0 2.66667 0 a1.33333 1.33333 0 1 0 -2.66667 0 "/>
  <text x="386.283854" y="134.466667" fill="#000000" font-size="14.666667" font-family="Arial,Helvetica,'Helvetica Neue',sans-serif" font-weight="500.000000">Москва</text>
  <path fill="#89a54e" d="M377.851 129.467 M366.851 129.467 a5.5 5.5 0 1 0 11 0 a5.5 5.5 0 1 0 -11 0 "/>
  <text x="473.044271" y="134.466667" fill="#000000" font-size="14.666667" font-family="Arial,Helvetica,'Helvetica Neue',sans-serif" font-weight="500.000000">תל אביב</text>
  <path fill="#4572a7" d="M464.611 129.467 M453.611 129.467 a5.5 5.5 0 1 0 11 0 a5.5 5.5 0 1 0 -11 0 "/>
  <text x="557.804688" y="135.466667" fill="#000000" font-size="14.666667" font-family="Arial,Helvetica,'Helvetica Neue',sans-serif" font-weight="500.000000">北京市</text>
  <path fill="#aa4643" d="M549.371 129.467 M538.371 129.467 a5.5 5.5 0 1 0 11 0 a5.5 5.5 0 1 0 -11 0 "/>
  <path stroke-width="1.333333" stroke="#000000" fill="none" d="M86.6375 155.6 L885.333 155.6 "/>
  <path stroke-width="1.333333" stroke="#000000" fill="none" d="M125.918 150.267 L125.918 155.6 "/>
  <path stroke-width="1.333333" stroke="#000000" fill="none" d="M191.384 150.267 L191.384 155.6 "/>
  <path stroke-width="1.333333" stroke="#000000" fill="none" d="M256.851 150.267 L256.851 155.6 "/>
  <path stroke-width="1.333333" stroke="#000000" fill="none" d="M322.318 150.267 L322.318 155.6 "/>
  <path stroke-width="1.333333" stroke="#000000" fill="none" d="M387.785 150.267 L387.785 155.6 "/>
  <path stroke-width="1.333333" stroke="#000000" fill="none" d="M453.252 150.267 L453.252 155.6 "/>
  <path stroke-width="1.333333" stroke="#000000" fill="none" d="M518.719 150.267 L518.719 155.6 "/>
  <path stroke-width="1.333333" stroke="#000000" fill="none" d="M584.186 150.267 L584.186 155.6 "/>
  <path stroke-width="1.333333" stroke="#000000" fill="none" d="M649.653 150.267 L649.653 155.6 "/>
  <path stroke-width="1.333333" stroke="#000000" fill="none" d="M715.119 150.267 L715.119 155.6 "/>
  <path stroke-width="1.333333" stroke="#000000" fill="none" d="M780.586 150.267 L780.586 155.6 "/>
  <path stroke-width="1.333333" stroke="#000000" fill="none" d="M846.053 150.267 L846.053 155.6 "/>
  <text x="114.089498" y="181.333333" fill="#000000" font-size="14.666667" font-family="Arial,Helvetica,'Helvetica Neue',sans-serif" font-weight="500.000000">Jan</text>
  <text x="178.743870" y="181.333333" fill="#000000" font-size="14.666667" font-family="Arial,Helvetica,'Helvetica Neue',sans-serif" font-weight="500.000000">Feb</text>
  <text x="244.218554" y="181.333333" fill="#000000" font-size="14.666667" font-family="Arial,Helvetica,'Helvetica Neue',sans-serif" font-weight="500.000000">Mar</text>
  <text x="310.904175" y="181.333333" fill="#000000" font-size="14.666667" font-family="Arial,Helvetica,'Helvetica Neue',sans-serif" font-weight="500.000000">Apr</text>
  <text x="373.925734" y="181.333333" fill="#000000" font-size="14.666667" font-family="Arial,Helvetica,'Helvetica Neue',sans-serif" font-weight="500.000000">May</text>
  <text x="441.423856" y="181.333333" fill="#000000" font-size="14.666667" font-family="Arial,Helvetica,'Helvetica Neue',sans-serif" font-weight="500.000000">Jun</text>
  <text x="509.336040" y="181.333333" fill="#000000" font-size="14.666667" font-family="Arial,Helvetica,'Helvetica Neue',sans-serif" font-weight="500.000000">Jul</text>
  <text x="571.138849" y="181.333333" fill="#000000" font-size="14.666667" font-family="Arial,Helvetica,'Helvetica Neue',sans-serif" font-weight="500.000000">Aug</text>
  <text x="636.605721" y="181.333333" fill="#000000" font-size="14.666667" font-family="Arial,Helvetica,'Helvetica Neue',sans-serif" font-weight="500.000000">Sep</text>
  <text x="703.705405" y="181.333333" fill="#000000" font-size="14.666667" font-family="Arial,Helvetica,'Helvetica Neue',sans-serif" font-weight="500.000000">Oct</text>
  <text x="767.539464" y="181.333333" fill="#000000" font-size="14.666667" font-family="Arial,Helvetica,'Helvetica Neue',sans-serif" font-weight="500.000000">Nov</text>
  <text x="833.006335" y="181.333333" fill="#000000" font-size="14.666667" font-family="Arial,Helvetica,'Helvetica Neue',sans-serif" font-weight="500.000000">Dec</text>
  <path stroke-width="1.333333" stroke="#000000" fill="none" d="M86.6375 14.6667 L86.6375 155.6 "/>
  <path stroke-width="1.333333" stroke="#000000" fill="none" d="M86.6375 139.941 L91.9708 139.941 "/>
  <path stroke-width="1.333333" stroke="#000000" fill="none" d="M86.6375 124.281 L91.9708 124.281 "/>
  <path stroke-width="1.333333" stroke="#000000" fill="none" d="M86.6375 108.622 L91.9708 108.622 "/>
  <path stroke-width="1.333333" stroke="#000000" fill="none" d="M86.6375 92.963 L91.9708 92.963 "/>
  <path stroke-width="1.333333" stroke="#000000" fill="none" d="M86.6375 77.3037 L91.9708 77.3037 "/>
  <path stroke-width="1.333333" stroke="#000000" fill="none" d="M86.6375 61.6444 L91.9708 61.6444 "/>
  <path stroke-width="1.333333" stroke="#000000" fill="none" d="M86.6375 45.9852 L91.9708 45.9852 "/>
  <path stroke-width="1.333333" stroke="#000000" fill="none" d="M86.6375 30.3259 L91.9708 30.3259 "/>
  <path stroke-width="1.333333" stroke="#000000" fill="none" d="M86.6375 14.6667 L91.9708 14.6667 "/>
  <text x="41.466667" y="144.940741" fill="#000000" font-size="14.666667" font-family="Arial,Helvetica,'Helvetica Neue',sans-serif" font-weight="500.000000">-10.0</text>
  <text x="49.622917" y="129.281481" fill="#000000" font-size="14.666667" font-family="Arial,Helvetica,'Helvetica Neue',sans-serif" font-weight="500.000000">-5.0</text>
  <text x="54.513542" y="113.622222" fill="#000000" font-size="14.666667" font-family="Arial,Helvetica,'Helvetica Neue',sans-serif" font-weight="500.000000">0.0</text>
  <text x="54.513542" y="97.962963" fill="#000000" font-size="14.666667" font-family="Arial,Helvetica,'Helvetica Neue',sans-serif" font-weight="500.000000">5.0</text>
  <text x="46.357292" y="82.303704" fill="#000000" font-size="14.666667" font-family="Arial,Helvetica,'Helvetica Neue',sans-serif" font-weight="500.000000">10.0</text>
  <text x="46.357292" y="66.644444" fill="#000000" font-size="14.666667" font-family="Arial,Helvetica,'Helvetica Neue',sans-serif" font-weight="500.000000">15.0</text>
  <text x="46.357292" y="50.985185" fill="#000000" font-size="14.666667" font-family="Arial,Helvetica,'Helvetica Neue',sans-serif" font-weight="500.000000">20.0</text>
  <text x="46.357292" y="35.325926" fill="#000000" font-size="14.666667" font-family="Arial,Helvetica,'Helvetica Neue',sans-serif" font-weight="500.000000">25.0</text>
  <text x="46.357292" y="19.666667" fill="#000000" font-size="14.666667" font-family="Arial,Helvetica,'Helvetica Neue',sans-serif" font-weight="500.000000">30.0</text>
  <text x="-32.677083" y="90.133333" fill="#000000" font-size="14.666667" font-family="Arial,Helvetica,'Helvetica Neue',sans-serif" font-weight="500.000000" transform="rotate(-90 23.6667 85.1333)">Temperature (°C)</text>
</svg>