<svg xmlns="http://www.w3.org/2000/svg" width="960.000000" height="240.000000" viewBox="0 0 960 240">
  <rect width="960.000000" height="240.000000" fill="#ffffffff"/>
  <path d="M60.4372 167.374 L136.721 165.203 L213.005 154.347 L289.29 134.083 L365.574 109.476 L441.858 85.5925 L518.142 72.5653 L594.426 75.4603 L670.71 92.8299 L746.995 121.055 L823.279 147.834 L899.563 160.861 " fill="none" stroke-width="2.000000" stroke="#4572a7ff"/>
  <path d="M63.7705 167.374 M57.1038 167.374 a3.33333 3.33333 0 1 0 6.66667 0 a3.33333 3.33333 0 1 0 -6.66667 0 " fill="#4572a7ff"/>
  <path d="M140.055 165.203 M133.388 165.203 a3.33333 3.33333 0 1 0 6.66667 0 a3.33333 3.33333 0 1 0 -6.66667 0 " fill="#4572a7ff"/>
  <path d="M216.339 154.347 M209.672 154.347 a3.33333 3.33333 0 1 0 6.66667 0 a3.33333 3.33333 0 1 0 -6.66667 0 " fill="#4572a7ff"/>
  <path d="M292.623 134.083 M285.956 134.083 a3.33333 3.33333 0 1 0 6.66667 0 a3.33333 3.33333 0 1 0 -6.66667 0 " fill="#4572a7ff"/>
  <path d="M368.907 109.476 M362.24 109.476 a3.33333 3.33333 0 1 0 6.66667 0 a3.33333 3.33333 0 1 0 -6.66667 0 " fill="#4572a7ff"/>
  <path d="M445.191 85.5925 M438.525 85.5925 a3.33333 3.33333 0 1 0 6.66667 0 a3.33333 3.33333 0 1 0 -6.66667 0 " fill="#4572a7ff"/>
  <path d="M521.475 72.5653 M514.809 72.5653 a3.33333 3.33333 0 1 0 6.66667 0 a3.33333 3.33333 0 1 0 -6.66667 0 " fill="#4572a7ff"/>
  <path d="M597.76 75.4603 M591.093 75.4603 a3.33333 3.33333 0 1 0 6.66667 0 a3.33333 3.33333 0 1 0 -6.66667 0 " fill="#4572a7ff"/>
  <path d="M674.044 92.8299 M667.377 92.8299 a3.33333 3.33333 0 1 0 6.66667 0 a3.33333 3.33333 0 1 0 -6.66667 0 " fill="#4572a7ff"/>
  <path d="M750.328 121.055 M743.661 121.055 a3.33333 3.33333 0 1 0 6.66667 0 a3.33333 3.33333 0 1 0 -6.66667 0 " fill="#4572a7ff"/>
  <path d="M826.612 147.834 M819.945 147.834 a3.33333 3.33333 0 1 0 6.66667 0 a3.33333 3.33333 0 1 0 -6.66667 0 " fill="#4572a7ff"/>
  <path d="M902.896 160.861 M896.23 160.861 a3.33333 3.33333 0 1 0 6.66667 0 a3.33333 3.33333 0 1 0 -6.66667 0 " fill="#4572a7ff"/>
  <text x="42.007471" y="150.841067" fill="#000000ff" font-size="14.666667" font-family="Arial,Helvetica,'Helvetica Neue',sans-serif" font-weight="500.000000">3.9°C</text>
  <text x="118.291624" y="148.669867" fill="#000000ff" font-size="14.666667" font-family="Arial,Helvetica,'Helvetica Neue',sans-serif" font-weight="500.000000">4.2°C</text>
  <text x="194.575777" y="137.813867" fill="#000000ff" font-size="14.666667" font-family="Arial,Helvetica,'Helvetica Neue',sans-serif" font-weight="500.000000">5.7°C</text>
  <text x="270.859930" y="117.549333" fill="#000000ff" font-size="14.666667" font-family="Arial,Helvetica,'Helvetica Neue',sans-serif" font-weight="500.000000">8.5°C</text>
  <text x="343.612833" y="92.942400" fill="#000000ff" font-size="14.666667" font-family="Arial,Helvetica,'Helvetica Neue',sans-serif" font-weight="500.000000">11.9°C</text>
  <text x="419.350111" y="69.059200" fill="#000000ff" font-size="14.666667" font-family="Arial,Helvetica,'Helvetica Neue',sans-serif" font-weight="500.000000">15.2°C</text>
  <text x="495.634264" y="56.032000" fill="#000000ff" font-size="14.666667" font-family="Arial,Helvetica,'Helvetica Neue',sans-serif" font-weight="500.000000">17.0°C</text>
  <text x="571.918417" y="58.926933" fill="#000000ff" font-size="14.666667" font-family="Arial,Helvetica,'Helvetica Neue',sans-serif" font-weight="500.000000">16.6°C</text>
  <text x="648.202570" y="76.296533" fill="#000000ff" font-size="14.666667" font-family="Arial,Helvetica,'Helvetica Neue',sans-serif" font-weight="500.000000">14.2°C</text>
  <text x="724.486723" y="104.522133" fill="#000000ff" font-size="14.666667" font-family="Arial,Helvetica,'Helvetica Neue',sans-serif" font-weight="500.000000">10.3°C</text>
  <text x="804.849001" y="131.300267" fill="#000000ff" font-size="14.666667" font-family="Arial,Helvetica,'Helvetica Neue',sans-serif" font-weight="500.000000">6.6°C</text>
  <text x="881.133154" y="144.327467" fill="#000000ff" font-size="14.666667" font-family="Arial,Helvetica,'Helvetica Neue',sans-serif" font-weight="500.000000">4.8°C</text>
  <text x="54.266667" y="46.266667" fill="#000000ff" font-size="14.666667" font-family="Arial,Helvetica,'Helvetica Neue',sans-serif" font-weight="500.000000">London - Average Temperature</text>
  <path d="M45.8333 41.2667 M34.8333 41.2667 a5.5 5.5 0 1 0 11 0 a5.5 5.5 0 1 0 -11 0 " fill="#4572a7ff"/>
  <path d="M14.6667 195.6 L945.333 195.6 " fill="none" stroke-width="1.333333" stroke="#000000ff"/>
  <path d="M60.4372 190.267 L60.4372 195.6 " fill="none" stroke-width="1.333333" stroke="#000000ff"/>
  <path d="M136.721 190.267 L136.721 195.6 " fill="none" stroke-width="1.333333" stroke="#000000ff"/>
  <path d="M213.005 190.267 L213.005 195.6 " fill="none" stroke-width="1.333333" stroke="#000000ff"/>
  <path d="M289.29 190.267 L289.29 195.6 " fill="none" stroke-width="1.333333" stroke="#000000ff"/>
  <path d="M365.574 190.267 L365.574 195.6 " fill="none" stroke-width="1.333333" stroke="#000000ff"/>
  <path d="M441.858 190.267 L441.858 195.6 " fill="none" stroke-width="1.333333" stroke="#000000ff"/>
  <path d="M518.142 190.267 L518.142 195.6 " fill="none" stroke-width="1.333333" stroke="#000000ff"/>
  <path d="M594.426 190.267 L594.426 195.6 " fill="none" stroke-width="1.333333" stroke="#000000ff"/>
  <path d="M670.71 190.267 L670.71 195.6 " fill="none" stroke-width="1.333333" stroke="#000000ff"/>
  <path d="M746.995 190.267 L746.995 195.6 " fill="none" stroke-width="1.333333" stroke="#000000ff"/>
  <path d="M823.279 190.267 L823.279 195.6 " fill="none" stroke-width="1.333333" stroke="#000000ff"/>
  <path d="M899.563 190.267 L899.563 195.6 " fill="none" stroke-width="1.333333" stroke="#000000ff"/>
  <text x="48.609033" y="221.333333" fill="#000000ff" font-size="14.666667" font-family="Arial,Helvetica,'Helvetica Neue',sans-serif" font-weight="500.000000">Jan</text>
  <text x="124.080686" y="221.333333" fill="#000000ff" font-size="14.666667" font-family="Arial,Helvetica,'Helvetica Neue',sans-serif" font-weight="500.000000">Feb</text>
  <text x="200.372652" y="221.333333" fill="#000000ff" font-size="14.666667" font-family="Arial,Helvetica,'Helvetica Neue',sans-serif" font-weight="500.000000">Mar</text>
  <text x="277.875555" y="221.333333" fill="#000000ff" font-size="14.666667" font-family="Arial,Helvetica,'Helvetica Neue',sans-serif" font-weight="500.000000">Apr</text>
  <text x="351.714395" y="221.333333" fill="#000000ff" font-size="14.666667" font-family="Arial,Helvetica,'Helvetica Neue',sans-serif" font-weight="500.000000">May</text>
  <text x="430.029798" y="221.333333" fill="#000000ff" font-size="14.666667" font-family="Arial,Helvetica,'Helvetica Neue',sans-serif" font-weight="500.000000">Jun</text>
  <text x="508.759264" y="221.333333" fill="#000000ff" font-size="14.666667" font-family="Arial,Helvetica,'Helvetica Neue',sans-serif" font-weight="500.000000">Jul</text>
  <text x="581.379355" y="221.333333" fill="#000000ff" font-size="14.666667" font-family="Arial,Helvetica,'Helvetica Neue',sans-serif" font-weight="500.000000">Aug</text>
  <text x="657.663508" y="221.333333" fill="#000000ff" font-size="14.666667" font-family="Arial,Helvetica,'Helvetica Neue',sans-serif" font-weight="500.000000">Sep</text>
  <text x="735.580473" y="221.333333" fill="#000000ff" font-size="14.666667" font-family="Arial,Helvetica,'Helvetica Neue',sans-serif" font-weight="500.000000">Oct</text>
  <text x="810.231814" y="221.333333" fill="#000000ff" font-size="14.666667" font-family="Arial,Helvetica,'Helvetica Neue',sans-serif" font-weight="500.000000">Nov</text>
  <text x="886.515967" y="221.333333" fill="#000000ff" font-size="14.666667" font-family="Arial,Helvetica,'Helvetica Neue',sans-serif" font-weight="500.000000">Dec</text>
</svg>