<svg xmlns="http://www.w3.org/2000/svg" width="2048.000000" height="800.000000">
  <rect width="2048.000000" height="800.000000" fill="#ffffffff"/>
  <path d="M65.3492 692 L65.3492 613.98 L102.016 613.98 L102.016 692 Z" fill="#9fc3f5ff"/>
  <path d="M107.141 692 L107.141 615.932 L143.807 615.932 L143.807 692 Z" fill="#9fc3f5ff"/>
  <path d="M148.933 692 L148.933 616.531 L185.6 616.531 L185.6 692 Z" fill="#9fc3f5ff"/>
  <path d="M190.725 692 L190.725 615.771 L227.391 615.771 L227.391 692 Z" fill="#9fc3f5ff"/>
  <path d="M232.517 692 L232.517 613.653 L269.184 613.653 L269.184 692 Z" fill="#9fc3f5ff"/>
  <path d="M274.308 692 L274.308 610.188 L310.975 610.188 L310.975 692 Z" fill="#9fc3f5ff"/>
  <path d="M316.101 692 L316.101 605.391 L352.768 605.391 L352.768 692 Z" fill="#9fc3f5ff"/>
  <path d="M357.892 692 L357.892 599.287 L394.559 599.287 L394.559 692 Z" fill="#9fc3f5ff"/>
  <path d="M399.685 692 L399.685 591.908 L436.351 591.908 L436.351 692 Z" fill="#9fc3f5ff"/>
  <path d="M441.476 692 L441.476 583.291 L478.143 583.291 L478.143 692 Z" fill="#9fc3f5ff"/>
  <path d="M483.268 692 L483.268 573.484 L519.934 573.484 L519.934 692 Z" fill="#9fc3f5ff"/>
  <path d="M525.06 692 L525.06 562.537 L561.727 562.537 L561.727 692 Z" fill="#9fc3f5ff"/>
  <path d="M566.852 692 L566.852 550.509 L603.518 550.509 L603.518 692 Z" fill="#9fc3f5ff"/>
  <path d="M608.644 692 L608.644 537.465 L645.311 537.465 L645.311 692 Z" fill="#9fc3f5ff"/>
  <path d="M650.435 692 L650.435 523.474 L687.102 523.474 L687.102 692 Z" fill="#9fc3f5ff"/>
  <path d="M692.228 692 L692.228 508.612 L728.894 508.612 L728.894 692 Z" fill="#9fc3f5ff"/>
  <path d="M734.019 692 L734.019 492.959 L770.686 492.959 L770.686 692 Z" fill="#9fc3f5ff"/>
  <path d="M775.812 692 L775.812 476.598 L812.478 476.598 L812.478 692 Z" fill="#9fc3f5ff"/>
  <path d="M817.603 692 L817.603 459.618 L854.27 459.618 L854.27 692 Z" fill="#9fc3f5ff"/>
  <path d="M859.395 692 L859.395 442.111 L896.061 442.111 L896.061 692 Z" fill="#9fc3f5ff"/>
  <path d="M901.187 692 L901.187 424.169 L937.854 424.169 L937.854 692 Z" fill="#9fc3f5ff"/>
  <path d="M942.979 692 L942.979 405.889 L979.645 405.889 L979.645 692 Z" fill="#9fc3f5ff"/>
  <path d="M984.771 692 L984.771 387.369 L1021.44 387.369 L1021.44 692 Z" fill="#9fc3f5ff"/>
  <path d="M1026.56 692 L1026.56 368.708 L1063.23 368.708 L1063.23 692 Z" fill="#9fc3f5ff"/>
  <path d="M1068.35 692 L1068.35 350.004 L1105.02 350.004 L1105.02 692 Z" fill="#9fc3f5ff"/>
  <path d="M1110.15 692 L1110.15 331.357 L1146.81 331.357 L1146.81 692 Z" fill="#9fc3f5ff"/>
  <path d="M1151.94 692 L1151.94 312.866 L1188.61 312.866 L1188.61 692 Z" fill="#9fc3f5ff"/>
  <path d="M1193.73 692 L1193.73 294.627 L1230.4 294.627 L1230.4 692 Z" fill="#9fc3f5ff"/>
  <path d="M1235.52 692 L1235.52 276.735 L1272.19 276.735 L1272.19 692 Z" fill="#9fc3f5ff"/>
  <path d="M1277.31 692 L1277.31 259.285 L1313.98 259.285 L1313.98 692 Z" fill="#9fc3f5ff"/>
  <path d="M1319.11 692 L1319.11 242.367 L1355.77 242.367 L1355.77 692 Z" fill="#9fc3f5ff"/>
  <path d="M1360.9 692 L1360.9 226.066 L1397.56 226.066 L1397.56 692 Z" fill="#9fc3f5ff"/>
  <path d="M1402.69 692 L1402.69 210.467 L1439.36 210.467 L1439.36 692 Z" fill="#9fc3f5ff"/>
  <path d="M1444.48 692 L1444.48 195.647 L1481.15 195.647 L1481.15 692 Z" fill="#9fc3f5ff"/>
  <path d="M1486.27 692 L1486.27 181.682 L1522.94 181.682 L1522.94 692 Z" fill="#9fc3f5ff"/>
  <path d="M1528.07 692 L1528.07 168.64 L1564.73 168.64 L1564.73 692 Z" fill="#9fc3f5ff"/>
  <path d="M1569.86 692 L1569.86 156.585 L1606.52 156.585 L1606.52 692 Z" fill="#9fc3f5ff"/>
  <path d="M1611.65 692 L1611.65 145.574 L1648.32 145.574 L1648.32 692 Z" fill="#9fc3f5ff"/>
  <path d="M1653.44 692 L1653.44 135.659 L1690.11 135.659 L1690.11 692 Z" fill="#9fc3f5ff"/>
  <path d="M1695.23 692 L1695.23 126.886 L1731.9 126.886 L1731.9 692 Z" fill="#9fc3f5ff"/>
  <path d="M1737.02 692 L1737.02 119.293 L1773.69 119.293 L1773.69 692 Z" fill="#9fc3f5ff"/>
  <path d="M1778.82 692 L1778.82 112.912 L1815.48 112.912 L1815.48 692 Z" fill="#9fc3f5ff"/>
  <path d="M1820.61 692 L1820.61 107.769 L1857.28 107.769 L1857.28 692 Z" fill="#9fc3f5ff"/>
  <path d="M1862.4 692 L1862.4 103.883 L1899.07 103.883 L1899.07 692 Z" fill="#9fc3f5ff"/>
  <path d="M1904.19 692 L1904.19 101.263 L1940.86 101.263 L1940.86 692 Z" fill="#9fc3f5ff"/>
  <path d="M1945.98 692 L1945.98 99.9164 L1982.65 99.9164 L1982.65 692 Z" fill="#9fc3f5ff"/>
  <path d="M65.3492 692 L65.3492 639.497 L102.016 639.497 L102.016 692 Z" fill="#88ade0ff"/>
  <path d="M107.141 692 L107.141 640.771 L143.807 640.771 L143.807 692 Z" fill="#88ade0ff"/>
  <path d="M148.933 692 L148.933 640.998 L185.6 640.998 L185.6 692 Z" fill="#88ade0ff"/>
  <path d="M190.725 692 L190.725 640.173 L227.391 640.173 L227.391 692 Z" fill="#88ade0ff"/>
  <path d="M232.517 692 L232.517 638.298 L269.184 638.298 L269.184 692 Z" fill="#88ade0ff"/>
  <path d="M274.308 692 L274.308 635.382 L310.975 635.382 L310.975 692 Z" fill="#88ade0ff"/>
  <path d="M316.101 692 L316.101 631.438 L352.768 631.438 L352.768 692 Z" fill="#88ade0ff"/>
  <path d="M357.892 692 L357.892 626.488 L394.559 626.488 L394.559 692 Z" fill="#88ade0ff"/>
  <path d="M399.685 692 L399.685 620.557 L436.351 620.557 L436.351 692 Z" fill="#88ade0ff"/>
  <path d="M441.476 692 L441.476 613.677 L478.143 613.677 L478.143 692 Z" fill="#88ade0ff"/>
  <path d="M483.268 692 L483.268 605.888 L519.934 605.888 L519.934 692 Z" fill="#88ade0ff"/>
  <path d="M525.06 692 L525.06 597.23 L561.727 597.23 L561.727 692 Z" fill="#88ade0ff"/>
  <path d="M566.852 692 L566.852 587.754 L603.518 587.754 L603.518 692 Z" fill="#88ade0ff"/>
  <path d="M608.644 692 L608.644 577.512 L645.311 577.512 L645.311 692 Z" fill="#88ade0ff"/>
  <path d="M650.435 692 L650.435 566.562 L687.102 566.562 L687.102 692 Z" fill="#88ade0ff"/>
  <path d="M692.228 692 L692.228 554.964 L728.894 554.964 L728.894 692 Z" fill="#88ade0ff"/>
  <path d="M734.019 692 L734.019 542.786 L770.686 542.786 L770.686 692 Z" fill="#88ade0ff"/>
  <path d="M775.812 692 L775.812 530.094 L812.478 530.094 L812.478 692 Z" fill="#88ade0ff"/>
  <path d="M817.603 692 L817.603 516.962 L854.27 516.962 L854.27 692 Z" fill="#88ade0ff"/>
  <path d="M859.395 692 L859.395 503.463 L896.061 503.463 L896.061 692 Z" fill="#88ade0ff"/>
  <path d="M901.187 692 L901.187 489.673 L937.854 489.673 L937.854 692 Z" fill="#88ade0ff"/>
  <path d="M942.979 692 L942.979 475.67 L979.645 475.67 L979.645 692 Z" fill="#88ade0ff"/>
  <path d="M984.771 692 L984.771 461.533 L1021.44 461.533 L1021.44 692 Z" fill="#88ade0ff"/>
  <path d="M1026.56 692 L1026.56 447.341 L1063.23 447.341 L1063.23 692 Z" fill="#88ade0ff"/>
  <path d="M1068.35 692 L1068.35 433.173 L1105.02 433.173 L1105.02 692 Z" fill="#88ade0ff"/>
  <path d="M1110.15 692 L1110.15 419.109 L1146.81 419.109 L1146.81 692 Z" fill="#88ade0ff"/>
  <path d="M1151.94 692 L1151.94 405.225 L1188.61 405.225 L1188.61 692 Z" fill="#88ade0ff"/>
  <path d="M1193.73 692 L1193.73 391.6 L1230.4 391.6 L1230.4 692 Z" fill="#88ade0ff"/>
  <path d="M1235.52 692 L1235.52 378.308 L1272.19 378.308 L1272.19 692 Z" fill="#88ade0ff"/>
  <path d="M1277.31 692 L1277.31 365.422 L1313.98 365.422 L1313.98 692 Z" fill="#88ade0ff"/>
  <path d="M1319.11 692 L1319.11 353.011 L1355.77 353.011 L1355.77 692 Z" fill="#88ade0ff"/>
  <path d="M1360.9 692 L1360.9 341.143 L1397.56 341.143 L1397.56 692 Z" fill="#88ade0ff"/>
  <path d="M1402.69 692 L1402.69 329.881 L1439.36 329.881 L1439.36 692 Z" fill="#88ade0ff"/>
  <path d="M1444.48 692 L1444.48 319.284 L1481.15 319.284 L1481.15 692 Z" fill="#88ade0ff"/>
  <path d="M1486.27 692 L1486.27 309.408 L1522.94 309.408 L1522.94 692 Z" fill="#88ade0ff"/>
  <path d="M1528.07 692 L1528.07 300.304 L1564.73 300.304 L1564.73 692 Z" fill="#88ade0ff"/>
  <path d="M1569.86 692 L1569.86 292.017 L1606.52 292.017 L1606.52 692 Z" fill="#88ade0ff"/>
  <path d="M1611.65 692 L1611.65 284.589 L1648.32 284.589 L1648.32 692 Z" fill="#88ade0ff"/>
  <path d="M1653.44 692 L1653.44 278.055 L1690.11 278.055 L1690.11 692 Z" fill="#88ade0ff"/>
  <path d="M1695.23 692 L1695.23 272.446 L1731.9 272.446 L1731.9 692 Z" fill="#88ade0ff"/>
  <path d="M1737.02 692 L1737.02 267.787 L1773.69 267.787 L1773.69 692 Z" fill="#88ade0ff"/>
  <path d="M1778.82 692 L1778.82 264.096 L1815.48 264.096 L1815.48 692 Z" fill="#88ade0ff"/>
  <path d="M1820.61 692 L1820.61 261.387 L1857.28 261.387 L1857.28 692 Z" fill="#88ade0ff"/>
  <path d="M1862.4 692 L1862.4 259.668 L1899.07 259.668 L1899.07 692 Z" fill="#88ade0ff"/>
  <path d="M1904.19 692 L1904.19 258.94 L1940.86 258.94 L1940.86 692 Z" fill="#88ade0ff"/>
  <path d="M1945.98 692 L1945.98 259.2 L1982.65 259.2 L1982.65 692 Z" fill="#88ade0ff"/>
  <path d="M65.3492 692 L65.3492 665.014 L102.016 665.014 L102.016 692 Z" fill="#6393c9ff"/>
  <path d="M107.141 692 L107.141 665.61 L143.807 665.61 L143.807 692 Z" fill="#6393c9ff"/>
  <path d="M148.933 692 L148.933 665.465 L185.6 665.465 L185.6 692 Z" fill="#6393c9ff"/>
  <path d="M190.725 692 L190.725 664.575 L227.391 664.575 L227.391 692 Z" fill="#6393c9ff"/>
  <path d="M232.517 692 L232.517 662.943 L269.184 662.943 L269.184 692 Z" fill="#6393c9ff"/>
  <path d="M274.308 692 L274.308 660.576 L310.975 660.576 L310.975 692 Z" fill="#6393c9ff"/>
  <path d="M316.101 692 L316.101 657.485 L352.768 657.485 L352.768 692 Z" fill="#6393c9ff"/>
  <path d="M357.892 692 L357.892 653.688 L394.559 653.688 L394.559 692 Z" fill="#6393c9ff"/>
  <path d="M399.685 692 L399.685 649.205 L436.351 649.205 L436.351 692 Z" fill="#6393c9ff"/>
  <path d="M441.476 692 L441.476 644.063 L478.143 644.063 L478.143 692 Z" fill="#6393c9ff"/>
  <path d="M483.268 692 L483.268 638.291 L519.934 638.291 L519.934 692 Z" fill="#6393c9ff"/>
  <path d="M525.06 692 L525.06 631.924 L561.727 631.924 L561.727 692 Z" fill="#6393c9ff"/>
  <path d="M566.852 692 L566.852 625 L603.518 625 L603.518 692 Z" fill="#6393c9ff"/>
  <path d="M608.644 692 L608.644 617.56 L645.311 617.56 L645.311 692 Z" fill="#6393c9ff"/>
  <path d="M650.435 692 L650.435 609.649 L687.102 609.649 L687.102 692 Z" fill="#6393c9ff"/>
  <path d="M692.228 692 L692.228 601.317 L728.894 601.317 L728.894 692 Z" fill="#6393c9ff"/>
  <path d="M734.019 692 L734.019 592.613 L770.686 592.613 L770.686 692 Z" fill="#6393c9ff"/>
  <path d="M775.812 692 L775.812 583.591 L812.478 583.591 L812.478 692 Z" fill="#6393c9ff"/>
  <path d="M817.603 692 L817.603 574.306 L854.27 574.306 L854.27 692 Z" fill="#6393c9ff"/>
  <path d="M859.395 692 L859.395 564.816 L896.061 564.816 L896.061 692 Z" fill="#6393c9ff"/>
  <path d="M901.187 692 L901.187 555.178 L937.854 555.178 L937.854 692 Z" fill="#6393c9ff"/>
  <path d="M942.979 692 L942.979 545.452 L979.645 545.452 L979.645 692 Z" fill="#6393c9ff"/>
  <path d="M984.771 692 L984.771 535.698 L1021.44 535.698 L1021.44 692 Z" fill="#6393c9ff"/>
  <path d="M1026.56 692 L1026.56 525.975 L1063.23 525.975 L1063.23 692 Z" fill="#6393c9ff"/>
  <path d="M1068.35 692 L1068.35 516.343 L1105.02 516.343 L1105.02 692 Z" fill="#6393c9ff"/>
  <path d="M1110.15 692 L1110.15 506.86 L1146.81 506.86 L1146.81 692 Z" fill="#6393c9ff"/>
  <path d="M1151.94 692 L1151.94 497.585 L1188.61 497.585 L1188.61 692 Z" fill="#6393c9ff"/>
  <path d="M1193.73 692 L1193.73 488.574 L1230.4 488.574 L1230.4 692 Z" fill="#6393c9ff"/>
  <path d="M1235.52 692 L1235.52 479.881 L1272.19 479.881 L1272.19 692 Z" fill="#6393c9ff"/>
  <path d="M1277.31 692 L1277.31 471.558 L1313.98 471.558 L1313.98 692 Z" fill="#6393c9ff"/>
  <path d="M1319.11 692 L1319.11 463.656 L1355.77 463.656 L1355.77 692 Z" fill="#6393c9ff"/>
  <path d="M1360.9 692 L1360.9 456.22 L1397.56 456.22 L1397.56 692 Z" fill="#6393c9ff"/>
  <path d="M1402.69 692 L1402.69 449.295 L1439.36 449.295 L1439.36 692 Z" fill="#6393c9ff"/>
  <path d="M1444.48 692 L1444.48 442.921 L1481.15 442.921 L1481.15 692 Z" fill="#6393c9ff"/>
  <path d="M1486.27 692 L1486.27 437.134 L1522.94 437.134 L1522.94 692 Z" fill="#6393c9ff"/>
  <path d="M1528.07 692 L1528.07 431.967 L1564.73 431.967 L1564.73 692 Z" fill="#6393c9ff"/>
  <path d="M1569.86 692 L1569.86 427.449 L1606.52 427.449 L1606.52 692 Z" fill="#6393c9ff"/>
  <path d="M1611.65 692 L1611.65 423.604 L1648.32 423.604 L1648.32 692 Z" fill="#6393c9ff"/>
  <path d="M1653.44 692 L1653.44 420.451 L1690.11 420.451 L1690.11 692 Z" fill="#6393c9ff"/>
  <path d="M1695.23 692 L1695.23 418.006 L1731.9 418.006 L1731.9 692 Z" fill="#6393c9ff"/>
  <path d="M1737.02 692 L1737.02 416.281 L1773.69 416.281 L1773.69 692 Z" fill="#6393c9ff"/>
  <path d="M1778.82 692 L1778.82 415.28 L1815.48 415.28 L1815.48 692 Z" fill="#6393c9ff"/>
  <path d="M1820.61 692 L1820.61 415.005 L1857.28 415.005 L1857.28 692 Z" fill="#6393c9ff"/>
  <path d="M1862.4 692 L1862.4 415.453 L1899.07 415.453 L1899.07 692 Z" fill="#6393c9ff"/>
  <path d="M1904.19 692 L1904.19 416.617 L1940.86 416.617 L1940.86 692 Z" fill="#6393c9ff"/>
  <path d="M1945.98 692 L1945.98 418.483 L1982.65 418.483 L1982.65 692 Z" fill="#6393c9ff"/>
  <path d="M65.3492 692 L65.3492 666.483 L102.016 666.483 L102.016 692 Z" fill="#4c7bb0ff"/>
  <path d="M107.141 692 L107.141 667.161 L143.807 667.161 L143.807 692 Z" fill="#4c7bb0ff"/>
  <path d="M148.933 692 L148.933 667.533 L185.6 667.533 L185.6 692 Z" fill="#4c7bb0ff"/>
  <path d="M190.725 692 L190.725 667.598 L227.391 667.598 L227.391 692 Z" fill="#4c7bb0ff"/>
  <path d="M232.517 692 L232.517 667.355 L269.184 667.355 L269.184 692 Z" fill="#4c7bb0ff"/>
  <path d="M274.308 692 L274.308 666.806 L310.975 666.806 L310.975 692 Z" fill="#4c7bb0ff"/>
  <path d="M316.101 692 L316.101 665.953 L352.768 665.953 L352.768 692 Z" fill="#4c7bb0ff"/>
  <path d="M357.892 692 L357.892 664.8 L394.559 664.8 L394.559 692 Z" fill="#4c7bb0ff"/>
  <path d="M399.685 692 L399.685 663.351 L436.351 663.351 L436.351 692 Z" fill="#4c7bb0ff"/>
  <path d="M441.476 692 L441.476 661.614 L478.143 661.614 L478.143 692 Z" fill="#4c7bb0ff"/>
  <path d="M483.268 692 L483.268 659.596 L519.934 659.596 L519.934 692 Z" fill="#4c7bb0ff"/>
  <path d="M525.06 692 L525.06 657.306 L561.727 657.306 L561.727 692 Z" fill="#4c7bb0ff"/>
  <path d="M566.852 692 L566.852 654.755 L603.518 654.755 L603.518 692 Z" fill="#4c7bb0ff"/>
  <path d="M608.644 692 L608.644 651.952 L645.311 651.952 L645.311 692 Z" fill="#4c7bb0ff"/>
  <path d="M650.435 692 L650.435 648.912 L687.102 648.912 L687.102 692 Z" fill="#4c7bb0ff"/>
  <path d="M692.228 692 L692.228 645.648 L728.894 645.648 L728.894 692 Z" fill="#4c7bb0ff"/>
  <path d="M734.019 692 L734.019 642.173 L770.686 642.173 L770.686 692 Z" fill="#4c7bb0ff"/>
  <path d="M775.812 692 L775.812 638.504 L812.478 638.504 L812.478 692 Z" fill="#4c7bb0ff"/>
  <path d="M817.603 692 L817.603 634.656 L854.27 634.656 L854.27 692 Z" fill="#4c7bb0ff"/>
  <path d="M859.395 692 L859.395 630.648 L896.061 630.648 L896.061 692 Z" fill="#4c7bb0ff"/>
  <path d="M901.187 692 L901.187 626.496 L937.854 626.496 L937.854 692 Z" fill="#4c7bb0ff"/>
  <path d="M942.979 692 L942.979 622.219 L979.645 622.219 L979.645 692 Z" fill="#4c7bb0ff"/>
  <path d="M984.771 692 L984.771 617.836 L1021.44 617.836 L1021.44 692 Z" fill="#4c7bb0ff"/>
  <path d="M1026.56 692 L1026.56 613.367 L1063.23 613.367 L1063.23 692 Z" fill="#4c7bb0ff"/>
  <path d="M1068.35 692 L1068.35 608.831 L1105.02 608.831 L1105.02 692 Z" fill="#4c7bb0ff"/>
  <path d="M1110.15 692 L1110.15 604.248 L1146.81 604.248 L1146.81 692 Z" fill="#4c7bb0ff"/>
  <path d="M1151.94 692 L1151.94 599.64 L1188.61 599.64 L1188.61 692 Z" fill="#4c7bb0ff"/>
  <path d="M1193.73 692 L1193.73 595.026 L1230.4 595.026 L1230.4 692 Z" fill="#4c7bb0ff"/>
  <path d="M1235.52 692 L1235.52 590.427 L1272.19 590.427 L1272.19 692 Z" fill="#4c7bb0ff"/>
  <path d="M1277.31 692 L1277.31 585.864 L1313.98 585.864 L1313.98 692 Z" fill="#4c7bb0ff"/>
  <path d="M1319.11 692 L1319.11 581.355 L1355.77 581.355 L1355.77 692 Z" fill="#4c7bb0ff"/>
  <path d="M1360.9 692 L1360.9 576.923 L1397.56 576.923 L1397.56 692 Z" fill="#4c7bb0ff"/>
  <path d="M1402.69 692 L1402.69 572.586 L1439.36 572.586 L1439.36 692 Z" fill="#4c7bb0ff"/>
  <path d="M1444.48 692 L1444.48 568.363 L1481.15 568.363 L1481.15 692 Z" fill="#4c7bb0ff"/>
  <path d="M1486.27 692 L1486.27 564.274 L1522.94 564.274 L1522.94 692 Z" fill="#4c7bb0ff"/>
  <path d="M1528.07 692 L1528.07 560.337 L1564.73 560.337 L1564.73 692 Z" fill="#4c7bb0ff"/>
  <path d="M1569.86 692 L1569.86 556.568 L1606.52 556.568 L1606.52 692 Z" fill="#4c7bb0ff"/>
  <path d="M1611.65 692 L1611.65 552.985 L1648.32 552.985 L1648.32 692 Z" fill="#4c7bb0ff"/>
  <path d="M1653.44 692 L1653.44 549.604 L1690.11 549.604 L1690.11 692 Z" fill="#4c7bb0ff"/>
  <path d="M1695.23 692 L1695.23 546.44 L1731.9 546.44 L1731.9 692 Z" fill="#4c7bb0ff"/>
  <path d="M1737.02 692 L1737.02 543.506 L1773.69 543.506 L1773.69 692 Z" fill="#4c7bb0ff"/>
  <path d="M1778.82 692 L1778.82 540.816 L1815.48 540.816 L1815.48 692 Z" fill="#4c7bb0ff"/>
  <path d="M1820.61 692 L1820.61 538.382 L1857.28 538.382 L1857.28 692 Z" fill="#4c7bb0ff"/>
  <path d="M1862.4 692 L1862.4 536.215 L1899.07 536.215 L1899.07 692 Z" fill="#4c7bb0ff"/>
  <path d="M1904.19 692 L1904.19 534.323 L1940.86 534.323 L1940.86 692 Z" fill="#4c7bb0ff"/>
  <path d="M1945.98 692 L1945.98 532.716 L1982.65 532.716 L1982.65 692 Z" fill="#4c7bb0ff"/>
  <text x="135.666667" y="114.666667" fill="#000000ff" font-size="36.666667" font-family="Arial,Helvetica,'Helvetica Neue',sans-serif" font-weight="500.000000">Variable D</text>
  <path d="M100.833 115.417 C93.2394 115.417 87.0833 109.261 87.0833 101.667 C87.0833 94.0728 93.2394 87.9167 100.833 87.9167 C108.427 87.9167 114.583 94.0728 114.583 101.667 C114.583 109.261 108.427 115.417 100.833 115.417 Z" fill="#9fc3f5ff"/>
  <text x="135.666667" y="167.666667" fill="#000000ff" font-size="36.666667" font-family="Arial,Helvetica,'Helvetica Neue',sans-serif" font-weight="500.000000">Variable C</text>
  <path d="M100.833 168.417 C93.2394 168.417 87.0833 162.261 87.0833 154.667 C87.0833 147.073 93.2394 140.917 100.833 140.917 C108.427 140.917 114.583 147.073 114.583 154.667 C114.583 162.261 108.427 168.417 100.833 168.417 Z" fill="#88ade0ff"/>
  <text x="135.666667" y="220.666667" fill="#000000ff" font-size="36.666667" font-family="Arial,Helvetica,'Helvetica Neue',sans-serif" font-weight="500.000000">Variable B</text>
  <path d="M100.833 221.417 C93.2394 221.417 87.0833 215.261 87.0833 207.667 C87.0833 200.073 93.2394 193.917 100.833 193.917 C108.427 193.917 114.583 200.073 114.583 207.667 C114.583 215.261 108.427 221.417 100.833 221.417 Z" fill="#6393c9ff"/>
  <text x="135.666667" y="273.666667" fill="#000000ff" font-size="36.666667" font-family="Arial,Helvetica,'Helvetica Neue',sans-serif" font-weight="500.000000">Variable A</text>
  <path d="M100.833 274.417 C93.2394 274.417 87.0833 268.261 87.0833 260.667 C87.0833 253.073 93.2394 246.917 100.833 246.917 C108.427 246.917 114.583 253.073 114.583 260.667 C114.583 268.261 108.427 274.417 100.833 274.417 Z" fill="#4c7bb0ff"/>
  <path d="M36.6667 692 L2011.33 692 " fill="none" stroke-width="3.333333" stroke="#000000ff"/>
  <path d="M83.6825 692 L83.6825 678.667 " fill="none" stroke-width="3.333333" stroke="#000000ff"/>
  <path d="M271.746 692 L271.746 678.667 " fill="none" stroke-width="3.333333" stroke="#000000ff"/>
  <path d="M459.81 692 L459.81 678.667 " fill="none" stroke-width="3.333333" stroke="#000000ff"/>
  <path d="M647.873 692 L647.873 678.667 " fill="none" stroke-width="3.333333" stroke="#000000ff"/>
  <path d="M835.937 692 L835.937 678.667 " fill="none" stroke-width="3.333333" stroke="#000000ff"/>
  <path d="M1024 692 L1024 678.667 " fill="none" stroke-width="3.333333" stroke="#000000ff"/>
  <path d="M1212.06 692 L1212.06 678.667 " fill="none" stroke-width="3.333333" stroke="#000000ff"/>
  <path d="M1400.13 692 L1400.13 678.667 " fill="none" stroke-width="3.333333" stroke="#000000ff"/>
  <path d="M1588.19 692 L1588.19 678.667 " fill="none" stroke-width="3.333333" stroke="#000000ff"/>
  <path d="M1776.25 692 L1776.25 678.667 " fill="none" stroke-width="3.333333" stroke="#000000ff"/>
  <path d="M1964.32 692 L1964.32 678.667 " fill="none" stroke-width="3.333333" stroke="#000000ff"/>
  <text x="58.198165" y="755.333333" fill="#000000ff" font-size="36.666667" font-family="Arial,Helvetica,'Helvetica Neue',sans-serif" font-weight="500.000000">0.0</text>
  <text x="246.261657" y="755.333333" fill="#000000ff" font-size="36.666667" font-family="Arial,Helvetica,'Helvetica Neue',sans-serif" font-weight="500.000000">0.2</text>
  <text x="434.325149" y="755.333333" fill="#000000ff" font-size="36.666667" font-family="Arial,Helvetica,'Helvetica Neue',sans-serif" font-weight="500.000000">0.4</text>
  <text x="622.388641" y="755.333333" fill="#000000ff" font-size="36.666667" font-family="Arial,Helvetica,'Helvetica Neue',sans-serif" font-weight="500.000000">0.6</text>
  <text x="810.452133" y="755.333333" fill="#000000ff" font-size="36.666667" font-family="Arial,Helvetica,'Helvetica Neue',sans-serif" font-weight="500.000000">0.8</text>
  <text x="998.515625" y="755.333333" fill="#000000ff" font-size="36.666667" font-family="Arial,Helvetica,'Helvetica Neue',sans-serif" font-weight="500.000000">1.0</text>
  <text x="1186.579117" y="755.333333" fill="#000000ff" font-size="36.666667" font-family="Arial,Helvetica,'Helvetica Neue',sans-serif" font-weight="500.000000">1.2</text>
  <text x="1374.642609" y="755.333333" fill="#000000ff" font-size="36.666667" font-family="Arial,Helvetica,'Helvetica Neue',sans-serif" font-weight="500.000000">1.4</text>
  <text x="1562.706101" y="755.333333" fill="#000000ff" font-size="36.666667" font-family="Arial,Helvetica,'Helvetica Neue',sans-serif" font-weight="500.000000">1.6</text>
  <text x="1750.769593" y="755.333333" fill="#000000ff" font-size="36.666667" font-family="Arial,Helvetica,'Helvetica Neue',sans-serif" font-weight="500.000000">1.8</text>
  <text x="1938.833085" y="755.333333" fill="#000000ff" font-size="36.666667" font-family="Arial,Helvetica,'Helvetica Neue',sans-serif" font-weight="500.000000">2.0</text>
</svg>