<svg xmlns="http://www.w3.org/2000/svg" width="960.000000" height="250.000000" viewBox="0 0 960 250">
  <rect width="960.000000" height="250.000000" fill="#ffffffff"/>
  <path fill="#9fc3f5ff" d="M29.4921 205.6 L29.4921 182.869 L44.1587 182.869 L44.1587 205.6 Z"/>
  <path fill="#9fc3f5ff" d="M49.1885 205.6 L49.1885 183.437 L63.8552 183.437 L63.8552 205.6 Z"/>
  <path fill="#9fc3f5ff" d="M68.8854 205.6 L68.8854 183.612 L83.5521 183.612 L83.5521 205.6 Z"/>
  <path fill="#9fc3f5ff" d="M88.5819 205.6 L88.5819 183.39 L103.249 183.39 L103.249 205.6 Z"/>
  <path fill="#9fc3f5ff" d="M108.279 205.6 L108.279 182.773 L122.945 182.773 L122.945 205.6 Z"/>
  <path fill="#9fc3f5ff" d="M127.975 205.6 L127.975 181.764 L142.642 181.764 L142.642 205.6 Z"/>
  <path fill="#9fc3f5ff" d="M147.672 205.6 L147.672 180.366 L162.339 180.366 L162.339 205.6 Z"/>
  <path fill="#9fc3f5ff" d="M167.369 205.6 L167.369 178.588 L182.035 178.588 L182.035 205.6 Z"/>
  <path fill="#9fc3f5ff" d="M187.065 205.6 L187.065 176.438 L201.732 176.438 L201.732 205.6 Z"/>
  <path fill="#9fc3f5ff" d="M206.762 205.6 L206.762 173.927 L221.429 173.927 L221.429 205.6 Z"/>
  <path fill="#9fc3f5ff" d="M226.458 205.6 L226.458 171.07 L241.125 171.07 L241.125 205.6 Z"/>
  <path fill="#9fc3f5ff" d="M246.155 205.6 L246.155 167.881 L260.822 167.881 L260.822 205.6 Z"/>
  <path fill="#9fc3f5ff" d="M265.852 205.6 L265.852 164.376 L280.518 164.376 L280.518 205.6 Z"/>
  <path fill="#9fc3f5ff" d="M285.549 205.6 L285.549 160.576 L300.215 160.576 L300.215 205.6 Z"/>
  <path fill="#9fc3f5ff" d="M305.245 205.6 L305.245 156.499 L319.912 156.499 L319.912 205.6 Z"/>
  <path fill="#9fc3f5ff" d="M324.942 205.6 L324.942 152.169 L339.609 152.169 L339.609 205.6 Z"/>
  <path fill="#9fc3f5ff" d="M344.638 205.6 L344.638 147.609 L359.305 147.609 L359.305 205.6 Z"/>
  <path fill="#9fc3f5ff" d="M364.335 205.6 L364.335 142.842 L379.002 142.842 L379.002 205.6 Z"/>
  <path fill="#9fc3f5ff" d="M384.032 205.6 L384.032 137.895 L398.698 137.895 L398.698 205.6 Z"/>
  <path fill="#9fc3f5ff" d="M403.728 205.6 L403.728 132.794 L418.395 132.794 L418.395 205.6 Z"/>
  <path fill="#9fc3f5ff" d="M423.425 205.6 L423.425 127.567 L438.092 127.567 L438.092 205.6 Z"/>
  <path fill="#9fc3f5ff" d="M443.122 205.6 L443.122 122.241 L457.788 122.241 L457.788 205.6 Z"/>
  <path fill="#9fc3f5ff" d="M462.818 205.6 L462.818 116.845 L477.485 116.845 L477.485 205.6 Z"/>
  <path fill="#9fc3f5ff" d="M482.515 205.6 L482.515 111.408 L497.182 111.408 L497.182 205.6 Z"/>
  <path fill="#9fc3f5ff" d="M502.212 205.6 L502.212 105.958 L516.878 105.958 L516.878 205.6 Z"/>
  <path fill="#9fc3f5ff" d="M521.908 205.6 L521.908 100.526 L536.575 100.526 L536.575 205.6 Z"/>
  <path fill="#9fc3f5ff" d="M541.605 205.6 L541.605 95.138 L556.272 95.138 L556.272 205.6 Z"/>
  <path fill="#9fc3f5ff" d="M561.302 205.6 L561.302 89.824 L575.968 89.824 L575.968 205.6 Z"/>
  <path fill="#9fc3f5ff" d="M580.998 205.6 L580.998 84.6114 L595.665 84.6114 L595.665 205.6 Z"/>
  <path fill="#9fc3f5ff" d="M600.695 205.6 L600.695 79.5273 L615.362 79.5273 L615.362 205.6 Z"/>
  <path fill="#9fc3f5ff" d="M620.391 205.6 L620.391 74.598 L635.058 74.598 L635.058 205.6 Z"/>
  <path fill="#9fc3f5ff" d="M640.088 205.6 L640.088 69.8487 L654.755 69.8487 L654.755 205.6 Z"/>
  <path fill="#9fc3f5ff" d="M659.785 205.6 L659.785 65.3038 L674.451 65.3038 L674.451 205.6 Z"/>
  <path fill="#9fc3f5ff" d="M679.482 205.6 L679.482 60.9862 L694.148 60.9862 L694.148 205.6 Z"/>
  <path fill="#9fc3f5ff" d="M699.178 205.6 L699.178 56.9174 L713.845 56.9174 L713.845 205.6 Z"/>
  <path fill="#9fc3f5ff" d="M718.875 205.6 L718.875 53.1176 L733.542 53.1176 L733.542 205.6 Z"/>
  <path fill="#9fc3f5ff" d="M738.571 205.6 L738.571 49.6053 L753.238 49.6053 L753.238 205.6 Z"/>
  <path fill="#9fc3f5ff" d="M758.268 205.6 L758.268 46.3972 L772.935 46.3972 L772.935 205.6 Z"/>
  <path fill="#9fc3f5ff" d="M777.965 205.6 L777.965 43.5085 L792.631 43.5085 L792.631 205.6 Z"/>
  <path fill="#9fc3f5ff" d="M797.661 205.6 L797.661 40.9523 L812.328 40.9523 L812.328 205.6 Z"/>
  <path fill="#9fc3f5ff" d="M817.358 205.6 L817.358 38.7401 L832.025 38.7401 L832.025 205.6 Z"/>
  <path fill="#9fc3f5ff" d="M837.055 205.6 L837.055 36.881 L851.721 36.881 L851.721 205.6 Z"/>
  <path fill="#9fc3f5ff" d="M856.751 205.6 L856.751 35.3826 L871.418 35.3826 L871.418 205.6 Z"/>
  <path fill="#9fc3f5ff" d="M876.448 205.6 L876.448 34.2502 L891.115 34.2502 L891.115 205.6 Z"/>
  <path fill="#9fc3f5ff" d="M896.145 205.6 L896.145 33.4871 L910.811 33.4871 L910.811 205.6 Z"/>
  <path fill="#9fc3f5ff" d="M915.841 205.6 L915.841 33.0947 L930.508 33.0947 L930.508 205.6 Z"/>
  <path fill="#88ade0ff" d="M29.4921 205.6 L29.4921 190.303 L44.1587 190.303 L44.1587 205.6 Z"/>
  <path fill="#88ade0ff" d="M49.1885 205.6 L49.1885 190.674 L63.8552 190.674 L63.8552 205.6 Z"/>
  <path fill="#88ade0ff" d="M68.8854 205.6 L68.8854 190.74 L83.5521 190.74 L83.5521 205.6 Z"/>
  <path fill="#88ade0ff" d="M88.5819 205.6 L88.5819 190.5 L103.249 190.5 L103.249 205.6 Z"/>
  <path fill="#88ade0ff" d="M108.279 205.6 L108.279 189.954 L122.945 189.954 L122.945 205.6 Z"/>
  <path fill="#88ade0ff" d="M127.975 205.6 L127.975 189.104 L142.642 189.104 L142.642 205.6 Z"/>
  <path fill="#88ade0ff" d="M147.672 205.6 L147.672 187.955 L162.339 187.955 L162.339 205.6 Z"/>
  <path fill="#88ade0ff" d="M167.369 205.6 L167.369 186.513 L182.035 186.513 L182.035 205.6 Z"/>
  <path fill="#88ade0ff" d="M187.065 205.6 L187.065 184.785 L201.732 184.785 L201.732 205.6 Z"/>
  <path fill="#88ade0ff" d="M206.762 205.6 L206.762 182.78 L221.429 182.78 L221.429 205.6 Z"/>
  <path fill="#88ade0ff" d="M226.458 205.6 L226.458 180.511 L241.125 180.511 L241.125 205.6 Z"/>
  <path fill="#88ade0ff" d="M246.155 205.6 L246.155 177.989 L260.822 177.989 L260.822 205.6 Z"/>
  <path fill="#88ade0ff" d="M265.852 205.6 L265.852 175.228 L280.518 175.228 L280.518 205.6 Z"/>
  <path fill="#88ade0ff" d="M285.549 205.6 L285.549 172.244 L300.215 172.244 L300.215 205.6 Z"/>
  <path fill="#88ade0ff" d="M305.245 205.6 L305.245 169.053 L319.912 169.053 L319.912 205.6 Z"/>
  <path fill="#88ade0ff" d="M324.942 205.6 L324.942 165.674 L339.609 165.674 L339.609 205.6 Z"/>
  <path fill="#88ade0ff" d="M344.638 205.6 L344.638 162.126 L359.305 162.126 L359.305 205.6 Z"/>
  <path fill="#88ade0ff" d="M364.335 205.6 L364.335 158.428 L379.002 158.428 L379.002 205.6 Z"/>
  <path fill="#88ade0ff" d="M384.032 205.6 L384.032 154.602 L398.698 154.602 L398.698 205.6 Z"/>
  <path fill="#88ade0ff" d="M403.728 205.6 L403.728 150.669 L418.395 150.669 L418.395 205.6 Z"/>
  <path fill="#88ade0ff" d="M423.425 205.6 L423.425 146.652 L438.092 146.652 L438.092 205.6 Z"/>
  <path fill="#88ade0ff" d="M443.122 205.6 L443.122 142.572 L457.788 142.572 L457.788 205.6 Z"/>
  <path fill="#88ade0ff" d="M462.818 205.6 L462.818 138.453 L477.485 138.453 L477.485 205.6 Z"/>
  <path fill="#88ade0ff" d="M482.515 205.6 L482.515 134.318 L497.182 134.318 L497.182 205.6 Z"/>
  <path fill="#88ade0ff" d="M502.212 205.6 L502.212 130.19 L516.878 130.19 L516.878 205.6 Z"/>
  <path fill="#88ade0ff" d="M521.908 205.6 L521.908 126.092 L536.575 126.092 L536.575 205.6 Z"/>
  <path fill="#88ade0ff" d="M541.605 205.6 L541.605 122.047 L556.272 122.047 L556.272 205.6 Z"/>
  <path fill="#88ade0ff" d="M561.302 205.6 L561.302 118.078 L575.968 118.078 L575.968 205.6 Z"/>
  <path fill="#88ade0ff" d="M580.998 205.6 L580.998 114.205 L595.665 114.205 L595.665 205.6 Z"/>
  <path fill="#88ade0ff" d="M600.695 205.6 L600.695 110.45 L615.362 110.45 L615.362 205.6 Z"/>
  <path fill="#88ade0ff" d="M620.391 205.6 L620.391 106.835 L635.058 106.835 L635.058 205.6 Z"/>
  <path fill="#88ade0ff" d="M640.088 205.6 L640.088 103.377 L654.755 103.377 L654.755 205.6 Z"/>
  <path fill="#88ade0ff" d="M659.785 205.6 L659.785 100.095 L674.451 100.095 L674.451 205.6 Z"/>
  <path fill="#88ade0ff" d="M679.482 205.6 L679.482 97.0081 L694.148 97.0081 L694.148 205.6 Z"/>
  <path fill="#88ade0ff" d="M699.178 205.6 L699.178 94.1307 L713.845 94.1307 L713.845 205.6 Z"/>
  <path fill="#88ade0ff" d="M718.875 205.6 L718.875 91.4781 L733.542 91.4781 L733.542 205.6 Z"/>
  <path fill="#88ade0ff" d="M738.571 205.6 L738.571 89.0637 L753.238 89.0637 L753.238 205.6 Z"/>
  <path fill="#88ade0ff" d="M758.268 205.6 L758.268 86.8995 L772.935 86.8995 L772.935 205.6 Z"/>
  <path fill="#88ade0ff" d="M777.965 205.6 L777.965 84.9959 L792.631 84.9959 L792.631 205.6 Z"/>
  <path fill="#88ade0ff" d="M797.661 205.6 L797.661 83.3618 L812.328 83.3618 L812.328 205.6 Z"/>
  <path fill="#88ade0ff" d="M817.358 205.6 L817.358 82.0042 L832.025 82.0042 L832.025 205.6 Z"/>
  <path fill="#88ade0ff" d="M837.055 205.6 L837.055 80.9289 L851.721 80.9289 L851.721 205.6 Z"/>
  <path fill="#88ade0ff" d="M856.751 205.6 L856.751 80.1397 L871.418 80.1397 L871.418 205.6 Z"/>
  <path fill="#88ade0ff" d="M876.448 205.6 L876.448 79.6388 L891.115 79.6388 L891.115 205.6 Z"/>
  <path fill="#88ade0ff" d="M896.145 205.6 L896.145 79.4267 L910.811 79.4267 L910.811 205.6 Z"/>
  <path fill="#88ade0ff" d="M915.841 205.6 L915.841 79.5024 L930.508 79.5024 L930.508 205.6 Z"/>
  <path fill="#6393c9ff" d="M29.4921 205.6 L29.4921 197.738 L44.1587 197.738 L44.1587 205.6 Z"/>
  <path fill="#6393c9ff" d="M49.1885 205.6 L49.1885 197.911 L63.8552 197.911 L63.8552 205.6 Z"/>
  <path fill="#6393c9ff" d="M68.8854 205.6 L68.8854 197.869 L83.5521 197.869 L83.5521 205.6 Z"/>
  <path fill="#6393c9ff" d="M88.5819 205.6 L88.5819 197.61 L103.249 197.61 L103.249 205.6 Z"/>
  <path fill="#6393c9ff" d="M108.279 205.6 L108.279 197.134 L122.945 197.134 L122.945 205.6 Z"/>
  <path fill="#6393c9ff" d="M127.975 205.6 L127.975 196.444 L142.642 196.444 L142.642 205.6 Z"/>
  <path fill="#6393c9ff" d="M147.672 205.6 L147.672 195.544 L162.339 195.544 L162.339 205.6 Z"/>
  <path fill="#6393c9ff" d="M167.369 205.6 L167.369 194.438 L182.035 194.438 L182.035 205.6 Z"/>
  <path fill="#6393c9ff" d="M187.065 205.6 L187.065 193.132 L201.732 193.132 L201.732 205.6 Z"/>
  <path fill="#6393c9ff" d="M206.762 205.6 L206.762 191.633 L221.429 191.633 L221.429 205.6 Z"/>
  <path fill="#6393c9ff" d="M226.458 205.6 L226.458 189.952 L241.125 189.952 L241.125 205.6 Z"/>
  <path fill="#6393c9ff" d="M246.155 205.6 L246.155 188.097 L260.822 188.097 L260.822 205.6 Z"/>
  <path fill="#6393c9ff" d="M265.852 205.6 L265.852 186.079 L280.518 186.079 L280.518 205.6 Z"/>
  <path fill="#6393c9ff" d="M285.549 205.6 L285.549 183.912 L300.215 183.912 L300.215 205.6 Z"/>
  <path fill="#6393c9ff" d="M305.245 205.6 L305.245 181.607 L319.912 181.607 L319.912 205.6 Z"/>
  <path fill="#6393c9ff" d="M324.942 205.6 L324.942 179.179 L339.609 179.179 L339.609 205.6 Z"/>
  <path fill="#6393c9ff" d="M344.638 205.6 L344.638 176.643 L359.305 176.643 L359.305 205.6 Z"/>
  <path fill="#6393c9ff" d="M364.335 205.6 L364.335 174.015 L379.002 174.015 L379.002 205.6 Z"/>
  <path fill="#6393c9ff" d="M384.032 205.6 L384.032 171.309 L398.698 171.309 L398.698 205.6 Z"/>
  <path fill="#6393c9ff" d="M403.728 205.6 L403.728 168.544 L418.395 168.544 L418.395 205.6 Z"/>
  <path fill="#6393c9ff" d="M423.425 205.6 L423.425 165.736 L438.092 165.736 L438.092 205.6 Z"/>
  <path fill="#6393c9ff" d="M443.122 205.6 L443.122 162.903 L457.788 162.903 L457.788 205.6 Z"/>
  <path fill="#6393c9ff" d="M462.818 205.6 L462.818 160.061 L477.485 160.061 L477.485 205.6 Z"/>
  <path fill="#6393c9ff" d="M482.515 205.6 L482.515 157.228 L497.182 157.228 L497.182 205.6 Z"/>
  <path fill="#6393c9ff" d="M502.212 205.6 L502.212 154.422 L516.878 154.422 L516.878 205.6 Z"/>
  <path fill="#6393c9ff" d="M521.908 205.6 L521.908 151.659 L536.575 151.659 L536.575 205.6 Z"/>
  <path fill="#6393c9ff" d="M541.605 205.6 L541.605 148.957 L556.272 148.957 L556.272 205.6 Z"/>
  <path fill="#6393c9ff" d="M561.302 205.6 L561.302 146.331 L575.968 146.331 L575.968 205.6 Z"/>
  <path fill="#6393c9ff" d="M580.998 205.6 L580.998 143.799 L595.665 143.799 L595.665 205.6 Z"/>
  <path fill="#6393c9ff" d="M600.695 205.6 L600.695 141.374 L615.362 141.374 L615.362 205.6 Z"/>
  <path fill="#6393c9ff" d="M620.391 205.6 L620.391 139.071 L635.058 139.071 L635.058 205.6 Z"/>
  <path fill="#6393c9ff" d="M640.088 205.6 L640.088 136.905 L654.755 136.905 L654.755 205.6 Z"/>
  <path fill="#6393c9ff" d="M659.785 205.6 L659.785 134.887 L674.451 134.887 L674.451 205.6 Z"/>
  <path fill="#6393c9ff" d="M679.482 205.6 L679.482 133.03 L694.148 133.03 L694.148 205.6 Z"/>
  <path fill="#6393c9ff" d="M699.178 205.6 L699.178 131.344 L713.845 131.344 L713.845 205.6 Z"/>
  <path fill="#6393c9ff" d="M718.875 205.6 L718.875 129.839 L733.542 129.839 L733.542 205.6 Z"/>
  <path fill="#6393c9ff" d="M738.571 205.6 L738.571 128.522 L753.238 128.522 L753.238 205.6 Z"/>
  <path fill="#6393c9ff" d="M758.268 205.6 L758.268 127.402 L772.935 127.402 L772.935 205.6 Z"/>
  <path fill="#6393c9ff" d="M777.965 205.6 L777.965 126.483 L792.631 126.483 L792.631 205.6 Z"/>
  <path fill="#6393c9ff" d="M797.661 205.6 L797.661 125.771 L812.328 125.771 L812.328 205.6 Z"/>
  <path fill="#6393c9ff" d="M817.358 205.6 L817.358 125.268 L832.025 125.268 L832.025 205.6 Z"/>
  <path fill="#6393c9ff" d="M837.055 205.6 L837.055 124.977 L851.721 124.977 L851.721 205.6 Z"/>
  <path fill="#6393c9ff" d="M856.751 205.6 L856.751 124.897 L871.418 124.897 L871.418 205.6 Z"/>
  <path fill="#6393c9ff" d="M876.448 205.6 L876.448 125.027 L891.115 125.027 L891.115 205.6 Z"/>
  <path fill="#6393c9ff" d="M896.145 205.6 L896.145 125.366 L910.811 125.366 L910.811 205.6 Z"/>
  <path fill="#6393c9ff" d="M915.841 205.6 L915.841 125.91 L930.508 125.91 L930.508 205.6 Z"/>
  <path fill="#4c7bb0ff" d="M29.4921 205.6 L29.4921 198.166 L44.1587 198.166 L44.1587 205.6 Z"/>
  <path fill="#4c7bb0ff" d="M49.1885 205.6 L49.1885 198.363 L63.8552 198.363 L63.8552 205.6 Z"/>
  <path fill="#4c7bb0ff" d="M68.8854 205.6 L68.8854 198.471 L83.5521 198.471 L83.5521 205.6 Z"/>
  <path fill="#4c7bb0ff" d="M88.5819 205.6 L88.5819 198.49 L103.249 198.49 L103.249 205.6 Z"/>
  <path fill="#4c7bb0ff" d="M108.279 205.6 L108.279 198.42 L122.945 198.42 L122.945 205.6 Z"/>
  <path fill="#4c7bb0ff" d="M127.975 205.6 L127.975 198.26 L142.642 198.26 L142.642 205.6 Z"/>
  <path fill="#4c7bb0ff" d="M147.672 205.6 L147.672 198.011 L162.339 198.011 L162.339 205.6 Z"/>
  <path fill="#4c7bb0ff" d="M167.369 205.6 L167.369 197.675 L182.035 197.675 L182.035 205.6 Z"/>
  <path fill="#4c7bb0ff" d="M187.065 205.6 L187.065 197.253 L201.732 197.253 L201.732 205.6 Z"/>
  <path fill="#4c7bb0ff" d="M206.762 205.6 L206.762 196.747 L221.429 196.747 L221.429 205.6 Z"/>
  <path fill="#4c7bb0ff" d="M226.458 205.6 L226.458 196.159 L241.125 196.159 L241.125 205.6 Z"/>
  <path fill="#4c7bb0ff" d="M246.155 205.6 L246.155 195.492 L260.822 195.492 L260.822 205.6 Z"/>
  <path fill="#4c7bb0ff" d="M265.852 205.6 L265.852 194.748 L280.518 194.748 L280.518 205.6 Z"/>
  <path fill="#4c7bb0ff" d="M285.549 205.6 L285.549 193.932 L300.215 193.932 L300.215 205.6 Z"/>
  <path fill="#4c7bb0ff" d="M305.245 205.6 L305.245 193.046 L319.912 193.046 L319.912 205.6 Z"/>
  <path fill="#4c7bb0ff" d="M324.942 205.6 L324.942 192.095 L339.609 192.095 L339.609 205.6 Z"/>
  <path fill="#4c7bb0ff" d="M344.638 205.6 L344.638 191.083 L359.305 191.083 L359.305 205.6 Z"/>
  <path fill="#4c7bb0ff" d="M364.335 205.6 L364.335 190.014 L379.002 190.014 L379.002 205.6 Z"/>
  <path fill="#4c7bb0ff" d="M384.032 205.6 L384.032 188.893 L398.698 188.893 L398.698 205.6 Z"/>
  <path fill="#4c7bb0ff" d="M403.728 205.6 L403.728 187.725 L418.395 187.725 L418.395 205.6 Z"/>
  <path fill="#4c7bb0ff" d="M423.425 205.6 L423.425 186.515 L438.092 186.515 L438.092 205.6 Z"/>
  <path fill="#4c7bb0ff" d="M443.122 205.6 L443.122 185.269 L457.788 185.269 L457.788 205.6 Z"/>
  <path fill="#4c7bb0ff" d="M462.818 205.6 L462.818 183.992 L477.485 183.992 L477.485 205.6 Z"/>
  <path fill="#4c7bb0ff" d="M482.515 205.6 L482.515 182.69 L497.182 182.69 L497.182 205.6 Z"/>
  <path fill="#4c7bb0ff" d="M502.212 205.6 L502.212 181.368 L516.878 181.368 L516.878 205.6 Z"/>
  <path fill="#4c7bb0ff" d="M521.908 205.6 L521.908 180.033 L536.575 180.033 L536.575 205.6 Z"/>
  <path fill="#4c7bb0ff" d="M541.605 205.6 L541.605 178.691 L556.272 178.691 L556.272 205.6 Z"/>
  <path fill="#4c7bb0ff" d="M561.302 205.6 L561.302 177.346 L575.968 177.346 L575.968 205.6 Z"/>
  <path fill="#4c7bb0ff" d="M580.998 205.6 L580.998 176.006 L595.665 176.006 L595.665 205.6 Z"/>
  <path fill="#4c7bb0ff" d="M600.695 205.6 L600.695 174.677 L615.362 174.677 L615.362 205.6 Z"/>
  <path fill="#4c7bb0ff" d="M620.391 205.6 L620.391 173.363 L635.058 173.363 L635.058 205.6 Z"/>
  <path fill="#4c7bb0ff" d="M640.088 205.6 L640.088 172.072 L654.755 172.072 L654.755 205.6 Z"/>
  <path fill="#4c7bb0ff" d="M659.785 205.6 L659.785 170.808 L674.451 170.808 L674.451 205.6 Z"/>
  <path fill="#4c7bb0ff" d="M679.482 205.6 L679.482 169.578 L694.148 169.578 L694.148 205.6 Z"/>
  <path fill="#4c7bb0ff" d="M699.178 205.6 L699.178 168.387 L713.845 168.387 L713.845 205.6 Z"/>
  <path fill="#4c7bb0ff" d="M718.875 205.6 L718.875 167.24 L733.542 167.24 L733.542 205.6 Z"/>
  <path fill="#4c7bb0ff" d="M738.571 205.6 L738.571 166.142 L753.238 166.142 L753.238 205.6 Z"/>
  <path fill="#4c7bb0ff" d="M758.268 205.6 L758.268 165.098 L772.935 165.098 L772.935 205.6 Z"/>
  <path fill="#4c7bb0ff" d="M777.965 205.6 L777.965 164.113 L792.631 164.113 L792.631 205.6 Z"/>
  <path fill="#4c7bb0ff" d="M797.661 205.6 L797.661 163.191 L812.328 163.191 L812.328 205.6 Z"/>
  <path fill="#4c7bb0ff" d="M817.358 205.6 L817.358 162.336 L832.025 162.336 L832.025 205.6 Z"/>
  <path fill="#4c7bb0ff" d="M837.055 205.6 L837.055 161.552 L851.721 161.552 L851.721 205.6 Z"/>
  <path fill="#4c7bb0ff" d="M856.751 205.6 L856.751 160.843 L871.418 160.843 L871.418 205.6 Z"/>
  <path fill="#4c7bb0ff" d="M876.448 205.6 L876.448 160.211 L891.115 160.211 L891.115 205.6 Z"/>
  <path fill="#4c7bb0ff" d="M896.145 205.6 L896.145 159.66 L910.811 159.66 L910.811 205.6 Z"/>
  <path fill="#4c7bb0ff" d="M915.841 205.6 L915.841 159.192 L930.508 159.192 L930.508 205.6 Z"/>
  <text x="54.266667" y="46.266667" fill="#000000ff" font-size="14.666667" font-family="Arial,Helvetica,'Helvetica Neue',sans-serif" font-weight="500.000000">Variable D</text>
  <path fill="#9fc3f5ff" d="M45.8333 41.2667 M34.8333 41.2667 a5.5 5.5 0 1 0 11 0 a5.5 5.5 0 1 0 -11 0 "/>
  <text x="54.266667" y="68.666667" fill="#000000ff" font-size="14.666667" font-family="Arial,Helvetica,'Helvetica Neue',sans-serif" font-weight="500.000000">Variable C</text>
  <path fill="#88ade0ff" d="M45.8333 63.6667 M34.8333 63.6667 a5.5 5.5 0 1 0 11 0 a5.5 5.5 0 1 0 -11 0 "/>
  <text x="54.266667" y="91.066667" fill="#000000ff" font-size="14.666667" font-family="Arial,Helvetica,'Helvetica Neue',sans-serif" font-weight="500.000000">Variable B</text>
  <path fill="#6393c9ff" d="M45.8333 86.0667 M34.8333 86.0667 a5.5 5.5 0 1 0 11 0 a5.5 5.5 0 1 0 -11 0 "/>
  <text x="54.266667" y="113.466667" fill="#000000ff" font-size="14.666667" font-family="Arial,Helvetica,'Helvetica Neue',sans-serif" font-weight="500.000000">Variable A</text>
  <path fill="#4c7bb0ff" d="M45.8333 108.467 M34.8333 108.467 a5.5 5.5 0 1 0 11 0 a5.5 5.5 0 1 0 -11 0 "/>
  <path stroke-width="1.333333" stroke="#000000ff" fill="none" d="M14.6667 205.6 L945.333 205.6 "/>
  <path stroke-width="1.333333" stroke="#000000ff" fill="none" d="M36.8254 200.267 L36.8254 205.6 "/>
  <path stroke-width="1.333333" stroke="#000000ff" fill="none" d="M125.46 200.267 L125.46 205.6 "/>
  <path stroke-width="1.333333" stroke="#000000ff" fill="none" d="M214.095 200.267 L214.095 205.6 "/>
  <path stroke-width="1.333333" stroke="#000000ff" fill="none" d="M302.73 200.267 L302.73 205.6 "/>
  <path stroke-width="1.333333" stroke="#000000ff" fill="none" d="M391.365 200.267 L391.365 205.6 "/>
  <path stroke-width="1.333333" stroke="#000000ff" fill="none" d="M480 200.267 L480 205.6 "/>
  <path stroke-width="1.333333" stroke="#000000ff" fill="none" d="M568.635 200.267 L568.635 205.6 "/>
  <path stroke-width="1.333333" stroke="#000000ff" fill="none" d="M657.27 200.267 L657.27 205.6 "/>
  <path stroke-width="1.333333" stroke="#000000ff" fill="none" d="M745.905 200.267 L745.905 205.6 "/>
  <path stroke-width="1.333333" stroke="#000000ff" fill="none" d="M834.54 200.267 L834.54 205.6 "/>
  <path stroke-width="1.333333" stroke="#000000ff" fill="none" d="M923.175 200.267 L923.175 205.6 "/>
  <text x="26.630084" y="231.333333" fill="#000000ff" font-size="14.666667" font-family="Arial,Helvetica,'Helvetica Neue',sans-serif" font-weight="500.000000">0.0</text>
  <text x="115.265005" y="231.333333" fill="#000000ff" font-size="14.666667" font-family="Arial,Helvetica,'Helvetica Neue',sans-serif" font-weight="500.000000">0.2</text>
  <text x="203.899926" y="231.333333" fill="#000000ff" font-size="14.666667" font-family="Arial,Helvetica,'Helvetica Neue',sans-serif" font-weight="500.000000">0.4</text>
  <text x="292.534846" y="231.333333" fill="#000000ff" font-size="14.666667" font-family="Arial,Helvetica,'Helvetica Neue',sans-serif" font-weight="500.000000">0.6</text>
  <text x="381.169767" y="231.333333" fill="#000000ff" font-size="14.666667" font-family="Arial,Helvetica,'Helvetica Neue',sans-serif" font-weight="500.000000">0.8</text>
  <text x="469.804688" y="231.333333" fill="#000000ff" font-size="14.666667" font-family="Arial,Helvetica,'Helvetica Neue',sans-serif" font-weight="500.000000">1.0</text>
  <text x="558.439608" y="231.333333" fill="#000000ff" font-size="14.666667" font-family="Arial,Helvetica,'Helvetica Neue',sans-serif" font-weight="500.000000">1.2</text>
  <text x="647.074529" y="231.333333" fill="#000000ff" font-size="14.666667" font-family="Arial,Helvetica,'Helvetica Neue',sans-serif" font-weight="500.000000">1.4</text>
  <text x="735.709449" y="231.333333" fill="#000000ff" font-size="14.666667" font-family="Arial,Helvetica,'Helvetica Neue',sans-serif" font-weight="500.000000">1.6</text>
  <text x="824.344370" y="231.333333" fill="#000000ff" font-size="14.666667" font-family="Arial,Helvetica,'Helvetica Neue',sans-serif" font-weight="500.000000">1.8</text>
  <text x="912.979291" y="231.333333" fill="#000000ff" font-size="14.666667" font-family="Arial,Helvetica,'Helvetica Neue',sans-serif" font-weight="500.000000">2.0</text>
</svg>