<svg xmlns="http://www.w3.org/2000/svg" width="960.000000" height="200.000000" viewBox="0 0 960 200">
  <rect width="960.000000" height="200.000000" fill="#ffffff"/>
  <path fill="#aa4643" d="M59.8375 37.216 L170.524 31.5787 L281.211 24.532 L502.585 38.6253 L723.959 55.5373 L945.333 38.6253 L945.333 130.232 L723.959 110.501 L502.585 118.957 L281.211 113.32 L170.524 127.413 L59.8375 133.051 "/>
  <path fill="#db843d" d="M59.8375 41.444 L170.524 38.6253 L281.211 31.5787 L502.585 47.0813 L723.959 66.812 L945.333 42.8533 L945.333 110.501 L723.959 94.9987 L502.585 113.32 L281.211 106.273 L170.524 113.32 L59.8375 118.957 "/>
  <path fill="#ffffff" d="M782.44 14.6667 L945.333 14.6667 L945.333 32.6667 L782.44 32.6667 L782.44 14.6667 "/>
  <text x="798.572917" y="28.666667" fill="#000000" font-size="14.666667" font-family="Arial,Helvetica,'Helvetica Neue',sans-serif" font-weight="500.000000">Series A</text>
  <path fill="#aa4643" d="M790.14 23.6667 M779.14 23.6667 a5.5 5.5 0 1 0 11 0 a5.5 5.5 0 1 0 -11 0 "/>
  <text x="889.880208" y="28.666667" fill="#000000" font-size="14.666667" font-family="Arial,Helvetica,'Helvetica Neue',sans-serif" font-weight="500.000000">Series B</text>
  <path fill="#db843d" d="M881.447 23.6667 M870.447 23.6667 a5.5 5.5 0 1 0 11 0 a5.5 5.5 0 1 0 -11 0 "/>
  <path stroke-width="1.333333" stroke="#000000" fill="none" d="M59.8375 155.6 L945.333 155.6 "/>
  <path stroke-width="1.333333" stroke="#000000" fill="none" d="M59.8375 150.267 L59.8375 155.6 "/>
  <path stroke-width="1.333333" stroke="#000000" fill="none" d="M148.387 150.267 L148.387 155.6 "/>
  <path stroke-width="1.333333" stroke="#000000" fill="none" d="M236.937 150.267 L236.937 155.6 "/>
  <path stroke-width="1.333333" stroke="#000000" fill="none" d="M325.486 150.267 L325.486 155.6 "/>
  <path stroke-width="1.333333" stroke="#000000" fill="none" d="M414.036 150.267 L414.036 155.6 "/>
  <path stroke-width="1.333333" stroke="#000000" fill="none" d="M502.585 150.267 L502.585 155.6 "/>
  <path stroke-width="1.333333" stroke="#000000" fill="none" d="M591.135 150.267 L591.135 155.6 "/>
  <path stroke-width="1.333333" stroke="#000000" fill="none" d="M679.685 150.267 L679.685 155.6 "/>
  <path stroke-width="1.333333" stroke="#000000" fill="none" d="M768.234 150.267 L768.234 155.6 "/>
  <path stroke-width="1.333333" stroke="#000000" fill="none" d="M856.784 150.267 L856.784 155.6 "/>
  <path stroke-width="1.333333" stroke="#000000" fill="none" d="M945.333 150.267 L945.333 155.6 "/>
  <text x="45.564063" y="181.333333" fill="#000000" font-size="14.666667" font-family="Arial,Helvetica,'Helvetica Neue',sans-serif" font-weight="500.000000">10.0</text>
  <text x="134.113647" y="181.333333" fill="#000000" font-size="14.666667" font-family="Arial,Helvetica,'Helvetica Neue',sans-serif" font-weight="500.000000">14.0</text>
  <text x="222.663232" y="181.333333" fill="#000000" font-size="14.666667" font-family="Arial,Helvetica,'Helvetica Neue',sans-serif" font-weight="500.000000">18.0</text>
  <text x="311.212823" y="181.333333" fill="#000000" font-size="14.666667" font-family="Arial,Helvetica,'Helvetica Neue',sans-serif" font-weight="500.000000">22.0</text>
  <text x="399.762401" y="181.333333" fill="#000000" font-size="14.666667" font-family="Arial,Helvetica,'Helvetica Neue',sans-serif" font-weight="500.000000">26.0</text>
  <text x="488.311979" y="181.333333" fill="#000000" font-size="14.666667" font-family="Arial,Helvetica,'Helvetica Neue',sans-serif" font-weight="500.000000">30.0</text>
  <text x="576.861584" y="181.333333" fill="#000000" font-size="14.666667" font-family="Arial,Helvetica,'Helvetica Neue',sans-serif" font-weight="500.000000">34.0</text>
  <text x="665.411135" y="181.333333" fill="#000000" font-size="14.666667" font-family="Arial,Helvetica,'Helvetica Neue',sans-serif" font-weight="500.000000">38.0</text>
  <text x="753.960740" y="181.333333" fill="#000000" font-size="14.666667" font-family="Arial,Helvetica,'Helvetica Neue',sans-serif" font-weight="500.000000">42.0</text>
  <text x="842.510344" y="181.333333" fill="#000000" font-size="14.666667" font-family="Arial,Helvetica,'Helvetica Neue',sans-serif" font-weight="500.000000">46.0</text>
  <text x="931.059896" y="181.333333" fill="#000000" font-size="14.666667" font-family="Arial,Helvetica,'Helvetica Neue',sans-serif" font-weight="500.000000">50.0</text>
  <path stroke-width="1.333333" stroke="#000000" fill="none" d="M59.8375 14.6667 L59.8375 155.6 "/>
  <path stroke-width="1.333333" stroke="#000000" fill="none" d="M59.8375 155.6 L65.1708 155.6 "/>
  <path stroke-width="1.333333" stroke="#000000" fill="none" d="M59.8375 141.507 L65.1708 141.507 "/>
  <path stroke-width="1.333333" stroke="#000000" fill="none" d="M59.8375 127.413 L65.1708 127.413 "/>
  <path stroke-width="1.333333" stroke="#000000" fill="none" d="M59.8375 113.32 L65.1708 113.32 "/>
  <path stroke-width="1.333333" stroke="#000000" fill="none" d="M59.8375 99.2267 L65.1708 99.2267 "/>
  <path stroke-width="1.333333" stroke="#000000" fill="none" d="M59.8375 85.1333 L65.1708 85.1333 "/>
  <path stroke-width="1.333333" stroke="#000000" fill="none" d="M59.8375 71.04 L65.1708 71.04 "/>
  <path stroke-width="1.333333" stroke="#000000" fill="none" d="M59.8375 56.9467 L65.1708 56.9467 "/>
  <path stroke-width="1.333333" stroke="#000000" fill="none" d="M59.8375 42.8533 L65.1708 42.8533 "/>
  <path stroke-width="1.333333" stroke="#000000" fill="none" d="M59.8375 28.76 L65.1708 28.76 "/>
  <path stroke-width="1.333333" stroke="#000000" fill="none" d="M59.8375 14.6667 L65.1708 14.6667 "/>
  <text x="14.666667" y="160.600000" fill="#000000" font-size="14.666667" font-family="Arial,Helvetica,'Helvetica Neue',sans-serif" font-weight="500.000000">-50.0</text>
  <text x="14.666667" y="146.506666" fill="#000000" font-size="14.666667" font-family="Arial,Helvetica,'Helvetica Neue',sans-serif" font-weight="500.000000">-40.0</text>
  <text x="14.666667" y="132.413333" fill="#000000" font-size="14.666667" font-family="Arial,Helvetica,'Helvetica Neue',sans-serif" font-weight="500.000000">-30.0</text>
  <text x="14.666667" y="118.319998" fill="#000000" font-size="14.666667" font-family="Arial,Helvetica,'Helvetica Neue',sans-serif" font-weight="500.000000">-20.0</text>
  <text x="14.666667" y="104.226666" fill="#000000" font-size="14.666667" font-family="Arial,Helvetica,'Helvetica Neue',sans-serif" font-weight="500.000000">-10.0</text>
  <text x="27.713542" y="90.133333" fill="#000000" font-size="14.666667" font-family="Arial,Helvetica,'Helvetica Neue',sans-serif" font-weight="500.000000">0.0</text>
  <text x="19.557292" y="76.039997" fill="#000000" font-size="14.666667" font-family="Arial,Helvetica,'Helvetica Neue',sans-serif" font-weight="500.000000">10.0</text>
  <text x="19.557292" y="61.946668" fill="#000000" font-size="14.666667" font-family="Arial,Helvetica,'Helvetica Neue',sans-serif" font-weight="500.000000">20.0</text>
  <text x="19.557292" y="47.853332" fill="#000000" font-size="14.666667" font-family="Arial,Helvetica,'Helvetica Neue',sans-serif" font-weight="500.000000">30.0</text>
  <text x="19.557292" y="33.759995" fill="#000000" font-size="14.666667" font-family="Arial,Helvetica,'Helvetica Neue',sans-serif" font-weight="500.000000">40.0</text>
  <text x="19.557292" y="19.666667" fill="#000000" font-size="14.666667" font-family="Arial,Helvetica,'Helvetica Neue',sans-serif" font-weight="500.000000">50.0</text>
</svg>