<svg xmlns="http://www.w3.org/2000/svg" width="900.000000" height="480.000000">
  <rect width="900.000000" height="480.000000" fill="#ffffffff"/>
  <path d="M29.3333 37.3333 C24.9151 37.3333 21.3333 33.7516 21.3333 29.3333 C21.3333 24.9151 24.9151 21.3333 29.3333 21.3333 C33.7516 21.3333 37.3333 24.9151 37.3333 29.3333 C37.3333 33.7516 33.7516 37.3333 29.3333 37.3333 Z" fill="#000000ff"/>
  <path d="M149.524 37.3333 C145.106 37.3333 141.524 33.7516 141.524 29.3333 C141.524 24.9151 145.106 21.3333 149.524 21.3333 C153.942 21.3333 157.524 24.9151 157.524 29.3333 C157.524 33.7516 153.942 37.3333 149.524 37.3333 Z" fill="none" stroke-width="1.600000" stroke="#000000ff"/>
  <text x="263.917411" y="35.833333" fill="#000000ff" font-size="19.200000" font-family="Arial,Helvetica,'Helvetica Neue',sans-serif" font-weight="500.000000">■</text>
  <text x="384.107887" y="35.833333" fill="#000000ff" font-size="19.200000" font-family="Arial,Helvetica,'Helvetica Neue',sans-serif" font-weight="500.000000">□</text>
  <text x="501.032738" y="35.833333" fill="#000000ff" font-size="19.200000" font-family="Arial,Helvetica,'Helvetica Neue',sans-serif" font-weight="500.000000">◧</text>
  <text x="621.223214" y="35.833333" fill="#000000ff" font-size="19.200000" font-family="Arial,Helvetica,'Helvetica Neue',sans-serif" font-weight="500.000000">◨</text>
  <text x="742.101190" y="35.833333" fill="#000000ff" font-size="19.200000" font-family="Arial,Helvetica,'Helvetica Neue',sans-serif" font-weight="500.000000">⬢</text>
  <text x="862.291667" y="35.833333" fill="#000000ff" font-size="19.200000" font-family="Arial,Helvetica,'Helvetica Neue',sans-serif" font-weight="500.000000">⬡</text>
  <text x="12.200521" y="22.400000" fill="#000000ff" font-size="14.666667" font-family="Arial,Helvetica,'Helvetica Neue',sans-serif" font-weight="500.000000">circle</text>
  <text x="125.867560" y="22.400000" fill="#000000ff" font-size="14.666667" font-family="Arial,Helvetica,'Helvetica Neue',sans-serif" font-weight="500.000000">circle-o</text>
  <text x="247.284598" y="22.400000" fill="#000000ff" font-size="14.666667" font-family="Arial,Helvetica,'Helvetica Neue',sans-serif" font-weight="500.000000">square</text>
  <text x="360.951637" y="22.400000" fill="#000000ff" font-size="14.666667" font-family="Arial,Helvetica,'Helvetica Neue',sans-serif" font-weight="500.000000">square-o</text>
  <text x="475.431176" y="22.400000" fill="#000000ff" font-size="14.666667" font-family="Arial,Helvetica,'Helvetica Neue',sans-serif" font-weight="500.000000">square-left</text>
  <text x="591.137277" y="22.400000" fill="#000000ff" font-size="14.666667" font-family="Arial,Helvetica,'Helvetica Neue',sans-serif" font-weight="500.000000">square-right</text>
  <text x="722.335565" y="22.400000" fill="#000000ff" font-size="14.666667" font-family="Arial,Helvetica,'Helvetica Neue',sans-serif" font-weight="500.000000">hexagon</text>
  <text x="836.002604" y="22.400000" fill="#000000ff" font-size="14.666667" font-family="Arial,Helvetica,'Helvetica Neue',sans-serif" font-weight="500.000000">hexagon-o</text>
</svg>