<?xml version="1.0" encoding="UTF-8" ?>
<!-- Generated by clip v0.6.0 (clip-lang.org) -->
<svg xmlns="http://www.w3.org/2000/svg" width="1024.000000" height="60.000000">
  <rect width="1024.000000" height="60.000000" fill="#ffffff" fill-opacity="1.000000"/>
  <path d="M14.6667 30 L1009.33 30 " fill="none" stroke-width="1.333333" stroke="#000000ff"/>
  <path d="M14.6667 32.6667 L14.6667 27.3333 " fill="none" stroke-width="1.333333" stroke="#000000ff"/>
  <path d="M89.5228 32.6667 L89.5228 27.3333 " fill="none" stroke-width="1.333333" stroke="#000000ff"/>
  <path d="M133.311 32.6667 L133.311 27.3333 " fill="none" stroke-width="1.333333" stroke="#000000ff"/>
  <path d="M164.379 32.6667 L164.379 27.3333 " fill="none" stroke-width="1.333333" stroke="#000000ff"/>
  <path d="M188.477 32.6667 L188.477 27.3333 " fill="none" stroke-width="1.333333" stroke="#000000ff"/>
  <path d="M208.167 32.6667 L208.167 27.3333 " fill="none" stroke-width="1.333333" stroke="#000000ff"/>
  <path d="M224.814 32.6667 L224.814 27.3333 " fill="none" stroke-width="1.333333" stroke="#000000ff"/>
  <path d="M239.235 32.6667 L239.235 27.3333 " fill="none" stroke-width="1.333333" stroke="#000000ff"/>
  <path d="M251.955 32.6667 L251.955 27.3333 " fill="none" stroke-width="1.333333" stroke="#000000ff"/>
  <path d="M263.333 32.6667 L263.333 27.3333 " fill="none" stroke-width="1.333333" stroke="#000000ff"/>
  <path d="M338.189 32.6667 L338.189 27.3333 " fill="none" stroke-width="1.333333" stroke="#000000ff"/>
  <path d="M381.977 32.6667 L381.977 27.3333 " fill="none" stroke-width="1.333333" stroke="#000000ff"/>
  <path d="M413.046 32.6667 L413.046 27.3333 " fill="none" stroke-width="1.333333" stroke="#000000ff"/>
  <path d="M437.144 32.6667 L437.144 27.3333 " fill="none" stroke-width="1.333333" stroke="#000000ff"/>
  <path d="M456.834 32.6667 L456.834 27.3333 " fill="none" stroke-width="1.333333" stroke="#000000ff"/>
  <path d="M473.481 32.6667 L473.481 27.3333 " fill="none" stroke-width="1.333333" stroke="#000000ff"/>
  <path d="M487.902 32.6667 L487.902 27.3333 " fill="none" stroke-width="1.333333" stroke="#000000ff"/>
  <path d="M500.622 32.6667 L500.622 27.3333 " fill="none" stroke-width="1.333333" stroke="#000000ff"/>
  <path d="M512 32.6667 L512 27.3333 " fill="none" stroke-width="1.333333" stroke="#000000ff"/>
  <path d="M586.856 32.6667 L586.856 27.3333 " fill="none" stroke-width="1.333333" stroke="#000000ff"/>
  <path d="M630.644 32.6667 L630.644 27.3333 " fill="none" stroke-width="1.333333" stroke="#000000ff"/>
  <path d="M661.712 32.6667 L661.712 27.3333 " fill="none" stroke-width="1.333333" stroke="#000000ff"/>
  <path d="M685.811 32.6667 L685.811 27.3333 " fill="none" stroke-width="1.333333" stroke="#000000ff"/>
  <path d="M705.5 32.6667 L705.5 27.3333 " fill="none" stroke-width="1.333333" stroke="#000000ff"/>
  <path d="M722.148 32.6667 L722.148 27.3333 " fill="none" stroke-width="1.333333" stroke="#000000ff"/>
  <path d="M736.568 32.6667 L736.568 27.3333 " fill="none" stroke-width="1.333333" stroke="#000000ff"/>
  <path d="M749.288 32.6667 L749.288 27.3333 " fill="none" stroke-width="1.333333" stroke="#000000ff"/>
  <path d="M760.667 32.6667 L760.667 27.3333 " fill="none" stroke-width="1.333333" stroke="#000000ff"/>
  <path d="M835.523 32.6667 L835.523 27.3333 " fill="none" stroke-width="1.333333" stroke="#000000ff"/>
  <path d="M879.311 32.6667 L879.311 27.3333 " fill="none" stroke-width="1.333333" stroke="#000000ff"/>
  <path d="M910.379 32.6667 L910.379 27.3333 " fill="none" stroke-width="1.333333" stroke="#000000ff"/>
  <path d="M934.477 32.6667 L934.477 27.3333 " fill="none" stroke-width="1.333333" stroke="#000000ff"/>
  <path d="M954.167 32.6667 L954.167 27.3333 " fill="none" stroke-width="1.333333" stroke="#000000ff"/>
  <path d="M970.814 32.6667 L970.814 27.3333 " fill="none" stroke-width="1.333333" stroke="#000000ff"/>
  <path d="M985.235 32.6667 L985.235 27.3333 " fill="none" stroke-width="1.333333" stroke="#000000ff"/>
  <path d="M997.955 32.6667 L997.955 27.3333 " fill="none" stroke-width="1.333333" stroke="#000000ff"/>
  <path d="M1009.33 32.6667 L1009.33 27.3333 " fill="none" stroke-width="1.333333" stroke="#000000ff"/>
  <text x="4.065104" y="52.733333" fill="#000000ff" font-size="14.666667" font-family="Arial,Helvetica,'Helvetica Neue',sans-serif" font-weight="500.000000">10⁰</text>
  <text x="252.731771" y="55.733333" fill="#000000ff" font-size="14.666667" font-family="Arial,Helvetica,'Helvetica Neue',sans-serif" font-weight="500.000000">10¹</text>
  <text x="501.398438" y="55.733333" fill="#000000ff" font-size="14.666667" font-family="Arial,Helvetica,'Helvetica Neue',sans-serif" font-weight="500.000000">10²</text>
  <text x="750.065104" y="55.733333" fill="#000000ff" font-size="14.666667" font-family="Arial,Helvetica,'Helvetica Neue',sans-serif" font-weight="500.000000">10²</text>
  <text x="998.731771" y="52.733333" fill="#000000ff" font-size="14.666667" font-family="Arial,Helvetica,'Helvetica Neue',sans-serif" font-weight="500.000000">10⁴</text>
</svg>