<svg xmlns="http://www.w3.org/2000/svg" width="1200.000000" height="80.000000" viewBox="0 0 1200.0 80.0">
  <rect width="1200.000000" height="80.000000" fill="#ffffff"/>
  <path stroke-width="1.333333" stroke="#a8a8a8" fill="none" d="M40.0 35.6 L1160.0 35.6 "/>
  <path stroke-width="1.333333" stroke="#a8a8a8" fill="none" d="M40.0 35.6 L40.0 30.266667 "/>
  <path stroke-width="1.333333" stroke="#a8a8a8" fill="none" d="M141.818185 35.6 L141.818185 30.266667 "/>
  <path stroke-width="1.333333" stroke="#a8a8a8" fill="none" d="M243.63637 35.6 L243.63637 30.266667 "/>
  <path stroke-width="1.333333" stroke="#a8a8a8" fill="none" d="M345.454555 35.6 L345.454555 30.266667 "/>
  <path stroke-width="1.333333" stroke="#a8a8a8" fill="none" d="M447.272739 35.6 L447.272739 30.266667 "/>
  <path stroke-width="1.333333" stroke="#a8a8a8" fill="none" d="M549.090924 35.6 L549.090924 30.266667 "/>
  <path stroke-width="1.333333" stroke="#a8a8a8" fill="none" d="M650.909109 35.6 L650.909109 30.266667 "/>
  <path stroke-width="1.333333" stroke="#a8a8a8" fill="none" d="M752.727261 35.6 L752.727261 30.266667 "/>
  <path stroke-width="1.333333" stroke="#a8a8a8" fill="none" d="M854.545479 35.6 L854.545479 30.266667 "/>
  <path stroke-width="1.333333" stroke="#a8a8a8" fill="none" d="M956.363697 35.6 L956.363697 30.266667 "/>
  <path stroke-width="1.333333" stroke="#a8a8a8" fill="none" d="M1058.181849 35.6 L1058.181849 30.266667 "/>
  <path stroke-width="1.333333" stroke="#a8a8a8" fill="none" d="M1160.0 35.6 L1160.0 30.266667 "/>
  <text x="86.018469" y="61.333333" fill="#333333" font-size="14.666667" font-family="Arial,Helvetica,'Helvetica Neue',sans-serif">A</text>
  <text x="187.836654" y="61.333333" fill="#333333" font-size="14.666667" font-family="Arial,Helvetica,'Helvetica Neue',sans-serif">B</text>
  <text x="289.248589" y="61.333333" fill="#333333" font-size="14.666667" font-family="Arial,Helvetica,'Helvetica Neue',sans-serif">C</text>
  <text x="391.066774" y="61.333333" fill="#333333" font-size="14.666667" font-family="Arial,Helvetica,'Helvetica Neue',sans-serif">D</text>
  <text x="493.291208" y="61.333333" fill="#333333" font-size="14.666667" font-family="Arial,Helvetica,'Helvetica Neue',sans-serif">E</text>
  <text x="595.515643" y="61.333333" fill="#333333" font-size="14.666667" font-family="Arial,Helvetica,'Helvetica Neue',sans-serif">F</text>
  <text x="696.115045" y="61.333333" fill="#333333" font-size="14.666667" font-family="Arial,Helvetica,'Helvetica Neue',sans-serif">G</text>
  <text x="798.339513" y="61.333333" fill="#333333" font-size="14.666667" font-family="Arial,Helvetica,'Helvetica Neue',sans-serif">H</text>
  <text x="903.415544" y="61.333333" fill="#333333" font-size="14.666667" font-family="Arial,Helvetica,'Helvetica Neue',sans-serif">I</text>
  <text x="1003.600883" y="61.333333" fill="#333333" font-size="14.666667" font-family="Arial,Helvetica,'Helvetica Neue',sans-serif">J</text>
  <text x="1104.200284" y="61.333333" fill="#333333" font-size="14.666667" font-family="Arial,Helvetica,'Helvetica Neue',sans-serif">K</text>
</svg>