<svg xmlns="http://www.w3.org/2000/svg" width="1200.000000" height="80.000000" viewBox="0 0 1200.0 80.0">
  <rect width="1200.000000" height="80.000000" fill="#ffffff"/>
  <path stroke-width="1.333333" stroke="#a8a8a8" fill="none" d="M40.0 35.6 L1160.0 35.6 "/>
  <path stroke-width="1.333333" stroke="#a8a8a8" fill="none" d="M40.0 35.6 L40.0 30.266667 "/>
  <path stroke-width="1.333333" stroke="#a8a8a8" fill="none" d="M110.0 35.6 L110.0 30.266667 "/>
  <path stroke-width="1.333333" stroke="#a8a8a8" fill="none" d="M180.0 35.6 L180.0 30.266667 "/>
  <path stroke-width="1.333333" stroke="#a8a8a8" fill="none" d="M250.0 35.6 L250.0 30.266667 "/>
  <path stroke-width="1.333333" stroke="#a8a8a8" fill="none" d="M320.0 35.6 L320.0 30.266667 "/>
  <path stroke-width="1.333333" stroke="#a8a8a8" fill="none" d="M390.0 35.6 L390.0 30.266667 "/>
  <path stroke-width="1.333333" stroke="#a8a8a8" fill="none" d="M460.0 35.6 L460.0 30.266667 "/>
  <path stroke-width="1.333333" stroke="#a8a8a8" fill="none" d="M530.0 35.6 L530.0 30.266667 "/>
  <path stroke-width="1.333333" stroke="#a8a8a8" fill="none" d="M600.0 35.6 L600.0 30.266667 "/>
  <path stroke-width="1.333333" stroke="#a8a8a8" fill="none" d="M670.0 35.6 L670.0 30.266667 "/>
  <path stroke-width="1.333333" stroke="#a8a8a8" fill="none" d="M740.0 35.6 L740.0 30.266667 "/>
  <path stroke-width="1.333333" stroke="#a8a8a8" fill="none" d="M810.0 35.6 L810.0 30.266667 "/>
  <path stroke-width="1.333333" stroke="#a8a8a8" fill="none" d="M880.0 35.6 L880.0 30.266667 "/>
  <path stroke-width="1.333333" stroke="#a8a8a8" fill="none" d="M950.0 35.6 L950.0 30.266667 "/>
  <path stroke-width="1.333333" stroke="#a8a8a8" fill="none" d="M1020.0 35.6 L1020.0 30.266667 "/>
  <path stroke-width="1.333333" stroke="#a8a8a8" fill="none" d="M1090.0 35.6 L1090.0 30.266667 "/>
  <path stroke-width="1.333333" stroke="#a8a8a8" fill="none" d="M1160.0 35.6 L1160.0 30.266667 "/>
  <text x="70.921875" y="61.333333" fill="#333333" font-size="14.666667" font-family="Arial,Helvetica,'Helvetica Neue',sans-serif">0</text>
  <text x="140.921875" y="61.333333" fill="#333333" font-size="14.666667" font-family="Arial,Helvetica,'Helvetica Neue',sans-serif">2</text>
  <text x="210.921875" y="61.333333" fill="#333333" font-size="14.666667" font-family="Arial,Helvetica,'Helvetica Neue',sans-serif">2</text>
  <text x="280.921875" y="61.333333" fill="#333333" font-size="14.666667" font-family="Arial,Helvetica,'Helvetica Neue',sans-serif">4</text>
  <text x="350.921875" y="61.333333" fill="#333333" font-size="14.666667" font-family="Arial,Helvetica,'Helvetica Neue',sans-serif">4</text>
  <text x="420.921875" y="61.333333" fill="#333333" font-size="14.666667" font-family="Arial,Helvetica,'Helvetica Neue',sans-serif">6</text>
  <text x="490.921875" y="61.333333" fill="#333333" font-size="14.666667" font-family="Arial,Helvetica,'Helvetica Neue',sans-serif">6</text>
  <text x="560.921875" y="61.333333" fill="#333333" font-size="14.666667" font-family="Arial,Helvetica,'Helvetica Neue',sans-serif">8</text>
  <text x="630.921875" y="61.333333" fill="#333333" font-size="14.666667" font-family="Arial,Helvetica,'Helvetica Neue',sans-serif">8</text>
  <text x="696.843750" y="61.333333" fill="#333333" font-size="14.666667" font-family="Arial,Helvetica,'Helvetica Neue',sans-serif">10</text>
  <text x="766.843750" y="61.333333" fill="#333333" font-size="14.666667" font-family="Arial,Helvetica,'Helvetica Neue',sans-serif">10</text>
  <text x="836.843750" y="61.333333" fill="#333333" font-size="14.666667" font-family="Arial,Helvetica,'Helvetica Neue',sans-serif">12</text>
  <text x="906.843750" y="61.333333" fill="#333333" font-size="14.666667" font-family="Arial,Helvetica,'Helvetica Neue',sans-serif">12</text>
  <text x="976.843750" y="61.333333" fill="#333333" font-size="14.666667" font-family="Arial,Helvetica,'Helvetica Neue',sans-serif">14</text>
  <text x="1046.843750" y="61.333333" fill="#333333" font-size="14.666667" font-family="Arial,Helvetica,'Helvetica Neue',sans-serif">14</text>
  <text x="1116.843750" y="61.333333" fill="#333333" font-size="14.666667" font-family="Arial,Helvetica,'Helvetica Neue',sans-serif">16</text>
</svg>