<?xml version="1.0" encoding="UTF-8" ?>
<!-- Generated by clip v0.8.0 (clip-lang.org) -->
<svg xmlns="http://www.w3.org/2000/svg" width="1750" height="500">
  <rect width="1750" height="500" fill="#ffffff" fill-opacity="1"/>
  <path d="M126.472 411.200 L1720.667 411.200" fill="none" stroke="#000000" stroke-width="2.667"/>
  <path d="M325.746 411.200 L325.746 400.533" fill="none" stroke="#000000" stroke-width="2.667"/>
  <path d="M525.021 411.200 L525.021 400.533" fill="none" stroke="#000000" stroke-width="2.667"/>
  <path d="M724.295 411.200 L724.295 400.533" fill="none" stroke="#000000" stroke-width="2.667"/>
  <path d="M923.569 411.200 L923.569 400.533" fill="none" stroke="#000000" stroke-width="2.667"/>
  <path d="M1122.844 411.200 L1122.844 400.533" fill="none" stroke="#000000" stroke-width="2.667"/>
  <path d="M1322.118 411.200 L1322.118 400.533" fill="none" stroke="#000000" stroke-width="2.667"/>
  <path d="M1521.392 411.200 L1521.392 400.533" fill="none" stroke="#000000" stroke-width="2.667"/>
  <path d="M284.184 450.542 L284.184 453.651 Q284.184 458.682 282.434 460.674 Q280.684 462.667 277.699 462.667 Q274.746 462.667 272.965 460.674 Q271.184 458.682 271.184 453.651 L271.184 450.542 Q271.184 445.526 272.957 443.596 Q274.731 441.667 277.668 441.667 Q280.652 441.667 282.418 443.596 Q284.184 445.526 284.184 450.542 Z M281.527 454.073 L281.527 450.135 Q281.527 446.698 280.551 445.284 Q279.574 443.870 277.668 443.870 Q275.809 443.870 274.824 445.284 Q273.840 446.698 273.840 450.135 L273.840 454.073 Q273.840 457.464 274.840 458.964 Q275.840 460.464 277.699 460.464 Q279.606 460.464 280.567 458.964 Q281.527 457.464 281.527 454.073 Z"/>
  <path d="M300.668 450.542 L300.668 453.651 Q300.668 458.682 298.918 460.674 Q297.168 462.667 294.184 462.667 Q291.231 462.667 289.449 460.674 Q287.668 458.682 287.668 453.651 L287.668 450.542 Q287.668 445.526 289.442 443.596 Q291.215 441.667 294.152 441.667 Q297.137 441.667 298.902 443.596 Q300.668 445.526 300.668 450.542 Z M298.012 454.073 L298.012 450.135 Q298.012 446.698 297.035 445.284 Q296.059 443.870 294.152 443.870 Q292.293 443.870 291.309 445.284 Q290.324 446.698 290.324 450.135 L290.324 454.073 Q290.324 457.464 291.324 458.964 Q292.324 460.464 294.184 460.464 Q296.090 460.464 297.051 458.964 Q298.012 457.464 298.012 454.073 Z"/>
  <path d="M304.152 461.182 Q304.152 460.542 304.535 460.104 Q304.918 459.667 305.652 459.667 Q306.387 459.667 306.770 460.104 Q307.152 460.542 307.152 461.182 Q307.152 461.807 306.770 462.237 Q306.387 462.667 305.652 462.667 Q304.918 462.667 304.535 462.237 Q304.152 461.807 304.152 461.182 Z M304.152 448.167 Q304.152 447.557 304.535 447.112 Q304.918 446.667 305.652 446.667 Q306.387 446.667 306.770 447.112 Q307.152 447.557 307.152 448.167 Q307.152 448.792 306.770 449.229 Q306.387 449.667 305.652 449.667 Q304.918 449.667 304.535 449.229 Q304.152 448.792 304.152 448.167 Z"/>
  <path d="M319.918 441.667 L319.918 462.667 L317.262 462.667 L317.262 444.979 L311.762 446.932 L311.762 444.542 L319.496 441.667 L319.918 441.667 Z"/>
  <path d="M331.168 452.229 L329.059 451.682 L330.106 441.667 L340.777 441.667 L340.777 443.870 L332.356 443.870 L331.715 449.510 Q332.293 449.214 333.176 448.940 Q334.059 448.667 335.199 448.667 Q338.059 448.667 339.731 450.581 Q341.402 452.495 341.402 455.698 Q341.402 458.698 339.770 460.682 Q338.137 462.667 334.809 462.667 Q332.277 462.667 330.426 461.214 Q328.574 459.760 328.293 456.776 L330.809 456.776 Q331.324 460.464 334.809 460.464 Q336.684 460.464 337.715 459.159 Q338.746 457.854 338.746 455.620 Q338.746 453.604 337.668 452.237 Q336.590 450.870 334.574 450.870 Q333.246 450.870 332.559 451.237 Q331.871 451.604 331.168 452.229 Z"/>
  <path d="M344.231 461.182 Q344.231 460.542 344.613 460.104 Q344.996 459.667 345.731 459.667 Q346.465 459.667 346.848 460.104 Q347.231 460.542 347.231 461.182 Q347.231 461.807 346.848 462.237 Q346.465 462.667 345.731 462.667 Q344.996 462.667 344.613 462.237 Q344.231 461.807 344.231 461.182 Z M344.231 448.167 Q344.231 447.557 344.613 447.112 Q344.996 446.667 345.731 446.667 Q346.465 446.667 346.848 447.112 Q347.231 447.557 347.231 448.167 Q347.231 448.792 346.848 449.229 Q346.465 449.667 345.731 449.667 Q344.996 449.667 344.613 449.229 Q344.231 448.792 344.231 448.167 Z"/>
  <path d="M364.340 450.542 L364.340 453.651 Q364.340 458.682 362.590 460.674 Q360.840 462.667 357.856 462.667 Q354.902 462.667 353.121 460.674 Q351.340 458.682 351.340 453.651 L351.340 450.542 Q351.340 445.526 353.113 443.596 Q354.887 441.667 357.824 441.667 Q360.809 441.667 362.574 443.596 Q364.340 445.526 364.340 450.542 Z M361.684 454.073 L361.684 450.135 Q361.684 446.698 360.707 445.284 Q359.731 443.870 357.824 443.870 Q355.965 443.870 354.981 445.284 Q353.996 446.698 353.996 450.135 L353.996 454.073 Q353.996 457.464 354.996 458.964 Q355.996 460.464 357.856 460.464 Q359.762 460.464 360.723 458.964 Q361.684 457.464 361.684 454.073 Z"/>
  <path d="M380.824 450.542 L380.824 453.651 Q380.824 458.682 379.074 460.674 Q377.324 462.667 374.340 462.667 Q371.387 462.667 369.606 460.674 Q367.824 458.682 367.824 453.651 L367.824 450.542 Q367.824 445.526 369.598 443.596 Q371.371 441.667 374.309 441.667 Q377.293 441.667 379.059 443.596 Q380.824 445.526 380.824 450.542 Z M378.168 454.073 L378.168 450.135 Q378.168 446.698 377.192 445.284 Q376.215 443.870 374.309 443.870 Q372.449 443.870 371.465 445.284 Q370.481 446.698 370.481 450.135 L370.481 454.073 Q370.481 457.464 371.481 458.964 Q372.481 460.464 374.340 460.464 Q376.246 460.464 377.207 458.964 Q378.168 457.464 378.168 454.073 Z"/>
  <path d="M483.458 450.542 L483.458 453.651 Q483.458 458.682 481.708 460.674 Q479.958 462.667 476.974 462.667 Q474.021 462.667 472.239 460.674 Q470.458 458.682 470.458 453.651 L470.458 450.542 Q470.458 445.526 472.232 443.596 Q474.005 441.667 476.942 441.667 Q479.927 441.667 481.692 443.596 Q483.458 445.526 483.458 450.542 Z M480.802 454.073 L480.802 450.135 Q480.802 446.698 479.825 445.284 Q478.849 443.870 476.942 443.870 Q475.083 443.870 474.099 445.284 Q473.114 446.698 473.114 450.135 L473.114 454.073 Q473.114 457.464 474.114 458.964 Q475.114 460.464 476.974 460.464 Q478.880 460.464 479.841 458.964 Q480.802 457.464 480.802 454.073 Z"/>
  <path d="M499.942 450.542 L499.942 453.651 Q499.942 458.682 498.192 460.674 Q496.442 462.667 493.458 462.667 Q490.505 462.667 488.724 460.674 Q486.942 458.682 486.942 453.651 L486.942 450.542 Q486.942 445.526 488.716 443.596 Q490.489 441.667 493.427 441.667 Q496.411 441.667 498.177 443.596 Q499.942 445.526 499.942 450.542 Z M497.286 454.073 L497.286 450.135 Q497.286 446.698 496.310 445.284 Q495.333 443.870 493.427 443.870 Q491.567 443.870 490.583 445.284 Q489.599 446.698 489.599 450.135 L489.599 454.073 Q489.599 457.464 490.599 458.964 Q491.599 460.464 493.458 460.464 Q495.364 460.464 496.325 458.964 Q497.286 457.464 497.286 454.073 Z"/>
  <path d="M503.427 461.182 Q503.427 460.542 503.810 460.104 Q504.192 459.667 504.927 459.667 Q505.661 459.667 506.044 460.104 Q506.427 460.542 506.427 461.182 Q506.427 461.807 506.044 462.237 Q505.661 462.667 504.927 462.667 Q504.192 462.667 503.810 462.237 Q503.427 461.807 503.427 461.182 Z M503.427 448.167 Q503.427 447.557 503.810 447.112 Q504.192 446.667 504.927 446.667 Q505.661 446.667 506.044 447.112 Q506.427 447.557 506.427 448.167 Q506.427 448.792 506.044 449.229 Q505.661 449.667 504.927 449.667 Q504.192 449.667 503.810 449.229 Q503.427 448.792 503.427 448.167 Z"/>
  <path d="M516.458 452.667 L514.583 452.667 L514.583 450.464 L516.458 450.464 Q518.521 450.464 519.528 449.534 Q520.536 448.604 520.536 447.214 Q520.536 443.870 516.942 443.870 Q515.255 443.870 514.224 444.753 Q513.192 445.635 513.192 447.120 L510.536 447.120 Q510.536 444.854 512.294 443.260 Q514.052 441.667 516.927 441.667 Q519.724 441.667 521.458 443.081 Q523.192 444.495 523.192 447.229 Q523.192 448.323 522.411 449.565 Q521.630 450.807 519.927 451.495 Q522.021 452.182 522.778 453.604 Q523.536 455.026 523.536 456.464 Q523.536 459.432 521.677 461.049 Q519.817 462.667 517.036 462.667 Q514.364 462.667 512.450 461.135 Q510.536 459.604 510.536 456.776 L513.192 456.776 Q513.192 458.448 514.224 459.456 Q515.255 460.464 517.036 460.464 Q518.817 460.464 519.849 459.495 Q520.880 458.526 520.880 456.526 Q520.880 454.542 519.685 453.604 Q518.489 452.667 516.458 452.667 Z"/>
  <path d="M540.021 450.542 L540.021 453.651 Q540.021 458.682 538.271 460.674 Q536.521 462.667 533.536 462.667 Q530.583 462.667 528.802 460.674 Q527.021 458.682 527.021 453.651 L527.021 450.542 Q527.021 445.526 528.794 443.596 Q530.567 441.667 533.505 441.667 Q536.489 441.667 538.255 443.596 Q540.021 445.526 540.021 450.542 Z M537.364 454.073 L537.364 450.135 Q537.364 446.698 536.388 445.284 Q535.411 443.870 533.505 443.870 Q531.646 443.870 530.661 445.284 Q529.677 446.698 529.677 450.135 L529.677 454.073 Q529.677 457.464 530.677 458.964 Q531.677 460.464 533.536 460.464 Q535.442 460.464 536.403 458.964 Q537.364 457.464 537.364 454.073 Z"/>
  <path d="M543.505 461.182 Q543.505 460.542 543.888 460.104 Q544.271 459.667 545.005 459.667 Q545.739 459.667 546.122 460.104 Q546.505 460.542 546.505 461.182 Q546.505 461.807 546.122 462.237 Q545.739 462.667 545.005 462.667 Q544.271 462.667 543.888 462.237 Q543.505 461.807 543.505 461.182 Z M543.505 448.167 Q543.505 447.557 543.888 447.112 Q544.271 446.667 545.005 446.667 Q545.739 446.667 546.122 447.112 Q546.505 447.557 546.505 448.167 Q546.505 448.792 546.122 449.229 Q545.739 449.667 545.005 449.667 Q544.271 449.667 543.888 449.229 Q543.505 448.792 543.505 448.167 Z"/>
  <path d="M563.614 450.542 L563.614 453.651 Q563.614 458.682 561.864 460.674 Q560.114 462.667 557.130 462.667 Q554.177 462.667 552.396 460.674 Q550.614 458.682 550.614 453.651 L550.614 450.542 Q550.614 445.526 552.388 443.596 Q554.161 441.667 557.099 441.667 Q560.083 441.667 561.849 443.596 Q563.614 445.526 563.614 450.542 Z M560.958 454.073 L560.958 450.135 Q560.958 446.698 559.982 445.284 Q559.005 443.870 557.099 443.870 Q555.239 443.870 554.255 445.284 Q553.271 446.698 553.271 450.135 L553.271 454.073 Q553.271 457.464 554.271 458.964 Q555.271 460.464 557.130 460.464 Q559.036 460.464 559.997 458.964 Q560.958 457.464 560.958 454.073 Z"/>
  <path d="M580.099 450.542 L580.099 453.651 Q580.099 458.682 578.349 460.674 Q576.599 462.667 573.614 462.667 Q570.661 462.667 568.880 460.674 Q567.099 458.682 567.099 453.651 L567.099 450.542 Q567.099 445.526 568.872 443.596 Q570.646 441.667 573.583 441.667 Q576.567 441.667 578.333 443.596 Q580.099 445.526 580.099 450.542 Z M577.442 454.073 L577.442 450.135 Q577.442 446.698 576.466 445.284 Q575.489 443.870 573.583 443.870 Q571.724 443.870 570.739 445.284 Q569.755 446.698 569.755 450.135 L569.755 454.073 Q569.755 457.464 570.755 458.964 Q571.755 460.464 573.614 460.464 Q575.521 460.464 576.482 458.964 Q577.442 457.464 577.442 454.073 Z"/>
  <path d="M682.732 450.542 L682.732 453.651 Q682.732 458.682 680.982 460.674 Q679.232 462.667 676.248 462.667 Q673.295 462.667 671.514 460.674 Q669.732 458.682 669.732 453.651 L669.732 450.542 Q669.732 445.526 671.506 443.596 Q673.279 441.667 676.217 441.667 Q679.201 441.667 680.967 443.596 Q682.732 445.526 682.732 450.542 Z M680.076 454.073 L680.076 450.135 Q680.076 446.698 679.100 445.284 Q678.123 443.870 676.217 443.870 Q674.357 443.870 673.373 445.284 Q672.389 446.698 672.389 450.135 L672.389 454.073 Q672.389 457.464 673.389 458.964 Q674.389 460.464 676.248 460.464 Q678.154 460.464 679.115 458.964 Q680.076 457.464 680.076 454.073 Z"/>
  <path d="M699.217 450.542 L699.217 453.651 Q699.217 458.682 697.467 460.674 Q695.717 462.667 692.732 462.667 Q689.779 462.667 687.998 460.674 Q686.217 458.682 686.217 453.651 L686.217 450.542 Q686.217 445.526 687.990 443.596 Q689.764 441.667 692.701 441.667 Q695.686 441.667 697.451 443.596 Q699.217 445.526 699.217 450.542 Z M696.561 454.073 L696.561 450.135 Q696.561 446.698 695.584 445.284 Q694.607 443.870 692.701 443.870 Q690.842 443.870 689.857 445.284 Q688.873 446.698 688.873 450.135 L688.873 454.073 Q688.873 457.464 689.873 458.964 Q690.873 460.464 692.732 460.464 Q694.639 460.464 695.600 458.964 Q696.561 457.464 696.561 454.073 Z"/>
  <path d="M702.701 461.182 Q702.701 460.542 703.084 460.104 Q703.467 459.667 704.201 459.667 Q704.936 459.667 705.318 460.104 Q705.701 460.542 705.701 461.182 Q705.701 461.807 705.318 462.237 Q704.936 462.667 704.201 462.667 Q703.467 462.667 703.084 462.237 Q702.701 461.807 702.701 461.182 Z M702.701 448.167 Q702.701 447.557 703.084 447.112 Q703.467 446.667 704.201 446.667 Q704.936 446.667 705.318 447.112 Q705.701 447.557 705.701 448.167 Q705.701 448.792 705.318 449.229 Q704.936 449.667 704.201 449.667 Q703.467 449.667 703.084 449.229 Q702.701 448.792 702.701 448.167 Z"/>
  <path d="M708.811 456.089 L717.982 441.667 L720.811 441.667 L720.811 455.464 L723.811 455.464 L723.811 457.667 L720.811 457.667 L720.811 462.667 L718.154 462.667 L718.154 457.667 L708.811 457.667 L708.811 456.089 Z M711.764 455.464 L718.154 455.464 L718.154 445.245 L717.826 445.823 L711.764 455.464 Z"/>
  <path d="M729.717 452.229 L727.607 451.682 L728.654 441.667 L739.326 441.667 L739.326 443.870 L730.904 443.870 L730.264 449.510 Q730.842 449.214 731.725 448.940 Q732.607 448.667 733.748 448.667 Q736.607 448.667 738.279 450.581 Q739.951 452.495 739.951 455.698 Q739.951 458.698 738.318 460.682 Q736.686 462.667 733.357 462.667 Q730.826 462.667 728.975 461.214 Q727.123 459.760 726.842 456.776 L729.357 456.776 Q729.873 460.464 733.357 460.464 Q735.232 460.464 736.264 459.159 Q737.295 457.854 737.295 455.620 Q737.295 453.604 736.217 452.237 Q735.139 450.870 733.123 450.870 Q731.795 450.870 731.107 451.237 Q730.420 451.604 729.717 452.229 Z"/>
  <path d="M742.779 461.182 Q742.779 460.542 743.162 460.104 Q743.545 459.667 744.279 459.667 Q745.014 459.667 745.396 460.104 Q745.779 460.542 745.779 461.182 Q745.779 461.807 745.396 462.237 Q745.014 462.667 744.279 462.667 Q743.545 462.667 743.162 462.237 Q742.779 461.807 742.779 461.182 Z M742.779 448.167 Q742.779 447.557 743.162 447.112 Q743.545 446.667 744.279 446.667 Q745.014 446.667 745.396 447.112 Q745.779 447.557 745.779 448.167 Q745.779 448.792 745.396 449.229 Q745.014 449.667 744.279 449.667 Q743.545 449.667 743.162 449.229 Q742.779 448.792 742.779 448.167 Z"/>
  <path d="M762.889 450.542 L762.889 453.651 Q762.889 458.682 761.139 460.674 Q759.389 462.667 756.404 462.667 Q753.451 462.667 751.670 460.674 Q749.889 458.682 749.889 453.651 L749.889 450.542 Q749.889 445.526 751.662 443.596 Q753.436 441.667 756.373 441.667 Q759.357 441.667 761.123 443.596 Q762.889 445.526 762.889 450.542 Z M760.232 454.073 L760.232 450.135 Q760.232 446.698 759.256 445.284 Q758.279 443.870 756.373 443.870 Q754.514 443.870 753.529 445.284 Q752.545 446.698 752.545 450.135 L752.545 454.073 Q752.545 457.464 753.545 458.964 Q754.545 460.464 756.404 460.464 Q758.311 460.464 759.271 458.964 Q760.232 457.464 760.232 454.073 Z"/>
  <path d="M779.373 450.542 L779.373 453.651 Q779.373 458.682 777.623 460.674 Q775.873 462.667 772.889 462.667 Q769.936 462.667 768.154 460.674 Q766.373 458.682 766.373 453.651 L766.373 450.542 Q766.373 445.526 768.146 443.596 Q769.920 441.667 772.857 441.667 Q775.842 441.667 777.607 443.596 Q779.373 445.526 779.373 450.542 Z M776.717 454.073 L776.717 450.135 Q776.717 446.698 775.740 445.284 Q774.764 443.870 772.857 443.870 Q770.998 443.870 770.014 445.284 Q769.029 446.698 769.029 450.135 L769.029 454.073 Q769.029 457.464 770.029 458.964 Q771.029 460.464 772.889 460.464 Q774.795 460.464 775.756 458.964 Q776.717 457.464 776.717 454.073 Z"/>
  <path d="M882.007 450.542 L882.007 453.651 Q882.007 458.682 880.257 460.674 Q878.507 462.667 875.522 462.667 Q872.569 462.667 870.788 460.674 Q869.007 458.682 869.007 453.651 L869.007 450.542 Q869.007 445.526 870.780 443.596 Q872.554 441.667 875.491 441.667 Q878.476 441.667 880.241 443.596 Q882.007 445.526 882.007 450.542 Z M879.351 454.073 L879.351 450.135 Q879.351 446.698 878.374 445.284 Q877.397 443.870 875.491 443.870 Q873.632 443.870 872.647 445.284 Q871.663 446.698 871.663 450.135 L871.663 454.073 Q871.663 457.464 872.663 458.964 Q873.663 460.464 875.522 460.464 Q877.429 460.464 878.390 458.964 Q879.351 457.464 879.351 454.073 Z"/>
  <path d="M894.147 441.667 L894.147 462.667 L891.491 462.667 L891.491 444.979 L885.991 446.932 L885.991 444.542 L893.726 441.667 L894.147 441.667 Z"/>
  <path d="M901.976 461.182 Q901.976 460.542 902.358 460.104 Q902.741 459.667 903.476 459.667 Q904.210 459.667 904.593 460.104 Q904.976 460.542 904.976 461.182 Q904.976 461.807 904.593 462.237 Q904.210 462.667 903.476 462.667 Q902.741 462.667 902.358 462.237 Q901.976 461.807 901.976 461.182 Z M901.976 448.167 Q901.976 447.557 902.358 447.112 Q902.741 446.667 903.476 446.667 Q904.210 446.667 904.593 447.112 Q904.976 447.557 904.976 448.167 Q904.976 448.792 904.593 449.229 Q904.210 449.667 903.476 449.667 Q902.741 449.667 902.358 449.229 Q901.976 448.792 901.976 448.167 Z"/>
  <path d="M922.085 450.542 L922.085 453.651 Q922.085 458.682 920.335 460.674 Q918.585 462.667 915.601 462.667 Q912.647 462.667 910.866 460.674 Q909.085 458.682 909.085 453.651 L909.085 450.542 Q909.085 445.526 910.858 443.596 Q912.632 441.667 915.569 441.667 Q918.554 441.667 920.319 443.596 Q922.085 445.526 922.085 450.542 Z M919.429 454.073 L919.429 450.135 Q919.429 446.698 918.452 445.284 Q917.476 443.870 915.569 443.870 Q913.710 443.870 912.726 445.284 Q911.741 446.698 911.741 450.135 L911.741 454.073 Q911.741 457.464 912.741 458.964 Q913.741 460.464 915.601 460.464 Q917.507 460.464 918.468 458.964 Q919.429 457.464 919.429 454.073 Z"/>
  <path d="M938.569 450.542 L938.569 453.651 Q938.569 458.682 936.819 460.674 Q935.069 462.667 932.085 462.667 Q929.132 462.667 927.351 460.674 Q925.569 458.682 925.569 453.651 L925.569 450.542 Q925.569 445.526 927.343 443.596 Q929.116 441.667 932.054 441.667 Q935.038 441.667 936.804 443.596 Q938.569 445.526 938.569 450.542 Z M935.913 454.073 L935.913 450.135 Q935.913 446.698 934.936 445.284 Q933.960 443.870 932.054 443.870 Q930.194 443.870 929.210 445.284 Q928.226 446.698 928.226 450.135 L928.226 454.073 Q928.226 457.464 929.226 458.964 Q930.226 460.464 932.085 460.464 Q933.991 460.464 934.952 458.964 Q935.913 457.464 935.913 454.073 Z"/>
  <path d="M942.054 461.182 Q942.054 460.542 942.436 460.104 Q942.819 459.667 943.554 459.667 Q944.288 459.667 944.671 460.104 Q945.054 460.542 945.054 461.182 Q945.054 461.807 944.671 462.237 Q944.288 462.667 943.554 462.667 Q942.819 462.667 942.436 462.237 Q942.054 461.807 942.054 461.182 Z M942.054 448.167 Q942.054 447.557 942.436 447.112 Q942.819 446.667 943.554 446.667 Q944.288 446.667 944.671 447.112 Q945.054 447.557 945.054 448.167 Q945.054 448.792 944.671 449.229 Q944.288 449.667 943.554 449.667 Q942.819 449.667 942.436 449.229 Q942.054 448.792 942.054 448.167 Z"/>
  <path d="M962.163 450.542 L962.163 453.651 Q962.163 458.682 960.413 460.674 Q958.663 462.667 955.679 462.667 Q952.726 462.667 950.944 460.674 Q949.163 458.682 949.163 453.651 L949.163 450.542 Q949.163 445.526 950.936 443.596 Q952.710 441.667 955.647 441.667 Q958.632 441.667 960.397 443.596 Q962.163 445.526 962.163 450.542 Z M959.507 454.073 L959.507 450.135 Q959.507 446.698 958.530 445.284 Q957.554 443.870 955.647 443.870 Q953.788 443.870 952.804 445.284 Q951.819 446.698 951.819 450.135 L951.819 454.073 Q951.819 457.464 952.819 458.964 Q953.819 460.464 955.679 460.464 Q957.585 460.464 958.546 458.964 Q959.507 457.464 959.507 454.073 Z"/>
  <path d="M978.647 450.542 L978.647 453.651 Q978.647 458.682 976.897 460.674 Q975.147 462.667 972.163 462.667 Q969.210 462.667 967.429 460.674 Q965.647 458.682 965.647 453.651 L965.647 450.542 Q965.647 445.526 967.421 443.596 Q969.194 441.667 972.132 441.667 Q975.116 441.667 976.882 443.596 Q978.647 445.526 978.647 450.542 Z M975.991 454.073 L975.991 450.135 Q975.991 446.698 975.015 445.284 Q974.038 443.870 972.132 443.870 Q970.272 443.870 969.288 445.284 Q968.304 446.698 968.304 450.135 L968.304 454.073 Q968.304 457.464 969.304 458.964 Q970.304 460.464 972.163 460.464 Q974.069 460.464 975.030 458.964 Q975.991 457.464 975.991 454.073 Z"/>
  <path d="M1081.281 450.542 L1081.281 453.651 Q1081.281 458.682 1079.531 460.674 Q1077.781 462.667 1074.797 462.667 Q1071.844 462.667 1070.062 460.674 Q1068.281 458.682 1068.281 453.651 L1068.281 450.542 Q1068.281 445.526 1070.055 443.596 Q1071.828 441.667 1074.765 441.667 Q1077.750 441.667 1079.515 443.596 Q1081.281 445.526 1081.281 450.542 Z M1078.625 454.073 L1078.625 450.135 Q1078.625 446.698 1077.648 445.284 Q1076.672 443.870 1074.765 443.870 Q1072.906 443.870 1071.922 445.284 Q1070.937 446.698 1070.937 450.135 L1070.937 454.073 Q1070.937 457.464 1071.937 458.964 Q1072.937 460.464 1074.797 460.464 Q1076.703 460.464 1077.664 458.964 Q1078.625 457.464 1078.625 454.073 Z"/>
  <path d="M1093.422 441.667 L1093.422 462.667 L1090.765 462.667 L1090.765 444.979 L1085.265 446.932 L1085.265 444.542 L1093.000 441.667 L1093.422 441.667 Z"/>
  <path d="M1101.250 461.182 Q1101.250 460.542 1101.633 460.104 Q1102.015 459.667 1102.750 459.667 Q1103.484 459.667 1103.867 460.104 Q1104.250 460.542 1104.250 461.182 Q1104.250 461.807 1103.867 462.237 Q1103.484 462.667 1102.750 462.667 Q1102.015 462.667 1101.633 462.237 Q1101.250 461.807 1101.250 461.182 Z M1101.250 448.167 Q1101.250 447.557 1101.633 447.112 Q1102.015 446.667 1102.750 446.667 Q1103.484 446.667 1103.867 447.112 Q1104.250 447.557 1104.250 448.167 Q1104.250 448.792 1103.867 449.229 Q1103.484 449.667 1102.750 449.667 Q1102.015 449.667 1101.633 449.229 Q1101.250 448.792 1101.250 448.167 Z"/>
  <path d="M1117.015 441.667 L1117.015 462.667 L1114.359 462.667 L1114.359 444.979 L1108.859 446.932 L1108.859 444.542 L1116.594 441.667 L1117.015 441.667 Z"/>
  <path d="M1128.265 452.229 L1126.156 451.682 L1127.203 441.667 L1137.875 441.667 L1137.875 443.870 L1129.453 443.870 L1128.812 449.510 Q1129.390 449.214 1130.273 448.940 Q1131.156 448.667 1132.297 448.667 Q1135.156 448.667 1136.828 450.581 Q1138.500 452.495 1138.500 455.698 Q1138.500 458.698 1136.867 460.682 Q1135.234 462.667 1131.906 462.667 Q1129.375 462.667 1127.523 461.214 Q1125.672 459.760 1125.390 456.776 L1127.906 456.776 Q1128.422 460.464 1131.906 460.464 Q1133.781 460.464 1134.812 459.159 Q1135.844 457.854 1135.844 455.620 Q1135.844 453.604 1134.765 452.237 Q1133.687 450.870 1131.672 450.870 Q1130.344 450.870 1129.656 451.237 Q1128.969 451.604 1128.265 452.229 Z"/>
  <path d="M1141.328 461.182 Q1141.328 460.542 1141.711 460.104 Q1142.094 459.667 1142.828 459.667 Q1143.562 459.667 1143.945 460.104 Q1144.328 460.542 1144.328 461.182 Q1144.328 461.807 1143.945 462.237 Q1143.562 462.667 1142.828 462.667 Q1142.094 462.667 1141.711 462.237 Q1141.328 461.807 1141.328 461.182 Z M1141.328 448.167 Q1141.328 447.557 1141.711 447.112 Q1142.094 446.667 1142.828 446.667 Q1143.562 446.667 1143.945 447.112 Q1144.328 447.557 1144.328 448.167 Q1144.328 448.792 1143.945 449.229 Q1143.562 449.667 1142.828 449.667 Q1142.094 449.667 1141.711 449.229 Q1141.328 448.792 1141.328 448.167 Z"/>
  <path d="M1161.437 450.542 L1161.437 453.651 Q1161.437 458.682 1159.687 460.674 Q1157.937 462.667 1154.953 462.667 Q1152.000 462.667 1150.219 460.674 Q1148.437 458.682 1148.437 453.651 L1148.437 450.542 Q1148.437 445.526 1150.211 443.596 Q1151.984 441.667 1154.922 441.667 Q1157.906 441.667 1159.672 443.596 Q1161.437 445.526 1161.437 450.542 Z M1158.781 454.073 L1158.781 450.135 Q1158.781 446.698 1157.805 445.284 Q1156.828 443.870 1154.922 443.870 Q1153.062 443.870 1152.078 445.284 Q1151.094 446.698 1151.094 450.135 L1151.094 454.073 Q1151.094 457.464 1152.094 458.964 Q1153.094 460.464 1154.953 460.464 Q1156.859 460.464 1157.820 458.964 Q1158.781 457.464 1158.781 454.073 Z"/>
  <path d="M1177.922 450.542 L1177.922 453.651 Q1177.922 458.682 1176.172 460.674 Q1174.422 462.667 1171.437 462.667 Q1168.484 462.667 1166.703 460.674 Q1164.922 458.682 1164.922 453.651 L1164.922 450.542 Q1164.922 445.526 1166.695 443.596 Q1168.469 441.667 1171.406 441.667 Q1174.390 441.667 1176.156 443.596 Q1177.922 445.526 1177.922 450.542 Z M1175.265 454.073 L1175.265 450.135 Q1175.265 446.698 1174.289 445.284 Q1173.312 443.870 1171.406 443.870 Q1169.547 443.870 1168.562 445.284 Q1167.578 446.698 1167.578 450.135 L1167.578 454.073 Q1167.578 457.464 1168.578 458.964 Q1169.578 460.464 1171.437 460.464 Q1173.344 460.464 1174.305 458.964 Q1175.265 457.464 1175.265 454.073 Z"/>
  <path d="M1280.555 450.542 L1280.555 453.651 Q1280.555 458.682 1278.805 460.674 Q1277.055 462.667 1274.071 462.667 Q1271.118 462.667 1269.337 460.674 Q1267.555 458.682 1267.555 453.651 L1267.555 450.542 Q1267.555 445.526 1269.329 443.596 Q1271.102 441.667 1274.040 441.667 Q1277.024 441.667 1278.790 443.596 Q1280.555 445.526 1280.555 450.542 Z M1277.899 454.073 L1277.899 450.135 Q1277.899 446.698 1276.923 445.284 Q1275.946 443.870 1274.040 443.870 Q1272.180 443.870 1271.196 445.284 Q1270.212 446.698 1270.212 450.135 L1270.212 454.073 Q1270.212 457.464 1271.212 458.964 Q1272.212 460.464 1274.071 460.464 Q1275.977 460.464 1276.938 458.964 Q1277.899 457.464 1277.899 454.073 Z"/>
  <path d="M1292.696 441.667 L1292.696 462.667 L1290.040 462.667 L1290.040 444.979 L1284.540 446.932 L1284.540 444.542 L1292.274 441.667 L1292.696 441.667 Z"/>
  <path d="M1300.524 461.182 Q1300.524 460.542 1300.907 460.104 Q1301.290 459.667 1302.024 459.667 Q1302.759 459.667 1303.141 460.104 Q1303.524 460.542 1303.524 461.182 Q1303.524 461.807 1303.141 462.237 Q1302.759 462.667 1302.024 462.667 Q1301.290 462.667 1300.907 462.237 Q1300.524 461.807 1300.524 461.182 Z M1300.524 448.167 Q1300.524 447.557 1300.907 447.112 Q1301.290 446.667 1302.024 446.667 Q1302.759 446.667 1303.141 447.112 Q1303.524 447.557 1303.524 448.167 Q1303.524 448.792 1303.141 449.229 Q1302.759 449.667 1302.024 449.667 Q1301.290 449.667 1300.907 449.229 Q1300.524 448.792 1300.524 448.167 Z"/>
  <path d="M1313.555 452.667 L1311.680 452.667 L1311.680 450.464 L1313.555 450.464 Q1315.618 450.464 1316.626 449.534 Q1317.634 448.604 1317.634 447.214 Q1317.634 443.870 1314.040 443.870 Q1312.352 443.870 1311.321 444.753 Q1310.290 445.635 1310.290 447.120 L1307.634 447.120 Q1307.634 444.854 1309.391 443.260 Q1311.149 441.667 1314.024 441.667 Q1316.821 441.667 1318.555 443.081 Q1320.290 444.495 1320.290 447.229 Q1320.290 448.323 1319.509 449.565 Q1318.727 450.807 1317.024 451.495 Q1319.118 452.182 1319.876 453.604 Q1320.634 455.026 1320.634 456.464 Q1320.634 459.432 1318.774 461.049 Q1316.915 462.667 1314.134 462.667 Q1311.462 462.667 1309.548 461.135 Q1307.634 459.604 1307.634 456.776 L1310.290 456.776 Q1310.290 458.448 1311.321 459.456 Q1312.352 460.464 1314.134 460.464 Q1315.915 460.464 1316.946 459.495 Q1317.977 458.526 1317.977 456.526 Q1317.977 454.542 1316.782 453.604 Q1315.587 452.667 1313.555 452.667 Z"/>
  <path d="M1337.118 450.542 L1337.118 453.651 Q1337.118 458.682 1335.368 460.674 Q1333.618 462.667 1330.634 462.667 Q1327.680 462.667 1325.899 460.674 Q1324.118 458.682 1324.118 453.651 L1324.118 450.542 Q1324.118 445.526 1325.891 443.596 Q1327.665 441.667 1330.602 441.667 Q1333.587 441.667 1335.352 443.596 Q1337.118 445.526 1337.118 450.542 Z M1334.462 454.073 L1334.462 450.135 Q1334.462 446.698 1333.485 445.284 Q1332.509 443.870 1330.602 443.870 Q1328.743 443.870 1327.759 445.284 Q1326.774 446.698 1326.774 450.135 L1326.774 454.073 Q1326.774 457.464 1327.774 458.964 Q1328.774 460.464 1330.634 460.464 Q1332.540 460.464 1333.501 458.964 Q1334.462 457.464 1334.462 454.073 Z"/>
  <path d="M1340.602 461.182 Q1340.602 460.542 1340.985 460.104 Q1341.368 459.667 1342.102 459.667 Q1342.837 459.667 1343.220 460.104 Q1343.602 460.542 1343.602 461.182 Q1343.602 461.807 1343.220 462.237 Q1342.837 462.667 1342.102 462.667 Q1341.368 462.667 1340.985 462.237 Q1340.602 461.807 1340.602 461.182 Z M1340.602 448.167 Q1340.602 447.557 1340.985 447.112 Q1341.368 446.667 1342.102 446.667 Q1342.837 446.667 1343.220 447.112 Q1343.602 447.557 1343.602 448.167 Q1343.602 448.792 1343.220 449.229 Q1342.837 449.667 1342.102 449.667 Q1341.368 449.667 1340.985 449.229 Q1340.602 448.792 1340.602 448.167 Z"/>
  <path d="M1360.712 450.542 L1360.712 453.651 Q1360.712 458.682 1358.962 460.674 Q1357.212 462.667 1354.227 462.667 Q1351.274 462.667 1349.493 460.674 Q1347.712 458.682 1347.712 453.651 L1347.712 450.542 Q1347.712 445.526 1349.485 443.596 Q1351.259 441.667 1354.196 441.667 Q1357.180 441.667 1358.946 443.596 Q1360.712 445.526 1360.712 450.542 Z M1358.055 454.073 L1358.055 450.135 Q1358.055 446.698 1357.079 445.284 Q1356.102 443.870 1354.196 443.870 Q1352.337 443.870 1351.352 445.284 Q1350.368 446.698 1350.368 450.135 L1350.368 454.073 Q1350.368 457.464 1351.368 458.964 Q1352.368 460.464 1354.227 460.464 Q1356.134 460.464 1357.095 458.964 Q1358.055 457.464 1358.055 454.073 Z"/>
  <path d="M1377.196 450.542 L1377.196 453.651 Q1377.196 458.682 1375.446 460.674 Q1373.696 462.667 1370.712 462.667 Q1367.759 462.667 1365.977 460.674 Q1364.196 458.682 1364.196 453.651 L1364.196 450.542 Q1364.196 445.526 1365.970 443.596 Q1367.743 441.667 1370.680 441.667 Q1373.665 441.667 1375.430 443.596 Q1377.196 445.526 1377.196 450.542 Z M1374.540 454.073 L1374.540 450.135 Q1374.540 446.698 1373.563 445.284 Q1372.587 443.870 1370.680 443.870 Q1368.821 443.870 1367.837 445.284 Q1366.852 446.698 1366.852 450.135 L1366.852 454.073 Q1366.852 457.464 1367.852 458.964 Q1368.852 460.464 1370.712 460.464 Q1372.618 460.464 1373.579 458.964 Q1374.540 457.464 1374.540 454.073 Z"/>
  <path d="M1479.830 450.542 L1479.830 453.651 Q1479.830 458.682 1478.080 460.674 Q1476.330 462.667 1473.345 462.667 Q1470.392 462.667 1468.611 460.674 Q1466.830 458.682 1466.830 453.651 L1466.830 450.542 Q1466.830 445.526 1468.603 443.596 Q1470.377 441.667 1473.314 441.667 Q1476.299 441.667 1478.064 443.596 Q1479.830 445.526 1479.830 450.542 Z M1477.174 454.073 L1477.174 450.135 Q1477.174 446.698 1476.197 445.284 Q1475.220 443.870 1473.314 443.870 Q1471.455 443.870 1470.470 445.284 Q1469.486 446.698 1469.486 450.135 L1469.486 454.073 Q1469.486 457.464 1470.486 458.964 Q1471.486 460.464 1473.345 460.464 Q1475.252 460.464 1476.213 458.964 Q1477.174 457.464 1477.174 454.073 Z"/>
  <path d="M1491.970 441.667 L1491.970 462.667 L1489.314 462.667 L1489.314 444.979 L1483.814 446.932 L1483.814 444.542 L1491.549 441.667 L1491.970 441.667 Z"/>
  <path d="M1499.799 461.182 Q1499.799 460.542 1500.181 460.104 Q1500.564 459.667 1501.299 459.667 Q1502.033 459.667 1502.416 460.104 Q1502.799 460.542 1502.799 461.182 Q1502.799 461.807 1502.416 462.237 Q1502.033 462.667 1501.299 462.667 Q1500.564 462.667 1500.181 462.237 Q1499.799 461.807 1499.799 461.182 Z M1499.799 448.167 Q1499.799 447.557 1500.181 447.112 Q1500.564 446.667 1501.299 446.667 Q1502.033 446.667 1502.416 447.112 Q1502.799 447.557 1502.799 448.167 Q1502.799 448.792 1502.416 449.229 Q1502.033 449.667 1501.299 449.667 Q1500.564 449.667 1500.181 449.229 Q1499.799 448.792 1499.799 448.167 Z"/>
  <path d="M1505.908 456.089 L1515.080 441.667 L1517.908 441.667 L1517.908 455.464 L1520.908 455.464 L1520.908 457.667 L1517.908 457.667 L1517.908 462.667 L1515.252 462.667 L1515.252 457.667 L1505.908 457.667 L1505.908 456.089 Z M1508.861 455.464 L1515.252 455.464 L1515.252 445.245 L1514.924 445.823 L1508.861 455.464 Z"/>
  <path d="M1526.814 452.229 L1524.705 451.682 L1525.752 441.667 L1536.424 441.667 L1536.424 443.870 L1528.002 443.870 L1527.361 449.510 Q1527.939 449.214 1528.822 448.940 Q1529.705 448.667 1530.845 448.667 Q1533.705 448.667 1535.377 450.581 Q1537.049 452.495 1537.049 455.698 Q1537.049 458.698 1535.416 460.682 Q1533.783 462.667 1530.455 462.667 Q1527.924 462.667 1526.072 461.214 Q1524.220 459.760 1523.939 456.776 L1526.455 456.776 Q1526.970 460.464 1530.455 460.464 Q1532.330 460.464 1533.361 459.159 Q1534.392 457.854 1534.392 455.620 Q1534.392 453.604 1533.314 452.237 Q1532.236 450.870 1530.220 450.870 Q1528.892 450.870 1528.205 451.237 Q1527.517 451.604 1526.814 452.229 Z"/>
  <path d="M1539.877 461.182 Q1539.877 460.542 1540.260 460.104 Q1540.642 459.667 1541.377 459.667 Q1542.111 459.667 1542.494 460.104 Q1542.877 460.542 1542.877 461.182 Q1542.877 461.807 1542.494 462.237 Q1542.111 462.667 1541.377 462.667 Q1540.642 462.667 1540.260 462.237 Q1539.877 461.807 1539.877 461.182 Z M1539.877 448.167 Q1539.877 447.557 1540.260 447.112 Q1540.642 446.667 1541.377 446.667 Q1542.111 446.667 1542.494 447.112 Q1542.877 447.557 1542.877 448.167 Q1542.877 448.792 1542.494 449.229 Q1542.111 449.667 1541.377 449.667 Q1540.642 449.667 1540.260 449.229 Q1539.877 448.792 1539.877 448.167 Z"/>
  <path d="M1559.986 450.542 L1559.986 453.651 Q1559.986 458.682 1558.236 460.674 Q1556.486 462.667 1553.502 462.667 Q1550.549 462.667 1548.767 460.674 Q1546.986 458.682 1546.986 453.651 L1546.986 450.542 Q1546.986 445.526 1548.760 443.596 Q1550.533 441.667 1553.470 441.667 Q1556.455 441.667 1558.220 443.596 Q1559.986 445.526 1559.986 450.542 Z M1557.330 454.073 L1557.330 450.135 Q1557.330 446.698 1556.353 445.284 Q1555.377 443.870 1553.470 443.870 Q1551.611 443.870 1550.627 445.284 Q1549.642 446.698 1549.642 450.135 L1549.642 454.073 Q1549.642 457.464 1550.642 458.964 Q1551.642 460.464 1553.502 460.464 Q1555.408 460.464 1556.369 458.964 Q1557.330 457.464 1557.330 454.073 Z"/>
  <path d="M1576.470 450.542 L1576.470 453.651 Q1576.470 458.682 1574.720 460.674 Q1572.970 462.667 1569.986 462.667 Q1567.033 462.667 1565.252 460.674 Q1563.470 458.682 1563.470 453.651 L1563.470 450.542 Q1563.470 445.526 1565.244 443.596 Q1567.017 441.667 1569.955 441.667 Q1572.939 441.667 1574.705 443.596 Q1576.470 445.526 1576.470 450.542 Z M1573.814 454.073 L1573.814 450.135 Q1573.814 446.698 1572.838 445.284 Q1571.861 443.870 1569.955 443.870 Q1568.095 443.870 1567.111 445.284 Q1566.127 446.698 1566.127 450.135 L1566.127 454.073 Q1566.127 457.464 1567.127 458.964 Q1568.127 460.464 1569.986 460.464 Q1571.892 460.464 1572.853 458.964 Q1573.814 457.464 1573.814 454.073 Z"/>
  <path d="M126.472 411.200 L126.472 29.333" fill="none" stroke="#000000" stroke-width="2.667"/>
  <path d="M126.472 411.200 L137.139 411.200" fill="none" stroke="#000000" stroke-width="2.667"/>
  <path d="M126.472 373.013 L137.139 373.013" fill="none" stroke="#000000" stroke-width="2.667"/>
  <path d="M126.472 334.827 L137.139 334.827" fill="none" stroke="#000000" stroke-width="2.667"/>
  <path d="M126.472 296.640 L137.139 296.640" fill="none" stroke="#000000" stroke-width="2.667"/>
  <path d="M126.472 258.453 L137.139 258.453" fill="none" stroke="#000000" stroke-width="2.667"/>
  <path d="M126.472 220.267 L137.139 220.267" fill="none" stroke="#000000" stroke-width="2.667"/>
  <path d="M126.472 182.080 L137.139 182.080" fill="none" stroke="#000000" stroke-width="2.667"/>
  <path d="M126.472 143.893 L137.139 143.893" fill="none" stroke="#000000" stroke-width="2.667"/>
  <path d="M126.472 105.707 L137.139 105.707" fill="none" stroke="#000000" stroke-width="2.667"/>
  <path d="M126.472 67.520 L137.139 67.520" fill="none" stroke="#000000" stroke-width="2.667"/>
  <path d="M126.472 29.333 L137.139 29.333" fill="none" stroke="#000000" stroke-width="2.667"/>
  <path d="M77.302 409.075 L77.302 412.184 Q77.302 417.216 75.552 419.208 Q73.802 421.200 70.818 421.200 Q67.865 421.200 66.083 419.208 Q64.302 417.216 64.302 412.184 L64.302 409.075 Q64.302 404.059 66.076 402.130 Q67.849 400.200 70.786 400.200 Q73.771 400.200 75.536 402.130 Q77.302 404.059 77.302 409.075 Z M74.646 412.606 L74.646 408.669 Q74.646 405.231 73.669 403.817 Q72.693 402.403 70.786 402.403 Q68.927 402.403 67.943 403.817 Q66.958 405.231 66.958 408.669 L66.958 412.606 Q66.958 415.997 67.958 417.497 Q68.958 418.997 70.818 418.997 Q72.724 418.997 73.685 417.497 Q74.646 415.997 74.646 412.606 Z"/>
  <path d="M80.786 419.716 Q80.786 419.075 81.169 418.637 Q81.552 418.200 82.286 418.200 Q83.021 418.200 83.404 418.637 Q83.786 419.075 83.786 419.716 Q83.786 420.341 83.404 420.770 Q83.021 421.200 82.286 421.200 Q81.552 421.200 81.169 420.770 Q80.786 420.341 80.786 419.716 Z"/>
  <path d="M101.521 409.075 L101.521 412.184 Q101.521 417.216 99.771 419.208 Q98.021 421.200 95.036 421.200 Q92.083 421.200 90.302 419.208 Q88.521 417.216 88.521 412.184 L88.521 409.075 Q88.521 404.059 90.294 402.130 Q92.068 400.200 95.005 400.200 Q97.990 400.200 99.755 402.130 Q101.521 404.059 101.521 409.075 Z M98.865 412.606 L98.865 408.669 Q98.865 405.231 97.888 403.817 Q96.911 402.403 95.005 402.403 Q93.146 402.403 92.161 403.817 Q91.177 405.231 91.177 408.669 L91.177 412.606 Q91.177 415.997 92.177 417.497 Q93.177 418.997 95.036 418.997 Q96.943 418.997 97.904 417.497 Q98.865 415.997 98.865 412.606 Z"/>
  <path d="M56.474 362.013 L56.474 383.013 L53.818 383.013 L53.818 365.326 L48.318 367.279 L48.318 364.888 L56.052 362.013 L56.474 362.013 Z"/>
  <path d="M77.302 370.888 L77.302 373.998 Q77.302 379.029 75.552 381.021 Q73.802 383.013 70.818 383.013 Q67.865 383.013 66.083 381.021 Q64.302 379.029 64.302 373.998 L64.302 370.888 Q64.302 365.873 66.076 363.943 Q67.849 362.013 70.786 362.013 Q73.771 362.013 75.536 363.943 Q77.302 365.873 77.302 370.888 Z M74.646 374.420 L74.646 370.482 Q74.646 367.045 73.669 365.631 Q72.693 364.216 70.786 364.216 Q68.927 364.216 67.943 365.631 Q66.958 367.045 66.958 370.482 L66.958 374.420 Q66.958 377.810 67.958 379.310 Q68.958 380.810 70.818 380.810 Q72.724 380.810 73.685 379.310 Q74.646 377.810 74.646 374.420 Z"/>
  <path d="M80.786 381.529 Q80.786 380.888 81.169 380.451 Q81.552 380.013 82.286 380.013 Q83.021 380.013 83.404 380.451 Q83.786 380.888 83.786 381.529 Q83.786 382.154 83.404 382.584 Q83.021 383.013 82.286 383.013 Q81.552 383.013 81.169 382.584 Q80.786 382.154 80.786 381.529 Z"/>
  <path d="M101.521 370.888 L101.521 373.998 Q101.521 379.029 99.771 381.021 Q98.021 383.013 95.036 383.013 Q92.083 383.013 90.302 381.021 Q88.521 379.029 88.521 373.998 L88.521 370.888 Q88.521 365.873 90.294 363.943 Q92.068 362.013 95.005 362.013 Q97.990 362.013 99.755 363.943 Q101.521 365.873 101.521 370.888 Z M98.865 374.420 L98.865 370.482 Q98.865 367.045 97.888 365.631 Q96.911 364.216 95.005 364.216 Q93.146 364.216 92.161 365.631 Q91.177 367.045 91.177 370.482 L91.177 374.420 Q91.177 377.810 92.177 379.310 Q93.177 380.810 95.036 380.810 Q96.943 380.810 97.904 379.310 Q98.865 377.810 98.865 374.420 Z"/>
  <path d="M60.818 342.624 L60.818 344.827 L46.818 344.827 L46.818 342.905 L53.865 335.389 Q55.802 333.295 56.482 332.100 Q57.161 330.905 57.161 329.686 Q57.161 328.186 56.216 327.108 Q55.271 326.030 53.568 326.030 Q51.505 326.030 50.490 327.202 Q49.474 328.374 49.474 330.217 L46.818 330.217 Q46.818 327.592 48.536 325.709 Q50.255 323.827 53.568 323.827 Q56.505 323.827 58.161 325.342 Q59.818 326.858 59.818 329.358 Q59.818 331.186 58.669 333.045 Q57.521 334.905 55.943 336.624 L50.411 342.624 L60.818 342.624 Z"/>
  <path d="M77.302 332.702 L77.302 335.811 Q77.302 340.842 75.552 342.834 Q73.802 344.827 70.818 344.827 Q67.865 344.827 66.083 342.834 Q64.302 340.842 64.302 335.811 L64.302 332.702 Q64.302 327.686 66.076 325.756 Q67.849 323.827 70.786 323.827 Q73.771 323.827 75.536 325.756 Q77.302 327.686 77.302 332.702 Z M74.646 336.233 L74.646 332.295 Q74.646 328.858 73.669 327.444 Q72.693 326.030 70.786 326.030 Q68.927 326.030 67.943 327.444 Q66.958 328.858 66.958 332.295 L66.958 336.233 Q66.958 339.624 67.958 341.124 Q68.958 342.624 70.818 342.624 Q72.724 342.624 73.685 341.124 Q74.646 339.624 74.646 336.233 Z"/>
  <path d="M80.786 343.342 Q80.786 342.702 81.169 342.264 Q81.552 341.827 82.286 341.827 Q83.021 341.827 83.404 342.264 Q83.786 342.702 83.786 343.342 Q83.786 343.967 83.404 344.397 Q83.021 344.827 82.286 344.827 Q81.552 344.827 81.169 344.397 Q80.786 343.967 80.786 343.342 Z"/>
  <path d="M101.521 332.702 L101.521 335.811 Q101.521 340.842 99.771 342.834 Q98.021 344.827 95.036 344.827 Q92.083 344.827 90.302 342.834 Q88.521 340.842 88.521 335.811 L88.521 332.702 Q88.521 327.686 90.294 325.756 Q92.068 323.827 95.005 323.827 Q97.990 323.827 99.755 325.756 Q101.521 327.686 101.521 332.702 Z M98.865 336.233 L98.865 332.295 Q98.865 328.858 97.888 327.444 Q96.911 326.030 95.005 326.030 Q93.146 326.030 92.161 327.444 Q91.177 328.858 91.177 332.295 L91.177 336.233 Q91.177 339.624 92.177 341.124 Q93.177 342.624 95.036 342.624 Q96.943 342.624 97.904 341.124 Q98.865 339.624 98.865 336.233 Z"/>
  <path d="M53.740 296.640 L51.865 296.640 L51.865 294.437 L53.740 294.437 Q55.802 294.437 56.810 293.507 Q57.818 292.577 57.818 291.187 Q57.818 287.843 54.224 287.843 Q52.536 287.843 51.505 288.726 Q50.474 289.609 50.474 291.093 L47.818 291.093 Q47.818 288.827 49.576 287.234 Q51.333 285.640 54.208 285.640 Q57.005 285.640 58.740 287.054 Q60.474 288.468 60.474 291.202 Q60.474 292.296 59.693 293.538 Q58.911 294.781 57.208 295.468 Q59.302 296.156 60.060 297.577 Q60.818 298.999 60.818 300.437 Q60.818 303.406 58.958 305.023 Q57.099 306.640 54.318 306.640 Q51.646 306.640 49.732 305.109 Q47.818 303.577 47.818 300.749 L50.474 300.749 Q50.474 302.421 51.505 303.429 Q52.536 304.437 54.318 304.437 Q56.099 304.437 57.130 303.468 Q58.161 302.499 58.161 300.499 Q58.161 298.515 56.966 297.577 Q55.771 296.640 53.740 296.640 Z"/>
  <path d="M77.302 294.515 L77.302 297.624 Q77.302 302.656 75.552 304.648 Q73.802 306.640 70.818 306.640 Q67.865 306.640 66.083 304.648 Q64.302 302.656 64.302 297.624 L64.302 294.515 Q64.302 289.499 66.076 287.570 Q67.849 285.640 70.786 285.640 Q73.771 285.640 75.536 287.570 Q77.302 289.499 77.302 294.515 Z M74.646 298.046 L74.646 294.109 Q74.646 290.671 73.669 289.257 Q72.693 287.843 70.786 287.843 Q68.927 287.843 67.943 289.257 Q66.958 290.671 66.958 294.109 L66.958 298.046 Q66.958 301.437 67.958 302.937 Q68.958 304.437 70.818 304.437 Q72.724 304.437 73.685 302.937 Q74.646 301.437 74.646 298.046 Z"/>
  <path d="M80.786 305.156 Q80.786 304.515 81.169 304.077 Q81.552 303.640 82.286 303.640 Q83.021 303.640 83.404 304.077 Q83.786 304.515 83.786 305.156 Q83.786 305.781 83.404 306.210 Q83.021 306.640 82.286 306.640 Q81.552 306.640 81.169 306.210 Q80.786 305.781 80.786 305.156 Z"/>
  <path d="M101.521 294.515 L101.521 297.624 Q101.521 302.656 99.771 304.648 Q98.021 306.640 95.036 306.640 Q92.083 306.640 90.302 304.648 Q88.521 302.656 88.521 297.624 L88.521 294.515 Q88.521 289.499 90.294 287.570 Q92.068 285.640 95.005 285.640 Q97.990 285.640 99.755 287.570 Q101.521 289.499 101.521 294.515 Z M98.865 298.046 L98.865 294.109 Q98.865 290.671 97.888 289.257 Q96.911 287.843 95.005 287.843 Q93.146 287.843 92.161 289.257 Q91.177 290.671 91.177 294.109 L91.177 298.046 Q91.177 301.437 92.177 302.937 Q93.177 304.437 95.036 304.437 Q96.943 304.437 97.904 302.937 Q98.865 301.437 98.865 298.046 Z"/>
  <path d="M46.818 261.875 L55.990 247.453 L58.818 247.453 L58.818 261.250 L61.818 261.250 L61.818 263.453 L58.818 263.453 L58.818 268.453 L56.161 268.453 L56.161 263.453 L46.818 263.453 L46.818 261.875 Z M49.771 261.250 L56.161 261.250 L56.161 251.031 L55.833 251.610 L49.771 261.250 Z"/>
  <path d="M77.302 256.328 L77.302 259.438 Q77.302 264.469 75.552 266.461 Q73.802 268.453 70.818 268.453 Q67.865 268.453 66.083 266.461 Q64.302 264.469 64.302 259.438 L64.302 256.328 Q64.302 251.313 66.076 249.383 Q67.849 247.453 70.786 247.453 Q73.771 247.453 75.536 249.383 Q77.302 251.313 77.302 256.328 Z M74.646 259.860 L74.646 255.922 Q74.646 252.485 73.669 251.071 Q72.693 249.656 70.786 249.656 Q68.927 249.656 67.943 251.071 Q66.958 252.485 66.958 255.922 L66.958 259.860 Q66.958 263.250 67.958 264.750 Q68.958 266.250 70.818 266.250 Q72.724 266.250 73.685 264.750 Q74.646 263.250 74.646 259.860 Z"/>
  <path d="M80.786 266.969 Q80.786 266.328 81.169 265.891 Q81.552 265.453 82.286 265.453 Q83.021 265.453 83.404 265.891 Q83.786 266.328 83.786 266.969 Q83.786 267.594 83.404 268.024 Q83.021 268.453 82.286 268.453 Q81.552 268.453 81.169 268.024 Q80.786 267.594 80.786 266.969 Z"/>
  <path d="M101.521 256.328 L101.521 259.438 Q101.521 264.469 99.771 266.461 Q98.021 268.453 95.036 268.453 Q92.083 268.453 90.302 266.461 Q88.521 264.469 88.521 259.438 L88.521 256.328 Q88.521 251.313 90.294 249.383 Q92.068 247.453 95.005 247.453 Q97.990 247.453 99.755 249.383 Q101.521 251.313 101.521 256.328 Z M98.865 259.860 L98.865 255.922 Q98.865 252.485 97.888 251.071 Q96.911 249.656 95.005 249.656 Q93.146 249.656 92.161 251.071 Q91.177 252.485 91.177 255.922 L91.177 259.860 Q91.177 263.250 92.177 264.750 Q93.177 266.250 95.036 266.250 Q96.943 266.250 97.904 264.750 Q98.865 263.250 98.865 259.860 Z"/>
  <path d="M51.240 219.829 L49.130 219.282 L50.177 209.267 L60.849 209.267 L60.849 211.470 L52.427 211.470 L51.786 217.110 Q52.365 216.814 53.247 216.540 Q54.130 216.267 55.271 216.267 Q58.130 216.267 59.802 218.181 Q61.474 220.095 61.474 223.298 Q61.474 226.298 59.841 228.282 Q58.208 230.267 54.880 230.267 Q52.349 230.267 50.497 228.814 Q48.646 227.360 48.365 224.376 L50.880 224.376 Q51.396 228.064 54.880 228.064 Q56.755 228.064 57.786 226.759 Q58.818 225.454 58.818 223.220 Q58.818 221.204 57.740 219.837 Q56.661 218.470 54.646 218.470 Q53.318 218.470 52.630 218.837 Q51.943 219.204 51.240 219.829 Z"/>
  <path d="M77.302 218.142 L77.302 221.251 Q77.302 226.282 75.552 228.274 Q73.802 230.267 70.818 230.267 Q67.865 230.267 66.083 228.274 Q64.302 226.282 64.302 221.251 L64.302 218.142 Q64.302 213.126 66.076 211.196 Q67.849 209.267 70.786 209.267 Q73.771 209.267 75.536 211.196 Q77.302 213.126 77.302 218.142 Z M74.646 221.673 L74.646 217.735 Q74.646 214.298 73.669 212.884 Q72.693 211.470 70.786 211.470 Q68.927 211.470 67.943 212.884 Q66.958 214.298 66.958 217.735 L66.958 221.673 Q66.958 225.064 67.958 226.564 Q68.958 228.064 70.818 228.064 Q72.724 228.064 73.685 226.564 Q74.646 225.064 74.646 221.673 Z"/>
  <path d="M80.786 228.782 Q80.786 228.142 81.169 227.704 Q81.552 227.267 82.286 227.267 Q83.021 227.267 83.404 227.704 Q83.786 228.142 83.786 228.782 Q83.786 229.407 83.404 229.837 Q83.021 230.267 82.286 230.267 Q81.552 230.267 81.169 229.837 Q80.786 229.407 80.786 228.782 Z"/>
  <path d="M101.521 218.142 L101.521 221.251 Q101.521 226.282 99.771 228.274 Q98.021 230.267 95.036 230.267 Q92.083 230.267 90.302 228.274 Q88.521 226.282 88.521 221.251 L88.521 218.142 Q88.521 213.126 90.294 211.196 Q92.068 209.267 95.005 209.267 Q97.990 209.267 99.755 211.196 Q101.521 213.126 101.521 218.142 Z M98.865 221.673 L98.865 217.735 Q98.865 214.298 97.888 212.884 Q96.911 211.470 95.005 211.470 Q93.146 211.470 92.161 212.884 Q91.177 214.298 91.177 217.735 L91.177 221.673 Q91.177 225.064 92.177 226.564 Q93.177 228.064 95.036 228.064 Q96.943 228.064 97.904 226.564 Q98.865 225.064 98.865 221.673 Z"/>
  <path d="M60.818 184.861 Q60.818 187.877 59.185 189.978 Q57.552 192.080 54.427 192.080 Q52.208 192.080 50.740 190.885 Q49.271 189.689 48.544 187.877 Q47.818 186.064 47.818 184.127 L47.818 182.892 Q47.818 179.986 48.622 177.275 Q49.427 174.564 51.544 172.822 Q53.661 171.080 57.615 171.080 L57.833 171.080 L57.833 173.283 L57.615 173.283 Q55.146 173.283 53.638 174.205 Q52.130 175.127 51.404 176.603 Q50.677 178.080 50.521 179.767 Q51.365 178.783 52.505 178.330 Q53.646 177.877 54.927 177.877 Q56.974 177.877 58.271 178.892 Q59.568 179.908 60.193 181.517 Q60.818 183.127 60.818 184.861 Z M50.474 184.033 Q50.474 186.861 51.685 188.369 Q52.896 189.877 54.411 189.877 Q56.193 189.877 57.177 188.510 Q58.161 187.142 58.161 185.002 Q58.161 183.096 57.255 181.588 Q56.349 180.080 54.458 180.080 Q53.130 180.080 52.021 180.932 Q50.911 181.783 50.474 183.002 L50.474 184.033 Z"/>
  <path d="M77.302 179.955 L77.302 183.064 Q77.302 188.096 75.552 190.088 Q73.802 192.080 70.818 192.080 Q67.865 192.080 66.083 190.088 Q64.302 188.096 64.302 183.064 L64.302 179.955 Q64.302 174.939 66.076 173.010 Q67.849 171.080 70.786 171.080 Q73.771 171.080 75.536 173.010 Q77.302 174.939 77.302 179.955 Z M74.646 183.486 L74.646 179.549 Q74.646 176.111 73.669 174.697 Q72.693 173.283 70.786 173.283 Q68.927 173.283 67.943 174.697 Q66.958 176.111 66.958 179.549 L66.958 183.486 Q66.958 186.877 67.958 188.377 Q68.958 189.877 70.818 189.877 Q72.724 189.877 73.685 188.377 Q74.646 186.877 74.646 183.486 Z"/>
  <path d="M80.786 190.596 Q80.786 189.955 81.169 189.517 Q81.552 189.080 82.286 189.080 Q83.021 189.080 83.404 189.517 Q83.786 189.955 83.786 190.596 Q83.786 191.221 83.404 191.650 Q83.021 192.080 82.286 192.080 Q81.552 192.080 81.169 191.650 Q80.786 191.221 80.786 190.596 Z"/>
  <path d="M101.521 179.955 L101.521 183.064 Q101.521 188.096 99.771 190.088 Q98.021 192.080 95.036 192.080 Q92.083 192.080 90.302 190.088 Q88.521 188.096 88.521 183.064 L88.521 179.955 Q88.521 174.939 90.294 173.010 Q92.068 171.080 95.005 171.080 Q97.990 171.080 99.755 173.010 Q101.521 174.939 101.521 179.955 Z M98.865 183.486 L98.865 179.549 Q98.865 176.111 97.888 174.697 Q96.911 173.283 95.005 173.283 Q93.146 173.283 92.161 174.697 Q91.177 176.111 91.177 179.549 L91.177 183.486 Q91.177 186.877 92.177 188.377 Q93.177 189.877 95.036 189.877 Q96.943 189.877 97.904 188.377 Q98.865 186.877 98.865 183.486 Z"/>
  <path d="M60.818 132.893 L60.818 134.393 L52.240 153.893 L49.458 153.893 L58.036 135.096 L46.818 135.096 L46.818 132.893 L60.818 132.893 Z"/>
  <path d="M77.302 141.768 L77.302 144.878 Q77.302 149.909 75.552 151.901 Q73.802 153.893 70.818 153.893 Q67.865 153.893 66.083 151.901 Q64.302 149.909 64.302 144.878 L64.302 141.768 Q64.302 136.753 66.076 134.823 Q67.849 132.893 70.786 132.893 Q73.771 132.893 75.536 134.823 Q77.302 136.753 77.302 141.768 Z M74.646 145.300 L74.646 141.362 Q74.646 137.925 73.669 136.511 Q72.693 135.096 70.786 135.096 Q68.927 135.096 67.943 136.511 Q66.958 137.925 66.958 141.362 L66.958 145.300 Q66.958 148.690 67.958 150.190 Q68.958 151.690 70.818 151.690 Q72.724 151.690 73.685 150.190 Q74.646 148.690 74.646 145.300 Z"/>
  <path d="M80.786 152.409 Q80.786 151.768 81.169 151.331 Q81.552 150.893 82.286 150.893 Q83.021 150.893 83.404 151.331 Q83.786 151.768 83.786 152.409 Q83.786 153.034 83.404 153.464 Q83.021 153.893 82.286 153.893 Q81.552 153.893 81.169 153.464 Q80.786 153.034 80.786 152.409 Z"/>
  <path d="M101.521 141.768 L101.521 144.878 Q101.521 149.909 99.771 151.901 Q98.021 153.893 95.036 153.893 Q92.083 153.893 90.302 151.901 Q88.521 149.909 88.521 144.878 L88.521 141.768 Q88.521 136.753 90.294 134.823 Q92.068 132.893 95.005 132.893 Q97.990 132.893 99.755 134.823 Q101.521 136.753 101.521 141.768 Z M98.865 145.300 L98.865 141.362 Q98.865 137.925 97.888 136.511 Q96.911 135.096 95.005 135.096 Q93.146 135.096 92.161 136.511 Q91.177 137.925 91.177 141.362 L91.177 145.300 Q91.177 148.690 92.177 150.190 Q93.177 151.690 95.036 151.690 Q96.943 151.690 97.904 150.190 Q98.865 148.690 98.865 145.300 Z"/>
  <path d="M60.818 109.738 Q60.818 112.613 58.951 114.160 Q57.083 115.707 54.318 115.707 Q51.552 115.707 49.685 114.160 Q47.818 112.613 47.818 109.738 Q47.818 107.972 48.724 106.629 Q49.630 105.285 51.161 104.582 Q49.771 103.941 48.966 102.777 Q48.161 101.613 48.161 100.144 Q48.161 97.550 49.904 96.129 Q51.646 94.707 54.302 94.707 Q56.990 94.707 58.732 96.129 Q60.474 97.550 60.474 100.144 Q60.474 101.629 59.638 102.785 Q58.802 103.941 57.411 104.582 Q58.974 105.285 59.896 106.629 Q60.818 107.972 60.818 109.738 Z M57.818 100.207 Q57.818 98.769 56.841 97.839 Q55.865 96.910 54.302 96.910 Q52.740 96.910 51.779 97.800 Q50.818 98.691 50.818 100.207 Q50.818 101.707 51.779 102.605 Q52.740 103.504 54.318 103.504 Q55.880 103.504 56.849 102.605 Q57.818 101.707 57.818 100.207 Z M58.161 109.675 Q58.161 107.925 57.091 106.816 Q56.021 105.707 54.302 105.707 Q52.536 105.707 51.505 106.816 Q50.474 107.925 50.474 109.675 Q50.474 111.488 51.505 112.496 Q52.536 113.504 54.318 113.504 Q56.115 113.504 57.138 112.496 Q58.161 111.488 58.161 109.675 Z"/>
  <path d="M77.302 103.582 L77.302 106.691 Q77.302 111.722 75.552 113.714 Q73.802 115.707 70.818 115.707 Q67.865 115.707 66.083 113.714 Q64.302 111.722 64.302 106.691 L64.302 103.582 Q64.302 98.566 66.076 96.636 Q67.849 94.707 70.786 94.707 Q73.771 94.707 75.536 96.636 Q77.302 98.566 77.302 103.582 Z M74.646 107.113 L74.646 103.175 Q74.646 99.738 73.669 98.324 Q72.693 96.910 70.786 96.910 Q68.927 96.910 67.943 98.324 Q66.958 99.738 66.958 103.175 L66.958 107.113 Q66.958 110.504 67.958 112.004 Q68.958 113.504 70.818 113.504 Q72.724 113.504 73.685 112.004 Q74.646 110.504 74.646 107.113 Z"/>
  <path d="M80.786 114.222 Q80.786 113.582 81.169 113.144 Q81.552 112.707 82.286 112.707 Q83.021 112.707 83.404 113.144 Q83.786 113.582 83.786 114.222 Q83.786 114.847 83.404 115.277 Q83.021 115.707 82.286 115.707 Q81.552 115.707 81.169 115.277 Q80.786 114.847 80.786 114.222 Z"/>
  <path d="M101.521 103.582 L101.521 106.691 Q101.521 111.722 99.771 113.714 Q98.021 115.707 95.036 115.707 Q92.083 115.707 90.302 113.714 Q88.521 111.722 88.521 106.691 L88.521 103.582 Q88.521 98.566 90.294 96.636 Q92.068 94.707 95.005 94.707 Q97.990 94.707 99.755 96.636 Q101.521 98.566 101.521 103.582 Z M98.865 107.113 L98.865 103.175 Q98.865 99.738 97.888 98.324 Q96.911 96.910 95.005 96.910 Q93.146 96.910 92.161 98.324 Q91.177 99.738 91.177 103.175 L91.177 107.113 Q91.177 110.504 92.177 112.004 Q93.177 113.504 95.036 113.504 Q96.943 113.504 97.904 112.004 Q98.865 110.504 98.865 107.113 Z"/>
  <path d="M59.818 65.848 Q59.818 67.864 59.474 69.918 Q59.130 71.973 58.138 73.692 Q57.146 75.411 55.201 76.465 Q53.255 77.520 50.068 77.520 L49.802 77.520 L49.802 75.317 L50.068 75.317 Q52.896 75.317 54.427 74.325 Q55.958 73.332 56.560 71.731 Q57.161 70.129 57.161 68.301 Q56.333 69.301 55.185 69.911 Q54.036 70.520 52.693 70.520 Q50.661 70.520 49.357 69.504 Q48.052 68.489 47.435 66.911 Q46.818 65.332 46.818 63.645 Q46.818 60.707 48.443 58.614 Q50.068 56.520 53.240 56.520 Q55.583 56.520 57.044 57.747 Q58.505 58.973 59.161 60.887 Q59.818 62.801 59.818 64.895 L59.818 65.848 Z M49.474 63.520 Q49.474 65.332 50.396 66.825 Q51.318 68.317 53.161 68.317 Q54.490 68.317 55.576 67.512 Q56.661 66.707 57.161 65.536 L57.161 64.520 Q57.161 61.707 55.982 60.215 Q54.802 58.723 53.255 58.723 Q51.458 58.723 50.466 60.098 Q49.474 61.473 49.474 63.520 Z"/>
  <path d="M77.302 65.395 L77.302 68.504 Q77.302 73.536 75.552 75.528 Q73.802 77.520 70.818 77.520 Q67.865 77.520 66.083 75.528 Q64.302 73.536 64.302 68.504 L64.302 65.395 Q64.302 60.379 66.076 58.450 Q67.849 56.520 70.786 56.520 Q73.771 56.520 75.536 58.450 Q77.302 60.379 77.302 65.395 Z M74.646 68.926 L74.646 64.989 Q74.646 61.551 73.669 60.137 Q72.693 58.723 70.786 58.723 Q68.927 58.723 67.943 60.137 Q66.958 61.551 66.958 64.989 L66.958 68.926 Q66.958 72.317 67.958 73.817 Q68.958 75.317 70.818 75.317 Q72.724 75.317 73.685 73.817 Q74.646 72.317 74.646 68.926 Z"/>
  <path d="M80.786 76.036 Q80.786 75.395 81.169 74.957 Q81.552 74.520 82.286 74.520 Q83.021 74.520 83.404 74.957 Q83.786 75.395 83.786 76.036 Q83.786 76.661 83.404 77.090 Q83.021 77.520 82.286 77.520 Q81.552 77.520 81.169 77.090 Q80.786 76.661 80.786 76.036 Z"/>
  <path d="M101.521 65.395 L101.521 68.504 Q101.521 73.536 99.771 75.528 Q98.021 77.520 95.036 77.520 Q92.083 77.520 90.302 75.528 Q88.521 73.536 88.521 68.504 L88.521 65.395 Q88.521 60.379 90.294 58.450 Q92.068 56.520 95.005 56.520 Q97.990 56.520 99.755 58.450 Q101.521 60.379 101.521 65.395 Z M98.865 68.926 L98.865 64.989 Q98.865 61.551 97.888 60.137 Q96.911 58.723 95.005 58.723 Q93.146 58.723 92.161 60.137 Q91.177 61.551 91.177 64.989 L91.177 68.926 Q91.177 72.317 92.177 73.817 Q93.177 75.317 95.036 75.317 Q96.943 75.317 97.904 73.817 Q98.865 72.317 98.865 68.926 Z"/>
  <path d="M39.990 18.333 L39.990 39.333 L37.333 39.333 L37.333 21.646 L31.833 23.599 L31.833 21.208 L39.568 18.333 L39.990 18.333 Z"/>
  <path d="M60.818 27.208 L60.818 30.318 Q60.818 35.349 59.068 37.341 Q57.318 39.333 54.333 39.333 Q51.380 39.333 49.599 37.341 Q47.818 35.349 47.818 30.318 L47.818 27.208 Q47.818 22.193 49.591 20.263 Q51.365 18.333 54.302 18.333 Q57.286 18.333 59.052 20.263 Q60.818 22.193 60.818 27.208 Z M58.161 30.740 L58.161 26.802 Q58.161 23.365 57.185 21.951 Q56.208 20.536 54.302 20.536 Q52.443 20.536 51.458 21.951 Q50.474 23.365 50.474 26.802 L50.474 30.740 Q50.474 34.130 51.474 35.630 Q52.474 37.130 54.333 37.130 Q56.240 37.130 57.201 35.630 Q58.161 34.130 58.161 30.740 Z"/>
  <path d="M77.302 27.208 L77.302 30.318 Q77.302 35.349 75.552 37.341 Q73.802 39.333 70.818 39.333 Q67.865 39.333 66.083 37.341 Q64.302 35.349 64.302 30.318 L64.302 27.208 Q64.302 22.193 66.076 20.263 Q67.849 18.333 70.786 18.333 Q73.771 18.333 75.536 20.263 Q77.302 22.193 77.302 27.208 Z M74.646 30.740 L74.646 26.802 Q74.646 23.365 73.669 21.951 Q72.693 20.536 70.786 20.536 Q68.927 20.536 67.943 21.951 Q66.958 23.365 66.958 26.802 L66.958 30.740 Q66.958 34.130 67.958 35.630 Q68.958 37.130 70.818 37.130 Q72.724 37.130 73.685 35.630 Q74.646 34.130 74.646 30.740 Z"/>
  <path d="M80.786 37.849 Q80.786 37.208 81.169 36.771 Q81.552 36.333 82.286 36.333 Q83.021 36.333 83.404 36.771 Q83.786 37.208 83.786 37.849 Q83.786 38.474 83.404 38.904 Q83.021 39.333 82.286 39.333 Q81.552 39.333 81.169 38.904 Q80.786 38.474 80.786 37.849 Z"/>
  <path d="M101.521 27.208 L101.521 30.318 Q101.521 35.349 99.771 37.341 Q98.021 39.333 95.036 39.333 Q92.083 39.333 90.302 37.341 Q88.521 35.349 88.521 30.318 L88.521 27.208 Q88.521 22.193 90.294 20.263 Q92.068 18.333 95.005 18.333 Q97.990 18.333 99.755 20.263 Q101.521 22.193 101.521 27.208 Z M98.865 30.740 L98.865 26.802 Q98.865 23.365 97.888 21.951 Q96.911 20.536 95.005 20.536 Q93.146 20.536 92.161 21.951 Q91.177 23.365 91.177 26.802 L91.177 30.740 Q91.177 34.130 92.177 35.630 Q93.177 37.130 95.036 37.130 Q96.943 37.130 97.904 35.630 Q98.865 34.130 98.865 30.740 Z"/>
  <path d="M126.472 240.624 L130.900 233.976 L135.329 247.083 L139.757 266.446 L144.185 252.784 L148.613 238.503 L153.042 240.750 L157.470 265.333 L161.898 275.524 L166.327 254.602 L170.755 257.740 L175.183 246.581 L179.612 258.463 L184.040 279.436 L188.468 257.688 L192.897 275.929 L197.325 252.497 L201.753 256.931 L206.182 251.560 L210.610 248.608 L215.038 249.844 L219.467 246.079 L223.895 282.780 L228.323 279.180 L232.752 267.683 L237.180 264.221 L241.608 285.884 L246.036 257.519 L250.465 286.934 L254.893 268.748 L259.321 254.340 L263.750 274.014 L268.178 257.414 L272.606 249.702 L277.035 265.639 L281.463 268.165 L285.891 273.713 L290.320 275.028 L294.748 243.027 L299.176 264.920 L303.605 238.527 L308.033 271.163 L312.461 256.965 L316.890 261.131 L321.318 248.482 L325.746 259.332 L330.175 275.040 L334.603 231.008 L339.031 238.744 L343.459 249.619 L347.888 228.300 L352.316 255.597 L356.744 243.399 L361.173 252.901 L365.601 254.226 L370.029 260.826 L374.458 244.876 L378.886 255.062 L383.314 272.750 L387.743 253.035 L392.171 271.671 L396.599 231.090 L401.028 272.404 L405.456 272.050 L409.884 252.400 L414.313 245.066 L418.741 255.939 L423.169 280.024 L427.598 251.274 L432.026 272.635 L436.454 263.526 L440.883 249.628 L445.311 252.222 L449.739 285.237 L454.167 277.414 L458.596 244.081 L463.024 279.729 L467.452 270.459 L471.881 256.247 L476.309 245.753 L480.737 255.414 L485.166 253.519 L489.594 271.003 L494.022 282.710 L498.451 285.446 L502.879 263.020 L507.307 274.158 L511.736 289.554 L516.164 282.516 L520.592 265.682 L525.021 285.695 L529.449 264.726 L533.877 269.705 L538.306 249.488 L542.734 244.555 L547.162 278.461 L551.590 268.964 L556.019 275.907 L560.447 236.340 L564.875 275.925 L569.304 270.876 L573.732 270.544 L578.160 263.176 L582.589 232.177 L587.017 247.538 L591.445 224.835 L595.874 255.855 L600.302 262.636 L604.730 239.784 L609.159 250.975 L613.587 224.240 L618.015 250.742 L622.444 222.037 L626.872 255.059 L631.300 232.071 L635.729 224.084 L640.157 255.789 L644.585 250.208 L649.014 261.947 L653.442 251.054 L657.870 241.071 L662.298 275.798 L666.727 277.058 L671.155 265.876 L675.583 239.814 L680.012 241.061 L684.440 257.919 L688.868 262.578 L693.297 254.502 L697.725 249.501 L702.153 255.537 L706.582 271.042 L711.010 253.649 L715.438 280.029 L719.867 291.261 L724.295 284.843 L728.723 268.366 L733.152 285.289 L737.580 291.303 L742.008 273.956 L746.437 288.768 L750.865 260.633 L755.293 285.662 L759.721 296.303 L764.150 295.221 L768.578 290.244 L773.006 260.812 L777.435 286.300 L781.863 252.597 L786.291 255.056 L790.720 257.972 L795.148 276.065 L799.576 243.737 L804.005 239.218 L808.433 256.376 L812.861 227.331 L817.290 242.861 L821.718 239.726 L826.146 208.938 L830.575 227.195 L835.003 195.255 L839.431 231.306 L843.860 218.453 L848.288 204.499 L852.716 177.434 L857.144 185.325 L861.573 195.539 L866.001 178.142 L870.429 160.414 L874.858 161.030 L879.286 166.980 L883.714 184.810 L888.143 179.922 L892.571 174.441 L896.999 168.950 L901.428 168.979 L905.856 166.447 L910.284 130.370 L914.713 143.824 L919.141 134.559 L923.569 158.777 L927.998 157.755 L932.426 133.157 L936.854 135.065 L941.283 167.605 L945.711 157.310 L950.139 154.747 L954.568 148.141 L958.996 165.704 L963.424 166.403 L967.852 153.791 L972.281 154.758 L976.709 184.920 L981.137 183.385 L985.566 183.070 L989.994 174.457 L994.422 201.835 L998.851 203.360 L1003.279 205.963 L1007.707 229.143 L1012.136 221.912 L1016.564 201.194 L1020.992 209.763 L1025.421 249.059 L1029.849 250.865 L1034.277 238.287 L1038.706 239.028 L1043.134 243.544 L1047.562 255.508 L1051.991 264.097 L1056.419 286.479 L1060.847 272.075 L1065.275 254.109 L1069.704 280.426 L1074.132 268.418 L1078.560 282.159 L1082.989 275.381 L1087.417 295.175 L1091.845 296.355 L1096.274 284.753 L1100.702 264.773 L1105.130 281.255 L1109.559 264.855 L1113.987 284.976 L1118.415 287.487 L1122.844 270.385 L1127.272 272.100 L1131.700 300.278 L1136.129 287.239 L1140.557 253.285 L1144.985 266.662 L1149.414 252.234 L1153.842 279.925 L1158.270 279.177 L1162.698 253.114 L1167.127 257.834 L1171.555 253.063 L1175.983 264.613 L1180.412 234.046 L1184.840 252.315 L1189.268 258.506 L1193.697 268.857 L1198.125 226.648 L1202.553 265.505 L1206.982 265.494 L1211.410 236.859 L1215.838 223.888 L1220.267 233.320 L1224.695 243.588 L1229.123 243.815 L1233.552 266.640 L1237.980 261.924 L1242.408 239.049 L1246.837 249.533 L1251.265 243.185 L1255.693 239.815 L1260.122 253.326 L1264.550 265.002 L1268.978 228.750 L1273.406 257.944 L1277.835 269.887 L1282.263 251.142 L1286.691 233.638 L1291.120 238.623 L1295.548 251.437 L1299.976 257.367 L1304.405 248.033 L1308.833 238.966 L1313.261 269.799 L1317.690 256.080 L1322.118 283.551 L1326.546 260.941 L1330.975 243.830 L1335.403 267.247 L1339.831 249.237 L1344.260 251.280 L1348.688 275.317 L1353.116 285.390 L1357.545 275.659 L1361.973 254.888 L1366.401 290.306 L1370.829 246.522 L1375.258 260.664 L1379.686 273.357 L1384.114 282.515 L1388.543 243.349 L1392.971 283.095 L1397.399 250.602 L1401.828 252.546 L1406.256 247.137 L1410.684 277.028 L1415.113 279.290 L1419.541 259.802 L1423.969 263.654 L1428.398 244.112 L1432.826 276.019 L1437.254 268.851 L1441.683 237.443 L1446.111 242.194 L1450.539 243.736 L1454.968 233.718 L1459.396 241.846 L1463.824 235.320 L1468.252 259.240 L1472.681 236.863 L1477.109 272.057 L1481.537 269.091 L1485.966 230.348 L1490.394 245.082 L1494.822 255.295 L1499.251 271.967 L1503.679 238.999 L1508.107 229.163 L1512.536 273.377 L1516.964 265.892 L1521.392 232.133 L1525.821 231.444 L1530.249 269.456 L1534.677 274.114 L1539.106 274.486 L1543.534 278.981 L1547.962 280.431 L1552.391 242.407 L1556.819 264.878 L1561.247 256.998 L1565.676 271.622 L1570.104 262.318 L1574.532 244.788 L1578.960 259.026 L1583.389 272.374 L1587.817 261.729 L1592.245 261.634 L1596.674 257.838 L1601.102 284.573 L1605.530 262.287 L1609.959 264.315 L1614.387 272.585 L1618.815 285.727 L1623.244 248.689 L1627.672 246.062 L1632.100 261.514 L1636.529 275.943 L1640.957 264.621 L1645.385 266.095 L1649.814 275.276 L1654.242 266.656 L1658.670 259.932 L1663.099 256.452 L1667.527 277.287 L1671.955 242.693 L1676.383 273.795 L1680.812 236.443 L1685.240 269.303 L1689.668 252.927 L1694.097 251.933 L1698.525 238.757 L1702.953 269.004 L1707.382 239.290 L1711.810 231.557 L1716.238 249.022" fill="none" stroke="#0066cc" stroke-width="2.133"/>
</svg>
