<?xml version="1.0" encoding="UTF-8"?>
<svg xmlns="http://www.w3.org/2000/svg" version="1.1" width="110" height="75" viewBox="0 -20 110 75">
  <g transform="matrix(4.3241 0 0 4.3241 4600.1 2085.3)" stroke-width=".26458">
    <path d="m-1061-474.76v-0.86783q-0.2434-0.0423-0.4762-0.0423-0.6562 0-0.9208 0.381-0.254 0.381-0.254 1.2065t0.2646 1.2277q0.2752 0.39159 0.9525 0.39159t1.3864-0.1905l0.1588 1.016q-0.7409 0.21166-1.5875 0.21166-2.3495 0-2.3495-2.6458 0-1.3652 0.5291-1.9897 0.5398-0.635 1.7886-0.635 0.8044 0 1.5452 0.20109v1.7357z"/>
    <path d="m-1059-471.56v-0.97367h1.0477v-5.1012l-0.836 0.0106-0.011-0.96308 1.9367-0.0106v6.0642h0.963v0.97367z"/>
    <path d="m-1055-471.56v-0.97367h1.0477v-3.0798h-0.963v-0.97366h2.0531v4.0534h0.9631v0.97367zm1.5346-5.7573c-0.2116 0-0.381-0.0635-0.508-0.1905-0.1199-0.13406-0.1799-0.30692-0.1799-0.51859s0.063-0.381 0.1905-0.508c0.127-0.127 0.2964-0.1905 0.508-0.1905 0.2187 0 0.3845 0.0635 0.4974 0.1905 0.12 0.11995 0.1799 0.28928 0.1799 0.508 0 0.21873-0.06 0.39159-0.1799 0.51859s-0.2892 0.1905-0.508 0.1905z"/>
    <path d="m-1050.8-469.53v-6.1489l-0.063-0.91016 1.0583-0.0741 0.063 0.46567c0.4728-0.3175 0.8926-0.47625 1.2594-0.47625 0.7126 0 1.2347 0.21167 1.5663 0.635 0.3387 0.41628 0.508 1.0689 0.508 1.9579s-0.2046 1.5522-0.6138 1.9897c-0.4092 0.43039-0.9912 0.64559-1.7462 0.64559-0.254 0-0.568-0.0741-0.942-0.22225v2.1378zm2.2754-6.1278c-0.3246 0-0.7197 0.15522-1.1854 0.46567v2.5188c0.3387 0.14817 0.6456 0.22225 0.9208 0.22225 0.8044 0 1.2065-0.53622 1.2065-1.6087 0-1.0724-0.3139-1.6051-0.9419-1.5981z"/>
  </g>
  <path d="m105.37 5.731a4.8699 4.8699 0 0 1 -4.8699 4.8699 4.8699 4.8699 0 0 1 -4.8699 -4.8699 4.8699 4.8699 0 0 1 4.8699 -4.8699 4.8699 4.8699 0 0 1 4.8699 4.8699z" fill="#ff00b5" stroke="#930069" stroke-width=".67301"/>
  <path transform="rotate(-18.206)" d="m79.819 46.315h9.6733v9.6733h-9.6733z" fill="#fffe00" stroke="#989800" stroke-width=".70801"/>
  <path d="m72.177 7.6819 14.945-4.1395-4.3578 15.471z" fill="#0096ff" stroke="#00548f" stroke-width="1.0686"/>
</svg>
