<svg xmlns="http://www.w3.org/2000/svg" width="1439.000000" height="980.000000" viewBox="0 0 1439.0 980.0">
  <rect width="1439.000000" height="980.000000" fill="#ffffff"/>
  <path stroke-width="4.000000" stroke="#000000" fill="none" d="M0.0 0.0 L1439.0 0.0 "/>
  <path stroke-width="4.000000" stroke="#000000" fill="none" d="M1439.0 0.0 L1439.0 980.0 "/>
  <path stroke-width="4.000000" stroke="#000000" fill="none" d="M0.0 980.0 L1439.0 980.0 "/>
  <path stroke-width="4.000000" stroke="#000000" fill="none" d="M0.0 0.0 L0.0 980.0 "/>
  <path stroke-width="1.333333" stroke="#333333" fill="none" d="M62.666667 230.266667 L453.555556 230.266667 "/>
  <path stroke-width="1.333333" stroke="#333333" fill="none" d="M90.587302 230.266667 L90.587302 224.933333 "/>
  <path stroke-width="1.333333" stroke="#333333" fill="none" d="M146.428571 230.266667 L146.428571 224.933333 "/>
  <path stroke-width="1.333333" stroke="#333333" fill="none" d="M202.269841 230.266667 L202.269841 224.933333 "/>
  <path stroke-width="1.333333" stroke="#333333" fill="none" d="M258.111111 230.266667 L258.111111 224.933333 "/>
  <path stroke-width="1.333333" stroke="#333333" fill="none" d="M313.952381 230.266667 L313.952381 224.933333 "/>
  <path stroke-width="1.333333" stroke="#333333" fill="none" d="M369.793651 230.266667 L369.793651 224.933333 "/>
  <path stroke-width="1.333333" stroke="#333333" fill="none" d="M425.634921 230.266667 L425.634921 224.933333 "/>
  <text x="77.946677" y="256.000000" fill="#333333" font-size="14.666667" font-family="Arial,Helvetica,'Helvetica Neue',sans-serif">-3.0</text>
  <text x="133.787946" y="256.000000" fill="#333333" font-size="14.666667" font-family="Arial,Helvetica,'Helvetica Neue',sans-serif">-2.0</text>
  <text x="189.629216" y="256.000000" fill="#333333" font-size="14.666667" font-family="Arial,Helvetica,'Helvetica Neue',sans-serif">-1.0</text>
  <text x="247.915799" y="256.000000" fill="#333333" font-size="14.666667" font-family="Arial,Helvetica,'Helvetica Neue',sans-serif">0.0</text>
  <text x="303.757068" y="256.000000" fill="#333333" font-size="14.666667" font-family="Arial,Helvetica,'Helvetica Neue',sans-serif">1.0</text>
  <text x="359.598338" y="256.000000" fill="#333333" font-size="14.666667" font-family="Arial,Helvetica,'Helvetica Neue',sans-serif">2.0</text>
  <text x="415.439608" y="256.000000" fill="#333333" font-size="14.666667" font-family="Arial,Helvetica,'Helvetica Neue',sans-serif">3.0</text>
  <path stroke-width="1.333333" stroke="#333333" fill="none" d="M62.666667 68.844444 L62.666667 230.266667 "/>
  <path stroke-width="1.333333" stroke="#333333" fill="none" d="M62.666667 230.266667 L68.0 230.266667 "/>
  <path stroke-width="1.333333" stroke="#333333" fill="none" d="M62.666667 200.917172 L68.0 200.917172 "/>
  <path stroke-width="1.333333" stroke="#333333" fill="none" d="M62.666667 171.567677 L68.0 171.567677 "/>
  <path stroke-width="1.333333" stroke="#333333" fill="none" d="M62.666667 142.218182 L68.0 142.218182 "/>
  <path stroke-width="1.333333" stroke="#333333" fill="none" d="M62.666667 112.868687 L68.0 112.868687 "/>
  <path stroke-width="1.333333" stroke="#333333" fill="none" d="M62.666667 83.519192 L68.0 83.519192 "/>
  <text x="30.542708" y="235.266667" fill="#333333" font-size="14.666667" font-family="Arial,Helvetica,'Helvetica Neue',sans-serif">0.0</text>
  <text x="22.386458" y="205.917172" fill="#333333" font-size="14.666667" font-family="Arial,Helvetica,'Helvetica Neue',sans-serif">10.0</text>
  <text x="22.386458" y="176.567677" fill="#333333" font-size="14.666667" font-family="Arial,Helvetica,'Helvetica Neue',sans-serif">20.0</text>
  <text x="22.386458" y="147.218182" fill="#333333" font-size="14.666667" font-family="Arial,Helvetica,'Helvetica Neue',sans-serif">30.0</text>
  <text x="22.386458" y="117.868687" fill="#333333" font-size="14.666667" font-family="Arial,Helvetica,'Helvetica Neue',sans-serif">40.0</text>
  <text x="22.386458" y="88.519192" fill="#333333" font-size="14.666667" font-family="Arial,Helvetica,'Helvetica Neue',sans-serif">50.0</text>
  <path stroke-width="1.333333" stroke="#333333" fill="none" d="M62.666667 68.844444 L453.555556 68.844444 "/>
  <path stroke-width="1.333333" stroke="#333333" fill="none" d="M62.666667 68.844444 L62.666667 74.177778 "/>
  <path stroke-width="1.333333" stroke="#333333" fill="none" d="M118.507939 68.844444 L118.507939 74.177778 "/>
  <path stroke-width="1.333333" stroke="#333333" fill="none" d="M174.349211 68.844444 L174.349211 74.177778 "/>
  <path stroke-width="1.333333" stroke="#333333" fill="none" d="M230.19049 68.844444 L230.19049 74.177778 "/>
  <path stroke-width="1.333333" stroke="#333333" fill="none" d="M286.031756 68.844444 L286.031756 74.177778 "/>
  <path stroke-width="1.333333" stroke="#333333" fill="none" d="M341.873023 68.844444 L341.873023 74.177778 "/>
  <path stroke-width="1.333333" stroke="#333333" fill="none" d="M397.714312 68.844444 L397.714312 74.177778 "/>
  <path stroke-width="1.333333" stroke="#333333" fill="none" d="M453.555556 68.844444 L453.555556 74.177778 "/>
  <text x="50.026042" y="53.111111" fill="#333333" font-size="14.666667" font-family="Arial,Helvetica,'Helvetica Neue',sans-serif">-3.5</text>
  <text x="105.867314" y="53.111111" fill="#333333" font-size="14.666667" font-family="Arial,Helvetica,'Helvetica Neue',sans-serif">-2.5</text>
  <text x="161.708586" y="53.111111" fill="#333333" font-size="14.666667" font-family="Arial,Helvetica,'Helvetica Neue',sans-serif">-1.5</text>
  <text x="217.549865" y="53.111111" fill="#333333" font-size="14.666667" font-family="Arial,Helvetica,'Helvetica Neue',sans-serif">-0.5</text>
  <text x="275.836444" y="53.111111" fill="#333333" font-size="14.666667" font-family="Arial,Helvetica,'Helvetica Neue',sans-serif">0.5</text>
  <text x="331.677710" y="53.111111" fill="#333333" font-size="14.666667" font-family="Arial,Helvetica,'Helvetica Neue',sans-serif">1.5</text>
  <text x="387.519000" y="53.111111" fill="#333333" font-size="14.666667" font-family="Arial,Helvetica,'Helvetica Neue',sans-serif">2.5</text>
  <text x="443.360243" y="53.111111" fill="#333333" font-size="14.666667" font-family="Arial,Helvetica,'Helvetica Neue',sans-serif">3.5</text>
  <path fill="#4572a7" d="M92.720635 230.266667 L92.720635 200.917172 L104.453968 200.917172 L104.453968 230.266667 "/>
  <path fill="#4572a7" d="M148.561905 230.266667 L148.561905 148.088081 L160.295238 148.088081 L160.295238 230.266667 "/>
  <path fill="#4572a7" d="M204.403175 230.266667 L204.403175 171.567677 L216.136508 171.567677 L216.136508 230.266667 "/>
  <path fill="#4572a7" d="M260.244444 230.266667 L260.244444 153.95798 L271.977778 153.95798 L271.977778 230.266667 "/>
  <path fill="#4572a7" d="M316.085714 230.266667 L316.085714 109.933737 L327.819048 109.933737 L327.819048 230.266667 "/>
  <path fill="#4572a7" d="M371.926984 230.266667 L371.926984 101.128889 L383.660317 101.128889 L383.660317 230.266667 "/>
  <path fill="#4572a7" d="M427.768254 230.266667 L427.768254 121.673535 L439.501587 121.673535 L439.501587 230.266667 "/>
  <path fill="#aa4643" d="M76.720635 230.266667 L76.720635 195.047273 L88.453968 195.047273 L88.453968 230.266667 "/>
  <path fill="#aa4643" d="M132.561905 230.266667 L132.561905 174.502626 L144.295238 174.502626 L144.295238 230.266667 "/>
  <path fill="#aa4643" d="M188.403175 230.266667 L188.403175 162.762828 L200.136508 162.762828 L200.136508 230.266667 "/>
  <path fill="#aa4643" d="M244.244444 230.266667 L244.244444 142.218182 L255.977778 142.218182 L255.977778 230.266667 "/>
  <path fill="#aa4643" d="M300.085714 230.266667 L300.085714 127.543434 L311.819048 127.543434 L311.819048 230.266667 "/>
  <path fill="#aa4643" d="M355.926984 230.266667 L355.926984 104.063838 L367.660317 104.063838 L367.660317 230.266667 "/>
  <path fill="#aa4643" d="M411.768254 230.266667 L411.768254 133.413333 L423.501587 133.413333 L423.501587 230.266667 "/>
  <path fill="#4572a7" d="M105.366667 99.644444 M95.366667 99.644444 a5.0 5.0 0 1 0 10.0 0 a5.0 5.0 0 1 0 -10.0 0 "/>
  <text x="111.866667" y="104.644444" fill="#333333" font-size="14.666667" font-family="Arial,Helvetica,'Helvetica Neue',sans-serif">A</text>
  <path fill="#aa4643" d="M164.347917 99.644444 M154.347917 99.644444 a5.0 5.0 0 1 0 10.0 0 a5.0 5.0 0 1 0 -10.0 0 "/>
  <text x="170.847917" y="104.644444" fill="#333333" font-size="14.666667" font-family="Arial,Helvetica,'Helvetica Neue',sans-serif">B</text>
  <path stroke-width="1.333333" stroke="#333333" fill="none" d="M512.222222 230.266667 L903.111111 230.266667 "/>
  <path stroke-width="1.333333" stroke="#333333" fill="none" d="M512.222222 230.266667 L512.222222 224.933333 "/>
  <path stroke-width="1.333333" stroke="#333333" fill="none" d="M568.063492 230.266667 L568.063492 224.933333 "/>
  <path stroke-width="1.333333" stroke="#333333" fill="none" d="M568.063492 230.266667 L568.063492 224.933333 "/>
  <path stroke-width="1.333333" stroke="#333333" fill="none" d="M623.904762 230.266667 L623.904762 224.933333 "/>
  <path stroke-width="1.333333" stroke="#333333" fill="none" d="M623.904762 230.266667 L623.904762 224.933333 "/>
  <path stroke-width="1.333333" stroke="#333333" fill="none" d="M679.746032 230.266667 L679.746032 224.933333 "/>
  <path stroke-width="1.333333" stroke="#333333" fill="none" d="M679.746032 230.266667 L679.746032 224.933333 "/>
  <path stroke-width="1.333333" stroke="#333333" fill="none" d="M735.587302 230.266667 L735.587302 224.933333 "/>
  <path stroke-width="1.333333" stroke="#333333" fill="none" d="M735.587302 230.266667 L735.587302 224.933333 "/>
  <path stroke-width="1.333333" stroke="#333333" fill="none" d="M791.428571 230.266667 L791.428571 224.933333 "/>
  <path stroke-width="1.333333" stroke="#333333" fill="none" d="M791.428571 230.266667 L791.428571 224.933333 "/>
  <path stroke-width="1.333333" stroke="#333333" fill="none" d="M847.269841 230.266667 L847.269841 224.933333 "/>
  <path stroke-width="1.333333" stroke="#333333" fill="none" d="M847.269841 230.266667 L847.269841 224.933333 "/>
  <path stroke-width="1.333333" stroke="#333333" fill="none" d="M903.111111 230.266667 L903.111111 224.933333 "/>
  <path stroke-width="1.333333" stroke="#333333" fill="none" d="M903.111111 230.266667 L903.111111 224.933333 "/>
  <text x="535.252232" y="256.000000" fill="#333333" font-size="14.666667" font-family="Arial,Helvetica,'Helvetica Neue',sans-serif">A</text>
  <text x="591.093502" y="256.000000" fill="#333333" font-size="14.666667" font-family="Arial,Helvetica,'Helvetica Neue',sans-serif">B</text>
  <text x="646.528522" y="256.000000" fill="#333333" font-size="14.666667" font-family="Arial,Helvetica,'Helvetica Neue',sans-serif">C</text>
  <text x="702.369792" y="256.000000" fill="#333333" font-size="14.666667" font-family="Arial,Helvetica,'Helvetica Neue',sans-serif">D</text>
  <text x="758.617312" y="256.000000" fill="#333333" font-size="14.666667" font-family="Arial,Helvetica,'Helvetica Neue',sans-serif">E</text>
  <text x="814.864831" y="256.000000" fill="#333333" font-size="14.666667" font-family="Arial,Helvetica,'Helvetica Neue',sans-serif">F</text>
  <text x="869.487351" y="256.000000" fill="#333333" font-size="14.666667" font-family="Arial,Helvetica,'Helvetica Neue',sans-serif">G</text>
  <path stroke-width="1.333333" stroke="#333333" fill="none" d="M512.222222 68.844444 L903.111111 68.844444 "/>
  <path stroke-width="1.333333" stroke="#333333" fill="none" d="M512.222222 68.844444 L512.222222 74.177778 "/>
  <path stroke-width="1.333333" stroke="#333333" fill="none" d="M568.063495 68.844444 L568.063495 74.177778 "/>
  <path stroke-width="1.333333" stroke="#333333" fill="none" d="M623.904767 68.844444 L623.904767 74.177778 "/>
  <path stroke-width="1.333333" stroke="#333333" fill="none" d="M679.746045 68.844444 L679.746045 74.177778 "/>
  <path stroke-width="1.333333" stroke="#333333" fill="none" d="M735.587312 68.844444 L735.587312 74.177778 "/>
  <path stroke-width="1.333333" stroke="#333333" fill="none" d="M791.428578 68.844444 L791.428578 74.177778 "/>
  <path stroke-width="1.333333" stroke="#333333" fill="none" d="M847.269868 68.844444 L847.269868 74.177778 "/>
  <path stroke-width="1.333333" stroke="#333333" fill="none" d="M903.111111 68.844444 L903.111111 74.177778 "/>
  <text x="499.581597" y="53.111111" fill="#333333" font-size="14.666667" font-family="Arial,Helvetica,'Helvetica Neue',sans-serif">-0.5</text>
  <text x="557.868182" y="53.111111" fill="#333333" font-size="14.666667" font-family="Arial,Helvetica,'Helvetica Neue',sans-serif">0.5</text>
  <text x="613.709454" y="53.111111" fill="#333333" font-size="14.666667" font-family="Arial,Helvetica,'Helvetica Neue',sans-serif">1.5</text>
  <text x="669.550733" y="53.111111" fill="#333333" font-size="14.666667" font-family="Arial,Helvetica,'Helvetica Neue',sans-serif">2.5</text>
  <text x="725.391999" y="53.111111" fill="#333333" font-size="14.666667" font-family="Arial,Helvetica,'Helvetica Neue',sans-serif">3.5</text>
  <text x="781.233266" y="53.111111" fill="#333333" font-size="14.666667" font-family="Arial,Helvetica,'Helvetica Neue',sans-serif">4.5</text>
  <text x="837.074555" y="53.111111" fill="#333333" font-size="14.666667" font-family="Arial,Helvetica,'Helvetica Neue',sans-serif">5.5</text>
  <text x="892.915799" y="53.111111" fill="#333333" font-size="14.666667" font-family="Arial,Helvetica,'Helvetica Neue',sans-serif">6.5</text>
  <path fill="#4572a7" d="M540.142857 215.591919 L595.984127 162.762828 L651.825397 186.242424 L707.666667 168.632727 L763.507937 124.608485 L819.349206 115.803636 L875.190476 136.348283 L875.190476 230.266667 L819.349206 230.266667 L763.507937 230.266667 L707.666667 230.266667 L651.825397 230.266667 L595.984127 230.266667 L540.142857 230.266667 "/>
  <path fill="#aa4643" d="M540.142857 221.461818 L595.984127 189.177374 L651.825397 197.982222 L707.666667 177.437576 L763.507937 142.218182 L819.349206 159.827879 L875.190476 148.088081 L875.190476 230.266667 L819.349206 230.266667 L763.507937 230.266667 L707.666667 230.266667 L651.825397 230.266667 L595.984127 230.266667 L540.142857 230.266667 "/>
  <path fill="#4572a7" d="M554.922222 99.644444 M544.922222 99.644444 a5.0 5.0 0 1 0 10.0 0 a5.0 5.0 0 1 0 -10.0 0 "/>
  <text x="561.422222" y="104.644444" fill="#333333" font-size="14.666667" font-family="Arial,Helvetica,'Helvetica Neue',sans-serif">A</text>
  <path fill="#aa4643" d="M613.903472 99.644444 M603.903472 99.644444 a5.0 5.0 0 1 0 10.0 0 a5.0 5.0 0 1 0 -10.0 0 "/>
  <text x="620.403472" y="104.644444" fill="#333333" font-size="14.666667" font-family="Arial,Helvetica,'Helvetica Neue',sans-serif">B</text>
  <path stroke-width="1.333333" stroke="#333333" fill="none" d="M961.777778 230.266667 L1352.666667 230.266667 "/>
  <path stroke-width="1.333333" stroke="#333333" fill="none" d="M961.777778 230.266667 L961.777778 224.933333 "/>
  <path stroke-width="1.333333" stroke="#333333" fill="none" d="M1039.955556 230.266667 L1039.955556 224.933333 "/>
  <path stroke-width="1.333333" stroke="#333333" fill="none" d="M1118.133333 230.266667 L1118.133333 224.933333 "/>
  <path stroke-width="1.333333" stroke="#333333" fill="none" d="M1196.311111 230.266667 L1196.311111 224.933333 "/>
  <path stroke-width="1.333333" stroke="#333333" fill="none" d="M1274.488889 230.266667 L1274.488889 224.933333 "/>
  <path stroke-width="1.333333" stroke="#333333" fill="none" d="M1352.666667 230.266667 L1352.666667 224.933333 "/>
  <text x="951.582465" y="256.000000" fill="#333333" font-size="14.666667" font-family="Arial,Helvetica,'Helvetica Neue',sans-serif">0.0</text>
  <text x="1025.682118" y="256.000000" fill="#333333" font-size="14.666667" font-family="Arial,Helvetica,'Helvetica Neue',sans-serif">40.0</text>
  <text x="1103.859896" y="256.000000" fill="#333333" font-size="14.666667" font-family="Arial,Helvetica,'Helvetica Neue',sans-serif">80.0</text>
  <text x="1177.959549" y="256.000000" fill="#333333" font-size="14.666667" font-family="Arial,Helvetica,'Helvetica Neue',sans-serif">120.0</text>
  <text x="1256.137326" y="256.000000" fill="#333333" font-size="14.666667" font-family="Arial,Helvetica,'Helvetica Neue',sans-serif">160.0</text>
  <text x="1334.315104" y="256.000000" fill="#333333" font-size="14.666667" font-family="Arial,Helvetica,'Helvetica Neue',sans-serif">200.0</text>
  <path stroke-width="1.333333" stroke="#333333" fill="none" d="M1352.666667 68.844444 L1352.666667 230.266667 "/>
  <path stroke-width="1.333333" stroke="#333333" fill="none" d="M1352.666667 230.266667 L1347.333333 230.266667 "/>
  <path stroke-width="1.333333" stroke="#333333" fill="none" d="M1352.666667 201.44127 L1347.333333 201.44127 "/>
  <path stroke-width="1.333333" stroke="#333333" fill="none" d="M1352.666667 172.615873 L1347.333333 172.615873 "/>
  <path stroke-width="1.333333" stroke="#333333" fill="none" d="M1352.666667 143.790476 L1347.333333 143.790476 "/>
  <path stroke-width="1.333333" stroke="#333333" fill="none" d="M1352.666667 114.965079 L1347.333333 114.965079 "/>
  <path stroke-width="1.333333" stroke="#333333" fill="none" d="M1352.666667 86.139683 L1347.333333 86.139683 "/>
  <text x="1364.400000" y="235.266667" fill="#333333" font-size="14.666667" font-family="Arial,Helvetica,'Helvetica Neue',sans-serif">0.0</text>
  <text x="1364.400000" y="206.441270" fill="#333333" font-size="14.666667" font-family="Arial,Helvetica,'Helvetica Neue',sans-serif">50.0</text>
  <text x="1364.400000" y="177.615873" fill="#333333" font-size="14.666667" font-family="Arial,Helvetica,'Helvetica Neue',sans-serif">100.0</text>
  <text x="1364.400000" y="148.790476" fill="#333333" font-size="14.666667" font-family="Arial,Helvetica,'Helvetica Neue',sans-serif">150.0</text>
  <text x="1364.400000" y="119.965079" fill="#333333" font-size="14.666667" font-family="Arial,Helvetica,'Helvetica Neue',sans-serif">200.0</text>
  <text x="1364.400000" y="91.139683" fill="#333333" font-size="14.666667" font-family="Arial,Helvetica,'Helvetica Neue',sans-serif">250.0</text>
  <path stroke-width="1.333333" stroke="#333333" fill="none" d="M961.777778 68.844444 L1352.666667 68.844444 "/>
  <path stroke-width="1.333333" stroke="#333333" fill="none" d="M961.777778 68.844444 L961.777778 74.177778 "/>
  <path stroke-width="1.333333" stroke="#333333" fill="none" d="M1017.61905 68.844444 L1017.61905 74.177778 "/>
  <path stroke-width="1.333333" stroke="#333333" fill="none" d="M1073.460322 68.844444 L1073.460322 74.177778 "/>
  <path stroke-width="1.333333" stroke="#333333" fill="none" d="M1129.301601 68.844444 L1129.301601 74.177778 "/>
  <path stroke-width="1.333333" stroke="#333333" fill="none" d="M1185.142867 68.844444 L1185.142867 74.177778 "/>
  <path stroke-width="1.333333" stroke="#333333" fill="none" d="M1240.984134 68.844444 L1240.984134 74.177778 "/>
  <path stroke-width="1.333333" stroke="#333333" fill="none" d="M1296.825423 68.844444 L1296.825423 74.177778 "/>
  <path stroke-width="1.333333" stroke="#333333" fill="none" d="M1352.666667 68.844444 L1352.666667 74.177778 "/>
  <text x="951.582465" y="53.111111" fill="#333333" font-size="14.666667" font-family="Arial,Helvetica,'Helvetica Neue',sans-serif">0.0</text>
  <text x="1003.345613" y="53.111111" fill="#333333" font-size="14.666667" font-family="Arial,Helvetica,'Helvetica Neue',sans-serif">28.6</text>
  <text x="1059.186885" y="53.111111" fill="#333333" font-size="14.666667" font-family="Arial,Helvetica,'Helvetica Neue',sans-serif">57.1</text>
  <text x="1115.028163" y="53.111111" fill="#333333" font-size="14.666667" font-family="Arial,Helvetica,'Helvetica Neue',sans-serif">85.7</text>
  <text x="1167.338180" y="53.111111" fill="#333333" font-size="14.666667" font-family="Arial,Helvetica,'Helvetica Neue',sans-serif">114.3</text>
  <text x="1222.632571" y="53.111111" fill="#333333" font-size="14.666667" font-family="Arial,Helvetica,'Helvetica Neue',sans-serif">142.9</text>
  <text x="1278.473861" y="53.111111" fill="#333333" font-size="14.666667" font-family="Arial,Helvetica,'Helvetica Neue',sans-serif">171.4</text>
  <text x="1334.315104" y="53.111111" fill="#333333" font-size="14.666667" font-family="Arial,Helvetica,'Helvetica Neue',sans-serif">200.0</text>
  <path fill="#4572a7" d="M983.988889 184.146032 M978.655556 184.146032 a2.666667 2.666667 0 1 0 5.333333 0 a2.666667 2.666667 0 1 0 -5.333333 0 "/>
  <path fill="#aa4643" d="M1091.044444 143.790476 M1067.044444 143.790476 a12.0 12.0 0 1 0 24.0 0 a12.0 12.0 0 1 0 -24.0 0 "/>
  <path fill="#4572a7" d="M1278.488889 126.495238 M1270.488889 126.495238 a4.0 4.0 0 1 0 8.0 0 a4.0 4.0 0 1 0 -8.0 0 "/>
  <path fill="#aa4643" d="M1223.855556 201.44127 M1207.855556 201.44127 a8.0 8.0 0 1 0 16.0 0 a8.0 8.0 0 1 0 -16.0 0 "/>
  <path fill="#4572a7" d="M1260.277778 184.146032 M1249.611111 184.146032 a5.333333 5.333333 0 1 0 10.666667 0 a5.333333 5.333333 0 1 0 -10.666667 0 "/>
  <path fill="#aa4643" d="M1024.411111 172.615873 M1016.411111 172.615873 a4.0 4.0 0 1 0 8.0 0 a4.0 4.0 0 1 0 -8.0 0 "/>
  <path fill="#4572a7" d="M1189.205556 120.730159 M1183.872222 120.730159 a2.666667 2.666667 0 1 0 5.333333 0 a2.666667 2.666667 0 1 0 -5.333333 0 "/>
  <path fill="#4572a7" d="M1004.477778 99.644444 M994.477778 99.644444 a5.0 5.0 0 1 0 10.0 0 a5.0 5.0 0 1 0 -10.0 0 "/>
  <text x="1010.977778" y="104.644444" fill="#333333" font-size="14.666667" font-family="Arial,Helvetica,'Helvetica Neue',sans-serif">A</text>
  <path fill="#aa4643" d="M1063.459028 99.644444 M1053.459028 99.644444 a5.0 5.0 0 1 0 10.0 0 a5.0 5.0 0 1 0 -10.0 0 "/>
  <text x="1069.959028" y="104.644444" fill="#333333" font-size="14.666667" font-family="Arial,Helvetica,'Helvetica Neue',sans-serif">B</text>
  <path stroke-width="1.333333" stroke="#333333" fill="none" d="M946.333333 628.933333 L1366.555556 628.933333 "/>
  <path stroke-width="1.333333" stroke="#333333" fill="none" d="M976.349206 628.933333 L976.349206 623.6 "/>
  <path stroke-width="1.333333" stroke="#333333" fill="none" d="M1036.380952 628.933333 L1036.380952 623.6 "/>
  <path stroke-width="1.333333" stroke="#333333" fill="none" d="M1096.412698 628.933333 L1096.412698 623.6 "/>
  <path stroke-width="1.333333" stroke="#333333" fill="none" d="M1156.444444 628.933333 L1156.444444 623.6 "/>
  <path stroke-width="1.333333" stroke="#333333" fill="none" d="M1216.47619 628.933333 L1216.47619 623.6 "/>
  <path stroke-width="1.333333" stroke="#333333" fill="none" d="M1276.507937 628.933333 L1276.507937 623.6 "/>
  <path stroke-width="1.333333" stroke="#333333" fill="none" d="M1336.539683 628.933333 L1336.539683 623.6 "/>
  <text x="963.708581" y="654.666667" fill="#333333" font-size="14.666667" font-family="Arial,Helvetica,'Helvetica Neue',sans-serif">-3.0</text>
  <text x="1023.740327" y="654.666667" fill="#333333" font-size="14.666667" font-family="Arial,Helvetica,'Helvetica Neue',sans-serif">-2.0</text>
  <text x="1083.772073" y="654.666667" fill="#333333" font-size="14.666667" font-family="Arial,Helvetica,'Helvetica Neue',sans-serif">-1.0</text>
  <text x="1146.249132" y="654.666667" fill="#333333" font-size="14.666667" font-family="Arial,Helvetica,'Helvetica Neue',sans-serif">0.0</text>
  <text x="1206.280878" y="654.666667" fill="#333333" font-size="14.666667" font-family="Arial,Helvetica,'Helvetica Neue',sans-serif">1.0</text>
  <text x="1266.312624" y="654.666667" fill="#333333" font-size="14.666667" font-family="Arial,Helvetica,'Helvetica Neue',sans-serif">2.0</text>
  <text x="1326.344370" y="654.666667" fill="#333333" font-size="14.666667" font-family="Arial,Helvetica,'Helvetica Neue',sans-serif">3.0</text>
  <path stroke-width="1.333333" stroke="#333333" fill="none" d="M1366.555556 348.4 L1366.555556 628.933333 "/>
  <path stroke-width="1.333333" stroke="#333333" fill="none" d="M1366.555556 628.933333 L1361.222222 628.933333 "/>
  <path stroke-width="1.333333" stroke="#333333" fill="none" d="M1366.555556 577.927273 L1361.222222 577.927273 "/>
  <path stroke-width="1.333333" stroke="#333333" fill="none" d="M1366.555556 526.921212 L1361.222222 526.921212 "/>
  <path stroke-width="1.333333" stroke="#333333" fill="none" d="M1366.555556 475.915152 L1361.222222 475.915152 "/>
  <path stroke-width="1.333333" stroke="#333333" fill="none" d="M1366.555556 424.909091 L1361.222222 424.909091 "/>
  <path stroke-width="1.333333" stroke="#333333" fill="none" d="M1366.555556 373.90303 L1361.222222 373.90303 "/>
  <text x="1378.288889" y="633.933333" fill="#333333" font-size="14.666667" font-family="Arial,Helvetica,'Helvetica Neue',sans-serif">0.0</text>
  <text x="1378.288889" y="582.927273" fill="#333333" font-size="14.666667" font-family="Arial,Helvetica,'Helvetica Neue',sans-serif">10.0</text>
  <text x="1378.288889" y="531.921212" fill="#333333" font-size="14.666667" font-family="Arial,Helvetica,'Helvetica Neue',sans-serif">20.0</text>
  <text x="1378.288889" y="480.915152" fill="#333333" font-size="14.666667" font-family="Arial,Helvetica,'Helvetica Neue',sans-serif">30.0</text>
  <text x="1378.288889" y="429.909091" fill="#333333" font-size="14.666667" font-family="Arial,Helvetica,'Helvetica Neue',sans-serif">40.0</text>
  <text x="1378.288889" y="378.903030" fill="#333333" font-size="14.666667" font-family="Arial,Helvetica,'Helvetica Neue',sans-serif">50.0</text>
  <path stroke-width="1.333333" stroke="#333333" fill="none" d="M946.333333 348.4 L1366.555556 348.4 "/>
  <path stroke-width="1.333333" stroke="#333333" fill="none" d="M946.333333 348.4 L946.333333 353.733333 "/>
  <path stroke-width="1.333333" stroke="#333333" fill="none" d="M1006.365082 348.4 L1006.365082 353.733333 "/>
  <path stroke-width="1.333333" stroke="#333333" fill="none" d="M1066.396831 348.4 L1066.396831 353.733333 "/>
  <path stroke-width="1.333333" stroke="#333333" fill="none" d="M1126.428586 348.4 L1126.428586 353.733333 "/>
  <path stroke-width="1.333333" stroke="#333333" fill="none" d="M1186.460328 348.4 L1186.460328 353.733333 "/>
  <path stroke-width="1.333333" stroke="#333333" fill="none" d="M1246.492071 348.4 L1246.492071 353.733333 "/>
  <path stroke-width="1.333333" stroke="#333333" fill="none" d="M1306.523838 348.4 L1306.523838 353.733333 "/>
  <path stroke-width="1.333333" stroke="#333333" fill="none" d="M1366.555556 348.4 L1366.555556 353.733333 "/>
  <text x="933.692708" y="332.666667" fill="#333333" font-size="14.666667" font-family="Arial,Helvetica,'Helvetica Neue',sans-serif">-3.5</text>
  <text x="993.724457" y="332.666667" fill="#333333" font-size="14.666667" font-family="Arial,Helvetica,'Helvetica Neue',sans-serif">-2.5</text>
  <text x="1053.756206" y="332.666667" fill="#333333" font-size="14.666667" font-family="Arial,Helvetica,'Helvetica Neue',sans-serif">-1.5</text>
  <text x="1113.787961" y="332.666667" fill="#333333" font-size="14.666667" font-family="Arial,Helvetica,'Helvetica Neue',sans-serif">-0.5</text>
  <text x="1176.265016" y="332.666667" fill="#333333" font-size="14.666667" font-family="Arial,Helvetica,'Helvetica Neue',sans-serif">0.5</text>
  <text x="1236.296758" y="332.666667" fill="#333333" font-size="14.666667" font-family="Arial,Helvetica,'Helvetica Neue',sans-serif">1.5</text>
  <text x="1296.328526" y="332.666667" fill="#333333" font-size="14.666667" font-family="Arial,Helvetica,'Helvetica Neue',sans-serif">2.5</text>
  <text x="1356.360243" y="332.666667" fill="#333333" font-size="14.666667" font-family="Arial,Helvetica,'Helvetica Neue',sans-serif">3.5</text>
  <path fill="#4572a7" d="M978.48254 628.933333 L978.48254 577.927273 L990.215873 577.927273 L990.215873 628.933333 "/>
  <path fill="#4572a7" d="M1038.514286 628.933333 L1038.514286 486.116364 L1050.247619 486.116364 L1050.247619 628.933333 "/>
  <path fill="#4572a7" d="M1098.546032 628.933333 L1098.546032 526.921212 L1110.279365 526.921212 L1110.279365 628.933333 "/>
  <path fill="#4572a7" d="M1158.577778 628.933333 L1158.577778 496.317576 L1170.311111 496.317576 L1170.311111 628.933333 "/>
  <path fill="#4572a7" d="M1218.609524 628.933333 L1218.609524 419.808485 L1230.342857 419.808485 L1230.342857 628.933333 "/>
  <path fill="#4572a7" d="M1278.64127 628.933333 L1278.64127 404.506667 L1290.374603 404.506667 L1290.374603 628.933333 "/>
  <path fill="#4572a7" d="M1338.673016 628.933333 L1338.673016 440.210909 L1350.406349 440.210909 L1350.406349 628.933333 "/>
  <path fill="#aa4643" d="M962.48254 628.933333 L962.48254 567.726061 L974.215873 567.726061 L974.215873 628.933333 "/>
  <path fill="#aa4643" d="M1022.514286 628.933333 L1022.514286 532.021818 L1034.247619 532.021818 L1034.247619 628.933333 "/>
  <path fill="#aa4643" d="M1082.546032 628.933333 L1082.546032 511.619394 L1094.279365 511.619394 L1094.279365 628.933333 "/>
  <path fill="#aa4643" d="M1142.577778 628.933333 L1142.577778 475.915152 L1154.311111 475.915152 L1154.311111 628.933333 "/>
  <path fill="#aa4643" d="M1202.609524 628.933333 L1202.609524 450.412121 L1214.342857 450.412121 L1214.342857 628.933333 "/>
  <path fill="#aa4643" d="M1262.64127 628.933333 L1262.64127 409.607273 L1274.374603 409.607273 L1274.374603 628.933333 "/>
  <path fill="#aa4643" d="M1322.673016 628.933333 L1322.673016 460.613333 L1334.406349 460.613333 L1334.406349 628.933333 "/>
  <path fill="#4572a7" d="M989.033333 379.2 M979.033333 379.2 a5.0 5.0 0 1 0 10.0 0 a5.0 5.0 0 1 0 -10.0 0 "/>
  <text x="995.533333" y="384.200000" fill="#333333" font-size="14.666667" font-family="Arial,Helvetica,'Helvetica Neue',sans-serif">A</text>
  <path fill="#aa4643" d="M1048.014583 379.2 M1038.014583 379.2 a5.0 5.0 0 1 0 10.0 0 a5.0 5.0 0 1 0 -10.0 0 "/>
  <text x="1054.514583" y="384.200000" fill="#333333" font-size="14.666667" font-family="Arial,Helvetica,'Helvetica Neue',sans-serif">B</text>
  <path stroke-width="1.333333" stroke="#333333" fill="none" d="M62.666667 348.666667 L62.666667 429.111111 "/>
  <path stroke-width="1.333333" stroke="#333333" fill="none" d="M62.666667 429.111111 L68.0 429.111111 "/>
  <path stroke-width="1.333333" stroke="#333333" fill="none" d="M62.666667 406.126984 L68.0 406.126984 "/>
  <path stroke-width="1.333333" stroke="#333333" fill="none" d="M62.666667 383.142857 L68.0 383.142857 "/>
  <path stroke-width="1.333333" stroke="#333333" fill="none" d="M62.666667 360.15873 L68.0 360.15873 "/>
  <text x="30.542708" y="434.111111" fill="#333333" font-size="14.666667" font-family="Arial,Helvetica,'Helvetica Neue',sans-serif">0.0</text>
  <text x="22.386458" y="411.126984" fill="#333333" font-size="14.666667" font-family="Arial,Helvetica,'Helvetica Neue',sans-serif">40.0</text>
  <text x="22.386458" y="388.142857" fill="#333333" font-size="14.666667" font-family="Arial,Helvetica,'Helvetica Neue',sans-serif">80.0</text>
  <text x="14.230208" y="365.158730" fill="#333333" font-size="14.666667" font-family="Arial,Helvetica,'Helvetica Neue',sans-serif">120.0</text>
  <path stroke-width="1.333333" stroke="#333333" fill="none" d="M62.666667 348.666667 L902.666667 348.666667 "/>
  <path stroke-width="1.333333" stroke="#333333" fill="none" d="M62.666667 348.666667 L62.666667 354.0 "/>
  <path stroke-width="1.333333" stroke="#333333" fill="none" d="M182.666672 348.666667 L182.666672 354.0 "/>
  <path stroke-width="1.333333" stroke="#333333" fill="none" d="M302.666677 348.666667 L302.666677 354.0 "/>
  <path stroke-width="1.333333" stroke="#333333" fill="none" d="M422.666695 348.666667 L422.666695 354.0 "/>
  <path stroke-width="1.333333" stroke="#333333" fill="none" d="M542.666688 348.666667 L542.666688 354.0 "/>
  <path stroke-width="1.333333" stroke="#333333" fill="none" d="M662.666681 348.666667 L662.666681 354.0 "/>
  <path stroke-width="1.333333" stroke="#333333" fill="none" d="M782.666724 348.666667 L782.666724 354.0 "/>
  <path stroke-width="1.333333" stroke="#333333" fill="none" d="M902.666667 348.666667 L902.666667 354.0 "/>
  <text x="34.119792" y="332.933333" fill="#333333" font-size="14.666667" font-family="Arial,Helvetica,'Helvetica Neue',sans-serif">05:15:44</text>
  <text x="154.119797" y="332.933333" fill="#333333" font-size="14.666667" font-family="Arial,Helvetica,'Helvetica Neue',sans-serif">06:06:56</text>
  <text x="274.119802" y="332.933333" fill="#333333" font-size="14.666667" font-family="Arial,Helvetica,'Helvetica Neue',sans-serif">06:58:08</text>
  <text x="394.119820" y="332.933333" fill="#333333" font-size="14.666667" font-family="Arial,Helvetica,'Helvetica Neue',sans-serif">07:49:20</text>
  <text x="514.119813" y="332.933333" fill="#333333" font-size="14.666667" font-family="Arial,Helvetica,'Helvetica Neue',sans-serif">08:40:32</text>
  <text x="634.119806" y="332.933333" fill="#333333" font-size="14.666667" font-family="Arial,Helvetica,'Helvetica Neue',sans-serif">09:31:44</text>
  <text x="754.119849" y="332.933333" fill="#333333" font-size="14.666667" font-family="Arial,Helvetica,'Helvetica Neue',sans-serif">10:22:56</text>
  <text x="874.666667" y="332.933333" fill="#333333" font-size="14.666667" font-family="Arial,Helvetica,'Helvetica Neue',sans-serif">11:14:08</text>
  <path stroke-width="2.000000" stroke="#0066cc" fill="none" d="M62.666667 411.016959 L72.666667 412.524246 L84.385417 424.615977 L96.104167 424.068628 L107.822917 421.520975 L119.541667 427.32645 L131.260417 427.749156 L142.979167 424.080003 L154.697917 420.632482 L166.416667 427.621838 L178.135417 423.383878 L189.854167 424.991031 L201.572917 415.775936 L213.291667 418.713034 L225.010417 422.609114 L236.729167 418.102356 L248.447917 423.352321 L260.166667 425.588825 L271.885417 427.428892 L283.604167 427.502075 L295.322917 427.492884 L307.041667 419.079926 L318.760417 386.979126 L330.479167 362.527091 L342.197917 363.679104 L353.916667 365.778493 L365.635417 394.325058 L377.354167 401.947625 L389.072917 416.295384 L400.791667 423.73607 L412.510417 426.357327 L424.229167 425.668748 L435.947917 426.506507 L447.666667 425.673778 L459.385417 417.406209 L471.104167 416.682792 L482.822917 416.389593 L494.541667 413.165029 L506.260417 414.647302 L517.979167 417.190584 L529.697917 415.985271 L541.416667 411.867567 L553.135417 405.497045 L564.854167 406.218556 L576.572917 402.029599 L588.291667 408.636829 L600.010417 411.584524 L611.729167 418.408496 L623.447917 414.859877 L635.166667 403.103809 L646.885417 400.846396 L658.604167 406.505068 L670.322917 407.677528 L682.041667 406.059477 L693.760417 403.057962 L705.479167 414.969609 L717.197917 418.837076 L728.916667 408.192432 L740.635417 415.118398 L752.354167 422.847148 L764.072917 422.039996 L775.791667 414.030296 L787.510417 419.982174 L799.229167 420.617309 L810.947917 421.805138 L822.666667 420.547099 L834.385417 421.736156 L846.104167 417.285805 L857.822917 421.18414 L869.541667 418.750323 L881.260417 416.311024 L892.979167 418.471152 L902.666667 422.799021 "/>
  <path fill="#4572a7" d="M105.366667 379.466667 M95.366667 379.466667 a5.0 5.0 0 1 0 10.0 0 a5.0 5.0 0 1 0 -10.0 0 "/>
  <text x="111.866667" y="384.466667" fill="#333333" font-size="14.666667" font-family="Arial,Helvetica,'Helvetica Neue',sans-serif">Channel 1</text>
  <path stroke-width="1.333333" stroke="#333333" fill="none" d="M62.666667 448.666667 L62.666667 529.111111 "/>
  <path stroke-width="1.333333" stroke="#333333" fill="none" d="M62.666667 529.111111 L68.0 529.111111 "/>
  <path stroke-width="1.333333" stroke="#333333" fill="none" d="M62.666667 506.126984 L68.0 506.126984 "/>
  <path stroke-width="1.333333" stroke="#333333" fill="none" d="M62.666667 483.142857 L68.0 483.142857 "/>
  <path stroke-width="1.333333" stroke="#333333" fill="none" d="M62.666667 460.15873 L68.0 460.15873 "/>
  <text x="30.542708" y="534.111111" fill="#333333" font-size="14.666667" font-family="Arial,Helvetica,'Helvetica Neue',sans-serif">0.0</text>
  <text x="22.386458" y="511.126984" fill="#333333" font-size="14.666667" font-family="Arial,Helvetica,'Helvetica Neue',sans-serif">40.0</text>
  <text x="22.386458" y="488.142857" fill="#333333" font-size="14.666667" font-family="Arial,Helvetica,'Helvetica Neue',sans-serif">80.0</text>
  <text x="14.230208" y="465.158730" fill="#333333" font-size="14.666667" font-family="Arial,Helvetica,'Helvetica Neue',sans-serif">120.0</text>
  <path stroke-width="2.000000" stroke="#0066cc" fill="none" d="M62.666667 511.016959 L72.666667 512.524246 L84.385417 524.615977 L96.104167 524.068628 L107.822917 521.520975 L119.541667 527.32645 L131.260417 527.749156 L142.979167 524.080003 L154.697917 520.632482 L166.416667 527.621838 L178.135417 523.383878 L189.854167 524.991031 L201.572917 515.775936 L213.291667 518.713034 L225.010417 522.609114 L236.729167 518.102356 L248.447917 523.352321 L260.166667 525.588825 L271.885417 527.428892 L283.604167 527.502075 L295.322917 527.492884 L307.041667 519.079926 L318.760417 486.979126 L330.479167 462.527091 L342.197917 463.679104 L353.916667 465.778493 L365.635417 494.325058 L377.354167 501.947625 L389.072917 516.295384 L400.791667 523.73607 L412.510417 526.357327 L424.229167 525.668748 L435.947917 526.506507 L447.666667 525.673778 L459.385417 517.406209 L471.104167 516.682792 L482.822917 516.389593 L494.541667 513.165029 L506.260417 514.647302 L517.979167 517.190584 L529.697917 515.985271 L541.416667 511.867567 L553.135417 505.497045 L564.854167 506.218556 L576.572917 502.029599 L588.291667 508.636829 L600.010417 511.584524 L611.729167 518.408496 L623.447917 514.859877 L635.166667 503.103809 L646.885417 500.846396 L658.604167 506.505068 L670.322917 507.677528 L682.041667 506.059477 L693.760417 503.057962 L705.479167 514.969609 L717.197917 518.837076 L728.916667 508.192432 L740.635417 515.118398 L752.354167 522.847148 L764.072917 522.039996 L775.791667 514.030296 L787.510417 519.982174 L799.229167 520.617309 L810.947917 521.805138 L822.666667 520.547099 L834.385417 521.736156 L846.104167 517.285805 L857.822917 521.18414 L869.541667 518.750323 L881.260417 516.311024 L892.979167 518.471152 L902.666667 522.799021 "/>
  <path fill="#4572a7" d="M105.366667 479.466667 M95.366667 479.466667 a5.0 5.0 0 1 0 10.0 0 a5.0 5.0 0 1 0 -10.0 0 "/>
  <text x="111.866667" y="484.466667" fill="#333333" font-size="14.666667" font-family="Arial,Helvetica,'Helvetica Neue',sans-serif">Channel 1</text>
  <path stroke-width="1.333333" stroke="#333333" fill="none" d="M62.666667 629.111111 L902.666667 629.111111 "/>
  <path stroke-width="1.333333" stroke="#333333" fill="none" d="M62.666667 629.111111 L62.666667 623.777778 "/>
  <path stroke-width="1.333333" stroke="#333333" fill="none" d="M182.666672 629.111111 L182.666672 623.777778 "/>
  <path stroke-width="1.333333" stroke="#333333" fill="none" d="M302.666677 629.111111 L302.666677 623.777778 "/>
  <path stroke-width="1.333333" stroke="#333333" fill="none" d="M422.666695 629.111111 L422.666695 623.777778 "/>
  <path stroke-width="1.333333" stroke="#333333" fill="none" d="M542.666688 629.111111 L542.666688 623.777778 "/>
  <path stroke-width="1.333333" stroke="#333333" fill="none" d="M662.666681 629.111111 L662.666681 623.777778 "/>
  <path stroke-width="1.333333" stroke="#333333" fill="none" d="M782.666724 629.111111 L782.666724 623.777778 "/>
  <path stroke-width="1.333333" stroke="#333333" fill="none" d="M902.666667 629.111111 L902.666667 623.777778 "/>
  <text x="34.119792" y="654.844444" fill="#333333" font-size="14.666667" font-family="Arial,Helvetica,'Helvetica Neue',sans-serif">05:15:44</text>
  <text x="154.119797" y="654.844444" fill="#333333" font-size="14.666667" font-family="Arial,Helvetica,'Helvetica Neue',sans-serif">06:06:56</text>
  <text x="274.119802" y="654.844444" fill="#333333" font-size="14.666667" font-family="Arial,Helvetica,'Helvetica Neue',sans-serif">06:58:08</text>
  <text x="394.119820" y="654.844444" fill="#333333" font-size="14.666667" font-family="Arial,Helvetica,'Helvetica Neue',sans-serif">07:49:20</text>
  <text x="514.119813" y="654.844444" fill="#333333" font-size="14.666667" font-family="Arial,Helvetica,'Helvetica Neue',sans-serif">08:40:32</text>
  <text x="634.119806" y="654.844444" fill="#333333" font-size="14.666667" font-family="Arial,Helvetica,'Helvetica Neue',sans-serif">09:31:44</text>
  <text x="754.119849" y="654.844444" fill="#333333" font-size="14.666667" font-family="Arial,Helvetica,'Helvetica Neue',sans-serif">10:22:56</text>
  <text x="874.666667" y="654.844444" fill="#333333" font-size="14.666667" font-family="Arial,Helvetica,'Helvetica Neue',sans-serif">11:14:08</text>
  <path stroke-width="1.333333" stroke="#333333" fill="none" d="M62.666667 548.666667 L62.666667 629.111111 "/>
  <path stroke-width="1.333333" stroke="#333333" fill="none" d="M62.666667 629.111111 L68.0 629.111111 "/>
  <path stroke-width="1.333333" stroke="#333333" fill="none" d="M62.666667 606.126984 L68.0 606.126984 "/>
  <path stroke-width="1.333333" stroke="#333333" fill="none" d="M62.666667 583.142857 L68.0 583.142857 "/>
  <path stroke-width="1.333333" stroke="#333333" fill="none" d="M62.666667 560.15873 L68.0 560.15873 "/>
  <text x="30.542708" y="634.111111" fill="#333333" font-size="14.666667" font-family="Arial,Helvetica,'Helvetica Neue',sans-serif">0.0</text>
  <text x="22.386458" y="611.126984" fill="#333333" font-size="14.666667" font-family="Arial,Helvetica,'Helvetica Neue',sans-serif">40.0</text>
  <text x="22.386458" y="588.142857" fill="#333333" font-size="14.666667" font-family="Arial,Helvetica,'Helvetica Neue',sans-serif">80.0</text>
  <text x="14.230208" y="565.158730" fill="#333333" font-size="14.666667" font-family="Arial,Helvetica,'Helvetica Neue',sans-serif">120.0</text>
  <path stroke-width="2.000000" stroke="#0066cc" fill="none" d="M62.666667 611.016959 L72.666667 612.524246 L84.385417 624.615977 L96.104167 624.068628 L107.822917 621.520975 L119.541667 627.32645 L131.260417 627.749156 L142.979167 624.080003 L154.697917 620.632482 L166.416667 627.621838 L178.135417 623.383878 L189.854167 624.991031 L201.572917 615.775936 L213.291667 618.713034 L225.010417 622.609114 L236.729167 618.102356 L248.447917 623.352321 L260.166667 625.588825 L271.885417 627.428892 L283.604167 627.502075 L295.322917 627.492884 L307.041667 619.079926 L318.760417 586.979126 L330.479167 562.527091 L342.197917 563.679104 L353.916667 565.778493 L365.635417 594.325058 L377.354167 601.947625 L389.072917 616.295384 L400.791667 623.73607 L412.510417 626.357327 L424.229167 625.668748 L435.947917 626.506507 L447.666667 625.673778 L459.385417 617.406209 L471.104167 616.682792 L482.822917 616.389593 L494.541667 613.165029 L506.260417 614.647302 L517.979167 617.190584 L529.697917 615.985271 L541.416667 611.867567 L553.135417 605.497045 L564.854167 606.218556 L576.572917 602.029599 L588.291667 608.636829 L600.010417 611.584524 L611.729167 618.408496 L623.447917 614.859877 L635.166667 603.103809 L646.885417 600.846396 L658.604167 606.505068 L670.322917 607.677528 L682.041667 606.059477 L693.760417 603.057962 L705.479167 614.969609 L717.197917 618.837076 L728.916667 608.192432 L740.635417 615.118398 L752.354167 622.847148 L764.072917 622.039996 L775.791667 614.030296 L787.510417 619.982174 L799.229167 620.617309 L810.947917 621.805138 L822.666667 620.547099 L834.385417 621.736156 L846.104167 617.285805 L857.822917 621.18414 L869.541667 618.750323 L881.260417 616.311024 L892.979167 618.471152 L902.666667 622.799021 "/>
  <path fill="#4572a7" d="M105.366667 579.466667 M95.366667 579.466667 a5.0 5.0 0 1 0 10.0 0 a5.0 5.0 0 1 0 -10.0 0 "/>
  <text x="111.866667" y="584.466667" fill="#333333" font-size="14.666667" font-family="Arial,Helvetica,'Helvetica Neue',sans-serif">Channel 1</text>
  <path stroke-width="1.333333" stroke="#333333" fill="none" d="M62.666667 910.266667 L453.555556 910.266667 "/>
  <path stroke-width="1.333333" stroke="#333333" fill="none" d="M90.587302 910.266667 L90.587302 904.933333 "/>
  <path stroke-width="1.333333" stroke="#333333" fill="none" d="M146.428571 910.266667 L146.428571 904.933333 "/>
  <path stroke-width="1.333333" stroke="#333333" fill="none" d="M202.269841 910.266667 L202.269841 904.933333 "/>
  <path stroke-width="1.333333" stroke="#333333" fill="none" d="M258.111111 910.266667 L258.111111 904.933333 "/>
  <path stroke-width="1.333333" stroke="#333333" fill="none" d="M313.952381 910.266667 L313.952381 904.933333 "/>
  <path stroke-width="1.333333" stroke="#333333" fill="none" d="M369.793651 910.266667 L369.793651 904.933333 "/>
  <path stroke-width="1.333333" stroke="#333333" fill="none" d="M425.634921 910.266667 L425.634921 904.933333 "/>
  <text x="77.946677" y="936.000000" fill="#333333" font-size="14.666667" font-family="Arial,Helvetica,'Helvetica Neue',sans-serif">-3.0</text>
  <text x="133.787946" y="936.000000" fill="#333333" font-size="14.666667" font-family="Arial,Helvetica,'Helvetica Neue',sans-serif">-2.0</text>
  <text x="189.629216" y="936.000000" fill="#333333" font-size="14.666667" font-family="Arial,Helvetica,'Helvetica Neue',sans-serif">-1.0</text>
  <text x="247.915799" y="936.000000" fill="#333333" font-size="14.666667" font-family="Arial,Helvetica,'Helvetica Neue',sans-serif">0.0</text>
  <text x="303.757068" y="936.000000" fill="#333333" font-size="14.666667" font-family="Arial,Helvetica,'Helvetica Neue',sans-serif">1.0</text>
  <text x="359.598338" y="936.000000" fill="#333333" font-size="14.666667" font-family="Arial,Helvetica,'Helvetica Neue',sans-serif">2.0</text>
  <text x="415.439608" y="936.000000" fill="#333333" font-size="14.666667" font-family="Arial,Helvetica,'Helvetica Neue',sans-serif">3.0</text>
  <path stroke-width="1.333333" stroke="#333333" fill="none" d="M62.666667 748.844444 L62.666667 910.266667 "/>
  <path stroke-width="1.333333" stroke="#333333" fill="none" d="M62.666667 910.266667 L68.0 910.266667 "/>
  <path stroke-width="1.333333" stroke="#333333" fill="none" d="M62.666667 880.917172 L68.0 880.917172 "/>
  <path stroke-width="1.333333" stroke="#333333" fill="none" d="M62.666667 851.567677 L68.0 851.567677 "/>
  <path stroke-width="1.333333" stroke="#333333" fill="none" d="M62.666667 822.218182 L68.0 822.218182 "/>
  <path stroke-width="1.333333" stroke="#333333" fill="none" d="M62.666667 792.868687 L68.0 792.868687 "/>
  <path stroke-width="1.333333" stroke="#333333" fill="none" d="M62.666667 763.519192 L68.0 763.519192 "/>
  <text x="30.542708" y="915.266667" fill="#333333" font-size="14.666667" font-family="Arial,Helvetica,'Helvetica Neue',sans-serif">0.0</text>
  <text x="22.386458" y="885.917172" fill="#333333" font-size="14.666667" font-family="Arial,Helvetica,'Helvetica Neue',sans-serif">10.0</text>
  <text x="22.386458" y="856.567677" fill="#333333" font-size="14.666667" font-family="Arial,Helvetica,'Helvetica Neue',sans-serif">20.0</text>
  <text x="22.386458" y="827.218182" fill="#333333" font-size="14.666667" font-family="Arial,Helvetica,'Helvetica Neue',sans-serif">30.0</text>
  <text x="22.386458" y="797.868687" fill="#333333" font-size="14.666667" font-family="Arial,Helvetica,'Helvetica Neue',sans-serif">40.0</text>
  <text x="22.386458" y="768.519192" fill="#333333" font-size="14.666667" font-family="Arial,Helvetica,'Helvetica Neue',sans-serif">50.0</text>
  <path stroke-width="1.333333" stroke="#333333" fill="none" d="M62.666667 748.844444 L453.555556 748.844444 "/>
  <path stroke-width="1.333333" stroke="#333333" fill="none" d="M62.666667 748.844444 L62.666667 754.177778 "/>
  <path stroke-width="1.333333" stroke="#333333" fill="none" d="M118.507939 748.844444 L118.507939 754.177778 "/>
  <path stroke-width="1.333333" stroke="#333333" fill="none" d="M174.349211 748.844444 L174.349211 754.177778 "/>
  <path stroke-width="1.333333" stroke="#333333" fill="none" d="M230.19049 748.844444 L230.19049 754.177778 "/>
  <path stroke-width="1.333333" stroke="#333333" fill="none" d="M286.031756 748.844444 L286.031756 754.177778 "/>
  <path stroke-width="1.333333" stroke="#333333" fill="none" d="M341.873023 748.844444 L341.873023 754.177778 "/>
  <path stroke-width="1.333333" stroke="#333333" fill="none" d="M397.714312 748.844444 L397.714312 754.177778 "/>
  <path stroke-width="1.333333" stroke="#333333" fill="none" d="M453.555556 748.844444 L453.555556 754.177778 "/>
  <text x="50.026042" y="733.111111" fill="#333333" font-size="14.666667" font-family="Arial,Helvetica,'Helvetica Neue',sans-serif">-3.5</text>
  <text x="105.867314" y="733.111111" fill="#333333" font-size="14.666667" font-family="Arial,Helvetica,'Helvetica Neue',sans-serif">-2.5</text>
  <text x="161.708586" y="733.111111" fill="#333333" font-size="14.666667" font-family="Arial,Helvetica,'Helvetica Neue',sans-serif">-1.5</text>
  <text x="217.549865" y="733.111111" fill="#333333" font-size="14.666667" font-family="Arial,Helvetica,'Helvetica Neue',sans-serif">-0.5</text>
  <text x="275.836444" y="733.111111" fill="#333333" font-size="14.666667" font-family="Arial,Helvetica,'Helvetica Neue',sans-serif">0.5</text>
  <text x="331.677710" y="733.111111" fill="#333333" font-size="14.666667" font-family="Arial,Helvetica,'Helvetica Neue',sans-serif">1.5</text>
  <text x="387.519000" y="733.111111" fill="#333333" font-size="14.666667" font-family="Arial,Helvetica,'Helvetica Neue',sans-serif">2.5</text>
  <text x="443.360243" y="733.111111" fill="#333333" font-size="14.666667" font-family="Arial,Helvetica,'Helvetica Neue',sans-serif">3.5</text>
  <path fill="#4572a7" d="M92.720635 910.266667 L92.720635 880.917172 L104.453968 880.917172 L104.453968 910.266667 "/>
  <path fill="#4572a7" d="M148.561905 910.266667 L148.561905 828.088081 L160.295238 828.088081 L160.295238 910.266667 "/>
  <path fill="#4572a7" d="M204.403175 910.266667 L204.403175 851.567677 L216.136508 851.567677 L216.136508 910.266667 "/>
  <path fill="#4572a7" d="M260.244444 910.266667 L260.244444 833.95798 L271.977778 833.95798 L271.977778 910.266667 "/>
  <path fill="#4572a7" d="M316.085714 910.266667 L316.085714 789.933737 L327.819048 789.933737 L327.819048 910.266667 "/>
  <path fill="#4572a7" d="M371.926984 910.266667 L371.926984 781.128889 L383.660317 781.128889 L383.660317 910.266667 "/>
  <path fill="#4572a7" d="M427.768254 910.266667 L427.768254 801.673535 L439.501587 801.673535 L439.501587 910.266667 "/>
  <path fill="#aa4643" d="M76.720635 910.266667 L76.720635 875.047273 L88.453968 875.047273 L88.453968 910.266667 "/>
  <path fill="#aa4643" d="M132.561905 910.266667 L132.561905 854.502626 L144.295238 854.502626 L144.295238 910.266667 "/>
  <path fill="#aa4643" d="M188.403175 910.266667 L188.403175 842.762828 L200.136508 842.762828 L200.136508 910.266667 "/>
  <path fill="#aa4643" d="M244.244444 910.266667 L244.244444 822.218182 L255.977778 822.218182 L255.977778 910.266667 "/>
  <path fill="#aa4643" d="M300.085714 910.266667 L300.085714 807.543434 L311.819048 807.543434 L311.819048 910.266667 "/>
  <path fill="#aa4643" d="M355.926984 910.266667 L355.926984 784.063838 L367.660317 784.063838 L367.660317 910.266667 "/>
  <path fill="#aa4643" d="M411.768254 910.266667 L411.768254 813.413333 L423.501587 813.413333 L423.501587 910.266667 "/>
  <path fill="#4572a7" d="M105.366667 779.644444 M95.366667 779.644444 a5.0 5.0 0 1 0 10.0 0 a5.0 5.0 0 1 0 -10.0 0 "/>
  <text x="111.866667" y="784.644444" fill="#333333" font-size="14.666667" font-family="Arial,Helvetica,'Helvetica Neue',sans-serif">A</text>
  <path fill="#aa4643" d="M164.347917 779.644444 M154.347917 779.644444 a5.0 5.0 0 1 0 10.0 0 a5.0 5.0 0 1 0 -10.0 0 "/>
  <text x="170.847917" y="784.644444" fill="#333333" font-size="14.666667" font-family="Arial,Helvetica,'Helvetica Neue',sans-serif">B</text>
  <path stroke-width="1.333333" stroke="#333333" fill="none" d="M512.222222 910.266667 L903.111111 910.266667 "/>
  <path stroke-width="1.333333" stroke="#333333" fill="none" d="M512.222222 910.266667 L512.222222 904.933333 "/>
  <path stroke-width="1.333333" stroke="#333333" fill="none" d="M568.063492 910.266667 L568.063492 904.933333 "/>
  <path stroke-width="1.333333" stroke="#333333" fill="none" d="M568.063492 910.266667 L568.063492 904.933333 "/>
  <path stroke-width="1.333333" stroke="#333333" fill="none" d="M623.904762 910.266667 L623.904762 904.933333 "/>
  <path stroke-width="1.333333" stroke="#333333" fill="none" d="M623.904762 910.266667 L623.904762 904.933333 "/>
  <path stroke-width="1.333333" stroke="#333333" fill="none" d="M679.746032 910.266667 L679.746032 904.933333 "/>
  <path stroke-width="1.333333" stroke="#333333" fill="none" d="M679.746032 910.266667 L679.746032 904.933333 "/>
  <path stroke-width="1.333333" stroke="#333333" fill="none" d="M735.587302 910.266667 L735.587302 904.933333 "/>
  <path stroke-width="1.333333" stroke="#333333" fill="none" d="M735.587302 910.266667 L735.587302 904.933333 "/>
  <path stroke-width="1.333333" stroke="#333333" fill="none" d="M791.428571 910.266667 L791.428571 904.933333 "/>
  <path stroke-width="1.333333" stroke="#333333" fill="none" d="M791.428571 910.266667 L791.428571 904.933333 "/>
  <path stroke-width="1.333333" stroke="#333333" fill="none" d="M847.269841 910.266667 L847.269841 904.933333 "/>
  <path stroke-width="1.333333" stroke="#333333" fill="none" d="M847.269841 910.266667 L847.269841 904.933333 "/>
  <path stroke-width="1.333333" stroke="#333333" fill="none" d="M903.111111 910.266667 L903.111111 904.933333 "/>
  <path stroke-width="1.333333" stroke="#333333" fill="none" d="M903.111111 910.266667 L903.111111 904.933333 "/>
  <text x="535.252232" y="936.000000" fill="#333333" font-size="14.666667" font-family="Arial,Helvetica,'Helvetica Neue',sans-serif">A</text>
  <text x="591.093502" y="936.000000" fill="#333333" font-size="14.666667" font-family="Arial,Helvetica,'Helvetica Neue',sans-serif">B</text>
  <text x="646.528522" y="936.000000" fill="#333333" font-size="14.666667" font-family="Arial,Helvetica,'Helvetica Neue',sans-serif">C</text>
  <text x="702.369792" y="936.000000" fill="#333333" font-size="14.666667" font-family="Arial,Helvetica,'Helvetica Neue',sans-serif">D</text>
  <text x="758.617312" y="936.000000" fill="#333333" font-size="14.666667" font-family="Arial,Helvetica,'Helvetica Neue',sans-serif">E</text>
  <text x="814.864831" y="936.000000" fill="#333333" font-size="14.666667" font-family="Arial,Helvetica,'Helvetica Neue',sans-serif">F</text>
  <text x="869.487351" y="936.000000" fill="#333333" font-size="14.666667" font-family="Arial,Helvetica,'Helvetica Neue',sans-serif">G</text>
  <path stroke-width="1.333333" stroke="#333333" fill="none" d="M512.222222 748.844444 L903.111111 748.844444 "/>
  <path stroke-width="1.333333" stroke="#333333" fill="none" d="M512.222222 748.844444 L512.222222 754.177778 "/>
  <path stroke-width="1.333333" stroke="#333333" fill="none" d="M568.063495 748.844444 L568.063495 754.177778 "/>
  <path stroke-width="1.333333" stroke="#333333" fill="none" d="M623.904767 748.844444 L623.904767 754.177778 "/>
  <path stroke-width="1.333333" stroke="#333333" fill="none" d="M679.746045 748.844444 L679.746045 754.177778 "/>
  <path stroke-width="1.333333" stroke="#333333" fill="none" d="M735.587312 748.844444 L735.587312 754.177778 "/>
  <path stroke-width="1.333333" stroke="#333333" fill="none" d="M791.428578 748.844444 L791.428578 754.177778 "/>
  <path stroke-width="1.333333" stroke="#333333" fill="none" d="M847.269868 748.844444 L847.269868 754.177778 "/>
  <path stroke-width="1.333333" stroke="#333333" fill="none" d="M903.111111 748.844444 L903.111111 754.177778 "/>
  <text x="499.581597" y="733.111111" fill="#333333" font-size="14.666667" font-family="Arial,Helvetica,'Helvetica Neue',sans-serif">-0.5</text>
  <text x="557.868182" y="733.111111" fill="#333333" font-size="14.666667" font-family="Arial,Helvetica,'Helvetica Neue',sans-serif">0.5</text>
  <text x="613.709454" y="733.111111" fill="#333333" font-size="14.666667" font-family="Arial,Helvetica,'Helvetica Neue',sans-serif">1.5</text>
  <text x="669.550733" y="733.111111" fill="#333333" font-size="14.666667" font-family="Arial,Helvetica,'Helvetica Neue',sans-serif">2.5</text>
  <text x="725.391999" y="733.111111" fill="#333333" font-size="14.666667" font-family="Arial,Helvetica,'Helvetica Neue',sans-serif">3.5</text>
  <text x="781.233266" y="733.111111" fill="#333333" font-size="14.666667" font-family="Arial,Helvetica,'Helvetica Neue',sans-serif">4.5</text>
  <text x="837.074555" y="733.111111" fill="#333333" font-size="14.666667" font-family="Arial,Helvetica,'Helvetica Neue',sans-serif">5.5</text>
  <text x="892.915799" y="733.111111" fill="#333333" font-size="14.666667" font-family="Arial,Helvetica,'Helvetica Neue',sans-serif">6.5</text>
  <path stroke-width="2.000000" stroke="#4572a7" fill="none" d="M540.142857 831.02303 L595.984127 842.762828 L651.825397 866.242424 L707.666667 848.632727 L763.507937 804.608485 L819.349206 795.803636 L875.190476 816.348283 "/>
  <path fill="#4572a7" d="M544.142857 831.02303 M536.142857 831.02303 a4.0 4.0 0 1 0 8.0 0 a4.0 4.0 0 1 0 -8.0 0 "/>
  <path fill="#4572a7" d="M599.984127 842.762828 M591.984127 842.762828 a4.0 4.0 0 1 0 8.0 0 a4.0 4.0 0 1 0 -8.0 0 "/>
  <path fill="#4572a7" d="M655.825397 866.242424 M647.825397 866.242424 a4.0 4.0 0 1 0 8.0 0 a4.0 4.0 0 1 0 -8.0 0 "/>
  <path fill="#4572a7" d="M711.666667 848.632727 M703.666667 848.632727 a4.0 4.0 0 1 0 8.0 0 a4.0 4.0 0 1 0 -8.0 0 "/>
  <path fill="#4572a7" d="M767.507937 804.608485 M759.507937 804.608485 a4.0 4.0 0 1 0 8.0 0 a4.0 4.0 0 1 0 -8.0 0 "/>
  <path fill="#4572a7" d="M823.349206 795.803636 M815.349206 795.803636 a4.0 4.0 0 1 0 8.0 0 a4.0 4.0 0 1 0 -8.0 0 "/>
  <path fill="#4572a7" d="M879.190476 816.348283 M871.190476 816.348283 a4.0 4.0 0 1 0 8.0 0 a4.0 4.0 0 1 0 -8.0 0 "/>
  <path stroke-width="2.000000" stroke="#aa4643" fill="none" d="M540.142857 854.502626 L595.984127 869.177374 L651.825397 877.982222 L707.666667 857.437576 L763.507937 822.218182 L819.349206 839.827879 L875.190476 854.502626 "/>
  <path fill="#aa4643" d="M544.142857 854.502626 M536.142857 854.502626 a4.0 4.0 0 1 0 8.0 0 a4.0 4.0 0 1 0 -8.0 0 "/>
  <path fill="#aa4643" d="M599.984127 869.177374 M591.984127 869.177374 a4.0 4.0 0 1 0 8.0 0 a4.0 4.0 0 1 0 -8.0 0 "/>
  <path fill="#aa4643" d="M655.825397 877.982222 M647.825397 877.982222 a4.0 4.0 0 1 0 8.0 0 a4.0 4.0 0 1 0 -8.0 0 "/>
  <path fill="#aa4643" d="M711.666667 857.437576 M703.666667 857.437576 a4.0 4.0 0 1 0 8.0 0 a4.0 4.0 0 1 0 -8.0 0 "/>
  <path fill="#aa4643" d="M767.507937 822.218182 M759.507937 822.218182 a4.0 4.0 0 1 0 8.0 0 a4.0 4.0 0 1 0 -8.0 0 "/>
  <path fill="#aa4643" d="M823.349206 839.827879 M815.349206 839.827879 a4.0 4.0 0 1 0 8.0 0 a4.0 4.0 0 1 0 -8.0 0 "/>
  <path fill="#aa4643" d="M879.190476 854.502626 M871.190476 854.502626 a4.0 4.0 0 1 0 8.0 0 a4.0 4.0 0 1 0 -8.0 0 "/>
  <path fill="#4572a7" d="M554.922222 779.644444 M544.922222 779.644444 a5.0 5.0 0 1 0 10.0 0 a5.0 5.0 0 1 0 -10.0 0 "/>
  <text x="561.422222" y="784.644444" fill="#333333" font-size="14.666667" font-family="Arial,Helvetica,'Helvetica Neue',sans-serif">A</text>
  <path fill="#aa4643" d="M613.903472 779.644444 M603.903472 779.644444 a5.0 5.0 0 1 0 10.0 0 a5.0 5.0 0 1 0 -10.0 0 "/>
  <text x="620.403472" y="784.644444" fill="#333333" font-size="14.666667" font-family="Arial,Helvetica,'Helvetica Neue',sans-serif">B</text>
  <path stroke-width="1.333333" stroke="#333333" fill="none" d="M1372.386458 748.844444 L1372.386458 910.266667 "/>
  <path stroke-width="1.333333" stroke="#333333" fill="none" d="M1372.386458 910.266667 L1367.053125 910.266667 "/>
  <path stroke-width="1.333333" stroke="#333333" fill="none" d="M1372.386458 883.362963 L1367.053125 883.362963 "/>
  <path stroke-width="1.333333" stroke="#333333" fill="none" d="M1372.386458 856.459259 L1367.053125 856.459259 "/>
  <path stroke-width="1.333333" stroke="#333333" fill="none" d="M1372.386458 829.555556 L1367.053125 829.555556 "/>
  <path stroke-width="1.333333" stroke="#333333" fill="none" d="M1372.386458 802.651852 L1367.053125 802.651852 "/>
  <path stroke-width="1.333333" stroke="#333333" fill="none" d="M1372.386458 775.748148 L1367.053125 775.748148 "/>
  <path stroke-width="1.333333" stroke="#333333" fill="none" d="M1372.386458 748.844444 L1367.053125 748.844444 "/>
  <text x="1384.119792" y="915.266667" fill="#333333" font-size="14.666667" font-family="Arial,Helvetica,'Helvetica Neue',sans-serif">0.0</text>
  <text x="1384.119792" y="888.362963" fill="#333333" font-size="14.666667" font-family="Arial,Helvetica,'Helvetica Neue',sans-serif">5.0</text>
  <text x="1384.119792" y="861.459259" fill="#333333" font-size="14.666667" font-family="Arial,Helvetica,'Helvetica Neue',sans-serif">10.0</text>
  <text x="1384.119792" y="834.555556" fill="#333333" font-size="14.666667" font-family="Arial,Helvetica,'Helvetica Neue',sans-serif">15.0</text>
  <text x="1384.119792" y="807.651852" fill="#333333" font-size="14.666667" font-family="Arial,Helvetica,'Helvetica Neue',sans-serif">20.0</text>
  <text x="1384.119792" y="780.748148" fill="#333333" font-size="14.666667" font-family="Arial,Helvetica,'Helvetica Neue',sans-serif">25.0</text>
  <text x="1384.119792" y="753.844444" fill="#333333" font-size="14.666667" font-family="Arial,Helvetica,'Helvetica Neue',sans-serif">30.0</text>
  <path stroke-width="1.333333" stroke="#333333" fill="none" d="M961.777778 910.266667 L1372.386458 910.266667 "/>
  <path stroke-width="1.333333" stroke="#333333" fill="none" d="M981.971646 910.266667 L981.971646 904.933333 "/>
  <path stroke-width="1.333333" stroke="#333333" fill="none" d="M1015.628095 910.266667 L1015.628095 904.933333 "/>
  <path stroke-width="1.333333" stroke="#333333" fill="none" d="M1049.284543 910.266667 L1049.284543 904.933333 "/>
  <path stroke-width="1.333333" stroke="#333333" fill="none" d="M1082.940991 910.266667 L1082.940991 904.933333 "/>
  <path stroke-width="1.333333" stroke="#333333" fill="none" d="M1116.597439 910.266667 L1116.597439 904.933333 "/>
  <path stroke-width="1.333333" stroke="#333333" fill="none" d="M1150.253887 910.266667 L1150.253887 904.933333 "/>
  <path stroke-width="1.333333" stroke="#333333" fill="none" d="M1183.910336 910.266667 L1183.910336 904.933333 "/>
  <path stroke-width="1.333333" stroke="#333333" fill="none" d="M1217.566784 910.266667 L1217.566784 904.933333 "/>
  <path stroke-width="1.333333" stroke="#333333" fill="none" d="M1251.223232 910.266667 L1251.223232 904.933333 "/>
  <path stroke-width="1.333333" stroke="#333333" fill="none" d="M1284.87968 910.266667 L1284.87968 904.933333 "/>
  <path stroke-width="1.333333" stroke="#333333" fill="none" d="M1318.536128 910.266667 L1318.536128 904.933333 "/>
  <path stroke-width="1.333333" stroke="#333333" fill="none" d="M1352.192577 910.266667 L1352.192577 904.933333 "/>
  <text x="970.143521" y="936.000000" fill="#333333" font-size="14.666667" font-family="Arial,Helvetica,'Helvetica Neue',sans-serif">Jan</text>
  <text x="1002.987470" y="936.000000" fill="#333333" font-size="14.666667" font-family="Arial,Helvetica,'Helvetica Neue',sans-serif">Feb</text>
  <text x="1036.651730" y="936.000000" fill="#333333" font-size="14.666667" font-family="Arial,Helvetica,'Helvetica Neue',sans-serif">Mar</text>
  <text x="1071.526929" y="936.000000" fill="#333333" font-size="14.666667" font-family="Arial,Helvetica,'Helvetica Neue',sans-serif">Apr</text>
  <text x="1102.738064" y="936.000000" fill="#333333" font-size="14.666667" font-family="Arial,Helvetica,'Helvetica Neue',sans-serif">May</text>
  <text x="1138.425762" y="936.000000" fill="#333333" font-size="14.666667" font-family="Arial,Helvetica,'Helvetica Neue',sans-serif">Jun</text>
  <text x="1174.527523" y="936.000000" fill="#333333" font-size="14.666667" font-family="Arial,Helvetica,'Helvetica Neue',sans-serif">Jul</text>
  <text x="1204.519909" y="936.000000" fill="#333333" font-size="14.666667" font-family="Arial,Helvetica,'Helvetica Neue',sans-serif">Aug</text>
  <text x="1238.176357" y="936.000000" fill="#333333" font-size="14.666667" font-family="Arial,Helvetica,'Helvetica Neue',sans-serif">Sep</text>
  <text x="1273.465618" y="936.000000" fill="#333333" font-size="14.666667" font-family="Arial,Helvetica,'Helvetica Neue',sans-serif">Oct</text>
  <text x="1305.489253" y="936.000000" fill="#333333" font-size="14.666667" font-family="Arial,Helvetica,'Helvetica Neue',sans-serif">Nov</text>
  <text x="1339.145702" y="936.000000" fill="#333333" font-size="14.666667" font-family="Arial,Helvetica,'Helvetica Neue',sans-serif">Dec</text>
  <path stroke-width="1.333333" stroke="#333333" fill="none" d="M961.777778 748.844444 L1372.386458 748.844444 "/>
  <path stroke-width="1.333333" stroke="#333333" fill="none" d="M981.971646 748.844444 L981.971646 754.177778 "/>
  <path stroke-width="1.333333" stroke="#333333" fill="none" d="M1015.628095 748.844444 L1015.628095 754.177778 "/>
  <path stroke-width="1.333333" stroke="#333333" fill="none" d="M1049.284543 748.844444 L1049.284543 754.177778 "/>
  <path stroke-width="1.333333" stroke="#333333" fill="none" d="M1082.940991 748.844444 L1082.940991 754.177778 "/>
  <path stroke-width="1.333333" stroke="#333333" fill="none" d="M1116.597439 748.844444 L1116.597439 754.177778 "/>
  <path stroke-width="1.333333" stroke="#333333" fill="none" d="M1150.253887 748.844444 L1150.253887 754.177778 "/>
  <path stroke-width="1.333333" stroke="#333333" fill="none" d="M1183.910336 748.844444 L1183.910336 754.177778 "/>
  <path stroke-width="1.333333" stroke="#333333" fill="none" d="M1217.566784 748.844444 L1217.566784 754.177778 "/>
  <path stroke-width="1.333333" stroke="#333333" fill="none" d="M1251.223232 748.844444 L1251.223232 754.177778 "/>
  <path stroke-width="1.333333" stroke="#333333" fill="none" d="M1284.87968 748.844444 L1284.87968 754.177778 "/>
  <path stroke-width="1.333333" stroke="#333333" fill="none" d="M1318.536128 748.844444 L1318.536128 754.177778 "/>
  <path stroke-width="1.333333" stroke="#333333" fill="none" d="M1352.192577 748.844444 L1352.192577 754.177778 "/>
  <text x="970.143521" y="733.111111" fill="#333333" font-size="14.666667" font-family="Arial,Helvetica,'Helvetica Neue',sans-serif">Jan</text>
  <text x="1002.987470" y="733.111111" fill="#333333" font-size="14.666667" font-family="Arial,Helvetica,'Helvetica Neue',sans-serif">Feb</text>
  <text x="1036.651730" y="733.111111" fill="#333333" font-size="14.666667" font-family="Arial,Helvetica,'Helvetica Neue',sans-serif">Mar</text>
  <text x="1071.526929" y="733.111111" fill="#333333" font-size="14.666667" font-family="Arial,Helvetica,'Helvetica Neue',sans-serif">Apr</text>
  <text x="1102.738064" y="733.111111" fill="#333333" font-size="14.666667" font-family="Arial,Helvetica,'Helvetica Neue',sans-serif">May</text>
  <text x="1138.425762" y="733.111111" fill="#333333" font-size="14.666667" font-family="Arial,Helvetica,'Helvetica Neue',sans-serif">Jun</text>
  <text x="1174.527523" y="733.111111" fill="#333333" font-size="14.666667" font-family="Arial,Helvetica,'Helvetica Neue',sans-serif">Jul</text>
  <text x="1204.519909" y="733.111111" fill="#333333" font-size="14.666667" font-family="Arial,Helvetica,'Helvetica Neue',sans-serif">Aug</text>
  <text x="1238.176357" y="733.111111" fill="#333333" font-size="14.666667" font-family="Arial,Helvetica,'Helvetica Neue',sans-serif">Sep</text>
  <text x="1273.465618" y="733.111111" fill="#333333" font-size="14.666667" font-family="Arial,Helvetica,'Helvetica Neue',sans-serif">Oct</text>
  <text x="1305.489253" y="733.111111" fill="#333333" font-size="14.666667" font-family="Arial,Helvetica,'Helvetica Neue',sans-serif">Nov</text>
  <text x="1339.145702" y="733.111111" fill="#333333" font-size="14.666667" font-family="Arial,Helvetica,'Helvetica Neue',sans-serif">Dec</text>
  <path fill="#4572a7" d="M962.416091 910.266667 L962.416091 889.281778 L1001.527202 889.281778 L1001.527202 910.266667 "/>
  <path fill="#4572a7" d="M996.072539 910.266667 L996.072539 887.667556 L1035.18365 887.667556 L1035.18365 910.266667 "/>
  <path fill="#4572a7" d="M1029.728987 910.266667 L1029.728987 879.596444 L1068.840098 879.596444 L1068.840098 910.266667 "/>
  <path fill="#4572a7" d="M1063.385436 910.266667 L1063.385436 864.53037 L1102.496547 864.53037 L1102.496547 910.266667 "/>
  <path fill="#4572a7" d="M1097.041884 910.266667 L1097.041884 846.235852 L1136.152995 846.235852 L1136.152995 910.266667 "/>
  <path fill="#4572a7" d="M1130.698332 910.266667 L1130.698332 828.479407 L1169.809443 828.479407 L1169.809443 910.266667 "/>
  <path fill="#4572a7" d="M1164.35478 910.266667 L1164.35478 818.794074 L1203.465891 818.794074 L1203.465891 910.266667 "/>
  <path fill="#4572a7" d="M1198.011228 910.266667 L1198.011228 820.94637 L1237.122339 820.94637 L1237.122339 910.266667 "/>
  <path fill="#4572a7" d="M1231.667676 910.266667 L1231.667676 833.860148 L1270.778788 833.860148 L1270.778788 910.266667 "/>
  <path fill="#4572a7" d="M1265.324125 910.266667 L1265.324125 854.845037 L1304.435236 854.845037 L1304.435236 910.266667 "/>
  <path fill="#4572a7" d="M1298.980573 910.266667 L1298.980573 874.753778 L1338.091684 874.753778 L1338.091684 910.266667 "/>
  <path fill="#4572a7" d="M1332.637021 910.266667 L1332.637021 884.439111 L1371.748132 884.439111 L1371.748132 910.266667 "/>
</svg>