<svg xmlns="http://www.w3.org/2000/svg" width="1439.000000" height="980.000000" viewBox="0 0 1439.0 980.0">
  <rect width="1439.000000" height="980.000000" fill="#ffffff"/>
  <path stroke-width="1.333333" stroke="#333333" fill="none" d="M62.666667 230.266667 L453.555556 230.266667 "/>
  <path stroke-width="1.333333" stroke="#333333" fill="none" d="M62.666667 230.266667 L62.666667 224.933333 "/>
  <path stroke-width="1.333333" stroke="#333333" fill="none" d="M127.814815 230.266667 L127.814815 224.933333 "/>
  <path stroke-width="1.333333" stroke="#333333" fill="none" d="M192.962963 230.266667 L192.962963 224.933333 "/>
  <path stroke-width="1.333333" stroke="#333333" fill="none" d="M258.111111 230.266667 L258.111111 224.933333 "/>
  <path stroke-width="1.333333" stroke="#333333" fill="none" d="M323.259259 230.266667 L323.259259 224.933333 "/>
  <path stroke-width="1.333333" stroke="#333333" fill="none" d="M388.407407 230.266667 L388.407407 224.933333 "/>
  <path stroke-width="1.333333" stroke="#333333" fill="none" d="M453.555556 230.266667 L453.555556 224.933333 "/>
  <text x="50.026042" y="256.000000" fill="#333333" font-size="14.666667" font-family="Arial,Helvetica,'Helvetica Neue',sans-serif">-3.0</text>
  <text x="115.174190" y="256.000000" fill="#333333" font-size="14.666667" font-family="Arial,Helvetica,'Helvetica Neue',sans-serif">-2.0</text>
  <text x="180.322338" y="256.000000" fill="#333333" font-size="14.666667" font-family="Arial,Helvetica,'Helvetica Neue',sans-serif">-1.0</text>
  <text x="247.915799" y="256.000000" fill="#333333" font-size="14.666667" font-family="Arial,Helvetica,'Helvetica Neue',sans-serif">0.0</text>
  <text x="313.063947" y="256.000000" fill="#333333" font-size="14.666667" font-family="Arial,Helvetica,'Helvetica Neue',sans-serif">1.0</text>
  <text x="378.212095" y="256.000000" fill="#333333" font-size="14.666667" font-family="Arial,Helvetica,'Helvetica Neue',sans-serif">2.0</text>
  <text x="443.360243" y="256.000000" fill="#333333" font-size="14.666667" font-family="Arial,Helvetica,'Helvetica Neue',sans-serif">3.0</text>
  <path stroke-width="1.333333" stroke="#333333" fill="none" d="M62.666667 68.844444 L62.666667 230.266667 "/>
  <path stroke-width="1.333333" stroke="#333333" fill="none" d="M62.666667 230.266667 L68.0 230.266667 "/>
  <path stroke-width="1.333333" stroke="#333333" fill="none" d="M62.666667 182.789542 L68.0 182.789542 "/>
  <path stroke-width="1.333333" stroke="#333333" fill="none" d="M62.666667 135.312418 L68.0 135.312418 "/>
  <path stroke-width="1.333333" stroke="#333333" fill="none" d="M62.666667 87.835294 L68.0 87.835294 "/>
  <text x="22.386458" y="235.266667" fill="#333333" font-size="14.666667" font-family="Arial,Helvetica,'Helvetica Neue',sans-serif">10.0</text>
  <text x="22.386458" y="187.789542" fill="#333333" font-size="14.666667" font-family="Arial,Helvetica,'Helvetica Neue',sans-serif">20.0</text>
  <text x="22.386458" y="140.312418" fill="#333333" font-size="14.666667" font-family="Arial,Helvetica,'Helvetica Neue',sans-serif">30.0</text>
  <text x="22.386458" y="92.835294" fill="#333333" font-size="14.666667" font-family="Arial,Helvetica,'Helvetica Neue',sans-serif">40.0</text>
  <path stroke-width="1.333333" stroke="#333333" fill="none" d="M62.666667 68.844444 L453.555556 68.844444 "/>
  <path stroke-width="1.333333" stroke="#333333" fill="none" d="M62.666667 68.844444 L62.666667 74.177778 "/>
  <path stroke-width="1.333333" stroke="#333333" fill="none" d="M118.507939 68.844444 L118.507939 74.177778 "/>
  <path stroke-width="1.333333" stroke="#333333" fill="none" d="M174.349211 68.844444 L174.349211 74.177778 "/>
  <path stroke-width="1.333333" stroke="#333333" fill="none" d="M230.19049 68.844444 L230.19049 74.177778 "/>
  <path stroke-width="1.333333" stroke="#333333" fill="none" d="M286.031756 68.844444 L286.031756 74.177778 "/>
  <path stroke-width="1.333333" stroke="#333333" fill="none" d="M341.873023 68.844444 L341.873023 74.177778 "/>
  <path stroke-width="1.333333" stroke="#333333" fill="none" d="M397.714312 68.844444 L397.714312 74.177778 "/>
  <path stroke-width="1.333333" stroke="#333333" fill="none" d="M453.555556 68.844444 L453.555556 74.177778 "/>
  <text x="50.026042" y="53.111111" fill="#333333" font-size="14.666667" font-family="Arial,Helvetica,'Helvetica Neue',sans-serif">-3.0</text>
  <text x="105.867314" y="53.111111" fill="#333333" font-size="14.666667" font-family="Arial,Helvetica,'Helvetica Neue',sans-serif">-2.1</text>
  <text x="161.708586" y="53.111111" fill="#333333" font-size="14.666667" font-family="Arial,Helvetica,'Helvetica Neue',sans-serif">-1.3</text>
  <text x="217.549865" y="53.111111" fill="#333333" font-size="14.666667" font-family="Arial,Helvetica,'Helvetica Neue',sans-serif">-0.4</text>
  <text x="275.836444" y="53.111111" fill="#333333" font-size="14.666667" font-family="Arial,Helvetica,'Helvetica Neue',sans-serif">0.4</text>
  <text x="331.677710" y="53.111111" fill="#333333" font-size="14.666667" font-family="Arial,Helvetica,'Helvetica Neue',sans-serif">1.3</text>
  <text x="387.519000" y="53.111111" fill="#333333" font-size="14.666667" font-family="Arial,Helvetica,'Helvetica Neue',sans-serif">2.1</text>
  <text x="443.360243" y="53.111111" fill="#333333" font-size="14.666667" font-family="Arial,Helvetica,'Helvetica Neue',sans-serif">3.0</text>
  <path fill="#4572a7" d="M64.8 230.266667 L64.8 230.266667 L76.533333 230.266667 L76.533333 230.266667 "/>
  <path fill="#4572a7" d="M129.948148 230.266667 L129.948148 144.807843 L141.681481 144.807843 L141.681481 230.266667 "/>
  <path fill="#4572a7" d="M195.096296 230.266667 L195.096296 182.789542 L206.82963 182.789542 L206.82963 230.266667 "/>
  <path fill="#4572a7" d="M260.244444 230.266667 L260.244444 154.303268 L271.977778 154.303268 L271.977778 230.266667 "/>
  <path fill="#4572a7" d="M325.392593 230.266667 L325.392593 83.087582 L337.125926 83.087582 L337.125926 230.266667 "/>
  <path fill="#4572a7" d="M390.540741 230.266667 L390.540741 68.844444 L402.274074 68.844444 L402.274074 230.266667 "/>
  <path fill="#4572a7" d="M455.688889 230.266667 L455.688889 102.078431 L467.422222 102.078431 L467.422222 230.266667 "/>
  <path fill="#aa4643" d="M48.8 230.266667 L48.8 220.771242 L60.533333 220.771242 L60.533333 230.266667 "/>
  <path fill="#aa4643" d="M113.948148 230.266667 L113.948148 187.537255 L125.681481 187.537255 L125.681481 230.266667 "/>
  <path fill="#aa4643" d="M179.096296 230.266667 L179.096296 168.546405 L190.82963 168.546405 L190.82963 230.266667 "/>
  <path fill="#aa4643" d="M244.244444 230.266667 L244.244444 135.312418 L255.977778 135.312418 L255.977778 230.266667 "/>
  <path fill="#aa4643" d="M309.392593 230.266667 L309.392593 111.573856 L321.125926 111.573856 L321.125926 230.266667 "/>
  <path fill="#aa4643" d="M374.540741 230.266667 L374.540741 73.592157 L386.274074 73.592157 L386.274074 230.266667 "/>
  <path fill="#aa4643" d="M439.688889 230.266667 L439.688889 121.069281 L451.422222 121.069281 L451.422222 230.266667 "/>
  <path fill="#4572a7" d="M96.566667 96.711111 M86.566667 96.711111 a5.0 5.0 0 1 0 10.0 0 a5.0 5.0 0 1 0 -10.0 0 "/>
  <text x="103.066667" y="101.711111" fill="#333333" font-size="14.666667" font-family="Arial,Helvetica,'Helvetica Neue',sans-serif">A</text>
  <path fill="#aa4643" d="M155.547917 96.711111 M145.547917 96.711111 a5.0 5.0 0 1 0 10.0 0 a5.0 5.0 0 1 0 -10.0 0 "/>
  <text x="162.047917" y="101.711111" fill="#333333" font-size="14.666667" font-family="Arial,Helvetica,'Helvetica Neue',sans-serif">B</text>
  <path stroke-width="1.333333" stroke="#333333" fill="none" d="M512.222222 230.266667 L903.111111 230.266667 "/>
  <path stroke-width="1.333333" stroke="#333333" fill="none" d="M544.796296 230.266667 L544.796296 224.933333 "/>
  <path stroke-width="1.333333" stroke="#333333" fill="none" d="M544.796296 230.266667 L544.796296 224.933333 "/>
  <path stroke-width="1.333333" stroke="#333333" fill="none" d="M609.944444 230.266667 L609.944444 224.933333 "/>
  <path stroke-width="1.333333" stroke="#333333" fill="none" d="M609.944444 230.266667 L609.944444 224.933333 "/>
  <path stroke-width="1.333333" stroke="#333333" fill="none" d="M675.092593 230.266667 L675.092593 224.933333 "/>
  <path stroke-width="1.333333" stroke="#333333" fill="none" d="M675.092593 230.266667 L675.092593 224.933333 "/>
  <path stroke-width="1.333333" stroke="#333333" fill="none" d="M740.240741 230.266667 L740.240741 224.933333 "/>
  <path stroke-width="1.333333" stroke="#333333" fill="none" d="M740.240741 230.266667 L740.240741 224.933333 "/>
  <path stroke-width="1.333333" stroke="#333333" fill="none" d="M805.388889 230.266667 L805.388889 224.933333 "/>
  <path stroke-width="1.333333" stroke="#333333" fill="none" d="M805.388889 230.266667 L805.388889 224.933333 "/>
  <path stroke-width="1.333333" stroke="#333333" fill="none" d="M870.537037 230.266667 L870.537037 224.933333 "/>
  <path stroke-width="1.333333" stroke="#333333" fill="none" d="M870.537037 230.266667 L870.537037 224.933333 "/>
  <text x="572.479745" y="256.000000" fill="#333333" font-size="14.666667" font-family="Arial,Helvetica,'Helvetica Neue',sans-serif">A</text>
  <text x="637.627894" y="256.000000" fill="#333333" font-size="14.666667" font-family="Arial,Helvetica,'Helvetica Neue',sans-serif">B</text>
  <text x="702.369792" y="256.000000" fill="#333333" font-size="14.666667" font-family="Arial,Helvetica,'Helvetica Neue',sans-serif">C</text>
  <text x="767.517940" y="256.000000" fill="#333333" font-size="14.666667" font-family="Arial,Helvetica,'Helvetica Neue',sans-serif">D</text>
  <text x="833.072338" y="256.000000" fill="#333333" font-size="14.666667" font-family="Arial,Helvetica,'Helvetica Neue',sans-serif">E</text>
  <path stroke-width="1.333333" stroke="#333333" fill="none" d="M512.222222 68.844444 L903.111111 68.844444 "/>
  <path stroke-width="1.333333" stroke="#333333" fill="none" d="M512.222222 68.844444 L512.222222 74.177778 "/>
  <path stroke-width="1.333333" stroke="#333333" fill="none" d="M568.063495 68.844444 L568.063495 74.177778 "/>
  <path stroke-width="1.333333" stroke="#333333" fill="none" d="M623.904767 68.844444 L623.904767 74.177778 "/>
  <path stroke-width="1.333333" stroke="#333333" fill="none" d="M679.746045 68.844444 L679.746045 74.177778 "/>
  <path stroke-width="1.333333" stroke="#333333" fill="none" d="M735.587312 68.844444 L735.587312 74.177778 "/>
  <path stroke-width="1.333333" stroke="#333333" fill="none" d="M791.428578 68.844444 L791.428578 74.177778 "/>
  <path stroke-width="1.333333" stroke="#333333" fill="none" d="M847.269868 68.844444 L847.269868 74.177778 "/>
  <path stroke-width="1.333333" stroke="#333333" fill="none" d="M903.111111 68.844444 L903.111111 74.177778 "/>
  <text x="502.026910" y="53.111111" fill="#333333" font-size="14.666667" font-family="Arial,Helvetica,'Helvetica Neue',sans-serif">0.0</text>
  <text x="557.868182" y="53.111111" fill="#333333" font-size="14.666667" font-family="Arial,Helvetica,'Helvetica Neue',sans-serif">0.9</text>
  <text x="613.709454" y="53.111111" fill="#333333" font-size="14.666667" font-family="Arial,Helvetica,'Helvetica Neue',sans-serif">1.7</text>
  <text x="669.550733" y="53.111111" fill="#333333" font-size="14.666667" font-family="Arial,Helvetica,'Helvetica Neue',sans-serif">2.6</text>
  <text x="725.391999" y="53.111111" fill="#333333" font-size="14.666667" font-family="Arial,Helvetica,'Helvetica Neue',sans-serif">3.4</text>
  <text x="781.233266" y="53.111111" fill="#333333" font-size="14.666667" font-family="Arial,Helvetica,'Helvetica Neue',sans-serif">4.3</text>
  <text x="837.074555" y="53.111111" fill="#333333" font-size="14.666667" font-family="Arial,Helvetica,'Helvetica Neue',sans-serif">5.1</text>
  <text x="892.915799" y="53.111111" fill="#333333" font-size="14.666667" font-family="Arial,Helvetica,'Helvetica Neue',sans-serif">6.0</text>
  <path fill="#4572a7" d="M512.222222 221.298765 L577.37037 140.587654 L642.518519 176.459259 L707.666667 149.555556 L772.814815 82.296296 L837.962963 68.844444 L903.111111 100.232099 L903.111111 230.266667 L837.962963 230.266667 L772.814815 230.266667 L707.666667 230.266667 L642.518519 230.266667 L577.37037 230.266667 L512.222222 230.266667 "/>
  <path fill="#aa4643" d="M512.222222 230.266667 L577.37037 180.94321 L642.518519 194.395062 L707.666667 163.007407 L772.814815 109.2 L837.962963 136.103704 L903.111111 118.167901 L903.111111 230.266667 L837.962963 230.266667 L772.814815 230.266667 L707.666667 230.266667 L642.518519 230.266667 L577.37037 230.266667 L512.222222 230.266667 "/>
  <path fill="#4572a7" d="M546.122222 96.711111 M536.122222 96.711111 a5.0 5.0 0 1 0 10.0 0 a5.0 5.0 0 1 0 -10.0 0 "/>
  <text x="552.622222" y="101.711111" fill="#333333" font-size="14.666667" font-family="Arial,Helvetica,'Helvetica Neue',sans-serif">A</text>
  <path fill="#aa4643" d="M605.103472 96.711111 M595.103472 96.711111 a5.0 5.0 0 1 0 10.0 0 a5.0 5.0 0 1 0 -10.0 0 "/>
  <text x="611.603472" y="101.711111" fill="#333333" font-size="14.666667" font-family="Arial,Helvetica,'Helvetica Neue',sans-serif">B</text>
  <path stroke-width="1.333333" stroke="#333333" fill="none" d="M961.777778 230.266667 L1352.666667 230.266667 "/>
  <path stroke-width="1.333333" stroke="#333333" fill="none" d="M961.777778 230.266667 L961.777778 224.933333 "/>
  <path stroke-width="1.333333" stroke="#333333" fill="none" d="M1066.014815 230.266667 L1066.014815 224.933333 "/>
  <path stroke-width="1.333333" stroke="#333333" fill="none" d="M1170.251852 230.266667 L1170.251852 224.933333 "/>
  <path stroke-width="1.333333" stroke="#333333" fill="none" d="M1274.488889 230.266667 L1274.488889 224.933333 "/>
  <text x="947.504340" y="256.000000" fill="#333333" font-size="14.666667" font-family="Arial,Helvetica,'Helvetica Neue',sans-serif">10.0</text>
  <text x="1051.741377" y="256.000000" fill="#333333" font-size="14.666667" font-family="Arial,Helvetica,'Helvetica Neue',sans-serif">50.0</text>
  <text x="1155.978414" y="256.000000" fill="#333333" font-size="14.666667" font-family="Arial,Helvetica,'Helvetica Neue',sans-serif">90.0</text>
  <text x="1256.137326" y="256.000000" fill="#333333" font-size="14.666667" font-family="Arial,Helvetica,'Helvetica Neue',sans-serif">130.0</text>
  <path stroke-width="1.333333" stroke="#333333" fill="none" d="M1352.666667 68.844444 L1352.666667 230.266667 "/>
  <path stroke-width="1.333333" stroke="#333333" fill="none" d="M1352.666667 230.266667 L1347.333333 230.266667 "/>
  <path stroke-width="1.333333" stroke="#333333" fill="none" d="M1352.666667 172.615873 L1347.333333 172.615873 "/>
  <path stroke-width="1.333333" stroke="#333333" fill="none" d="M1352.666667 114.965079 L1347.333333 114.965079 "/>
  <text x="1364.400000" y="235.266667" fill="#333333" font-size="14.666667" font-family="Arial,Helvetica,'Helvetica Neue',sans-serif">50.0</text>
  <text x="1364.400000" y="177.615873" fill="#333333" font-size="14.666667" font-family="Arial,Helvetica,'Helvetica Neue',sans-serif">100.0</text>
  <text x="1364.400000" y="119.965079" fill="#333333" font-size="14.666667" font-family="Arial,Helvetica,'Helvetica Neue',sans-serif">150.0</text>
  <path stroke-width="1.333333" stroke="#333333" fill="none" d="M961.777778 68.844444 L1352.666667 68.844444 "/>
  <path stroke-width="1.333333" stroke="#333333" fill="none" d="M961.777778 68.844444 L961.777778 74.177778 "/>
  <path stroke-width="1.333333" stroke="#333333" fill="none" d="M1017.61905 68.844444 L1017.61905 74.177778 "/>
  <path stroke-width="1.333333" stroke="#333333" fill="none" d="M1073.460322 68.844444 L1073.460322 74.177778 "/>
  <path stroke-width="1.333333" stroke="#333333" fill="none" d="M1129.301601 68.844444 L1129.301601 74.177778 "/>
  <path stroke-width="1.333333" stroke="#333333" fill="none" d="M1185.142867 68.844444 L1185.142867 74.177778 "/>
  <path stroke-width="1.333333" stroke="#333333" fill="none" d="M1240.984134 68.844444 L1240.984134 74.177778 "/>
  <path stroke-width="1.333333" stroke="#333333" fill="none" d="M1296.825423 68.844444 L1296.825423 74.177778 "/>
  <path stroke-width="1.333333" stroke="#333333" fill="none" d="M1352.666667 68.844444 L1352.666667 74.177778 "/>
  <text x="947.504340" y="53.111111" fill="#333333" font-size="14.666667" font-family="Arial,Helvetica,'Helvetica Neue',sans-serif">10.0</text>
  <text x="1003.345613" y="53.111111" fill="#333333" font-size="14.666667" font-family="Arial,Helvetica,'Helvetica Neue',sans-serif">31.4</text>
  <text x="1059.186885" y="53.111111" fill="#333333" font-size="14.666667" font-family="Arial,Helvetica,'Helvetica Neue',sans-serif">52.9</text>
  <text x="1115.028163" y="53.111111" fill="#333333" font-size="14.666667" font-family="Arial,Helvetica,'Helvetica Neue',sans-serif">74.3</text>
  <text x="1170.869430" y="53.111111" fill="#333333" font-size="14.666667" font-family="Arial,Helvetica,'Helvetica Neue',sans-serif">95.7</text>
  <text x="1223.179446" y="53.111111" fill="#333333" font-size="14.666667" font-family="Arial,Helvetica,'Helvetica Neue',sans-serif">117.1</text>
  <text x="1278.473861" y="53.111111" fill="#333333" font-size="14.666667" font-family="Arial,Helvetica,'Helvetica Neue',sans-serif">138.6</text>
  <text x="1334.315104" y="53.111111" fill="#333333" font-size="14.666667" font-family="Arial,Helvetica,'Helvetica Neue',sans-serif">160.0</text>
  <path fill="#4572a7" d="M964.444444 195.67619 M959.111111 195.67619 a2.666667 2.666667 0 1 0 5.333333 0 a2.666667 2.666667 0 1 0 -5.333333 0 "/>
  <path fill="#aa4643" d="M1104.074074 114.965079 M1080.074074 114.965079 a12.0 12.0 0 1 0 24.0 0 a12.0 12.0 0 1 0 -24.0 0 "/>
  <path fill="#4572a7" d="M1356.666667 80.374603 M1348.666667 80.374603 a4.0 4.0 0 1 0 8.0 0 a4.0 4.0 0 1 0 -8.0 0 "/>
  <path fill="#aa4643" d="M1282.488889 230.266667 M1266.488889 230.266667 a8.0 8.0 0 1 0 16.0 0 a8.0 8.0 0 1 0 -16.0 0 "/>
  <path fill="#4572a7" d="M1331.940741 195.67619 M1321.274074 195.67619 a5.333333 5.333333 0 1 0 10.666667 0 a5.333333 5.333333 0 1 0 -10.666667 0 "/>
  <path fill="#aa4643" d="M1017.896296 172.615873 M1009.896296 172.615873 a4.0 4.0 0 1 0 8.0 0 a4.0 4.0 0 1 0 -8.0 0 "/>
  <path fill="#4572a7" d="M1238.066667 68.844444 M1232.733333 68.844444 a2.666667 2.666667 0 1 0 5.333333 0 a2.666667 2.666667 0 1 0 -5.333333 0 "/>
  <path fill="#4572a7" d="M995.677778 96.711111 M985.677778 96.711111 a5.0 5.0 0 1 0 10.0 0 a5.0 5.0 0 1 0 -10.0 0 "/>
  <text x="1002.177778" y="101.711111" fill="#333333" font-size="14.666667" font-family="Arial,Helvetica,'Helvetica Neue',sans-serif">A</text>
  <path fill="#aa4643" d="M1054.659028 96.711111 M1044.659028 96.711111 a5.0 5.0 0 1 0 10.0 0 a5.0 5.0 0 1 0 -10.0 0 "/>
  <text x="1061.159028" y="101.711111" fill="#333333" font-size="14.666667" font-family="Arial,Helvetica,'Helvetica Neue',sans-serif">B</text>
  <path stroke-width="1.333333" stroke="#333333" fill="none" d="M946.333333 628.933333 L1366.555556 628.933333 "/>
  <path stroke-width="1.333333" stroke="#333333" fill="none" d="M946.333333 628.933333 L946.333333 623.6 "/>
  <path stroke-width="1.333333" stroke="#333333" fill="none" d="M1016.37037 628.933333 L1016.37037 623.6 "/>
  <path stroke-width="1.333333" stroke="#333333" fill="none" d="M1086.407407 628.933333 L1086.407407 623.6 "/>
  <path stroke-width="1.333333" stroke="#333333" fill="none" d="M1156.444444 628.933333 L1156.444444 623.6 "/>
  <path stroke-width="1.333333" stroke="#333333" fill="none" d="M1226.481481 628.933333 L1226.481481 623.6 "/>
  <path stroke-width="1.333333" stroke="#333333" fill="none" d="M1296.518519 628.933333 L1296.518519 623.6 "/>
  <path stroke-width="1.333333" stroke="#333333" fill="none" d="M1366.555556 628.933333 L1366.555556 623.6 "/>
  <text x="933.692708" y="654.666667" fill="#333333" font-size="14.666667" font-family="Arial,Helvetica,'Helvetica Neue',sans-serif">-3.0</text>
  <text x="1003.729745" y="654.666667" fill="#333333" font-size="14.666667" font-family="Arial,Helvetica,'Helvetica Neue',sans-serif">-2.0</text>
  <text x="1073.766782" y="654.666667" fill="#333333" font-size="14.666667" font-family="Arial,Helvetica,'Helvetica Neue',sans-serif">-1.0</text>
  <text x="1146.249132" y="654.666667" fill="#333333" font-size="14.666667" font-family="Arial,Helvetica,'Helvetica Neue',sans-serif">0.0</text>
  <text x="1216.286169" y="654.666667" fill="#333333" font-size="14.666667" font-family="Arial,Helvetica,'Helvetica Neue',sans-serif">1.0</text>
  <text x="1286.323206" y="654.666667" fill="#333333" font-size="14.666667" font-family="Arial,Helvetica,'Helvetica Neue',sans-serif">2.0</text>
  <text x="1356.360243" y="654.666667" fill="#333333" font-size="14.666667" font-family="Arial,Helvetica,'Helvetica Neue',sans-serif">3.0</text>
  <path stroke-width="1.333333" stroke="#333333" fill="none" d="M1366.555556 348.4 L1366.555556 628.933333 "/>
  <path stroke-width="1.333333" stroke="#333333" fill="none" d="M1366.555556 628.933333 L1361.222222 628.933333 "/>
  <path stroke-width="1.333333" stroke="#333333" fill="none" d="M1366.555556 546.423529 L1361.222222 546.423529 "/>
  <path stroke-width="1.333333" stroke="#333333" fill="none" d="M1366.555556 463.913725 L1361.222222 463.913725 "/>
  <path stroke-width="1.333333" stroke="#333333" fill="none" d="M1366.555556 381.403922 L1361.222222 381.403922 "/>
  <text x="1378.288889" y="633.933333" fill="#333333" font-size="14.666667" font-family="Arial,Helvetica,'Helvetica Neue',sans-serif">10.0</text>
  <text x="1378.288889" y="551.423529" fill="#333333" font-size="14.666667" font-family="Arial,Helvetica,'Helvetica Neue',sans-serif">20.0</text>
  <text x="1378.288889" y="468.913725" fill="#333333" font-size="14.666667" font-family="Arial,Helvetica,'Helvetica Neue',sans-serif">30.0</text>
  <text x="1378.288889" y="386.403922" fill="#333333" font-size="14.666667" font-family="Arial,Helvetica,'Helvetica Neue',sans-serif">40.0</text>
  <path stroke-width="1.333333" stroke="#333333" fill="none" d="M946.333333 348.4 L1366.555556 348.4 "/>
  <path stroke-width="1.333333" stroke="#333333" fill="none" d="M946.333333 348.4 L946.333333 353.733333 "/>
  <path stroke-width="1.333333" stroke="#333333" fill="none" d="M1006.365082 348.4 L1006.365082 353.733333 "/>
  <path stroke-width="1.333333" stroke="#333333" fill="none" d="M1066.396831 348.4 L1066.396831 353.733333 "/>
  <path stroke-width="1.333333" stroke="#333333" fill="none" d="M1126.428586 348.4 L1126.428586 353.733333 "/>
  <path stroke-width="1.333333" stroke="#333333" fill="none" d="M1186.460328 348.4 L1186.460328 353.733333 "/>
  <path stroke-width="1.333333" stroke="#333333" fill="none" d="M1246.492071 348.4 L1246.492071 353.733333 "/>
  <path stroke-width="1.333333" stroke="#333333" fill="none" d="M1306.523838 348.4 L1306.523838 353.733333 "/>
  <path stroke-width="1.333333" stroke="#333333" fill="none" d="M1366.555556 348.4 L1366.555556 353.733333 "/>
  <text x="933.692708" y="332.666667" fill="#333333" font-size="14.666667" font-family="Arial,Helvetica,'Helvetica Neue',sans-serif">-3.0</text>
  <text x="993.724457" y="332.666667" fill="#333333" font-size="14.666667" font-family="Arial,Helvetica,'Helvetica Neue',sans-serif">-2.1</text>
  <text x="1053.756206" y="332.666667" fill="#333333" font-size="14.666667" font-family="Arial,Helvetica,'Helvetica Neue',sans-serif">-1.3</text>
  <text x="1113.787961" y="332.666667" fill="#333333" font-size="14.666667" font-family="Arial,Helvetica,'Helvetica Neue',sans-serif">-0.4</text>
  <text x="1176.265016" y="332.666667" fill="#333333" font-size="14.666667" font-family="Arial,Helvetica,'Helvetica Neue',sans-serif">0.4</text>
  <text x="1236.296758" y="332.666667" fill="#333333" font-size="14.666667" font-family="Arial,Helvetica,'Helvetica Neue',sans-serif">1.3</text>
  <text x="1296.328526" y="332.666667" fill="#333333" font-size="14.666667" font-family="Arial,Helvetica,'Helvetica Neue',sans-serif">2.1</text>
  <text x="1356.360243" y="332.666667" fill="#333333" font-size="14.666667" font-family="Arial,Helvetica,'Helvetica Neue',sans-serif">3.0</text>
  <path fill="#4572a7" d="M948.466667 628.933333 L948.466667 628.933333 L960.2 628.933333 L960.2 628.933333 "/>
  <path fill="#4572a7" d="M1018.503704 628.933333 L1018.503704 480.415686 L1030.237037 480.415686 L1030.237037 628.933333 "/>
  <path fill="#4572a7" d="M1088.540741 628.933333 L1088.540741 546.423529 L1100.274074 546.423529 L1100.274074 628.933333 "/>
  <path fill="#4572a7" d="M1158.577778 628.933333 L1158.577778 496.917647 L1170.311111 496.917647 L1170.311111 628.933333 "/>
  <path fill="#4572a7" d="M1228.614815 628.933333 L1228.614815 373.152941 L1240.348148 373.152941 L1240.348148 628.933333 "/>
  <path fill="#4572a7" d="M1298.651852 628.933333 L1298.651852 348.4 L1310.385185 348.4 L1310.385185 628.933333 "/>
  <path fill="#4572a7" d="M1368.688889 628.933333 L1368.688889 406.156863 L1380.422222 406.156863 L1380.422222 628.933333 "/>
  <path fill="#aa4643" d="M932.466667 628.933333 L932.466667 612.431373 L944.2 612.431373 L944.2 628.933333 "/>
  <path fill="#aa4643" d="M1002.503704 628.933333 L1002.503704 554.67451 L1014.237037 554.67451 L1014.237037 628.933333 "/>
  <path fill="#aa4643" d="M1072.540741 628.933333 L1072.540741 521.670588 L1084.274074 521.670588 L1084.274074 628.933333 "/>
  <path fill="#aa4643" d="M1142.577778 628.933333 L1142.577778 463.913725 L1154.311111 463.913725 L1154.311111 628.933333 "/>
  <path fill="#aa4643" d="M1212.614815 628.933333 L1212.614815 422.658824 L1224.348148 422.658824 L1224.348148 628.933333 "/>
  <path fill="#aa4643" d="M1282.651852 628.933333 L1282.651852 356.65098 L1294.385185 356.65098 L1294.385185 628.933333 "/>
  <path fill="#aa4643" d="M1352.688889 628.933333 L1352.688889 439.160784 L1364.422222 439.160784 L1364.422222 628.933333 "/>
  <path fill="#4572a7" d="M980.233333 376.266667 M970.233333 376.266667 a5.0 5.0 0 1 0 10.0 0 a5.0 5.0 0 1 0 -10.0 0 "/>
  <text x="986.733333" y="381.266667" fill="#333333" font-size="14.666667" font-family="Arial,Helvetica,'Helvetica Neue',sans-serif">A</text>
  <path fill="#aa4643" d="M1039.214583 376.266667 M1029.214583 376.266667 a5.0 5.0 0 1 0 10.0 0 a5.0 5.0 0 1 0 -10.0 0 "/>
  <text x="1045.714583" y="381.266667" fill="#333333" font-size="14.666667" font-family="Arial,Helvetica,'Helvetica Neue',sans-serif">B</text>
  <path stroke-width="1.333333" stroke="#333333" fill="none" d="M62.666667 348.666667 L62.666667 429.111111 "/>
  <path stroke-width="1.333333" stroke="#333333" fill="none" d="M62.666667 429.111111 L68.0 429.111111 "/>
  <text x="25.652083" y="434.111111" fill="#333333" font-size="14.666667" font-family="Arial,Helvetica,'Helvetica Neue',sans-serif">-1.0</text>
  <path stroke-width="1.333333" stroke="#333333" fill="none" d="M62.666667 348.666667 L902.666667 348.666667 "/>
  <path stroke-width="1.333333" stroke="#333333" fill="none" d="M62.666667 348.666667 L62.666667 354.0 "/>
  <path stroke-width="1.333333" stroke="#333333" fill="none" d="M182.666672 348.666667 L182.666672 354.0 "/>
  <path stroke-width="1.333333" stroke="#333333" fill="none" d="M302.666677 348.666667 L302.666677 354.0 "/>
  <path stroke-width="1.333333" stroke="#333333" fill="none" d="M422.666695 348.666667 L422.666695 354.0 "/>
  <path stroke-width="1.333333" stroke="#333333" fill="none" d="M542.666688 348.666667 L542.666688 354.0 "/>
  <path stroke-width="1.333333" stroke="#333333" fill="none" d="M662.666681 348.666667 L662.666681 354.0 "/>
  <path stroke-width="1.333333" stroke="#333333" fill="none" d="M782.666724 348.666667 L782.666724 354.0 "/>
  <path stroke-width="1.333333" stroke="#333333" fill="none" d="M902.666667 348.666667 L902.666667 354.0 "/>
  <text x="34.119792" y="332.933333" fill="#333333" font-size="14.666667" font-family="Arial,Helvetica,'Helvetica Neue',sans-serif">00:00:00</text>
  <text x="154.119797" y="332.933333" fill="#333333" font-size="14.666667" font-family="Arial,Helvetica,'Helvetica Neue',sans-serif">00:19:00</text>
  <text x="274.119802" y="332.933333" fill="#333333" font-size="14.666667" font-family="Arial,Helvetica,'Helvetica Neue',sans-serif">00:38:00</text>
  <text x="394.119820" y="332.933333" fill="#333333" font-size="14.666667" font-family="Arial,Helvetica,'Helvetica Neue',sans-serif">00:57:00</text>
  <text x="514.119813" y="332.933333" fill="#333333" font-size="14.666667" font-family="Arial,Helvetica,'Helvetica Neue',sans-serif">01:16:00</text>
  <text x="634.119806" y="332.933333" fill="#333333" font-size="14.666667" font-family="Arial,Helvetica,'Helvetica Neue',sans-serif">01:35:00</text>
  <text x="754.119849" y="332.933333" fill="#333333" font-size="14.666667" font-family="Arial,Helvetica,'Helvetica Neue',sans-serif">01:54:00</text>
  <text x="874.119792" y="332.933333" fill="#333333" font-size="14.666667" font-family="Arial,Helvetica,'Helvetica Neue',sans-serif">02:13:00</text>
  <path stroke-width="2.000000" stroke="#4572a7" fill="none" d="M62.666667 423.93091 L64.77193 352.087289 L66.877193 355.643049 L68.982456 349.628938 L71.087719 365.501289 L73.192982 366.692614 L75.298246 362.03905 L77.403509 413.710671 L79.508772 386.8086 L81.614035 422.396276 L83.719298 367.505293 L85.824561 401.840058 L87.929825 400.969474 L90.035088 369.822333 L92.140351 397.558838 L94.245614 414.1078 L96.350877 391.275753 L98.45614 363.234852 L100.561404 420.087361 L102.666667 404.591749 L104.77193 376.899688 L106.877193 391.345588 L108.982456 395.687832 L111.087719 384.119306 L113.192982 380.609306 L115.298246 359.508793 L117.403509 387.784184 L119.508772 370.305181 L121.614035 351.337586 L123.719298 417.311134 L125.824561 376.449689 L127.929825 397.529123 L130.035088 361.64242 L132.140351 377.229449 L134.245614 364.36043 L136.350877 350.366287 L138.45614 376.818383 L140.561404 361.250477 L142.666667 389.260624 L144.77193 392.360436 L146.877193 389.141743 L148.982456 368.818283 L151.087719 355.680832 L153.192982 408.193451 L155.298246 395.30523 L157.403509 416.286995 L159.508772 398.558477 L161.614035 373.96329 L163.719298 409.794442 L165.824561 367.25349 L167.929825 379.839792 L170.035088 397.622756 L172.140351 381.710253 L174.245614 383.659572 L176.350877 381.503073 L178.45614 401.832701 L180.561404 395.515742 L182.666667 370.039315 L184.77193 406.259303 L186.877193 359.156016 L188.982456 421.238844 L191.087719 374.340015 L193.192982 394.525156 L195.298246 354.902182 L197.403509 389.680477 L199.508772 389.753379 L201.614035 366.227691 L203.719298 414.127863 L205.824561 360.968404 L207.929825 360.230856 L210.035088 395.633998 L212.140351 384.401853 L214.245614 384.372455 L216.350877 415.611821 L218.45614 370.204248 L220.561404 420.251099 L222.666667 406.894206 L224.77193 400.875874 L226.877193 351.592516 L228.982456 400.441953 L231.087719 407.155286 L233.192982 363.711567 L235.298246 355.077834 L237.403509 399.721351 L239.508772 379.245873 L241.614035 397.825701 L243.719298 395.771862 L245.824561 382.957646 L247.929825 423.45763 L250.035088 379.756126 L252.140351 409.618301 L254.245614 426.77363 L256.350877 378.808494 L258.45614 424.194417 L260.561404 405.307134 L262.666667 405.950728 L264.77193 364.994979 L266.877193 397.823892 L268.982456 411.30064 L271.087719 365.216368 L273.192982 413.274155 L275.298246 381.109402 L277.403509 404.680012 L279.508772 417.535524 L281.614035 350.181763 L283.719298 381.092878 L285.824561 369.104368 L287.929825 378.335503 L290.035088 350.237942 L292.140351 362.827091 L294.245614 408.08571 L296.350877 411.722927 L298.45614 425.445169 L300.561404 400.663307 L302.666667 350.850835 L304.77193 386.399774 L306.877193 398.166352 L308.982456 419.835958 L311.087719 409.869716 L313.192982 423.245021 L315.298246 352.190038 L317.403509 405.204224 L319.508772 364.7528 L321.614035 400.677691 L323.719298 402.038065 L325.824561 361.680172 L327.929825 390.276909 L330.035088 416.369663 L332.140351 359.331402 L334.245614 413.085481 L336.350877 408.951705 L338.45614 370.857042 L340.561404 381.713019 L342.666667 349.12036 L344.77193 419.96716 L346.877193 384.793626 L348.982456 380.710253 L351.087719 366.779815 L353.192982 406.33005 L355.298246 378.446982 L357.403509 361.764938 L359.508772 409.480582 L361.614035 381.260381 L363.719298 368.003976 L365.824561 351.542672 L367.929825 349.294145 L370.035088 422.480131 L372.140351 422.527094 L374.245614 414.900645 L376.350877 421.439557 L378.45614 417.43733 L380.561404 391.270914 L382.666667 428.496733 L384.77193 393.985302 L386.877193 371.768313 L388.982456 418.341974 L391.087719 411.180731 L393.192982 365.02963 L395.298246 394.644689 L397.403509 427.744073 L399.508772 356.918299 L401.614035 418.766196 L403.719298 397.624244 L405.824561 401.674494 L407.929825 395.266541 L410.035088 359.607355 L412.140351 404.058405 L414.245614 376.275298 L416.350877 388.34895 L418.45614 425.400305 L420.561404 398.885056 L422.666667 348.935327 L424.77193 424.313144 L426.877193 386.021392 L428.982456 421.110041 L431.087719 395.826558 L433.192982 363.551032 L435.298246 394.610799 L437.403509 361.696371 L439.508772 417.625608 L441.614035 427.771722 L443.719298 407.190013 L445.824561 373.880453 L447.929825 350.312052 L450.035088 383.330533 L452.140351 373.298552 L454.245614 404.876849 L456.350877 369.93416 L458.45614 389.191357 L460.561404 371.160158 L462.666667 377.653355 L464.77193 426.30481 L466.877193 365.212511 L468.982456 348.666667 L471.087719 358.005037 L473.192982 355.133019 L475.298246 351.339147 L477.403509 428.880493 L479.508772 389.774355 L481.614035 414.436324 L483.719298 366.714269 L485.824561 359.039015 L487.929825 363.47331 L490.035088 357.438287 L492.140351 412.054438 L494.245614 353.883437 L496.350877 356.542126 L498.45614 372.447285 L500.561404 413.483934 L502.666667 409.121749 L504.77193 414.048972 L506.877193 368.036522 L508.982456 426.331773 L511.087719 412.384179 L513.192982 367.655744 L515.298246 396.969133 L517.403509 408.686139 L519.508772 414.48219 L521.614035 415.741982 L523.719298 385.006108 L525.824561 415.089632 L527.929825 424.404985 L530.035088 380.945084 L532.140351 359.051546 L534.245614 390.118517 L536.350877 360.689032 L538.45614 403.195944 L540.561404 402.596724 L542.666667 348.887979 L544.77193 379.817832 L546.877193 411.490697 L548.982456 370.887811 L551.087719 382.233139 L553.192982 423.376971 L555.298246 415.941392 L557.403509 376.781399 L559.508772 419.775077 L561.614035 393.538876 L563.719298 385.76467 L565.824561 412.199583 L567.929825 354.387735 L570.035088 356.577926 L572.140351 428.470368 L574.245614 414.943914 L576.350877 397.670646 L578.45614 349.54978 L580.561404 367.910248 L582.666667 420.054333 L584.77193 350.077222 L586.877193 373.456379 L588.982456 396.276365 L591.087719 373.343564 L593.192982 371.548863 L595.298246 364.503402 L597.403509 427.853656 L599.508772 351.427057 L601.614035 399.120467 L603.719298 391.504183 L605.824561 387.518376 L607.929825 353.751458 L610.035088 365.319042 L612.140351 403.667931 L614.245614 356.892244 L616.350877 383.858274 L618.45614 348.754689 L620.561404 406.858296 L622.666667 395.396781 L624.77193 369.323272 L626.877193 394.826716 L628.982456 423.659566 L631.087719 412.040864 L633.192982 414.650088 L635.298246 363.455234 L637.403509 406.648915 L639.508772 404.254831 L641.614035 382.967664 L643.719298 412.695888 L645.824561 354.315782 L647.929825 380.008863 L650.035088 351.22479 L652.140351 377.73609 L654.245614 404.654429 L656.350877 361.422515 L658.45614 379.433577 L660.561404 381.615763 L662.666667 385.792622 L664.77193 404.807019 L666.877193 397.744201 L668.982456 400.501504 L671.087719 367.347087 L673.192982 377.207308 L675.298246 359.370324 L677.403509 361.028117 L679.508772 349.042156 L681.614035 364.779906 L683.719298 420.547466 L685.824561 373.677978 L687.929825 358.753911 L690.035088 372.238977 L692.140351 415.351131 L694.245614 357.752594 L696.350877 410.338618 L698.45614 371.733111 L700.561404 379.647799 L702.666667 357.174865 L704.77193 367.951047 L706.877193 379.325716 L708.982456 363.3162 L711.087719 390.493031 L713.192982 411.87813 L715.298246 420.949069 L717.403509 369.070903 L719.508772 429.111111 L721.614035 368.212384 L723.719298 389.522555 L725.824561 372.427449 L727.929825 396.40668 L730.035088 350.978473 L732.140351 397.570443 L734.245614 380.246473 L736.350877 351.497783 L738.45614 366.125824 L740.561404 377.955703 L742.666667 384.960325 L744.77193 407.375102 L746.877193 388.544862 L748.982456 426.602968 L751.087719 369.389714 L753.192982 357.356151 L755.298246 348.811805 L757.403509 415.443338 L759.508772 402.544694 L761.614035 415.077829 L763.719298 378.491154 L765.824561 384.264983 L767.929825 351.921213 L770.035088 350.347438 L772.140351 349.749226 L774.245614 407.800205 L776.350877 405.319849 L778.45614 372.062592 L780.561404 395.041032 L782.666667 369.708371 L784.77193 403.662153 L786.877193 419.798467 L788.982456 351.479756 L791.087719 423.363405 L793.192982 400.033465 L795.298246 393.205045 L797.403509 419.244307 L799.508772 396.317817 L801.614035 351.724005 L803.719298 361.112756 L805.824561 427.636222 L807.929825 427.914353 L810.035088 382.312755 L812.140351 378.691061 L814.245614 388.972603 L816.350877 368.135003 L818.45614 348.996844 L820.561404 350.464112 L822.666667 395.544483 L824.77193 413.832847 L826.877193 425.67102 L828.982456 416.073317 L831.087719 374.291387 L833.192982 369.882482 L835.298246 349.063474 L837.403509 362.43506 L839.508772 419.983162 L841.614035 422.012153 L843.719298 383.443655 L845.824561 392.298291 L847.929825 402.243767 L850.035088 413.913535 L852.140351 356.620492 L854.245614 408.670525 L856.350877 374.171859 L858.45614 366.102848 L860.561404 377.461002 L862.666667 404.035569 L864.77193 365.733107 L866.877193 356.014061 L868.982456 358.111392 L871.087719 354.80664 L873.192982 414.473222 L875.298246 351.528636 L877.403509 359.758051 L879.508772 351.558264 L881.614035 389.624124 L883.719298 377.245724 L885.824561 376.867779 L887.929825 380.425604 L890.035088 353.78154 L892.140351 409.149856 L894.245614 410.98888 L896.350877 381.036658 L898.45614 403.461328 L900.561404 380.81504 L902.666667 428.487987 "/>
  <path fill="#4572a7" d="M96.566667 376.533333 M86.566667 376.533333 a5.0 5.0 0 1 0 10.0 0 a5.0 5.0 0 1 0 -10.0 0 "/>
  <text x="103.066667" y="381.533333" fill="#333333" font-size="14.666667" font-family="Arial,Helvetica,'Helvetica Neue',sans-serif">Channel 1</text>
  <path stroke-width="1.333333" stroke="#333333" fill="none" d="M62.666667 448.666667 L62.666667 529.111111 "/>
  <path stroke-width="1.333333" stroke="#333333" fill="none" d="M62.666667 529.111111 L68.0 529.111111 "/>
  <text x="25.652083" y="534.111111" fill="#333333" font-size="14.666667" font-family="Arial,Helvetica,'Helvetica Neue',sans-serif">-1.0</text>
  <path stroke-width="2.000000" stroke="#aa4643" fill="none" d="M62.666667 466.623598 L64.77193 454.447789 L66.877193 476.957528 L68.982456 510.380541 L71.087719 485.527274 L73.192982 459.492501 L75.298246 462.488657 L77.403509 504.759214 L79.508772 521.619438 L81.614035 483.626409 L83.719298 487.982699 L85.824561 467.13468 L87.929825 486.869119 L90.035088 522.629714 L92.140351 483.159191 L94.245614 514.169271 L96.350877 471.825746 L98.45614 478.637067 L100.561404 468.255882 L102.666667 462.231261 L104.77193 463.686792 L106.877193 456.446664 L108.982456 520.613441 L111.087719 513.919302 L113.192982 493.45139 L115.298246 487.280278 L117.403509 525.511238 L119.508772 475.760795 L121.614035 527.937111 L123.719298 496.402648 L125.824561 471.663955 L127.929825 507.09214 L130.035088 478.745096 L132.140351 466.170821 L134.245614 495.356986 L136.350877 501.011565 L138.45614 512.067453 L140.561404 515.730131 L142.666667 460.752041 L144.77193 500.742066 L146.877193 455.688155 L148.982456 514.611386 L151.087719 491.012845 L153.192982 499.724442 L155.298246 478.759633 L157.403509 499.114962 L159.508772 527.937931 L161.614035 451.421141 L163.719298 465.97529 L165.824561 485.925043 L167.929825 449.019628 L170.035088 497.596029 L172.140351 476.438602 L174.245614 493.334977 L176.350877 495.650939 L178.45614 507.082999 L180.561404 478.613664 L182.666667 496.005625 L184.77193 526.441797 L186.877193 490.824822 L188.982456 522.605377 L191.087719 449.924798 L193.192982 521.368966 L195.298246 519.291917 L197.403509 483.118738 L199.508772 468.551024 L201.614035 485.984821 L203.719298 526.642244 L205.824561 474.199995 L207.929825 510.021398 L210.035088 492.184576 L212.140351 465.946491 L214.245614 468.819064 L216.350877 525.360049 L218.45614 510.06532 L220.561404 449.954725 L222.666667 511.501146 L224.77193 494.080666 L226.877193 468.132156 L228.982456 448.923969 L231.087719 465.423797 L233.192982 461.781425 L235.298246 492.49728 L237.403509 513.265861 L239.508772 518.463071 L241.614035 479.566933 L243.719298 500.022589 L245.824561 528.203086 L247.929825 517.078986 L250.035088 488.905418 L252.140351 525.827051 L254.245614 490.733369 L256.350877 501.504113 L258.45614 468.026189 L260.561404 461.582975 L262.666667 523.643318 L264.77193 509.30838 L266.877193 523.966885 L268.982456 456.69943 L271.087719 528.836511 L273.192982 522.293457 L275.298246 523.974978 L277.403509 513.147879 L279.508772 460.548238 L281.614035 489.443056 L283.719298 451.08594 L285.824561 507.139924 L287.929825 520.248541 L290.035088 480.889192 L292.140351 501.209758 L294.245614 454.42089 L296.350877 501.097207 L298.45614 450.197867 L300.561404 507.706127 L302.666667 466.217543 L304.77193 450.825357 L306.877193 505.027067 L308.982456 493.23484 L311.087719 511.650392 L313.192982 489.917206 L315.298246 469.525292 L317.403509 527.653038 L319.508772 526.619177 L321.614035 503.490806 L323.719298 454.009693 L325.824561 452.526862 L327.929825 478.48042 L330.035088 482.91997 L332.140351 464.948189 L334.245614 452.458683 L336.350877 459.522219 L338.45614 483.423989 L340.561404 449.581542 L342.666667 493.096023 L344.77193 510.2245 L346.877193 496.603495 L348.982456 465.643703 L351.087719 493.942838 L353.192982 503.487028 L355.298246 472.37341 L357.403509 498.433573 L359.508772 449.394201 L361.614035 494.579708 L363.719298 515.014465 L365.824561 515.405028 L367.929825 509.551073 L370.035088 461.235773 L372.140351 510.282881 L374.245614 455.673232 L376.350877 465.361209 L378.45614 476.434565 L380.561404 514.79736 L382.666667 464.87164 L384.77193 464.42725 L386.877193 502.623864 L388.982456 459.846612 L391.087719 495.957203 L393.192982 499.503652 L395.298246 454.599239 L397.403509 496.293945 L399.508772 449.707156 L401.614035 522.970996 L403.719298 510.10614 L405.824561 495.252158 L407.929825 457.1907 L410.035088 480.524818 L412.140351 507.707717 L414.245614 485.942922 L416.350877 463.223692 L418.45614 472.384522 L420.561404 490.452867 L422.666667 528.902966 L424.77193 526.739464 L426.877193 522.890351 L428.982456 518.337857 L431.087719 522.787142 L433.192982 521.969616 L435.298246 461.280648 L437.403509 487.040502 L439.508772 471.961172 L441.614035 515.037787 L443.719298 512.821846 L445.824561 468.249874 L447.929825 469.551848 L450.035088 524.008873 L452.140351 502.230299 L454.245614 493.317709 L456.350877 476.562072 L458.45614 501.693906 L460.561404 496.478171 L462.666667 467.21999 L464.77193 461.336607 L466.877193 506.391301 L468.982456 495.1788 L471.087719 485.742955 L473.192982 461.381771 L475.298246 500.173518 L477.403509 493.247264 L479.508772 488.104537 L481.614035 519.160845 L483.719298 496.663764 L485.824561 450.491266 L487.929825 456.05173 L490.035088 515.943221 L492.140351 510.056671 L494.245614 479.145688 L496.350877 472.066407 L498.45614 472.047847 L500.561404 485.607002 L502.666667 493.71579 L504.77193 526.649521 L506.877193 495.340808 L508.982456 458.335613 L511.087719 499.935336 L513.192982 474.634928 L515.298246 495.308596 L517.403509 480.456636 L519.508772 513.027622 L521.614035 513.416876 L523.719298 491.883166 L525.824561 456.165455 L527.929825 485.229858 L530.035088 456.898455 L532.140351 493.39252 L534.245614 499.325761 L536.350877 471.13365 L538.45614 476.471463 L540.561404 528.766743 L542.666667 508.750652 L544.77193 452.144817 L546.877193 479.119016 L548.982456 457.271727 L551.087719 509.731951 L553.192982 512.159681 L555.298246 470.016441 L557.403509 482.074402 L559.508772 477.347322 L561.614035 501.266259 L563.719298 450.853119 L565.824561 486.287692 L567.929825 500.237083 L570.035088 521.277445 L572.140351 449.470639 L574.245614 520.180816 L576.350877 522.123295 L578.45614 473.328596 L580.561404 451.802963 L582.666667 469.412411 L584.77193 488.162223 L586.877193 488.894097 L588.982456 529.111111 L591.087719 520.497281 L593.192982 479.59493 L595.298246 497.166268 L597.403509 484.82038 L599.508772 477.472784 L601.614035 499.638972 L603.719298 518.370803 L605.824561 452.504775 L607.929825 501.780455 L610.035088 520.551505 L612.140351 485.181195 L614.245614 451.940237 L616.350877 458.289526 L618.45614 478.43394 L620.561404 486.485595 L622.666667 467.709188 L624.77193 449.490924 L626.877193 501.669801 L628.982456 475.504318 L631.087719 522.051314 L633.192982 480.553795 L635.298246 448.933373 L637.403509 488.908845 L639.508772 456.124267 L641.614035 458.886379 L643.719298 500.620381 L645.824561 517.986433 L647.929825 500.699497 L650.035088 464.192889 L652.140351 526.887255 L654.245614 450.279433 L656.350877 475.91324 L658.45614 499.186112 L660.561404 516.40735 L662.666667 448.666667 L664.77193 520.071135 L666.877193 464.347944 L668.982456 469.389958 L671.087719 461.559128 L673.192982 515.96717 L675.298246 521.744861 L677.403509 489.222349 L679.508772 497.805981 L681.614035 465.151073 L683.719298 523.074805 L685.824561 512.096773 L687.929825 458.330017 L690.035088 468.152814 L692.140351 472.200936 L694.245614 455.749583 L696.350877 471.114211 L698.45614 460.508141 L700.561404 503.365701 L702.666667 464.497852 L704.77193 526.866041 L706.877193 521.83724 L708.982456 453.606095 L711.087719 479.403016 L713.192982 497.064694 L715.298246 525.940062 L717.403509 467.217615 L719.508772 449.097929 L721.614035 526.055307 L723.719298 511.823133 L725.824561 451.202472 L727.929825 448.746094 L730.035088 514.390028 L732.140351 521.222288 L734.245614 520.46469 L736.350877 526.948529 L738.45614 528.065905 L740.561404 459.661319 L742.666667 497.85006 L744.77193 482.623748 L746.877193 507.101992 L748.982456 489.506979 L751.087719 457.51494 L753.192982 481.584169 L755.298246 504.202409 L757.403509 484.679282 L759.508772 483.872649 L761.614035 476.682622 L763.719298 523.416413 L765.824561 483.943932 L767.929825 487.444885 L770.035088 502.087079 L772.140351 525.451751 L774.245614 460.560901 L776.350877 456.417393 L778.45614 484.242695 L780.561404 510.381895 L782.666667 491.264105 L784.77193 494.778983 L786.877193 511.952661 L788.982456 497.835752 L791.087719 487.110707 L793.192982 482.141526 L795.298246 520.029584 L797.403509 460.286303 L799.508772 516.263577 L801.614035 451.638754 L803.719298 510.660976 L805.824561 482.906105 L807.929825 482.188356 L810.035088 459.940114 L812.140351 514.099069 L814.245614 462.544371 L816.350877 449.608347 L818.45614 480.952842 L820.561404 507.231277 L822.666667 449.837565 L824.77193 524.796633 L826.877193 484.070408 L828.982456 498.623744 L831.087719 501.968766 L833.192982 468.299122 L835.298246 462.884971 L837.403509 491.060374 L839.508772 504.927087 L841.614035 471.820456 L843.719298 499.864435 L845.824561 476.385013 L847.929825 473.98887 L850.035088 468.35019 L852.140351 454.127239 L854.245614 501.210094 L856.350877 495.749937 L858.45614 460.711818 L860.561404 489.397531 L862.666667 519.302905 L864.77193 524.263868 L866.877193 507.337584 L868.982456 496.977234 L871.087719 471.498819 L873.192982 486.638623 L875.298246 478.918679 L877.403509 523.588255 L879.508772 468.674498 L881.614035 510.857056 L883.719298 514.251973 L885.824561 481.466037 L887.929825 496.783106 L890.035088 474.638066 L892.140351 464.376368 L894.245614 521.819297 L896.350877 525.899923 L898.45614 468.607528 L900.561404 504.70034 L902.666667 513.119928 "/>
  <path fill="#aa4643" d="M96.566667 476.533333 M86.566667 476.533333 a5.0 5.0 0 1 0 10.0 0 a5.0 5.0 0 1 0 -10.0 0 "/>
  <text x="103.066667" y="481.533333" fill="#333333" font-size="14.666667" font-family="Arial,Helvetica,'Helvetica Neue',sans-serif">Channel 2</text>
  <path stroke-width="1.333333" stroke="#333333" fill="none" d="M62.666667 629.111111 L902.666667 629.111111 "/>
  <path stroke-width="1.333333" stroke="#333333" fill="none" d="M62.666667 629.111111 L62.666667 623.777778 "/>
  <path stroke-width="1.333333" stroke="#333333" fill="none" d="M182.666672 629.111111 L182.666672 623.777778 "/>
  <path stroke-width="1.333333" stroke="#333333" fill="none" d="M302.666677 629.111111 L302.666677 623.777778 "/>
  <path stroke-width="1.333333" stroke="#333333" fill="none" d="M422.666695 629.111111 L422.666695 623.777778 "/>
  <path stroke-width="1.333333" stroke="#333333" fill="none" d="M542.666688 629.111111 L542.666688 623.777778 "/>
  <path stroke-width="1.333333" stroke="#333333" fill="none" d="M662.666681 629.111111 L662.666681 623.777778 "/>
  <path stroke-width="1.333333" stroke="#333333" fill="none" d="M782.666724 629.111111 L782.666724 623.777778 "/>
  <path stroke-width="1.333333" stroke="#333333" fill="none" d="M902.666667 629.111111 L902.666667 623.777778 "/>
  <text x="34.119792" y="654.844444" fill="#333333" font-size="14.666667" font-family="Arial,Helvetica,'Helvetica Neue',sans-serif">00:00:00</text>
  <text x="154.119797" y="654.844444" fill="#333333" font-size="14.666667" font-family="Arial,Helvetica,'Helvetica Neue',sans-serif">00:19:00</text>
  <text x="274.119802" y="654.844444" fill="#333333" font-size="14.666667" font-family="Arial,Helvetica,'Helvetica Neue',sans-serif">00:38:00</text>
  <text x="394.119820" y="654.844444" fill="#333333" font-size="14.666667" font-family="Arial,Helvetica,'Helvetica Neue',sans-serif">00:57:00</text>
  <text x="514.119813" y="654.844444" fill="#333333" font-size="14.666667" font-family="Arial,Helvetica,'Helvetica Neue',sans-serif">01:16:00</text>
  <text x="634.119806" y="654.844444" fill="#333333" font-size="14.666667" font-family="Arial,Helvetica,'Helvetica Neue',sans-serif">01:35:00</text>
  <text x="754.119849" y="654.844444" fill="#333333" font-size="14.666667" font-family="Arial,Helvetica,'Helvetica Neue',sans-serif">01:54:00</text>
  <text x="874.119792" y="654.844444" fill="#333333" font-size="14.666667" font-family="Arial,Helvetica,'Helvetica Neue',sans-serif">02:13:00</text>
  <path stroke-width="1.333333" stroke="#333333" fill="none" d="M62.666667 548.666667 L62.666667 629.111111 "/>
  <path stroke-width="1.333333" stroke="#333333" fill="none" d="M62.666667 629.111111 L68.0 629.111111 "/>
  <text x="25.652083" y="634.111111" fill="#333333" font-size="14.666667" font-family="Arial,Helvetica,'Helvetica Neue',sans-serif">-1.0</text>
  <path stroke-width="2.000000" stroke="#89a54e" fill="none" d="M62.666667 589.850434 L64.77193 591.140877 L66.877193 561.466703 L68.982456 570.924457 L71.087719 588.442194 L73.192982 616.527064 L75.298246 557.034816 L77.403509 568.519485 L79.508772 591.058385 L81.614035 557.882114 L83.719298 608.495977 L85.824561 628.160996 L87.929825 557.728136 L90.035088 561.339476 L92.140351 554.692072 L94.245614 624.683098 L96.350877 579.762967 L98.45614 627.148094 L100.561404 600.437421 L102.666667 556.210406 L104.77193 619.088079 L106.877193 574.983507 L108.982456 606.589838 L111.087719 566.658381 L113.192982 551.796419 L115.298246 583.569902 L117.403509 610.478524 L119.508772 567.793919 L121.614035 563.09751 L123.719298 568.810415 L125.824561 615.897527 L127.929825 564.803808 L130.035088 622.165631 L132.140351 626.502011 L134.245614 560.908748 L136.350877 618.838661 L138.45614 579.98415 L140.561404 597.66701 L142.666667 616.024654 L144.77193 551.113571 L146.877193 603.317892 L148.982456 602.269566 L151.087719 601.952229 L153.192982 562.378373 L155.298246 556.18298 L157.403509 550.705488 L159.508772 555.169817 L161.614035 553.726836 L163.719298 579.295114 L165.824561 564.288928 L167.929825 610.406284 L170.035088 596.130076 L172.140351 592.103881 L174.245614 563.292189 L176.350877 582.763213 L178.45614 567.404193 L180.561404 549.385194 L182.666667 579.432169 L184.77193 593.468193 L186.877193 560.740636 L188.982456 595.744748 L191.087719 554.076826 L193.192982 622.669089 L195.298246 559.937855 L197.403509 619.413315 L199.508772 556.004154 L201.614035 622.258584 L203.719298 594.236992 L205.824561 587.527799 L207.929825 572.365759 L210.035088 628.438415 L212.140351 563.61722 L214.245614 581.685917 L216.350877 569.141931 L218.45614 578.593327 L220.561404 570.817257 L222.666667 625.732366 L224.77193 575.987825 L226.877193 561.780923 L228.982456 555.646106 L231.087719 577.882137 L233.192982 599.996869 L235.298246 561.39649 L237.403509 590.43617 L239.508772 622.267903 L241.614035 580.292507 L243.719298 598.621463 L245.824561 558.243598 L247.929825 568.667898 L250.035088 584.232325 L252.140351 628.822034 L254.245614 609.555547 L256.350877 553.72031 L258.45614 570.102374 L260.561404 573.902316 L262.666667 557.189336 L264.77193 590.578643 L266.877193 610.818746 L268.982456 572.555882 L271.087719 596.592637 L273.192982 601.168007 L275.298246 598.682823 L277.403509 572.362111 L279.508772 606.46669 L281.614035 584.240603 L283.719298 585.810014 L285.824561 573.269042 L287.929825 579.265201 L290.035088 573.431306 L292.140351 611.354678 L294.245614 603.401791 L296.350877 582.376999 L298.45614 587.839035 L300.561404 627.605297 L302.666667 580.1455 L304.77193 578.217263 L306.877193 563.343759 L308.982456 619.040335 L311.087719 593.952418 L313.192982 576.883196 L315.298246 620.703102 L317.403509 615.300976 L319.508772 572.523176 L321.614035 622.371834 L323.719298 581.289771 L325.824561 558.761843 L327.929825 556.857321 L330.035088 596.851603 L332.140351 591.927865 L334.245614 566.72452 L336.350877 603.067908 L338.45614 617.453853 L340.561404 588.05418 L342.666667 558.222708 L344.77193 593.746539 L346.877193 577.506565 L348.982456 604.912853 L351.087719 619.381903 L353.192982 569.688211 L355.298246 628.940438 L357.403509 579.791738 L359.508772 587.71053 L361.614035 577.689859 L363.719298 590.192265 L365.824561 611.170392 L367.929825 604.252185 L370.035088 557.393088 L372.140351 580.443014 L374.245614 567.102875 L376.350877 612.567504 L378.45614 626.201499 L380.561404 597.094512 L382.666667 579.363043 L384.77193 572.695066 L386.877193 622.681771 L388.982456 567.722516 L391.087719 615.076125 L393.192982 579.086992 L395.298246 624.092267 L397.403509 571.011759 L399.508772 617.995563 L401.614035 625.689397 L403.719298 615.806514 L405.824561 598.542836 L407.929825 624.919372 L410.035088 586.049225 L412.140351 578.899625 L414.245614 568.557431 L416.350877 587.315803 L418.45614 594.380548 L420.561404 626.42854 L422.666667 628.96795 L424.77193 628.188315 L426.877193 592.904852 L428.982456 584.33495 L431.087719 619.293402 L433.192982 626.860793 L435.298246 610.593968 L437.403509 581.962774 L439.508772 579.022453 L441.614035 575.855462 L443.719298 552.789202 L445.824561 608.869499 L447.929825 595.843033 L450.035088 553.547794 L452.140351 564.67244 L454.245614 554.41803 L456.350877 619.560046 L458.45614 613.743411 L460.561404 580.806083 L462.666667 575.350723 L464.77193 561.590021 L466.877193 614.705428 L468.982456 612.218576 L471.087719 597.587491 L473.192982 580.958454 L475.298246 582.512689 L477.403509 607.425438 L479.508772 569.933062 L481.614035 601.970503 L483.719298 604.899518 L485.824561 573.802402 L487.929825 575.468078 L490.035088 575.519701 L492.140351 549.050496 L494.245614 573.793177 L496.350877 548.728756 L498.45614 553.106603 L500.561404 561.960251 L502.666667 587.456576 L504.77193 621.128604 L506.877193 549.92324 L508.982456 620.780775 L511.087719 605.048361 L513.192982 572.430893 L515.298246 553.893734 L517.403509 557.760118 L519.508772 549.361635 L521.614035 605.211941 L523.719298 573.43746 L525.824561 548.751445 L527.929825 564.605555 L530.035088 550.162937 L532.140351 596.955828 L534.245614 555.606813 L536.350877 564.425519 L538.45614 557.764172 L540.561404 558.393435 L542.666667 626.193915 L544.77193 609.816239 L546.877193 551.69314 L548.982456 579.328576 L551.087719 585.251248 L553.192982 608.569909 L555.298246 589.400087 L557.403509 568.924249 L559.508772 612.323985 L561.614035 564.393883 L563.719298 557.699498 L565.824561 588.364729 L567.929825 569.15736 L570.035088 577.191432 L572.140351 574.278974 L574.245614 549.584158 L576.350877 572.343249 L578.45614 602.741688 L580.561404 612.382432 L582.666667 588.634665 L584.77193 616.012928 L586.877193 552.855628 L588.982456 565.443217 L591.087719 559.883077 L593.192982 621.435367 L595.298246 628.190494 L597.403509 561.682527 L599.508772 582.916131 L601.614035 585.723379 L603.719298 574.505108 L605.824561 603.412356 L607.929825 569.002214 L610.035088 570.49324 L612.140351 550.495151 L614.245614 610.962466 L616.350877 606.615627 L618.45614 628.307173 L620.561404 615.701115 L622.666667 600.620623 L624.77193 611.624796 L626.877193 571.834403 L628.982456 610.31144 L631.087719 552.341473 L633.192982 625.202979 L635.298246 580.512294 L637.403509 558.219771 L639.508772 582.363792 L641.614035 627.441119 L643.719298 548.829988 L645.824561 561.332825 L647.929825 606.511425 L650.035088 605.469071 L652.140351 562.712487 L654.245614 625.518374 L656.350877 578.004349 L658.45614 548.666667 L660.561404 563.569456 L662.666667 614.255172 L664.77193 561.110102 L666.877193 549.917631 L668.982456 559.055211 L671.087719 621.206467 L673.192982 618.215555 L675.298246 584.89984 L677.403509 591.326585 L679.508772 626.147375 L681.614035 607.474521 L683.719298 622.208944 L685.824561 611.919687 L687.929825 587.973663 L690.035088 565.552753 L692.140351 592.878837 L694.245614 619.772936 L696.350877 554.852551 L698.45614 579.257281 L700.561404 619.911539 L702.666667 555.038359 L704.77193 583.067683 L706.877193 627.397981 L708.982456 560.068655 L711.087719 622.027126 L713.192982 592.381749 L715.298246 553.429733 L717.403509 551.771275 L719.508772 582.82291 L721.614035 576.944738 L723.719298 583.897058 L725.824561 555.332966 L727.929825 605.917949 L730.035088 568.919259 L732.140351 573.12332 L734.245614 569.812148 L736.350877 596.770904 L738.45614 565.829867 L740.561404 558.675076 L742.666667 594.881315 L744.77193 583.438587 L746.877193 562.303599 L748.982456 590.023403 L751.087719 617.044958 L753.192982 625.077131 L755.298246 619.964799 L757.403509 615.650086 L759.508772 608.779999 L761.614035 589.441031 L763.719298 574.115178 L765.824561 587.345008 L767.929825 604.879117 L770.035088 620.584927 L772.140351 626.895441 L774.245614 571.042458 L776.350877 563.597447 L778.45614 591.178505 L780.561404 552.616245 L782.666667 609.766737 L784.77193 566.425885 L786.877193 551.799234 L788.982456 571.152128 L791.087719 580.914814 L793.192982 600.479265 L795.298246 574.181375 L797.403509 578.398299 L799.508772 555.512009 L801.614035 551.997969 L803.719298 549.23364 L805.824561 574.742082 L807.929825 554.226538 L810.035088 557.982005 L812.140351 606.498691 L814.245614 576.425061 L816.350877 596.557191 L818.45614 584.921709 L820.561404 593.728809 L822.666667 628.13918 L824.77193 609.597834 L826.877193 577.636135 L828.982456 580.857369 L831.087719 629.111111 L833.192982 550.503398 L835.298246 613.623069 L837.403509 590.172302 L839.508772 563.978646 L841.614035 560.426663 L843.719298 569.467098 L845.824561 581.978536 L847.929825 580.863212 L850.035088 551.87927 L852.140351 555.729021 L854.245614 568.58765 L856.350877 552.766639 L858.45614 584.664214 L860.561404 591.061956 L862.666667 550.287828 L864.77193 628.310315 L866.877193 586.929529 L868.982456 564.073511 L871.087719 610.233686 L873.192982 554.846274 L875.298246 605.959478 L877.403509 625.339748 L879.508772 596.298261 L881.614035 551.996291 L883.719298 561.368486 L885.824561 595.509043 L887.929825 616.14183 L890.035088 555.309287 L892.140351 576.190539 L894.245614 568.968624 L896.350877 575.943574 L898.45614 567.591663 L900.561404 558.42888 L902.666667 552.384664 "/>
  <path fill="#89a54e" d="M96.566667 576.533333 M86.566667 576.533333 a5.0 5.0 0 1 0 10.0 0 a5.0 5.0 0 1 0 -10.0 0 "/>
  <text x="103.066667" y="581.533333" fill="#333333" font-size="14.666667" font-family="Arial,Helvetica,'Helvetica Neue',sans-serif">Channel 3</text>
  <path stroke-width="1.333333" stroke="#333333" fill="none" d="M62.666667 910.266667 L453.555556 910.266667 "/>
  <path stroke-width="1.333333" stroke="#333333" fill="none" d="M62.666667 910.266667 L62.666667 904.933333 "/>
  <path stroke-width="1.333333" stroke="#333333" fill="none" d="M127.814815 910.266667 L127.814815 904.933333 "/>
  <path stroke-width="1.333333" stroke="#333333" fill="none" d="M192.962963 910.266667 L192.962963 904.933333 "/>
  <path stroke-width="1.333333" stroke="#333333" fill="none" d="M258.111111 910.266667 L258.111111 904.933333 "/>
  <path stroke-width="1.333333" stroke="#333333" fill="none" d="M323.259259 910.266667 L323.259259 904.933333 "/>
  <path stroke-width="1.333333" stroke="#333333" fill="none" d="M388.407407 910.266667 L388.407407 904.933333 "/>
  <path stroke-width="1.333333" stroke="#333333" fill="none" d="M453.555556 910.266667 L453.555556 904.933333 "/>
  <text x="50.026042" y="936.000000" fill="#333333" font-size="14.666667" font-family="Arial,Helvetica,'Helvetica Neue',sans-serif">-3.0</text>
  <text x="115.174190" y="936.000000" fill="#333333" font-size="14.666667" font-family="Arial,Helvetica,'Helvetica Neue',sans-serif">-2.0</text>
  <text x="180.322338" y="936.000000" fill="#333333" font-size="14.666667" font-family="Arial,Helvetica,'Helvetica Neue',sans-serif">-1.0</text>
  <text x="247.915799" y="936.000000" fill="#333333" font-size="14.666667" font-family="Arial,Helvetica,'Helvetica Neue',sans-serif">0.0</text>
  <text x="313.063947" y="936.000000" fill="#333333" font-size="14.666667" font-family="Arial,Helvetica,'Helvetica Neue',sans-serif">1.0</text>
  <text x="378.212095" y="936.000000" fill="#333333" font-size="14.666667" font-family="Arial,Helvetica,'Helvetica Neue',sans-serif">2.0</text>
  <text x="443.360243" y="936.000000" fill="#333333" font-size="14.666667" font-family="Arial,Helvetica,'Helvetica Neue',sans-serif">3.0</text>
  <path stroke-width="1.333333" stroke="#333333" fill="none" d="M62.666667 748.844444 L62.666667 910.266667 "/>
  <path stroke-width="1.333333" stroke="#333333" fill="none" d="M62.666667 910.266667 L68.0 910.266667 "/>
  <path stroke-width="1.333333" stroke="#333333" fill="none" d="M62.666667 862.789542 L68.0 862.789542 "/>
  <path stroke-width="1.333333" stroke="#333333" fill="none" d="M62.666667 815.312418 L68.0 815.312418 "/>
  <path stroke-width="1.333333" stroke="#333333" fill="none" d="M62.666667 767.835294 L68.0 767.835294 "/>
  <text x="22.386458" y="915.266667" fill="#333333" font-size="14.666667" font-family="Arial,Helvetica,'Helvetica Neue',sans-serif">10.0</text>
  <text x="22.386458" y="867.789542" fill="#333333" font-size="14.666667" font-family="Arial,Helvetica,'Helvetica Neue',sans-serif">20.0</text>
  <text x="22.386458" y="820.312418" fill="#333333" font-size="14.666667" font-family="Arial,Helvetica,'Helvetica Neue',sans-serif">30.0</text>
  <text x="22.386458" y="772.835294" fill="#333333" font-size="14.666667" font-family="Arial,Helvetica,'Helvetica Neue',sans-serif">40.0</text>
  <path stroke-width="1.333333" stroke="#333333" fill="none" d="M62.666667 748.844444 L453.555556 748.844444 "/>
  <path stroke-width="1.333333" stroke="#333333" fill="none" d="M62.666667 748.844444 L62.666667 754.177778 "/>
  <path stroke-width="1.333333" stroke="#333333" fill="none" d="M118.507939 748.844444 L118.507939 754.177778 "/>
  <path stroke-width="1.333333" stroke="#333333" fill="none" d="M174.349211 748.844444 L174.349211 754.177778 "/>
  <path stroke-width="1.333333" stroke="#333333" fill="none" d="M230.19049 748.844444 L230.19049 754.177778 "/>
  <path stroke-width="1.333333" stroke="#333333" fill="none" d="M286.031756 748.844444 L286.031756 754.177778 "/>
  <path stroke-width="1.333333" stroke="#333333" fill="none" d="M341.873023 748.844444 L341.873023 754.177778 "/>
  <path stroke-width="1.333333" stroke="#333333" fill="none" d="M397.714312 748.844444 L397.714312 754.177778 "/>
  <path stroke-width="1.333333" stroke="#333333" fill="none" d="M453.555556 748.844444 L453.555556 754.177778 "/>
  <text x="50.026042" y="733.111111" fill="#333333" font-size="14.666667" font-family="Arial,Helvetica,'Helvetica Neue',sans-serif">-3.0</text>
  <text x="105.867314" y="733.111111" fill="#333333" font-size="14.666667" font-family="Arial,Helvetica,'Helvetica Neue',sans-serif">-2.1</text>
  <text x="161.708586" y="733.111111" fill="#333333" font-size="14.666667" font-family="Arial,Helvetica,'Helvetica Neue',sans-serif">-1.3</text>
  <text x="217.549865" y="733.111111" fill="#333333" font-size="14.666667" font-family="Arial,Helvetica,'Helvetica Neue',sans-serif">-0.4</text>
  <text x="275.836444" y="733.111111" fill="#333333" font-size="14.666667" font-family="Arial,Helvetica,'Helvetica Neue',sans-serif">0.4</text>
  <text x="331.677710" y="733.111111" fill="#333333" font-size="14.666667" font-family="Arial,Helvetica,'Helvetica Neue',sans-serif">1.3</text>
  <text x="387.519000" y="733.111111" fill="#333333" font-size="14.666667" font-family="Arial,Helvetica,'Helvetica Neue',sans-serif">2.1</text>
  <text x="443.360243" y="733.111111" fill="#333333" font-size="14.666667" font-family="Arial,Helvetica,'Helvetica Neue',sans-serif">3.0</text>
  <path fill="#4572a7" d="M64.8 910.266667 L64.8 910.266667 L76.533333 910.266667 L76.533333 910.266667 "/>
  <path fill="#4572a7" d="M129.948148 910.266667 L129.948148 824.807843 L141.681481 824.807843 L141.681481 910.266667 "/>
  <path fill="#4572a7" d="M195.096296 910.266667 L195.096296 862.789542 L206.82963 862.789542 L206.82963 910.266667 "/>
  <path fill="#4572a7" d="M260.244444 910.266667 L260.244444 834.303268 L271.977778 834.303268 L271.977778 910.266667 "/>
  <path fill="#4572a7" d="M325.392593 910.266667 L325.392593 763.087582 L337.125926 763.087582 L337.125926 910.266667 "/>
  <path fill="#4572a7" d="M390.540741 910.266667 L390.540741 748.844444 L402.274074 748.844444 L402.274074 910.266667 "/>
  <path fill="#4572a7" d="M455.688889 910.266667 L455.688889 782.078431 L467.422222 782.078431 L467.422222 910.266667 "/>
  <path fill="#aa4643" d="M48.8 910.266667 L48.8 900.771242 L60.533333 900.771242 L60.533333 910.266667 "/>
  <path fill="#aa4643" d="M113.948148 910.266667 L113.948148 867.537255 L125.681481 867.537255 L125.681481 910.266667 "/>
  <path fill="#aa4643" d="M179.096296 910.266667 L179.096296 848.546405 L190.82963 848.546405 L190.82963 910.266667 "/>
  <path fill="#aa4643" d="M244.244444 910.266667 L244.244444 815.312418 L255.977778 815.312418 L255.977778 910.266667 "/>
  <path fill="#aa4643" d="M309.392593 910.266667 L309.392593 791.573856 L321.125926 791.573856 L321.125926 910.266667 "/>
  <path fill="#aa4643" d="M374.540741 910.266667 L374.540741 753.592157 L386.274074 753.592157 L386.274074 910.266667 "/>
  <path fill="#aa4643" d="M439.688889 910.266667 L439.688889 801.069281 L451.422222 801.069281 L451.422222 910.266667 "/>
  <path fill="#4572a7" d="M96.566667 776.711111 M86.566667 776.711111 a5.0 5.0 0 1 0 10.0 0 a5.0 5.0 0 1 0 -10.0 0 "/>
  <text x="103.066667" y="781.711111" fill="#333333" font-size="14.666667" font-family="Arial,Helvetica,'Helvetica Neue',sans-serif">A</text>
  <path fill="#aa4643" d="M155.547917 776.711111 M145.547917 776.711111 a5.0 5.0 0 1 0 10.0 0 a5.0 5.0 0 1 0 -10.0 0 "/>
  <text x="162.047917" y="781.711111" fill="#333333" font-size="14.666667" font-family="Arial,Helvetica,'Helvetica Neue',sans-serif">B</text>
  <path stroke-width="1.333333" stroke="#333333" fill="none" d="M512.222222 910.266667 L903.111111 910.266667 "/>
  <path stroke-width="1.333333" stroke="#333333" fill="none" d="M544.796296 910.266667 L544.796296 904.933333 "/>
  <path stroke-width="1.333333" stroke="#333333" fill="none" d="M544.796296 910.266667 L544.796296 904.933333 "/>
  <path stroke-width="1.333333" stroke="#333333" fill="none" d="M609.944444 910.266667 L609.944444 904.933333 "/>
  <path stroke-width="1.333333" stroke="#333333" fill="none" d="M609.944444 910.266667 L609.944444 904.933333 "/>
  <path stroke-width="1.333333" stroke="#333333" fill="none" d="M675.092593 910.266667 L675.092593 904.933333 "/>
  <path stroke-width="1.333333" stroke="#333333" fill="none" d="M675.092593 910.266667 L675.092593 904.933333 "/>
  <path stroke-width="1.333333" stroke="#333333" fill="none" d="M740.240741 910.266667 L740.240741 904.933333 "/>
  <path stroke-width="1.333333" stroke="#333333" fill="none" d="M740.240741 910.266667 L740.240741 904.933333 "/>
  <path stroke-width="1.333333" stroke="#333333" fill="none" d="M805.388889 910.266667 L805.388889 904.933333 "/>
  <path stroke-width="1.333333" stroke="#333333" fill="none" d="M805.388889 910.266667 L805.388889 904.933333 "/>
  <path stroke-width="1.333333" stroke="#333333" fill="none" d="M870.537037 910.266667 L870.537037 904.933333 "/>
  <path stroke-width="1.333333" stroke="#333333" fill="none" d="M870.537037 910.266667 L870.537037 904.933333 "/>
  <text x="572.479745" y="936.000000" fill="#333333" font-size="14.666667" font-family="Arial,Helvetica,'Helvetica Neue',sans-serif">A</text>
  <text x="637.627894" y="936.000000" fill="#333333" font-size="14.666667" font-family="Arial,Helvetica,'Helvetica Neue',sans-serif">B</text>
  <text x="702.369792" y="936.000000" fill="#333333" font-size="14.666667" font-family="Arial,Helvetica,'Helvetica Neue',sans-serif">C</text>
  <text x="767.517940" y="936.000000" fill="#333333" font-size="14.666667" font-family="Arial,Helvetica,'Helvetica Neue',sans-serif">D</text>
  <text x="833.072338" y="936.000000" fill="#333333" font-size="14.666667" font-family="Arial,Helvetica,'Helvetica Neue',sans-serif">E</text>
  <path stroke-width="1.333333" stroke="#333333" fill="none" d="M512.222222 748.844444 L903.111111 748.844444 "/>
  <path stroke-width="1.333333" stroke="#333333" fill="none" d="M512.222222 748.844444 L512.222222 754.177778 "/>
  <path stroke-width="1.333333" stroke="#333333" fill="none" d="M568.063495 748.844444 L568.063495 754.177778 "/>
  <path stroke-width="1.333333" stroke="#333333" fill="none" d="M623.904767 748.844444 L623.904767 754.177778 "/>
  <path stroke-width="1.333333" stroke="#333333" fill="none" d="M679.746045 748.844444 L679.746045 754.177778 "/>
  <path stroke-width="1.333333" stroke="#333333" fill="none" d="M735.587312 748.844444 L735.587312 754.177778 "/>
  <path stroke-width="1.333333" stroke="#333333" fill="none" d="M791.428578 748.844444 L791.428578 754.177778 "/>
  <path stroke-width="1.333333" stroke="#333333" fill="none" d="M847.269868 748.844444 L847.269868 754.177778 "/>
  <path stroke-width="1.333333" stroke="#333333" fill="none" d="M903.111111 748.844444 L903.111111 754.177778 "/>
  <text x="502.026910" y="733.111111" fill="#333333" font-size="14.666667" font-family="Arial,Helvetica,'Helvetica Neue',sans-serif">0.0</text>
  <text x="557.868182" y="733.111111" fill="#333333" font-size="14.666667" font-family="Arial,Helvetica,'Helvetica Neue',sans-serif">0.9</text>
  <text x="613.709454" y="733.111111" fill="#333333" font-size="14.666667" font-family="Arial,Helvetica,'Helvetica Neue',sans-serif">1.7</text>
  <text x="669.550733" y="733.111111" fill="#333333" font-size="14.666667" font-family="Arial,Helvetica,'Helvetica Neue',sans-serif">2.6</text>
  <text x="725.391999" y="733.111111" fill="#333333" font-size="14.666667" font-family="Arial,Helvetica,'Helvetica Neue',sans-serif">3.4</text>
  <text x="781.233266" y="733.111111" fill="#333333" font-size="14.666667" font-family="Arial,Helvetica,'Helvetica Neue',sans-serif">4.3</text>
  <text x="837.074555" y="733.111111" fill="#333333" font-size="14.666667" font-family="Arial,Helvetica,'Helvetica Neue',sans-serif">5.1</text>
  <text x="892.915799" y="733.111111" fill="#333333" font-size="14.666667" font-family="Arial,Helvetica,'Helvetica Neue',sans-serif">6.0</text>
  <path stroke-width="2.000000" stroke="#4572a7" fill="none" d="M512.222222 818.025397 L577.37037 841.085714 L642.518519 887.206349 L707.666667 852.615873 L772.814815 766.139683 L837.962963 748.844444 L903.111111 789.2 "/>
  <path fill="#4572a7" d="M516.222222 818.025397 M508.222222 818.025397 a4.0 4.0 0 1 0 8.0 0 a4.0 4.0 0 1 0 -8.0 0 "/>
  <path fill="#4572a7" d="M581.37037 841.085714 M573.37037 841.085714 a4.0 4.0 0 1 0 8.0 0 a4.0 4.0 0 1 0 -8.0 0 "/>
  <path fill="#4572a7" d="M646.518519 887.206349 M638.518519 887.206349 a4.0 4.0 0 1 0 8.0 0 a4.0 4.0 0 1 0 -8.0 0 "/>
  <path fill="#4572a7" d="M711.666667 852.615873 M703.666667 852.615873 a4.0 4.0 0 1 0 8.0 0 a4.0 4.0 0 1 0 -8.0 0 "/>
  <path fill="#4572a7" d="M776.814815 766.139683 M768.814815 766.139683 a4.0 4.0 0 1 0 8.0 0 a4.0 4.0 0 1 0 -8.0 0 "/>
  <path fill="#4572a7" d="M841.962963 748.844444 M833.962963 748.844444 a4.0 4.0 0 1 0 8.0 0 a4.0 4.0 0 1 0 -8.0 0 "/>
  <path fill="#4572a7" d="M907.111111 789.2 M899.111111 789.2 a4.0 4.0 0 1 0 8.0 0 a4.0 4.0 0 1 0 -8.0 0 "/>
  <path stroke-width="2.000000" stroke="#aa4643" fill="none" d="M512.222222 864.146032 L577.37037 892.971429 L642.518519 910.266667 L707.666667 869.911111 L772.814815 800.730159 L837.962963 835.320635 L903.111111 864.146032 "/>
  <path fill="#aa4643" d="M516.222222 864.146032 M508.222222 864.146032 a4.0 4.0 0 1 0 8.0 0 a4.0 4.0 0 1 0 -8.0 0 "/>
  <path fill="#aa4643" d="M581.37037 892.971429 M573.37037 892.971429 a4.0 4.0 0 1 0 8.0 0 a4.0 4.0 0 1 0 -8.0 0 "/>
  <path fill="#aa4643" d="M646.518519 910.266667 M638.518519 910.266667 a4.0 4.0 0 1 0 8.0 0 a4.0 4.0 0 1 0 -8.0 0 "/>
  <path fill="#aa4643" d="M711.666667 869.911111 M703.666667 869.911111 a4.0 4.0 0 1 0 8.0 0 a4.0 4.0 0 1 0 -8.0 0 "/>
  <path fill="#aa4643" d="M776.814815 800.730159 M768.814815 800.730159 a4.0 4.0 0 1 0 8.0 0 a4.0 4.0 0 1 0 -8.0 0 "/>
  <path fill="#aa4643" d="M841.962963 835.320635 M833.962963 835.320635 a4.0 4.0 0 1 0 8.0 0 a4.0 4.0 0 1 0 -8.0 0 "/>
  <path fill="#aa4643" d="M907.111111 864.146032 M899.111111 864.146032 a4.0 4.0 0 1 0 8.0 0 a4.0 4.0 0 1 0 -8.0 0 "/>
  <path fill="#4572a7" d="M546.122222 776.711111 M536.122222 776.711111 a5.0 5.0 0 1 0 10.0 0 a5.0 5.0 0 1 0 -10.0 0 "/>
  <text x="552.622222" y="781.711111" fill="#333333" font-size="14.666667" font-family="Arial,Helvetica,'Helvetica Neue',sans-serif">A</text>
  <path fill="#aa4643" d="M605.103472 776.711111 M595.103472 776.711111 a5.0 5.0 0 1 0 10.0 0 a5.0 5.0 0 1 0 -10.0 0 "/>
  <text x="611.603472" y="781.711111" fill="#333333" font-size="14.666667" font-family="Arial,Helvetica,'Helvetica Neue',sans-serif">B</text>
  <path stroke-width="1.333333" stroke="#333333" fill="none" d="M1372.386458 748.844444 L1372.386458 910.266667 "/>
  <path stroke-width="1.333333" stroke="#333333" fill="none" d="M1372.386458 910.266667 L1367.053125 910.266667 "/>
  <path stroke-width="1.333333" stroke="#333333" fill="none" d="M1372.386458 848.655131 L1367.053125 848.655131 "/>
  <path stroke-width="1.333333" stroke="#333333" fill="none" d="M1372.386458 787.043595 L1367.053125 787.043595 "/>
  <text x="1384.119792" y="915.266667" fill="#333333" font-size="14.666667" font-family="Arial,Helvetica,'Helvetica Neue',sans-serif">3.9</text>
  <text x="1384.119792" y="853.655131" fill="#333333" font-size="14.666667" font-family="Arial,Helvetica,'Helvetica Neue',sans-serif">8.9</text>
  <text x="1384.119792" y="792.043595" fill="#333333" font-size="14.666667" font-family="Arial,Helvetica,'Helvetica Neue',sans-serif">13.9</text>
  <path stroke-width="1.333333" stroke="#333333" fill="none" d="M961.777778 910.266667 L1372.386458 910.266667 "/>
  <path stroke-width="1.333333" stroke="#333333" fill="none" d="M961.777778 910.266667 L961.777778 904.933333 "/>
  <path stroke-width="1.333333" stroke="#333333" fill="none" d="M999.10584 910.266667 L999.10584 904.933333 "/>
  <path stroke-width="1.333333" stroke="#333333" fill="none" d="M1036.433902 910.266667 L1036.433902 904.933333 "/>
  <path stroke-width="1.333333" stroke="#333333" fill="none" d="M1073.761963 910.266667 L1073.761963 904.933333 "/>
  <path stroke-width="1.333333" stroke="#333333" fill="none" d="M1111.090025 910.266667 L1111.090025 904.933333 "/>
  <path stroke-width="1.333333" stroke="#333333" fill="none" d="M1148.418087 910.266667 L1148.418087 904.933333 "/>
  <path stroke-width="1.333333" stroke="#333333" fill="none" d="M1185.746149 910.266667 L1185.746149 904.933333 "/>
  <path stroke-width="1.333333" stroke="#333333" fill="none" d="M1223.074211 910.266667 L1223.074211 904.933333 "/>
  <path stroke-width="1.333333" stroke="#333333" fill="none" d="M1260.402273 910.266667 L1260.402273 904.933333 "/>
  <path stroke-width="1.333333" stroke="#333333" fill="none" d="M1297.730335 910.266667 L1297.730335 904.933333 "/>
  <path stroke-width="1.333333" stroke="#333333" fill="none" d="M1335.058396 910.266667 L1335.058396 904.933333 "/>
  <path stroke-width="1.333333" stroke="#333333" fill="none" d="M1372.386458 910.266667 L1372.386458 904.933333 "/>
  <text x="949.949653" y="936.000000" fill="#333333" font-size="14.666667" font-family="Arial,Helvetica,'Helvetica Neue',sans-serif">Jan</text>
  <text x="986.465215" y="936.000000" fill="#333333" font-size="14.666667" font-family="Arial,Helvetica,'Helvetica Neue',sans-serif">Feb</text>
  <text x="1023.801089" y="936.000000" fill="#333333" font-size="14.666667" font-family="Arial,Helvetica,'Helvetica Neue',sans-serif">Mar</text>
  <text x="1062.347901" y="936.000000" fill="#333333" font-size="14.666667" font-family="Arial,Helvetica,'Helvetica Neue',sans-serif">Apr</text>
  <text x="1097.230650" y="936.000000" fill="#333333" font-size="14.666667" font-family="Arial,Helvetica,'Helvetica Neue',sans-serif">May</text>
  <text x="1136.589962" y="936.000000" fill="#333333" font-size="14.666667" font-family="Arial,Helvetica,'Helvetica Neue',sans-serif">Jun</text>
  <text x="1176.363336" y="936.000000" fill="#333333" font-size="14.666667" font-family="Arial,Helvetica,'Helvetica Neue',sans-serif">Jul</text>
  <text x="1210.027336" y="936.000000" fill="#333333" font-size="14.666667" font-family="Arial,Helvetica,'Helvetica Neue',sans-serif">Aug</text>
  <text x="1247.355398" y="936.000000" fill="#333333" font-size="14.666667" font-family="Arial,Helvetica,'Helvetica Neue',sans-serif">Sep</text>
  <text x="1286.316272" y="936.000000" fill="#333333" font-size="14.666667" font-family="Arial,Helvetica,'Helvetica Neue',sans-serif">Oct</text>
  <text x="1322.011521" y="936.000000" fill="#333333" font-size="14.666667" font-family="Arial,Helvetica,'Helvetica Neue',sans-serif">Nov</text>
  <text x="1359.339583" y="936.000000" fill="#333333" font-size="14.666667" font-family="Arial,Helvetica,'Helvetica Neue',sans-serif">Dec</text>
  <path stroke-width="1.333333" stroke="#333333" fill="none" d="M961.777778 748.844444 L1372.386458 748.844444 "/>
  <path stroke-width="1.333333" stroke="#333333" fill="none" d="M961.777778 748.844444 L961.777778 754.177778 "/>
  <path stroke-width="1.333333" stroke="#333333" fill="none" d="M999.10584 748.844444 L999.10584 754.177778 "/>
  <path stroke-width="1.333333" stroke="#333333" fill="none" d="M1036.433902 748.844444 L1036.433902 754.177778 "/>
  <path stroke-width="1.333333" stroke="#333333" fill="none" d="M1073.761963 748.844444 L1073.761963 754.177778 "/>
  <path stroke-width="1.333333" stroke="#333333" fill="none" d="M1111.090025 748.844444 L1111.090025 754.177778 "/>
  <path stroke-width="1.333333" stroke="#333333" fill="none" d="M1148.418087 748.844444 L1148.418087 754.177778 "/>
  <path stroke-width="1.333333" stroke="#333333" fill="none" d="M1185.746149 748.844444 L1185.746149 754.177778 "/>
  <path stroke-width="1.333333" stroke="#333333" fill="none" d="M1223.074211 748.844444 L1223.074211 754.177778 "/>
  <path stroke-width="1.333333" stroke="#333333" fill="none" d="M1260.402273 748.844444 L1260.402273 754.177778 "/>
  <path stroke-width="1.333333" stroke="#333333" fill="none" d="M1297.730335 748.844444 L1297.730335 754.177778 "/>
  <path stroke-width="1.333333" stroke="#333333" fill="none" d="M1335.058396 748.844444 L1335.058396 754.177778 "/>
  <path stroke-width="1.333333" stroke="#333333" fill="none" d="M1372.386458 748.844444 L1372.386458 754.177778 "/>
  <text x="949.949653" y="733.111111" fill="#333333" font-size="14.666667" font-family="Arial,Helvetica,'Helvetica Neue',sans-serif">Jan</text>
  <text x="986.465215" y="733.111111" fill="#333333" font-size="14.666667" font-family="Arial,Helvetica,'Helvetica Neue',sans-serif">Feb</text>
  <text x="1023.801089" y="733.111111" fill="#333333" font-size="14.666667" font-family="Arial,Helvetica,'Helvetica Neue',sans-serif">Mar</text>
  <text x="1062.347901" y="733.111111" fill="#333333" font-size="14.666667" font-family="Arial,Helvetica,'Helvetica Neue',sans-serif">Apr</text>
  <text x="1097.230650" y="733.111111" fill="#333333" font-size="14.666667" font-family="Arial,Helvetica,'Helvetica Neue',sans-serif">May</text>
  <text x="1136.589962" y="733.111111" fill="#333333" font-size="14.666667" font-family="Arial,Helvetica,'Helvetica Neue',sans-serif">Jun</text>
  <text x="1176.363336" y="733.111111" fill="#333333" font-size="14.666667" font-family="Arial,Helvetica,'Helvetica Neue',sans-serif">Jul</text>
  <text x="1210.027336" y="733.111111" fill="#333333" font-size="14.666667" font-family="Arial,Helvetica,'Helvetica Neue',sans-serif">Aug</text>
  <text x="1247.355398" y="733.111111" fill="#333333" font-size="14.666667" font-family="Arial,Helvetica,'Helvetica Neue',sans-serif">Sep</text>
  <text x="1286.316272" y="733.111111" fill="#333333" font-size="14.666667" font-family="Arial,Helvetica,'Helvetica Neue',sans-serif">Oct</text>
  <text x="1322.011521" y="733.111111" fill="#333333" font-size="14.666667" font-family="Arial,Helvetica,'Helvetica Neue',sans-serif">Nov</text>
  <text x="1359.339583" y="733.111111" fill="#333333" font-size="14.666667" font-family="Arial,Helvetica,'Helvetica Neue',sans-serif">Dec</text>
  <path fill="#4572a7" d="M942.222222 910.266667 L942.222222 910.266667 L981.333333 910.266667 L981.333333 910.266667 "/>
  <path fill="#4572a7" d="M979.550284 910.266667 L979.550284 906.569976 L1018.661395 906.569976 L1018.661395 910.266667 "/>
  <path fill="#4572a7" d="M1016.878346 910.266667 L1016.878346 888.086515 L1055.989457 888.086515 L1055.989457 910.266667 "/>
  <path fill="#4572a7" d="M1054.206408 910.266667 L1054.206408 853.584055 L1093.317519 853.584055 L1093.317519 910.266667 "/>
  <path fill="#4572a7" d="M1091.53447 910.266667 L1091.53447 811.688211 L1130.645581 811.688211 L1130.645581 910.266667 "/>
  <path fill="#4572a7" d="M1128.862532 910.266667 L1128.862532 771.024597 L1167.973643 771.024597 L1167.973643 910.266667 "/>
  <path fill="#4572a7" d="M1166.190593 910.266667 L1166.190593 748.844444 L1205.301705 748.844444 L1205.301705 910.266667 "/>
  <path fill="#4572a7" d="M1203.518655 910.266667 L1203.518655 753.773367 L1242.629766 753.773367 L1242.629766 910.266667 "/>
  <path fill="#4572a7" d="M1240.846717 910.266667 L1240.846717 783.346904 L1279.957828 783.346904 L1279.957828 910.266667 "/>
  <path fill="#4572a7" d="M1278.174779 910.266667 L1278.174779 831.403902 L1317.28589 831.403902 L1317.28589 910.266667 "/>
  <path fill="#4572a7" d="M1315.502841 910.266667 L1315.502841 876.996439 L1354.613952 876.996439 L1354.613952 910.266667 "/>
  <path fill="#4572a7" d="M1352.830903 910.266667 L1352.830903 899.176591 L1391.942014 899.176591 L1391.942014 910.266667 "/>
  <path stroke-width="4.000000" stroke="#000000" fill="none" d="M2.666667 959.555556 L1436.333333 959.555556 "/>
  <path stroke-width="4.000000" stroke="#000000" fill="none" d="M1436.333333 959.555556 L1436.333333 977.333333 "/>
  <path stroke-width="4.000000" stroke="#000000" fill="none" d="M2.666667 977.333333 L1436.333333 977.333333 "/>
  <path stroke-width="4.000000" stroke="#000000" fill="none" d="M2.666667 959.555556 L2.666667 977.333333 "/>
</svg>