<svg xmlns="http://www.w3.org/2000/svg" width="1439.000000" height="980.000000" viewBox="0 0 1439.0 980.0">
  <rect width="1439.000000" height="980.000000" fill="#ffffff"/>
  <path stroke-width="1.333333" stroke="#333333" fill="none" d="M62.666667 230.266667 L453.555556 230.266667 "/>
  <path stroke-width="1.333333" stroke="#333333" fill="none" d="M90.587302 230.266667 L90.587302 224.933333 "/>
  <path stroke-width="1.333333" stroke="#333333" fill="none" d="M146.428571 230.266667 L146.428571 224.933333 "/>
  <path stroke-width="1.333333" stroke="#333333" fill="none" d="M202.269841 230.266667 L202.269841 224.933333 "/>
  <path stroke-width="1.333333" stroke="#333333" fill="none" d="M258.111111 230.266667 L258.111111 224.933333 "/>
  <path stroke-width="1.333333" stroke="#333333" fill="none" d="M313.952381 230.266667 L313.952381 224.933333 "/>
  <path stroke-width="1.333333" stroke="#333333" fill="none" d="M369.793651 230.266667 L369.793651 224.933333 "/>
  <path stroke-width="1.333333" stroke="#333333" fill="none" d="M425.634921 230.266667 L425.634921 224.933333 "/>
  <text x="77.946677" y="256.000000" fill="#333333" font-size="14.666667" font-family="Arial,Helvetica,'Helvetica Neue',sans-serif">-3.0</text>
  <text x="133.787946" y="256.000000" fill="#333333" font-size="14.666667" font-family="Arial,Helvetica,'Helvetica Neue',sans-serif">-2.0</text>
  <text x="189.629216" y="256.000000" fill="#333333" font-size="14.666667" font-family="Arial,Helvetica,'Helvetica Neue',sans-serif">-1.0</text>
  <text x="247.915799" y="256.000000" fill="#333333" font-size="14.666667" font-family="Arial,Helvetica,'Helvetica Neue',sans-serif">0.0</text>
  <text x="303.757068" y="256.000000" fill="#333333" font-size="14.666667" font-family="Arial,Helvetica,'Helvetica Neue',sans-serif">1.0</text>
  <text x="359.598338" y="256.000000" fill="#333333" font-size="14.666667" font-family="Arial,Helvetica,'Helvetica Neue',sans-serif">2.0</text>
  <text x="415.439608" y="256.000000" fill="#333333" font-size="14.666667" font-family="Arial,Helvetica,'Helvetica Neue',sans-serif">3.0</text>
  <path stroke-width="1.333333" stroke="#333333" fill="none" d="M62.666667 68.844444 L62.666667 230.266667 "/>
  <path stroke-width="1.333333" stroke="#333333" fill="none" d="M62.666667 230.266667 L68.0 230.266667 "/>
  <path stroke-width="1.333333" stroke="#333333" fill="none" d="M62.666667 200.917172 L68.0 200.917172 "/>
  <path stroke-width="1.333333" stroke="#333333" fill="none" d="M62.666667 171.567677 L68.0 171.567677 "/>
  <path stroke-width="1.333333" stroke="#333333" fill="none" d="M62.666667 142.218182 L68.0 142.218182 "/>
  <path stroke-width="1.333333" stroke="#333333" fill="none" d="M62.666667 112.868687 L68.0 112.868687 "/>
  <path stroke-width="1.333333" stroke="#333333" fill="none" d="M62.666667 83.519192 L68.0 83.519192 "/>
  <text x="30.542708" y="235.266667" fill="#333333" font-size="14.666667" font-family="Arial,Helvetica,'Helvetica Neue',sans-serif">0.0</text>
  <text x="22.386458" y="205.917172" fill="#333333" font-size="14.666667" font-family="Arial,Helvetica,'Helvetica Neue',sans-serif">10.0</text>
  <text x="22.386458" y="176.567677" fill="#333333" font-size="14.666667" font-family="Arial,Helvetica,'Helvetica Neue',sans-serif">20.0</text>
  <text x="22.386458" y="147.218182" fill="#333333" font-size="14.666667" font-family="Arial,Helvetica,'Helvetica Neue',sans-serif">30.0</text>
  <text x="22.386458" y="117.868687" fill="#333333" font-size="14.666667" font-family="Arial,Helvetica,'Helvetica Neue',sans-serif">40.0</text>
  <text x="22.386458" y="88.519192" fill="#333333" font-size="14.666667" font-family="Arial,Helvetica,'Helvetica Neue',sans-serif">50.0</text>
  <path stroke-width="1.333333" stroke="#333333" fill="none" d="M62.666667 68.844444 L453.555556 68.844444 "/>
  <path stroke-width="1.333333" stroke="#333333" fill="none" d="M62.666667 68.844444 L62.666667 74.177778 "/>
  <path stroke-width="1.333333" stroke="#333333" fill="none" d="M118.507939 68.844444 L118.507939 74.177778 "/>
  <path stroke-width="1.333333" stroke="#333333" fill="none" d="M174.349211 68.844444 L174.349211 74.177778 "/>
  <path stroke-width="1.333333" stroke="#333333" fill="none" d="M230.19049 68.844444 L230.19049 74.177778 "/>
  <path stroke-width="1.333333" stroke="#333333" fill="none" d="M286.031756 68.844444 L286.031756 74.177778 "/>
  <path stroke-width="1.333333" stroke="#333333" fill="none" d="M341.873023 68.844444 L341.873023 74.177778 "/>
  <path stroke-width="1.333333" stroke="#333333" fill="none" d="M397.714312 68.844444 L397.714312 74.177778 "/>
  <path stroke-width="1.333333" stroke="#333333" fill="none" d="M453.555556 68.844444 L453.555556 74.177778 "/>
  <text x="50.026042" y="53.111111" fill="#333333" font-size="14.666667" font-family="Arial,Helvetica,'Helvetica Neue',sans-serif">-3.5</text>
  <text x="105.867314" y="53.111111" fill="#333333" font-size="14.666667" font-family="Arial,Helvetica,'Helvetica Neue',sans-serif">-2.5</text>
  <text x="161.708586" y="53.111111" fill="#333333" font-size="14.666667" font-family="Arial,Helvetica,'Helvetica Neue',sans-serif">-1.5</text>
  <text x="217.549865" y="53.111111" fill="#333333" font-size="14.666667" font-family="Arial,Helvetica,'Helvetica Neue',sans-serif">-0.5</text>
  <text x="275.836444" y="53.111111" fill="#333333" font-size="14.666667" font-family="Arial,Helvetica,'Helvetica Neue',sans-serif">0.5</text>
  <text x="331.677710" y="53.111111" fill="#333333" font-size="14.666667" font-family="Arial,Helvetica,'Helvetica Neue',sans-serif">1.5</text>
  <text x="387.519000" y="53.111111" fill="#333333" font-size="14.666667" font-family="Arial,Helvetica,'Helvetica Neue',sans-serif">2.5</text>
  <text x="443.360243" y="53.111111" fill="#333333" font-size="14.666667" font-family="Arial,Helvetica,'Helvetica Neue',sans-serif">3.5</text>
  <path fill="#4572a7" d="M92.720635 230.266667 L92.720635 200.917172 L104.453968 200.917172 L104.453968 230.266667 "/>
  <path fill="#4572a7" d="M148.561905 230.266667 L148.561905 148.088081 L160.295238 148.088081 L160.295238 230.266667 "/>
  <path fill="#4572a7" d="M204.403175 230.266667 L204.403175 171.567677 L216.136508 171.567677 L216.136508 230.266667 "/>
  <path fill="#4572a7" d="M260.244444 230.266667 L260.244444 153.95798 L271.977778 153.95798 L271.977778 230.266667 "/>
  <path fill="#4572a7" d="M316.085714 230.266667 L316.085714 109.933737 L327.819048 109.933737 L327.819048 230.266667 "/>
  <path fill="#4572a7" d="M371.926984 230.266667 L371.926984 101.128889 L383.660317 101.128889 L383.660317 230.266667 "/>
  <path fill="#4572a7" d="M427.768254 230.266667 L427.768254 121.673535 L439.501587 121.673535 L439.501587 230.266667 "/>
  <path fill="#aa4643" d="M76.720635 230.266667 L76.720635 195.047273 L88.453968 195.047273 L88.453968 230.266667 "/>
  <path fill="#aa4643" d="M132.561905 230.266667 L132.561905 174.502626 L144.295238 174.502626 L144.295238 230.266667 "/>
  <path fill="#aa4643" d="M188.403175 230.266667 L188.403175 162.762828 L200.136508 162.762828 L200.136508 230.266667 "/>
  <path fill="#aa4643" d="M244.244444 230.266667 L244.244444 142.218182 L255.977778 142.218182 L255.977778 230.266667 "/>
  <path fill="#aa4643" d="M300.085714 230.266667 L300.085714 127.543434 L311.819048 127.543434 L311.819048 230.266667 "/>
  <path fill="#aa4643" d="M355.926984 230.266667 L355.926984 104.063838 L367.660317 104.063838 L367.660317 230.266667 "/>
  <path fill="#aa4643" d="M411.768254 230.266667 L411.768254 133.413333 L423.501587 133.413333 L423.501587 230.266667 "/>
  <path fill="#4572a7" d="M96.566667 96.711111 M86.566667 96.711111 a5.0 5.0 0 1 0 10.0 0 a5.0 5.0 0 1 0 -10.0 0 "/>
  <text x="103.066667" y="101.711111" fill="#333333" font-size="14.666667" font-family="Arial,Helvetica,'Helvetica Neue',sans-serif">A</text>
  <path fill="#aa4643" d="M155.547917 96.711111 M145.547917 96.711111 a5.0 5.0 0 1 0 10.0 0 a5.0 5.0 0 1 0 -10.0 0 "/>
  <text x="162.047917" y="101.711111" fill="#333333" font-size="14.666667" font-family="Arial,Helvetica,'Helvetica Neue',sans-serif">B</text>
  <path stroke-width="1.333333" stroke="#333333" fill="none" d="M512.222222 230.266667 L903.111111 230.266667 "/>
  <path stroke-width="1.333333" stroke="#333333" fill="none" d="M512.222222 230.266667 L512.222222 224.933333 "/>
  <path stroke-width="1.333333" stroke="#333333" fill="none" d="M568.063492 230.266667 L568.063492 224.933333 "/>
  <path stroke-width="1.333333" stroke="#333333" fill="none" d="M568.063492 230.266667 L568.063492 224.933333 "/>
  <path stroke-width="1.333333" stroke="#333333" fill="none" d="M623.904762 230.266667 L623.904762 224.933333 "/>
  <path stroke-width="1.333333" stroke="#333333" fill="none" d="M623.904762 230.266667 L623.904762 224.933333 "/>
  <path stroke-width="1.333333" stroke="#333333" fill="none" d="M679.746032 230.266667 L679.746032 224.933333 "/>
  <path stroke-width="1.333333" stroke="#333333" fill="none" d="M679.746032 230.266667 L679.746032 224.933333 "/>
  <path stroke-width="1.333333" stroke="#333333" fill="none" d="M735.587302 230.266667 L735.587302 224.933333 "/>
  <path stroke-width="1.333333" stroke="#333333" fill="none" d="M735.587302 230.266667 L735.587302 224.933333 "/>
  <path stroke-width="1.333333" stroke="#333333" fill="none" d="M791.428571 230.266667 L791.428571 224.933333 "/>
  <path stroke-width="1.333333" stroke="#333333" fill="none" d="M791.428571 230.266667 L791.428571 224.933333 "/>
  <path stroke-width="1.333333" stroke="#333333" fill="none" d="M847.269841 230.266667 L847.269841 224.933333 "/>
  <path stroke-width="1.333333" stroke="#333333" fill="none" d="M847.269841 230.266667 L847.269841 224.933333 "/>
  <path stroke-width="1.333333" stroke="#333333" fill="none" d="M903.111111 230.266667 L903.111111 224.933333 "/>
  <path stroke-width="1.333333" stroke="#333333" fill="none" d="M903.111111 230.266667 L903.111111 224.933333 "/>
  <text x="535.252232" y="256.000000" fill="#333333" font-size="14.666667" font-family="Arial,Helvetica,'Helvetica Neue',sans-serif">A</text>
  <text x="591.093502" y="256.000000" fill="#333333" font-size="14.666667" font-family="Arial,Helvetica,'Helvetica Neue',sans-serif">B</text>
  <text x="646.528522" y="256.000000" fill="#333333" font-size="14.666667" font-family="Arial,Helvetica,'Helvetica Neue',sans-serif">C</text>
  <text x="702.369792" y="256.000000" fill="#333333" font-size="14.666667" font-family="Arial,Helvetica,'Helvetica Neue',sans-serif">D</text>
  <text x="758.617312" y="256.000000" fill="#333333" font-size="14.666667" font-family="Arial,Helvetica,'Helvetica Neue',sans-serif">E</text>
  <text x="814.864831" y="256.000000" fill="#333333" font-size="14.666667" font-family="Arial,Helvetica,'Helvetica Neue',sans-serif">F</text>
  <text x="869.487351" y="256.000000" fill="#333333" font-size="14.666667" font-family="Arial,Helvetica,'Helvetica Neue',sans-serif">G</text>
  <path stroke-width="1.333333" stroke="#333333" fill="none" d="M512.222222 68.844444 L903.111111 68.844444 "/>
  <path stroke-width="1.333333" stroke="#333333" fill="none" d="M512.222222 68.844444 L512.222222 74.177778 "/>
  <path stroke-width="1.333333" stroke="#333333" fill="none" d="M568.063495 68.844444 L568.063495 74.177778 "/>
  <path stroke-width="1.333333" stroke="#333333" fill="none" d="M623.904767 68.844444 L623.904767 74.177778 "/>
  <path stroke-width="1.333333" stroke="#333333" fill="none" d="M679.746045 68.844444 L679.746045 74.177778 "/>
  <path stroke-width="1.333333" stroke="#333333" fill="none" d="M735.587312 68.844444 L735.587312 74.177778 "/>
  <path stroke-width="1.333333" stroke="#333333" fill="none" d="M791.428578 68.844444 L791.428578 74.177778 "/>
  <path stroke-width="1.333333" stroke="#333333" fill="none" d="M847.269868 68.844444 L847.269868 74.177778 "/>
  <path stroke-width="1.333333" stroke="#333333" fill="none" d="M903.111111 68.844444 L903.111111 74.177778 "/>
  <text x="499.581597" y="53.111111" fill="#333333" font-size="14.666667" font-family="Arial,Helvetica,'Helvetica Neue',sans-serif">-0.5</text>
  <text x="557.868182" y="53.111111" fill="#333333" font-size="14.666667" font-family="Arial,Helvetica,'Helvetica Neue',sans-serif">0.5</text>
  <text x="613.709454" y="53.111111" fill="#333333" font-size="14.666667" font-family="Arial,Helvetica,'Helvetica Neue',sans-serif">1.5</text>
  <text x="669.550733" y="53.111111" fill="#333333" font-size="14.666667" font-family="Arial,Helvetica,'Helvetica Neue',sans-serif">2.5</text>
  <text x="725.391999" y="53.111111" fill="#333333" font-size="14.666667" font-family="Arial,Helvetica,'Helvetica Neue',sans-serif">3.5</text>
  <text x="781.233266" y="53.111111" fill="#333333" font-size="14.666667" font-family="Arial,Helvetica,'Helvetica Neue',sans-serif">4.5</text>
  <text x="837.074555" y="53.111111" fill="#333333" font-size="14.666667" font-family="Arial,Helvetica,'Helvetica Neue',sans-serif">5.5</text>
  <text x="892.915799" y="53.111111" fill="#333333" font-size="14.666667" font-family="Arial,Helvetica,'Helvetica Neue',sans-serif">6.5</text>
  <path fill="#4572a7" d="M540.142857 215.591919 L595.984127 162.762828 L651.825397 186.242424 L707.666667 168.632727 L763.507937 124.608485 L819.349206 115.803636 L875.190476 136.348283 L875.190476 230.266667 L819.349206 230.266667 L763.507937 230.266667 L707.666667 230.266667 L651.825397 230.266667 L595.984127 230.266667 L540.142857 230.266667 "/>
  <path fill="#aa4643" d="M540.142857 221.461818 L595.984127 189.177374 L651.825397 197.982222 L707.666667 177.437576 L763.507937 142.218182 L819.349206 159.827879 L875.190476 148.088081 L875.190476 230.266667 L819.349206 230.266667 L763.507937 230.266667 L707.666667 230.266667 L651.825397 230.266667 L595.984127 230.266667 L540.142857 230.266667 "/>
  <path fill="#4572a7" d="M546.122222 96.711111 M536.122222 96.711111 a5.0 5.0 0 1 0 10.0 0 a5.0 5.0 0 1 0 -10.0 0 "/>
  <text x="552.622222" y="101.711111" fill="#333333" font-size="14.666667" font-family="Arial,Helvetica,'Helvetica Neue',sans-serif">A</text>
  <path fill="#aa4643" d="M605.103472 96.711111 M595.103472 96.711111 a5.0 5.0 0 1 0 10.0 0 a5.0 5.0 0 1 0 -10.0 0 "/>
  <text x="611.603472" y="101.711111" fill="#333333" font-size="14.666667" font-family="Arial,Helvetica,'Helvetica Neue',sans-serif">B</text>
  <path stroke-width="1.333333" stroke="#333333" fill="none" d="M961.777778 230.266667 L1352.666667 230.266667 "/>
  <path stroke-width="1.333333" stroke="#333333" fill="none" d="M961.777778 230.266667 L961.777778 224.933333 "/>
  <path stroke-width="1.333333" stroke="#333333" fill="none" d="M1039.955556 230.266667 L1039.955556 224.933333 "/>
  <path stroke-width="1.333333" stroke="#333333" fill="none" d="M1118.133333 230.266667 L1118.133333 224.933333 "/>
  <path stroke-width="1.333333" stroke="#333333" fill="none" d="M1196.311111 230.266667 L1196.311111 224.933333 "/>
  <path stroke-width="1.333333" stroke="#333333" fill="none" d="M1274.488889 230.266667 L1274.488889 224.933333 "/>
  <path stroke-width="1.333333" stroke="#333333" fill="none" d="M1352.666667 230.266667 L1352.666667 224.933333 "/>
  <text x="951.582465" y="256.000000" fill="#333333" font-size="14.666667" font-family="Arial,Helvetica,'Helvetica Neue',sans-serif">0.0</text>
  <text x="1025.682118" y="256.000000" fill="#333333" font-size="14.666667" font-family="Arial,Helvetica,'Helvetica Neue',sans-serif">40.0</text>
  <text x="1103.859896" y="256.000000" fill="#333333" font-size="14.666667" font-family="Arial,Helvetica,'Helvetica Neue',sans-serif">80.0</text>
  <text x="1177.959549" y="256.000000" fill="#333333" font-size="14.666667" font-family="Arial,Helvetica,'Helvetica Neue',sans-serif">120.0</text>
  <text x="1256.137326" y="256.000000" fill="#333333" font-size="14.666667" font-family="Arial,Helvetica,'Helvetica Neue',sans-serif">160.0</text>
  <text x="1334.315104" y="256.000000" fill="#333333" font-size="14.666667" font-family="Arial,Helvetica,'Helvetica Neue',sans-serif">200.0</text>
  <path stroke-width="1.333333" stroke="#333333" fill="none" d="M1352.666667 68.844444 L1352.666667 230.266667 "/>
  <path stroke-width="1.333333" stroke="#333333" fill="none" d="M1352.666667 230.266667 L1347.333333 230.266667 "/>
  <path stroke-width="1.333333" stroke="#333333" fill="none" d="M1352.666667 201.44127 L1347.333333 201.44127 "/>
  <path stroke-width="1.333333" stroke="#333333" fill="none" d="M1352.666667 172.615873 L1347.333333 172.615873 "/>
  <path stroke-width="1.333333" stroke="#333333" fill="none" d="M1352.666667 143.790476 L1347.333333 143.790476 "/>
  <path stroke-width="1.333333" stroke="#333333" fill="none" d="M1352.666667 114.965079 L1347.333333 114.965079 "/>
  <path stroke-width="1.333333" stroke="#333333" fill="none" d="M1352.666667 86.139683 L1347.333333 86.139683 "/>
  <text x="1364.400000" y="235.266667" fill="#333333" font-size="14.666667" font-family="Arial,Helvetica,'Helvetica Neue',sans-serif">0.0</text>
  <text x="1364.400000" y="206.441270" fill="#333333" font-size="14.666667" font-family="Arial,Helvetica,'Helvetica Neue',sans-serif">50.0</text>
  <text x="1364.400000" y="177.615873" fill="#333333" font-size="14.666667" font-family="Arial,Helvetica,'Helvetica Neue',sans-serif">100.0</text>
  <text x="1364.400000" y="148.790476" fill="#333333" font-size="14.666667" font-family="Arial,Helvetica,'Helvetica Neue',sans-serif">150.0</text>
  <text x="1364.400000" y="119.965079" fill="#333333" font-size="14.666667" font-family="Arial,Helvetica,'Helvetica Neue',sans-serif">200.0</text>
  <text x="1364.400000" y="91.139683" fill="#333333" font-size="14.666667" font-family="Arial,Helvetica,'Helvetica Neue',sans-serif">250.0</text>
  <path stroke-width="1.333333" stroke="#333333" fill="none" d="M961.777778 68.844444 L1352.666667 68.844444 "/>
  <path stroke-width="1.333333" stroke="#333333" fill="none" d="M961.777778 68.844444 L961.777778 74.177778 "/>
  <path stroke-width="1.333333" stroke="#333333" fill="none" d="M1017.61905 68.844444 L1017.61905 74.177778 "/>
  <path stroke-width="1.333333" stroke="#333333" fill="none" d="M1073.460322 68.844444 L1073.460322 74.177778 "/>
  <path stroke-width="1.333333" stroke="#333333" fill="none" d="M1129.301601 68.844444 L1129.301601 74.177778 "/>
  <path stroke-width="1.333333" stroke="#333333" fill="none" d="M1185.142867 68.844444 L1185.142867 74.177778 "/>
  <path stroke-width="1.333333" stroke="#333333" fill="none" d="M1240.984134 68.844444 L1240.984134 74.177778 "/>
  <path stroke-width="1.333333" stroke="#333333" fill="none" d="M1296.825423 68.844444 L1296.825423 74.177778 "/>
  <path stroke-width="1.333333" stroke="#333333" fill="none" d="M1352.666667 68.844444 L1352.666667 74.177778 "/>
  <text x="951.582465" y="53.111111" fill="#333333" font-size="14.666667" font-family="Arial,Helvetica,'Helvetica Neue',sans-serif">0.0</text>
  <text x="1003.345613" y="53.111111" fill="#333333" font-size="14.666667" font-family="Arial,Helvetica,'Helvetica Neue',sans-serif">28.6</text>
  <text x="1059.186885" y="53.111111" fill="#333333" font-size="14.666667" font-family="Arial,Helvetica,'Helvetica Neue',sans-serif">57.1</text>
  <text x="1115.028163" y="53.111111" fill="#333333" font-size="14.666667" font-family="Arial,Helvetica,'Helvetica Neue',sans-serif">85.7</text>
  <text x="1167.338180" y="53.111111" fill="#333333" font-size="14.666667" font-family="Arial,Helvetica,'Helvetica Neue',sans-serif">114.3</text>
  <text x="1222.632571" y="53.111111" fill="#333333" font-size="14.666667" font-family="Arial,Helvetica,'Helvetica Neue',sans-serif">142.9</text>
  <text x="1278.473861" y="53.111111" fill="#333333" font-size="14.666667" font-family="Arial,Helvetica,'Helvetica Neue',sans-serif">171.4</text>
  <text x="1334.315104" y="53.111111" fill="#333333" font-size="14.666667" font-family="Arial,Helvetica,'Helvetica Neue',sans-serif">200.0</text>
  <path fill="#4572a7" d="M983.988889 184.146032 M978.655556 184.146032 a2.666667 2.666667 0 1 0 5.333333 0 a2.666667 2.666667 0 1 0 -5.333333 0 "/>
  <path fill="#aa4643" d="M1091.044444 143.790476 M1067.044444 143.790476 a12.0 12.0 0 1 0 24.0 0 a12.0 12.0 0 1 0 -24.0 0 "/>
  <path fill="#4572a7" d="M1278.488889 126.495238 M1270.488889 126.495238 a4.0 4.0 0 1 0 8.0 0 a4.0 4.0 0 1 0 -8.0 0 "/>
  <path fill="#aa4643" d="M1223.855556 201.44127 M1207.855556 201.44127 a8.0 8.0 0 1 0 16.0 0 a8.0 8.0 0 1 0 -16.0 0 "/>
  <path fill="#4572a7" d="M1260.277778 184.146032 M1249.611111 184.146032 a5.333333 5.333333 0 1 0 10.666667 0 a5.333333 5.333333 0 1 0 -10.666667 0 "/>
  <path fill="#aa4643" d="M1024.411111 172.615873 M1016.411111 172.615873 a4.0 4.0 0 1 0 8.0 0 a4.0 4.0 0 1 0 -8.0 0 "/>
  <path fill="#4572a7" d="M1189.205556 120.730159 M1183.872222 120.730159 a2.666667 2.666667 0 1 0 5.333333 0 a2.666667 2.666667 0 1 0 -5.333333 0 "/>
  <path fill="#4572a7" d="M995.677778 96.711111 M985.677778 96.711111 a5.0 5.0 0 1 0 10.0 0 a5.0 5.0 0 1 0 -10.0 0 "/>
  <text x="1002.177778" y="101.711111" fill="#333333" font-size="14.666667" font-family="Arial,Helvetica,'Helvetica Neue',sans-serif">A</text>
  <path fill="#aa4643" d="M1054.659028 96.711111 M1044.659028 96.711111 a5.0 5.0 0 1 0 10.0 0 a5.0 5.0 0 1 0 -10.0 0 "/>
  <text x="1061.159028" y="101.711111" fill="#333333" font-size="14.666667" font-family="Arial,Helvetica,'Helvetica Neue',sans-serif">B</text>
  <path stroke-width="1.333333" stroke="#333333" fill="none" d="M946.333333 628.933333 L1366.555556 628.933333 "/>
  <path stroke-width="1.333333" stroke="#333333" fill="none" d="M976.349206 628.933333 L976.349206 623.6 "/>
  <path stroke-width="1.333333" stroke="#333333" fill="none" d="M1036.380952 628.933333 L1036.380952 623.6 "/>
  <path stroke-width="1.333333" stroke="#333333" fill="none" d="M1096.412698 628.933333 L1096.412698 623.6 "/>
  <path stroke-width="1.333333" stroke="#333333" fill="none" d="M1156.444444 628.933333 L1156.444444 623.6 "/>
  <path stroke-width="1.333333" stroke="#333333" fill="none" d="M1216.47619 628.933333 L1216.47619 623.6 "/>
  <path stroke-width="1.333333" stroke="#333333" fill="none" d="M1276.507937 628.933333 L1276.507937 623.6 "/>
  <path stroke-width="1.333333" stroke="#333333" fill="none" d="M1336.539683 628.933333 L1336.539683 623.6 "/>
  <text x="963.708581" y="654.666667" fill="#333333" font-size="14.666667" font-family="Arial,Helvetica,'Helvetica Neue',sans-serif">-3.0</text>
  <text x="1023.740327" y="654.666667" fill="#333333" font-size="14.666667" font-family="Arial,Helvetica,'Helvetica Neue',sans-serif">-2.0</text>
  <text x="1083.772073" y="654.666667" fill="#333333" font-size="14.666667" font-family="Arial,Helvetica,'Helvetica Neue',sans-serif">-1.0</text>
  <text x="1146.249132" y="654.666667" fill="#333333" font-size="14.666667" font-family="Arial,Helvetica,'Helvetica Neue',sans-serif">0.0</text>
  <text x="1206.280878" y="654.666667" fill="#333333" font-size="14.666667" font-family="Arial,Helvetica,'Helvetica Neue',sans-serif">1.0</text>
  <text x="1266.312624" y="654.666667" fill="#333333" font-size="14.666667" font-family="Arial,Helvetica,'Helvetica Neue',sans-serif">2.0</text>
  <text x="1326.344370" y="654.666667" fill="#333333" font-size="14.666667" font-family="Arial,Helvetica,'Helvetica Neue',sans-serif">3.0</text>
  <path stroke-width="1.333333" stroke="#333333" fill="none" d="M1366.555556 348.4 L1366.555556 628.933333 "/>
  <path stroke-width="1.333333" stroke="#333333" fill="none" d="M1366.555556 628.933333 L1361.222222 628.933333 "/>
  <path stroke-width="1.333333" stroke="#333333" fill="none" d="M1366.555556 577.927273 L1361.222222 577.927273 "/>
  <path stroke-width="1.333333" stroke="#333333" fill="none" d="M1366.555556 526.921212 L1361.222222 526.921212 "/>
  <path stroke-width="1.333333" stroke="#333333" fill="none" d="M1366.555556 475.915152 L1361.222222 475.915152 "/>
  <path stroke-width="1.333333" stroke="#333333" fill="none" d="M1366.555556 424.909091 L1361.222222 424.909091 "/>
  <path stroke-width="1.333333" stroke="#333333" fill="none" d="M1366.555556 373.90303 L1361.222222 373.90303 "/>
  <text x="1378.288889" y="633.933333" fill="#333333" font-size="14.666667" font-family="Arial,Helvetica,'Helvetica Neue',sans-serif">0.0</text>
  <text x="1378.288889" y="582.927273" fill="#333333" font-size="14.666667" font-family="Arial,Helvetica,'Helvetica Neue',sans-serif">10.0</text>
  <text x="1378.288889" y="531.921212" fill="#333333" font-size="14.666667" font-family="Arial,Helvetica,'Helvetica Neue',sans-serif">20.0</text>
  <text x="1378.288889" y="480.915152" fill="#333333" font-size="14.666667" font-family="Arial,Helvetica,'Helvetica Neue',sans-serif">30.0</text>
  <text x="1378.288889" y="429.909091" fill="#333333" font-size="14.666667" font-family="Arial,Helvetica,'Helvetica Neue',sans-serif">40.0</text>
  <text x="1378.288889" y="378.903030" fill="#333333" font-size="14.666667" font-family="Arial,Helvetica,'Helvetica Neue',sans-serif">50.0</text>
  <path stroke-width="1.333333" stroke="#333333" fill="none" d="M946.333333 348.4 L1366.555556 348.4 "/>
  <path stroke-width="1.333333" stroke="#333333" fill="none" d="M946.333333 348.4 L946.333333 353.733333 "/>
  <path stroke-width="1.333333" stroke="#333333" fill="none" d="M1006.365082 348.4 L1006.365082 353.733333 "/>
  <path stroke-width="1.333333" stroke="#333333" fill="none" d="M1066.396831 348.4 L1066.396831 353.733333 "/>
  <path stroke-width="1.333333" stroke="#333333" fill="none" d="M1126.428586 348.4 L1126.428586 353.733333 "/>
  <path stroke-width="1.333333" stroke="#333333" fill="none" d="M1186.460328 348.4 L1186.460328 353.733333 "/>
  <path stroke-width="1.333333" stroke="#333333" fill="none" d="M1246.492071 348.4 L1246.492071 353.733333 "/>
  <path stroke-width="1.333333" stroke="#333333" fill="none" d="M1306.523838 348.4 L1306.523838 353.733333 "/>
  <path stroke-width="1.333333" stroke="#333333" fill="none" d="M1366.555556 348.4 L1366.555556 353.733333 "/>
  <text x="933.692708" y="332.666667" fill="#333333" font-size="14.666667" font-family="Arial,Helvetica,'Helvetica Neue',sans-serif">-3.5</text>
  <text x="993.724457" y="332.666667" fill="#333333" font-size="14.666667" font-family="Arial,Helvetica,'Helvetica Neue',sans-serif">-2.5</text>
  <text x="1053.756206" y="332.666667" fill="#333333" font-size="14.666667" font-family="Arial,Helvetica,'Helvetica Neue',sans-serif">-1.5</text>
  <text x="1113.787961" y="332.666667" fill="#333333" font-size="14.666667" font-family="Arial,Helvetica,'Helvetica Neue',sans-serif">-0.5</text>
  <text x="1176.265016" y="332.666667" fill="#333333" font-size="14.666667" font-family="Arial,Helvetica,'Helvetica Neue',sans-serif">0.5</text>
  <text x="1236.296758" y="332.666667" fill="#333333" font-size="14.666667" font-family="Arial,Helvetica,'Helvetica Neue',sans-serif">1.5</text>
  <text x="1296.328526" y="332.666667" fill="#333333" font-size="14.666667" font-family="Arial,Helvetica,'Helvetica Neue',sans-serif">2.5</text>
  <text x="1356.360243" y="332.666667" fill="#333333" font-size="14.666667" font-family="Arial,Helvetica,'Helvetica Neue',sans-serif">3.5</text>
  <path fill="#4572a7" d="M978.48254 628.933333 L978.48254 577.927273 L990.215873 577.927273 L990.215873 628.933333 "/>
  <path fill="#4572a7" d="M1038.514286 628.933333 L1038.514286 486.116364 L1050.247619 486.116364 L1050.247619 628.933333 "/>
  <path fill="#4572a7" d="M1098.546032 628.933333 L1098.546032 526.921212 L1110.279365 526.921212 L1110.279365 628.933333 "/>
  <path fill="#4572a7" d="M1158.577778 628.933333 L1158.577778 496.317576 L1170.311111 496.317576 L1170.311111 628.933333 "/>
  <path fill="#4572a7" d="M1218.609524 628.933333 L1218.609524 419.808485 L1230.342857 419.808485 L1230.342857 628.933333 "/>
  <path fill="#4572a7" d="M1278.64127 628.933333 L1278.64127 404.506667 L1290.374603 404.506667 L1290.374603 628.933333 "/>
  <path fill="#4572a7" d="M1338.673016 628.933333 L1338.673016 440.210909 L1350.406349 440.210909 L1350.406349 628.933333 "/>
  <path fill="#aa4643" d="M962.48254 628.933333 L962.48254 567.726061 L974.215873 567.726061 L974.215873 628.933333 "/>
  <path fill="#aa4643" d="M1022.514286 628.933333 L1022.514286 532.021818 L1034.247619 532.021818 L1034.247619 628.933333 "/>
  <path fill="#aa4643" d="M1082.546032 628.933333 L1082.546032 511.619394 L1094.279365 511.619394 L1094.279365 628.933333 "/>
  <path fill="#aa4643" d="M1142.577778 628.933333 L1142.577778 475.915152 L1154.311111 475.915152 L1154.311111 628.933333 "/>
  <path fill="#aa4643" d="M1202.609524 628.933333 L1202.609524 450.412121 L1214.342857 450.412121 L1214.342857 628.933333 "/>
  <path fill="#aa4643" d="M1262.64127 628.933333 L1262.64127 409.607273 L1274.374603 409.607273 L1274.374603 628.933333 "/>
  <path fill="#aa4643" d="M1322.673016 628.933333 L1322.673016 460.613333 L1334.406349 460.613333 L1334.406349 628.933333 "/>
  <path fill="#4572a7" d="M980.233333 376.266667 M970.233333 376.266667 a5.0 5.0 0 1 0 10.0 0 a5.0 5.0 0 1 0 -10.0 0 "/>
  <text x="986.733333" y="381.266667" fill="#333333" font-size="14.666667" font-family="Arial,Helvetica,'Helvetica Neue',sans-serif">A</text>
  <path fill="#aa4643" d="M1039.214583 376.266667 M1029.214583 376.266667 a5.0 5.0 0 1 0 10.0 0 a5.0 5.0 0 1 0 -10.0 0 "/>
  <text x="1045.714583" y="381.266667" fill="#333333" font-size="14.666667" font-family="Arial,Helvetica,'Helvetica Neue',sans-serif">B</text>
  <path stroke-width="1.333333" stroke="#333333" fill="none" d="M62.666667 348.666667 L62.666667 429.111111 "/>
  <path stroke-width="1.333333" stroke="#333333" fill="none" d="M62.666667 415.703704 L68.0 415.703704 "/>
  <path stroke-width="1.333333" stroke="#333333" fill="none" d="M62.666667 388.888889 L68.0 388.888889 "/>
  <path stroke-width="1.333333" stroke="#333333" fill="none" d="M62.666667 362.074074 L68.0 362.074074 "/>
  <text x="25.652083" y="420.703704" fill="#333333" font-size="14.666667" font-family="Arial,Helvetica,'Helvetica Neue',sans-serif">-1.0</text>
  <text x="42.777083" y="393.888889" fill="#333333" font-size="14.666667" font-family="Arial,Helvetica,'Helvetica Neue',sans-serif">0</text>
  <text x="30.542708" y="367.074074" fill="#333333" font-size="14.666667" font-family="Arial,Helvetica,'Helvetica Neue',sans-serif">1.0</text>
  <path stroke-width="1.333333" stroke="#333333" fill="none" d="M62.666667 348.666667 L902.666667 348.666667 "/>
  <path stroke-width="1.333333" stroke="#333333" fill="none" d="M62.666667 348.666667 L62.666667 354.0 "/>
  <path stroke-width="1.333333" stroke="#333333" fill="none" d="M182.666672 348.666667 L182.666672 354.0 "/>
  <path stroke-width="1.333333" stroke="#333333" fill="none" d="M302.666677 348.666667 L302.666677 354.0 "/>
  <path stroke-width="1.333333" stroke="#333333" fill="none" d="M422.666695 348.666667 L422.666695 354.0 "/>
  <path stroke-width="1.333333" stroke="#333333" fill="none" d="M542.666688 348.666667 L542.666688 354.0 "/>
  <path stroke-width="1.333333" stroke="#333333" fill="none" d="M662.666681 348.666667 L662.666681 354.0 "/>
  <path stroke-width="1.333333" stroke="#333333" fill="none" d="M782.666724 348.666667 L782.666724 354.0 "/>
  <path stroke-width="1.333333" stroke="#333333" fill="none" d="M902.666667 348.666667 L902.666667 354.0 "/>
  <text x="34.119792" y="332.933333" fill="#333333" font-size="14.666667" font-family="Arial,Helvetica,'Helvetica Neue',sans-serif">00:00:00</text>
  <text x="154.119797" y="332.933333" fill="#333333" font-size="14.666667" font-family="Arial,Helvetica,'Helvetica Neue',sans-serif">00:19:00</text>
  <text x="274.119802" y="332.933333" fill="#333333" font-size="14.666667" font-family="Arial,Helvetica,'Helvetica Neue',sans-serif">00:38:00</text>
  <text x="394.119820" y="332.933333" fill="#333333" font-size="14.666667" font-family="Arial,Helvetica,'Helvetica Neue',sans-serif">00:57:00</text>
  <text x="514.119813" y="332.933333" fill="#333333" font-size="14.666667" font-family="Arial,Helvetica,'Helvetica Neue',sans-serif">01:16:00</text>
  <text x="634.119806" y="332.933333" fill="#333333" font-size="14.666667" font-family="Arial,Helvetica,'Helvetica Neue',sans-serif">01:35:00</text>
  <text x="754.119849" y="332.933333" fill="#333333" font-size="14.666667" font-family="Arial,Helvetica,'Helvetica Neue',sans-serif">01:54:00</text>
  <text x="874.119792" y="332.933333" fill="#333333" font-size="14.666667" font-family="Arial,Helvetica,'Helvetica Neue',sans-serif">02:13:00</text>
  <path stroke-width="2.000000" stroke="#4572a7" fill="none" d="M62.666667 408.044445 L64.77193 396.182267 L66.877193 396.769362 L68.982456 395.776366 L71.087719 398.397067 L73.192982 398.593768 L75.298246 397.825413 L77.403509 406.35697 L79.508772 401.91514 L81.614035 407.79106 L83.719298 398.72795 L85.824561 404.397 L87.929825 404.253257 L90.035088 399.110519 L92.140351 403.690124 L94.245614 406.422541 L96.350877 402.652717 L98.45614 398.022853 L100.561404 407.409833 L102.666667 404.851335 L104.77193 400.279069 L106.877193 402.664247 L108.982456 403.3812 L111.087719 401.471108 L113.192982 400.891568 L115.298246 397.407639 L117.403509 402.07622 L119.508772 399.190243 L121.614035 396.058482 L123.719298 406.951447 L125.824561 400.204769 L127.929825 403.685217 L130.035088 397.759925 L132.140351 400.333516 L134.245614 398.208698 L136.350877 395.89811 L138.45614 400.265645 L140.561404 397.695211 L142.666667 402.319997 L144.77193 402.83181 L146.877193 402.300368 L148.982456 398.944739 L151.087719 396.7756 L153.192982 405.446016 L155.298246 403.318028 L157.403509 406.78235 L159.508772 403.855175 L161.614035 399.794237 L163.719298 405.710358 L165.824561 398.686375 L167.929825 400.764513 L170.035088 403.700677 L172.140351 401.073346 L174.245614 401.395201 L176.350877 401.039139 L178.45614 404.395786 L180.561404 403.352786 L182.666667 399.146345 L184.77193 405.126667 L186.877193 397.349392 L188.982456 407.599955 L191.087719 399.856438 L193.192982 403.189229 L195.298246 396.647037 L197.403509 402.389319 L199.508772 402.401356 L201.614035 398.517004 L203.719298 406.425853 L205.824561 397.648637 L207.929825 397.52686 L210.035088 403.372311 L212.140351 401.517759 L214.245614 401.512906 L216.350877 406.670871 L218.45614 399.173577 L220.561404 407.436867 L222.666667 405.231496 L224.77193 404.237803 L226.877193 396.100574 L228.982456 404.166158 L231.087719 405.274604 L233.192982 398.101564 L235.298246 396.676039 L237.403509 404.047178 L239.508772 400.66645 L241.614035 403.734186 L243.719298 403.395074 L245.824561 401.279305 L247.929825 407.966301 L250.035088 400.750698 L252.140351 405.681275 L254.245614 408.51381 L256.350877 400.594234 L258.45614 408.087953 L260.561404 404.969453 L262.666667 405.075718 L264.77193 398.313469 L266.877193 403.733887 L268.982456 405.959047 L271.087719 398.350023 L273.192982 406.284897 L275.298246 400.974139 L277.403509 404.865908 L279.508772 406.988496 L281.614035 395.867643 L283.719298 400.971411 L285.824561 398.991975 L287.929825 400.516138 L290.035088 395.876919 L292.140351 397.955527 L294.245614 405.428227 L296.350877 406.028772 L298.45614 408.294466 L300.561404 404.202706 L302.666667 395.978114 L304.77193 401.847638 L306.877193 403.790431 L308.982456 407.368323 L311.087719 405.722786 L313.192982 407.931197 L315.298246 396.199232 L317.403509 404.952462 L319.508772 398.273483 L321.614035 404.205081 L323.719298 404.429694 L325.824561 397.766158 L327.929825 402.487796 L330.035088 406.795999 L332.140351 397.37835 L334.245614 406.253745 L336.350877 405.571212 L338.45614 399.281361 L340.561404 401.073803 L342.666667 395.692394 L344.77193 407.389986 L346.877193 401.582446 L348.982456 400.908235 L351.087719 398.608166 L353.192982 405.138348 L355.298246 400.534544 L357.403509 397.780154 L359.508772 405.658536 L361.614035 400.999068 L363.719298 398.810288 L365.824561 396.092344 L367.929825 395.721088 L370.035088 407.804905 L372.140351 407.81266 L374.245614 406.553448 L376.350877 407.633095 L378.45614 406.972283 L380.561404 402.651918 L382.666667 408.798313 L384.77193 403.100093 L386.877193 399.431822 L388.982456 407.12165 L391.087719 405.939249 L393.192982 398.319191 L395.298246 403.208965 L397.403509 408.674041 L399.508772 396.97992 L401.614035 407.191694 L403.719298 403.700923 L405.824561 404.369664 L407.929825 403.31164 L410.035088 397.423913 L412.140351 404.763274 L414.245614 400.175975 L416.350877 402.169469 L418.45614 408.287059 L420.561404 403.909097 L422.666667 395.661843 L424.77193 408.107556 L426.877193 401.785163 L428.982456 407.578688 L431.087719 403.404105 L433.192982 398.075058 L435.298246 403.20337 L437.403509 397.768833 L439.508772 407.00337 L441.614035 408.678606 L443.719298 405.280337 L445.824561 399.78056 L447.929825 395.889155 L450.035088 401.340873 L452.140351 399.684481 L454.245614 404.898408 L456.350877 399.128983 L458.45614 402.30856 L460.561404 399.331409 L462.666667 400.403508 L464.77193 408.436402 L466.877193 398.349386 L468.982456 395.617484 L471.087719 397.159352 L473.192982 396.68515 L475.298246 396.05874 L477.403509 408.861676 L479.508772 402.404819 L481.614035 406.476784 L483.719298 398.597343 L485.824561 397.330074 L487.929825 398.062225 L490.035088 397.065776 L492.140351 406.083508 L494.245614 396.478831 L496.350877 396.91781 L498.45614 399.543928 L500.561404 406.319534 L502.666667 405.599288 L504.77193 406.412828 L506.877193 398.815662 L508.982456 408.440854 L511.087719 406.137952 L513.192982 398.752791 L515.298246 403.592757 L517.403509 405.527364 L519.508772 406.484357 L521.614035 406.692362 L523.719298 401.617529 L525.824561 406.584652 L527.929825 408.12272 L530.035088 400.947009 L532.140351 397.332143 L534.245614 402.461644 L536.350877 397.60251 L538.45614 404.620872 L540.561404 404.521934 L542.666667 395.654025 L544.77193 400.760887 L546.877193 405.990428 L548.982456 399.286441 L551.087719 401.159681 L553.192982 407.952984 L555.298246 406.725287 L557.403509 400.259538 L559.508772 407.358271 L561.614035 403.026383 L563.719298 401.742776 L565.824561 406.107473 L567.929825 396.562096 L570.035088 396.923721 L572.140351 408.79396 L574.245614 406.560592 L576.350877 403.708584 L578.45614 395.763296 L580.561404 398.794813 L582.666667 407.404379 L584.77193 395.850382 L586.877193 399.71054 L588.982456 403.478373 L591.087719 399.691913 L593.192982 399.395588 L595.298246 398.232305 L597.403509 408.692134 L599.508772 396.073255 L601.614035 403.947966 L603.719298 402.690433 L605.824561 402.032332 L607.929825 396.457039 L610.035088 398.366976 L612.140351 404.698803 L614.245614 396.975618 L616.350877 401.428008 L618.45614 395.632017 L620.561404 405.225567 L622.666667 403.333144 L624.77193 399.028119 L626.877193 403.23902 L628.982456 407.999643 L631.087719 406.081267 L633.192982 406.512078 L635.298246 398.05924 L637.403509 405.190996 L639.508772 404.795706 L641.614035 401.280959 L643.719298 406.189418 L645.824561 396.550215 L647.929825 400.792428 L650.035088 396.039858 L652.140351 400.417168 L654.245614 404.861684 L656.350877 397.723616 L658.45614 400.697442 L660.561404 401.057745 L662.666667 401.747391 L664.77193 404.886879 L666.877193 403.720729 L668.982456 404.17599 L671.087719 398.701829 L673.192982 400.32986 L675.298246 397.384776 L677.403509 397.658497 L679.508772 395.679481 L681.614035 398.277958 L683.719298 407.485801 L685.824561 399.747129 L687.929825 397.283 L690.035088 399.509534 L692.140351 406.627828 L694.245614 397.117671 L696.350877 405.800207 L698.45614 399.42601 L700.561404 400.732812 L702.666667 397.022282 L704.77193 398.801549 L706.877193 400.679633 L708.982456 398.036284 L711.087719 402.52348 L713.192982 406.054397 L715.298246 407.55211 L717.403509 398.98645 L719.508772 408.899754 L721.614035 398.844699 L723.719298 402.363244 L725.824561 399.540653 L727.929825 403.49989 L730.035088 395.999189 L732.140351 403.69204 L734.245614 400.83166 L736.350877 396.084933 L738.45614 398.500184 L740.561404 400.453429 L742.666667 401.609969 L744.77193 405.310898 L746.877193 402.201816 L748.982456 408.485632 L751.087719 399.039089 L753.192982 397.052214 L755.298246 395.641448 L757.403509 406.643053 L759.508772 404.513344 L761.614035 406.582703 L763.719298 400.541837 L765.824561 401.495161 L767.929825 396.154846 L770.035088 395.894998 L772.140351 395.796226 L774.245614 405.381087 L776.350877 404.971553 L778.45614 399.480411 L780.561404 403.274406 L782.666667 399.091703 L784.77193 404.697849 L786.877193 407.362133 L788.982456 396.081956 L791.087719 407.950744 L793.192982 404.098712 L795.298246 402.971264 L797.403509 407.270635 L799.508772 403.485217 L801.614035 396.122284 L803.719298 397.672471 L805.824561 408.656233 L807.929825 408.702156 L810.035088 401.172826 L812.140351 400.574844 L814.245614 402.272441 L816.350877 398.831922 L818.45614 395.672 L820.561404 395.914262 L822.666667 403.357531 L824.77193 406.377143 L826.877193 408.331757 L828.982456 406.747069 L831.087719 399.848409 L833.192982 399.12045 L835.298246 395.683001 L837.403509 397.890798 L839.508772 407.392628 L841.614035 407.727637 L843.719298 401.35955 L845.824561 402.821549 L847.929825 404.463657 L850.035088 406.390465 L852.140351 396.930749 L854.245614 405.524786 L856.350877 399.828674 L858.45614 398.496391 L860.561404 400.371748 L862.666667 404.759504 L864.77193 398.435342 L866.877193 396.83062 L868.982456 397.176913 L871.087719 396.631262 L873.192982 406.482876 L875.298246 396.090027 L877.403509 397.448795 L879.508772 396.094919 L881.614035 402.380014 L883.719298 400.336203 L885.824561 400.2738 L887.929825 400.861237 L890.035088 396.462006 L892.140351 405.603929 L894.245614 405.907572 L896.350877 400.962128 L898.45614 404.66469 L900.561404 400.925537 L902.666667 408.796869 "/>
  <path fill="#4572a7" d="M96.566667 376.533333 M86.566667 376.533333 a5.0 5.0 0 1 0 10.0 0 a5.0 5.0 0 1 0 -10.0 0 "/>
  <text x="103.066667" y="381.533333" fill="#333333" font-size="14.666667" font-family="Arial,Helvetica,'Helvetica Neue',sans-serif">Channel 1</text>
  <path stroke-width="1.333333" stroke="#333333" fill="none" d="M62.666667 448.666667 L62.666667 529.111111 "/>
  <path stroke-width="1.333333" stroke="#333333" fill="none" d="M62.666667 515.703704 L68.0 515.703704 "/>
  <path stroke-width="1.333333" stroke="#333333" fill="none" d="M62.666667 488.888889 L68.0 488.888889 "/>
  <path stroke-width="1.333333" stroke="#333333" fill="none" d="M62.666667 462.074074 L68.0 462.074074 "/>
  <text x="25.652083" y="520.703704" fill="#333333" font-size="14.666667" font-family="Arial,Helvetica,'Helvetica Neue',sans-serif">-1.0</text>
  <text x="42.777083" y="493.888889" fill="#333333" font-size="14.666667" font-family="Arial,Helvetica,'Helvetica Neue',sans-serif">0</text>
  <text x="30.542708" y="467.074074" fill="#333333" font-size="14.666667" font-family="Arial,Helvetica,'Helvetica Neue',sans-serif">1.0</text>
  <path stroke-width="2.000000" stroke="#aa4643" fill="none" d="M62.666667 498.609743 L64.77193 496.587383 L66.877193 500.326173 L68.982456 505.87762 L71.087719 501.749578 L73.192982 497.425293 L75.298246 497.922944 L77.403509 504.943937 L79.508772 507.744362 L81.614035 501.433851 L83.719298 502.157416 L85.824561 498.694632 L87.929825 501.972454 L90.035088 507.912165 L92.140351 501.356248 L94.245614 506.506915 L96.350877 499.473802 L98.45614 500.605139 L100.561404 498.88086 L102.666667 497.880191 L104.77193 498.12195 L106.877193 496.91939 L108.982456 507.577269 L111.087719 506.465396 L113.192982 503.065747 L115.298246 502.040746 L117.403509 508.390776 L119.508772 500.1274 L121.614035 508.793705 L123.719298 503.55594 L125.824561 499.446929 L127.929825 505.331428 L130.035088 500.623082 L132.140351 498.534539 L134.245614 503.382259 L136.350877 504.321465 L138.45614 506.15781 L140.561404 506.766168 L142.666667 497.634498 L144.77193 504.276702 L146.877193 496.793404 L148.982456 506.580348 L151.087719 502.660713 L153.192982 504.107679 L155.298246 500.625497 L157.403509 504.006446 L159.508772 508.793841 L161.614035 496.084668 L163.719298 498.502062 L165.824561 501.815646 L167.929825 495.685785 L170.035088 503.754157 L172.140351 500.239981 L174.245614 503.046411 L176.350877 503.431084 L178.45614 505.32991 L180.561404 500.601252 L182.666667 503.489996 L184.77193 508.545339 L186.877193 502.629483 L188.982456 507.908123 L191.087719 495.83613 L193.192982 507.702759 L195.298246 507.357768 L197.403509 501.349529 L199.508772 498.929882 L201.614035 501.825575 L203.719298 508.578632 L205.824561 499.868156 L207.929825 505.817967 L210.035088 502.855333 L212.140351 498.497278 L214.245614 498.974402 L216.350877 508.365664 L218.45614 505.825263 L220.561404 495.841101 L222.666667 506.063748 L224.77193 503.170267 L226.877193 498.86031 L228.982456 495.669896 L231.087719 498.41046 L233.192982 497.805475 L235.298246 502.907272 L237.403509 506.356861 L239.508772 507.2201 L241.614035 500.759586 L243.719298 504.1572 L245.824561 508.837883 L247.929825 506.990208 L250.035088 502.310676 L252.140351 508.443232 L254.245614 502.614293 L256.350877 504.403276 L258.45614 498.842709 L260.561404 497.772513 L262.666667 508.080521 L264.77193 505.699538 L266.877193 508.134264 L268.982456 496.961373 L271.087719 508.943092 L273.192982 507.856314 L275.298246 508.135609 L277.403509 506.337265 L279.508772 497.600647 L281.614035 502.399976 L283.719298 496.028992 L285.824561 505.339364 L287.929825 507.51666 L290.035088 500.979209 L292.140351 504.354384 L294.245614 496.582916 L296.350877 504.33569 L298.45614 495.881486 L300.561404 505.433409 L302.666667 498.542299 L304.77193 495.98571 L306.877193 504.988426 L308.982456 503.029778 L311.087719 506.088538 L313.192982 502.478731 L315.298246 499.091704 L317.403509 508.746522 L319.508772 508.574801 L321.614035 504.733259 L323.719298 496.514617 L325.824561 496.268324 L327.929825 500.57912 L330.035088 501.316514 L332.140351 498.331464 L334.245614 496.257 L336.350877 497.430229 L338.45614 501.40023 L340.561404 495.779117 L342.666667 503.006721 L344.77193 505.851702 L346.877193 503.5893 L348.982456 498.446986 L351.087719 503.147374 L353.192982 504.732631 L355.298246 499.564767 L357.403509 503.89327 L359.508772 495.748 L361.614035 503.253156 L363.719298 506.647298 L365.824561 506.71217 L367.929825 505.739848 L370.035088 497.714844 L372.140351 505.861399 L374.245614 496.790925 L376.350877 498.400065 L378.45614 500.239311 L380.561404 506.611238 L382.666667 498.318749 L384.77193 498.244937 L386.877193 504.589263 L388.982456 497.484109 L391.087719 503.481953 L393.192982 504.071006 L395.298246 496.612539 L397.403509 503.537885 L399.508772 495.799981 L401.614035 507.968851 L403.719298 505.832043 L405.824561 503.364848 L407.929825 497.042972 L410.035088 500.918688 L412.140351 505.433673 L414.245614 501.818616 L416.350877 498.045031 L418.45614 499.566613 L420.561404 502.567702 L422.666667 508.95413 L424.77193 508.59478 L426.877193 507.955456 L428.982456 507.199302 L431.087719 507.938313 L433.192982 507.802525 L435.298246 497.722298 L437.403509 502.00092 L439.508772 499.496296 L441.614035 506.651172 L443.719298 506.283112 L445.824561 498.879862 L447.929825 499.096115 L450.035088 508.141239 L452.140351 504.523893 L454.245614 503.043543 L456.350877 500.260489 L458.45614 504.4348 L460.561404 503.568484 L462.666667 498.708802 L464.77193 497.731592 L466.877193 505.215021 L468.982456 503.352663 L471.087719 501.785402 L473.192982 497.739094 L475.298246 504.182269 L477.403509 503.031842 L479.508772 502.177653 L481.614035 507.335998 L483.719298 503.599311 L485.824561 495.930219 L487.929825 496.853793 L490.035088 506.801562 L492.140351 505.823826 L494.245614 500.689619 L496.350877 499.513775 L498.45614 499.510692 L500.561404 501.762821 L502.666667 503.109662 L504.77193 508.579841 L506.877193 503.379572 L508.982456 497.233138 L511.087719 504.142707 L513.192982 499.940397 L515.298246 503.374222 L517.403509 500.907363 L519.508772 506.317291 L521.614035 506.381944 L523.719298 502.80527 L525.824561 496.872682 L527.929825 501.700178 L530.035088 496.994431 L532.140351 503.055968 L534.245614 504.041459 L536.350877 499.358847 L538.45614 500.245439 L540.561404 508.931504 L542.666667 505.606901 L544.77193 496.204868 L546.877193 500.685189 L548.982456 497.05643 L551.087719 505.769891 L553.192982 506.173129 L555.298246 499.173283 L557.403509 501.176068 L559.508772 500.390917 L561.614035 504.363769 L563.719298 495.990321 L565.824561 501.875881 L567.929825 504.192827 L570.035088 507.687558 L572.140351 495.760696 L574.245614 507.505411 L576.350877 507.82805 L578.45614 499.72342 L580.561404 496.148087 L582.666667 499.072955 L584.77193 502.187234 L586.877193 502.308796 L588.982456 508.988703 L591.087719 507.557975 L593.192982 500.764236 L595.298246 503.682775 L597.403509 501.632166 L599.508772 500.411755 L601.614035 504.093482 L603.719298 507.204775 L605.824561 496.264656 L607.929825 504.449175 L610.035088 507.566982 L612.140351 501.692096 L614.245614 496.170888 L616.350877 497.225483 L618.45614 500.5714 L620.561404 501.908752 L622.666667 498.790056 L624.77193 495.764065 L626.877193 504.430796 L628.982456 500.0848 L631.087719 507.816095 L633.192982 500.923501 L635.298246 495.671458 L637.403509 502.311245 L639.508772 496.865841 L641.614035 497.324618 L643.719298 504.256491 L645.824561 507.140932 L647.929825 504.269632 L650.035088 498.206011 L652.140351 508.619328 L654.245614 495.895034 L656.350877 500.152721 L658.45614 504.018264 L660.561404 506.878652 L662.666667 495.627159 L664.77193 507.487194 L666.877193 498.231765 L668.982456 499.069226 L671.087719 497.768552 L673.192982 506.805539 L675.298246 507.765194 L677.403509 502.363317 L679.508772 503.789029 L681.614035 498.365162 L683.719298 507.986093 L685.824561 506.16268 L687.929825 497.232208 L690.035088 498.863741 L692.140351 499.53612 L694.245614 496.803607 L696.350877 499.355619 L698.45614 497.593987 L700.561404 504.712479 L702.666667 498.256664 L704.77193 508.615804 L706.877193 507.780538 L708.982456 496.447581 L711.087719 500.73236 L713.192982 503.665904 L715.298246 508.462002 L717.403509 498.708407 L719.508772 495.69879 L721.614035 508.481144 L723.719298 506.117229 L725.824561 496.048348 L727.929825 495.640352 L730.035088 506.543582 L732.140351 507.678396 L734.245614 507.552562 L736.350877 508.629505 L738.45614 508.815097 L740.561404 497.453333 L742.666667 503.79635 L744.77193 501.267313 L746.877193 505.333064 L748.982456 502.410594 L751.087719 497.096827 L753.192982 501.094642 L755.298246 504.851453 L757.403509 501.60873 L759.508772 501.474751 L761.614035 500.280512 L763.719298 508.042833 L765.824561 501.486591 L767.929825 502.068087 L770.035088 504.500104 L772.140351 508.380896 L774.245614 497.60275 L776.350877 496.914528 L778.45614 501.536214 L780.561404 505.877845 L782.666667 502.702446 L784.77193 503.286255 L786.877193 506.138743 L788.982456 503.793974 L791.087719 502.012581 L793.192982 501.187217 L795.298246 507.480292 L797.403509 497.55714 L799.508772 506.854772 L801.614035 496.120813 L803.719298 505.924199 L805.824561 501.314211 L807.929825 501.194996 L810.035088 497.49964 L812.140351 506.495254 L814.245614 497.932198 L816.350877 495.783569 L818.45614 500.989781 L820.561404 505.354538 L822.666667 495.821641 L824.77193 508.272083 L826.877193 501.507598 L828.982456 503.924857 L831.087719 504.480453 L833.192982 498.888042 L835.298246 497.98877 L837.403509 502.668607 L839.508772 504.97182 L841.614035 499.472923 L843.719298 504.130931 L845.824561 500.23108 L847.929825 499.833089 L850.035088 498.896524 L852.140351 496.534141 L854.245614 504.35444 L856.350877 503.447527 L858.45614 497.627817 L860.561404 502.392415 L862.666667 507.359593 L864.77193 508.183592 L866.877193 505.372195 L868.982456 503.651377 L871.087719 499.419501 L873.192982 501.93417 L875.298246 500.651913 L877.403509 508.071375 L879.508772 498.950391 L881.614035 505.956767 L883.719298 506.520651 L885.824561 501.075021 L887.929825 503.619133 L890.035088 499.940918 L892.140351 498.236486 L894.245614 507.777557 L896.350877 508.455335 L898.45614 498.939267 L900.561404 504.934158 L902.666667 506.332622 "/>
  <path fill="#aa4643" d="M96.566667 476.533333 M86.566667 476.533333 a5.0 5.0 0 1 0 10.0 0 a5.0 5.0 0 1 0 -10.0 0 "/>
  <text x="103.066667" y="481.533333" fill="#333333" font-size="14.666667" font-family="Arial,Helvetica,'Helvetica Neue',sans-serif">Channel 2</text>
  <path stroke-width="1.333333" stroke="#333333" fill="none" d="M62.666667 629.111111 L902.666667 629.111111 "/>
  <path stroke-width="1.333333" stroke="#333333" fill="none" d="M62.666667 629.111111 L62.666667 623.777778 "/>
  <path stroke-width="1.333333" stroke="#333333" fill="none" d="M182.666672 629.111111 L182.666672 623.777778 "/>
  <path stroke-width="1.333333" stroke="#333333" fill="none" d="M302.666677 629.111111 L302.666677 623.777778 "/>
  <path stroke-width="1.333333" stroke="#333333" fill="none" d="M422.666695 629.111111 L422.666695 623.777778 "/>
  <path stroke-width="1.333333" stroke="#333333" fill="none" d="M542.666688 629.111111 L542.666688 623.777778 "/>
  <path stroke-width="1.333333" stroke="#333333" fill="none" d="M662.666681 629.111111 L662.666681 623.777778 "/>
  <path stroke-width="1.333333" stroke="#333333" fill="none" d="M782.666724 629.111111 L782.666724 623.777778 "/>
  <path stroke-width="1.333333" stroke="#333333" fill="none" d="M902.666667 629.111111 L902.666667 623.777778 "/>
  <text x="34.119792" y="654.844444" fill="#333333" font-size="14.666667" font-family="Arial,Helvetica,'Helvetica Neue',sans-serif">00:00:00</text>
  <text x="154.119797" y="654.844444" fill="#333333" font-size="14.666667" font-family="Arial,Helvetica,'Helvetica Neue',sans-serif">00:19:00</text>
  <text x="274.119802" y="654.844444" fill="#333333" font-size="14.666667" font-family="Arial,Helvetica,'Helvetica Neue',sans-serif">00:38:00</text>
  <text x="394.119820" y="654.844444" fill="#333333" font-size="14.666667" font-family="Arial,Helvetica,'Helvetica Neue',sans-serif">00:57:00</text>
  <text x="514.119813" y="654.844444" fill="#333333" font-size="14.666667" font-family="Arial,Helvetica,'Helvetica Neue',sans-serif">01:16:00</text>
  <text x="634.119806" y="654.844444" fill="#333333" font-size="14.666667" font-family="Arial,Helvetica,'Helvetica Neue',sans-serif">01:35:00</text>
  <text x="754.119849" y="654.844444" fill="#333333" font-size="14.666667" font-family="Arial,Helvetica,'Helvetica Neue',sans-serif">01:54:00</text>
  <text x="874.119792" y="654.844444" fill="#333333" font-size="14.666667" font-family="Arial,Helvetica,'Helvetica Neue',sans-serif">02:13:00</text>
  <path stroke-width="1.333333" stroke="#333333" fill="none" d="M62.666667 548.666667 L62.666667 629.111111 "/>
  <path stroke-width="1.333333" stroke="#333333" fill="none" d="M62.666667 615.703704 L68.0 615.703704 "/>
  <path stroke-width="1.333333" stroke="#333333" fill="none" d="M62.666667 588.888889 L68.0 588.888889 "/>
  <path stroke-width="1.333333" stroke="#333333" fill="none" d="M62.666667 562.074074 L68.0 562.074074 "/>
  <text x="25.652083" y="620.703704" fill="#333333" font-size="14.666667" font-family="Arial,Helvetica,'Helvetica Neue',sans-serif">-1.0</text>
  <text x="42.777083" y="593.888889" fill="#333333" font-size="14.666667" font-family="Arial,Helvetica,'Helvetica Neue',sans-serif">0</text>
  <text x="30.542708" y="567.074074" fill="#333333" font-size="14.666667" font-family="Arial,Helvetica,'Helvetica Neue',sans-serif">1.0</text>
  <path stroke-width="2.000000" stroke="#89a54e" fill="none" d="M62.666667 602.444522 L64.77193 602.658838 L66.877193 597.730566 L68.982456 599.301305 L71.087719 602.210642 L73.192982 606.874963 L75.298246 596.99452 L77.403509 598.901888 L79.508772 602.645138 L81.614035 597.135239 L83.719298 605.541164 L85.824561 608.807121 L87.929825 597.109667 L90.035088 597.709436 L92.140351 596.605439 L94.245614 608.229513 L96.350877 600.7692 L98.45614 608.638898 L100.561404 604.202803 L102.666667 596.857603 L104.77193 607.300295 L106.877193 599.97543 L108.982456 605.224593 L111.087719 598.592797 L113.192982 596.12453 L115.298246 601.401454 L117.403509 605.870424 L119.508772 598.781387 L121.614035 598.001409 L123.719298 598.950206 L125.824561 606.77041 L127.929825 598.284791 L130.035088 607.811413 L132.140351 608.531597 L134.245614 597.637901 L136.350877 607.258872 L138.45614 600.805934 L140.561404 603.742695 L142.666667 606.791523 L144.77193 596.011123 L146.877193 604.68119 L148.982456 604.507085 L151.087719 604.454382 L153.192982 597.881976 L155.298246 596.853048 L157.403509 595.943349 L159.508772 596.684782 L161.614035 596.445133 L163.719298 600.691499 L165.824561 598.19928 L167.929825 605.858427 L170.035088 603.487441 L172.140351 602.818773 L174.245614 598.033742 L176.350877 601.26748 L178.45614 598.716661 L180.561404 595.724075 L182.666667 600.714262 L184.77193 603.045357 L186.877193 597.609981 L188.982456 603.423446 L191.087719 596.503259 L193.192982 607.895027 L195.298246 597.476656 L197.403509 607.35431 L199.508772 596.823349 L201.614035 607.826851 L203.719298 603.173039 L205.824561 602.05878 L207.929825 599.540676 L210.035088 608.853194 L212.140351 598.087723 L214.245614 601.088563 L216.350877 599.005264 L218.45614 600.574947 L220.561404 599.283501 L222.666667 608.403775 L224.77193 600.142227 L226.877193 597.782751 L228.982456 596.763884 L231.087719 600.456833 L233.192982 604.129637 L235.298246 597.718905 L237.403509 602.541801 L239.508772 607.828399 L241.614035 600.857146 L243.719298 603.90121 L245.824561 597.195274 L247.929825 598.926537 L250.035088 601.511469 L252.140351 608.916905 L254.245614 605.717137 L256.350877 596.444049 L258.45614 599.164774 L260.561404 599.795866 L262.666667 597.020183 L264.77193 602.565462 L266.877193 605.926928 L268.982456 599.572251 L271.087719 603.564263 L273.192982 604.324138 L275.298246 603.9114 L277.403509 599.54007 L279.508772 605.204141 L281.614035 601.512844 L283.719298 601.773491 L285.824561 599.690693 L287.929825 600.686531 L290.035088 599.717641 L292.140351 606.015936 L294.245614 604.695124 L296.350877 601.203337 L298.45614 602.11047 L300.561404 608.71483 L302.666667 600.832731 L304.77193 600.512491 L306.877193 598.042307 L308.982456 607.292366 L311.087719 603.125777 L313.192982 600.290929 L315.298246 607.568517 L317.403509 606.671335 L319.508772 599.566819 L321.614035 607.845659 L323.719298 601.022771 L325.824561 597.281344 L327.929825 596.965042 L330.035088 603.607272 L332.140351 602.78954 L334.245614 598.603782 L336.350877 604.639673 L338.45614 607.028884 L340.561404 602.146201 L342.666667 597.191805 L344.77193 603.091585 L346.877193 600.394458 L348.982456 604.946081 L351.087719 607.349093 L353.192982 599.09599 L355.298246 608.93657 L357.403509 600.773979 L359.508772 602.089128 L361.614035 600.4249 L363.719298 602.501293 L365.824561 605.98533 L367.929825 604.836357 L370.035088 597.054022 L372.140351 600.882142 L374.245614 598.666619 L376.350877 606.217361 L378.45614 608.481688 L380.561404 603.647615 L382.666667 600.702781 L384.77193 599.595367 L386.877193 607.897134 L388.982456 598.769528 L391.087719 606.633992 L393.192982 600.656935 L395.298246 608.131388 L397.403509 599.315804 L399.508772 607.118851 L401.614035 608.396639 L403.719298 606.755294 L405.824561 603.888151 L407.929825 608.268753 L410.035088 601.813219 L412.140351 600.625817 L414.245614 598.908191 L416.350877 602.023571 L418.45614 603.196881 L420.561404 608.519395 L422.666667 608.941139 L424.77193 608.811658 L426.877193 602.951798 L428.982456 601.528513 L431.087719 607.334395 L433.192982 608.591184 L435.298246 605.889597 L437.403509 601.134543 L439.508772 600.646216 L441.614035 600.120244 L443.719298 596.289411 L445.824561 605.603198 L447.929825 603.43977 L450.035088 596.415398 L452.140351 598.262973 L454.245614 596.559926 L456.350877 607.378679 L458.45614 606.412655 L460.561404 600.94244 L462.666667 600.036417 L464.77193 597.751047 L466.877193 606.572427 L468.982456 606.159411 L471.087719 603.729488 L473.192982 600.967746 L475.298246 601.225873 L477.403509 605.36337 L479.508772 599.136655 L481.614035 604.457417 L483.719298 604.943866 L485.824561 599.779273 L487.929825 600.055907 L490.035088 600.064481 L492.140351 595.668489 L494.245614 599.777741 L496.350877 595.615054 L498.45614 596.342125 L500.561404 597.812534 L502.666667 602.046951 L504.77193 607.639184 L506.877193 595.813433 L508.982456 607.581417 L511.087719 604.968586 L513.192982 599.551493 L515.298246 596.472851 L517.403509 597.114978 L519.508772 595.720162 L521.614035 604.995753 L523.719298 599.718663 L525.824561 595.618822 L527.929825 598.251865 L530.035088 595.853242 L532.140351 603.624582 L534.245614 596.757358 L536.350877 598.221965 L538.45614 597.115652 L540.561404 597.220159 L542.666667 608.480429 L544.77193 605.760433 L546.877193 596.107377 L548.982456 600.697057 L551.087719 601.680691 L553.192982 605.553443 L555.298246 602.369728 L557.403509 598.969111 L559.508772 606.176918 L561.614035 598.216711 L563.719298 597.10491 L565.824561 602.197777 L567.929825 599.007826 L570.035088 600.342121 L572.140351 599.858422 L574.245614 595.757119 L576.350877 599.536937 L578.45614 604.585495 L580.561404 606.186625 L582.666667 602.242607 L584.77193 606.789576 L586.877193 596.300443 L588.982456 598.390983 L591.087719 597.467558 L593.192982 607.690131 L595.298246 608.81202 L597.403509 597.76641 L599.508772 601.292876 L601.614035 601.759102 L603.719298 599.895978 L605.824561 604.696879 L607.929825 598.98206 L610.035088 599.229689 L612.140351 595.908416 L614.245614 605.950797 L616.350877 605.228876 L618.45614 608.831398 L620.561404 606.73779 L622.666667 604.233229 L624.77193 606.060797 L626.877193 599.452428 L628.982456 605.842675 L631.087719 596.215052 L633.192982 608.315855 L635.298246 600.893648 L637.403509 597.191317 L639.508772 601.201144 L641.614035 608.687564 L643.719298 595.631867 L645.824561 597.708332 L647.929825 605.211571 L650.035088 605.038457 L652.140351 597.937465 L654.245614 608.368235 L656.350877 600.47713 L658.45614 595.604742 L660.561404 598.07979 L662.666667 606.497648 L664.77193 597.671342 L666.877193 595.812502 L668.982456 597.330067 L671.087719 607.652116 L673.192982 607.155387 L675.298246 601.62233 L677.403509 602.68968 L679.508772 608.472699 L681.614035 605.371521 L683.719298 607.818607 L685.824561 606.109772 L687.929825 602.132828 L690.035088 598.409175 L692.140351 602.947477 L694.245614 607.414036 L696.350877 596.632091 L698.45614 600.685216 L700.561404 607.437055 L702.666667 596.66295 L704.77193 601.318046 L706.877193 608.680399 L708.982456 597.498379 L711.087719 607.788411 L713.192982 602.864921 L715.298246 596.39579 L717.403509 596.120354 L719.508772 601.277394 L721.614035 600.30115 L723.719298 601.455788 L725.824561 596.711878 L727.929825 605.113006 L730.035088 598.968283 L732.140351 599.666491 L734.245614 599.116573 L736.350877 603.59387 L738.45614 598.455198 L740.561404 597.266934 L742.666667 603.280048 L744.77193 601.379645 L746.877193 597.869557 L748.982456 602.473248 L751.087719 606.960975 L753.192982 608.294954 L755.298246 607.4459 L757.403509 606.729315 L759.508772 605.588334 L761.614035 602.376528 L763.719298 599.831218 L765.824561 602.028422 L767.929825 604.940478 L770.035088 607.548891 L772.140351 608.596938 L774.245614 599.320902 L776.350877 598.084439 L778.45614 602.665087 L780.561404 596.260686 L782.666667 605.752211 L784.77193 598.554184 L786.877193 596.124998 L788.982456 599.339117 L791.087719 600.960499 L793.192982 604.209753 L795.298246 599.842212 L797.403509 600.542557 L799.508772 596.741613 L801.614035 596.158003 L803.719298 595.698905 L805.824561 599.935334 L807.929825 596.528123 L810.035088 597.151829 L812.140351 605.209456 L814.245614 600.214843 L816.350877 603.558377 L818.45614 601.625962 L820.561404 603.08864 L822.666667 608.803497 L824.77193 605.72416 L826.877193 600.415977 L828.982456 600.950958 L831.087719 608.964915 L833.192982 595.909786 L835.298246 606.392669 L837.403509 602.497977 L839.508772 598.147748 L841.614035 597.557837 L843.719298 599.059268 L845.824561 601.137161 L847.929825 600.951928 L850.035088 596.13829 L852.140351 596.777655 L854.245614 598.913209 L856.350877 596.285664 L858.45614 601.583197 L860.561404 602.645731 L862.666667 595.873984 L864.77193 608.831919 L866.877193 601.959419 L868.982456 598.163503 L871.087719 605.829762 L873.192982 596.631048 L875.298246 605.119904 L877.403509 608.338569 L879.508772 603.515374 L881.614035 596.157725 L883.719298 597.714254 L885.824561 603.384301 L887.929825 606.810983 L890.035088 596.707945 L892.140351 600.175893 L894.245614 598.976481 L896.350877 600.134877 L898.45614 598.747796 L900.561404 597.226046 L902.666667 596.222226 "/>
  <path fill="#89a54e" d="M96.566667 576.533333 M86.566667 576.533333 a5.0 5.0 0 1 0 10.0 0 a5.0 5.0 0 1 0 -10.0 0 "/>
  <text x="103.066667" y="581.533333" fill="#333333" font-size="14.666667" font-family="Arial,Helvetica,'Helvetica Neue',sans-serif">Channel 3</text>
  <path stroke-width="1.333333" stroke="#333333" fill="none" d="M62.666667 910.266667 L453.555556 910.266667 "/>
  <path stroke-width="1.333333" stroke="#333333" fill="none" d="M90.587302 910.266667 L90.587302 904.933333 "/>
  <path stroke-width="1.333333" stroke="#333333" fill="none" d="M146.428571 910.266667 L146.428571 904.933333 "/>
  <path stroke-width="1.333333" stroke="#333333" fill="none" d="M202.269841 910.266667 L202.269841 904.933333 "/>
  <path stroke-width="1.333333" stroke="#333333" fill="none" d="M258.111111 910.266667 L258.111111 904.933333 "/>
  <path stroke-width="1.333333" stroke="#333333" fill="none" d="M313.952381 910.266667 L313.952381 904.933333 "/>
  <path stroke-width="1.333333" stroke="#333333" fill="none" d="M369.793651 910.266667 L369.793651 904.933333 "/>
  <path stroke-width="1.333333" stroke="#333333" fill="none" d="M425.634921 910.266667 L425.634921 904.933333 "/>
  <text x="77.946677" y="936.000000" fill="#333333" font-size="14.666667" font-family="Arial,Helvetica,'Helvetica Neue',sans-serif">-3.0</text>
  <text x="133.787946" y="936.000000" fill="#333333" font-size="14.666667" font-family="Arial,Helvetica,'Helvetica Neue',sans-serif">-2.0</text>
  <text x="189.629216" y="936.000000" fill="#333333" font-size="14.666667" font-family="Arial,Helvetica,'Helvetica Neue',sans-serif">-1.0</text>
  <text x="247.915799" y="936.000000" fill="#333333" font-size="14.666667" font-family="Arial,Helvetica,'Helvetica Neue',sans-serif">0.0</text>
  <text x="303.757068" y="936.000000" fill="#333333" font-size="14.666667" font-family="Arial,Helvetica,'Helvetica Neue',sans-serif">1.0</text>
  <text x="359.598338" y="936.000000" fill="#333333" font-size="14.666667" font-family="Arial,Helvetica,'Helvetica Neue',sans-serif">2.0</text>
  <text x="415.439608" y="936.000000" fill="#333333" font-size="14.666667" font-family="Arial,Helvetica,'Helvetica Neue',sans-serif">3.0</text>
  <path stroke-width="1.333333" stroke="#333333" fill="none" d="M62.666667 748.844444 L62.666667 910.266667 "/>
  <path stroke-width="1.333333" stroke="#333333" fill="none" d="M62.666667 910.266667 L68.0 910.266667 "/>
  <path stroke-width="1.333333" stroke="#333333" fill="none" d="M62.666667 880.917172 L68.0 880.917172 "/>
  <path stroke-width="1.333333" stroke="#333333" fill="none" d="M62.666667 851.567677 L68.0 851.567677 "/>
  <path stroke-width="1.333333" stroke="#333333" fill="none" d="M62.666667 822.218182 L68.0 822.218182 "/>
  <path stroke-width="1.333333" stroke="#333333" fill="none" d="M62.666667 792.868687 L68.0 792.868687 "/>
  <path stroke-width="1.333333" stroke="#333333" fill="none" d="M62.666667 763.519192 L68.0 763.519192 "/>
  <text x="30.542708" y="915.266667" fill="#333333" font-size="14.666667" font-family="Arial,Helvetica,'Helvetica Neue',sans-serif">0.0</text>
  <text x="22.386458" y="885.917172" fill="#333333" font-size="14.666667" font-family="Arial,Helvetica,'Helvetica Neue',sans-serif">10.0</text>
  <text x="22.386458" y="856.567677" fill="#333333" font-size="14.666667" font-family="Arial,Helvetica,'Helvetica Neue',sans-serif">20.0</text>
  <text x="22.386458" y="827.218182" fill="#333333" font-size="14.666667" font-family="Arial,Helvetica,'Helvetica Neue',sans-serif">30.0</text>
  <text x="22.386458" y="797.868687" fill="#333333" font-size="14.666667" font-family="Arial,Helvetica,'Helvetica Neue',sans-serif">40.0</text>
  <text x="22.386458" y="768.519192" fill="#333333" font-size="14.666667" font-family="Arial,Helvetica,'Helvetica Neue',sans-serif">50.0</text>
  <path stroke-width="1.333333" stroke="#333333" fill="none" d="M62.666667 748.844444 L453.555556 748.844444 "/>
  <path stroke-width="1.333333" stroke="#333333" fill="none" d="M62.666667 748.844444 L62.666667 754.177778 "/>
  <path stroke-width="1.333333" stroke="#333333" fill="none" d="M118.507939 748.844444 L118.507939 754.177778 "/>
  <path stroke-width="1.333333" stroke="#333333" fill="none" d="M174.349211 748.844444 L174.349211 754.177778 "/>
  <path stroke-width="1.333333" stroke="#333333" fill="none" d="M230.19049 748.844444 L230.19049 754.177778 "/>
  <path stroke-width="1.333333" stroke="#333333" fill="none" d="M286.031756 748.844444 L286.031756 754.177778 "/>
  <path stroke-width="1.333333" stroke="#333333" fill="none" d="M341.873023 748.844444 L341.873023 754.177778 "/>
  <path stroke-width="1.333333" stroke="#333333" fill="none" d="M397.714312 748.844444 L397.714312 754.177778 "/>
  <path stroke-width="1.333333" stroke="#333333" fill="none" d="M453.555556 748.844444 L453.555556 754.177778 "/>
  <text x="50.026042" y="733.111111" fill="#333333" font-size="14.666667" font-family="Arial,Helvetica,'Helvetica Neue',sans-serif">-3.5</text>
  <text x="105.867314" y="733.111111" fill="#333333" font-size="14.666667" font-family="Arial,Helvetica,'Helvetica Neue',sans-serif">-2.5</text>
  <text x="161.708586" y="733.111111" fill="#333333" font-size="14.666667" font-family="Arial,Helvetica,'Helvetica Neue',sans-serif">-1.5</text>
  <text x="217.549865" y="733.111111" fill="#333333" font-size="14.666667" font-family="Arial,Helvetica,'Helvetica Neue',sans-serif">-0.5</text>
  <text x="275.836444" y="733.111111" fill="#333333" font-size="14.666667" font-family="Arial,Helvetica,'Helvetica Neue',sans-serif">0.5</text>
  <text x="331.677710" y="733.111111" fill="#333333" font-size="14.666667" font-family="Arial,Helvetica,'Helvetica Neue',sans-serif">1.5</text>
  <text x="387.519000" y="733.111111" fill="#333333" font-size="14.666667" font-family="Arial,Helvetica,'Helvetica Neue',sans-serif">2.5</text>
  <text x="443.360243" y="733.111111" fill="#333333" font-size="14.666667" font-family="Arial,Helvetica,'Helvetica Neue',sans-serif">3.5</text>
  <path fill="#4572a7" d="M92.720635 910.266667 L92.720635 880.917172 L104.453968 880.917172 L104.453968 910.266667 "/>
  <path fill="#4572a7" d="M148.561905 910.266667 L148.561905 828.088081 L160.295238 828.088081 L160.295238 910.266667 "/>
  <path fill="#4572a7" d="M204.403175 910.266667 L204.403175 851.567677 L216.136508 851.567677 L216.136508 910.266667 "/>
  <path fill="#4572a7" d="M260.244444 910.266667 L260.244444 833.95798 L271.977778 833.95798 L271.977778 910.266667 "/>
  <path fill="#4572a7" d="M316.085714 910.266667 L316.085714 789.933737 L327.819048 789.933737 L327.819048 910.266667 "/>
  <path fill="#4572a7" d="M371.926984 910.266667 L371.926984 781.128889 L383.660317 781.128889 L383.660317 910.266667 "/>
  <path fill="#4572a7" d="M427.768254 910.266667 L427.768254 801.673535 L439.501587 801.673535 L439.501587 910.266667 "/>
  <path fill="#aa4643" d="M76.720635 910.266667 L76.720635 875.047273 L88.453968 875.047273 L88.453968 910.266667 "/>
  <path fill="#aa4643" d="M132.561905 910.266667 L132.561905 854.502626 L144.295238 854.502626 L144.295238 910.266667 "/>
  <path fill="#aa4643" d="M188.403175 910.266667 L188.403175 842.762828 L200.136508 842.762828 L200.136508 910.266667 "/>
  <path fill="#aa4643" d="M244.244444 910.266667 L244.244444 822.218182 L255.977778 822.218182 L255.977778 910.266667 "/>
  <path fill="#aa4643" d="M300.085714 910.266667 L300.085714 807.543434 L311.819048 807.543434 L311.819048 910.266667 "/>
  <path fill="#aa4643" d="M355.926984 910.266667 L355.926984 784.063838 L367.660317 784.063838 L367.660317 910.266667 "/>
  <path fill="#aa4643" d="M411.768254 910.266667 L411.768254 813.413333 L423.501587 813.413333 L423.501587 910.266667 "/>
  <path fill="#4572a7" d="M96.566667 776.711111 M86.566667 776.711111 a5.0 5.0 0 1 0 10.0 0 a5.0 5.0 0 1 0 -10.0 0 "/>
  <text x="103.066667" y="781.711111" fill="#333333" font-size="14.666667" font-family="Arial,Helvetica,'Helvetica Neue',sans-serif">A</text>
  <path fill="#aa4643" d="M155.547917 776.711111 M145.547917 776.711111 a5.0 5.0 0 1 0 10.0 0 a5.0 5.0 0 1 0 -10.0 0 "/>
  <text x="162.047917" y="781.711111" fill="#333333" font-size="14.666667" font-family="Arial,Helvetica,'Helvetica Neue',sans-serif">B</text>
  <path stroke-width="1.333333" stroke="#333333" fill="none" d="M512.222222 910.266667 L903.111111 910.266667 "/>
  <path stroke-width="1.333333" stroke="#333333" fill="none" d="M512.222222 910.266667 L512.222222 904.933333 "/>
  <path stroke-width="1.333333" stroke="#333333" fill="none" d="M568.063492 910.266667 L568.063492 904.933333 "/>
  <path stroke-width="1.333333" stroke="#333333" fill="none" d="M568.063492 910.266667 L568.063492 904.933333 "/>
  <path stroke-width="1.333333" stroke="#333333" fill="none" d="M623.904762 910.266667 L623.904762 904.933333 "/>
  <path stroke-width="1.333333" stroke="#333333" fill="none" d="M623.904762 910.266667 L623.904762 904.933333 "/>
  <path stroke-width="1.333333" stroke="#333333" fill="none" d="M679.746032 910.266667 L679.746032 904.933333 "/>
  <path stroke-width="1.333333" stroke="#333333" fill="none" d="M679.746032 910.266667 L679.746032 904.933333 "/>
  <path stroke-width="1.333333" stroke="#333333" fill="none" d="M735.587302 910.266667 L735.587302 904.933333 "/>
  <path stroke-width="1.333333" stroke="#333333" fill="none" d="M735.587302 910.266667 L735.587302 904.933333 "/>
  <path stroke-width="1.333333" stroke="#333333" fill="none" d="M791.428571 910.266667 L791.428571 904.933333 "/>
  <path stroke-width="1.333333" stroke="#333333" fill="none" d="M791.428571 910.266667 L791.428571 904.933333 "/>
  <path stroke-width="1.333333" stroke="#333333" fill="none" d="M847.269841 910.266667 L847.269841 904.933333 "/>
  <path stroke-width="1.333333" stroke="#333333" fill="none" d="M847.269841 910.266667 L847.269841 904.933333 "/>
  <path stroke-width="1.333333" stroke="#333333" fill="none" d="M903.111111 910.266667 L903.111111 904.933333 "/>
  <path stroke-width="1.333333" stroke="#333333" fill="none" d="M903.111111 910.266667 L903.111111 904.933333 "/>
  <text x="535.252232" y="936.000000" fill="#333333" font-size="14.666667" font-family="Arial,Helvetica,'Helvetica Neue',sans-serif">A</text>
  <text x="591.093502" y="936.000000" fill="#333333" font-size="14.666667" font-family="Arial,Helvetica,'Helvetica Neue',sans-serif">B</text>
  <text x="646.528522" y="936.000000" fill="#333333" font-size="14.666667" font-family="Arial,Helvetica,'Helvetica Neue',sans-serif">C</text>
  <text x="702.369792" y="936.000000" fill="#333333" font-size="14.666667" font-family="Arial,Helvetica,'Helvetica Neue',sans-serif">D</text>
  <text x="758.617312" y="936.000000" fill="#333333" font-size="14.666667" font-family="Arial,Helvetica,'Helvetica Neue',sans-serif">E</text>
  <text x="814.864831" y="936.000000" fill="#333333" font-size="14.666667" font-family="Arial,Helvetica,'Helvetica Neue',sans-serif">F</text>
  <text x="869.487351" y="936.000000" fill="#333333" font-size="14.666667" font-family="Arial,Helvetica,'Helvetica Neue',sans-serif">G</text>
  <path stroke-width="1.333333" stroke="#333333" fill="none" d="M512.222222 748.844444 L903.111111 748.844444 "/>
  <path stroke-width="1.333333" stroke="#333333" fill="none" d="M512.222222 748.844444 L512.222222 754.177778 "/>
  <path stroke-width="1.333333" stroke="#333333" fill="none" d="M568.063495 748.844444 L568.063495 754.177778 "/>
  <path stroke-width="1.333333" stroke="#333333" fill="none" d="M623.904767 748.844444 L623.904767 754.177778 "/>
  <path stroke-width="1.333333" stroke="#333333" fill="none" d="M679.746045 748.844444 L679.746045 754.177778 "/>
  <path stroke-width="1.333333" stroke="#333333" fill="none" d="M735.587312 748.844444 L735.587312 754.177778 "/>
  <path stroke-width="1.333333" stroke="#333333" fill="none" d="M791.428578 748.844444 L791.428578 754.177778 "/>
  <path stroke-width="1.333333" stroke="#333333" fill="none" d="M847.269868 748.844444 L847.269868 754.177778 "/>
  <path stroke-width="1.333333" stroke="#333333" fill="none" d="M903.111111 748.844444 L903.111111 754.177778 "/>
  <text x="499.581597" y="733.111111" fill="#333333" font-size="14.666667" font-family="Arial,Helvetica,'Helvetica Neue',sans-serif">-0.5</text>
  <text x="557.868182" y="733.111111" fill="#333333" font-size="14.666667" font-family="Arial,Helvetica,'Helvetica Neue',sans-serif">0.5</text>
  <text x="613.709454" y="733.111111" fill="#333333" font-size="14.666667" font-family="Arial,Helvetica,'Helvetica Neue',sans-serif">1.5</text>
  <text x="669.550733" y="733.111111" fill="#333333" font-size="14.666667" font-family="Arial,Helvetica,'Helvetica Neue',sans-serif">2.5</text>
  <text x="725.391999" y="733.111111" fill="#333333" font-size="14.666667" font-family="Arial,Helvetica,'Helvetica Neue',sans-serif">3.5</text>
  <text x="781.233266" y="733.111111" fill="#333333" font-size="14.666667" font-family="Arial,Helvetica,'Helvetica Neue',sans-serif">4.5</text>
  <text x="837.074555" y="733.111111" fill="#333333" font-size="14.666667" font-family="Arial,Helvetica,'Helvetica Neue',sans-serif">5.5</text>
  <text x="892.915799" y="733.111111" fill="#333333" font-size="14.666667" font-family="Arial,Helvetica,'Helvetica Neue',sans-serif">6.5</text>
  <path stroke-width="2.000000" stroke="#4572a7" fill="none" d="M540.142857 831.02303 L595.984127 842.762828 L651.825397 866.242424 L707.666667 848.632727 L763.507937 804.608485 L819.349206 795.803636 L875.190476 816.348283 "/>
  <path fill="#4572a7" d="M544.142857 831.02303 M536.142857 831.02303 a4.0 4.0 0 1 0 8.0 0 a4.0 4.0 0 1 0 -8.0 0 "/>
  <path fill="#4572a7" d="M599.984127 842.762828 M591.984127 842.762828 a4.0 4.0 0 1 0 8.0 0 a4.0 4.0 0 1 0 -8.0 0 "/>
  <path fill="#4572a7" d="M655.825397 866.242424 M647.825397 866.242424 a4.0 4.0 0 1 0 8.0 0 a4.0 4.0 0 1 0 -8.0 0 "/>
  <path fill="#4572a7" d="M711.666667 848.632727 M703.666667 848.632727 a4.0 4.0 0 1 0 8.0 0 a4.0 4.0 0 1 0 -8.0 0 "/>
  <path fill="#4572a7" d="M767.507937 804.608485 M759.507937 804.608485 a4.0 4.0 0 1 0 8.0 0 a4.0 4.0 0 1 0 -8.0 0 "/>
  <path fill="#4572a7" d="M823.349206 795.803636 M815.349206 795.803636 a4.0 4.0 0 1 0 8.0 0 a4.0 4.0 0 1 0 -8.0 0 "/>
  <path fill="#4572a7" d="M879.190476 816.348283 M871.190476 816.348283 a4.0 4.0 0 1 0 8.0 0 a4.0 4.0 0 1 0 -8.0 0 "/>
  <path stroke-width="2.000000" stroke="#aa4643" fill="none" d="M540.142857 854.502626 L595.984127 869.177374 L651.825397 877.982222 L707.666667 857.437576 L763.507937 822.218182 L819.349206 839.827879 L875.190476 854.502626 "/>
  <path fill="#aa4643" d="M544.142857 854.502626 M536.142857 854.502626 a4.0 4.0 0 1 0 8.0 0 a4.0 4.0 0 1 0 -8.0 0 "/>
  <path fill="#aa4643" d="M599.984127 869.177374 M591.984127 869.177374 a4.0 4.0 0 1 0 8.0 0 a4.0 4.0 0 1 0 -8.0 0 "/>
  <path fill="#aa4643" d="M655.825397 877.982222 M647.825397 877.982222 a4.0 4.0 0 1 0 8.0 0 a4.0 4.0 0 1 0 -8.0 0 "/>
  <path fill="#aa4643" d="M711.666667 857.437576 M703.666667 857.437576 a4.0 4.0 0 1 0 8.0 0 a4.0 4.0 0 1 0 -8.0 0 "/>
  <path fill="#aa4643" d="M767.507937 822.218182 M759.507937 822.218182 a4.0 4.0 0 1 0 8.0 0 a4.0 4.0 0 1 0 -8.0 0 "/>
  <path fill="#aa4643" d="M823.349206 839.827879 M815.349206 839.827879 a4.0 4.0 0 1 0 8.0 0 a4.0 4.0 0 1 0 -8.0 0 "/>
  <path fill="#aa4643" d="M879.190476 854.502626 M871.190476 854.502626 a4.0 4.0 0 1 0 8.0 0 a4.0 4.0 0 1 0 -8.0 0 "/>
  <path fill="#4572a7" d="M546.122222 776.711111 M536.122222 776.711111 a5.0 5.0 0 1 0 10.0 0 a5.0 5.0 0 1 0 -10.0 0 "/>
  <text x="552.622222" y="781.711111" fill="#333333" font-size="14.666667" font-family="Arial,Helvetica,'Helvetica Neue',sans-serif">A</text>
  <path fill="#aa4643" d="M605.103472 776.711111 M595.103472 776.711111 a5.0 5.0 0 1 0 10.0 0 a5.0 5.0 0 1 0 -10.0 0 "/>
  <text x="611.603472" y="781.711111" fill="#333333" font-size="14.666667" font-family="Arial,Helvetica,'Helvetica Neue',sans-serif">B</text>
  <path stroke-width="1.333333" stroke="#333333" fill="none" d="M1372.386458 748.844444 L1372.386458 910.266667 "/>
  <path stroke-width="1.333333" stroke="#333333" fill="none" d="M1372.386458 910.266667 L1367.053125 910.266667 "/>
  <path stroke-width="1.333333" stroke="#333333" fill="none" d="M1372.386458 883.362963 L1367.053125 883.362963 "/>
  <path stroke-width="1.333333" stroke="#333333" fill="none" d="M1372.386458 856.459259 L1367.053125 856.459259 "/>
  <path stroke-width="1.333333" stroke="#333333" fill="none" d="M1372.386458 829.555556 L1367.053125 829.555556 "/>
  <path stroke-width="1.333333" stroke="#333333" fill="none" d="M1372.386458 802.651852 L1367.053125 802.651852 "/>
  <path stroke-width="1.333333" stroke="#333333" fill="none" d="M1372.386458 775.748148 L1367.053125 775.748148 "/>
  <path stroke-width="1.333333" stroke="#333333" fill="none" d="M1372.386458 748.844444 L1367.053125 748.844444 "/>
  <text x="1384.119792" y="915.266667" fill="#333333" font-size="14.666667" font-family="Arial,Helvetica,'Helvetica Neue',sans-serif">0.0</text>
  <text x="1384.119792" y="888.362963" fill="#333333" font-size="14.666667" font-family="Arial,Helvetica,'Helvetica Neue',sans-serif">5.0</text>
  <text x="1384.119792" y="861.459259" fill="#333333" font-size="14.666667" font-family="Arial,Helvetica,'Helvetica Neue',sans-serif">10.0</text>
  <text x="1384.119792" y="834.555556" fill="#333333" font-size="14.666667" font-family="Arial,Helvetica,'Helvetica Neue',sans-serif">15.0</text>
  <text x="1384.119792" y="807.651852" fill="#333333" font-size="14.666667" font-family="Arial,Helvetica,'Helvetica Neue',sans-serif">20.0</text>
  <text x="1384.119792" y="780.748148" fill="#333333" font-size="14.666667" font-family="Arial,Helvetica,'Helvetica Neue',sans-serif">25.0</text>
  <text x="1384.119792" y="753.844444" fill="#333333" font-size="14.666667" font-family="Arial,Helvetica,'Helvetica Neue',sans-serif">30.0</text>
  <path stroke-width="1.333333" stroke="#333333" fill="none" d="M961.777778 910.266667 L1372.386458 910.266667 "/>
  <path stroke-width="1.333333" stroke="#333333" fill="none" d="M981.971646 910.266667 L981.971646 904.933333 "/>
  <path stroke-width="1.333333" stroke="#333333" fill="none" d="M1015.628095 910.266667 L1015.628095 904.933333 "/>
  <path stroke-width="1.333333" stroke="#333333" fill="none" d="M1049.284543 910.266667 L1049.284543 904.933333 "/>
  <path stroke-width="1.333333" stroke="#333333" fill="none" d="M1082.940991 910.266667 L1082.940991 904.933333 "/>
  <path stroke-width="1.333333" stroke="#333333" fill="none" d="M1116.597439 910.266667 L1116.597439 904.933333 "/>
  <path stroke-width="1.333333" stroke="#333333" fill="none" d="M1150.253887 910.266667 L1150.253887 904.933333 "/>
  <path stroke-width="1.333333" stroke="#333333" fill="none" d="M1183.910336 910.266667 L1183.910336 904.933333 "/>
  <path stroke-width="1.333333" stroke="#333333" fill="none" d="M1217.566784 910.266667 L1217.566784 904.933333 "/>
  <path stroke-width="1.333333" stroke="#333333" fill="none" d="M1251.223232 910.266667 L1251.223232 904.933333 "/>
  <path stroke-width="1.333333" stroke="#333333" fill="none" d="M1284.87968 910.266667 L1284.87968 904.933333 "/>
  <path stroke-width="1.333333" stroke="#333333" fill="none" d="M1318.536128 910.266667 L1318.536128 904.933333 "/>
  <path stroke-width="1.333333" stroke="#333333" fill="none" d="M1352.192577 910.266667 L1352.192577 904.933333 "/>
  <text x="970.143521" y="936.000000" fill="#333333" font-size="14.666667" font-family="Arial,Helvetica,'Helvetica Neue',sans-serif">Jan</text>
  <text x="1002.987470" y="936.000000" fill="#333333" font-size="14.666667" font-family="Arial,Helvetica,'Helvetica Neue',sans-serif">Feb</text>
  <text x="1036.651730" y="936.000000" fill="#333333" font-size="14.666667" font-family="Arial,Helvetica,'Helvetica Neue',sans-serif">Mar</text>
  <text x="1071.526929" y="936.000000" fill="#333333" font-size="14.666667" font-family="Arial,Helvetica,'Helvetica Neue',sans-serif">Apr</text>
  <text x="1102.738064" y="936.000000" fill="#333333" font-size="14.666667" font-family="Arial,Helvetica,'Helvetica Neue',sans-serif">May</text>
  <text x="1138.425762" y="936.000000" fill="#333333" font-size="14.666667" font-family="Arial,Helvetica,'Helvetica Neue',sans-serif">Jun</text>
  <text x="1174.527523" y="936.000000" fill="#333333" font-size="14.666667" font-family="Arial,Helvetica,'Helvetica Neue',sans-serif">Jul</text>
  <text x="1204.519909" y="936.000000" fill="#333333" font-size="14.666667" font-family="Arial,Helvetica,'Helvetica Neue',sans-serif">Aug</text>
  <text x="1238.176357" y="936.000000" fill="#333333" font-size="14.666667" font-family="Arial,Helvetica,'Helvetica Neue',sans-serif">Sep</text>
  <text x="1273.465618" y="936.000000" fill="#333333" font-size="14.666667" font-family="Arial,Helvetica,'Helvetica Neue',sans-serif">Oct</text>
  <text x="1305.489253" y="936.000000" fill="#333333" font-size="14.666667" font-family="Arial,Helvetica,'Helvetica Neue',sans-serif">Nov</text>
  <text x="1339.145702" y="936.000000" fill="#333333" font-size="14.666667" font-family="Arial,Helvetica,'Helvetica Neue',sans-serif">Dec</text>
  <path stroke-width="1.333333" stroke="#333333" fill="none" d="M961.777778 748.844444 L1372.386458 748.844444 "/>
  <path stroke-width="1.333333" stroke="#333333" fill="none" d="M981.971646 748.844444 L981.971646 754.177778 "/>
  <path stroke-width="1.333333" stroke="#333333" fill="none" d="M1015.628095 748.844444 L1015.628095 754.177778 "/>
  <path stroke-width="1.333333" stroke="#333333" fill="none" d="M1049.284543 748.844444 L1049.284543 754.177778 "/>
  <path stroke-width="1.333333" stroke="#333333" fill="none" d="M1082.940991 748.844444 L1082.940991 754.177778 "/>
  <path stroke-width="1.333333" stroke="#333333" fill="none" d="M1116.597439 748.844444 L1116.597439 754.177778 "/>
  <path stroke-width="1.333333" stroke="#333333" fill="none" d="M1150.253887 748.844444 L1150.253887 754.177778 "/>
  <path stroke-width="1.333333" stroke="#333333" fill="none" d="M1183.910336 748.844444 L1183.910336 754.177778 "/>
  <path stroke-width="1.333333" stroke="#333333" fill="none" d="M1217.566784 748.844444 L1217.566784 754.177778 "/>
  <path stroke-width="1.333333" stroke="#333333" fill="none" d="M1251.223232 748.844444 L1251.223232 754.177778 "/>
  <path stroke-width="1.333333" stroke="#333333" fill="none" d="M1284.87968 748.844444 L1284.87968 754.177778 "/>
  <path stroke-width="1.333333" stroke="#333333" fill="none" d="M1318.536128 748.844444 L1318.536128 754.177778 "/>
  <path stroke-width="1.333333" stroke="#333333" fill="none" d="M1352.192577 748.844444 L1352.192577 754.177778 "/>
  <text x="970.143521" y="733.111111" fill="#333333" font-size="14.666667" font-family="Arial,Helvetica,'Helvetica Neue',sans-serif">Jan</text>
  <text x="1002.987470" y="733.111111" fill="#333333" font-size="14.666667" font-family="Arial,Helvetica,'Helvetica Neue',sans-serif">Feb</text>
  <text x="1036.651730" y="733.111111" fill="#333333" font-size="14.666667" font-family="Arial,Helvetica,'Helvetica Neue',sans-serif">Mar</text>
  <text x="1071.526929" y="733.111111" fill="#333333" font-size="14.666667" font-family="Arial,Helvetica,'Helvetica Neue',sans-serif">Apr</text>
  <text x="1102.738064" y="733.111111" fill="#333333" font-size="14.666667" font-family="Arial,Helvetica,'Helvetica Neue',sans-serif">May</text>
  <text x="1138.425762" y="733.111111" fill="#333333" font-size="14.666667" font-family="Arial,Helvetica,'Helvetica Neue',sans-serif">Jun</text>
  <text x="1174.527523" y="733.111111" fill="#333333" font-size="14.666667" font-family="Arial,Helvetica,'Helvetica Neue',sans-serif">Jul</text>
  <text x="1204.519909" y="733.111111" fill="#333333" font-size="14.666667" font-family="Arial,Helvetica,'Helvetica Neue',sans-serif">Aug</text>
  <text x="1238.176357" y="733.111111" fill="#333333" font-size="14.666667" font-family="Arial,Helvetica,'Helvetica Neue',sans-serif">Sep</text>
  <text x="1273.465618" y="733.111111" fill="#333333" font-size="14.666667" font-family="Arial,Helvetica,'Helvetica Neue',sans-serif">Oct</text>
  <text x="1305.489253" y="733.111111" fill="#333333" font-size="14.666667" font-family="Arial,Helvetica,'Helvetica Neue',sans-serif">Nov</text>
  <text x="1339.145702" y="733.111111" fill="#333333" font-size="14.666667" font-family="Arial,Helvetica,'Helvetica Neue',sans-serif">Dec</text>
  <path fill="#4572a7" d="M962.416091 910.266667 L962.416091 889.281778 L1001.527202 889.281778 L1001.527202 910.266667 "/>
  <path fill="#4572a7" d="M996.072539 910.266667 L996.072539 887.667556 L1035.18365 887.667556 L1035.18365 910.266667 "/>
  <path fill="#4572a7" d="M1029.728987 910.266667 L1029.728987 879.596444 L1068.840098 879.596444 L1068.840098 910.266667 "/>
  <path fill="#4572a7" d="M1063.385436 910.266667 L1063.385436 864.53037 L1102.496547 864.53037 L1102.496547 910.266667 "/>
  <path fill="#4572a7" d="M1097.041884 910.266667 L1097.041884 846.235852 L1136.152995 846.235852 L1136.152995 910.266667 "/>
  <path fill="#4572a7" d="M1130.698332 910.266667 L1130.698332 828.479407 L1169.809443 828.479407 L1169.809443 910.266667 "/>
  <path fill="#4572a7" d="M1164.35478 910.266667 L1164.35478 818.794074 L1203.465891 818.794074 L1203.465891 910.266667 "/>
  <path fill="#4572a7" d="M1198.011228 910.266667 L1198.011228 820.94637 L1237.122339 820.94637 L1237.122339 910.266667 "/>
  <path fill="#4572a7" d="M1231.667676 910.266667 L1231.667676 833.860148 L1270.778788 833.860148 L1270.778788 910.266667 "/>
  <path fill="#4572a7" d="M1265.324125 910.266667 L1265.324125 854.845037 L1304.435236 854.845037 L1304.435236 910.266667 "/>
  <path fill="#4572a7" d="M1298.980573 910.266667 L1298.980573 874.753778 L1338.091684 874.753778 L1338.091684 910.266667 "/>
  <path fill="#4572a7" d="M1332.637021 910.266667 L1332.637021 884.439111 L1371.748132 884.439111 L1371.748132 910.266667 "/>
  <path stroke-width="4.000000" stroke="#000000" fill="none" d="M2.666667 959.555556 L1436.333333 959.555556 "/>
  <path stroke-width="4.000000" stroke="#000000" fill="none" d="M1436.333333 959.555556 L1436.333333 977.333333 "/>
  <path stroke-width="4.000000" stroke="#000000" fill="none" d="M2.666667 977.333333 L1436.333333 977.333333 "/>
  <path stroke-width="4.000000" stroke="#000000" fill="none" d="M2.666667 959.555556 L2.666667 977.333333 "/>
</svg>