<svg xmlns="http://www.w3.org/2000/svg" width="1920.000000" height="1200.000000" viewBox="0 0 1920.0 1200.0">
  <rect width="1920.000000" height="1200.000000" fill="#ffffff"/>
  <path stroke-width="4.000000" stroke="#000000" fill="none" d="M0.0 0.0 L1920.0 0.0 "/>
  <path stroke-width="4.000000" stroke="#000000" fill="none" d="M1920.0 0.0 L1920.0 1200.0 "/>
  <path stroke-width="4.000000" stroke="#000000" fill="none" d="M0.0 1200.0 L1920.0 1200.0 "/>
  <path stroke-width="4.000000" stroke="#000000" fill="none" d="M0.0 0.0 L0.0 1200.0 "/>
  <path stroke-width="1.000000" stroke="#cccccc" fill="none" d="M1347.333333 2.666667 L1347.333333 1197.333333 "/>
  <path stroke-width="1.333333" stroke="#a8a8a8" fill="none" d="M1426.888889 381.777778 L1857.333333 381.777778 "/>
  <path stroke-width="1.333333" stroke="#a8a8a8" fill="none" d="M1426.888889 381.777778 L1426.888889 376.444444 "/>
  <path stroke-width="1.333333" stroke="#a8a8a8" fill="none" d="M1488.380955 381.777778 L1488.380955 376.444444 "/>
  <path stroke-width="1.333333" stroke="#a8a8a8" fill="none" d="M1549.873021 381.777778 L1549.873021 376.444444 "/>
  <path stroke-width="1.333333" stroke="#a8a8a8" fill="none" d="M1611.365094 381.777778 L1611.365094 376.444444 "/>
  <path stroke-width="1.333333" stroke="#a8a8a8" fill="none" d="M1672.857154 381.777778 L1672.857154 376.444444 "/>
  <path stroke-width="1.333333" stroke="#a8a8a8" fill="none" d="M1734.349214 381.777778 L1734.349214 376.444444 "/>
  <path stroke-width="1.333333" stroke="#a8a8a8" fill="none" d="M1795.841299 381.777778 L1795.841299 376.444444 "/>
  <path stroke-width="1.333333" stroke="#a8a8a8" fill="none" d="M1857.333333 381.777778 L1857.333333 376.444444 "/>
  <text x="1398.342014" y="407.511111" fill="#333333" font-size="14.666667" font-family="Arial,Helvetica,'Helvetica Neue',sans-serif">08:00:49</text>
  <text x="1459.834080" y="407.511111" fill="#333333" font-size="14.666667" font-family="Arial,Helvetica,'Helvetica Neue',sans-serif">08:01:06</text>
  <text x="1521.326146" y="407.511111" fill="#333333" font-size="14.666667" font-family="Arial,Helvetica,'Helvetica Neue',sans-serif">08:01:23</text>
  <text x="1582.818219" y="407.511111" fill="#333333" font-size="14.666667" font-family="Arial,Helvetica,'Helvetica Neue',sans-serif">08:01:40</text>
  <text x="1644.310279" y="407.511111" fill="#333333" font-size="14.666667" font-family="Arial,Helvetica,'Helvetica Neue',sans-serif">00:00:08</text>
  <text x="1705.802339" y="407.511111" fill="#333333" font-size="14.666667" font-family="Arial,Helvetica,'Helvetica Neue',sans-serif">00:00:25</text>
  <text x="1767.294424" y="407.511111" fill="#333333" font-size="14.666667" font-family="Arial,Helvetica,'Helvetica Neue',sans-serif">00:00:42</text>
  <text x="1828.786458" y="407.511111" fill="#333333" font-size="14.666667" font-family="Arial,Helvetica,'Helvetica Neue',sans-serif">00:01:00</text>
  <path stroke-width="1.333333" stroke="#a8a8a8" fill="none" d="M1426.888889 41.777778 L1426.888889 381.777778 "/>
  <path stroke-width="1.333333" stroke="#a8a8a8" fill="none" d="M1426.888889 381.777778 L1432.222222 381.777778 "/>
  <path stroke-width="1.333333" stroke="#a8a8a8" fill="none" d="M1426.888889 313.777778 L1432.222222 313.777778 "/>
  <path stroke-width="1.333333" stroke="#a8a8a8" fill="none" d="M1426.888889 245.777778 L1432.222222 245.777778 "/>
  <path stroke-width="1.333333" stroke="#a8a8a8" fill="none" d="M1426.888889 177.777778 L1432.222222 177.777778 "/>
  <path stroke-width="1.333333" stroke="#a8a8a8" fill="none" d="M1426.888889 109.777778 L1432.222222 109.777778 "/>
  <path stroke-width="1.333333" stroke="#a8a8a8" fill="none" d="M1426.888889 41.777778 L1432.222222 41.777778 "/>
  <text x="1381.718056" y="386.777778" fill="#333333" font-size="14.666667" font-family="Arial,Helvetica,'Helvetica Neue',sans-serif">-40.0</text>
  <text x="1381.718056" y="318.777778" fill="#333333" font-size="14.666667" font-family="Arial,Helvetica,'Helvetica Neue',sans-serif">-20.0</text>
  <text x="1394.764931" y="250.777778" fill="#333333" font-size="14.666667" font-family="Arial,Helvetica,'Helvetica Neue',sans-serif">0.0</text>
  <text x="1386.608681" y="182.777778" fill="#333333" font-size="14.666667" font-family="Arial,Helvetica,'Helvetica Neue',sans-serif">20.0</text>
  <text x="1386.608681" y="114.777778" fill="#333333" font-size="14.666667" font-family="Arial,Helvetica,'Helvetica Neue',sans-serif">40.0</text>
  <text x="1386.608681" y="46.777778" fill="#333333" font-size="14.666667" font-family="Arial,Helvetica,'Helvetica Neue',sans-serif">60.0</text>
  <path stroke-width="1.333333" stroke="#a8a8a8" fill="none" d="M1857.333333 41.777778 L1857.333333 381.777778 "/>
  <path stroke-width="1.333333" stroke="#a8a8a8" fill="none" d="M1857.333333 381.777778 L1852.0 381.777778 "/>
  <path stroke-width="1.333333" stroke="#a8a8a8" fill="none" d="M1857.333333 313.777778 L1852.0 313.777778 "/>
  <path stroke-width="1.333333" stroke="#a8a8a8" fill="none" d="M1857.333333 245.777778 L1852.0 245.777778 "/>
  <path stroke-width="1.333333" stroke="#a8a8a8" fill="none" d="M1857.333333 177.777778 L1852.0 177.777778 "/>
  <path stroke-width="1.333333" stroke="#a8a8a8" fill="none" d="M1857.333333 109.777778 L1852.0 109.777778 "/>
  <path stroke-width="1.333333" stroke="#a8a8a8" fill="none" d="M1857.333333 41.777778 L1852.0 41.777778 "/>
  <text x="1869.066667" y="386.777778" fill="#333333" font-size="14.666667" font-family="Arial,Helvetica,'Helvetica Neue',sans-serif">-40.0</text>
  <text x="1869.066667" y="318.777778" fill="#333333" font-size="14.666667" font-family="Arial,Helvetica,'Helvetica Neue',sans-serif">-20.0</text>
  <text x="1869.066667" y="250.777778" fill="#333333" font-size="14.666667" font-family="Arial,Helvetica,'Helvetica Neue',sans-serif">0.0</text>
  <text x="1869.066667" y="182.777778" fill="#333333" font-size="14.666667" font-family="Arial,Helvetica,'Helvetica Neue',sans-serif">20.0</text>
  <text x="1869.066667" y="114.777778" fill="#333333" font-size="14.666667" font-family="Arial,Helvetica,'Helvetica Neue',sans-serif">40.0</text>
  <text x="1869.066667" y="46.777778" fill="#333333" font-size="14.666667" font-family="Arial,Helvetica,'Helvetica Neue',sans-serif">60.0</text>
  <path stroke-width="1.000000" stroke="#e5e5e5" fill="none" d="M1426.888889 41.777778 L1426.888889 381.777778 "/>
  <path stroke-width="1.000000" stroke="#e5e5e5" fill="none" d="M1488.380955 41.777778 L1488.380955 381.777778 "/>
  <path stroke-width="1.000000" stroke="#e5e5e5" fill="none" d="M1549.873021 41.777778 L1549.873021 381.777778 "/>
  <path stroke-width="1.000000" stroke="#e5e5e5" fill="none" d="M1611.365094 41.777778 L1611.365094 381.777778 "/>
  <path stroke-width="1.000000" stroke="#e5e5e5" fill="none" d="M1672.857154 41.777778 L1672.857154 381.777778 "/>
  <path stroke-width="1.000000" stroke="#e5e5e5" fill="none" d="M1734.349214 41.777778 L1734.349214 381.777778 "/>
  <path stroke-width="1.000000" stroke="#e5e5e5" fill="none" d="M1795.841299 41.777778 L1795.841299 381.777778 "/>
  <path stroke-width="1.000000" stroke="#e5e5e5" fill="none" d="M1857.333333 41.777778 L1857.333333 381.777778 "/>
  <path stroke-width="1.000000" stroke="#e5e5e5" fill="none" d="M1426.888889 381.777778 L1857.333333 381.777778 "/>
  <path stroke-width="1.000000" stroke="#e5e5e5" fill="none" d="M1426.888889 333.206347 L1857.333333 333.206347 "/>
  <path stroke-width="1.000000" stroke="#e5e5e5" fill="none" d="M1426.888889 284.634916 L1857.333333 284.634916 "/>
  <path stroke-width="1.000000" stroke="#e5e5e5" fill="none" d="M1426.888889 236.06348 L1857.333333 236.06348 "/>
  <path stroke-width="1.000000" stroke="#e5e5e5" fill="none" d="M1426.888889 187.492055 L1857.333333 187.492055 "/>
  <path stroke-width="1.000000" stroke="#e5e5e5" fill="none" d="M1426.888889 138.920629 L1857.333333 138.920629 "/>
  <path stroke-width="1.000000" stroke="#e5e5e5" fill="none" d="M1426.888889 90.349183 L1857.333333 90.349183 "/>
  <path stroke-width="1.000000" stroke="#e5e5e5" fill="none" d="M1426.888889 41.777778 L1857.333333 41.777778 "/>
  <path fill="#4572a7" d="M1682.981481 130.177778 M1672.981481 130.177778 a5.0 5.0 0 1 0 10.0 0 a5.0 5.0 0 1 0 -10.0 0 "/>
  <path fill="#aa4643" d="M1718.916667 306.977778 M1672.916667 306.977778 a23.0 23.0 0 1 0 46.0 0 a23.0 23.0 0 1 0 -46.0 0 "/>
  <path fill="#4572a7" d="M1724.851852 99.577778 M1702.851852 99.577778 a11.0 11.0 0 1 0 22.0 0 a11.0 11.0 0 1 0 -22.0 0 "/>
  <path fill="#aa4643" d="M1758.722222 310.377778 M1740.722222 310.377778 a9.0 9.0 0 1 0 18.0 0 a9.0 9.0 0 1 0 -18.0 0 "/>
  <path fill="#4572a7" d="M1799.592593 160.777778 M1771.592593 160.777778 a14.0 14.0 0 1 0 28.0 0 a14.0 14.0 0 1 0 -28.0 0 "/>
  <path fill="#aa4643" d="M1829.462963 133.577778 M1813.462963 133.577778 a8.0 8.0 0 1 0 16.0 0 a8.0 8.0 0 1 0 -16.0 0 "/>
  <path fill="#4572a7" d="M1611.240741 130.177778 M1601.240741 130.177778 a5.0 5.0 0 1 0 10.0 0 a5.0 5.0 0 1 0 -10.0 0 "/>
  <path fill="#aa4643" d="M1596.305556 184.577778 M1580.305556 184.577778 a8.0 8.0 0 1 0 16.0 0 a8.0 8.0 0 1 0 -16.0 0 "/>
  <path fill="#4572a7" d="M1593.37037 259.377778 M1547.37037 259.377778 a23.0 23.0 0 1 0 46.0 0 a23.0 23.0 0 1 0 -46.0 0 "/>
  <path fill="#aa4643" d="M1536.5 181.177778 M1532.5 181.177778 a2.0 2.0 0 1 0 4.0 0 a2.0 2.0 0 1 0 -4.0 0 "/>
  <path fill="#4572a7" d="M1502.62963 330.777778 M1494.62963 330.777778 a4.0 4.0 0 1 0 8.0 0 a4.0 4.0 0 1 0 -8.0 0 "/>
  <path fill="#aa4643" d="M1479.759259 323.977778 M1445.759259 323.977778 a17.0 17.0 0 1 0 34.0 0 a17.0 17.0 0 1 0 -34.0 0 "/>
  <text x="1673.903356" y="115.311111" fill="#000000" font-size="14.666667" font-family="Arial,Helvetica,'Helvetica Neue',sans-serif">5</text>
  <text x="1687.760417" y="274.111111" fill="#000000" font-size="14.666667" font-family="Arial,Helvetica,'Helvetica Neue',sans-serif">23</text>
  <text x="1706.242477" y="78.711111" fill="#000000" font-size="14.666667" font-family="Arial,Helvetica,'Helvetica Neue',sans-serif">11</text>
  <text x="1745.644097" y="291.511111" fill="#000000" font-size="14.666667" font-family="Arial,Helvetica,'Helvetica Neue',sans-serif">9</text>
  <text x="1777.436343" y="136.911111" fill="#000000" font-size="14.666667" font-family="Arial,Helvetica,'Helvetica Neue',sans-serif">14</text>
  <text x="1817.384838" y="115.711111" fill="#000000" font-size="14.666667" font-family="Arial,Helvetica,'Helvetica Neue',sans-serif">8</text>
  <text x="1602.162616" y="115.311111" fill="#000000" font-size="14.666667" font-family="Arial,Helvetica,'Helvetica Neue',sans-serif">5</text>
  <text x="1584.227431" y="166.711111" fill="#000000" font-size="14.666667" font-family="Arial,Helvetica,'Helvetica Neue',sans-serif">8</text>
  <text x="1562.214120" y="226.511111" fill="#000000" font-size="14.666667" font-family="Arial,Helvetica,'Helvetica Neue',sans-serif">23</text>
  <text x="1530.421875" y="169.311111" fill="#000000" font-size="14.666667" font-family="Arial,Helvetica,'Helvetica Neue',sans-serif">2</text>
  <text x="1494.551505" y="316.911111" fill="#000000" font-size="14.666667" font-family="Arial,Helvetica,'Helvetica Neue',sans-serif">4</text>
  <text x="1454.603009" y="297.111111" fill="#000000" font-size="14.666667" font-family="Arial,Helvetica,'Helvetica Neue',sans-serif">17</text>
  <path stroke-width="1.333333" stroke="#a8a8a8" fill="none" d="M1426.888889 781.777778 L1857.333333 781.777778 "/>
  <path stroke-width="1.333333" stroke="#a8a8a8" fill="none" d="M1426.888889 781.777778 L1426.888889 776.444444 "/>
  <path stroke-width="1.333333" stroke="#a8a8a8" fill="none" d="M1488.380955 781.777778 L1488.380955 776.444444 "/>
  <path stroke-width="1.333333" stroke="#a8a8a8" fill="none" d="M1549.873021 781.777778 L1549.873021 776.444444 "/>
  <path stroke-width="1.333333" stroke="#a8a8a8" fill="none" d="M1611.365094 781.777778 L1611.365094 776.444444 "/>
  <path stroke-width="1.333333" stroke="#a8a8a8" fill="none" d="M1672.857154 781.777778 L1672.857154 776.444444 "/>
  <path stroke-width="1.333333" stroke="#a8a8a8" fill="none" d="M1734.349214 781.777778 L1734.349214 776.444444 "/>
  <path stroke-width="1.333333" stroke="#a8a8a8" fill="none" d="M1795.841299 781.777778 L1795.841299 776.444444 "/>
  <path stroke-width="1.333333" stroke="#a8a8a8" fill="none" d="M1857.333333 781.777778 L1857.333333 776.444444 "/>
  <text x="1398.342014" y="807.511111" fill="#333333" font-size="14.666667" font-family="Arial,Helvetica,'Helvetica Neue',sans-serif">05:15:44</text>
  <text x="1459.834080" y="807.511111" fill="#333333" font-size="14.666667" font-family="Arial,Helvetica,'Helvetica Neue',sans-serif">06:06:56</text>
  <text x="1521.326146" y="807.511111" fill="#333333" font-size="14.666667" font-family="Arial,Helvetica,'Helvetica Neue',sans-serif">06:58:08</text>
  <text x="1582.818219" y="807.511111" fill="#333333" font-size="14.666667" font-family="Arial,Helvetica,'Helvetica Neue',sans-serif">07:49:20</text>
  <text x="1644.310279" y="807.511111" fill="#333333" font-size="14.666667" font-family="Arial,Helvetica,'Helvetica Neue',sans-serif">08:40:32</text>
  <text x="1705.802339" y="807.511111" fill="#333333" font-size="14.666667" font-family="Arial,Helvetica,'Helvetica Neue',sans-serif">09:31:44</text>
  <text x="1767.294424" y="807.511111" fill="#333333" font-size="14.666667" font-family="Arial,Helvetica,'Helvetica Neue',sans-serif">10:22:56</text>
  <text x="1829.333333" y="807.511111" fill="#333333" font-size="14.666667" font-family="Arial,Helvetica,'Helvetica Neue',sans-serif">11:14:08</text>
  <path stroke-width="1.333333" stroke="#a8a8a8" fill="none" d="M1426.888889 441.777778 L1426.888889 781.777778 "/>
  <path stroke-width="1.333333" stroke="#a8a8a8" fill="none" d="M1426.888889 781.777778 L1432.222222 781.777778 "/>
  <path stroke-width="1.333333" stroke="#a8a8a8" fill="none" d="M1426.888889 733.206349 L1432.222222 733.206349 "/>
  <path stroke-width="1.333333" stroke="#a8a8a8" fill="none" d="M1426.888889 684.634921 L1432.222222 684.634921 "/>
  <path stroke-width="1.333333" stroke="#a8a8a8" fill="none" d="M1426.888889 636.063492 L1432.222222 636.063492 "/>
  <path stroke-width="1.333333" stroke="#a8a8a8" fill="none" d="M1426.888889 587.492063 L1432.222222 587.492063 "/>
  <path stroke-width="1.333333" stroke="#a8a8a8" fill="none" d="M1426.888889 538.920635 L1432.222222 538.920635 "/>
  <path stroke-width="1.333333" stroke="#a8a8a8" fill="none" d="M1426.888889 490.349206 L1432.222222 490.349206 "/>
  <path stroke-width="1.333333" stroke="#a8a8a8" fill="none" d="M1426.888889 441.777778 L1432.222222 441.777778 "/>
  <text x="1394.764931" y="786.777778" fill="#333333" font-size="14.666667" font-family="Arial,Helvetica,'Helvetica Neue',sans-serif">0.0</text>
  <text x="1386.608681" y="738.206349" fill="#333333" font-size="14.666667" font-family="Arial,Helvetica,'Helvetica Neue',sans-serif">20.0</text>
  <text x="1386.608681" y="689.634921" fill="#333333" font-size="14.666667" font-family="Arial,Helvetica,'Helvetica Neue',sans-serif">40.0</text>
  <text x="1386.608681" y="641.063492" fill="#333333" font-size="14.666667" font-family="Arial,Helvetica,'Helvetica Neue',sans-serif">60.0</text>
  <text x="1386.608681" y="592.492063" fill="#333333" font-size="14.666667" font-family="Arial,Helvetica,'Helvetica Neue',sans-serif">80.0</text>
  <text x="1378.452431" y="543.920635" fill="#333333" font-size="14.666667" font-family="Arial,Helvetica,'Helvetica Neue',sans-serif">100.0</text>
  <text x="1378.452431" y="495.349206" fill="#333333" font-size="14.666667" font-family="Arial,Helvetica,'Helvetica Neue',sans-serif">120.0</text>
  <text x="1378.452431" y="446.777778" fill="#333333" font-size="14.666667" font-family="Arial,Helvetica,'Helvetica Neue',sans-serif">140.0</text>
  <path stroke-width="1.333333" stroke="#a8a8a8" fill="none" d="M1857.333333 441.777778 L1857.333333 781.777778 "/>
  <path stroke-width="1.333333" stroke="#a8a8a8" fill="none" d="M1857.333333 781.777778 L1852.0 781.777778 "/>
  <path stroke-width="1.333333" stroke="#a8a8a8" fill="none" d="M1857.333333 733.206349 L1852.0 733.206349 "/>
  <path stroke-width="1.333333" stroke="#a8a8a8" fill="none" d="M1857.333333 684.634921 L1852.0 684.634921 "/>
  <path stroke-width="1.333333" stroke="#a8a8a8" fill="none" d="M1857.333333 636.063492 L1852.0 636.063492 "/>
  <path stroke-width="1.333333" stroke="#a8a8a8" fill="none" d="M1857.333333 587.492063 L1852.0 587.492063 "/>
  <path stroke-width="1.333333" stroke="#a8a8a8" fill="none" d="M1857.333333 538.920635 L1852.0 538.920635 "/>
  <path stroke-width="1.333333" stroke="#a8a8a8" fill="none" d="M1857.333333 490.349206 L1852.0 490.349206 "/>
  <path stroke-width="1.333333" stroke="#a8a8a8" fill="none" d="M1857.333333 441.777778 L1852.0 441.777778 "/>
  <text x="1869.066667" y="786.777778" fill="#333333" font-size="14.666667" font-family="Arial,Helvetica,'Helvetica Neue',sans-serif">0.0</text>
  <text x="1869.066667" y="738.206349" fill="#333333" font-size="14.666667" font-family="Arial,Helvetica,'Helvetica Neue',sans-serif">20.0</text>
  <text x="1869.066667" y="689.634921" fill="#333333" font-size="14.666667" font-family="Arial,Helvetica,'Helvetica Neue',sans-serif">40.0</text>
  <text x="1869.066667" y="641.063492" fill="#333333" font-size="14.666667" font-family="Arial,Helvetica,'Helvetica Neue',sans-serif">60.0</text>
  <text x="1869.066667" y="592.492063" fill="#333333" font-size="14.666667" font-family="Arial,Helvetica,'Helvetica Neue',sans-serif">80.0</text>
  <text x="1869.066667" y="543.920635" fill="#333333" font-size="14.666667" font-family="Arial,Helvetica,'Helvetica Neue',sans-serif">100.0</text>
  <text x="1869.066667" y="495.349206" fill="#333333" font-size="14.666667" font-family="Arial,Helvetica,'Helvetica Neue',sans-serif">120.0</text>
  <text x="1869.066667" y="446.777778" fill="#333333" font-size="14.666667" font-family="Arial,Helvetica,'Helvetica Neue',sans-serif">140.0</text>
  <path stroke-width="1.000000" stroke="#e5e5e5" fill="none" d="M1426.888889 441.777778 L1426.888889 781.777778 "/>
  <path stroke-width="1.000000" stroke="#e5e5e5" fill="none" d="M1488.380955 441.777778 L1488.380955 781.777778 "/>
  <path stroke-width="1.000000" stroke="#e5e5e5" fill="none" d="M1549.873021 441.777778 L1549.873021 781.777778 "/>
  <path stroke-width="1.000000" stroke="#e5e5e5" fill="none" d="M1611.365094 441.777778 L1611.365094 781.777778 "/>
  <path stroke-width="1.000000" stroke="#e5e5e5" fill="none" d="M1672.857154 441.777778 L1672.857154 781.777778 "/>
  <path stroke-width="1.000000" stroke="#e5e5e5" fill="none" d="M1734.349214 441.777778 L1734.349214 781.777778 "/>
  <path stroke-width="1.000000" stroke="#e5e5e5" fill="none" d="M1795.841299 441.777778 L1795.841299 781.777778 "/>
  <path stroke-width="1.000000" stroke="#e5e5e5" fill="none" d="M1857.333333 441.777778 L1857.333333 781.777778 "/>
  <path stroke-width="1.000000" stroke="#e5e5e5" fill="none" d="M1426.888889 781.777778 L1857.333333 781.777778 "/>
  <path stroke-width="1.000000" stroke="#e5e5e5" fill="none" d="M1426.888889 733.206347 L1857.333333 733.206347 "/>
  <path stroke-width="1.000000" stroke="#e5e5e5" fill="none" d="M1426.888889 684.634916 L1857.333333 684.634916 "/>
  <path stroke-width="1.000000" stroke="#e5e5e5" fill="none" d="M1426.888889 636.06348 L1857.333333 636.06348 "/>
  <path stroke-width="1.000000" stroke="#e5e5e5" fill="none" d="M1426.888889 587.492055 L1857.333333 587.492055 "/>
  <path stroke-width="1.000000" stroke="#e5e5e5" fill="none" d="M1426.888889 538.920629 L1857.333333 538.920629 "/>
  <path stroke-width="1.000000" stroke="#e5e5e5" fill="none" d="M1426.888889 490.349183 L1857.333333 490.349183 "/>
  <path stroke-width="1.000000" stroke="#e5e5e5" fill="none" d="M1426.888889 441.777778 L1857.333333 441.777778 "/>
  <path fill="#0066cc" d="M1426.888889 705.302496 L1432.013228 711.673071 L1438.018312 762.779005 L1444.023396 760.465624 L1450.02848 749.697922 L1456.033565 774.234875 L1462.038649 776.021448 L1468.043733 760.513703 L1474.048818 745.942689 L1480.053902 775.483334 L1486.058986 757.571515 L1492.064071 764.364182 L1498.069155 725.416404 L1504.074239 737.830105 L1510.079324 754.29696 L1516.084408 735.249063 L1522.089492 757.43814 L1528.094577 766.890766 L1534.099661 774.667847 L1540.104745 774.977156 L1546.10983 774.938309 L1552.114914 739.38078 L1558.119998 603.706129 L1564.125083 500.35913 L1570.130167 505.228136 L1576.135251 514.101241 L1582.140336 634.753853 L1588.14542 666.970778 L1594.150504 727.611858 L1600.155589 759.060061 L1606.160673 770.138854 L1612.165757 767.228564 L1618.170842 770.76937 L1624.175926 767.249821 L1630.18101 732.306781 L1636.186095 729.249245 L1642.191179 728.010034 L1648.196263 714.381353 L1654.201348 720.646207 L1660.206432 731.39544 L1666.211516 726.301162 L1672.216601 708.897604 L1678.221685 681.972469 L1684.226769 685.021949 L1690.231854 667.317244 L1696.236938 695.242828 L1702.242022 707.701318 L1708.247106 736.542969 L1714.252191 721.544662 L1720.257275 671.857412 L1726.262359 662.316414 L1732.267444 686.232901 L1738.272528 691.188323 L1744.277612 684.349599 L1750.282697 671.663638 L1756.287781 722.008448 L1762.292865 738.35437 L1768.29795 693.364577 L1774.303034 722.637306 L1780.308118 755.303015 L1786.313203 751.891573 L1792.318287 718.038422 L1798.323371 743.194148 L1804.328456 745.878559 L1810.33354 750.898941 L1816.338624 745.581816 L1822.343709 750.607388 L1828.348793 731.797893 L1834.353877 748.274282 L1840.358962 737.987709 L1846.364046 727.67796 L1852.36913 736.807787 L1857.333333 755.099606 L1857.333333 781.777778 L1852.36913 781.777778 L1846.364046 781.777778 L1840.358962 781.777778 L1834.353877 781.777778 L1828.348793 781.777778 L1822.343709 781.777778 L1816.338624 781.777778 L1810.33354 781.777778 L1804.328456 781.777778 L1798.323371 781.777778 L1792.318287 781.777778 L1786.313203 781.777778 L1780.308118 781.777778 L1774.303034 781.777778 L1768.29795 781.777778 L1762.292865 781.777778 L1756.287781 781.777778 L1750.282697 781.777778 L1744.277612 781.777778 L1738.272528 781.777778 L1732.267444 781.777778 L1726.262359 781.777778 L1720.257275 781.777778 L1714.252191 781.777778 L1708.247106 781.777778 L1702.242022 781.777778 L1696.236938 781.777778 L1690.231854 781.777778 L1684.226769 781.777778 L1678.221685 781.777778 L1672.216601 781.777778 L1666.211516 781.777778 L1660.206432 781.777778 L1654.201348 781.777778 L1648.196263 781.777778 L1642.191179 781.777778 L1636.186095 781.777778 L1630.18101 781.777778 L1624.175926 781.777778 L1618.170842 781.777778 L1612.165757 781.777778 L1606.160673 781.777778 L1600.155589 781.777778 L1594.150504 781.777778 L1588.14542 781.777778 L1582.140336 781.777778 L1576.135251 781.777778 L1570.130167 781.777778 L1564.125083 781.777778 L1558.119998 781.777778 L1552.114914 781.777778 L1546.10983 781.777778 L1540.104745 781.777778 L1534.099661 781.777778 L1528.094577 781.777778 L1522.089492 781.777778 L1516.084408 781.777778 L1510.079324 781.777778 L1504.074239 781.777778 L1498.069155 781.777778 L1492.064071 781.777778 L1486.058986 781.777778 L1480.053902 781.777778 L1474.048818 781.777778 L1468.043733 781.777778 L1462.038649 781.777778 L1456.033565 781.777778 L1450.02848 781.777778 L1444.023396 781.777778 L1438.018312 781.777778 L1432.013228 781.777778 L1426.888889 781.777778 "/>
  <path fill="#eeeeee" d="M2.666667 2.666667 L1347.333333 2.666667 L1347.333333 102.666667 L2.666667 102.666667 L2.666667 2.666667 "/>
  <path stroke-width="1.000000" stroke="#cccccc" fill="none" d="M2.666667 102.666667 L1347.333333 102.666667 "/>
  <path stroke-width="1.000000" stroke="#cccccc" fill="none" d="M2.666667 352.666667 L1347.333333 352.666667 "/>
  <path stroke-width="1.333333" stroke="#a8a8a8" fill="none" d="M77.333333 303.377778 L462.666667 303.377778 "/>
  <path stroke-width="1.333333" stroke="#a8a8a8" fill="none" d="M104.857143 303.377778 L104.857143 298.044444 "/>
  <path stroke-width="1.333333" stroke="#a8a8a8" fill="none" d="M159.904762 303.377778 L159.904762 298.044444 "/>
  <path stroke-width="1.333333" stroke="#a8a8a8" fill="none" d="M214.952381 303.377778 L214.952381 298.044444 "/>
  <path stroke-width="1.333333" stroke="#a8a8a8" fill="none" d="M270.0 303.377778 L270.0 298.044444 "/>
  <path stroke-width="1.333333" stroke="#a8a8a8" fill="none" d="M325.047619 303.377778 L325.047619 298.044444 "/>
  <path stroke-width="1.333333" stroke="#a8a8a8" fill="none" d="M380.095238 303.377778 L380.095238 298.044444 "/>
  <path stroke-width="1.333333" stroke="#a8a8a8" fill="none" d="M435.142857 303.377778 L435.142857 298.044444 "/>
  <text x="92.216518" y="329.111111" fill="#333333" font-size="14.666667" font-family="Arial,Helvetica,'Helvetica Neue',sans-serif">-3.0</text>
  <text x="147.264137" y="329.111111" fill="#333333" font-size="14.666667" font-family="Arial,Helvetica,'Helvetica Neue',sans-serif">-2.0</text>
  <text x="202.311756" y="329.111111" fill="#333333" font-size="14.666667" font-family="Arial,Helvetica,'Helvetica Neue',sans-serif">-1.0</text>
  <text x="259.804688" y="329.111111" fill="#333333" font-size="14.666667" font-family="Arial,Helvetica,'Helvetica Neue',sans-serif">0.0</text>
  <text x="314.852307" y="329.111111" fill="#333333" font-size="14.666667" font-family="Arial,Helvetica,'Helvetica Neue',sans-serif">1.0</text>
  <text x="369.899926" y="329.111111" fill="#333333" font-size="14.666667" font-family="Arial,Helvetica,'Helvetica Neue',sans-serif">2.0</text>
  <text x="424.947545" y="329.111111" fill="#333333" font-size="14.666667" font-family="Arial,Helvetica,'Helvetica Neue',sans-serif">3.0</text>
  <path stroke-width="1.333333" stroke="#a8a8a8" fill="none" d="M77.333333 151.955556 L77.333333 303.377778 "/>
  <path stroke-width="1.333333" stroke="#a8a8a8" fill="none" d="M77.333333 303.377778 L82.666667 303.377778 "/>
  <path stroke-width="1.333333" stroke="#a8a8a8" fill="none" d="M77.333333 275.846465 L82.666667 275.846465 "/>
  <path stroke-width="1.333333" stroke="#a8a8a8" fill="none" d="M77.333333 248.315152 L82.666667 248.315152 "/>
  <path stroke-width="1.333333" stroke="#a8a8a8" fill="none" d="M77.333333 220.783838 L82.666667 220.783838 "/>
  <path stroke-width="1.333333" stroke="#a8a8a8" fill="none" d="M77.333333 193.252525 L82.666667 193.252525 "/>
  <path stroke-width="1.333333" stroke="#a8a8a8" fill="none" d="M77.333333 165.721212 L82.666667 165.721212 "/>
  <text x="45.209375" y="308.377778" fill="#333333" font-size="14.666667" font-family="Arial,Helvetica,'Helvetica Neue',sans-serif">0.0</text>
  <text x="37.053125" y="280.846465" fill="#333333" font-size="14.666667" font-family="Arial,Helvetica,'Helvetica Neue',sans-serif">10.0</text>
  <text x="37.053125" y="253.315152" fill="#333333" font-size="14.666667" font-family="Arial,Helvetica,'Helvetica Neue',sans-serif">20.0</text>
  <text x="37.053125" y="225.783838" fill="#333333" font-size="14.666667" font-family="Arial,Helvetica,'Helvetica Neue',sans-serif">30.0</text>
  <text x="37.053125" y="198.252525" fill="#333333" font-size="14.666667" font-family="Arial,Helvetica,'Helvetica Neue',sans-serif">40.0</text>
  <text x="37.053125" y="170.721212" fill="#333333" font-size="14.666667" font-family="Arial,Helvetica,'Helvetica Neue',sans-serif">50.0</text>
  <path stroke-width="1.333333" stroke="#a8a8a8" fill="none" d="M77.333333 151.955556 L462.666667 151.955556 "/>
  <path stroke-width="1.333333" stroke="#a8a8a8" fill="none" d="M77.333333 151.955556 L77.333333 157.288889 "/>
  <path stroke-width="1.333333" stroke="#a8a8a8" fill="none" d="M132.380955 151.955556 L132.380955 157.288889 "/>
  <path stroke-width="1.333333" stroke="#a8a8a8" fill="none" d="M187.428576 151.955556 L187.428576 157.288889 "/>
  <path stroke-width="1.333333" stroke="#a8a8a8" fill="none" d="M242.476204 151.955556 L242.476204 157.288889 "/>
  <path stroke-width="1.333333" stroke="#a8a8a8" fill="none" d="M297.523819 151.955556 L297.523819 157.288889 "/>
  <path stroke-width="1.333333" stroke="#a8a8a8" fill="none" d="M352.571435 151.955556 L352.571435 157.288889 "/>
  <path stroke-width="1.333333" stroke="#a8a8a8" fill="none" d="M407.619074 151.955556 L407.619074 157.288889 "/>
  <path stroke-width="1.333333" stroke="#a8a8a8" fill="none" d="M462.666667 151.955556 L462.666667 157.288889 "/>
  <text x="64.692708" y="136.222222" fill="#333333" font-size="14.666667" font-family="Arial,Helvetica,'Helvetica Neue',sans-serif">-3.5</text>
  <text x="119.740330" y="136.222222" fill="#333333" font-size="14.666667" font-family="Arial,Helvetica,'Helvetica Neue',sans-serif">-2.5</text>
  <text x="174.787951" y="136.222222" fill="#333333" font-size="14.666667" font-family="Arial,Helvetica,'Helvetica Neue',sans-serif">-1.5</text>
  <text x="229.835579" y="136.222222" fill="#333333" font-size="14.666667" font-family="Arial,Helvetica,'Helvetica Neue',sans-serif">-0.5</text>
  <text x="287.328507" y="136.222222" fill="#333333" font-size="14.666667" font-family="Arial,Helvetica,'Helvetica Neue',sans-serif">0.5</text>
  <text x="342.376123" y="136.222222" fill="#333333" font-size="14.666667" font-family="Arial,Helvetica,'Helvetica Neue',sans-serif">1.5</text>
  <text x="397.423761" y="136.222222" fill="#333333" font-size="14.666667" font-family="Arial,Helvetica,'Helvetica Neue',sans-serif">2.5</text>
  <text x="452.471354" y="136.222222" fill="#333333" font-size="14.666667" font-family="Arial,Helvetica,'Helvetica Neue',sans-serif">3.5</text>
  <path fill="#4572a7" d="M106.990476 303.377778 L106.990476 275.846465 L118.72381 275.846465 L118.72381 303.377778 "/>
  <path fill="#4572a7" d="M162.038095 303.377778 L162.038095 226.290101 L173.771429 226.290101 L173.771429 303.377778 "/>
  <path fill="#4572a7" d="M217.085714 303.377778 L217.085714 248.315152 L228.819048 248.315152 L228.819048 303.377778 "/>
  <path fill="#4572a7" d="M272.133333 303.377778 L272.133333 231.796364 L283.866667 231.796364 L283.866667 303.377778 "/>
  <path fill="#4572a7" d="M327.180952 303.377778 L327.180952 190.499394 L338.914286 190.499394 L338.914286 303.377778 "/>
  <path fill="#4572a7" d="M382.228571 303.377778 L382.228571 182.24 L393.961905 182.24 L393.961905 303.377778 "/>
  <path fill="#4572a7" d="M437.27619 303.377778 L437.27619 201.511919 L449.009524 201.511919 L449.009524 303.377778 "/>
  <path fill="#aa4643" d="M90.990476 303.377778 L90.990476 270.340202 L102.72381 270.340202 L102.72381 303.377778 "/>
  <path fill="#aa4643" d="M146.038095 303.377778 L146.038095 251.068283 L157.771429 251.068283 L157.771429 303.377778 "/>
  <path fill="#aa4643" d="M201.085714 303.377778 L201.085714 240.055758 L212.819048 240.055758 L212.819048 303.377778 "/>
  <path fill="#aa4643" d="M256.133333 303.377778 L256.133333 220.783838 L267.866667 220.783838 L267.866667 303.377778 "/>
  <path fill="#aa4643" d="M311.180952 303.377778 L311.180952 207.018182 L322.914286 207.018182 L322.914286 303.377778 "/>
  <path fill="#aa4643" d="M366.228571 303.377778 L366.228571 184.993131 L377.961905 184.993131 L377.961905 303.377778 "/>
  <path fill="#aa4643" d="M421.27619 303.377778 L421.27619 212.524444 L433.009524 212.524444 L433.009524 303.377778 "/>
  <path fill="#4572a7" d="M120.033333 182.755556 M110.033333 182.755556 a5.0 5.0 0 1 0 10.0 0 a5.0 5.0 0 1 0 -10.0 0 "/>
  <text x="126.533333" y="187.755556" fill="#333333" font-size="14.666667" font-family="Arial,Helvetica,'Helvetica Neue',sans-serif">A</text>
  <path fill="#aa4643" d="M179.014583 182.755556 M169.014583 182.755556 a5.0 5.0 0 1 0 10.0 0 a5.0 5.0 0 1 0 -10.0 0 "/>
  <text x="185.514583" y="187.755556" fill="#333333" font-size="14.666667" font-family="Arial,Helvetica,'Helvetica Neue',sans-serif">B</text>
  <path stroke-width="1.333333" stroke="#a8a8a8" fill="none" d="M477.333333 303.377778 L848.0 303.377778 "/>
  <path stroke-width="1.333333" stroke="#a8a8a8" fill="none" d="M477.333333 303.377778 L477.333333 298.044444 "/>
  <path stroke-width="1.333333" stroke="#a8a8a8" fill="none" d="M530.285714 303.377778 L530.285714 298.044444 "/>
  <path stroke-width="1.333333" stroke="#a8a8a8" fill="none" d="M530.285714 303.377778 L530.285714 298.044444 "/>
  <path stroke-width="1.333333" stroke="#a8a8a8" fill="none" d="M583.238095 303.377778 L583.238095 298.044444 "/>
  <path stroke-width="1.333333" stroke="#a8a8a8" fill="none" d="M583.238095 303.377778 L583.238095 298.044444 "/>
  <path stroke-width="1.333333" stroke="#a8a8a8" fill="none" d="M636.190476 303.377778 L636.190476 298.044444 "/>
  <path stroke-width="1.333333" stroke="#a8a8a8" fill="none" d="M636.190476 303.377778 L636.190476 298.044444 "/>
  <path stroke-width="1.333333" stroke="#a8a8a8" fill="none" d="M689.142857 303.377778 L689.142857 298.044444 "/>
  <path stroke-width="1.333333" stroke="#a8a8a8" fill="none" d="M689.142857 303.377778 L689.142857 298.044444 "/>
  <path stroke-width="1.333333" stroke="#a8a8a8" fill="none" d="M742.095238 303.377778 L742.095238 298.044444 "/>
  <path stroke-width="1.333333" stroke="#a8a8a8" fill="none" d="M742.095238 303.377778 L742.095238 298.044444 "/>
  <path stroke-width="1.333333" stroke="#a8a8a8" fill="none" d="M795.047619 303.377778 L795.047619 298.044444 "/>
  <path stroke-width="1.333333" stroke="#a8a8a8" fill="none" d="M795.047619 303.377778 L795.047619 298.044444 "/>
  <path stroke-width="1.333333" stroke="#a8a8a8" fill="none" d="M848.0 303.377778 L848.0 298.044444 "/>
  <path stroke-width="1.333333" stroke="#a8a8a8" fill="none" d="M848.0 303.377778 L848.0 298.044444 "/>
  <text x="498.918899" y="329.111111" fill="#333333" font-size="14.666667" font-family="Arial,Helvetica,'Helvetica Neue',sans-serif">A</text>
  <text x="551.871280" y="329.111111" fill="#333333" font-size="14.666667" font-family="Arial,Helvetica,'Helvetica Neue',sans-serif">B</text>
  <text x="604.417411" y="329.111111" fill="#333333" font-size="14.666667" font-family="Arial,Helvetica,'Helvetica Neue',sans-serif">C</text>
  <text x="657.369792" y="329.111111" fill="#333333" font-size="14.666667" font-family="Arial,Helvetica,'Helvetica Neue',sans-serif">D</text>
  <text x="710.728423" y="329.111111" fill="#333333" font-size="14.666667" font-family="Arial,Helvetica,'Helvetica Neue',sans-serif">E</text>
  <text x="764.087054" y="329.111111" fill="#333333" font-size="14.666667" font-family="Arial,Helvetica,'Helvetica Neue',sans-serif">F</text>
  <text x="815.820685" y="329.111111" fill="#333333" font-size="14.666667" font-family="Arial,Helvetica,'Helvetica Neue',sans-serif">G</text>
  <path stroke-width="1.333333" stroke="#a8a8a8" fill="none" d="M477.333333 151.955556 L848.0 151.955556 "/>
  <path stroke-width="1.333333" stroke="#a8a8a8" fill="none" d="M477.333333 151.955556 L477.333333 157.288889 "/>
  <path stroke-width="1.333333" stroke="#a8a8a8" fill="none" d="M530.285717 151.955556 L530.285717 157.288889 "/>
  <path stroke-width="1.333333" stroke="#a8a8a8" fill="none" d="M583.2381 151.955556 L583.2381 157.288889 "/>
  <path stroke-width="1.333333" stroke="#a8a8a8" fill="none" d="M636.190489 151.955556 L636.190489 157.288889 "/>
  <path stroke-width="1.333333" stroke="#a8a8a8" fill="none" d="M689.142867 151.955556 L689.142867 157.288889 "/>
  <path stroke-width="1.333333" stroke="#a8a8a8" fill="none" d="M742.095244 151.955556 L742.095244 157.288889 "/>
  <path stroke-width="1.333333" stroke="#a8a8a8" fill="none" d="M795.047644 151.955556 L795.047644 157.288889 "/>
  <path stroke-width="1.333333" stroke="#a8a8a8" fill="none" d="M848.0 151.955556 L848.0 157.288889 "/>
  <text x="464.692708" y="136.222222" fill="#333333" font-size="14.666667" font-family="Arial,Helvetica,'Helvetica Neue',sans-serif">-0.5</text>
  <text x="520.090404" y="136.222222" fill="#333333" font-size="14.666667" font-family="Arial,Helvetica,'Helvetica Neue',sans-serif">0.5</text>
  <text x="573.042787" y="136.222222" fill="#333333" font-size="14.666667" font-family="Arial,Helvetica,'Helvetica Neue',sans-serif">1.5</text>
  <text x="625.995176" y="136.222222" fill="#333333" font-size="14.666667" font-family="Arial,Helvetica,'Helvetica Neue',sans-serif">2.5</text>
  <text x="678.947554" y="136.222222" fill="#333333" font-size="14.666667" font-family="Arial,Helvetica,'Helvetica Neue',sans-serif">3.5</text>
  <text x="731.899932" y="136.222222" fill="#333333" font-size="14.666667" font-family="Arial,Helvetica,'Helvetica Neue',sans-serif">4.5</text>
  <text x="784.852332" y="136.222222" fill="#333333" font-size="14.666667" font-family="Arial,Helvetica,'Helvetica Neue',sans-serif">5.5</text>
  <text x="837.804688" y="136.222222" fill="#333333" font-size="14.666667" font-family="Arial,Helvetica,'Helvetica Neue',sans-serif">6.5</text>
  <path fill="#4572a7" d="M503.809524 289.612121 L556.761905 240.055758 L609.714286 262.080808 L662.666667 245.56202 L715.619048 204.265051 L768.571429 196.005657 L821.52381 215.277576 L821.52381 303.377778 L768.571429 303.377778 L715.619048 303.377778 L662.666667 303.377778 L609.714286 303.377778 L556.761905 303.377778 L503.809524 303.377778 "/>
  <path fill="#aa4643" d="M503.809524 295.118384 L556.761905 264.833939 L609.714286 273.093333 L662.666667 253.821414 L715.619048 220.783838 L768.571429 237.302626 L821.52381 226.290101 L821.52381 303.377778 L768.571429 303.377778 L715.619048 303.377778 L662.666667 303.377778 L609.714286 303.377778 L556.761905 303.377778 L503.809524 303.377778 "/>
  <path fill="#4572a7" d="M520.033333 182.755556 M510.033333 182.755556 a5.0 5.0 0 1 0 10.0 0 a5.0 5.0 0 1 0 -10.0 0 "/>
  <text x="526.533333" y="187.755556" fill="#333333" font-size="14.666667" font-family="Arial,Helvetica,'Helvetica Neue',sans-serif">A</text>
  <path fill="#aa4643" d="M579.014583 182.755556 M569.014583 182.755556 a5.0 5.0 0 1 0 10.0 0 a5.0 5.0 0 1 0 -10.0 0 "/>
  <text x="585.514583" y="187.755556" fill="#333333" font-size="14.666667" font-family="Arial,Helvetica,'Helvetica Neue',sans-serif">B</text>
  <path stroke-width="1.333333" stroke="#a8a8a8" fill="none" d="M877.333333 303.377778 L1262.666667 303.377778 "/>
  <path stroke-width="1.333333" stroke="#a8a8a8" fill="none" d="M877.333333 303.377778 L877.333333 298.044444 "/>
  <path stroke-width="1.333333" stroke="#a8a8a8" fill="none" d="M954.4 303.377778 L954.4 298.044444 "/>
  <path stroke-width="1.333333" stroke="#a8a8a8" fill="none" d="M1031.466667 303.377778 L1031.466667 298.044444 "/>
  <path stroke-width="1.333333" stroke="#a8a8a8" fill="none" d="M1108.533333 303.377778 L1108.533333 298.044444 "/>
  <path stroke-width="1.333333" stroke="#a8a8a8" fill="none" d="M1185.6 303.377778 L1185.6 298.044444 "/>
  <path stroke-width="1.333333" stroke="#a8a8a8" fill="none" d="M1262.666667 303.377778 L1262.666667 298.044444 "/>
  <text x="867.138021" y="329.111111" fill="#333333" font-size="14.666667" font-family="Arial,Helvetica,'Helvetica Neue',sans-serif">0.0</text>
  <text x="940.126563" y="329.111111" fill="#333333" font-size="14.666667" font-family="Arial,Helvetica,'Helvetica Neue',sans-serif">40.0</text>
  <text x="1017.193229" y="329.111111" fill="#333333" font-size="14.666667" font-family="Arial,Helvetica,'Helvetica Neue',sans-serif">80.0</text>
  <text x="1090.181771" y="329.111111" fill="#333333" font-size="14.666667" font-family="Arial,Helvetica,'Helvetica Neue',sans-serif">120.0</text>
  <text x="1167.248438" y="329.111111" fill="#333333" font-size="14.666667" font-family="Arial,Helvetica,'Helvetica Neue',sans-serif">160.0</text>
  <text x="1244.315104" y="329.111111" fill="#333333" font-size="14.666667" font-family="Arial,Helvetica,'Helvetica Neue',sans-serif">200.0</text>
  <path stroke-width="1.333333" stroke="#a8a8a8" fill="none" d="M1262.666667 151.955556 L1262.666667 303.377778 "/>
  <path stroke-width="1.333333" stroke="#a8a8a8" fill="none" d="M1262.666667 303.377778 L1257.333333 303.377778 "/>
  <path stroke-width="1.333333" stroke="#a8a8a8" fill="none" d="M1262.666667 276.338095 L1257.333333 276.338095 "/>
  <path stroke-width="1.333333" stroke="#a8a8a8" fill="none" d="M1262.666667 249.298413 L1257.333333 249.298413 "/>
  <path stroke-width="1.333333" stroke="#a8a8a8" fill="none" d="M1262.666667 222.25873 L1257.333333 222.25873 "/>
  <path stroke-width="1.333333" stroke="#a8a8a8" fill="none" d="M1262.666667 195.219048 L1257.333333 195.219048 "/>
  <path stroke-width="1.333333" stroke="#a8a8a8" fill="none" d="M1262.666667 168.179365 L1257.333333 168.179365 "/>
  <text x="1274.400000" y="308.377778" fill="#333333" font-size="14.666667" font-family="Arial,Helvetica,'Helvetica Neue',sans-serif">0.0</text>
  <text x="1274.400000" y="281.338095" fill="#333333" font-size="14.666667" font-family="Arial,Helvetica,'Helvetica Neue',sans-serif">50.0</text>
  <text x="1274.400000" y="254.298413" fill="#333333" font-size="14.666667" font-family="Arial,Helvetica,'Helvetica Neue',sans-serif">100.0</text>
  <text x="1274.400000" y="227.258730" fill="#333333" font-size="14.666667" font-family="Arial,Helvetica,'Helvetica Neue',sans-serif">150.0</text>
  <text x="1274.400000" y="200.219048" fill="#333333" font-size="14.666667" font-family="Arial,Helvetica,'Helvetica Neue',sans-serif">200.0</text>
  <text x="1274.400000" y="173.179365" fill="#333333" font-size="14.666667" font-family="Arial,Helvetica,'Helvetica Neue',sans-serif">250.0</text>
  <path stroke-width="1.333333" stroke="#a8a8a8" fill="none" d="M877.333333 151.955556 L1262.666667 151.955556 "/>
  <path stroke-width="1.333333" stroke="#a8a8a8" fill="none" d="M877.333333 151.955556 L877.333333 157.288889 "/>
  <path stroke-width="1.333333" stroke="#a8a8a8" fill="none" d="M932.380955 151.955556 L932.380955 157.288889 "/>
  <path stroke-width="1.333333" stroke="#a8a8a8" fill="none" d="M987.428576 151.955556 L987.428576 157.288889 "/>
  <path stroke-width="1.333333" stroke="#a8a8a8" fill="none" d="M1042.476204 151.955556 L1042.476204 157.288889 "/>
  <path stroke-width="1.333333" stroke="#a8a8a8" fill="none" d="M1097.523819 151.955556 L1097.523819 157.288889 "/>
  <path stroke-width="1.333333" stroke="#a8a8a8" fill="none" d="M1152.571435 151.955556 L1152.571435 157.288889 "/>
  <path stroke-width="1.333333" stroke="#a8a8a8" fill="none" d="M1207.619074 151.955556 L1207.619074 157.288889 "/>
  <path stroke-width="1.333333" stroke="#a8a8a8" fill="none" d="M1262.666667 151.955556 L1262.666667 157.288889 "/>
  <text x="867.138021" y="136.222222" fill="#333333" font-size="14.666667" font-family="Arial,Helvetica,'Helvetica Neue',sans-serif">0.0</text>
  <text x="918.107517" y="136.222222" fill="#333333" font-size="14.666667" font-family="Arial,Helvetica,'Helvetica Neue',sans-serif">28.6</text>
  <text x="973.155139" y="136.222222" fill="#333333" font-size="14.666667" font-family="Arial,Helvetica,'Helvetica Neue',sans-serif">57.1</text>
  <text x="1028.202766" y="136.222222" fill="#333333" font-size="14.666667" font-family="Arial,Helvetica,'Helvetica Neue',sans-serif">85.7</text>
  <text x="1079.719132" y="136.222222" fill="#333333" font-size="14.666667" font-family="Arial,Helvetica,'Helvetica Neue',sans-serif">114.3</text>
  <text x="1134.219873" y="136.222222" fill="#333333" font-size="14.666667" font-family="Arial,Helvetica,'Helvetica Neue',sans-serif">142.9</text>
  <text x="1189.267511" y="136.222222" fill="#333333" font-size="14.666667" font-family="Arial,Helvetica,'Helvetica Neue',sans-serif">171.4</text>
  <text x="1244.315104" y="136.222222" fill="#333333" font-size="14.666667" font-family="Arial,Helvetica,'Helvetica Neue',sans-serif">200.0</text>
  <path fill="#4572a7" d="M899.266667 260.114286 M893.933333 260.114286 a2.666667 2.666667 0 1 0 5.333333 0 a2.666667 2.666667 0 1 0 -5.333333 0 "/>
  <path fill="#aa4643" d="M1004.933333 222.25873 M980.933333 222.25873 a12.0 12.0 0 1 0 24.0 0 a12.0 12.0 0 1 0 -24.0 0 "/>
  <path fill="#4572a7" d="M1189.6 206.034921 M1181.6 206.034921 a4.0 4.0 0 1 0 8.0 0 a4.0 4.0 0 1 0 -8.0 0 "/>
  <path fill="#aa4643" d="M1135.8 276.338095 M1119.8 276.338095 a8.0 8.0 0 1 0 16.0 0 a8.0 8.0 0 1 0 -16.0 0 "/>
  <path fill="#4572a7" d="M1171.666667 260.114286 M1161.0 260.114286 a5.333333 5.333333 0 1 0 10.666667 0 a5.333333 5.333333 0 1 0 -10.666667 0 "/>
  <path fill="#aa4643" d="M939.133333 249.298413 M931.133333 249.298413 a4.0 4.0 0 1 0 8.0 0 a4.0 4.0 0 1 0 -8.0 0 "/>
  <path fill="#4572a7" d="M1101.566667 200.626984 M1096.233333 200.626984 a2.666667 2.666667 0 1 0 5.333333 0 a2.666667 2.666667 0 1 0 -5.333333 0 "/>
  <path fill="#4572a7" d="M920.033333 182.755556 M910.033333 182.755556 a5.0 5.0 0 1 0 10.0 0 a5.0 5.0 0 1 0 -10.0 0 "/>
  <text x="926.533333" y="187.755556" fill="#333333" font-size="14.666667" font-family="Arial,Helvetica,'Helvetica Neue',sans-serif">A</text>
  <path fill="#aa4643" d="M979.014583 182.755556 M969.014583 182.755556 a5.0 5.0 0 1 0 10.0 0 a5.0 5.0 0 1 0 -10.0 0 "/>
  <text x="985.514583" y="187.755556" fill="#333333" font-size="14.666667" font-family="Arial,Helvetica,'Helvetica Neue',sans-serif">B</text>
  <path stroke-width="1.333333" stroke="#a8a8a8" fill="none" d="M62.666667 432.222222 L62.666667 632.666667 "/>
  <path stroke-width="1.333333" stroke="#a8a8a8" fill="none" d="M62.666667 632.666667 L68.0 632.666667 "/>
  <path stroke-width="1.333333" stroke="#a8a8a8" fill="none" d="M62.666667 604.031746 L68.0 604.031746 "/>
  <path stroke-width="1.333333" stroke="#a8a8a8" fill="none" d="M62.666667 575.396825 L68.0 575.396825 "/>
  <path stroke-width="1.333333" stroke="#a8a8a8" fill="none" d="M62.666667 546.761905 L68.0 546.761905 "/>
  <path stroke-width="1.333333" stroke="#a8a8a8" fill="none" d="M62.666667 518.126984 L68.0 518.126984 "/>
  <path stroke-width="1.333333" stroke="#a8a8a8" fill="none" d="M62.666667 489.492063 L68.0 489.492063 "/>
  <path stroke-width="1.333333" stroke="#a8a8a8" fill="none" d="M62.666667 460.857143 L68.0 460.857143 "/>
  <path stroke-width="1.333333" stroke="#a8a8a8" fill="none" d="M62.666667 432.222222 L68.0 432.222222 "/>
  <text x="30.542708" y="637.666667" fill="#333333" font-size="14.666667" font-family="Arial,Helvetica,'Helvetica Neue',sans-serif">0.0</text>
  <text x="22.386458" y="609.031746" fill="#333333" font-size="14.666667" font-family="Arial,Helvetica,'Helvetica Neue',sans-serif">20.0</text>
  <text x="22.386458" y="580.396825" fill="#333333" font-size="14.666667" font-family="Arial,Helvetica,'Helvetica Neue',sans-serif">40.0</text>
  <text x="22.386458" y="551.761905" fill="#333333" font-size="14.666667" font-family="Arial,Helvetica,'Helvetica Neue',sans-serif">60.0</text>
  <text x="22.386458" y="523.126984" fill="#333333" font-size="14.666667" font-family="Arial,Helvetica,'Helvetica Neue',sans-serif">80.0</text>
  <text x="14.230208" y="494.492063" fill="#333333" font-size="14.666667" font-family="Arial,Helvetica,'Helvetica Neue',sans-serif">100.0</text>
  <text x="14.230208" y="465.857143" fill="#333333" font-size="14.666667" font-family="Arial,Helvetica,'Helvetica Neue',sans-serif">120.0</text>
  <text x="14.230208" y="437.222222" fill="#333333" font-size="14.666667" font-family="Arial,Helvetica,'Helvetica Neue',sans-serif">140.0</text>
  <path stroke-width="1.333333" stroke="#a8a8a8" fill="none" d="M1262.666667 432.222222 L1262.666667 632.666667 "/>
  <path stroke-width="1.333333" stroke="#a8a8a8" fill="none" d="M1262.666667 632.666667 L1257.333333 632.666667 "/>
  <path stroke-width="1.333333" stroke="#a8a8a8" fill="none" d="M1262.666667 604.031746 L1257.333333 604.031746 "/>
  <path stroke-width="1.333333" stroke="#a8a8a8" fill="none" d="M1262.666667 575.396825 L1257.333333 575.396825 "/>
  <path stroke-width="1.333333" stroke="#a8a8a8" fill="none" d="M1262.666667 546.761905 L1257.333333 546.761905 "/>
  <path stroke-width="1.333333" stroke="#a8a8a8" fill="none" d="M1262.666667 518.126984 L1257.333333 518.126984 "/>
  <path stroke-width="1.333333" stroke="#a8a8a8" fill="none" d="M1262.666667 489.492063 L1257.333333 489.492063 "/>
  <path stroke-width="1.333333" stroke="#a8a8a8" fill="none" d="M1262.666667 460.857143 L1257.333333 460.857143 "/>
  <path stroke-width="1.333333" stroke="#a8a8a8" fill="none" d="M1262.666667 432.222222 L1257.333333 432.222222 "/>
  <text x="1274.400000" y="637.666667" fill="#333333" font-size="14.666667" font-family="Arial,Helvetica,'Helvetica Neue',sans-serif">0.0</text>
  <text x="1274.400000" y="609.031746" fill="#333333" font-size="14.666667" font-family="Arial,Helvetica,'Helvetica Neue',sans-serif">20.0</text>
  <text x="1274.400000" y="580.396825" fill="#333333" font-size="14.666667" font-family="Arial,Helvetica,'Helvetica Neue',sans-serif">40.0</text>
  <text x="1274.400000" y="551.761905" fill="#333333" font-size="14.666667" font-family="Arial,Helvetica,'Helvetica Neue',sans-serif">60.0</text>
  <text x="1274.400000" y="523.126984" fill="#333333" font-size="14.666667" font-family="Arial,Helvetica,'Helvetica Neue',sans-serif">80.0</text>
  <text x="1274.400000" y="494.492063" fill="#333333" font-size="14.666667" font-family="Arial,Helvetica,'Helvetica Neue',sans-serif">100.0</text>
  <text x="1274.400000" y="465.857143" fill="#333333" font-size="14.666667" font-family="Arial,Helvetica,'Helvetica Neue',sans-serif">120.0</text>
  <text x="1274.400000" y="437.222222" fill="#333333" font-size="14.666667" font-family="Arial,Helvetica,'Helvetica Neue',sans-serif">140.0</text>
  <path stroke-width="1.333333" stroke="#a8a8a8" fill="none" d="M62.666667 432.222222 L1262.666667 432.222222 "/>
  <path stroke-width="1.333333" stroke="#a8a8a8" fill="none" d="M62.666667 432.222222 L62.666667 437.555556 "/>
  <path stroke-width="1.333333" stroke="#a8a8a8" fill="none" d="M234.095246 432.222222 L234.095246 437.555556 "/>
  <path stroke-width="1.333333" stroke="#a8a8a8" fill="none" d="M405.523825 432.222222 L405.523825 437.555556 "/>
  <path stroke-width="1.333333" stroke="#a8a8a8" fill="none" d="M576.952422 432.222222 L576.952422 437.555556 "/>
  <path stroke-width="1.333333" stroke="#a8a8a8" fill="none" d="M748.380983 432.222222 L748.380983 437.555556 "/>
  <path stroke-width="1.333333" stroke="#a8a8a8" fill="none" d="M919.809544 432.222222 L919.809544 437.555556 "/>
  <path stroke-width="1.333333" stroke="#a8a8a8" fill="none" d="M1091.238177 432.222222 L1091.238177 437.555556 "/>
  <path stroke-width="1.333333" stroke="#a8a8a8" fill="none" d="M1262.666667 432.222222 L1262.666667 437.555556 "/>
  <text x="34.119792" y="416.488889" fill="#333333" font-size="14.666667" font-family="Arial,Helvetica,'Helvetica Neue',sans-serif">05:15:44</text>
  <text x="205.548371" y="416.488889" fill="#333333" font-size="14.666667" font-family="Arial,Helvetica,'Helvetica Neue',sans-serif">06:06:56</text>
  <text x="376.976950" y="416.488889" fill="#333333" font-size="14.666667" font-family="Arial,Helvetica,'Helvetica Neue',sans-serif">06:58:08</text>
  <text x="548.405547" y="416.488889" fill="#333333" font-size="14.666667" font-family="Arial,Helvetica,'Helvetica Neue',sans-serif">07:49:20</text>
  <text x="719.834108" y="416.488889" fill="#333333" font-size="14.666667" font-family="Arial,Helvetica,'Helvetica Neue',sans-serif">08:40:32</text>
  <text x="891.262669" y="416.488889" fill="#333333" font-size="14.666667" font-family="Arial,Helvetica,'Helvetica Neue',sans-serif">09:31:44</text>
  <text x="1062.691302" y="416.488889" fill="#333333" font-size="14.666667" font-family="Arial,Helvetica,'Helvetica Neue',sans-serif">10:22:56</text>
  <text x="1234.666667" y="416.488889" fill="#333333" font-size="14.666667" font-family="Arial,Helvetica,'Helvetica Neue',sans-serif">11:14:08</text>
  <path stroke-width="2.000000" stroke="#0066cc" fill="none" d="M62.666667 587.581239 L76.952381 591.336963 L93.693452 621.466083 L110.434524 620.102247 L127.175595 613.754229 L143.916667 628.219805 L160.657738 629.273066 L177.39881 620.130591 L194.139881 611.540359 L210.880952 628.955825 L227.622024 618.396046 L244.363095 622.400612 L261.104167 599.439243 L277.845238 606.757647 L294.58631 616.465557 L311.327381 605.236013 L328.068452 618.317416 L344.809524 623.890141 L361.550595 628.475061 L378.291667 628.657412 L395.032738 628.634509 L411.77381 607.671835 L428.514881 527.685865 L445.255952 466.758418 L461.997024 469.628904 L478.738095 474.859976 L495.479167 545.989817 L512.220238 564.983063 L528.96131 600.733556 L545.702381 619.273607 L562.443452 625.805027 L579.184524 624.089287 L595.925595 626.176742 L612.666667 624.101819 L629.407738 603.501412 L646.14881 601.698865 L662.889881 600.968298 L679.630952 592.933611 L696.372024 596.627009 L713.113095 602.964138 L729.854167 599.960845 L746.595238 589.700708 L763.33631 573.827197 L780.077381 575.624995 L796.818452 565.187319 L813.559524 581.650637 L830.300595 588.995447 L847.041667 605.998825 L863.782738 597.156686 L880.52381 567.863941 L897.264881 562.239117 L914.005952 576.338903 L930.747024 579.260335 L947.488095 575.228616 L964.229167 567.749703 L980.970238 597.430107 L997.71131 607.066723 L1014.452381 580.543329 L1031.193452 597.800846 L1047.934524 617.058669 L1064.675595 615.047479 L1081.416667 595.089609 L1098.157738 609.919978 L1114.89881 611.502552 L1131.639881 614.462281 L1148.380952 611.327609 L1165.122024 614.290398 L1181.863095 603.201401 L1198.604167 612.914933 L1215.345238 606.85056 L1232.08631 600.772526 L1248.827381 606.154946 L1262.666667 616.938751 "/>
  <path stroke-width="1.333333" stroke="#a8a8a8" fill="none" d="M62.666667 652.222222 L62.666667 852.666667 "/>
  <path stroke-width="1.333333" stroke="#a8a8a8" fill="none" d="M62.666667 852.666667 L68.0 852.666667 "/>
  <path stroke-width="1.333333" stroke="#a8a8a8" fill="none" d="M62.666667 824.031746 L68.0 824.031746 "/>
  <path stroke-width="1.333333" stroke="#a8a8a8" fill="none" d="M62.666667 795.396825 L68.0 795.396825 "/>
  <path stroke-width="1.333333" stroke="#a8a8a8" fill="none" d="M62.666667 766.761905 L68.0 766.761905 "/>
  <path stroke-width="1.333333" stroke="#a8a8a8" fill="none" d="M62.666667 738.126984 L68.0 738.126984 "/>
  <path stroke-width="1.333333" stroke="#a8a8a8" fill="none" d="M62.666667 709.492063 L68.0 709.492063 "/>
  <path stroke-width="1.333333" stroke="#a8a8a8" fill="none" d="M62.666667 680.857143 L68.0 680.857143 "/>
  <path stroke-width="1.333333" stroke="#a8a8a8" fill="none" d="M62.666667 652.222222 L68.0 652.222222 "/>
  <text x="30.542708" y="857.666667" fill="#333333" font-size="14.666667" font-family="Arial,Helvetica,'Helvetica Neue',sans-serif">0.0</text>
  <text x="22.386458" y="829.031746" fill="#333333" font-size="14.666667" font-family="Arial,Helvetica,'Helvetica Neue',sans-serif">20.0</text>
  <text x="22.386458" y="800.396825" fill="#333333" font-size="14.666667" font-family="Arial,Helvetica,'Helvetica Neue',sans-serif">40.0</text>
  <text x="22.386458" y="771.761905" fill="#333333" font-size="14.666667" font-family="Arial,Helvetica,'Helvetica Neue',sans-serif">60.0</text>
  <text x="22.386458" y="743.126984" fill="#333333" font-size="14.666667" font-family="Arial,Helvetica,'Helvetica Neue',sans-serif">80.0</text>
  <text x="14.230208" y="714.492063" fill="#333333" font-size="14.666667" font-family="Arial,Helvetica,'Helvetica Neue',sans-serif">100.0</text>
  <text x="14.230208" y="685.857143" fill="#333333" font-size="14.666667" font-family="Arial,Helvetica,'Helvetica Neue',sans-serif">120.0</text>
  <text x="14.230208" y="657.222222" fill="#333333" font-size="14.666667" font-family="Arial,Helvetica,'Helvetica Neue',sans-serif">140.0</text>
  <path stroke-width="1.333333" stroke="#a8a8a8" fill="none" d="M1262.666667 652.222222 L1262.666667 852.666667 "/>
  <path stroke-width="1.333333" stroke="#a8a8a8" fill="none" d="M1262.666667 852.666667 L1257.333333 852.666667 "/>
  <path stroke-width="1.333333" stroke="#a8a8a8" fill="none" d="M1262.666667 824.031746 L1257.333333 824.031746 "/>
  <path stroke-width="1.333333" stroke="#a8a8a8" fill="none" d="M1262.666667 795.396825 L1257.333333 795.396825 "/>
  <path stroke-width="1.333333" stroke="#a8a8a8" fill="none" d="M1262.666667 766.761905 L1257.333333 766.761905 "/>
  <path stroke-width="1.333333" stroke="#a8a8a8" fill="none" d="M1262.666667 738.126984 L1257.333333 738.126984 "/>
  <path stroke-width="1.333333" stroke="#a8a8a8" fill="none" d="M1262.666667 709.492063 L1257.333333 709.492063 "/>
  <path stroke-width="1.333333" stroke="#a8a8a8" fill="none" d="M1262.666667 680.857143 L1257.333333 680.857143 "/>
  <path stroke-width="1.333333" stroke="#a8a8a8" fill="none" d="M1262.666667 652.222222 L1257.333333 652.222222 "/>
  <text x="1274.400000" y="857.666667" fill="#333333" font-size="14.666667" font-family="Arial,Helvetica,'Helvetica Neue',sans-serif">0.0</text>
  <text x="1274.400000" y="829.031746" fill="#333333" font-size="14.666667" font-family="Arial,Helvetica,'Helvetica Neue',sans-serif">20.0</text>
  <text x="1274.400000" y="800.396825" fill="#333333" font-size="14.666667" font-family="Arial,Helvetica,'Helvetica Neue',sans-serif">40.0</text>
  <text x="1274.400000" y="771.761905" fill="#333333" font-size="14.666667" font-family="Arial,Helvetica,'Helvetica Neue',sans-serif">60.0</text>
  <text x="1274.400000" y="743.126984" fill="#333333" font-size="14.666667" font-family="Arial,Helvetica,'Helvetica Neue',sans-serif">80.0</text>
  <text x="1274.400000" y="714.492063" fill="#333333" font-size="14.666667" font-family="Arial,Helvetica,'Helvetica Neue',sans-serif">100.0</text>
  <text x="1274.400000" y="685.857143" fill="#333333" font-size="14.666667" font-family="Arial,Helvetica,'Helvetica Neue',sans-serif">120.0</text>
  <text x="1274.400000" y="657.222222" fill="#333333" font-size="14.666667" font-family="Arial,Helvetica,'Helvetica Neue',sans-serif">140.0</text>
  <path stroke-width="2.000000" stroke="#0066cc" fill="none" d="M62.666667 807.581239 L76.952381 811.336963 L93.693452 841.466083 L110.434524 840.102247 L127.175595 833.754229 L143.916667 848.219805 L160.657738 849.273066 L177.39881 840.130591 L194.139881 831.540359 L210.880952 848.955825 L227.622024 838.396046 L244.363095 842.400612 L261.104167 819.439243 L277.845238 826.757647 L294.58631 836.465557 L311.327381 825.236013 L328.068452 838.317416 L344.809524 843.890141 L361.550595 848.475061 L378.291667 848.657412 L395.032738 848.634509 L411.77381 827.671835 L428.514881 747.685865 L445.255952 686.758418 L461.997024 689.628904 L478.738095 694.859976 L495.479167 765.989817 L512.220238 784.983063 L528.96131 820.733556 L545.702381 839.273607 L562.443452 845.805027 L579.184524 844.089287 L595.925595 846.176742 L612.666667 844.101819 L629.407738 823.501412 L646.14881 821.698865 L662.889881 820.968298 L679.630952 812.933611 L696.372024 816.627009 L713.113095 822.964138 L729.854167 819.960845 L746.595238 809.700708 L763.33631 793.827197 L780.077381 795.624995 L796.818452 785.187319 L813.559524 801.650637 L830.300595 808.995447 L847.041667 825.998825 L863.782738 817.156686 L880.52381 787.863941 L897.264881 782.239117 L914.005952 796.338903 L930.747024 799.260335 L947.488095 795.228616 L964.229167 787.749703 L980.970238 817.430107 L997.71131 827.066723 L1014.452381 800.543329 L1031.193452 817.800846 L1047.934524 837.058669 L1064.675595 835.047479 L1081.416667 815.089609 L1098.157738 829.919978 L1114.89881 831.502552 L1131.639881 834.462281 L1148.380952 831.327609 L1165.122024 834.290398 L1181.863095 823.201401 L1198.604167 832.914933 L1215.345238 826.85056 L1232.08631 820.772526 L1248.827381 826.154946 L1262.666667 836.938751 "/>
  <path stroke-width="1.333333" stroke="#a8a8a8" fill="none" d="M62.666667 1072.666667 L1262.666667 1072.666667 "/>
  <path stroke-width="1.333333" stroke="#a8a8a8" fill="none" d="M62.666667 1072.666667 L62.666667 1067.333333 "/>
  <path stroke-width="1.333333" stroke="#a8a8a8" fill="none" d="M234.095246 1072.666667 L234.095246 1067.333333 "/>
  <path stroke-width="1.333333" stroke="#a8a8a8" fill="none" d="M405.523825 1072.666667 L405.523825 1067.333333 "/>
  <path stroke-width="1.333333" stroke="#a8a8a8" fill="none" d="M576.952422 1072.666667 L576.952422 1067.333333 "/>
  <path stroke-width="1.333333" stroke="#a8a8a8" fill="none" d="M748.380983 1072.666667 L748.380983 1067.333333 "/>
  <path stroke-width="1.333333" stroke="#a8a8a8" fill="none" d="M919.809544 1072.666667 L919.809544 1067.333333 "/>
  <path stroke-width="1.333333" stroke="#a8a8a8" fill="none" d="M1091.238177 1072.666667 L1091.238177 1067.333333 "/>
  <path stroke-width="1.333333" stroke="#a8a8a8" fill="none" d="M1262.666667 1072.666667 L1262.666667 1067.333333 "/>
  <text x="34.119792" y="1098.400000" fill="#333333" font-size="14.666667" font-family="Arial,Helvetica,'Helvetica Neue',sans-serif">05:15:44</text>
  <text x="205.548371" y="1098.400000" fill="#333333" font-size="14.666667" font-family="Arial,Helvetica,'Helvetica Neue',sans-serif">06:06:56</text>
  <text x="376.976950" y="1098.400000" fill="#333333" font-size="14.666667" font-family="Arial,Helvetica,'Helvetica Neue',sans-serif">06:58:08</text>
  <text x="548.405547" y="1098.400000" fill="#333333" font-size="14.666667" font-family="Arial,Helvetica,'Helvetica Neue',sans-serif">07:49:20</text>
  <text x="719.834108" y="1098.400000" fill="#333333" font-size="14.666667" font-family="Arial,Helvetica,'Helvetica Neue',sans-serif">08:40:32</text>
  <text x="891.262669" y="1098.400000" fill="#333333" font-size="14.666667" font-family="Arial,Helvetica,'Helvetica Neue',sans-serif">09:31:44</text>
  <text x="1062.691302" y="1098.400000" fill="#333333" font-size="14.666667" font-family="Arial,Helvetica,'Helvetica Neue',sans-serif">10:22:56</text>
  <text x="1234.666667" y="1098.400000" fill="#333333" font-size="14.666667" font-family="Arial,Helvetica,'Helvetica Neue',sans-serif">11:14:08</text>
  <path stroke-width="1.333333" stroke="#a8a8a8" fill="none" d="M62.666667 872.222222 L62.666667 1072.666667 "/>
  <path stroke-width="1.333333" stroke="#a8a8a8" fill="none" d="M62.666667 1072.666667 L68.0 1072.666667 "/>
  <path stroke-width="1.333333" stroke="#a8a8a8" fill="none" d="M62.666667 1044.031746 L68.0 1044.031746 "/>
  <path stroke-width="1.333333" stroke="#a8a8a8" fill="none" d="M62.666667 1015.396825 L68.0 1015.396825 "/>
  <path stroke-width="1.333333" stroke="#a8a8a8" fill="none" d="M62.666667 986.761905 L68.0 986.761905 "/>
  <path stroke-width="1.333333" stroke="#a8a8a8" fill="none" d="M62.666667 958.126984 L68.0 958.126984 "/>
  <path stroke-width="1.333333" stroke="#a8a8a8" fill="none" d="M62.666667 929.492063 L68.0 929.492063 "/>
  <path stroke-width="1.333333" stroke="#a8a8a8" fill="none" d="M62.666667 900.857143 L68.0 900.857143 "/>
  <path stroke-width="1.333333" stroke="#a8a8a8" fill="none" d="M62.666667 872.222222 L68.0 872.222222 "/>
  <text x="30.542708" y="1077.666667" fill="#333333" font-size="14.666667" font-family="Arial,Helvetica,'Helvetica Neue',sans-serif">0.0</text>
  <text x="22.386458" y="1049.031746" fill="#333333" font-size="14.666667" font-family="Arial,Helvetica,'Helvetica Neue',sans-serif">20.0</text>
  <text x="22.386458" y="1020.396825" fill="#333333" font-size="14.666667" font-family="Arial,Helvetica,'Helvetica Neue',sans-serif">40.0</text>
  <text x="22.386458" y="991.761905" fill="#333333" font-size="14.666667" font-family="Arial,Helvetica,'Helvetica Neue',sans-serif">60.0</text>
  <text x="22.386458" y="963.126984" fill="#333333" font-size="14.666667" font-family="Arial,Helvetica,'Helvetica Neue',sans-serif">80.0</text>
  <text x="14.230208" y="934.492063" fill="#333333" font-size="14.666667" font-family="Arial,Helvetica,'Helvetica Neue',sans-serif">100.0</text>
  <text x="14.230208" y="905.857143" fill="#333333" font-size="14.666667" font-family="Arial,Helvetica,'Helvetica Neue',sans-serif">120.0</text>
  <text x="14.230208" y="877.222222" fill="#333333" font-size="14.666667" font-family="Arial,Helvetica,'Helvetica Neue',sans-serif">140.0</text>
  <path stroke-width="1.333333" stroke="#a8a8a8" fill="none" d="M1262.666667 872.222222 L1262.666667 1072.666667 "/>
  <path stroke-width="1.333333" stroke="#a8a8a8" fill="none" d="M1262.666667 1072.666667 L1257.333333 1072.666667 "/>
  <path stroke-width="1.333333" stroke="#a8a8a8" fill="none" d="M1262.666667 1044.031746 L1257.333333 1044.031746 "/>
  <path stroke-width="1.333333" stroke="#a8a8a8" fill="none" d="M1262.666667 1015.396825 L1257.333333 1015.396825 "/>
  <path stroke-width="1.333333" stroke="#a8a8a8" fill="none" d="M1262.666667 986.761905 L1257.333333 986.761905 "/>
  <path stroke-width="1.333333" stroke="#a8a8a8" fill="none" d="M1262.666667 958.126984 L1257.333333 958.126984 "/>
  <path stroke-width="1.333333" stroke="#a8a8a8" fill="none" d="M1262.666667 929.492063 L1257.333333 929.492063 "/>
  <path stroke-width="1.333333" stroke="#a8a8a8" fill="none" d="M1262.666667 900.857143 L1257.333333 900.857143 "/>
  <path stroke-width="1.333333" stroke="#a8a8a8" fill="none" d="M1262.666667 872.222222 L1257.333333 872.222222 "/>
  <text x="1274.400000" y="1077.666667" fill="#333333" font-size="14.666667" font-family="Arial,Helvetica,'Helvetica Neue',sans-serif">0.0</text>
  <text x="1274.400000" y="1049.031746" fill="#333333" font-size="14.666667" font-family="Arial,Helvetica,'Helvetica Neue',sans-serif">20.0</text>
  <text x="1274.400000" y="1020.396825" fill="#333333" font-size="14.666667" font-family="Arial,Helvetica,'Helvetica Neue',sans-serif">40.0</text>
  <text x="1274.400000" y="991.761905" fill="#333333" font-size="14.666667" font-family="Arial,Helvetica,'Helvetica Neue',sans-serif">60.0</text>
  <text x="1274.400000" y="963.126984" fill="#333333" font-size="14.666667" font-family="Arial,Helvetica,'Helvetica Neue',sans-serif">80.0</text>
  <text x="1274.400000" y="934.492063" fill="#333333" font-size="14.666667" font-family="Arial,Helvetica,'Helvetica Neue',sans-serif">100.0</text>
  <text x="1274.400000" y="905.857143" fill="#333333" font-size="14.666667" font-family="Arial,Helvetica,'Helvetica Neue',sans-serif">120.0</text>
  <text x="1274.400000" y="877.222222" fill="#333333" font-size="14.666667" font-family="Arial,Helvetica,'Helvetica Neue',sans-serif">140.0</text>
  <path fill="#0066cc" d="M62.666667 1027.581239 L76.952381 1031.336963 L93.693452 1061.466083 L110.434524 1060.102247 L127.175595 1053.754229 L143.916667 1068.219805 L160.657738 1069.273066 L177.39881 1060.130591 L194.139881 1051.540359 L210.880952 1068.955825 L227.622024 1058.396046 L244.363095 1062.400612 L261.104167 1039.439243 L277.845238 1046.757647 L294.58631 1056.465557 L311.327381 1045.236013 L328.068452 1058.317416 L344.809524 1063.890141 L361.550595 1068.475061 L378.291667 1068.657412 L395.032738 1068.634509 L411.77381 1047.671835 L428.514881 967.685865 L445.255952 906.758418 L461.997024 909.628904 L478.738095 914.859976 L495.479167 985.989817 L512.220238 1004.983063 L528.96131 1040.733556 L545.702381 1059.273607 L562.443452 1065.805027 L579.184524 1064.089287 L595.925595 1066.176742 L612.666667 1064.101819 L629.407738 1043.501412 L646.14881 1041.698865 L662.889881 1040.968298 L679.630952 1032.933611 L696.372024 1036.627009 L713.113095 1042.964138 L729.854167 1039.960845 L746.595238 1029.700708 L763.33631 1013.827197 L780.077381 1015.624995 L796.818452 1005.187319 L813.559524 1021.650637 L830.300595 1028.995447 L847.041667 1045.998825 L863.782738 1037.156686 L880.52381 1007.863941 L897.264881 1002.239117 L914.005952 1016.338903 L930.747024 1019.260335 L947.488095 1015.228616 L964.229167 1007.749703 L980.970238 1037.430107 L997.71131 1047.066723 L1014.452381 1020.543329 L1031.193452 1037.800846 L1047.934524 1057.058669 L1064.675595 1055.047479 L1081.416667 1035.089609 L1098.157738 1049.919978 L1114.89881 1051.502552 L1131.639881 1054.462281 L1148.380952 1051.327609 L1165.122024 1054.290398 L1181.863095 1043.201401 L1198.604167 1052.914933 L1215.345238 1046.85056 L1232.08631 1040.772526 L1248.827381 1046.154946 L1262.666667 1056.938751 L1262.666667 1072.666667 L1248.827381 1072.666667 L1232.08631 1072.666667 L1215.345238 1072.666667 L1198.604167 1072.666667 L1181.863095 1072.666667 L1165.122024 1072.666667 L1148.380952 1072.666667 L1131.639881 1072.666667 L1114.89881 1072.666667 L1098.157738 1072.666667 L1081.416667 1072.666667 L1064.675595 1072.666667 L1047.934524 1072.666667 L1031.193452 1072.666667 L1014.452381 1072.666667 L997.71131 1072.666667 L980.970238 1072.666667 L964.229167 1072.666667 L947.488095 1072.666667 L930.747024 1072.666667 L914.005952 1072.666667 L897.264881 1072.666667 L880.52381 1072.666667 L863.782738 1072.666667 L847.041667 1072.666667 L830.300595 1072.666667 L813.559524 1072.666667 L796.818452 1072.666667 L780.077381 1072.666667 L763.33631 1072.666667 L746.595238 1072.666667 L729.854167 1072.666667 L713.113095 1072.666667 L696.372024 1072.666667 L679.630952 1072.666667 L662.889881 1072.666667 L646.14881 1072.666667 L629.407738 1072.666667 L612.666667 1072.666667 L595.925595 1072.666667 L579.184524 1072.666667 L562.443452 1072.666667 L545.702381 1072.666667 L528.96131 1072.666667 L512.220238 1072.666667 L495.479167 1072.666667 L478.738095 1072.666667 L461.997024 1072.666667 L445.255952 1072.666667 L428.514881 1072.666667 L411.77381 1072.666667 L395.032738 1072.666667 L378.291667 1072.666667 L361.550595 1072.666667 L344.809524 1072.666667 L328.068452 1072.666667 L311.327381 1072.666667 L294.58631 1072.666667 L277.845238 1072.666667 L261.104167 1072.666667 L244.363095 1072.666667 L227.622024 1072.666667 L210.880952 1072.666667 L194.139881 1072.666667 L177.39881 1072.666667 L160.657738 1072.666667 L143.916667 1072.666667 L127.175595 1072.666667 L110.434524 1072.666667 L93.693452 1072.666667 L76.952381 1072.666667 L62.666667 1072.666667 "/>
</svg>