<svg xmlns="http://www.w3.org/2000/svg" width="1200.000000" height="480.000000" viewBox="0 0 1200.0 480.0">
  <rect width="1200.000000" height="480.000000" fill="#ffffff"/>
  <path fill="#005fbf" d="M701.666667 148.672 M691.666667 148.672 a5.0 5.0 0 1 0 10.0 0 a5.0 5.0 0 1 0 -10.0 0 "/>
  <path fill="#bf005f" d="M768.0 346.549333 M722.0 346.549333 a23.0 23.0 0 1 0 46.0 0 a23.0 23.0 0 1 0 -46.0 0 "/>
  <path fill="#005fbf" d="M804.333333 114.424 M782.333333 114.424 a11.0 11.0 0 1 0 22.0 0 a11.0 11.0 0 1 0 -22.0 0 "/>
  <path fill="#bf005f" d="M899.0 350.354667 M881.0 350.354667 a9.0 9.0 0 1 0 18.0 0 a9.0 9.0 0 1 0 -18.0 0 "/>
  <path fill="#005fbf" d="M1000.666667 182.92 M972.666667 182.92 a14.0 14.0 0 1 0 28.0 0 a14.0 14.0 0 1 0 -28.0 0 "/>
  <path fill="#bf005f" d="M1091.333333 152.477333 M1075.333333 152.477333 a8.0 8.0 0 1 0 16.0 0 a8.0 8.0 0 1 0 -16.0 0 "/>
  <path fill="#005fbf" d="M508.333333 148.672 M498.333333 148.672 a5.0 5.0 0 1 0 10.0 0 a5.0 5.0 0 1 0 -10.0 0 "/>
  <path fill="#bf005f" d="M463.0 209.557333 M447.0 209.557333 a8.0 8.0 0 1 0 16.0 0 a8.0 8.0 0 1 0 -16.0 0 "/>
  <path fill="#005fbf" d="M429.666667 293.274667 M383.666667 293.274667 a23.0 23.0 0 1 0 46.0 0 a23.0 23.0 0 1 0 -46.0 0 "/>
  <path fill="#bf005f" d="M312.0 205.752 M308.0 205.752 a2.0 2.0 0 1 0 4.0 0 a2.0 2.0 0 1 0 -4.0 0 "/>
  <path fill="#005fbf" d="M217.333333 373.186667 M209.333333 373.186667 a4.0 4.0 0 1 0 8.0 0 a4.0 4.0 0 1 0 -8.0 0 "/>
  <path fill="#bf005f" d="M133.666667 365.576 M99.666667 365.576 a17.0 17.0 0 1 0 34.0 0 a17.0 17.0 0 1 0 -34.0 0 "/>
  <path stroke-width="1.333333" stroke="#a8a8a8" fill="none" d="M20.0 430.266667 L1180.0 430.266667 "/>
  <path stroke-width="1.333333" stroke="#a8a8a8" fill="none" d="M20.0 430.266667 L20.0 424.933333 "/>
  <path stroke-width="1.333333" stroke="#a8a8a8" fill="none" d="M116.666667 430.266667 L116.666667 424.933333 "/>
  <path stroke-width="1.333333" stroke="#a8a8a8" fill="none" d="M213.333333 430.266667 L213.333333 424.933333 "/>
  <path stroke-width="1.333333" stroke="#a8a8a8" fill="none" d="M310.0 430.266667 L310.0 424.933333 "/>
  <path stroke-width="1.333333" stroke="#a8a8a8" fill="none" d="M406.666667 430.266667 L406.666667 424.933333 "/>
  <path stroke-width="1.333333" stroke="#a8a8a8" fill="none" d="M503.333333 430.266667 L503.333333 424.933333 "/>
  <path stroke-width="1.333333" stroke="#a8a8a8" fill="none" d="M600.0 430.266667 L600.0 424.933333 "/>
  <path stroke-width="1.333333" stroke="#a8a8a8" fill="none" d="M696.666667 430.266667 L696.666667 424.933333 "/>
  <path stroke-width="1.333333" stroke="#a8a8a8" fill="none" d="M793.333333 430.266667 L793.333333 424.933333 "/>
  <path stroke-width="1.333333" stroke="#a8a8a8" fill="none" d="M890.0 430.266667 L890.0 424.933333 "/>
  <path stroke-width="1.333333" stroke="#a8a8a8" fill="none" d="M986.666667 430.266667 L986.666667 424.933333 "/>
  <path stroke-width="1.333333" stroke="#a8a8a8" fill="none" d="M1083.333333 430.266667 L1083.333333 424.933333 "/>
  <path stroke-width="1.333333" stroke="#a8a8a8" fill="none" d="M1180.0 430.266667 L1180.0 424.933333 "/>
  <text x="3.281250" y="456.000000" fill="#333333" font-size="14.666667" font-family="Arial,Helvetica,'Helvetica Neue',sans-serif">-60.0</text>
  <text x="99.947917" y="456.000000" fill="#333333" font-size="14.666667" font-family="Arial,Helvetica,'Helvetica Neue',sans-serif">-50.0</text>
  <text x="196.614583" y="456.000000" fill="#333333" font-size="14.666667" font-family="Arial,Helvetica,'Helvetica Neue',sans-serif">-40.0</text>
  <text x="293.281250" y="456.000000" fill="#333333" font-size="14.666667" font-family="Arial,Helvetica,'Helvetica Neue',sans-serif">-30.0</text>
  <text x="389.947917" y="456.000000" fill="#333333" font-size="14.666667" font-family="Arial,Helvetica,'Helvetica Neue',sans-serif">-20.0</text>
  <text x="486.614583" y="456.000000" fill="#333333" font-size="14.666667" font-family="Arial,Helvetica,'Helvetica Neue',sans-serif">-10.0</text>
  <text x="589.804688" y="456.000000" fill="#333333" font-size="14.666667" font-family="Arial,Helvetica,'Helvetica Neue',sans-serif">0.0</text>
  <text x="682.393229" y="456.000000" fill="#333333" font-size="14.666667" font-family="Arial,Helvetica,'Helvetica Neue',sans-serif">10.0</text>
  <text x="779.059896" y="456.000000" fill="#333333" font-size="14.666667" font-family="Arial,Helvetica,'Helvetica Neue',sans-serif">20.0</text>
  <text x="875.726562" y="456.000000" fill="#333333" font-size="14.666667" font-family="Arial,Helvetica,'Helvetica Neue',sans-serif">30.0</text>
  <text x="972.393229" y="456.000000" fill="#333333" font-size="14.666667" font-family="Arial,Helvetica,'Helvetica Neue',sans-serif">40.0</text>
  <text x="1069.059896" y="456.000000" fill="#333333" font-size="14.666667" font-family="Arial,Helvetica,'Helvetica Neue',sans-serif">50.0</text>
  <text x="1165.726562" y="456.000000" fill="#333333" font-size="14.666667" font-family="Arial,Helvetica,'Helvetica Neue',sans-serif">60.0</text>
  <path stroke-width="1.333333" stroke="#a8a8a8" fill="none" d="M20.0 49.733333 L1180.0 49.733333 "/>
  <path stroke-width="1.333333" stroke="#a8a8a8" fill="none" d="M20.0 49.733333 L20.0 55.066667 "/>
  <path stroke-width="1.333333" stroke="#a8a8a8" fill="none" d="M116.666667 49.733333 L116.666667 55.066667 "/>
  <path stroke-width="1.333333" stroke="#a8a8a8" fill="none" d="M213.333333 49.733333 L213.333333 55.066667 "/>
  <path stroke-width="1.333333" stroke="#a8a8a8" fill="none" d="M310.0 49.733333 L310.0 55.066667 "/>
  <path stroke-width="1.333333" stroke="#a8a8a8" fill="none" d="M406.666667 49.733333 L406.666667 55.066667 "/>
  <path stroke-width="1.333333" stroke="#a8a8a8" fill="none" d="M503.333333 49.733333 L503.333333 55.066667 "/>
  <path stroke-width="1.333333" stroke="#a8a8a8" fill="none" d="M600.0 49.733333 L600.0 55.066667 "/>
  <path stroke-width="1.333333" stroke="#a8a8a8" fill="none" d="M696.666667 49.733333 L696.666667 55.066667 "/>
  <path stroke-width="1.333333" stroke="#a8a8a8" fill="none" d="M793.333333 49.733333 L793.333333 55.066667 "/>
  <path stroke-width="1.333333" stroke="#a8a8a8" fill="none" d="M890.0 49.733333 L890.0 55.066667 "/>
  <path stroke-width="1.333333" stroke="#a8a8a8" fill="none" d="M986.666667 49.733333 L986.666667 55.066667 "/>
  <path stroke-width="1.333333" stroke="#a8a8a8" fill="none" d="M1083.333333 49.733333 L1083.333333 55.066667 "/>
  <path stroke-width="1.333333" stroke="#a8a8a8" fill="none" d="M1180.0 49.733333 L1180.0 55.066667 "/>
  <text x="3.281250" y="34.000000" fill="#333333" font-size="14.666667" font-family="Arial,Helvetica,'Helvetica Neue',sans-serif">-60.0</text>
  <text x="99.947917" y="34.000000" fill="#333333" font-size="14.666667" font-family="Arial,Helvetica,'Helvetica Neue',sans-serif">-50.0</text>
  <text x="196.614583" y="34.000000" fill="#333333" font-size="14.666667" font-family="Arial,Helvetica,'Helvetica Neue',sans-serif">-40.0</text>
  <text x="293.281250" y="34.000000" fill="#333333" font-size="14.666667" font-family="Arial,Helvetica,'Helvetica Neue',sans-serif">-30.0</text>
  <text x="389.947917" y="34.000000" fill="#333333" font-size="14.666667" font-family="Arial,Helvetica,'Helvetica Neue',sans-serif">-20.0</text>
  <text x="486.614583" y="34.000000" fill="#333333" font-size="14.666667" font-family="Arial,Helvetica,'Helvetica Neue',sans-serif">-10.0</text>
  <text x="589.804688" y="34.000000" fill="#333333" font-size="14.666667" font-family="Arial,Helvetica,'Helvetica Neue',sans-serif">0.0</text>
  <text x="682.393229" y="34.000000" fill="#333333" font-size="14.666667" font-family="Arial,Helvetica,'Helvetica Neue',sans-serif">10.0</text>
  <text x="779.059896" y="34.000000" fill="#333333" font-size="14.666667" font-family="Arial,Helvetica,'Helvetica Neue',sans-serif">20.0</text>
  <text x="875.726562" y="34.000000" fill="#333333" font-size="14.666667" font-family="Arial,Helvetica,'Helvetica Neue',sans-serif">30.0</text>
  <text x="972.393229" y="34.000000" fill="#333333" font-size="14.666667" font-family="Arial,Helvetica,'Helvetica Neue',sans-serif">40.0</text>
  <text x="1069.059896" y="34.000000" fill="#333333" font-size="14.666667" font-family="Arial,Helvetica,'Helvetica Neue',sans-serif">50.0</text>
  <text x="1165.726562" y="34.000000" fill="#333333" font-size="14.666667" font-family="Arial,Helvetica,'Helvetica Neue',sans-serif">60.0</text>
</svg>