<?xml version="1.0" encoding="UTF-8" ?>
<!-- Generated by clip v0.7.0 (clip-lang.org) -->
<svg xmlns="http://www.w3.org/2000/svg" width="2048.000000" height="1024.000000">
  <rect width="2048.000000" height="1024.000000" fill="#ffffff" fill-opacity="1.000000"/>
  <path d="M287.047 198.333 L1760.95 198.333 " fill="none" stroke-width="3.333333" stroke="#000000ff"/>
  <path d="M287.047 211.667 L287.047 198.333 " fill="none" stroke-width="3.333333" stroke="#000000ff"/>
  <path d="M434.438 211.667 L434.438 198.333 " fill="none" stroke-width="3.333333" stroke="#000000ff"/>
  <path d="M581.828 211.667 L581.828 198.333 " fill="none" stroke-width="3.333333" stroke="#000000ff"/>
  <path d="M729.219 211.667 L729.219 198.333 " fill="none" stroke-width="3.333333" stroke="#000000ff"/>
  <path d="M876.609 211.667 L876.609 198.333 " fill="none" stroke-width="3.333333" stroke="#000000ff"/>
  <path d="M1024 211.667 L1024 198.333 " fill="none" stroke-width="3.333333" stroke="#000000ff"/>
  <path d="M1171.39 211.667 L1171.39 198.333 " fill="none" stroke-width="3.333333" stroke="#000000ff"/>
  <path d="M1318.78 211.667 L1318.78 198.333 " fill="none" stroke-width="3.333333" stroke="#000000ff"/>
  <path d="M1466.17 211.667 L1466.17 198.333 " fill="none" stroke-width="3.333333" stroke="#000000ff"/>
  <path d="M1613.56 211.667 L1613.56 198.333 " fill="none" stroke-width="3.333333" stroke="#000000ff"/>
  <path d="M1760.95 211.667 L1760.95 198.333 " fill="none" stroke-width="3.333333" stroke="#000000ff"/>
  <text x="241.171875" y="161.000000" fill="#000000ff" font-size="36.666667" font-family="Arial,Helvetica,'Helvetica Neue',sans-serif" font-weight="500.000000">05:15</text>
  <text x="388.562502" y="161.000000" fill="#000000ff" font-size="36.666667" font-family="Arial,Helvetica,'Helvetica Neue',sans-serif" font-weight="500.000000">05:51</text>
  <text x="535.953129" y="161.000000" fill="#000000ff" font-size="36.666667" font-family="Arial,Helvetica,'Helvetica Neue',sans-serif" font-weight="500.000000">06:27</text>
  <text x="683.343768" y="161.000000" fill="#000000ff" font-size="36.666667" font-family="Arial,Helvetica,'Helvetica Neue',sans-serif" font-weight="500.000000">07:03</text>
  <text x="830.734384" y="161.000000" fill="#000000ff" font-size="36.666667" font-family="Arial,Helvetica,'Helvetica Neue',sans-serif" font-weight="500.000000">07:39</text>
  <text x="978.125000" y="161.000000" fill="#000000ff" font-size="36.666667" font-family="Arial,Helvetica,'Helvetica Neue',sans-serif" font-weight="500.000000">08:15</text>
  <text x="1125.515660" y="161.000000" fill="#000000ff" font-size="36.666667" font-family="Arial,Helvetica,'Helvetica Neue',sans-serif" font-weight="500.000000">08:51</text>
  <text x="1272.906232" y="161.000000" fill="#000000ff" font-size="36.666667" font-family="Arial,Helvetica,'Helvetica Neue',sans-serif" font-weight="500.000000">09:26</text>
  <text x="1420.296893" y="161.000000" fill="#000000ff" font-size="36.666667" font-family="Arial,Helvetica,'Helvetica Neue',sans-serif" font-weight="500.000000">10:03</text>
  <text x="1567.687553" y="161.000000" fill="#000000ff" font-size="36.666667" font-family="Arial,Helvetica,'Helvetica Neue',sans-serif" font-weight="500.000000">10:39</text>
  <text x="1716.437500" y="161.000000" fill="#000000ff" font-size="36.666667" font-family="Arial,Helvetica,'Helvetica Neue',sans-serif" font-weight="500.000000">11:15</text>
  <text x="973.078125" y="79.666667" fill="#000000ff" font-size="46.666667" font-family="Arial,Helvetica,'Helvetica Neue',sans-serif" font-weight="500.000000">Time</text>
  <path d="M1760.95 825.667 L1760.95 198.333 " fill="none" stroke-width="3.333333" stroke="#000000ff"/>
  <path d="M1747.62 825.667 L1760.95 825.667 " fill="none" stroke-width="3.333333" stroke="#000000ff"/>
  <path d="M1747.62 762.933 L1760.95 762.933 " fill="none" stroke-width="3.333333" stroke="#000000ff"/>
  <path d="M1747.62 700.2 L1760.95 700.2 " fill="none" stroke-width="3.333333" stroke="#000000ff"/>
  <path d="M1747.62 637.467 L1760.95 637.467 " fill="none" stroke-width="3.333333" stroke="#000000ff"/>
  <path d="M1747.62 574.733 L1760.95 574.733 " fill="none" stroke-width="3.333333" stroke="#000000ff"/>
  <path d="M1747.62 512 L1760.95 512 " fill="none" stroke-width="3.333333" stroke="#000000ff"/>
  <path d="M1747.62 449.267 L1760.95 449.267 " fill="none" stroke-width="3.333333" stroke="#000000ff"/>
  <path d="M1747.62 386.533 L1760.95 386.533 " fill="none" stroke-width="3.333333" stroke="#000000ff"/>
  <path d="M1747.62 323.8 L1760.95 323.8 " fill="none" stroke-width="3.333333" stroke="#000000ff"/>
  <path d="M1747.62 261.067 L1760.95 261.067 " fill="none" stroke-width="3.333333" stroke="#000000ff"/>
  <path d="M1747.62 198.333 L1760.95 198.333 " fill="none" stroke-width="3.333333" stroke="#000000ff"/>
  <text x="1790.286458" y="834.166667" fill="#000000ff" font-size="36.666667" font-family="Arial,Helvetica,'Helvetica Neue',sans-serif" font-weight="500.000000">7.3 × 10⁶</text>
  <text x="1790.286458" y="771.433332" fill="#000000ff" font-size="36.666667" font-family="Arial,Helvetica,'Helvetica Neue',sans-serif" font-weight="500.000000">7.4 × 10⁶</text>
  <text x="1790.286458" y="708.699998" fill="#000000ff" font-size="36.666667" font-family="Arial,Helvetica,'Helvetica Neue',sans-serif" font-weight="500.000000">7.6 × 10⁶</text>
  <text x="1790.286458" y="645.966659" fill="#000000ff" font-size="36.666667" font-family="Arial,Helvetica,'Helvetica Neue',sans-serif" font-weight="500.000000">7.7 × 10⁶</text>
  <text x="1790.286458" y="583.233330" fill="#000000ff" font-size="36.666667" font-family="Arial,Helvetica,'Helvetica Neue',sans-serif" font-weight="500.000000">7.8 × 10⁶</text>
  <text x="1790.286458" y="520.500000" fill="#000000ff" font-size="36.666667" font-family="Arial,Helvetica,'Helvetica Neue',sans-serif" font-weight="500.000000">8.0 × 10⁶</text>
  <text x="1790.286458" y="457.766652" fill="#000000ff" font-size="36.666667" font-family="Arial,Helvetica,'Helvetica Neue',sans-serif" font-weight="500.000000">8.1 × 10⁶</text>
  <text x="1790.286458" y="395.033341" fill="#000000ff" font-size="36.666667" font-family="Arial,Helvetica,'Helvetica Neue',sans-serif" font-weight="500.000000">8.2 × 10⁶</text>
  <text x="1790.286458" y="332.299993" fill="#000000ff" font-size="36.666667" font-family="Arial,Helvetica,'Helvetica Neue',sans-serif" font-weight="500.000000">8.4 × 10⁶</text>
  <text x="1790.286458" y="269.566644" fill="#000000ff" font-size="36.666667" font-family="Arial,Helvetica,'Helvetica Neue',sans-serif" font-weight="500.000000">8.5 × 10⁶</text>
  <text x="1790.286458" y="206.833333" fill="#000000ff" font-size="36.666667" font-family="Arial,Helvetica,'Helvetica Neue',sans-serif" font-weight="500.000000">8.6 × 10⁶</text>
  <text x="1926.950521" y="528.500000" fill="#000000ff" font-size="46.666667" font-family="Arial,Helvetica,'Helvetica Neue',sans-serif" font-weight="500.000000" transform="matrix(6.12323e-17 1 -1 6.12323e-17 2496.83 -1472.83)">Value</text>
  <path d="M287.047 825.667 L1760.95 825.667 " fill="none" stroke-width="3.333333" stroke="#000000ff"/>
  <path d="M287.047 825.667 L287.047 812.333 " fill="none" stroke-width="3.333333" stroke="#000000ff"/>
  <path d="M434.438 825.667 L434.438 812.333 " fill="none" stroke-width="3.333333" stroke="#000000ff"/>
  <path d="M581.828 825.667 L581.828 812.333 " fill="none" stroke-width="3.333333" stroke="#000000ff"/>
  <path d="M729.219 825.667 L729.219 812.333 " fill="none" stroke-width="3.333333" stroke="#000000ff"/>
  <path d="M876.609 825.667 L876.609 812.333 " fill="none" stroke-width="3.333333" stroke="#000000ff"/>
  <path d="M1024 825.667 L1024 812.333 " fill="none" stroke-width="3.333333" stroke="#000000ff"/>
  <path d="M1171.39 825.667 L1171.39 812.333 " fill="none" stroke-width="3.333333" stroke="#000000ff"/>
  <path d="M1318.78 825.667 L1318.78 812.333 " fill="none" stroke-width="3.333333" stroke="#000000ff"/>
  <path d="M1466.17 825.667 L1466.17 812.333 " fill="none" stroke-width="3.333333" stroke="#000000ff"/>
  <path d="M1613.56 825.667 L1613.56 812.333 " fill="none" stroke-width="3.333333" stroke="#000000ff"/>
  <path d="M1760.95 825.667 L1760.95 812.333 " fill="none" stroke-width="3.333333" stroke="#000000ff"/>
  <text x="241.171875" y="889.000000" fill="#000000ff" font-size="36.666667" font-family="Arial,Helvetica,'Helvetica Neue',sans-serif" font-weight="500.000000">05:15</text>
  <text x="388.562502" y="889.000000" fill="#000000ff" font-size="36.666667" font-family="Arial,Helvetica,'Helvetica Neue',sans-serif" font-weight="500.000000">05:51</text>
  <text x="535.953129" y="889.000000" fill="#000000ff" font-size="36.666667" font-family="Arial,Helvetica,'Helvetica Neue',sans-serif" font-weight="500.000000">06:27</text>
  <text x="683.343768" y="889.000000" fill="#000000ff" font-size="36.666667" font-family="Arial,Helvetica,'Helvetica Neue',sans-serif" font-weight="500.000000">07:03</text>
  <text x="830.734384" y="889.000000" fill="#000000ff" font-size="36.666667" font-family="Arial,Helvetica,'Helvetica Neue',sans-serif" font-weight="500.000000">07:39</text>
  <text x="978.125000" y="889.000000" fill="#000000ff" font-size="36.666667" font-family="Arial,Helvetica,'Helvetica Neue',sans-serif" font-weight="500.000000">08:15</text>
  <text x="1125.515660" y="889.000000" fill="#000000ff" font-size="36.666667" font-family="Arial,Helvetica,'Helvetica Neue',sans-serif" font-weight="500.000000">08:51</text>
  <text x="1272.906232" y="889.000000" fill="#000000ff" font-size="36.666667" font-family="Arial,Helvetica,'Helvetica Neue',sans-serif" font-weight="500.000000">09:26</text>
  <text x="1420.296893" y="889.000000" fill="#000000ff" font-size="36.666667" font-family="Arial,Helvetica,'Helvetica Neue',sans-serif" font-weight="500.000000">10:03</text>
  <text x="1567.687553" y="889.000000" fill="#000000ff" font-size="36.666667" font-family="Arial,Helvetica,'Helvetica Neue',sans-serif" font-weight="500.000000">10:39</text>
  <text x="1716.437500" y="889.000000" fill="#000000ff" font-size="36.666667" font-family="Arial,Helvetica,'Helvetica Neue',sans-serif" font-weight="500.000000">11:15</text>
  <text x="973.078125" y="977.333333" fill="#000000ff" font-size="46.666667" font-family="Arial,Helvetica,'Helvetica Neue',sans-serif" font-weight="500.000000">Time</text>
  <path d="M287.047 825.667 L287.047 198.333 " fill="none" stroke-width="3.333333" stroke="#000000ff"/>
  <path d="M287.047 825.667 L300.38 825.667 " fill="none" stroke-width="3.333333" stroke="#000000ff"/>
  <path d="M287.047 762.933 L300.38 762.933 " fill="none" stroke-width="3.333333" stroke="#000000ff"/>
  <path d="M287.047 700.2 L300.38 700.2 " fill="none" stroke-width="3.333333" stroke="#000000ff"/>
  <path d="M287.047 637.467 L300.38 637.467 " fill="none" stroke-width="3.333333" stroke="#000000ff"/>
  <path d="M287.047 574.733 L300.38 574.733 " fill="none" stroke-width="3.333333" stroke="#000000ff"/>
  <path d="M287.047 512 L300.38 512 " fill="none" stroke-width="3.333333" stroke="#000000ff"/>
  <path d="M287.047 449.267 L300.38 449.267 " fill="none" stroke-width="3.333333" stroke="#000000ff"/>
  <path d="M287.047 386.533 L300.38 386.533 " fill="none" stroke-width="3.333333" stroke="#000000ff"/>
  <path d="M287.047 323.8 L300.38 323.8 " fill="none" stroke-width="3.333333" stroke="#000000ff"/>
  <path d="M287.047 261.067 L300.38 261.067 " fill="none" stroke-width="3.333333" stroke="#000000ff"/>
  <path d="M287.047 198.333 L300.38 198.333 " fill="none" stroke-width="3.333333" stroke="#000000ff"/>
  <text x="117.666667" y="834.166667" fill="#000000ff" font-size="36.666667" font-family="Arial,Helvetica,'Helvetica Neue',sans-serif" font-weight="500.000000">7.3 × 10⁶</text>
  <text x="117.666667" y="771.433332" fill="#000000ff" font-size="36.666667" font-family="Arial,Helvetica,'Helvetica Neue',sans-serif" font-weight="500.000000">7.4 × 10⁶</text>
  <text x="117.666667" y="708.699998" fill="#000000ff" font-size="36.666667" font-family="Arial,Helvetica,'Helvetica Neue',sans-serif" font-weight="500.000000">7.6 × 10⁶</text>
  <text x="117.666667" y="645.966659" fill="#000000ff" font-size="36.666667" font-family="Arial,Helvetica,'Helvetica Neue',sans-serif" font-weight="500.000000">7.7 × 10⁶</text>
  <text x="117.666667" y="583.233330" fill="#000000ff" font-size="36.666667" font-family="Arial,Helvetica,'Helvetica Neue',sans-serif" font-weight="500.000000">7.8 × 10⁶</text>
  <text x="117.666667" y="520.500000" fill="#000000ff" font-size="36.666667" font-family="Arial,Helvetica,'Helvetica Neue',sans-serif" font-weight="500.000000">8.0 × 10⁶</text>
  <text x="117.666667" y="457.766652" fill="#000000ff" font-size="36.666667" font-family="Arial,Helvetica,'Helvetica Neue',sans-serif" font-weight="500.000000">8.1 × 10⁶</text>
  <text x="117.666667" y="395.033341" fill="#000000ff" font-size="36.666667" font-family="Arial,Helvetica,'Helvetica Neue',sans-serif" font-weight="500.000000">8.2 × 10⁶</text>
  <text x="117.666667" y="332.299993" fill="#000000ff" font-size="36.666667" font-family="Arial,Helvetica,'Helvetica Neue',sans-serif" font-weight="500.000000">8.4 × 10⁶</text>
  <text x="117.666667" y="269.566644" fill="#000000ff" font-size="36.666667" font-family="Arial,Helvetica,'Helvetica Neue',sans-serif" font-weight="500.000000">8.5 × 10⁶</text>
  <text x="117.666667" y="206.833333" fill="#000000ff" font-size="36.666667" font-family="Arial,Helvetica,'Helvetica Neue',sans-serif" font-weight="500.000000">8.6 × 10⁶</text>
  <text x="5.283854" y="528.500000" fill="#000000ff" font-size="46.666667" font-family="Arial,Helvetica,'Helvetica Neue',sans-serif" font-weight="500.000000" transform="matrix(6.12323e-17 -1 1 6.12323e-17 -448.833 575.167)">Value</text>
  <path d="M287.047 198.333 L307.518 331.928 L327.989 414.199 L348.46 407.622 L368.931 474.055 L389.401 515.913 L409.872 543.818 L430.343 560.914 L450.814 604.679 L471.285 527.04 L491.756 551.484 L512.227 626.413 L532.698 530.712 L553.169 542.397 L573.64 616.333 L594.111 606.359 L614.582 655.666 L635.053 689.417 L655.523 740.955 L675.994 760.082 L696.465 786.716 L716.936 579.418 L737.407 424.912 L757.878 383.079 L778.349 420.045 L798.82 505.492 L819.291 623.969 L839.762 614.534 L860.233 686.059 L880.704 710.237 L901.174 744.232 L921.645 713.414 L942.116 751.007 L962.587 678.974 L983.058 620.043 L1003.53 742.584 L1024 758.167 L1044.47 777.803 L1064.94 825.667 L1085.41 726.428 L1105.88 682.68 L1126.35 687.251 L1146.83 711.491 L1167.3 646.452 L1187.77 748.396 L1208.24 679.188 L1228.71 651.069 L1249.18 654.155 L1269.65 691.273 L1290.12 614.733 L1310.59 602.08 L1331.06 552.589 L1351.53 614.682 L1372.01 677.037 L1392.48 726.522 L1412.95 631.188 L1433.42 676.086 L1453.89 666.487 L1474.36 751.848 L1494.83 776.445 L1515.3 750.336 L1535.77 770.153 L1556.24 749.771 L1576.71 715.888 L1597.19 726.946 L1617.66 704.417 L1638.13 670.433 L1658.6 689.283 L1679.07 719.977 L1699.54 608.371 L1720.01 593.433 L1740.48 532.864 L1760.95 539.142 " fill="none" stroke-width="5.000000" stroke="#000000ff"/>
</svg>