<?xml version="1.0" encoding="UTF-8" ?>
<!-- Generated by clip v0.6.0 (clip-lang.org) -->
<svg xmlns="http://www.w3.org/2000/svg" width="2048.000000" height="1024.000000">
  <rect width="2048.000000" height="1024.000000" fill="#ffffff" fill-opacity="1.000000"/>
  <path d="M331.422 207.667 L1716.58 207.667 " fill="none" stroke-width="3.333333" stroke="#000000ff"/>
  <path d="M331.422 221 L331.422 207.667 " fill="none" stroke-width="3.333333" stroke="#000000ff"/>
  <path d="M469.938 221 L469.938 207.667 " fill="none" stroke-width="3.333333" stroke="#000000ff"/>
  <path d="M608.453 221 L608.453 207.667 " fill="none" stroke-width="3.333333" stroke="#000000ff"/>
  <path d="M746.969 221 L746.969 207.667 " fill="none" stroke-width="3.333333" stroke="#000000ff"/>
  <path d="M885.484 221 L885.484 207.667 " fill="none" stroke-width="3.333333" stroke="#000000ff"/>
  <path d="M1024 221 L1024 207.667 " fill="none" stroke-width="3.333333" stroke="#000000ff"/>
  <path d="M1162.52 221 L1162.52 207.667 " fill="none" stroke-width="3.333333" stroke="#000000ff"/>
  <path d="M1301.03 221 L1301.03 207.667 " fill="none" stroke-width="3.333333" stroke="#000000ff"/>
  <path d="M1439.55 221 L1439.55 207.667 " fill="none" stroke-width="3.333333" stroke="#000000ff"/>
  <path d="M1578.06 221 L1578.06 207.667 " fill="none" stroke-width="3.333333" stroke="#000000ff"/>
  <path d="M1716.58 221 L1716.58 207.667 " fill="none" stroke-width="3.333333" stroke="#000000ff"/>
  <text x="260.062500" y="170.333333" fill="#000000ff" font-size="36.666667" font-family="Arial,Helvetica,'Helvetica Neue',sans-serif" font-weight="500.000000">05:15:00</text>
  <text x="398.578127" y="170.333333" fill="#000000ff" font-size="36.666667" font-family="Arial,Helvetica,'Helvetica Neue',sans-serif" font-weight="500.000000">05:51:00</text>
  <text x="537.093754" y="170.333333" fill="#000000ff" font-size="36.666667" font-family="Arial,Helvetica,'Helvetica Neue',sans-serif" font-weight="500.000000">06:27:00</text>
  <text x="675.609392" y="170.333333" fill="#000000ff" font-size="36.666667" font-family="Arial,Helvetica,'Helvetica Neue',sans-serif" font-weight="500.000000">07:03:00</text>
  <text x="814.125008" y="170.333333" fill="#000000ff" font-size="36.666667" font-family="Arial,Helvetica,'Helvetica Neue',sans-serif" font-weight="500.000000">07:39:00</text>
  <text x="952.640625" y="170.333333" fill="#000000ff" font-size="36.666667" font-family="Arial,Helvetica,'Helvetica Neue',sans-serif" font-weight="500.000000">08:15:00</text>
  <text x="1091.156283" y="170.333333" fill="#000000ff" font-size="36.666667" font-family="Arial,Helvetica,'Helvetica Neue',sans-serif" font-weight="500.000000">08:51:00</text>
  <text x="1229.671858" y="170.333333" fill="#000000ff" font-size="36.666667" font-family="Arial,Helvetica,'Helvetica Neue',sans-serif" font-weight="500.000000">09:26:59</text>
  <text x="1368.187517" y="170.333333" fill="#000000ff" font-size="36.666667" font-family="Arial,Helvetica,'Helvetica Neue',sans-serif" font-weight="500.000000">10:03:00</text>
  <text x="1506.703175" y="170.333333" fill="#000000ff" font-size="36.666667" font-family="Arial,Helvetica,'Helvetica Neue',sans-serif" font-weight="500.000000">10:39:00</text>
  <text x="1646.578125" y="170.333333" fill="#000000ff" font-size="36.666667" font-family="Arial,Helvetica,'Helvetica Neue',sans-serif" font-weight="500.000000">11:15:00</text>
  <text x="973.078125" y="79.666667" fill="#000000ff" font-size="46.666667" font-family="Arial,Helvetica,'Helvetica Neue',sans-serif" font-weight="500.000000">Time</text>
  <path d="M1716.58 816.333 L1716.58 207.667 " fill="none" stroke-width="3.333333" stroke="#000000ff"/>
  <path d="M1703.24 816.333 L1716.58 816.333 " fill="none" stroke-width="3.333333" stroke="#000000ff"/>
  <path d="M1703.24 755.467 L1716.58 755.467 " fill="none" stroke-width="3.333333" stroke="#000000ff"/>
  <path d="M1703.24 694.6 L1716.58 694.6 " fill="none" stroke-width="3.333333" stroke="#000000ff"/>
  <path d="M1703.24 633.733 L1716.58 633.733 " fill="none" stroke-width="3.333333" stroke="#000000ff"/>
  <path d="M1703.24 572.867 L1716.58 572.867 " fill="none" stroke-width="3.333333" stroke="#000000ff"/>
  <path d="M1703.24 512 L1716.58 512 " fill="none" stroke-width="3.333333" stroke="#000000ff"/>
  <path d="M1703.24 451.133 L1716.58 451.133 " fill="none" stroke-width="3.333333" stroke="#000000ff"/>
  <path d="M1703.24 390.267 L1716.58 390.267 " fill="none" stroke-width="3.333333" stroke="#000000ff"/>
  <path d="M1703.24 329.4 L1716.58 329.4 " fill="none" stroke-width="3.333333" stroke="#000000ff"/>
  <path d="M1703.24 268.533 L1716.58 268.533 " fill="none" stroke-width="3.333333" stroke="#000000ff"/>
  <path d="M1703.24 207.667 L1716.58 207.667 " fill="none" stroke-width="3.333333" stroke="#000000ff"/>
  <text x="1745.911458" y="829.333333" fill="#000000ff" font-size="36.666667" font-family="Arial,Helvetica,'Helvetica Neue',sans-serif" font-weight="500.000000">0</text>
  <text x="1745.911458" y="768.466666" fill="#000000ff" font-size="36.666667" font-family="Arial,Helvetica,'Helvetica Neue',sans-serif" font-weight="500.000000">1.0 × 10⁻¹</text>
  <text x="1745.911458" y="703.099998" fill="#000000ff" font-size="36.666667" font-family="Arial,Helvetica,'Helvetica Neue',sans-serif" font-weight="500.000000">0.2 × 10⁰</text>
  <text x="1745.911458" y="642.233326" fill="#000000ff" font-size="36.666667" font-family="Arial,Helvetica,'Helvetica Neue',sans-serif" font-weight="500.000000">0.3 × 10⁰</text>
  <text x="1745.911458" y="581.366663" fill="#000000ff" font-size="36.666667" font-family="Arial,Helvetica,'Helvetica Neue',sans-serif" font-weight="500.000000">0.4 × 10⁰</text>
  <text x="1745.911458" y="520.500000" fill="#000000ff" font-size="36.666667" font-family="Arial,Helvetica,'Helvetica Neue',sans-serif" font-weight="500.000000">0.5 × 10⁰</text>
  <text x="1745.911458" y="459.633319" fill="#000000ff" font-size="36.666667" font-family="Arial,Helvetica,'Helvetica Neue',sans-serif" font-weight="500.000000">0.6 × 10⁰</text>
  <text x="1745.911458" y="398.766674" fill="#000000ff" font-size="36.666667" font-family="Arial,Helvetica,'Helvetica Neue',sans-serif" font-weight="500.000000">0.7 × 10⁰</text>
  <text x="1745.911458" y="337.899993" fill="#000000ff" font-size="36.666667" font-family="Arial,Helvetica,'Helvetica Neue',sans-serif" font-weight="500.000000">0.8 × 10⁰</text>
  <text x="1745.911458" y="277.033312" fill="#000000ff" font-size="36.666667" font-family="Arial,Helvetica,'Helvetica Neue',sans-serif" font-weight="500.000000">0.9 × 10⁰</text>
  <text x="1745.911458" y="216.166667" fill="#000000ff" font-size="36.666667" font-family="Arial,Helvetica,'Helvetica Neue',sans-serif" font-weight="500.000000">1.0 × 10⁰</text>
  <text x="1926.950521" y="528.500000" fill="#000000ff" font-size="46.666667" font-family="Arial,Helvetica,'Helvetica Neue',sans-serif" font-weight="500.000000" transform="matrix(6.12323e-17 1 -1 6.12323e-17 2496.83 -1472.83)">Value</text>
  <path d="M331.422 816.333 L1716.58 816.333 " fill="none" stroke-width="3.333333" stroke="#000000ff"/>
  <path d="M331.422 816.333 L331.422 803 " fill="none" stroke-width="3.333333" stroke="#000000ff"/>
  <path d="M469.938 816.333 L469.938 803 " fill="none" stroke-width="3.333333" stroke="#000000ff"/>
  <path d="M608.453 816.333 L608.453 803 " fill="none" stroke-width="3.333333" stroke="#000000ff"/>
  <path d="M746.969 816.333 L746.969 803 " fill="none" stroke-width="3.333333" stroke="#000000ff"/>
  <path d="M885.484 816.333 L885.484 803 " fill="none" stroke-width="3.333333" stroke="#000000ff"/>
  <path d="M1024 816.333 L1024 803 " fill="none" stroke-width="3.333333" stroke="#000000ff"/>
  <path d="M1162.52 816.333 L1162.52 803 " fill="none" stroke-width="3.333333" stroke="#000000ff"/>
  <path d="M1301.03 816.333 L1301.03 803 " fill="none" stroke-width="3.333333" stroke="#000000ff"/>
  <path d="M1439.55 816.333 L1439.55 803 " fill="none" stroke-width="3.333333" stroke="#000000ff"/>
  <path d="M1578.06 816.333 L1578.06 803 " fill="none" stroke-width="3.333333" stroke="#000000ff"/>
  <path d="M1716.58 816.333 L1716.58 803 " fill="none" stroke-width="3.333333" stroke="#000000ff"/>
  <text x="260.062500" y="879.666667" fill="#000000ff" font-size="36.666667" font-family="Arial,Helvetica,'Helvetica Neue',sans-serif" font-weight="500.000000">05:15:00</text>
  <text x="398.578127" y="879.666667" fill="#000000ff" font-size="36.666667" font-family="Arial,Helvetica,'Helvetica Neue',sans-serif" font-weight="500.000000">05:51:00</text>
  <text x="537.093754" y="879.666667" fill="#000000ff" font-size="36.666667" font-family="Arial,Helvetica,'Helvetica Neue',sans-serif" font-weight="500.000000">06:27:00</text>
  <text x="675.609392" y="879.666667" fill="#000000ff" font-size="36.666667" font-family="Arial,Helvetica,'Helvetica Neue',sans-serif" font-weight="500.000000">07:03:00</text>
  <text x="814.125008" y="879.666667" fill="#000000ff" font-size="36.666667" font-family="Arial,Helvetica,'Helvetica Neue',sans-serif" font-weight="500.000000">07:39:00</text>
  <text x="952.640625" y="879.666667" fill="#000000ff" font-size="36.666667" font-family="Arial,Helvetica,'Helvetica Neue',sans-serif" font-weight="500.000000">08:15:00</text>
  <text x="1091.156283" y="879.666667" fill="#000000ff" font-size="36.666667" font-family="Arial,Helvetica,'Helvetica Neue',sans-serif" font-weight="500.000000">08:51:00</text>
  <text x="1229.671858" y="879.666667" fill="#000000ff" font-size="36.666667" font-family="Arial,Helvetica,'Helvetica Neue',sans-serif" font-weight="500.000000">09:26:59</text>
  <text x="1368.187517" y="879.666667" fill="#000000ff" font-size="36.666667" font-family="Arial,Helvetica,'Helvetica Neue',sans-serif" font-weight="500.000000">10:03:00</text>
  <text x="1506.703175" y="879.666667" fill="#000000ff" font-size="36.666667" font-family="Arial,Helvetica,'Helvetica Neue',sans-serif" font-weight="500.000000">10:39:00</text>
  <text x="1646.578125" y="879.666667" fill="#000000ff" font-size="36.666667" font-family="Arial,Helvetica,'Helvetica Neue',sans-serif" font-weight="500.000000">11:15:00</text>
  <text x="973.078125" y="977.333333" fill="#000000ff" font-size="46.666667" font-family="Arial,Helvetica,'Helvetica Neue',sans-serif" font-weight="500.000000">Time</text>
  <path d="M331.422 816.333 L331.422 207.667 " fill="none" stroke-width="3.333333" stroke="#000000ff"/>
  <path d="M331.422 816.333 L344.755 816.333 " fill="none" stroke-width="3.333333" stroke="#000000ff"/>
  <path d="M331.422 755.467 L344.755 755.467 " fill="none" stroke-width="3.333333" stroke="#000000ff"/>
  <path d="M331.422 694.6 L344.755 694.6 " fill="none" stroke-width="3.333333" stroke="#000000ff"/>
  <path d="M331.422 633.733 L344.755 633.733 " fill="none" stroke-width="3.333333" stroke="#000000ff"/>
  <path d="M331.422 572.867 L344.755 572.867 " fill="none" stroke-width="3.333333" stroke="#000000ff"/>
  <path d="M331.422 512 L344.755 512 " fill="none" stroke-width="3.333333" stroke="#000000ff"/>
  <path d="M331.422 451.133 L344.755 451.133 " fill="none" stroke-width="3.333333" stroke="#000000ff"/>
  <path d="M331.422 390.267 L344.755 390.267 " fill="none" stroke-width="3.333333" stroke="#000000ff"/>
  <path d="M331.422 329.4 L344.755 329.4 " fill="none" stroke-width="3.333333" stroke="#000000ff"/>
  <path d="M331.422 268.533 L344.755 268.533 " fill="none" stroke-width="3.333333" stroke="#000000ff"/>
  <path d="M331.422 207.667 L344.755 207.667 " fill="none" stroke-width="3.333333" stroke="#000000ff"/>
  <text x="281.697917" y="829.333333" fill="#000000ff" font-size="36.666667" font-family="Arial,Helvetica,'Helvetica Neue',sans-serif" font-weight="500.000000">0</text>
  <text x="117.666667" y="768.466666" fill="#000000ff" font-size="36.666667" font-family="Arial,Helvetica,'Helvetica Neue',sans-serif" font-weight="500.000000">1.0 × 10⁻¹</text>
  <text x="162.041667" y="703.099998" fill="#000000ff" font-size="36.666667" font-family="Arial,Helvetica,'Helvetica Neue',sans-serif" font-weight="500.000000">0.2 × 10⁰</text>
  <text x="162.041667" y="642.233326" fill="#000000ff" font-size="36.666667" font-family="Arial,Helvetica,'Helvetica Neue',sans-serif" font-weight="500.000000">0.3 × 10⁰</text>
  <text x="162.041667" y="581.366663" fill="#000000ff" font-size="36.666667" font-family="Arial,Helvetica,'Helvetica Neue',sans-serif" font-weight="500.000000">0.4 × 10⁰</text>
  <text x="162.041667" y="520.500000" fill="#000000ff" font-size="36.666667" font-family="Arial,Helvetica,'Helvetica Neue',sans-serif" font-weight="500.000000">0.5 × 10⁰</text>
  <text x="162.041667" y="459.633319" fill="#000000ff" font-size="36.666667" font-family="Arial,Helvetica,'Helvetica Neue',sans-serif" font-weight="500.000000">0.6 × 10⁰</text>
  <text x="162.041667" y="398.766674" fill="#000000ff" font-size="36.666667" font-family="Arial,Helvetica,'Helvetica Neue',sans-serif" font-weight="500.000000">0.7 × 10⁰</text>
  <text x="162.041667" y="337.899993" fill="#000000ff" font-size="36.666667" font-family="Arial,Helvetica,'Helvetica Neue',sans-serif" font-weight="500.000000">0.8 × 10⁰</text>
  <text x="162.041667" y="277.033312" fill="#000000ff" font-size="36.666667" font-family="Arial,Helvetica,'Helvetica Neue',sans-serif" font-weight="500.000000">0.9 × 10⁰</text>
  <text x="162.041667" y="216.166667" fill="#000000ff" font-size="36.666667" font-family="Arial,Helvetica,'Helvetica Neue',sans-serif" font-weight="500.000000">1.0 × 10⁰</text>
  <text x="5.283854" y="528.500000" fill="#000000ff" font-size="46.666667" font-family="Arial,Helvetica,'Helvetica Neue',sans-serif" font-weight="500.000000" transform="matrix(6.12323e-17 1 -1 6.12323e-17 575.167 448.833)">Value</text>
  <path d="M331.422 207.667 L350.66 337.286 L369.898 417.109 L389.137 410.728 L408.375 475.184 L427.613 515.796 L446.852 542.871 L466.09 559.459 L485.328 601.921 L504.566 526.592 L523.805 550.309 L543.043 623.009 L562.281 530.156 L581.52 541.493 L600.758 613.229 L619.996 603.551 L639.234 651.391 L658.473 684.138 L677.711 734.143 L696.949 752.7 L716.188 778.541 L735.426 577.411 L754.664 427.503 L773.902 386.916 L793.141 422.781 L812.379 505.685 L831.617 620.637 L850.855 611.483 L870.094 680.88 L889.332 704.338 L908.57 737.321 L927.809 707.421 L947.047 743.895 L966.285 674.006 L985.523 616.828 L1004.76 735.723 L1024 750.842 L1043.24 769.894 L1062.48 816.333 L1081.71 720.048 L1100.95 677.602 L1120.19 682.036 L1139.43 705.555 L1158.67 642.451 L1177.91 741.362 L1197.14 674.213 L1216.38 646.931 L1235.62 649.925 L1254.86 685.939 L1274.1 611.676 L1293.34 599.399 L1312.57 551.382 L1331.81 611.627 L1351.05 672.126 L1370.29 720.139 L1389.53 627.642 L1408.77 671.203 L1428 661.89 L1447.24 744.711 L1466.48 768.576 L1485.72 743.244 L1504.96 762.471 L1524.2 742.696 L1543.43 709.821 L1562.67 720.55 L1581.91 698.691 L1601.15 665.719 L1620.39 684.008 L1639.62 713.789 L1658.86 605.503 L1678.1 591.01 L1697.34 532.243 L1716.58 538.334 " fill="none" stroke-width="5.000000" stroke="#000000ff"/>
</svg>