<?xml version="1.0" encoding="UTF-8" ?>
<!-- Generated by clip v0.6.0 (clip-lang.org) -->
<svg xmlns="http://www.w3.org/2000/svg" width="2048.000000" height="1024.000000">
  <rect width="2048.000000" height="1024.000000" fill="#ffffff" fill-opacity="1.000000"/>
  <path d="M294.755 171 L1753.24 171 " fill="none" stroke-width="3.333333" stroke="#000000ff"/>
  <path d="M294.755 184.333 L294.755 171 " fill="none" stroke-width="3.333333" stroke="#000000ff"/>
  <path d="M440.604 184.333 L440.604 171 " fill="none" stroke-width="3.333333" stroke="#000000ff"/>
  <path d="M586.453 184.333 L586.453 171 " fill="none" stroke-width="3.333333" stroke="#000000ff"/>
  <path d="M732.302 184.333 L732.302 171 " fill="none" stroke-width="3.333333" stroke="#000000ff"/>
  <path d="M878.151 184.333 L878.151 171 " fill="none" stroke-width="3.333333" stroke="#000000ff"/>
  <path d="M1024 184.333 L1024 171 " fill="none" stroke-width="3.333333" stroke="#000000ff"/>
  <path d="M1169.85 184.333 L1169.85 171 " fill="none" stroke-width="3.333333" stroke="#000000ff"/>
  <path d="M1315.7 184.333 L1315.7 171 " fill="none" stroke-width="3.333333" stroke="#000000ff"/>
  <path d="M1461.55 184.333 L1461.55 171 " fill="none" stroke-width="3.333333" stroke="#000000ff"/>
  <path d="M1607.4 184.333 L1607.4 171 " fill="none" stroke-width="3.333333" stroke="#000000ff"/>
  <path d="M1753.24 184.333 L1753.24 171 " fill="none" stroke-width="3.333333" stroke="#000000ff"/>
  <text x="223.395833" y="133.666667" fill="#000000ff" font-size="36.666667" font-family="Arial,Helvetica,'Helvetica Neue',sans-serif" font-weight="500.000000">05:15:00</text>
  <text x="369.244794" y="133.666667" fill="#000000ff" font-size="36.666667" font-family="Arial,Helvetica,'Helvetica Neue',sans-serif" font-weight="500.000000">05:51:00</text>
  <text x="515.093754" y="133.666667" fill="#000000ff" font-size="36.666667" font-family="Arial,Helvetica,'Helvetica Neue',sans-serif" font-weight="500.000000">06:27:00</text>
  <text x="660.942726" y="133.666667" fill="#000000ff" font-size="36.666667" font-family="Arial,Helvetica,'Helvetica Neue',sans-serif" font-weight="500.000000">07:03:00</text>
  <text x="806.791675" y="133.666667" fill="#000000ff" font-size="36.666667" font-family="Arial,Helvetica,'Helvetica Neue',sans-serif" font-weight="500.000000">07:39:00</text>
  <text x="952.640625" y="133.666667" fill="#000000ff" font-size="36.666667" font-family="Arial,Helvetica,'Helvetica Neue',sans-serif" font-weight="500.000000">08:15:00</text>
  <text x="1098.489618" y="133.666667" fill="#000000ff" font-size="36.666667" font-family="Arial,Helvetica,'Helvetica Neue',sans-serif" font-weight="500.000000">08:51:00</text>
  <text x="1244.338524" y="133.666667" fill="#000000ff" font-size="36.666667" font-family="Arial,Helvetica,'Helvetica Neue',sans-serif" font-weight="500.000000">09:26:59</text>
  <text x="1390.187517" y="133.666667" fill="#000000ff" font-size="36.666667" font-family="Arial,Helvetica,'Helvetica Neue',sans-serif" font-weight="500.000000">10:03:00</text>
  <text x="1536.036510" y="133.666667" fill="#000000ff" font-size="36.666667" font-family="Arial,Helvetica,'Helvetica Neue',sans-serif" font-weight="500.000000">10:39:00</text>
  <text x="1683.244792" y="133.666667" fill="#000000ff" font-size="36.666667" font-family="Arial,Helvetica,'Helvetica Neue',sans-serif" font-weight="500.000000">11:15:00</text>
  <text x="973.078125" y="43.000000" fill="#000000ff" font-size="46.666667" font-family="Arial,Helvetica,'Helvetica Neue',sans-serif" font-weight="500.000000">Time</text>
  <path d="M1753.24 853 L1753.24 171 " fill="none" stroke-width="3.333333" stroke="#000000ff"/>
  <path d="M1739.91 853 L1753.24 853 " fill="none" stroke-width="3.333333" stroke="#000000ff"/>
  <path d="M1739.91 784.8 L1753.24 784.8 " fill="none" stroke-width="3.333333" stroke="#000000ff"/>
  <path d="M1739.91 716.6 L1753.24 716.6 " fill="none" stroke-width="3.333333" stroke="#000000ff"/>
  <path d="M1739.91 648.4 L1753.24 648.4 " fill="none" stroke-width="3.333333" stroke="#000000ff"/>
  <path d="M1739.91 580.2 L1753.24 580.2 " fill="none" stroke-width="3.333333" stroke="#000000ff"/>
  <path d="M1739.91 512 L1753.24 512 " fill="none" stroke-width="3.333333" stroke="#000000ff"/>
  <path d="M1739.91 443.8 L1753.24 443.8 " fill="none" stroke-width="3.333333" stroke="#000000ff"/>
  <path d="M1739.91 375.6 L1753.24 375.6 " fill="none" stroke-width="3.333333" stroke="#000000ff"/>
  <path d="M1739.91 307.4 L1753.24 307.4 " fill="none" stroke-width="3.333333" stroke="#000000ff"/>
  <path d="M1739.91 239.2 L1753.24 239.2 " fill="none" stroke-width="3.333333" stroke="#000000ff"/>
  <path d="M1739.91 171 L1753.24 171 " fill="none" stroke-width="3.333333" stroke="#000000ff"/>
  <text x="1782.578125" y="866.000000" fill="#000000ff" font-size="36.666667" font-family="Arial,Helvetica,'Helvetica Neue',sans-serif" font-weight="500.000000">0</text>
  <text x="1782.578125" y="797.799999" fill="#000000ff" font-size="36.666667" font-family="Arial,Helvetica,'Helvetica Neue',sans-serif" font-weight="500.000000">1.0 × 10⁻¹</text>
  <text x="1782.578125" y="725.099998" fill="#000000ff" font-size="36.666667" font-family="Arial,Helvetica,'Helvetica Neue',sans-serif" font-weight="500.000000">0.2 × 10⁰</text>
  <text x="1782.578125" y="656.899992" fill="#000000ff" font-size="36.666667" font-family="Arial,Helvetica,'Helvetica Neue',sans-serif" font-weight="500.000000">0.3 × 10⁰</text>
  <text x="1782.578125" y="588.699996" fill="#000000ff" font-size="36.666667" font-family="Arial,Helvetica,'Helvetica Neue',sans-serif" font-weight="500.000000">0.4 × 10⁰</text>
  <text x="1782.578125" y="520.500000" fill="#000000ff" font-size="36.666667" font-family="Arial,Helvetica,'Helvetica Neue',sans-serif" font-weight="500.000000">0.5 × 10⁰</text>
  <text x="1782.578125" y="452.299984" fill="#000000ff" font-size="36.666667" font-family="Arial,Helvetica,'Helvetica Neue',sans-serif" font-weight="500.000000">0.6 × 10⁰</text>
  <text x="1782.578125" y="384.100008" fill="#000000ff" font-size="36.666667" font-family="Arial,Helvetica,'Helvetica Neue',sans-serif" font-weight="500.000000">0.7 × 10⁰</text>
  <text x="1782.578125" y="315.899992" fill="#000000ff" font-size="36.666667" font-family="Arial,Helvetica,'Helvetica Neue',sans-serif" font-weight="500.000000">0.8 × 10⁰</text>
  <text x="1782.578125" y="247.699976" fill="#000000ff" font-size="36.666667" font-family="Arial,Helvetica,'Helvetica Neue',sans-serif" font-weight="500.000000">0.9 × 10⁰</text>
  <text x="1782.578125" y="179.500000" fill="#000000ff" font-size="36.666667" font-family="Arial,Helvetica,'Helvetica Neue',sans-serif" font-weight="500.000000">1.0 × 10⁰</text>
  <text x="1963.617188" y="528.500000" fill="#000000ff" font-size="46.666667" font-family="Arial,Helvetica,'Helvetica Neue',sans-serif" font-weight="500.000000" transform="matrix(6.12323e-17 1 -1 6.12323e-17 2533.5 -1509.5)">Value</text>
  <path d="M294.755 853 L1753.24 853 " fill="none" stroke-width="3.333333" stroke="#000000ff"/>
  <path d="M294.755 853 L294.755 839.667 " fill="none" stroke-width="3.333333" stroke="#000000ff"/>
  <path d="M440.604 853 L440.604 839.667 " fill="none" stroke-width="3.333333" stroke="#000000ff"/>
  <path d="M586.453 853 L586.453 839.667 " fill="none" stroke-width="3.333333" stroke="#000000ff"/>
  <path d="M732.302 853 L732.302 839.667 " fill="none" stroke-width="3.333333" stroke="#000000ff"/>
  <path d="M878.151 853 L878.151 839.667 " fill="none" stroke-width="3.333333" stroke="#000000ff"/>
  <path d="M1024 853 L1024 839.667 " fill="none" stroke-width="3.333333" stroke="#000000ff"/>
  <path d="M1169.85 853 L1169.85 839.667 " fill="none" stroke-width="3.333333" stroke="#000000ff"/>
  <path d="M1315.7 853 L1315.7 839.667 " fill="none" stroke-width="3.333333" stroke="#000000ff"/>
  <path d="M1461.55 853 L1461.55 839.667 " fill="none" stroke-width="3.333333" stroke="#000000ff"/>
  <path d="M1607.4 853 L1607.4 839.667 " fill="none" stroke-width="3.333333" stroke="#000000ff"/>
  <path d="M1753.24 853 L1753.24 839.667 " fill="none" stroke-width="3.333333" stroke="#000000ff"/>
  <text x="223.395833" y="916.333333" fill="#000000ff" font-size="36.666667" font-family="Arial,Helvetica,'Helvetica Neue',sans-serif" font-weight="500.000000">05:15:00</text>
  <text x="369.244794" y="916.333333" fill="#000000ff" font-size="36.666667" font-family="Arial,Helvetica,'Helvetica Neue',sans-serif" font-weight="500.000000">05:51:00</text>
  <text x="515.093754" y="916.333333" fill="#000000ff" font-size="36.666667" font-family="Arial,Helvetica,'Helvetica Neue',sans-serif" font-weight="500.000000">06:27:00</text>
  <text x="660.942726" y="916.333333" fill="#000000ff" font-size="36.666667" font-family="Arial,Helvetica,'Helvetica Neue',sans-serif" font-weight="500.000000">07:03:00</text>
  <text x="806.791675" y="916.333333" fill="#000000ff" font-size="36.666667" font-family="Arial,Helvetica,'Helvetica Neue',sans-serif" font-weight="500.000000">07:39:00</text>
  <text x="952.640625" y="916.333333" fill="#000000ff" font-size="36.666667" font-family="Arial,Helvetica,'Helvetica Neue',sans-serif" font-weight="500.000000">08:15:00</text>
  <text x="1098.489618" y="916.333333" fill="#000000ff" font-size="36.666667" font-family="Arial,Helvetica,'Helvetica Neue',sans-serif" font-weight="500.000000">08:51:00</text>
  <text x="1244.338524" y="916.333333" fill="#000000ff" font-size="36.666667" font-family="Arial,Helvetica,'Helvetica Neue',sans-serif" font-weight="500.000000">09:26:59</text>
  <text x="1390.187517" y="916.333333" fill="#000000ff" font-size="36.666667" font-family="Arial,Helvetica,'Helvetica Neue',sans-serif" font-weight="500.000000">10:03:00</text>
  <text x="1536.036510" y="916.333333" fill="#000000ff" font-size="36.666667" font-family="Arial,Helvetica,'Helvetica Neue',sans-serif" font-weight="500.000000">10:39:00</text>
  <text x="1683.244792" y="916.333333" fill="#000000ff" font-size="36.666667" font-family="Arial,Helvetica,'Helvetica Neue',sans-serif" font-weight="500.000000">11:15:00</text>
  <text x="973.078125" y="1014.000000" fill="#000000ff" font-size="46.666667" font-family="Arial,Helvetica,'Helvetica Neue',sans-serif" font-weight="500.000000">Time</text>
  <path d="M294.755 853 L294.755 171 " fill="none" stroke-width="3.333333" stroke="#000000ff"/>
  <path d="M294.755 853 L308.089 853 " fill="none" stroke-width="3.333333" stroke="#000000ff"/>
  <path d="M294.755 784.8 L308.089 784.8 " fill="none" stroke-width="3.333333" stroke="#000000ff"/>
  <path d="M294.755 716.6 L308.089 716.6 " fill="none" stroke-width="3.333333" stroke="#000000ff"/>
  <path d="M294.755 648.4 L308.089 648.4 " fill="none" stroke-width="3.333333" stroke="#000000ff"/>
  <path d="M294.755 580.2 L308.089 580.2 " fill="none" stroke-width="3.333333" stroke="#000000ff"/>
  <path d="M294.755 512 L308.089 512 " fill="none" stroke-width="3.333333" stroke="#000000ff"/>
  <path d="M294.755 443.8 L308.089 443.8 " fill="none" stroke-width="3.333333" stroke="#000000ff"/>
  <path d="M294.755 375.6 L308.089 375.6 " fill="none" stroke-width="3.333333" stroke="#000000ff"/>
  <path d="M294.755 307.4 L308.089 307.4 " fill="none" stroke-width="3.333333" stroke="#000000ff"/>
  <path d="M294.755 239.2 L308.089 239.2 " fill="none" stroke-width="3.333333" stroke="#000000ff"/>
  <path d="M294.755 171 L308.089 171 " fill="none" stroke-width="3.333333" stroke="#000000ff"/>
  <text x="245.031250" y="866.000000" fill="#000000ff" font-size="36.666667" font-family="Arial,Helvetica,'Helvetica Neue',sans-serif" font-weight="500.000000">0</text>
  <text x="81.000000" y="797.799999" fill="#000000ff" font-size="36.666667" font-family="Arial,Helvetica,'Helvetica Neue',sans-serif" font-weight="500.000000">1.0 × 10⁻¹</text>
  <text x="125.375000" y="725.099998" fill="#000000ff" font-size="36.666667" font-family="Arial,Helvetica,'Helvetica Neue',sans-serif" font-weight="500.000000">0.2 × 10⁰</text>
  <text x="125.375000" y="656.899992" fill="#000000ff" font-size="36.666667" font-family="Arial,Helvetica,'Helvetica Neue',sans-serif" font-weight="500.000000">0.3 × 10⁰</text>
  <text x="125.375000" y="588.699996" fill="#000000ff" font-size="36.666667" font-family="Arial,Helvetica,'Helvetica Neue',sans-serif" font-weight="500.000000">0.4 × 10⁰</text>
  <text x="125.375000" y="520.500000" fill="#000000ff" font-size="36.666667" font-family="Arial,Helvetica,'Helvetica Neue',sans-serif" font-weight="500.000000">0.5 × 10⁰</text>
  <text x="125.375000" y="452.299984" fill="#000000ff" font-size="36.666667" font-family="Arial,Helvetica,'Helvetica Neue',sans-serif" font-weight="500.000000">0.6 × 10⁰</text>
  <text x="125.375000" y="384.100008" fill="#000000ff" font-size="36.666667" font-family="Arial,Helvetica,'Helvetica Neue',sans-serif" font-weight="500.000000">0.7 × 10⁰</text>
  <text x="125.375000" y="315.899992" fill="#000000ff" font-size="36.666667" font-family="Arial,Helvetica,'Helvetica Neue',sans-serif" font-weight="500.000000">0.8 × 10⁰</text>
  <text x="125.375000" y="247.699976" fill="#000000ff" font-size="36.666667" font-family="Arial,Helvetica,'Helvetica Neue',sans-serif" font-weight="500.000000">0.9 × 10⁰</text>
  <text x="125.375000" y="179.500000" fill="#000000ff" font-size="36.666667" font-family="Arial,Helvetica,'Helvetica Neue',sans-serif" font-weight="500.000000">1.0 × 10⁰</text>
  <text x="-31.382812" y="528.500000" fill="#000000ff" font-size="46.666667" font-family="Arial,Helvetica,'Helvetica Neue',sans-serif" font-weight="500.000000" transform="matrix(6.12323e-17 1 -1 6.12323e-17 538.5 485.5)">Value</text>
  <path d="M294.755 171 L315.012 316.236 L335.269 405.677 L355.526 398.526 L375.782 470.748 L396.039 516.254 L416.296 546.59 L436.553 565.177 L456.81 612.755 L477.066 528.351 L497.323 554.925 L517.58 636.384 L537.837 532.343 L558.094 545.046 L578.35 625.425 L598.607 614.581 L618.864 668.185 L639.121 704.878 L659.378 760.907 L679.634 781.701 L699.891 810.655 L720.148 585.292 L740.405 417.323 L760.662 371.845 L780.918 412.032 L801.175 504.925 L821.432 633.726 L841.689 623.469 L861.946 701.227 L882.202 727.512 L902.459 764.469 L922.716 730.966 L942.973 771.834 L963.23 693.525 L983.486 629.458 L1003.74 762.677 L1024 779.618 L1044.26 800.965 L1064.51 853 L1084.77 745.114 L1105.03 697.554 L1125.28 702.523 L1145.54 728.875 L1165.8 658.168 L1186.05 768.996 L1206.31 693.757 L1226.57 663.188 L1246.82 666.542 L1267.08 706.895 L1287.34 623.685 L1307.6 609.93 L1327.85 556.126 L1348.11 623.63 L1368.37 691.418 L1388.62 745.216 L1408.88 641.574 L1429.14 690.384 L1449.39 679.95 L1469.65 772.749 L1489.91 799.489 L1510.16 771.105 L1530.42 792.649 L1550.68 770.49 L1570.93 733.655 L1591.19 745.676 L1611.45 721.184 L1631.7 684.239 L1651.96 704.732 L1672.22 738.101 L1692.47 616.769 L1712.73 600.529 L1732.99 534.682 L1753.24 541.507 " fill="none" stroke-width="5.000000" stroke="#000000ff"/>
</svg>