<?xml version="1.0" encoding="UTF-8" ?>
<!-- Generated by clip v0.6.0 (clip-lang.org) -->
<svg xmlns="http://www.w3.org/2000/svg" width="2048.000000" height="1024.000000">
  <rect width="2048.000000" height="1024.000000" fill="#ffffff" fill-opacity="1.000000"/>
  <path d="M331.422 198.333 L1716.58 198.333 " fill="none" stroke-width="3.333333" stroke="#000000ff"/>
  <path d="M331.422 211.667 L331.422 198.333 " fill="none" stroke-width="3.333333" stroke="#000000ff"/>
  <path d="M469.938 211.667 L469.938 198.333 " fill="none" stroke-width="3.333333" stroke="#000000ff"/>
  <path d="M608.453 211.667 L608.453 198.333 " fill="none" stroke-width="3.333333" stroke="#000000ff"/>
  <path d="M746.969 211.667 L746.969 198.333 " fill="none" stroke-width="3.333333" stroke="#000000ff"/>
  <path d="M885.484 211.667 L885.484 198.333 " fill="none" stroke-width="3.333333" stroke="#000000ff"/>
  <path d="M1024 211.667 L1024 198.333 " fill="none" stroke-width="3.333333" stroke="#000000ff"/>
  <path d="M1162.52 211.667 L1162.52 198.333 " fill="none" stroke-width="3.333333" stroke="#000000ff"/>
  <path d="M1301.03 211.667 L1301.03 198.333 " fill="none" stroke-width="3.333333" stroke="#000000ff"/>
  <path d="M1439.55 211.667 L1439.55 198.333 " fill="none" stroke-width="3.333333" stroke="#000000ff"/>
  <path d="M1578.06 211.667 L1578.06 198.333 " fill="none" stroke-width="3.333333" stroke="#000000ff"/>
  <path d="M1716.58 211.667 L1716.58 198.333 " fill="none" stroke-width="3.333333" stroke="#000000ff"/>
  <text x="260.062500" y="161.000000" fill="#000000ff" font-size="36.666667" font-family="Arial,Helvetica,'Helvetica Neue',sans-serif" font-weight="500.000000">05:15:00</text>
  <text x="398.578127" y="161.000000" fill="#000000ff" font-size="36.666667" font-family="Arial,Helvetica,'Helvetica Neue',sans-serif" font-weight="500.000000">05:51:00</text>
  <text x="537.093754" y="161.000000" fill="#000000ff" font-size="36.666667" font-family="Arial,Helvetica,'Helvetica Neue',sans-serif" font-weight="500.000000">06:27:00</text>
  <text x="675.609392" y="161.000000" fill="#000000ff" font-size="36.666667" font-family="Arial,Helvetica,'Helvetica Neue',sans-serif" font-weight="500.000000">07:03:00</text>
  <text x="814.125008" y="161.000000" fill="#000000ff" font-size="36.666667" font-family="Arial,Helvetica,'Helvetica Neue',sans-serif" font-weight="500.000000">07:39:00</text>
  <text x="952.640625" y="161.000000" fill="#000000ff" font-size="36.666667" font-family="Arial,Helvetica,'Helvetica Neue',sans-serif" font-weight="500.000000">08:15:00</text>
  <text x="1091.156283" y="161.000000" fill="#000000ff" font-size="36.666667" font-family="Arial,Helvetica,'Helvetica Neue',sans-serif" font-weight="500.000000">08:51:00</text>
  <text x="1229.671858" y="161.000000" fill="#000000ff" font-size="36.666667" font-family="Arial,Helvetica,'Helvetica Neue',sans-serif" font-weight="500.000000">09:26:59</text>
  <text x="1368.187517" y="161.000000" fill="#000000ff" font-size="36.666667" font-family="Arial,Helvetica,'Helvetica Neue',sans-serif" font-weight="500.000000">10:03:00</text>
  <text x="1506.703175" y="161.000000" fill="#000000ff" font-size="36.666667" font-family="Arial,Helvetica,'Helvetica Neue',sans-serif" font-weight="500.000000">10:39:00</text>
  <text x="1646.578125" y="161.000000" fill="#000000ff" font-size="36.666667" font-family="Arial,Helvetica,'Helvetica Neue',sans-serif" font-weight="500.000000">11:15:00</text>
  <text x="973.078125" y="79.666667" fill="#000000ff" font-size="46.666667" font-family="Arial,Helvetica,'Helvetica Neue',sans-serif" font-weight="500.000000">Time</text>
  <path d="M1716.58 825.667 L1716.58 198.333 " fill="none" stroke-width="3.333333" stroke="#000000ff"/>
  <path d="M1703.24 825.667 L1716.58 825.667 " fill="none" stroke-width="3.333333" stroke="#000000ff"/>
  <path d="M1703.24 762.933 L1716.58 762.933 " fill="none" stroke-width="3.333333" stroke="#000000ff"/>
  <path d="M1703.24 700.2 L1716.58 700.2 " fill="none" stroke-width="3.333333" stroke="#000000ff"/>
  <path d="M1703.24 637.467 L1716.58 637.467 " fill="none" stroke-width="3.333333" stroke="#000000ff"/>
  <path d="M1703.24 574.733 L1716.58 574.733 " fill="none" stroke-width="3.333333" stroke="#000000ff"/>
  <path d="M1703.24 512 L1716.58 512 " fill="none" stroke-width="3.333333" stroke="#000000ff"/>
  <path d="M1703.24 449.267 L1716.58 449.267 " fill="none" stroke-width="3.333333" stroke="#000000ff"/>
  <path d="M1703.24 386.533 L1716.58 386.533 " fill="none" stroke-width="3.333333" stroke="#000000ff"/>
  <path d="M1703.24 323.8 L1716.58 323.8 " fill="none" stroke-width="3.333333" stroke="#000000ff"/>
  <path d="M1703.24 261.067 L1716.58 261.067 " fill="none" stroke-width="3.333333" stroke="#000000ff"/>
  <path d="M1703.24 198.333 L1716.58 198.333 " fill="none" stroke-width="3.333333" stroke="#000000ff"/>
  <text x="1745.911458" y="838.666667" fill="#000000ff" font-size="36.666667" font-family="Arial,Helvetica,'Helvetica Neue',sans-serif" font-weight="500.000000">0</text>
  <text x="1745.911458" y="775.933332" fill="#000000ff" font-size="36.666667" font-family="Arial,Helvetica,'Helvetica Neue',sans-serif" font-weight="500.000000">1.0 × 10⁻¹</text>
  <text x="1745.911458" y="708.699998" fill="#000000ff" font-size="36.666667" font-family="Arial,Helvetica,'Helvetica Neue',sans-serif" font-weight="500.000000">0.2 × 10⁰</text>
  <text x="1745.911458" y="645.966659" fill="#000000ff" font-size="36.666667" font-family="Arial,Helvetica,'Helvetica Neue',sans-serif" font-weight="500.000000">0.3 × 10⁰</text>
  <text x="1745.911458" y="583.233330" fill="#000000ff" font-size="36.666667" font-family="Arial,Helvetica,'Helvetica Neue',sans-serif" font-weight="500.000000">0.4 × 10⁰</text>
  <text x="1745.911458" y="520.500000" fill="#000000ff" font-size="36.666667" font-family="Arial,Helvetica,'Helvetica Neue',sans-serif" font-weight="500.000000">0.5 × 10⁰</text>
  <text x="1745.911458" y="457.766652" fill="#000000ff" font-size="36.666667" font-family="Arial,Helvetica,'Helvetica Neue',sans-serif" font-weight="500.000000">0.6 × 10⁰</text>
  <text x="1745.911458" y="395.033341" fill="#000000ff" font-size="36.666667" font-family="Arial,Helvetica,'Helvetica Neue',sans-serif" font-weight="500.000000">0.7 × 10⁰</text>
  <text x="1745.911458" y="332.299993" fill="#000000ff" font-size="36.666667" font-family="Arial,Helvetica,'Helvetica Neue',sans-serif" font-weight="500.000000">0.8 × 10⁰</text>
  <text x="1745.911458" y="269.566644" fill="#000000ff" font-size="36.666667" font-family="Arial,Helvetica,'Helvetica Neue',sans-serif" font-weight="500.000000">0.9 × 10⁰</text>
  <text x="1745.911458" y="206.833333" fill="#000000ff" font-size="36.666667" font-family="Arial,Helvetica,'Helvetica Neue',sans-serif" font-weight="500.000000">1.0 × 10⁰</text>
  <text x="1926.950521" y="528.500000" fill="#000000ff" font-size="46.666667" font-family="Arial,Helvetica,'Helvetica Neue',sans-serif" font-weight="500.000000" transform="matrix(6.12323e-17 1 -1 6.12323e-17 2496.83 -1472.83)">Value</text>
  <path d="M331.422 825.667 L1716.58 825.667 " fill="none" stroke-width="3.333333" stroke="#000000ff"/>
  <path d="M331.422 825.667 L331.422 812.333 " fill="none" stroke-width="3.333333" stroke="#000000ff"/>
  <path d="M469.938 825.667 L469.938 812.333 " fill="none" stroke-width="3.333333" stroke="#000000ff"/>
  <path d="M608.453 825.667 L608.453 812.333 " fill="none" stroke-width="3.333333" stroke="#000000ff"/>
  <path d="M746.969 825.667 L746.969 812.333 " fill="none" stroke-width="3.333333" stroke="#000000ff"/>
  <path d="M885.484 825.667 L885.484 812.333 " fill="none" stroke-width="3.333333" stroke="#000000ff"/>
  <path d="M1024 825.667 L1024 812.333 " fill="none" stroke-width="3.333333" stroke="#000000ff"/>
  <path d="M1162.52 825.667 L1162.52 812.333 " fill="none" stroke-width="3.333333" stroke="#000000ff"/>
  <path d="M1301.03 825.667 L1301.03 812.333 " fill="none" stroke-width="3.333333" stroke="#000000ff"/>
  <path d="M1439.55 825.667 L1439.55 812.333 " fill="none" stroke-width="3.333333" stroke="#000000ff"/>
  <path d="M1578.06 825.667 L1578.06 812.333 " fill="none" stroke-width="3.333333" stroke="#000000ff"/>
  <path d="M1716.58 825.667 L1716.58 812.333 " fill="none" stroke-width="3.333333" stroke="#000000ff"/>
  <text x="260.062500" y="889.000000" fill="#000000ff" font-size="36.666667" font-family="Arial,Helvetica,'Helvetica Neue',sans-serif" font-weight="500.000000">05:15:00</text>
  <text x="398.578127" y="889.000000" fill="#000000ff" font-size="36.666667" font-family="Arial,Helvetica,'Helvetica Neue',sans-serif" font-weight="500.000000">05:51:00</text>
  <text x="537.093754" y="889.000000" fill="#000000ff" font-size="36.666667" font-family="Arial,Helvetica,'Helvetica Neue',sans-serif" font-weight="500.000000">06:27:00</text>
  <text x="675.609392" y="889.000000" fill="#000000ff" font-size="36.666667" font-family="Arial,Helvetica,'Helvetica Neue',sans-serif" font-weight="500.000000">07:03:00</text>
  <text x="814.125008" y="889.000000" fill="#000000ff" font-size="36.666667" font-family="Arial,Helvetica,'Helvetica Neue',sans-serif" font-weight="500.000000">07:39:00</text>
  <text x="952.640625" y="889.000000" fill="#000000ff" font-size="36.666667" font-family="Arial,Helvetica,'Helvetica Neue',sans-serif" font-weight="500.000000">08:15:00</text>
  <text x="1091.156283" y="889.000000" fill="#000000ff" font-size="36.666667" font-family="Arial,Helvetica,'Helvetica Neue',sans-serif" font-weight="500.000000">08:51:00</text>
  <text x="1229.671858" y="889.000000" fill="#000000ff" font-size="36.666667" font-family="Arial,Helvetica,'Helvetica Neue',sans-serif" font-weight="500.000000">09:26:59</text>
  <text x="1368.187517" y="889.000000" fill="#000000ff" font-size="36.666667" font-family="Arial,Helvetica,'Helvetica Neue',sans-serif" font-weight="500.000000">10:03:00</text>
  <text x="1506.703175" y="889.000000" fill="#000000ff" font-size="36.666667" font-family="Arial,Helvetica,'Helvetica Neue',sans-serif" font-weight="500.000000">10:39:00</text>
  <text x="1646.578125" y="889.000000" fill="#000000ff" font-size="36.666667" font-family="Arial,Helvetica,'Helvetica Neue',sans-serif" font-weight="500.000000">11:15:00</text>
  <text x="973.078125" y="977.333333" fill="#000000ff" font-size="46.666667" font-family="Arial,Helvetica,'Helvetica Neue',sans-serif" font-weight="500.000000">Time</text>
  <path d="M331.422 825.667 L331.422 198.333 " fill="none" stroke-width="3.333333" stroke="#000000ff"/>
  <path d="M331.422 825.667 L344.755 825.667 " fill="none" stroke-width="3.333333" stroke="#000000ff"/>
  <path d="M331.422 762.933 L344.755 762.933 " fill="none" stroke-width="3.333333" stroke="#000000ff"/>
  <path d="M331.422 700.2 L344.755 700.2 " fill="none" stroke-width="3.333333" stroke="#000000ff"/>
  <path d="M331.422 637.467 L344.755 637.467 " fill="none" stroke-width="3.333333" stroke="#000000ff"/>
  <path d="M331.422 574.733 L344.755 574.733 " fill="none" stroke-width="3.333333" stroke="#000000ff"/>
  <path d="M331.422 512 L344.755 512 " fill="none" stroke-width="3.333333" stroke="#000000ff"/>
  <path d="M331.422 449.267 L344.755 449.267 " fill="none" stroke-width="3.333333" stroke="#000000ff"/>
  <path d="M331.422 386.533 L344.755 386.533 " fill="none" stroke-width="3.333333" stroke="#000000ff"/>
  <path d="M331.422 323.8 L344.755 323.8 " fill="none" stroke-width="3.333333" stroke="#000000ff"/>
  <path d="M331.422 261.067 L344.755 261.067 " fill="none" stroke-width="3.333333" stroke="#000000ff"/>
  <path d="M331.422 198.333 L344.755 198.333 " fill="none" stroke-width="3.333333" stroke="#000000ff"/>
  <text x="281.697917" y="838.666667" fill="#000000ff" font-size="36.666667" font-family="Arial,Helvetica,'Helvetica Neue',sans-serif" font-weight="500.000000">0</text>
  <text x="117.666667" y="775.933332" fill="#000000ff" font-size="36.666667" font-family="Arial,Helvetica,'Helvetica Neue',sans-serif" font-weight="500.000000">1.0 × 10⁻¹</text>
  <text x="162.041667" y="708.699998" fill="#000000ff" font-size="36.666667" font-family="Arial,Helvetica,'Helvetica Neue',sans-serif" font-weight="500.000000">0.2 × 10⁰</text>
  <text x="162.041667" y="645.966659" fill="#000000ff" font-size="36.666667" font-family="Arial,Helvetica,'Helvetica Neue',sans-serif" font-weight="500.000000">0.3 × 10⁰</text>
  <text x="162.041667" y="583.233330" fill="#000000ff" font-size="36.666667" font-family="Arial,Helvetica,'Helvetica Neue',sans-serif" font-weight="500.000000">0.4 × 10⁰</text>
  <text x="162.041667" y="520.500000" fill="#000000ff" font-size="36.666667" font-family="Arial,Helvetica,'Helvetica Neue',sans-serif" font-weight="500.000000">0.5 × 10⁰</text>
  <text x="162.041667" y="457.766652" fill="#000000ff" font-size="36.666667" font-family="Arial,Helvetica,'Helvetica Neue',sans-serif" font-weight="500.000000">0.6 × 10⁰</text>
  <text x="162.041667" y="395.033341" fill="#000000ff" font-size="36.666667" font-family="Arial,Helvetica,'Helvetica Neue',sans-serif" font-weight="500.000000">0.7 × 10⁰</text>
  <text x="162.041667" y="332.299993" fill="#000000ff" font-size="36.666667" font-family="Arial,Helvetica,'Helvetica Neue',sans-serif" font-weight="500.000000">0.8 × 10⁰</text>
  <text x="162.041667" y="269.566644" fill="#000000ff" font-size="36.666667" font-family="Arial,Helvetica,'Helvetica Neue',sans-serif" font-weight="500.000000">0.9 × 10⁰</text>
  <text x="162.041667" y="206.833333" fill="#000000ff" font-size="36.666667" font-family="Arial,Helvetica,'Helvetica Neue',sans-serif" font-weight="500.000000">1.0 × 10⁰</text>
  <text x="5.283854" y="528.500000" fill="#000000ff" font-size="46.666667" font-family="Arial,Helvetica,'Helvetica Neue',sans-serif" font-weight="500.000000" transform="matrix(6.12323e-17 -1 1 6.12323e-17 -448.833 575.167)">Value</text>
  <path d="M331.422 198.333 L350.66 331.928 L369.898 414.199 L389.137 407.622 L408.375 474.055 L427.613 515.913 L446.852 543.818 L466.09 560.914 L485.328 604.679 L504.566 527.04 L523.805 551.484 L543.043 626.413 L562.281 530.712 L581.52 542.397 L600.758 616.333 L619.996 606.359 L639.234 655.666 L658.473 689.417 L677.711 740.955 L696.949 760.082 L716.188 786.716 L735.426 579.418 L754.664 424.912 L773.902 383.079 L793.141 420.045 L812.379 505.492 L831.617 623.969 L850.855 614.534 L870.094 686.059 L889.332 710.237 L908.57 744.232 L927.809 713.414 L947.047 751.007 L966.285 678.974 L985.523 620.043 L1004.76 742.584 L1024 758.167 L1043.24 777.803 L1062.48 825.667 L1081.71 726.428 L1100.95 682.68 L1120.19 687.251 L1139.43 711.491 L1158.67 646.452 L1177.91 748.396 L1197.14 679.188 L1216.38 651.069 L1235.62 654.155 L1254.86 691.273 L1274.1 614.733 L1293.34 602.08 L1312.57 552.589 L1331.81 614.682 L1351.05 677.037 L1370.29 726.522 L1389.53 631.188 L1408.77 676.086 L1428 666.487 L1447.24 751.848 L1466.48 776.445 L1485.72 750.336 L1504.96 770.153 L1524.2 749.771 L1543.43 715.888 L1562.67 726.946 L1581.91 704.417 L1601.15 670.433 L1620.39 689.283 L1639.62 719.977 L1658.86 608.371 L1678.1 593.433 L1697.34 532.864 L1716.58 539.142 " fill="none" stroke-width="5.000000" stroke="#000000ff"/>
</svg>