<?xml version="1.0" encoding="UTF-8" ?>
<!-- Generated by clip v0.7.0 (clip-lang.org) -->
<svg xmlns="http://www.w3.org/2000/svg" width="2048.000000" height="1024.000000">
  <rect width="2048.000000" height="1024.000000" fill="#ffffff" fill-opacity="1.000000"/>
  <text x="99.000000" y="78.000000" fill="#000000ff" font-size="36.666667" font-family="Arial,Helvetica,'Helvetica Neue',sans-serif" font-weight="500.000000">Test Color 1</text>
  <path d="M64.1667 78.75 C56.5728 78.75 50.4167 72.5939 50.4167 65 C50.4167 57.4061 56.5728 51.25 64.1667 51.25 C71.7606 51.25 77.9167 57.4061 77.9167 65 C77.9167 72.5939 71.7606 78.75 64.1667 78.75 Z" fill="#4572a7" fill-opacity="1.000000"/>
  <text x="99.000000" y="131.000000" fill="#000000ff" font-size="36.666667" font-family="Arial,Helvetica,'Helvetica Neue',sans-serif" font-weight="500.000000">Test Color 2</text>
  <path d="M64.1667 131.75 C56.5728 131.75 50.4167 125.594 50.4167 118 C50.4167 110.406 56.5728 104.25 64.1667 104.25 C71.7606 104.25 77.9167 110.406 77.9167 118 C77.9167 125.594 71.7606 131.75 64.1667 131.75 Z" fill="#aa4643" fill-opacity="1.000000"/>
  <text x="99.000000" y="184.000000" fill="#000000ff" font-size="36.666667" font-family="Arial,Helvetica,'Helvetica Neue',sans-serif" font-weight="500.000000">Test Color 3</text>
  <path d="M64.1667 184.75 C56.5728 184.75 50.4167 178.594 50.4167 171 C50.4167 163.406 56.5728 157.25 64.1667 157.25 C71.7606 157.25 77.9167 163.406 77.9167 171 C77.9167 178.594 71.7606 184.75 64.1667 184.75 Z" fill="#db843d" fill-opacity="1.000000"/>
  <text x="99.000000" y="237.000000" fill="#000000ff" font-size="36.666667" font-family="Arial,Helvetica,'Helvetica Neue',sans-serif" font-weight="500.000000">Test Color 4</text>
  <path d="M64.1667 237.75 C56.5728 237.75 50.4167 231.594 50.4167 224 C50.4167 216.406 56.5728 210.25 64.1667 210.25 C71.7606 210.25 77.9167 216.406 77.9167 224 C77.9167 231.594 71.7606 237.75 64.1667 237.75 Z" fill="#89a54e" fill-opacity="1.000000"/>
  <text x="99.000000" y="290.000000" fill="#000000ff" font-size="36.666667" font-family="Arial,Helvetica,'Helvetica Neue',sans-serif" font-weight="500.000000">Test Color 5</text>
  <path d="M64.1667 290.75 C56.5728 290.75 50.4167 284.594 50.4167 277 C50.4167 269.406 56.5728 263.25 64.1667 263.25 C71.7606 263.25 77.9167 269.406 77.9167 277 C77.9167 284.594 71.7606 290.75 64.1667 290.75 Z" fill="#80699b" fill-opacity="1.000000"/>
  <text x="99.000000" y="343.000000" fill="#000000ff" font-size="36.666667" font-family="Arial,Helvetica,'Helvetica Neue',sans-serif" font-weight="500.000000">Test Color 6</text>
  <path d="M64.1667 343.75 C56.5728 343.75 50.4167 337.594 50.4167 330 C50.4167 322.406 56.5728 316.25 64.1667 316.25 C71.7606 316.25 77.9167 322.406 77.9167 330 C77.9167 337.594 71.7606 343.75 64.1667 343.75 Z" fill="#3d96ae" fill-opacity="1.000000"/>
  <text x="99.000000" y="396.000000" fill="#000000ff" font-size="36.666667" font-family="Arial,Helvetica,'Helvetica Neue',sans-serif" font-weight="500.000000">Test Color 7</text>
  <path d="M64.1667 396.75 C56.5728 396.75 50.4167 390.594 50.4167 383 C50.4167 375.406 56.5728 369.25 64.1667 369.25 C71.7606 369.25 77.9167 375.406 77.9167 383 C77.9167 390.594 71.7606 396.75 64.1667 396.75 Z" fill="#4572a7" fill-opacity="1.000000"/>
  <text x="99.000000" y="449.000000" fill="#000000ff" font-size="36.666667" font-family="Arial,Helvetica,'Helvetica Neue',sans-serif" font-weight="500.000000">Test Color 8</text>
  <path d="M64.1667 449.75 C56.5728 449.75 50.4167 443.594 50.4167 436 C50.4167 428.406 56.5728 422.25 64.1667 422.25 C71.7606 422.25 77.9167 428.406 77.9167 436 C77.9167 443.594 71.7606 449.75 64.1667 449.75 Z" fill="#aa4643" fill-opacity="1.000000"/>
</svg>