<svg xmlns="http://www.w3.org/2000/svg" width="2048.000000" height="800.000000">
  <rect width="2048.000000" height="800.000000" fill="#ffffff" fill-opacity="1.000000"/>
  <path d="M157.75 692 L2011.33 692 " fill="none" stroke-width="3.333333" stroke="#000000ff"/>
  <path d="M157.75 692 L157.75 678.667 " fill="none" stroke-width="3.333333" stroke="#000000ff"/>
  <path d="M466.681 692 L466.681 678.667 " fill="none" stroke-width="3.333333" stroke="#000000ff"/>
  <path d="M775.611 692 L775.611 678.667 " fill="none" stroke-width="3.333333" stroke="#000000ff"/>
  <path d="M1084.54 692 L1084.54 678.667 " fill="none" stroke-width="3.333333" stroke="#000000ff"/>
  <path d="M1393.47 692 L1393.47 678.667 " fill="none" stroke-width="3.333333" stroke="#000000ff"/>
  <path d="M1702.4 692 L1702.4 678.667 " fill="none" stroke-width="3.333333" stroke="#000000ff"/>
  <path d="M2011.33 692 L2011.33 678.667 " fill="none" stroke-width="3.333333" stroke="#000000ff"/>
  <text x="86.390625" y="755.333333" fill="#000000ff" font-size="36.666667" font-family="Arial,Helvetica,'Helvetica Neue',sans-serif" font-weight="500.000000">05:15:00</text>
  <text x="395.321190" y="755.333333" fill="#000000ff" font-size="36.666667" font-family="Arial,Helvetica,'Helvetica Neue',sans-serif" font-weight="500.000000">06:15:00</text>
  <text x="704.251755" y="755.333333" fill="#000000ff" font-size="36.666667" font-family="Arial,Helvetica,'Helvetica Neue',sans-serif" font-weight="500.000000">07:15:00</text>
  <text x="1013.182292" y="755.333333" fill="#000000ff" font-size="36.666667" font-family="Arial,Helvetica,'Helvetica Neue',sans-serif" font-weight="500.000000">08:15:00</text>
  <text x="1322.112884" y="755.333333" fill="#000000ff" font-size="36.666667" font-family="Arial,Helvetica,'Helvetica Neue',sans-serif" font-weight="500.000000">09:15:00</text>
  <text x="1631.043476" y="755.333333" fill="#000000ff" font-size="36.666667" font-family="Arial,Helvetica,'Helvetica Neue',sans-serif" font-weight="500.000000">10:15:00</text>
  <text x="1941.333333" y="755.333333" fill="#000000ff" font-size="36.666667" font-family="Arial,Helvetica,'Helvetica Neue',sans-serif" font-weight="500.000000">11:15:00</text>
  <path d="M157.75 692 L157.75 36.6667 " fill="none" stroke-width="3.333333" stroke="#000000ff"/>
  <path d="M157.75 36.6667 L171.083 36.6667 " fill="none" stroke-width="3.333333" stroke="#000000ff"/>
  <path d="M157.75 130.286 L171.083 130.286 " fill="none" stroke-width="3.333333" stroke="#000000ff"/>
  <path d="M157.75 223.905 L171.083 223.905 " fill="none" stroke-width="3.333333" stroke="#000000ff"/>
  <path d="M157.75 317.524 L171.083 317.524 " fill="none" stroke-width="3.333333" stroke="#000000ff"/>
  <path d="M157.75 411.143 L171.083 411.143 " fill="none" stroke-width="3.333333" stroke="#000000ff"/>
  <path d="M157.75 504.762 L171.083 504.762 " fill="none" stroke-width="3.333333" stroke="#000000ff"/>
  <path d="M157.75 598.381 L171.083 598.381 " fill="none" stroke-width="3.333333" stroke="#000000ff"/>
  <path d="M157.75 692 L171.083 692 " fill="none" stroke-width="3.333333" stroke="#000000ff"/>
  <text x="77.447917" y="49.666667" fill="#000000ff" font-size="36.666667" font-family="Arial,Helvetica,'Helvetica Neue',sans-serif" font-weight="500.000000">0.0</text>
  <text x="57.057292" y="143.285714" fill="#000000ff" font-size="36.666667" font-family="Arial,Helvetica,'Helvetica Neue',sans-serif" font-weight="500.000000">20.0</text>
  <text x="57.057292" y="236.904762" fill="#000000ff" font-size="36.666667" font-family="Arial,Helvetica,'Helvetica Neue',sans-serif" font-weight="500.000000">40.0</text>
  <text x="57.057292" y="330.523810" fill="#000000ff" font-size="36.666667" font-family="Arial,Helvetica,'Helvetica Neue',sans-serif" font-weight="500.000000">60.0</text>
  <text x="57.057292" y="424.142857" fill="#000000ff" font-size="36.666667" font-family="Arial,Helvetica,'Helvetica Neue',sans-serif" font-weight="500.000000">80.0</text>
  <text x="36.666667" y="517.761905" fill="#000000ff" font-size="36.666667" font-family="Arial,Helvetica,'Helvetica Neue',sans-serif" font-weight="500.000000">100.0</text>
  <text x="36.666667" y="611.380952" fill="#000000ff" font-size="36.666667" font-family="Arial,Helvetica,'Helvetica Neue',sans-serif" font-weight="500.000000">120.0</text>
  <text x="36.666667" y="705.000000" fill="#000000ff" font-size="36.666667" font-family="Arial,Helvetica,'Helvetica Neue',sans-serif" font-weight="500.000000">140.0</text>
  <path d="M157.75 184.069 L183.494 171.79 L209.238 73.2859 L234.983 77.7448 L260.727 98.499 L286.471 51.2052 L312.215 47.7617 L337.959 77.6521 L363.704 105.737 L389.448 48.7989 L415.192 83.3231 L440.936 70.2305 L466.681 145.3 L492.425 121.374 L518.169 89.6346 L543.913 126.348 L569.657 83.5801 L595.402 65.3607 L621.146 50.3707 L646.89 49.7745 L672.634 49.8494 L698.378 118.385 L724.123 379.891 L749.867 579.087 L775.611 569.703 L801.355 552.6 L827.1 320.048 L852.844 257.952 L878.588 141.069 L904.332 80.454 L930.076 59.1001 L955.821 64.7096 L981.565 57.8848 L1007.31 64.6686 L1033.05 132.02 L1058.8 137.913 L1084.54 140.301 L1110.29 166.57 L1136.03 154.495 L1161.77 133.776 L1187.52 143.595 L1213.26 177.14 L1239.01 229.037 L1264.75 223.159 L1290.5 257.284 L1316.24 203.459 L1341.98 179.445 L1367.73 123.855 L1393.47 152.763 L1419.22 248.533 L1444.96 266.923 L1470.7 220.825 L1496.45 211.273 L1522.19 224.455 L1547.94 248.906 L1573.68 151.869 L1599.43 120.363 L1625.17 207.079 L1650.91 150.657 L1676.66 87.6955 L1702.4 94.2709 L1728.15 159.521 L1753.89 111.035 L1779.64 105.861 L1805.38 96.1841 L1831.12 106.433 L1856.87 96.7461 L1882.61 133 L1908.36 101.243 L1934.1 121.07 L1959.84 140.941 L1985.59 123.344 L2011.33 88.0875 " fill="none" stroke-width="5.000000" stroke="#0066ccff"/>
</svg>