<?xml version="1.0" encoding="UTF-8" ?>
<!-- Generated by clip v0.6.0 (clip-lang.org) -->
<svg xmlns="http://www.w3.org/2000/svg" width="2048.000000" height="800.000000">
  <rect width="2048.000000" height="800.000000" fill="#ffffff" fill-opacity="1.000000"/>
  <path d="M149.578 692 L2011.33 692 " fill="none" stroke-width="3.333333" stroke="#000000ff"/>
  <path d="M149.578 692 L149.578 678.667 " fill="none" stroke-width="3.333333" stroke="#000000ff"/>
  <path d="M335.754 692 L335.754 678.667 " fill="none" stroke-width="3.333333" stroke="#000000ff"/>
  <path d="M521.929 692 L521.929 678.667 " fill="none" stroke-width="3.333333" stroke="#000000ff"/>
  <path d="M708.105 692 L708.105 678.667 " fill="none" stroke-width="3.333333" stroke="#000000ff"/>
  <path d="M894.28 692 L894.28 678.667 " fill="none" stroke-width="3.333333" stroke="#000000ff"/>
  <path d="M1080.46 692 L1080.46 678.667 " fill="none" stroke-width="3.333333" stroke="#000000ff"/>
  <path d="M1266.63 692 L1266.63 678.667 " fill="none" stroke-width="3.333333" stroke="#000000ff"/>
  <path d="M1452.81 692 L1452.81 678.667 " fill="none" stroke-width="3.333333" stroke="#000000ff"/>
  <path d="M1638.98 692 L1638.98 678.667 " fill="none" stroke-width="3.333333" stroke="#000000ff"/>
  <path d="M1825.16 692 L1825.16 678.667 " fill="none" stroke-width="3.333333" stroke="#000000ff"/>
  <path d="M2011.33 692 L2011.33 678.667 " fill="none" stroke-width="3.333333" stroke="#000000ff"/>
  <text x="107.789062" y="755.333333" fill="#000000ff" font-size="36.666667" font-family="Arial,Helvetica,'Helvetica Neue',sans-serif" font-weight="500.000000">-12.0</text>
  <text x="304.159899" y="755.333333" fill="#000000ff" font-size="36.666667" font-family="Arial,Helvetica,'Helvetica Neue',sans-serif" font-weight="500.000000">-8.6</text>
  <text x="490.335422" y="755.333333" fill="#000000ff" font-size="36.666667" font-family="Arial,Helvetica,'Helvetica Neue',sans-serif" font-weight="500.000000">-5.2</text>
  <text x="676.510960" y="755.333333" fill="#000000ff" font-size="36.666667" font-family="Arial,Helvetica,'Helvetica Neue',sans-serif" font-weight="500.000000">-1.8</text>
  <text x="868.795844" y="755.333333" fill="#000000ff" font-size="36.666667" font-family="Arial,Helvetica,'Helvetica Neue',sans-serif" font-weight="500.000000">1.6</text>
  <text x="1054.971354" y="755.333333" fill="#000000ff" font-size="36.666667" font-family="Arial,Helvetica,'Helvetica Neue',sans-serif" font-weight="500.000000">5.0</text>
  <text x="1241.146919" y="755.333333" fill="#000000ff" font-size="36.666667" font-family="Arial,Helvetica,'Helvetica Neue',sans-serif" font-weight="500.000000">8.4</text>
  <text x="1418.486436" y="755.333333" fill="#000000ff" font-size="36.666667" font-family="Arial,Helvetica,'Helvetica Neue',sans-serif" font-weight="500.000000">11.8</text>
  <text x="1603.302626" y="755.333333" fill="#000000ff" font-size="36.666667" font-family="Arial,Helvetica,'Helvetica Neue',sans-serif" font-weight="500.000000">15.2</text>
  <text x="1789.478192" y="755.333333" fill="#000000ff" font-size="36.666667" font-family="Arial,Helvetica,'Helvetica Neue',sans-serif" font-weight="500.000000">18.6</text>
  <text x="1975.653646" y="755.333333" fill="#000000ff" font-size="36.666667" font-family="Arial,Helvetica,'Helvetica Neue',sans-serif" font-weight="500.000000">22.0</text>
  <path d="M149.578 692 L149.578 36.6667 " fill="none" stroke-width="3.333333" stroke="#000000ff"/>
  <path d="M149.578 692 L162.911 692 " fill="none" stroke-width="3.333333" stroke="#000000ff"/>
  <path d="M149.578 626.467 L162.911 626.467 " fill="none" stroke-width="3.333333" stroke="#000000ff"/>
  <path d="M149.578 560.933 L162.911 560.933 " fill="none" stroke-width="3.333333" stroke="#000000ff"/>
  <path d="M149.578 495.4 L162.911 495.4 " fill="none" stroke-width="3.333333" stroke="#000000ff"/>
  <path d="M149.578 429.867 L162.911 429.867 " fill="none" stroke-width="3.333333" stroke="#000000ff"/>
  <path d="M149.578 364.333 L162.911 364.333 " fill="none" stroke-width="3.333333" stroke="#000000ff"/>
  <path d="M149.578 298.8 L162.911 298.8 " fill="none" stroke-width="3.333333" stroke="#000000ff"/>
  <path d="M149.578 233.267 L162.911 233.267 " fill="none" stroke-width="3.333333" stroke="#000000ff"/>
  <path d="M149.578 167.733 L162.911 167.733 " fill="none" stroke-width="3.333333" stroke="#000000ff"/>
  <path d="M149.578 102.2 L162.911 102.2 " fill="none" stroke-width="3.333333" stroke="#000000ff"/>
  <path d="M149.578 36.6667 L162.911 36.6667 " fill="none" stroke-width="3.333333" stroke="#000000ff"/>
  <text x="36.666667" y="705.000000" fill="#000000ff" font-size="36.666667" font-family="Arial,Helvetica,'Helvetica Neue',sans-serif" font-weight="500.000000">-35.0</text>
  <text x="36.666667" y="639.466666" fill="#000000ff" font-size="36.666667" font-family="Arial,Helvetica,'Helvetica Neue',sans-serif" font-weight="500.000000">-26.0</text>
  <text x="36.666667" y="573.933331" fill="#000000ff" font-size="36.666667" font-family="Arial,Helvetica,'Helvetica Neue',sans-serif" font-weight="500.000000">-17.0</text>
  <text x="57.057292" y="508.399992" fill="#000000ff" font-size="36.666667" font-family="Arial,Helvetica,'Helvetica Neue',sans-serif" font-weight="500.000000">-8.0</text>
  <text x="69.276042" y="442.866663" fill="#000000ff" font-size="36.666667" font-family="Arial,Helvetica,'Helvetica Neue',sans-serif" font-weight="500.000000">1.0</text>
  <text x="48.885417" y="377.333333" fill="#000000ff" font-size="36.666667" font-family="Arial,Helvetica,'Helvetica Neue',sans-serif" font-weight="500.000000">10.0</text>
  <text x="48.885417" y="311.799984" fill="#000000ff" font-size="36.666667" font-family="Arial,Helvetica,'Helvetica Neue',sans-serif" font-weight="500.000000">19.0</text>
  <text x="48.885417" y="246.266674" fill="#000000ff" font-size="36.666667" font-family="Arial,Helvetica,'Helvetica Neue',sans-serif" font-weight="500.000000">28.0</text>
  <text x="48.885417" y="180.733326" fill="#000000ff" font-size="36.666667" font-family="Arial,Helvetica,'Helvetica Neue',sans-serif" font-weight="500.000000">37.0</text>
  <text x="48.885417" y="115.199977" fill="#000000ff" font-size="36.666667" font-family="Arial,Helvetica,'Helvetica Neue',sans-serif" font-weight="500.000000">46.0</text>
  <text x="48.885417" y="49.666667" fill="#000000ff" font-size="36.666667" font-family="Arial,Helvetica,'Helvetica Neue',sans-serif" font-weight="500.000000">55.0</text>
  <path d="M259.093 189.578 L368.608 306.081 L916.183 466.274 L1299.49 298.8 L1354.24 619.185 L1463.76 604.622 " fill="none" stroke-width="5.000000" stroke="#89a54eff"/>
  <path d="M259.093 194.578 C256.332 194.578 254.093 192.339 254.093 189.578 C254.093 186.816 256.332 184.578 259.093 184.578 C261.855 184.578 264.093 186.816 264.093 189.578 C264.093 192.339 261.855 194.578 259.093 194.578 Z" fill="#89a54e" fill-opacity="1.000000"/>
  <path d="M368.608 311.081 C365.847 311.081 363.608 308.843 363.608 306.081 C363.608 303.32 365.847 301.081 368.608 301.081 C371.37 301.081 373.608 303.32 373.608 306.081 C373.608 308.843 371.37 311.081 368.608 311.081 Z" fill="#89a54e" fill-opacity="1.000000"/>
  <path d="M916.183 471.274 C913.422 471.274 911.183 469.035 911.183 466.274 C911.183 463.513 913.422 461.274 916.183 461.274 C918.945 461.274 921.183 463.513 921.183 466.274 C921.183 469.035 918.945 471.274 916.183 471.274 Z" fill="#89a54e" fill-opacity="1.000000"/>
  <path d="M1299.49 303.8 C1296.72 303.8 1294.49 301.561 1294.49 298.8 C1294.49 296.039 1296.72 293.8 1299.49 293.8 C1302.25 293.8 1304.49 296.039 1304.49 298.8 C1304.49 301.561 1302.25 303.8 1299.49 303.8 Z" fill="#89a54e" fill-opacity="1.000000"/>
  <path d="M1354.24 624.185 C1351.48 624.185 1349.24 621.947 1349.24 619.185 C1349.24 616.424 1351.48 614.185 1354.24 614.185 C1357 614.185 1359.24 616.424 1359.24 619.185 C1359.24 621.947 1357 624.185 1354.24 624.185 Z" fill="#89a54e" fill-opacity="1.000000"/>
  <path d="M1463.76 609.622 C1461 609.622 1458.76 607.384 1458.76 604.622 C1458.76 601.861 1461 599.622 1463.76 599.622 C1466.52 599.622 1468.76 601.861 1468.76 604.622 C1468.76 607.384 1466.52 609.622 1463.76 609.622 Z" fill="#89a54e" fill-opacity="1.000000"/>
  <path d="M368.608 189.578 L916.183 568.215 L1463.76 124.044 L1573.27 575.496 L1737.55 255.111 L1901.82 196.859 " fill="none" stroke-width="5.000000" stroke="#3d96aeff"/>
  <path d="M368.608 194.578 C365.847 194.578 363.608 192.339 363.608 189.578 C363.608 186.816 365.847 184.578 368.608 184.578 C371.37 184.578 373.608 186.816 373.608 189.578 C373.608 192.339 371.37 194.578 368.608 194.578 Z" fill="#3d96ae" fill-opacity="1.000000"/>
  <path d="M916.183 573.215 C913.422 573.215 911.183 570.976 911.183 568.215 C911.183 565.453 913.422 563.215 916.183 563.215 C918.945 563.215 921.183 565.453 921.183 568.215 C921.183 570.976 918.945 573.215 916.183 573.215 Z" fill="#3d96ae" fill-opacity="1.000000"/>
  <path d="M1463.76 129.044 C1461 129.044 1458.76 126.806 1458.76 124.044 C1458.76 121.283 1461 119.044 1463.76 119.044 C1466.52 119.044 1468.76 121.283 1468.76 124.044 C1468.76 126.806 1466.52 129.044 1463.76 129.044 Z" fill="#3d96ae" fill-opacity="1.000000"/>
  <path d="M1573.27 580.496 C1570.51 580.496 1568.27 578.258 1568.27 575.496 C1568.27 572.735 1570.51 570.496 1573.27 570.496 C1576.03 570.496 1578.27 572.735 1578.27 575.496 C1578.27 578.258 1576.03 580.496 1573.27 580.496 Z" fill="#3d96ae" fill-opacity="1.000000"/>
  <path d="M1737.55 260.111 C1734.78 260.111 1732.55 257.873 1732.55 255.111 C1732.55 252.35 1734.78 250.111 1737.55 250.111 C1740.31 250.111 1742.55 252.35 1742.55 255.111 C1742.55 257.873 1740.31 260.111 1737.55 260.111 Z" fill="#3d96ae" fill-opacity="1.000000"/>
  <path d="M1901.82 201.859 C1899.06 201.859 1896.82 199.621 1896.82 196.859 C1896.82 194.098 1899.06 191.859 1901.82 191.859 C1904.58 191.859 1906.82 194.098 1906.82 196.859 C1906.82 199.621 1904.58 201.859 1901.82 201.859 Z" fill="#3d96ae" fill-opacity="1.000000"/>
  <path d="M171.578 670 L171.578 531 L423.823 531 L423.823 670 Z" fill="#ffffff" fill-opacity="1.000000"/>
  <text x="248.578125" y="587.000000" fill="#000000ff" font-size="36.666667" font-family="Arial,Helvetica,'Helvetica Neue',sans-serif" font-weight="500.000000">Series A</text>
  <path d="M213.745 587.75 C206.151 587.75 199.995 581.594 199.995 574 C199.995 566.406 206.151 560.25 213.745 560.25 C221.339 560.25 227.495 566.406 227.495 574 C227.495 581.594 221.339 587.75 213.745 587.75 Z" fill="#89a54e" fill-opacity="1.000000"/>
  <text x="248.578125" y="640.000000" fill="#000000ff" font-size="36.666667" font-family="Arial,Helvetica,'Helvetica Neue',sans-serif" font-weight="500.000000">Series B</text>
  <path d="M213.745 640.75 C206.151 640.75 199.995 634.594 199.995 627 C199.995 619.406 206.151 613.25 213.745 613.25 C221.339 613.25 227.495 619.406 227.495 627 C227.495 634.594 221.339 640.75 213.745 640.75 Z" fill="#3d96ae" fill-opacity="1.000000"/>
</svg>