<?xml version="1.0" encoding="UTF-8" ?>
<!-- Generated by clip v0.6.0 (clip-lang.org) -->
<svg xmlns="http://www.w3.org/2000/svg" width="2048.000000" height="1200.000000">
  <rect width="2048.000000" height="1200.000000" fill="#ffffff" fill-opacity="1.000000"/>
  <path d="M119 108 L1929 108 " fill="none" stroke-width="3.333333" stroke="#000000ff"/>
  <path d="M119 121.333 L119 108 " fill="none" stroke-width="3.333333" stroke="#000000ff"/>
  <path d="M300 121.333 L300 108 " fill="none" stroke-width="3.333333" stroke="#000000ff"/>
  <path d="M481 121.333 L481 108 " fill="none" stroke-width="3.333333" stroke="#000000ff"/>
  <path d="M662 121.333 L662 108 " fill="none" stroke-width="3.333333" stroke="#000000ff"/>
  <path d="M843 121.333 L843 108 " fill="none" stroke-width="3.333333" stroke="#000000ff"/>
  <path d="M1024 121.333 L1024 108 " fill="none" stroke-width="3.333333" stroke="#000000ff"/>
  <path d="M1205 121.333 L1205 108 " fill="none" stroke-width="3.333333" stroke="#000000ff"/>
  <path d="M1386 121.333 L1386 108 " fill="none" stroke-width="3.333333" stroke="#000000ff"/>
  <path d="M1567 121.333 L1567 108 " fill="none" stroke-width="3.333333" stroke="#000000ff"/>
  <path d="M1748 121.333 L1748 108 " fill="none" stroke-width="3.333333" stroke="#000000ff"/>
  <path d="M1929 121.333 L1929 108 " fill="none" stroke-width="3.333333" stroke="#000000ff"/>
  <text x="93.515625" y="70.666667" fill="#000000ff" font-size="36.666667" font-family="Arial,Helvetica,'Helvetica Neue',sans-serif" font-weight="500.000000">1.0</text>
  <text x="274.515628" y="70.666667" fill="#000000ff" font-size="36.666667" font-family="Arial,Helvetica,'Helvetica Neue',sans-serif" font-weight="500.000000">1.4</text>
  <text x="455.515630" y="70.666667" fill="#000000ff" font-size="36.666667" font-family="Arial,Helvetica,'Helvetica Neue',sans-serif" font-weight="500.000000">1.8</text>
  <text x="636.515647" y="70.666667" fill="#000000ff" font-size="36.666667" font-family="Arial,Helvetica,'Helvetica Neue',sans-serif" font-weight="500.000000">2.2</text>
  <text x="817.515636" y="70.666667" fill="#000000ff" font-size="36.666667" font-family="Arial,Helvetica,'Helvetica Neue',sans-serif" font-weight="500.000000">2.6</text>
  <text x="998.515625" y="70.666667" fill="#000000ff" font-size="36.666667" font-family="Arial,Helvetica,'Helvetica Neue',sans-serif" font-weight="500.000000">3.0</text>
  <text x="1179.515668" y="70.666667" fill="#000000ff" font-size="36.666667" font-family="Arial,Helvetica,'Helvetica Neue',sans-serif" font-weight="500.000000">3.4</text>
  <text x="1360.515603" y="70.666667" fill="#000000ff" font-size="36.666667" font-family="Arial,Helvetica,'Helvetica Neue',sans-serif" font-weight="500.000000">3.8</text>
  <text x="1541.515647" y="70.666667" fill="#000000ff" font-size="36.666667" font-family="Arial,Helvetica,'Helvetica Neue',sans-serif" font-weight="500.000000">4.2</text>
  <text x="1722.515690" y="70.666667" fill="#000000ff" font-size="36.666667" font-family="Arial,Helvetica,'Helvetica Neue',sans-serif" font-weight="500.000000">4.6</text>
  <text x="1903.515625" y="70.666667" fill="#000000ff" font-size="36.666667" font-family="Arial,Helvetica,'Helvetica Neue',sans-serif" font-weight="500.000000">5.0</text>
  <path d="M1929 1092 L1929 108 " fill="none" stroke-width="3.333333" stroke="#000000ff"/>
  <path d="M1915.67 1092 L1929 1092 " fill="none" stroke-width="3.333333" stroke="#000000ff"/>
  <path d="M1915.67 1017.95 L1929 1017.95 " fill="none" stroke-width="3.333333" stroke="#000000ff"/>
  <path d="M1915.67 974.628 L1929 974.628 " fill="none" stroke-width="3.333333" stroke="#000000ff"/>
  <path d="M1915.67 943.893 L1929 943.893 " fill="none" stroke-width="3.333333" stroke="#000000ff"/>
  <path d="M1915.67 920.053 L1929 920.053 " fill="none" stroke-width="3.333333" stroke="#000000ff"/>
  <path d="M1915.67 900.575 L1929 900.575 " fill="none" stroke-width="3.333333" stroke="#000000ff"/>
  <path d="M1915.67 884.106 L1929 884.106 " fill="none" stroke-width="3.333333" stroke="#000000ff"/>
  <path d="M1915.67 869.84 L1929 869.84 " fill="none" stroke-width="3.333333" stroke="#000000ff"/>
  <path d="M1915.67 857.256 L1929 857.256 " fill="none" stroke-width="3.333333" stroke="#000000ff"/>
  <path d="M1915.67 846 L1929 846 " fill="none" stroke-width="3.333333" stroke="#000000ff"/>
  <path d="M1915.67 771.947 L1929 771.947 " fill="none" stroke-width="3.333333" stroke="#000000ff"/>
  <path d="M1915.67 728.628 L1929 728.628 " fill="none" stroke-width="3.333333" stroke="#000000ff"/>
  <path d="M1915.67 697.893 L1929 697.893 " fill="none" stroke-width="3.333333" stroke="#000000ff"/>
  <path d="M1915.67 674.053 L1929 674.053 " fill="none" stroke-width="3.333333" stroke="#000000ff"/>
  <path d="M1915.67 654.575 L1929 654.575 " fill="none" stroke-width="3.333333" stroke="#000000ff"/>
  <path d="M1915.67 638.106 L1929 638.106 " fill="none" stroke-width="3.333333" stroke="#000000ff"/>
  <path d="M1915.67 623.84 L1929 623.84 " fill="none" stroke-width="3.333333" stroke="#000000ff"/>
  <path d="M1915.67 611.256 L1929 611.256 " fill="none" stroke-width="3.333333" stroke="#000000ff"/>
  <path d="M1915.67 600 L1929 600 " fill="none" stroke-width="3.333333" stroke="#000000ff"/>
  <path d="M1915.67 525.947 L1929 525.947 " fill="none" stroke-width="3.333333" stroke="#000000ff"/>
  <path d="M1915.67 482.628 L1929 482.628 " fill="none" stroke-width="3.333333" stroke="#000000ff"/>
  <path d="M1915.67 451.893 L1929 451.893 " fill="none" stroke-width="3.333333" stroke="#000000ff"/>
  <path d="M1915.67 428.053 L1929 428.053 " fill="none" stroke-width="3.333333" stroke="#000000ff"/>
  <path d="M1915.67 408.575 L1929 408.575 " fill="none" stroke-width="3.333333" stroke="#000000ff"/>
  <path d="M1915.67 392.106 L1929 392.106 " fill="none" stroke-width="3.333333" stroke="#000000ff"/>
  <path d="M1915.67 377.84 L1929 377.84 " fill="none" stroke-width="3.333333" stroke="#000000ff"/>
  <path d="M1915.67 365.256 L1929 365.256 " fill="none" stroke-width="3.333333" stroke="#000000ff"/>
  <path d="M1915.67 354 L1929 354 " fill="none" stroke-width="3.333333" stroke="#000000ff"/>
  <path d="M1915.67 279.947 L1929 279.947 " fill="none" stroke-width="3.333333" stroke="#000000ff"/>
  <path d="M1915.67 236.628 L1929 236.628 " fill="none" stroke-width="3.333333" stroke="#000000ff"/>
  <path d="M1915.67 205.893 L1929 205.893 " fill="none" stroke-width="3.333333" stroke="#000000ff"/>
  <path d="M1915.67 182.053 L1929 182.053 " fill="none" stroke-width="3.333333" stroke="#000000ff"/>
  <path d="M1915.67 162.575 L1929 162.575 " fill="none" stroke-width="3.333333" stroke="#000000ff"/>
  <path d="M1915.67 146.106 L1929 146.106 " fill="none" stroke-width="3.333333" stroke="#000000ff"/>
  <path d="M1915.67 131.84 L1929 131.84 " fill="none" stroke-width="3.333333" stroke="#000000ff"/>
  <path d="M1915.67 119.256 L1929 119.256 " fill="none" stroke-width="3.333333" stroke="#000000ff"/>
  <path d="M1915.67 108 L1929 108 " fill="none" stroke-width="3.333333" stroke="#000000ff"/>
  <text x="1958.333333" y="1100.500000" fill="#000000ff" font-size="36.666667" font-family="Arial,Helvetica,'Helvetica Neue',sans-serif" font-weight="500.000000">10⁰</text>
  <text x="1958.333333" y="859.000000" fill="#000000ff" font-size="36.666667" font-family="Arial,Helvetica,'Helvetica Neue',sans-serif" font-weight="500.000000">10¹</text>
  <text x="1958.333333" y="613.000000" fill="#000000ff" font-size="36.666667" font-family="Arial,Helvetica,'Helvetica Neue',sans-serif" font-weight="500.000000">10²</text>
  <text x="1958.333333" y="367.000000" fill="#000000ff" font-size="36.666667" font-family="Arial,Helvetica,'Helvetica Neue',sans-serif" font-weight="500.000000">10²</text>
  <text x="1958.333333" y="116.500000" fill="#000000ff" font-size="36.666667" font-family="Arial,Helvetica,'Helvetica Neue',sans-serif" font-weight="500.000000">10⁴</text>
  <path d="M119 1092 L1929 1092 " fill="none" stroke-width="3.333333" stroke="#000000ff"/>
  <path d="M119 1092 L119 1078.67 " fill="none" stroke-width="3.333333" stroke="#000000ff"/>
  <path d="M300 1092 L300 1078.67 " fill="none" stroke-width="3.333333" stroke="#000000ff"/>
  <path d="M481 1092 L481 1078.67 " fill="none" stroke-width="3.333333" stroke="#000000ff"/>
  <path d="M662 1092 L662 1078.67 " fill="none" stroke-width="3.333333" stroke="#000000ff"/>
  <path d="M843 1092 L843 1078.67 " fill="none" stroke-width="3.333333" stroke="#000000ff"/>
  <path d="M1024 1092 L1024 1078.67 " fill="none" stroke-width="3.333333" stroke="#000000ff"/>
  <path d="M1205 1092 L1205 1078.67 " fill="none" stroke-width="3.333333" stroke="#000000ff"/>
  <path d="M1386 1092 L1386 1078.67 " fill="none" stroke-width="3.333333" stroke="#000000ff"/>
  <path d="M1567 1092 L1567 1078.67 " fill="none" stroke-width="3.333333" stroke="#000000ff"/>
  <path d="M1748 1092 L1748 1078.67 " fill="none" stroke-width="3.333333" stroke="#000000ff"/>
  <path d="M1929 1092 L1929 1078.67 " fill="none" stroke-width="3.333333" stroke="#000000ff"/>
  <text x="93.515625" y="1155.333333" fill="#000000ff" font-size="36.666667" font-family="Arial,Helvetica,'Helvetica Neue',sans-serif" font-weight="500.000000">1.0</text>
  <text x="274.515628" y="1155.333333" fill="#000000ff" font-size="36.666667" font-family="Arial,Helvetica,'Helvetica Neue',sans-serif" font-weight="500.000000">1.4</text>
  <text x="455.515630" y="1155.333333" fill="#000000ff" font-size="36.666667" font-family="Arial,Helvetica,'Helvetica Neue',sans-serif" font-weight="500.000000">1.8</text>
  <text x="636.515647" y="1155.333333" fill="#000000ff" font-size="36.666667" font-family="Arial,Helvetica,'Helvetica Neue',sans-serif" font-weight="500.000000">2.2</text>
  <text x="817.515636" y="1155.333333" fill="#000000ff" font-size="36.666667" font-family="Arial,Helvetica,'Helvetica Neue',sans-serif" font-weight="500.000000">2.6</text>
  <text x="998.515625" y="1155.333333" fill="#000000ff" font-size="36.666667" font-family="Arial,Helvetica,'Helvetica Neue',sans-serif" font-weight="500.000000">3.0</text>
  <text x="1179.515668" y="1155.333333" fill="#000000ff" font-size="36.666667" font-family="Arial,Helvetica,'Helvetica Neue',sans-serif" font-weight="500.000000">3.4</text>
  <text x="1360.515603" y="1155.333333" fill="#000000ff" font-size="36.666667" font-family="Arial,Helvetica,'Helvetica Neue',sans-serif" font-weight="500.000000">3.8</text>
  <text x="1541.515647" y="1155.333333" fill="#000000ff" font-size="36.666667" font-family="Arial,Helvetica,'Helvetica Neue',sans-serif" font-weight="500.000000">4.2</text>
  <text x="1722.515690" y="1155.333333" fill="#000000ff" font-size="36.666667" font-family="Arial,Helvetica,'Helvetica Neue',sans-serif" font-weight="500.000000">4.6</text>
  <text x="1903.515625" y="1155.333333" fill="#000000ff" font-size="36.666667" font-family="Arial,Helvetica,'Helvetica Neue',sans-serif" font-weight="500.000000">5.0</text>
  <path d="M119 1092 L119 108 " fill="none" stroke-width="3.333333" stroke="#000000ff"/>
  <path d="M119 1092 L132.333 1092 " fill="none" stroke-width="3.333333" stroke="#000000ff"/>
  <path d="M119 1017.95 L132.333 1017.95 " fill="none" stroke-width="3.333333" stroke="#000000ff"/>
  <path d="M119 974.628 L132.333 974.628 " fill="none" stroke-width="3.333333" stroke="#000000ff"/>
  <path d="M119 943.893 L132.333 943.893 " fill="none" stroke-width="3.333333" stroke="#000000ff"/>
  <path d="M119 920.053 L132.333 920.053 " fill="none" stroke-width="3.333333" stroke="#000000ff"/>
  <path d="M119 900.575 L132.333 900.575 " fill="none" stroke-width="3.333333" stroke="#000000ff"/>
  <path d="M119 884.106 L132.333 884.106 " fill="none" stroke-width="3.333333" stroke="#000000ff"/>
  <path d="M119 869.84 L132.333 869.84 " fill="none" stroke-width="3.333333" stroke="#000000ff"/>
  <path d="M119 857.256 L132.333 857.256 " fill="none" stroke-width="3.333333" stroke="#000000ff"/>
  <path d="M119 846 L132.333 846 " fill="none" stroke-width="3.333333" stroke="#000000ff"/>
  <path d="M119 771.947 L132.333 771.947 " fill="none" stroke-width="3.333333" stroke="#000000ff"/>
  <path d="M119 728.628 L132.333 728.628 " fill="none" stroke-width="3.333333" stroke="#000000ff"/>
  <path d="M119 697.893 L132.333 697.893 " fill="none" stroke-width="3.333333" stroke="#000000ff"/>
  <path d="M119 674.053 L132.333 674.053 " fill="none" stroke-width="3.333333" stroke="#000000ff"/>
  <path d="M119 654.575 L132.333 654.575 " fill="none" stroke-width="3.333333" stroke="#000000ff"/>
  <path d="M119 638.106 L132.333 638.106 " fill="none" stroke-width="3.333333" stroke="#000000ff"/>
  <path d="M119 623.84 L132.333 623.84 " fill="none" stroke-width="3.333333" stroke="#000000ff"/>
  <path d="M119 611.256 L132.333 611.256 " fill="none" stroke-width="3.333333" stroke="#000000ff"/>
  <path d="M119 600 L132.333 600 " fill="none" stroke-width="3.333333" stroke="#000000ff"/>
  <path d="M119 525.947 L132.333 525.947 " fill="none" stroke-width="3.333333" stroke="#000000ff"/>
  <path d="M119 482.628 L132.333 482.628 " fill="none" stroke-width="3.333333" stroke="#000000ff"/>
  <path d="M119 451.893 L132.333 451.893 " fill="none" stroke-width="3.333333" stroke="#000000ff"/>
  <path d="M119 428.053 L132.333 428.053 " fill="none" stroke-width="3.333333" stroke="#000000ff"/>
  <path d="M119 408.575 L132.333 408.575 " fill="none" stroke-width="3.333333" stroke="#000000ff"/>
  <path d="M119 392.106 L132.333 392.106 " fill="none" stroke-width="3.333333" stroke="#000000ff"/>
  <path d="M119 377.84 L132.333 377.84 " fill="none" stroke-width="3.333333" stroke="#000000ff"/>
  <path d="M119 365.256 L132.333 365.256 " fill="none" stroke-width="3.333333" stroke="#000000ff"/>
  <path d="M119 354 L132.333 354 " fill="none" stroke-width="3.333333" stroke="#000000ff"/>
  <path d="M119 279.947 L132.333 279.947 " fill="none" stroke-width="3.333333" stroke="#000000ff"/>
  <path d="M119 236.628 L132.333 236.628 " fill="none" stroke-width="3.333333" stroke="#000000ff"/>
  <path d="M119 205.893 L132.333 205.893 " fill="none" stroke-width="3.333333" stroke="#000000ff"/>
  <path d="M119 182.053 L132.333 182.053 " fill="none" stroke-width="3.333333" stroke="#000000ff"/>
  <path d="M119 162.575 L132.333 162.575 " fill="none" stroke-width="3.333333" stroke="#000000ff"/>
  <path d="M119 146.106 L132.333 146.106 " fill="none" stroke-width="3.333333" stroke="#000000ff"/>
  <path d="M119 131.84 L132.333 131.84 " fill="none" stroke-width="3.333333" stroke="#000000ff"/>
  <path d="M119 119.256 L132.333 119.256 " fill="none" stroke-width="3.333333" stroke="#000000ff"/>
  <path d="M119 108 L132.333 108 " fill="none" stroke-width="3.333333" stroke="#000000ff"/>
  <text x="36.666667" y="1100.500000" fill="#000000ff" font-size="36.666667" font-family="Arial,Helvetica,'Helvetica Neue',sans-serif" font-weight="500.000000">10⁰</text>
  <text x="36.666667" y="859.000000" fill="#000000ff" font-size="36.666667" font-family="Arial,Helvetica,'Helvetica Neue',sans-serif" font-weight="500.000000">10¹</text>
  <text x="36.666667" y="613.000000" fill="#000000ff" font-size="36.666667" font-family="Arial,Helvetica,'Helvetica Neue',sans-serif" font-weight="500.000000">10²</text>
  <text x="36.666667" y="367.000000" fill="#000000ff" font-size="36.666667" font-family="Arial,Helvetica,'Helvetica Neue',sans-serif" font-weight="500.000000">10²</text>
  <text x="36.666667" y="116.500000" fill="#000000ff" font-size="36.666667" font-family="Arial,Helvetica,'Helvetica Neue',sans-serif" font-weight="500.000000">10⁴</text>
  <path d="M119 1092 L119 108 " fill="none" stroke-width="3.333333" stroke="#0000000c"/>
  <path d="M300 1092 L300 108 " fill="none" stroke-width="3.333333" stroke="#0000000c"/>
  <path d="M481 1092 L481 108 " fill="none" stroke-width="3.333333" stroke="#0000000c"/>
  <path d="M662 1092 L662 108 " fill="none" stroke-width="3.333333" stroke="#0000000c"/>
  <path d="M843 1092 L843 108 " fill="none" stroke-width="3.333333" stroke="#0000000c"/>
  <path d="M1024 1092 L1024 108 " fill="none" stroke-width="3.333333" stroke="#0000000c"/>
  <path d="M1205 1092 L1205 108 " fill="none" stroke-width="3.333333" stroke="#0000000c"/>
  <path d="M1386 1092 L1386 108 " fill="none" stroke-width="3.333333" stroke="#0000000c"/>
  <path d="M1567 1092 L1567 108 " fill="none" stroke-width="3.333333" stroke="#0000000c"/>
  <path d="M1748 1092 L1748 108 " fill="none" stroke-width="3.333333" stroke="#0000000c"/>
  <path d="M1929 1092 L1929 108 " fill="none" stroke-width="3.333333" stroke="#0000000c"/>
  <path d="M119 108 L1929 108 " fill="none" stroke-width="3.333333" stroke="#0000000c"/>
  <path d="M119 182.053 L1929 182.053 " fill="none" stroke-width="3.333333" stroke="#0000000c"/>
  <path d="M119 225.372 L1929 225.372 " fill="none" stroke-width="3.333333" stroke="#0000000c"/>
  <path d="M119 256.107 L1929 256.107 " fill="none" stroke-width="3.333333" stroke="#0000000c"/>
  <path d="M119 279.947 L1929 279.947 " fill="none" stroke-width="3.333333" stroke="#0000000c"/>
  <path d="M119 299.425 L1929 299.425 " fill="none" stroke-width="3.333333" stroke="#0000000c"/>
  <path d="M119 315.894 L1929 315.894 " fill="none" stroke-width="3.333333" stroke="#0000000c"/>
  <path d="M119 330.16 L1929 330.16 " fill="none" stroke-width="3.333333" stroke="#0000000c"/>
  <path d="M119 342.744 L1929 342.744 " fill="none" stroke-width="3.333333" stroke="#0000000c"/>
  <path d="M119 354 L1929 354 " fill="none" stroke-width="3.333333" stroke="#0000000c"/>
  <path d="M119 428.053 L1929 428.053 " fill="none" stroke-width="3.333333" stroke="#0000000c"/>
  <path d="M119 471.372 L1929 471.372 " fill="none" stroke-width="3.333333" stroke="#0000000c"/>
  <path d="M119 502.107 L1929 502.107 " fill="none" stroke-width="3.333333" stroke="#0000000c"/>
  <path d="M119 525.947 L1929 525.947 " fill="none" stroke-width="3.333333" stroke="#0000000c"/>
  <path d="M119 545.425 L1929 545.425 " fill="none" stroke-width="3.333333" stroke="#0000000c"/>
  <path d="M119 561.894 L1929 561.894 " fill="none" stroke-width="3.333333" stroke="#0000000c"/>
  <path d="M119 576.16 L1929 576.16 " fill="none" stroke-width="3.333333" stroke="#0000000c"/>
  <path d="M119 588.744 L1929 588.744 " fill="none" stroke-width="3.333333" stroke="#0000000c"/>
  <path d="M119 600 L1929 600 " fill="none" stroke-width="3.333333" stroke="#0000000c"/>
  <path d="M119 674.053 L1929 674.053 " fill="none" stroke-width="3.333333" stroke="#0000000c"/>
  <path d="M119 717.372 L1929 717.372 " fill="none" stroke-width="3.333333" stroke="#0000000c"/>
  <path d="M119 748.107 L1929 748.107 " fill="none" stroke-width="3.333333" stroke="#0000000c"/>
  <path d="M119 771.947 L1929 771.947 " fill="none" stroke-width="3.333333" stroke="#0000000c"/>
  <path d="M119 791.425 L1929 791.425 " fill="none" stroke-width="3.333333" stroke="#0000000c"/>
  <path d="M119 807.894 L1929 807.894 " fill="none" stroke-width="3.333333" stroke="#0000000c"/>
  <path d="M119 822.16 L1929 822.16 " fill="none" stroke-width="3.333333" stroke="#0000000c"/>
  <path d="M119 834.744 L1929 834.744 " fill="none" stroke-width="3.333333" stroke="#0000000c"/>
  <path d="M119 846 L1929 846 " fill="none" stroke-width="3.333333" stroke="#0000000c"/>
  <path d="M119 920.053 L1929 920.053 " fill="none" stroke-width="3.333333" stroke="#0000000c"/>
  <path d="M119 963.372 L1929 963.372 " fill="none" stroke-width="3.333333" stroke="#0000000c"/>
  <path d="M119 994.107 L1929 994.107 " fill="none" stroke-width="3.333333" stroke="#0000000c"/>
  <path d="M119 1017.95 L1929 1017.95 " fill="none" stroke-width="3.333333" stroke="#0000000c"/>
  <path d="M119 1037.43 L1929 1037.43 " fill="none" stroke-width="3.333333" stroke="#0000000c"/>
  <path d="M119 1053.89 L1929 1053.89 " fill="none" stroke-width="3.333333" stroke="#0000000c"/>
  <path d="M119 1068.16 L1929 1068.16 " fill="none" stroke-width="3.333333" stroke="#0000000c"/>
  <path d="M119 1080.74 L1929 1080.74 " fill="none" stroke-width="3.333333" stroke="#0000000c"/>
  <path d="M119 1092 L1929 1092 " fill="none" stroke-width="3.333333" stroke="#0000000c"/>
  <path d="M119 1092 L571.5 846 L1024 600 L1476.5 354 L1929 108 " fill="none" stroke-width="5.000000" stroke="#000000ff"/>
</svg>