<?xml version="1.0" encoding="UTF-8" ?>
<!-- Generated by clip v0.6.0 (clip-lang.org) -->
<svg xmlns="http://www.w3.org/2000/svg" width="2048.000000" height="1200.000000">
  <rect width="2048.000000" height="1200.000000" fill="#ffffff" fill-opacity="1.000000"/>
  <path d="M108 108 L1931.03 108 " fill="none" stroke-width="3.333333" stroke="#000000ff"/>
  <path d="M108 121.333 L108 108 " fill="none" stroke-width="3.333333" stroke="#000000ff"/>
  <path d="M290.303 121.333 L290.303 108 " fill="none" stroke-width="3.333333" stroke="#000000ff"/>
  <path d="M472.606 121.333 L472.606 108 " fill="none" stroke-width="3.333333" stroke="#000000ff"/>
  <path d="M654.909 121.333 L654.909 108 " fill="none" stroke-width="3.333333" stroke="#000000ff"/>
  <path d="M837.213 121.333 L837.213 108 " fill="none" stroke-width="3.333333" stroke="#000000ff"/>
  <path d="M1019.52 121.333 L1019.52 108 " fill="none" stroke-width="3.333333" stroke="#000000ff"/>
  <path d="M1201.82 121.333 L1201.82 108 " fill="none" stroke-width="3.333333" stroke="#000000ff"/>
  <path d="M1384.12 121.333 L1384.12 108 " fill="none" stroke-width="3.333333" stroke="#000000ff"/>
  <path d="M1566.43 121.333 L1566.43 108 " fill="none" stroke-width="3.333333" stroke="#000000ff"/>
  <path d="M1748.73 121.333 L1748.73 108 " fill="none" stroke-width="3.333333" stroke="#000000ff"/>
  <path d="M1931.03 121.333 L1931.03 108 " fill="none" stroke-width="3.333333" stroke="#000000ff"/>
  <text x="-9.242187" y="70.666667" fill="#000000ff" font-size="36.666667" font-family="Arial,Helvetica,'Helvetica Neue',sans-serif" font-weight="500.000000">1404278100.0</text>
  <text x="173.060940" y="70.666667" fill="#000000ff" font-size="36.666667" font-family="Arial,Helvetica,'Helvetica Neue',sans-serif" font-weight="500.000000">1404280260.0</text>
  <text x="355.364068" y="70.666667" fill="#000000ff" font-size="36.666667" font-family="Arial,Helvetica,'Helvetica Neue',sans-serif" font-weight="500.000000">1404282420.0</text>
  <text x="537.667209" y="70.666667" fill="#000000ff" font-size="36.666667" font-family="Arial,Helvetica,'Helvetica Neue',sans-serif" font-weight="500.000000">1404284580.0</text>
  <text x="719.970323" y="70.666667" fill="#000000ff" font-size="36.666667" font-family="Arial,Helvetica,'Helvetica Neue',sans-serif" font-weight="500.000000">1404286740.0</text>
  <text x="902.273438" y="70.666667" fill="#000000ff" font-size="36.666667" font-family="Arial,Helvetica,'Helvetica Neue',sans-serif" font-weight="500.000000">1404288900.0</text>
  <text x="1084.576606" y="70.666667" fill="#000000ff" font-size="36.666667" font-family="Arial,Helvetica,'Helvetica Neue',sans-serif" font-weight="500.000000">1404291060.0</text>
  <text x="1266.879666" y="70.666667" fill="#000000ff" font-size="36.666667" font-family="Arial,Helvetica,'Helvetica Neue',sans-serif" font-weight="500.000000">1404293220.0</text>
  <text x="1449.182834" y="70.666667" fill="#000000ff" font-size="36.666667" font-family="Arial,Helvetica,'Helvetica Neue',sans-serif" font-weight="500.000000">1404295380.0</text>
  <text x="1631.486003" y="70.666667" fill="#000000ff" font-size="36.666667" font-family="Arial,Helvetica,'Helvetica Neue',sans-serif" font-weight="500.000000">1404297540.0</text>
  <text x="1813.789062" y="70.666667" fill="#000000ff" font-size="36.666667" font-family="Arial,Helvetica,'Helvetica Neue',sans-serif" font-weight="500.000000">1404299700.0</text>
  <path d="M1931.03 1003.38 L1931.03 108 " fill="none" stroke-width="3.333333" stroke="#000000ff"/>
  <path d="M1917.7 1003.38 L1931.03 1003.38 " fill="none" stroke-width="3.333333" stroke="#000000ff"/>
  <path d="M1917.7 913.846 L1931.03 913.846 " fill="none" stroke-width="3.333333" stroke="#000000ff"/>
  <path d="M1917.7 824.307 L1931.03 824.307 " fill="none" stroke-width="3.333333" stroke="#000000ff"/>
  <path d="M1917.7 734.769 L1931.03 734.769 " fill="none" stroke-width="3.333333" stroke="#000000ff"/>
  <path d="M1917.7 645.23 L1931.03 645.23 " fill="none" stroke-width="3.333333" stroke="#000000ff"/>
  <path d="M1917.7 555.692 L1931.03 555.692 " fill="none" stroke-width="3.333333" stroke="#000000ff"/>
  <path d="M1917.7 466.154 L1931.03 466.154 " fill="none" stroke-width="3.333333" stroke="#000000ff"/>
  <path d="M1917.7 376.615 L1931.03 376.615 " fill="none" stroke-width="3.333333" stroke="#000000ff"/>
  <path d="M1917.7 287.077 L1931.03 287.077 " fill="none" stroke-width="3.333333" stroke="#000000ff"/>
  <path d="M1917.7 197.538 L1931.03 197.538 " fill="none" stroke-width="3.333333" stroke="#000000ff"/>
  <path d="M1917.7 108 L1931.03 108 " fill="none" stroke-width="3.333333" stroke="#000000ff"/>
  <text x="1960.364583" y="1016.384119" fill="#000000ff" font-size="36.666667" font-family="Arial,Helvetica,'Helvetica Neue',sans-serif" font-weight="500.000000">0.0</text>
  <text x="1960.364583" y="926.845706" fill="#000000ff" font-size="36.666667" font-family="Arial,Helvetica,'Helvetica Neue',sans-serif" font-weight="500.000000">0.1</text>
  <text x="1960.364583" y="837.307293" fill="#000000ff" font-size="36.666667" font-family="Arial,Helvetica,'Helvetica Neue',sans-serif" font-weight="500.000000">0.2</text>
  <text x="1960.364583" y="747.768873" fill="#000000ff" font-size="36.666667" font-family="Arial,Helvetica,'Helvetica Neue',sans-serif" font-weight="500.000000">0.3</text>
  <text x="1960.364583" y="658.230466" fill="#000000ff" font-size="36.666667" font-family="Arial,Helvetica,'Helvetica Neue',sans-serif" font-weight="500.000000">0.4</text>
  <text x="1960.364583" y="568.692060" fill="#000000ff" font-size="36.666667" font-family="Arial,Helvetica,'Helvetica Neue',sans-serif" font-weight="500.000000">0.5</text>
  <text x="1960.364583" y="479.153626" fill="#000000ff" font-size="36.666667" font-family="Arial,Helvetica,'Helvetica Neue',sans-serif" font-weight="500.000000">0.6</text>
  <text x="1960.364583" y="389.615246" fill="#000000ff" font-size="36.666667" font-family="Arial,Helvetica,'Helvetica Neue',sans-serif" font-weight="500.000000">0.7</text>
  <text x="1960.364583" y="300.076813" fill="#000000ff" font-size="36.666667" font-family="Arial,Helvetica,'Helvetica Neue',sans-serif" font-weight="500.000000">0.8</text>
  <text x="1960.364583" y="210.538380" fill="#000000ff" font-size="36.666667" font-family="Arial,Helvetica,'Helvetica Neue',sans-serif" font-weight="500.000000">0.9</text>
  <text x="1960.364583" y="121.000000" fill="#000000ff" font-size="36.666667" font-family="Arial,Helvetica,'Helvetica Neue',sans-serif" font-weight="500.000000">1.0</text>
  <path d="M108 1003.38 L1931.03 1003.38 " fill="none" stroke-width="3.333333" stroke="#000000ff"/>
  <path d="M108 1003.38 L108 990.051 " fill="none" stroke-width="3.333333" stroke="#000000ff"/>
  <path d="M290.303 1003.38 L290.303 990.051 " fill="none" stroke-width="3.333333" stroke="#000000ff"/>
  <path d="M472.606 1003.38 L472.606 990.051 " fill="none" stroke-width="3.333333" stroke="#000000ff"/>
  <path d="M654.909 1003.38 L654.909 990.051 " fill="none" stroke-width="3.333333" stroke="#000000ff"/>
  <path d="M837.213 1003.38 L837.213 990.051 " fill="none" stroke-width="3.333333" stroke="#000000ff"/>
  <path d="M1019.52 1003.38 L1019.52 990.051 " fill="none" stroke-width="3.333333" stroke="#000000ff"/>
  <path d="M1201.82 1003.38 L1201.82 990.051 " fill="none" stroke-width="3.333333" stroke="#000000ff"/>
  <path d="M1384.12 1003.38 L1384.12 990.051 " fill="none" stroke-width="3.333333" stroke="#000000ff"/>
  <path d="M1566.43 1003.38 L1566.43 990.051 " fill="none" stroke-width="3.333333" stroke="#000000ff"/>
  <path d="M1748.73 1003.38 L1748.73 990.051 " fill="none" stroke-width="3.333333" stroke="#000000ff"/>
  <path d="M1931.03 1003.38 L1931.03 990.051 " fill="none" stroke-width="3.333333" stroke="#000000ff"/>
  <text x="108.000000" y="1045.717453" fill="#000000ff" font-size="36.666667" font-family="Arial,Helvetica,'Helvetica Neue',sans-serif" font-weight="500.000000" transform="matrix(0.707107 0.707107 -0.707107 0.707107 761.874 226.108)">05:15:00</text>
  <text x="290.303128" y="1045.717453" fill="#000000ff" font-size="36.666667" font-family="Arial,Helvetica,'Helvetica Neue',sans-serif" font-weight="500.000000" transform="matrix(0.707107 0.707107 -0.707107 0.707107 815.269 97.2006)">05:51:00</text>
  <text x="472.606255" y="1045.717453" fill="#000000ff" font-size="36.666667" font-family="Arial,Helvetica,'Helvetica Neue',sans-serif" font-weight="500.000000" transform="matrix(0.707107 0.707107 -0.707107 0.707107 868.665 -31.7071)">06:27:00</text>
  <text x="654.909397" y="1045.717453" fill="#000000ff" font-size="36.666667" font-family="Arial,Helvetica,'Helvetica Neue',sans-serif" font-weight="500.000000" transform="matrix(0.707107 0.707107 -0.707107 0.707107 922.06 -160.615)">07:03:00</text>
  <text x="837.212511" y="1045.717453" fill="#000000ff" font-size="36.666667" font-family="Arial,Helvetica,'Helvetica Neue',sans-serif" font-weight="500.000000" transform="matrix(0.707107 0.707107 -0.707107 0.707107 975.455 -289.523)">07:39:00</text>
  <text x="1019.515625" y="1045.717453" fill="#000000ff" font-size="36.666667" font-family="Arial,Helvetica,'Helvetica Neue',sans-serif" font-weight="500.000000" transform="matrix(0.707107 0.707107 -0.707107 0.707107 1028.85 -418.43)">08:15:00</text>
  <text x="1201.818793" y="1045.717453" fill="#000000ff" font-size="36.666667" font-family="Arial,Helvetica,'Helvetica Neue',sans-serif" font-weight="500.000000" transform="matrix(0.707107 0.707107 -0.707107 0.707107 1082.25 -547.338)">08:51:00</text>
  <text x="1384.121853" y="1045.717453" fill="#000000ff" font-size="36.666667" font-family="Arial,Helvetica,'Helvetica Neue',sans-serif" font-weight="500.000000" transform="matrix(0.707107 0.707107 -0.707107 0.707107 1135.64 -676.246)">09:26:59</text>
  <text x="1566.425022" y="1045.717453" fill="#000000ff" font-size="36.666667" font-family="Arial,Helvetica,'Helvetica Neue',sans-serif" font-weight="500.000000" transform="matrix(0.707107 0.707107 -0.707107 0.707107 1189.04 -805.154)">10:03:00</text>
  <text x="1748.728190" y="1045.717453" fill="#000000ff" font-size="36.666667" font-family="Arial,Helvetica,'Helvetica Neue',sans-serif" font-weight="500.000000" transform="matrix(0.707107 0.707107 -0.707107 0.707107 1242.43 -934.062)">10:39:00</text>
  <text x="1931.031250" y="1045.717453" fill="#000000ff" font-size="36.666667" font-family="Arial,Helvetica,'Helvetica Neue',sans-serif" font-weight="500.000000" transform="matrix(0.707107 0.707107 -0.707107 0.707107 1295.83 -1062.97)">11:15:00</text>
  <path d="M108 1003.38 L108 108 " fill="none" stroke-width="3.333333" stroke="#000000ff"/>
  <path d="M108 1003.38 L121.333 1003.38 " fill="none" stroke-width="3.333333" stroke="#000000ff"/>
  <path d="M108 779.538 L121.333 779.538 " fill="none" stroke-width="3.333333" stroke="#000000ff"/>
  <path d="M108 555.692 L121.333 555.692 " fill="none" stroke-width="3.333333" stroke="#000000ff"/>
  <path d="M108 331.846 L121.333 331.846 " fill="none" stroke-width="3.333333" stroke="#000000ff"/>
  <path d="M108 108 L121.333 108 " fill="none" stroke-width="3.333333" stroke="#000000ff"/>
  <text x="68.471354" y="995.384119" fill="#000000ff" font-size="36.666667" font-family="Arial,Helvetica,'Helvetica Neue',sans-serif" font-weight="500.000000" transform="matrix(6.12323e-17 -1 1 6.12323e-17 -924.717 1082.05)">0</text>
  <text x="8.643229" y="769.538089" fill="#000000ff" font-size="36.666667" font-family="Arial,Helvetica,'Helvetica Neue',sans-serif" font-weight="500.000000" transform="matrix(6.12323e-17 -1 1 6.12323e-17 -700.871 858.205)">0.2 × 10⁰</text>
  <text x="8.643229" y="545.692060" fill="#000000ff" font-size="36.666667" font-family="Arial,Helvetica,'Helvetica Neue',sans-serif" font-weight="500.000000" transform="matrix(6.12323e-17 -1 1 6.12323e-17 -477.025 634.359)">0.5 × 10⁰</text>
  <text x="8.643229" y="321.846030" fill="#000000ff" font-size="36.666667" font-family="Arial,Helvetica,'Helvetica Neue',sans-serif" font-weight="500.000000" transform="matrix(6.12323e-17 -1 1 6.12323e-17 -253.179 410.513)">0.8 × 10⁰</text>
  <text x="8.643229" y="98.000000" fill="#000000ff" font-size="36.666667" font-family="Arial,Helvetica,'Helvetica Neue',sans-serif" font-weight="500.000000" transform="matrix(6.12323e-17 -1 1 6.12323e-17 -29.3333 186.667)">1.0 × 10⁰</text>
  <path d="M108 -7.72002e+09 L133.32 -7.46521e+09 L158.64 -7.30829e+09 L183.96 -7.32084e+09 L209.28 -7.19413e+09 L234.599 -7.11429e+09 L259.919 -7.06107e+09 L285.239 -7.02846e+09 L310.559 -6.94499e+09 L335.879 -7.09307e+09 L361.199 -7.04644e+09 L386.519 -6.90353e+09 L411.839 -7.08606e+09 L437.158 -7.06378e+09 L462.478 -6.92276e+09 L487.798 -6.94178e+09 L513.118 -6.84773e+09 L538.438 -6.78336e+09 L563.758 -6.68506e+09 L589.078 -6.64858e+09 L614.398 -6.59778e+09 L639.717 -6.99317e+09 L665.037 -7.28786e+09 L690.357 -7.36765e+09 L715.677 -7.29714e+09 L740.997 -7.13417e+09 L766.317 -6.90819e+09 L791.637 -6.92619e+09 L816.957 -6.78976e+09 L842.276 -6.74365e+09 L867.596 -6.67881e+09 L892.916 -6.73759e+09 L918.236 -6.66589e+09 L943.556 -6.80328e+09 L968.876 -6.91568e+09 L994.196 -6.68195e+09 L1019.52 -6.65223e+09 L1044.84 -6.61478e+09 L1070.16 -6.52349e+09 L1095.48 -6.71277e+09 L1120.8 -6.79621e+09 L1146.12 -6.78749e+09 L1171.43 -6.74126e+09 L1196.75 -6.86531e+09 L1222.07 -6.67087e+09 L1247.39 -6.80287e+09 L1272.71 -6.8565e+09 L1298.03 -6.85062e+09 L1323.35 -6.77982e+09 L1348.67 -6.92581e+09 L1373.99 -6.94994e+09 L1399.31 -7.04434e+09 L1424.63 -6.92591e+09 L1449.95 -6.80697e+09 L1475.27 -6.71259e+09 L1500.59 -6.89442e+09 L1525.91 -6.80879e+09 L1551.23 -6.8271e+09 L1576.55 -6.66428e+09 L1601.87 -6.61737e+09 L1627.19 -6.66717e+09 L1652.51 -6.62937e+09 L1677.83 -6.66825e+09 L1703.15 -6.73287e+09 L1728.47 -6.71178e+09 L1753.79 -6.75475e+09 L1779.11 -6.81957e+09 L1804.43 -6.78362e+09 L1829.75 -6.72507e+09 L1855.07 -6.93794e+09 L1880.39 -6.96643e+09 L1905.71 -7.08196e+09 L1931.03 -7.06999e+09 " fill="none" stroke-width="5.000000" stroke="#000000ff"/>
</svg>