<svg xmlns="http://www.w3.org/2000/svg" width="3600.000000" height="1920.000000">
  <rect width="3600.000000" height="1920.000000" fill="#ffffff" fill-opacity="1.000000"/>
  <text x="128.333333" y="100.666667" fill="#000000ff" font-size="61.111111" font-family="Arial,Helvetica,'Helvetica Neue',sans-serif" font-weight="500.000000">北京市 (Beijing)</text>
  <path d="M70.2778 100.083 C57.6213 100.083 47.3611 89.8232 47.3611 77.1667 C47.3611 64.5101 57.6213 54.25 70.2778 54.25 C82.9343 54.25 93.1944 64.5101 93.1944 77.1667 C93.1944 89.8232 82.9343 100.083 70.2778 100.083 Z" fill="#0066cc" fill-opacity="1.000000"/>
  <text x="128.333333" y="192.000000" fill="#000000ff" font-size="61.111111" font-family="Arial,Helvetica,'Helvetica Neue',sans-serif" font-weight="500.000000">תל אביב (Tel Aviv)</text>
  <path d="M70.2778 193.417 C57.6213 193.417 47.3611 183.157 47.3611 170.5 C47.3611 157.843 57.6213 147.583 70.2778 147.583 C82.9343 147.583 93.1944 157.843 93.1944 170.5 C93.1944 183.157 82.9343 193.417 70.2778 193.417 Z" fill="#cc0066" fill-opacity="1.000000"/>
  <text x="128.333333" y="279.333333" fill="#000000ff" font-size="61.111111" font-family="Arial,Helvetica,'Helvetica Neue',sans-serif" font-weight="500.000000">القاهرة‎ (Cairo)</text>
  <path d="M70.2778 280.75 C57.6213 280.75 47.3611 270.49 47.3611 257.833 C47.3611 245.177 57.6213 234.917 70.2778 234.917 C82.9343 234.917 93.1944 245.177 93.1944 257.833 C93.1944 270.49 82.9343 280.75 70.2778 280.75 Z" fill="#cc0066" fill-opacity="1.000000"/>
  <text x="128.333333" y="366.666667" fill="#000000ff" font-size="61.111111" font-family="Arial,Helvetica,'Helvetica Neue',sans-serif" font-weight="500.000000">Москва</text>
  <path d="M70.2778 368.083 C57.6213 368.083 47.3611 357.823 47.3611 345.167 C47.3611 332.51 57.6213 322.25 70.2778 322.25 C82.9343 322.25 93.1944 332.51 93.1944 345.167 C93.1944 357.823 82.9343 368.083 70.2778 368.083 Z" fill="#6600cc" fill-opacity="1.000000"/>
  <text x="128.333333" y="462.000000" fill="#000000ff" font-size="61.111111" font-family="Arial,Helvetica,'Helvetica Neue',sans-serif" font-weight="500.000000">東京都 (Tokyo)</text>
  <path d="M70.2778 461.417 C57.6213 461.417 47.3611 451.157 47.3611 438.5 C47.3611 425.843 57.6213 415.583 70.2778 415.583 C82.9343 415.583 93.1944 425.843 93.1944 438.5 C93.1944 451.157 82.9343 461.417 70.2778 461.417 Z" fill="#66cc00" fill-opacity="1.000000"/>
  <text x="128.333333" y="561.333333" fill="#000000ff" font-size="61.111111" font-family="Arial,Helvetica,'Helvetica Neue',sans-serif" font-weight="500.000000">서울 (Seoul)</text>
  <path d="M70.2778 560.75 C57.6213 560.75 47.3611 550.49 47.3611 537.833 C47.3611 525.177 57.6213 514.917 70.2778 514.917 C82.9343 514.917 93.1944 525.177 93.1944 537.833 C93.1944 550.49 82.9343 560.75 70.2778 560.75 Z" fill="#000000" fill-opacity="1.000000"/>
</svg>