<svg xmlns="http://www.w3.org/2000/svg" width="3600.000000" height="1920.000000">
  <rect width="3600.000000" height="1920.000000" fill="#ffffffff"/>
  <text x="163.333333" y="128.666667" fill="#000000ff" font-size="77.777778" font-family="Arial,Helvetica,'Helvetica Neue',sans-serif" font-weight="500.000000">北京市 (Beijing)</text>
  <path d="M89.4444 127.333 C73.3361 127.333 60.2778 114.275 60.2778 98.1667 C60.2778 82.0584 73.3361 69 89.4444 69 C105.553 69 118.611 82.0584 118.611 98.1667 C118.611 114.275 105.553 127.333 89.4444 127.333 Z" fill="#0066ccff"/>
  <text x="163.333333" y="244.000000" fill="#000000ff" font-size="77.777778" font-family="Arial,Helvetica,'Helvetica Neue',sans-serif" font-weight="500.000000">תל אביב (Tel Aviv)</text>
  <path d="M89.4444 246.167 C73.3361 246.167 60.2778 233.108 60.2778 217 C60.2778 200.892 73.3361 187.833 89.4444 187.833 C105.553 187.833 118.611 200.892 118.611 217 C118.611 233.108 105.553 246.167 89.4444 246.167 Z" fill="#cc0066ff"/>
  <text x="163.333333" y="355.333333" fill="#000000ff" font-size="77.777778" font-family="Arial,Helvetica,'Helvetica Neue',sans-serif" font-weight="500.000000">القاهرة‎ (Cairo)</text>
  <path d="M89.4444 357.5 C73.3361 357.5 60.2778 344.442 60.2778 328.333 C60.2778 312.225 73.3361 299.167 89.4444 299.167 C105.553 299.167 118.611 312.225 118.611 328.333 C118.611 344.442 105.553 357.5 89.4444 357.5 Z" fill="#cc0066ff"/>
  <text x="163.333333" y="466.666667" fill="#000000ff" font-size="77.777778" font-family="Arial,Helvetica,'Helvetica Neue',sans-serif" font-weight="500.000000">Москва</text>
  <path d="M89.4444 468.833 C73.3361 468.833 60.2778 455.775 60.2778 439.667 C60.2778 423.558 73.3361 410.5 89.4444 410.5 C105.553 410.5 118.611 423.558 118.611 439.667 C118.611 455.775 105.553 468.833 89.4444 468.833 Z" fill="#6600ccff"/>
  <text x="163.333333" y="589.000000" fill="#000000ff" font-size="77.777778" font-family="Arial,Helvetica,'Helvetica Neue',sans-serif" font-weight="500.000000">東京都 (Tokyo)</text>
  <path d="M89.4444 587.667 C73.3361 587.667 60.2778 574.608 60.2778 558.5 C60.2778 542.392 73.3361 529.333 89.4444 529.333 C105.553 529.333 118.611 542.392 118.611 558.5 C118.611 574.608 105.553 587.667 89.4444 587.667 Z" fill="#66cc00ff"/>
  <text x="163.333333" y="715.333333" fill="#000000ff" font-size="77.777778" font-family="Arial,Helvetica,'Helvetica Neue',sans-serif" font-weight="500.000000">서울 (Seoul)</text>
  <path d="M89.4444 714 C73.3361 714 60.2778 700.942 60.2778 684.833 C60.2778 668.725 73.3361 655.667 89.4444 655.667 C105.553 655.667 118.611 668.725 118.611 684.833 C118.611 700.942 105.553 714 89.4444 714 Z" fill="#000000ff"/>
</svg>