<svg xmlns="http://www.w3.org/2000/svg" width="900.000000" height="480.000000" viewBox="0 0 900 480">
  <rect width="900.000000" height="480.000000" fill="#ffffff"/>
  <path stroke-width="2.000000" stroke="#000000" fill="none" d="M135.674 84.0667 L143.158 150.48 L151.928 191.38 L160.698 188.11 L169.469 221.136 L178.239 241.945 L187.009 255.818 L195.779 264.317 L204.55 286.073 L213.32 247.477 L222.09 259.629 L230.86 296.878 L239.631 249.303 L248.401 255.111 L257.171 291.867 L265.942 286.909 L274.712 311.421 L283.482 328.2 L292.252 353.821 L301.023 363.329 L309.793 376.57 L318.563 273.515 L327.333 196.706 L336.104 175.91 L344.874 194.286 L353.644 236.765 L362.414 295.663 L371.185 290.973 L379.955 326.53 L388.725 338.55 L397.495 355.449 L406.266 340.129 L415.036 358.818 L423.806 323.008 L432.576 293.712 L441.347 354.63 L450.117 362.377 L458.887 372.139 L467.657 395.933 L476.428 346.599 L485.198 324.85 L493.968 327.123 L502.738 339.173 L511.509 306.84 L520.279 357.52 L529.049 323.114 L537.82 309.136 L546.59 310.669 L555.36 329.122 L564.13 291.072 L572.901 284.781 L581.671 260.178 L590.441 291.046 L599.211 322.045 L607.982 346.646 L616.752 299.252 L625.522 321.572 L634.292 316.8 L643.063 359.236 L651.833 371.464 L660.603 358.484 L669.373 368.336 L678.144 358.203 L686.914 341.359 L695.684 346.856 L704.454 335.656 L713.225 318.762 L721.995 328.133 L730.765 343.392 L739.535 287.909 L748.306 280.483 L757.076 250.372 L764.326 253.493 "/>
  <path stroke-width="1.333333" stroke="#000000" fill="none" d="M135.674 84.0667 L764.326 84.0667 "/>
  <path stroke-width="1.333333" stroke="#000000" fill="none" d="M135.674 84.0667 L135.674 89.4 "/>
  <path stroke-width="1.333333" stroke="#000000" fill="none" d="M198.539 84.0667 L198.539 89.4 "/>
  <path stroke-width="1.333333" stroke="#000000" fill="none" d="M261.404 84.0667 L261.404 89.4 "/>
  <path stroke-width="1.333333" stroke="#000000" fill="none" d="M324.27 84.0667 L324.27 89.4 "/>
  <path stroke-width="1.333333" stroke="#000000" fill="none" d="M387.135 84.0667 L387.135 89.4 "/>
  <path stroke-width="1.333333" stroke="#000000" fill="none" d="M450 84.0667 L450 89.4 "/>
  <path stroke-width="1.333333" stroke="#000000" fill="none" d="M512.865 84.0667 L512.865 89.4 "/>
  <path stroke-width="1.333333" stroke="#000000" fill="none" d="M575.73 84.0667 L575.73 89.4 "/>
  <path stroke-width="1.333333" stroke="#000000" fill="none" d="M638.596 84.0667 L638.596 89.4 "/>
  <path stroke-width="1.333333" stroke="#000000" fill="none" d="M701.461 84.0667 L701.461 89.4 "/>
  <path stroke-width="1.333333" stroke="#000000" fill="none" d="M764.326 84.0667 L764.326 89.4 "/>
  <text x="107.127083" y="68.333333" fill="#000000" font-size="14.666667" font-family="Arial,Helvetica,'Helvetica Neue',sans-serif" font-weight="500.000000">05:15:44</text>
  <text x="169.992293" y="68.333333" fill="#000000" font-size="14.666667" font-family="Arial,Helvetica,'Helvetica Neue',sans-serif" font-weight="500.000000">05:51:34</text>
  <text x="232.857502" y="68.333333" fill="#000000" font-size="14.666667" font-family="Arial,Helvetica,'Helvetica Neue',sans-serif" font-weight="500.000000">06:27:24</text>
  <text x="295.722716" y="68.333333" fill="#000000" font-size="14.666667" font-family="Arial,Helvetica,'Helvetica Neue',sans-serif" font-weight="500.000000">07:03:15</text>
  <text x="358.587920" y="68.333333" fill="#000000" font-size="14.666667" font-family="Arial,Helvetica,'Helvetica Neue',sans-serif" font-weight="500.000000">07:39:05</text>
  <text x="421.453125" y="68.333333" fill="#000000" font-size="14.666667" font-family="Arial,Helvetica,'Helvetica Neue',sans-serif" font-weight="500.000000">08:14:56</text>
  <text x="484.318348" y="68.333333" fill="#000000" font-size="14.666667" font-family="Arial,Helvetica,'Helvetica Neue',sans-serif" font-weight="500.000000">08:50:46</text>
  <text x="547.183534" y="68.333333" fill="#000000" font-size="14.666667" font-family="Arial,Helvetica,'Helvetica Neue',sans-serif" font-weight="500.000000">09:26:36</text>
  <text x="610.048757" y="68.333333" fill="#000000" font-size="14.666667" font-family="Arial,Helvetica,'Helvetica Neue',sans-serif" font-weight="500.000000">10:02:27</text>
  <text x="672.913981" y="68.333333" fill="#000000" font-size="14.666667" font-family="Arial,Helvetica,'Helvetica Neue',sans-serif" font-weight="500.000000">10:38:17</text>
  <text x="735.779167" y="68.333333" fill="#000000" font-size="14.666667" font-family="Arial,Helvetica,'Helvetica Neue',sans-serif" font-weight="500.000000">11:14:08</text>
  <text x="429.257812" y="31.666667" fill="#000000" font-size="18.666667" font-family="Arial,Helvetica,'Helvetica Neue',sans-serif" font-weight="500.000000">Time</text>
  <path stroke-width="1.333333" stroke="#000000" fill="none" d="M764.326 84.0667 L764.326 395.933 "/>
  <path stroke-width="1.333333" stroke="#000000" fill="none" d="M758.993 395.933 L764.326 395.933 "/>
  <path stroke-width="1.333333" stroke="#000000" fill="none" d="M758.993 364.747 L764.326 364.747 "/>
  <path stroke-width="1.333333" stroke="#000000" fill="none" d="M758.993 333.56 L764.326 333.56 "/>
  <path stroke-width="1.333333" stroke="#000000" fill="none" d="M758.993 302.373 L764.326 302.373 "/>
  <path stroke-width="1.333333" stroke="#000000" fill="none" d="M758.993 271.187 L764.326 271.187 "/>
  <path stroke-width="1.333333" stroke="#000000" fill="none" d="M758.993 240 L764.326 240 "/>
  <path stroke-width="1.333333" stroke="#000000" fill="none" d="M758.993 208.813 L764.326 208.813 "/>
  <path stroke-width="1.333333" stroke="#000000" fill="none" d="M758.993 177.627 L764.326 177.627 "/>
  <path stroke-width="1.333333" stroke="#000000" fill="none" d="M758.993 146.44 L764.326 146.44 "/>
  <path stroke-width="1.333333" stroke="#000000" fill="none" d="M758.993 115.253 L764.326 115.253 "/>
  <path stroke-width="1.333333" stroke="#000000" fill="none" d="M758.993 84.0667 L764.326 84.0667 "/>
  <text x="776.059375" y="400.933333" fill="#000000" font-size="14.666667" font-family="Arial,Helvetica,'Helvetica Neue',sans-serif" font-weight="500.000000">7.3 × 10⁶</text>
  <text x="776.059375" y="369.746666" fill="#000000" font-size="14.666667" font-family="Arial,Helvetica,'Helvetica Neue',sans-serif" font-weight="500.000000">7.4 × 10⁶</text>
  <text x="776.059375" y="338.559999" fill="#000000" font-size="14.666667" font-family="Arial,Helvetica,'Helvetica Neue',sans-serif" font-weight="500.000000">7.6 × 10⁶</text>
  <text x="776.059375" y="307.373330" fill="#000000" font-size="14.666667" font-family="Arial,Helvetica,'Helvetica Neue',sans-serif" font-weight="500.000000">7.7 × 10⁶</text>
  <text x="776.059375" y="276.186665" fill="#000000" font-size="14.666667" font-family="Arial,Helvetica,'Helvetica Neue',sans-serif" font-weight="500.000000">7.8 × 10⁶</text>
  <text x="776.059375" y="245.000000" fill="#000000" font-size="14.666667" font-family="Arial,Helvetica,'Helvetica Neue',sans-serif" font-weight="500.000000">8.0 × 10⁶</text>
  <text x="776.059375" y="213.813326" fill="#000000" font-size="14.666667" font-family="Arial,Helvetica,'Helvetica Neue',sans-serif" font-weight="500.000000">8.1 × 10⁶</text>
  <text x="776.059375" y="182.626670" fill="#000000" font-size="14.666667" font-family="Arial,Helvetica,'Helvetica Neue',sans-serif" font-weight="500.000000">8.2 × 10⁶</text>
  <text x="776.059375" y="151.439996" fill="#000000" font-size="14.666667" font-family="Arial,Helvetica,'Helvetica Neue',sans-serif" font-weight="500.000000">8.4 × 10⁶</text>
  <text x="776.059375" y="120.253322" fill="#000000" font-size="14.666667" font-family="Arial,Helvetica,'Helvetica Neue',sans-serif" font-weight="500.000000">8.5 × 10⁶</text>
  <text x="776.059375" y="89.066667" fill="#000000" font-size="14.666667" font-family="Arial,Helvetica,'Helvetica Neue',sans-serif" font-weight="500.000000">8.6 × 10⁶</text>
  <text x="850.950521" y="246.500000" fill="#000000" font-size="18.666667" font-family="Arial,Helvetica,'Helvetica Neue',sans-serif" font-weight="500.000000" transform="rotate(90 874.833 240)">Value</text>
  <path stroke-width="1.333333" stroke="#000000" fill="none" d="M135.674 395.933 L764.326 395.933 "/>
  <path stroke-width="1.333333" stroke="#000000" fill="none" d="M135.674 390.6 L135.674 395.933 "/>
  <path stroke-width="1.333333" stroke="#000000" fill="none" d="M198.539 390.6 L198.539 395.933 "/>
  <path stroke-width="1.333333" stroke="#000000" fill="none" d="M261.404 390.6 L261.404 395.933 "/>
  <path stroke-width="1.333333" stroke="#000000" fill="none" d="M324.27 390.6 L324.27 395.933 "/>
  <path stroke-width="1.333333" stroke="#000000" fill="none" d="M387.135 390.6 L387.135 395.933 "/>
  <path stroke-width="1.333333" stroke="#000000" fill="none" d="M450 390.6 L450 395.933 "/>
  <path stroke-width="1.333333" stroke="#000000" fill="none" d="M512.865 390.6 L512.865 395.933 "/>
  <path stroke-width="1.333333" stroke="#000000" fill="none" d="M575.73 390.6 L575.73 395.933 "/>
  <path stroke-width="1.333333" stroke="#000000" fill="none" d="M638.596 390.6 L638.596 395.933 "/>
  <path stroke-width="1.333333" stroke="#000000" fill="none" d="M701.461 390.6 L701.461 395.933 "/>
  <path stroke-width="1.333333" stroke="#000000" fill="none" d="M764.326 390.6 L764.326 395.933 "/>
  <text x="107.127083" y="421.666667" fill="#000000" font-size="14.666667" font-family="Arial,Helvetica,'Helvetica Neue',sans-serif" font-weight="500.000000">05:15:44</text>
  <text x="169.992293" y="421.666667" fill="#000000" font-size="14.666667" font-family="Arial,Helvetica,'Helvetica Neue',sans-serif" font-weight="500.000000">05:51:34</text>
  <text x="232.857502" y="421.666667" fill="#000000" font-size="14.666667" font-family="Arial,Helvetica,'Helvetica Neue',sans-serif" font-weight="500.000000">06:27:24</text>
  <text x="295.722716" y="421.666667" fill="#000000" font-size="14.666667" font-family="Arial,Helvetica,'Helvetica Neue',sans-serif" font-weight="500.000000">07:03:15</text>
  <text x="358.587920" y="421.666667" fill="#000000" font-size="14.666667" font-family="Arial,Helvetica,'Helvetica Neue',sans-serif" font-weight="500.000000">07:39:05</text>
  <text x="421.453125" y="421.666667" fill="#000000" font-size="14.666667" font-family="Arial,Helvetica,'Helvetica Neue',sans-serif" font-weight="500.000000">08:14:56</text>
  <text x="484.318348" y="421.666667" fill="#000000" font-size="14.666667" font-family="Arial,Helvetica,'Helvetica Neue',sans-serif" font-weight="500.000000">08:50:46</text>
  <text x="547.183534" y="421.666667" fill="#000000" font-size="14.666667" font-family="Arial,Helvetica,'Helvetica Neue',sans-serif" font-weight="500.000000">09:26:36</text>
  <text x="610.048757" y="421.666667" fill="#000000" font-size="14.666667" font-family="Arial,Helvetica,'Helvetica Neue',sans-serif" font-weight="500.000000">10:02:27</text>
  <text x="672.913981" y="421.666667" fill="#000000" font-size="14.666667" font-family="Arial,Helvetica,'Helvetica Neue',sans-serif" font-weight="500.000000">10:38:17</text>
  <text x="735.779167" y="421.666667" fill="#000000" font-size="14.666667" font-family="Arial,Helvetica,'Helvetica Neue',sans-serif" font-weight="500.000000">11:14:08</text>
  <text x="429.257812" y="461.333333" fill="#000000" font-size="18.666667" font-family="Arial,Helvetica,'Helvetica Neue',sans-serif" font-weight="500.000000">Time</text>
  <path stroke-width="1.333333" stroke="#000000" fill="none" d="M135.674 84.0667 L135.674 395.933 "/>
  <path stroke-width="1.333333" stroke="#000000" fill="none" d="M135.674 395.933 L141.007 395.933 "/>
  <path stroke-width="1.333333" stroke="#000000" fill="none" d="M135.674 364.747 L141.007 364.747 "/>
  <path stroke-width="1.333333" stroke="#000000" fill="none" d="M135.674 333.56 L141.007 333.56 "/>
  <path stroke-width="1.333333" stroke="#000000" fill="none" d="M135.674 302.373 L141.007 302.373 "/>
  <path stroke-width="1.333333" stroke="#000000" fill="none" d="M135.674 271.187 L141.007 271.187 "/>
  <path stroke-width="1.333333" stroke="#000000" fill="none" d="M135.674 240 L141.007 240 "/>
  <path stroke-width="1.333333" stroke="#000000" fill="none" d="M135.674 208.813 L141.007 208.813 "/>
  <path stroke-width="1.333333" stroke="#000000" fill="none" d="M135.674 177.627 L141.007 177.627 "/>
  <path stroke-width="1.333333" stroke="#000000" fill="none" d="M135.674 146.44 L141.007 146.44 "/>
  <path stroke-width="1.333333" stroke="#000000" fill="none" d="M135.674 115.253 L141.007 115.253 "/>
  <path stroke-width="1.333333" stroke="#000000" fill="none" d="M135.674 84.0667 L141.007 84.0667 "/>
  <text x="61.800000" y="400.933333" fill="#000000" font-size="14.666667" font-family="Arial,Helvetica,'Helvetica Neue',sans-serif" font-weight="500.000000">7.3 × 10⁶</text>
  <text x="61.800000" y="369.746666" fill="#000000" font-size="14.666667" font-family="Arial,Helvetica,'Helvetica Neue',sans-serif" font-weight="500.000000">7.4 × 10⁶</text>
  <text x="61.800000" y="338.559999" fill="#000000" font-size="14.666667" font-family="Arial,Helvetica,'Helvetica Neue',sans-serif" font-weight="500.000000">7.6 × 10⁶</text>
  <text x="61.800000" y="307.373330" fill="#000000" font-size="14.666667" font-family="Arial,Helvetica,'Helvetica Neue',sans-serif" font-weight="500.000000">7.7 × 10⁶</text>
  <text x="61.800000" y="276.186665" fill="#000000" font-size="14.666667" font-family="Arial,Helvetica,'Helvetica Neue',sans-serif" font-weight="500.000000">7.8 × 10⁶</text>
  <text x="61.800000" y="245.000000" fill="#000000" font-size="14.666667" font-family="Arial,Helvetica,'Helvetica Neue',sans-serif" font-weight="500.000000">8.0 × 10⁶</text>
  <text x="61.800000" y="213.813326" fill="#000000" font-size="14.666667" font-family="Arial,Helvetica,'Helvetica Neue',sans-serif" font-weight="500.000000">8.1 × 10⁶</text>
  <text x="61.800000" y="182.626670" fill="#000000" font-size="14.666667" font-family="Arial,Helvetica,'Helvetica Neue',sans-serif" font-weight="500.000000">8.2 × 10⁶</text>
  <text x="61.800000" y="151.439996" fill="#000000" font-size="14.666667" font-family="Arial,Helvetica,'Helvetica Neue',sans-serif" font-weight="500.000000">8.4 × 10⁶</text>
  <text x="61.800000" y="120.253322" fill="#000000" font-size="14.666667" font-family="Arial,Helvetica,'Helvetica Neue',sans-serif" font-weight="500.000000">8.5 × 10⁶</text>
  <text x="61.800000" y="89.066667" fill="#000000" font-size="14.666667" font-family="Arial,Helvetica,'Helvetica Neue',sans-serif" font-weight="500.000000">8.6 × 10⁶</text>
  <text x="1.283854" y="246.500000" fill="#000000" font-size="18.666667" font-family="Arial,Helvetica,'Helvetica Neue',sans-serif" font-weight="500.000000" transform="rotate(-90 25.1667 240)">Value</text>
</svg>