<svg xmlns="http://www.w3.org/2000/svg" width="900.000000" height="480.000000" viewBox="0 0 900 480">
  <rect width="900.000000" height="480.000000" fill="#ffffff"/>
  <path stroke-width="2.000000" stroke="#000000" fill="none" d="M129.565 84.0667 L137.194 150.48 L146.135 191.38 L155.075 188.11 L164.016 221.136 L172.957 241.945 L181.898 255.818 L190.838 264.317 L199.779 286.073 L208.72 247.477 L217.66 259.629 L226.601 296.878 L235.542 249.303 L244.483 255.111 L253.423 291.867 L262.364 286.909 L271.305 311.421 L280.246 328.2 L289.186 353.821 L298.127 363.329 L307.068 376.57 L316.008 273.515 L324.949 196.706 L333.89 175.91 L342.831 194.286 L351.771 236.765 L360.712 295.663 L369.653 290.973 L378.593 326.53 L387.534 338.55 L396.475 355.449 L405.416 340.129 L414.356 358.818 L423.297 323.008 L432.238 293.712 L441.178 354.63 L450.119 362.377 L459.06 372.139 L468.001 395.933 L476.941 346.599 L485.882 324.85 L494.823 327.123 L503.764 339.173 L512.704 306.84 L521.645 357.52 L530.586 323.114 L539.526 309.136 L548.467 310.669 L557.408 329.122 L566.349 291.072 L575.289 284.781 L584.23 260.178 L593.171 291.046 L602.111 322.045 L611.052 346.646 L619.993 299.252 L628.934 321.572 L637.874 316.8 L646.815 359.236 L655.756 371.464 L664.696 358.484 L673.637 368.336 L682.578 358.203 L691.519 341.359 L700.459 346.856 L709.4 335.656 L718.341 318.762 L727.282 328.133 L736.222 343.392 L745.163 287.909 L754.104 280.483 L763.044 250.372 L770.435 253.493 "/>
  <path stroke-width="1.333333" stroke="#000000" fill="none" d="M129.565 84.0667 L770.435 84.0667 "/>
  <path stroke-width="1.333333" stroke="#000000" fill="none" d="M129.565 84.0667 L129.565 89.4 "/>
  <path stroke-width="1.333333" stroke="#000000" fill="none" d="M193.652 84.0667 L193.652 89.4 "/>
  <path stroke-width="1.333333" stroke="#000000" fill="none" d="M257.739 84.0667 L257.739 89.4 "/>
  <path stroke-width="1.333333" stroke="#000000" fill="none" d="M321.826 84.0667 L321.826 89.4 "/>
  <path stroke-width="1.333333" stroke="#000000" fill="none" d="M385.913 84.0667 L385.913 89.4 "/>
  <path stroke-width="1.333333" stroke="#000000" fill="none" d="M450 84.0667 L450 89.4 "/>
  <path stroke-width="1.333333" stroke="#000000" fill="none" d="M514.087 84.0667 L514.087 89.4 "/>
  <path stroke-width="1.333333" stroke="#000000" fill="none" d="M578.174 84.0667 L578.174 89.4 "/>
  <path stroke-width="1.333333" stroke="#000000" fill="none" d="M642.261 84.0667 L642.261 89.4 "/>
  <path stroke-width="1.333333" stroke="#000000" fill="none" d="M706.348 84.0667 L706.348 89.4 "/>
  <path stroke-width="1.333333" stroke="#000000" fill="none" d="M770.435 84.0667 L770.435 89.4 "/>
  <text x="101.017708" y="68.333333" fill="#000000" font-size="14.666667" font-family="Arial,Helvetica,'Helvetica Neue',sans-serif" font-weight="500.000000">05:15:44</text>
  <text x="165.104793" y="68.333333" fill="#000000" font-size="14.666667" font-family="Arial,Helvetica,'Helvetica Neue',sans-serif" font-weight="500.000000">05:51:34</text>
  <text x="229.191877" y="68.333333" fill="#000000" font-size="14.666667" font-family="Arial,Helvetica,'Helvetica Neue',sans-serif" font-weight="500.000000">06:27:24</text>
  <text x="293.278966" y="68.333333" fill="#000000" font-size="14.666667" font-family="Arial,Helvetica,'Helvetica Neue',sans-serif" font-weight="500.000000">07:03:15</text>
  <text x="357.366045" y="68.333333" fill="#000000" font-size="14.666667" font-family="Arial,Helvetica,'Helvetica Neue',sans-serif" font-weight="500.000000">07:39:05</text>
  <text x="421.453125" y="68.333333" fill="#000000" font-size="14.666667" font-family="Arial,Helvetica,'Helvetica Neue',sans-serif" font-weight="500.000000">08:14:56</text>
  <text x="485.540224" y="68.333333" fill="#000000" font-size="14.666667" font-family="Arial,Helvetica,'Helvetica Neue',sans-serif" font-weight="500.000000">08:50:46</text>
  <text x="549.627284" y="68.333333" fill="#000000" font-size="14.666667" font-family="Arial,Helvetica,'Helvetica Neue',sans-serif" font-weight="500.000000">09:26:36</text>
  <text x="613.714383" y="68.333333" fill="#000000" font-size="14.666667" font-family="Arial,Helvetica,'Helvetica Neue',sans-serif" font-weight="500.000000">10:02:27</text>
  <text x="677.801481" y="68.333333" fill="#000000" font-size="14.666667" font-family="Arial,Helvetica,'Helvetica Neue',sans-serif" font-weight="500.000000">10:38:17</text>
  <text x="742.435417" y="68.333333" fill="#000000" font-size="14.666667" font-family="Arial,Helvetica,'Helvetica Neue',sans-serif" font-weight="500.000000">11:14:08</text>
  <text x="429.601562" y="31.666667" fill="#000000" font-size="18.666667" font-family="Arial,Helvetica,'Helvetica Neue',sans-serif" font-weight="500.000000">Time</text>
  <path stroke-width="1.333333" stroke="#000000" fill="none" d="M770.435 84.0667 L770.435 395.933 "/>
  <path stroke-width="1.333333" stroke="#000000" fill="none" d="M765.102 395.933 L770.435 395.933 "/>
  <path stroke-width="1.333333" stroke="#000000" fill="none" d="M765.102 364.747 L770.435 364.747 "/>
  <path stroke-width="1.333333" stroke="#000000" fill="none" d="M765.102 333.56 L770.435 333.56 "/>
  <path stroke-width="1.333333" stroke="#000000" fill="none" d="M765.102 302.373 L770.435 302.373 "/>
  <path stroke-width="1.333333" stroke="#000000" fill="none" d="M765.102 271.187 L770.435 271.187 "/>
  <path stroke-width="1.333333" stroke="#000000" fill="none" d="M765.102 240 L770.435 240 "/>
  <path stroke-width="1.333333" stroke="#000000" fill="none" d="M765.102 208.813 L770.435 208.813 "/>
  <path stroke-width="1.333333" stroke="#000000" fill="none" d="M765.102 177.627 L770.435 177.627 "/>
  <path stroke-width="1.333333" stroke="#000000" fill="none" d="M765.102 146.44 L770.435 146.44 "/>
  <path stroke-width="1.333333" stroke="#000000" fill="none" d="M765.102 115.253 L770.435 115.253 "/>
  <path stroke-width="1.333333" stroke="#000000" fill="none" d="M765.102 84.0667 L770.435 84.0667 "/>
  <text x="782.168750" y="399.433333" fill="#000000" font-size="14.666667" font-family="Arial,Helvetica,'Helvetica Neue',sans-serif" font-weight="500.000000">7.3 × 10⁶</text>
  <text x="782.168750" y="368.246666" fill="#000000" font-size="14.666667" font-family="Arial,Helvetica,'Helvetica Neue',sans-serif" font-weight="500.000000">7.4 × 10⁶</text>
  <text x="782.168750" y="337.059999" fill="#000000" font-size="14.666667" font-family="Arial,Helvetica,'Helvetica Neue',sans-serif" font-weight="500.000000">7.6 × 10⁶</text>
  <text x="782.168750" y="305.873330" fill="#000000" font-size="14.666667" font-family="Arial,Helvetica,'Helvetica Neue',sans-serif" font-weight="500.000000">7.7 × 10⁶</text>
  <text x="782.168750" y="274.686665" fill="#000000" font-size="14.666667" font-family="Arial,Helvetica,'Helvetica Neue',sans-serif" font-weight="500.000000">7.8 × 10⁶</text>
  <text x="782.168750" y="243.500000" fill="#000000" font-size="14.666667" font-family="Arial,Helvetica,'Helvetica Neue',sans-serif" font-weight="500.000000">8.0 × 10⁶</text>
  <text x="782.168750" y="212.313326" fill="#000000" font-size="14.666667" font-family="Arial,Helvetica,'Helvetica Neue',sans-serif" font-weight="500.000000">8.1 × 10⁶</text>
  <text x="782.168750" y="181.126670" fill="#000000" font-size="14.666667" font-family="Arial,Helvetica,'Helvetica Neue',sans-serif" font-weight="500.000000">8.2 × 10⁶</text>
  <text x="782.168750" y="149.939996" fill="#000000" font-size="14.666667" font-family="Arial,Helvetica,'Helvetica Neue',sans-serif" font-weight="500.000000">8.4 × 10⁶</text>
  <text x="782.168750" y="118.753322" fill="#000000" font-size="14.666667" font-family="Arial,Helvetica,'Helvetica Neue',sans-serif" font-weight="500.000000">8.5 × 10⁶</text>
  <text x="782.168750" y="87.566667" fill="#000000" font-size="14.666667" font-family="Arial,Helvetica,'Helvetica Neue',sans-serif" font-weight="500.000000">8.6 × 10⁶</text>
  <text x="851.645833" y="246.500000" fill="#000000" font-size="18.666667" font-family="Arial,Helvetica,'Helvetica Neue',sans-serif" font-weight="500.000000" transform="rotate(90 874.833 240)">Value</text>
  <path stroke-width="1.333333" stroke="#000000" fill="none" d="M129.565 395.933 L770.435 395.933 "/>
  <path stroke-width="1.333333" stroke="#000000" fill="none" d="M129.565 390.6 L129.565 395.933 "/>
  <path stroke-width="1.333333" stroke="#000000" fill="none" d="M193.652 390.6 L193.652 395.933 "/>
  <path stroke-width="1.333333" stroke="#000000" fill="none" d="M257.739 390.6 L257.739 395.933 "/>
  <path stroke-width="1.333333" stroke="#000000" fill="none" d="M321.826 390.6 L321.826 395.933 "/>
  <path stroke-width="1.333333" stroke="#000000" fill="none" d="M385.913 390.6 L385.913 395.933 "/>
  <path stroke-width="1.333333" stroke="#000000" fill="none" d="M450 390.6 L450 395.933 "/>
  <path stroke-width="1.333333" stroke="#000000" fill="none" d="M514.087 390.6 L514.087 395.933 "/>
  <path stroke-width="1.333333" stroke="#000000" fill="none" d="M578.174 390.6 L578.174 395.933 "/>
  <path stroke-width="1.333333" stroke="#000000" fill="none" d="M642.261 390.6 L642.261 395.933 "/>
  <path stroke-width="1.333333" stroke="#000000" fill="none" d="M706.348 390.6 L706.348 395.933 "/>
  <path stroke-width="1.333333" stroke="#000000" fill="none" d="M770.435 390.6 L770.435 395.933 "/>
  <text x="101.017708" y="421.666667" fill="#000000" font-size="14.666667" font-family="Arial,Helvetica,'Helvetica Neue',sans-serif" font-weight="500.000000">05:15:44</text>
  <text x="165.104793" y="421.666667" fill="#000000" font-size="14.666667" font-family="Arial,Helvetica,'Helvetica Neue',sans-serif" font-weight="500.000000">05:51:34</text>
  <text x="229.191877" y="421.666667" fill="#000000" font-size="14.666667" font-family="Arial,Helvetica,'Helvetica Neue',sans-serif" font-weight="500.000000">06:27:24</text>
  <text x="293.278966" y="421.666667" fill="#000000" font-size="14.666667" font-family="Arial,Helvetica,'Helvetica Neue',sans-serif" font-weight="500.000000">07:03:15</text>
  <text x="357.366045" y="421.666667" fill="#000000" font-size="14.666667" font-family="Arial,Helvetica,'Helvetica Neue',sans-serif" font-weight="500.000000">07:39:05</text>
  <text x="421.453125" y="421.666667" fill="#000000" font-size="14.666667" font-family="Arial,Helvetica,'Helvetica Neue',sans-serif" font-weight="500.000000">08:14:56</text>
  <text x="485.540224" y="421.666667" fill="#000000" font-size="14.666667" font-family="Arial,Helvetica,'Helvetica Neue',sans-serif" font-weight="500.000000">08:50:46</text>
  <text x="549.627284" y="421.666667" fill="#000000" font-size="14.666667" font-family="Arial,Helvetica,'Helvetica Neue',sans-serif" font-weight="500.000000">09:26:36</text>
  <text x="613.714383" y="421.666667" fill="#000000" font-size="14.666667" font-family="Arial,Helvetica,'Helvetica Neue',sans-serif" font-weight="500.000000">10:02:27</text>
  <text x="677.801481" y="421.666667" fill="#000000" font-size="14.666667" font-family="Arial,Helvetica,'Helvetica Neue',sans-serif" font-weight="500.000000">10:38:17</text>
  <text x="742.435417" y="421.666667" fill="#000000" font-size="14.666667" font-family="Arial,Helvetica,'Helvetica Neue',sans-serif" font-weight="500.000000">11:14:08</text>
  <text x="429.601562" y="461.333333" fill="#000000" font-size="18.666667" font-family="Arial,Helvetica,'Helvetica Neue',sans-serif" font-weight="500.000000">Time</text>
  <path stroke-width="1.333333" stroke="#000000" fill="none" d="M129.565 84.0667 L129.565 395.933 "/>
  <path stroke-width="1.333333" stroke="#000000" fill="none" d="M129.565 395.933 L134.898 395.933 "/>
  <path stroke-width="1.333333" stroke="#000000" fill="none" d="M129.565 364.747 L134.898 364.747 "/>
  <path stroke-width="1.333333" stroke="#000000" fill="none" d="M129.565 333.56 L134.898 333.56 "/>
  <path stroke-width="1.333333" stroke="#000000" fill="none" d="M129.565 302.373 L134.898 302.373 "/>
  <path stroke-width="1.333333" stroke="#000000" fill="none" d="M129.565 271.187 L134.898 271.187 "/>
  <path stroke-width="1.333333" stroke="#000000" fill="none" d="M129.565 240 L134.898 240 "/>
  <path stroke-width="1.333333" stroke="#000000" fill="none" d="M129.565 208.813 L134.898 208.813 "/>
  <path stroke-width="1.333333" stroke="#000000" fill="none" d="M129.565 177.627 L134.898 177.627 "/>
  <path stroke-width="1.333333" stroke="#000000" fill="none" d="M129.565 146.44 L134.898 146.44 "/>
  <path stroke-width="1.333333" stroke="#000000" fill="none" d="M129.565 115.253 L134.898 115.253 "/>
  <path stroke-width="1.333333" stroke="#000000" fill="none" d="M129.565 84.0667 L134.898 84.0667 "/>
  <text x="61.800000" y="399.433333" fill="#000000" font-size="14.666667" font-family="Arial,Helvetica,'Helvetica Neue',sans-serif" font-weight="500.000000">7.3 × 10⁶</text>
  <text x="61.800000" y="368.246666" fill="#000000" font-size="14.666667" font-family="Arial,Helvetica,'Helvetica Neue',sans-serif" font-weight="500.000000">7.4 × 10⁶</text>
  <text x="61.800000" y="337.059999" fill="#000000" font-size="14.666667" font-family="Arial,Helvetica,'Helvetica Neue',sans-serif" font-weight="500.000000">7.6 × 10⁶</text>
  <text x="61.800000" y="305.873330" fill="#000000" font-size="14.666667" font-family="Arial,Helvetica,'Helvetica Neue',sans-serif" font-weight="500.000000">7.7 × 10⁶</text>
  <text x="61.800000" y="274.686665" fill="#000000" font-size="14.666667" font-family="Arial,Helvetica,'Helvetica Neue',sans-serif" font-weight="500.000000">7.8 × 10⁶</text>
  <text x="61.800000" y="243.500000" fill="#000000" font-size="14.666667" font-family="Arial,Helvetica,'Helvetica Neue',sans-serif" font-weight="500.000000">8.0 × 10⁶</text>
  <text x="61.800000" y="212.313326" fill="#000000" font-size="14.666667" font-family="Arial,Helvetica,'Helvetica Neue',sans-serif" font-weight="500.000000">8.1 × 10⁶</text>
  <text x="61.800000" y="181.126670" fill="#000000" font-size="14.666667" font-family="Arial,Helvetica,'Helvetica Neue',sans-serif" font-weight="500.000000">8.2 × 10⁶</text>
  <text x="61.800000" y="149.939996" fill="#000000" font-size="14.666667" font-family="Arial,Helvetica,'Helvetica Neue',sans-serif" font-weight="500.000000">8.4 × 10⁶</text>
  <text x="61.800000" y="118.753322" fill="#000000" font-size="14.666667" font-family="Arial,Helvetica,'Helvetica Neue',sans-serif" font-weight="500.000000">8.5 × 10⁶</text>
  <text x="61.800000" y="87.566667" fill="#000000" font-size="14.666667" font-family="Arial,Helvetica,'Helvetica Neue',sans-serif" font-weight="500.000000">8.6 × 10⁶</text>
  <text x="1.979167" y="246.500000" fill="#000000" font-size="18.666667" font-family="Arial,Helvetica,'Helvetica Neue',sans-serif" font-weight="500.000000" transform="rotate(-90 25.1667 240)">Value</text>
</svg>