<svg xmlns="http://www.w3.org/2000/svg" width="900.000000" height="480.000000" viewBox="0 0 900 480">
  <rect width="900.000000" height="480.000000" fill="#ffffff"/>
  <path stroke-width="2.000000" stroke="#000000" fill="none" d="M131.844 88.9556 L139.419 153.287 L148.296 192.905 L157.173 189.737 L166.051 221.728 L174.928 241.884 L183.805 255.322 L192.682 263.554 L201.559 284.629 L210.436 247.242 L219.313 259.013 L228.19 295.095 L237.068 249.011 L245.945 254.638 L254.822 290.241 L263.699 285.438 L272.576 309.182 L281.453 325.434 L290.33 350.252 L299.207 359.463 L308.084 372.288 L316.962 272.465 L325.839 198.063 L334.716 177.919 L343.593 195.72 L352.47 236.866 L361.347 293.918 L370.224 289.375 L379.101 323.817 L387.979 335.46 L396.856 351.83 L405.733 336.99 L414.61 355.093 L423.487 320.406 L432.364 292.028 L441.241 351.036 L450.118 358.54 L458.995 367.996 L467.873 391.044 L476.75 343.257 L485.627 322.19 L494.504 324.391 L503.381 336.064 L512.258 304.744 L521.135 353.835 L530.012 320.508 L538.89 306.968 L547.767 308.454 L556.644 326.328 L565.521 289.471 L574.398 283.377 L583.275 259.546 L592.152 289.446 L601.029 319.472 L609.906 343.302 L618.784 297.394 L627.661 319.014 L636.538 314.393 L645.415 355.498 L654.292 367.342 L663.169 354.769 L672.046 364.312 L680.923 354.497 L689.801 338.181 L698.678 343.506 L707.555 332.657 L716.432 316.293 L725.309 325.37 L734.186 340.15 L743.063 286.407 L751.94 279.213 L760.817 250.047 L768.156 253.07 "/>
  <path stroke-width="1.333333" stroke="#333333" fill="none" d="M131.844 88.9556 L768.156 88.9556 "/>
  <path stroke-width="1.333333" stroke="#333333" fill="none" d="M131.844 88.9556 L131.844 94.2889 "/>
  <path stroke-width="1.333333" stroke="#333333" fill="none" d="M195.475 88.9556 L195.475 94.2889 "/>
  <path stroke-width="1.333333" stroke="#333333" fill="none" d="M259.106 88.9556 L259.106 94.2889 "/>
  <path stroke-width="1.333333" stroke="#333333" fill="none" d="M322.738 88.9556 L322.738 94.2889 "/>
  <path stroke-width="1.333333" stroke="#333333" fill="none" d="M386.369 88.9556 L386.369 94.2889 "/>
  <path stroke-width="1.333333" stroke="#333333" fill="none" d="M450 88.9556 L450 94.2889 "/>
  <path stroke-width="1.333333" stroke="#333333" fill="none" d="M513.631 88.9556 L513.631 94.2889 "/>
  <path stroke-width="1.333333" stroke="#333333" fill="none" d="M577.262 88.9556 L577.262 94.2889 "/>
  <path stroke-width="1.333333" stroke="#333333" fill="none" d="M640.894 88.9556 L640.894 94.2889 "/>
  <path stroke-width="1.333333" stroke="#333333" fill="none" d="M704.525 88.9556 L704.525 94.2889 "/>
  <path stroke-width="1.333333" stroke="#333333" fill="none" d="M768.156 88.9556 L768.156 94.2889 "/>
  <text x="103.297222" y="73.222222" fill="#333333" font-size="14.666667" font-family="Arial,Helvetica,'Helvetica Neue',sans-serif">05:15:44</text>
  <text x="166.928404" y="73.222222" fill="#333333" font-size="14.666667" font-family="Arial,Helvetica,'Helvetica Neue',sans-serif">05:51:34</text>
  <text x="230.559585" y="73.222222" fill="#333333" font-size="14.666667" font-family="Arial,Helvetica,'Helvetica Neue',sans-serif">06:27:24</text>
  <text x="294.190771" y="73.222222" fill="#333333" font-size="14.666667" font-family="Arial,Helvetica,'Helvetica Neue',sans-serif">07:03:15</text>
  <text x="357.821948" y="73.222222" fill="#333333" font-size="14.666667" font-family="Arial,Helvetica,'Helvetica Neue',sans-serif">07:39:05</text>
  <text x="421.453125" y="73.222222" fill="#333333" font-size="14.666667" font-family="Arial,Helvetica,'Helvetica Neue',sans-serif">08:14:56</text>
  <text x="485.084321" y="73.222222" fill="#333333" font-size="14.666667" font-family="Arial,Helvetica,'Helvetica Neue',sans-serif">08:50:46</text>
  <text x="548.715479" y="73.222222" fill="#333333" font-size="14.666667" font-family="Arial,Helvetica,'Helvetica Neue',sans-serif">09:26:36</text>
  <text x="612.346674" y="73.222222" fill="#333333" font-size="14.666667" font-family="Arial,Helvetica,'Helvetica Neue',sans-serif">10:02:27</text>
  <text x="675.977870" y="73.222222" fill="#333333" font-size="14.666667" font-family="Arial,Helvetica,'Helvetica Neue',sans-serif">10:38:17</text>
  <text x="740.155903" y="73.222222" fill="#333333" font-size="14.666667" font-family="Arial,Helvetica,'Helvetica Neue',sans-serif">11:14:08</text>
  <text x="429.601562" y="36.555556" fill="#333333" font-size="18.666667" font-family="Arial,Helvetica,'Helvetica Neue',sans-serif">Time</text>
  <path stroke-width="1.333333" stroke="#333333" fill="none" d="M768.156 88.9556 L768.156 391.044 "/>
  <path stroke-width="1.333333" stroke="#333333" fill="none" d="M768.156 391.044 L762.823 391.044 "/>
  <path stroke-width="1.333333" stroke="#333333" fill="none" d="M768.156 360.836 L762.823 360.836 "/>
  <path stroke-width="1.333333" stroke="#333333" fill="none" d="M768.156 330.627 L762.823 330.627 "/>
  <path stroke-width="1.333333" stroke="#333333" fill="none" d="M768.156 300.418 L762.823 300.418 "/>
  <path stroke-width="1.333333" stroke="#333333" fill="none" d="M768.156 270.209 L762.823 270.209 "/>
  <path stroke-width="1.333333" stroke="#333333" fill="none" d="M768.156 240 L762.823 240 "/>
  <path stroke-width="1.333333" stroke="#333333" fill="none" d="M768.156 209.791 L762.823 209.791 "/>
  <path stroke-width="1.333333" stroke="#333333" fill="none" d="M768.156 179.582 L762.823 179.582 "/>
  <path stroke-width="1.333333" stroke="#333333" fill="none" d="M768.156 149.373 L762.823 149.373 "/>
  <path stroke-width="1.333333" stroke="#333333" fill="none" d="M768.156 119.164 L762.823 119.164 "/>
  <path stroke-width="1.333333" stroke="#333333" fill="none" d="M768.156 88.9556 L762.823 88.9556 "/>
  <text x="779.889236" y="396.044444" fill="#333333" font-size="14.666667" font-family="Arial,Helvetica,'Helvetica Neue',sans-serif">7.3e+06</text>
  <text x="779.889236" y="365.835555" fill="#333333" font-size="14.666667" font-family="Arial,Helvetica,'Helvetica Neue',sans-serif">7.4e+06</text>
  <text x="779.889236" y="335.626666" fill="#333333" font-size="14.666667" font-family="Arial,Helvetica,'Helvetica Neue',sans-serif">7.6e+06</text>
  <text x="779.889236" y="305.417774" fill="#333333" font-size="14.666667" font-family="Arial,Helvetica,'Helvetica Neue',sans-serif">7.7e+06</text>
  <text x="779.889236" y="275.208887" fill="#333333" font-size="14.666667" font-family="Arial,Helvetica,'Helvetica Neue',sans-serif">7.8e+06</text>
  <text x="779.889236" y="245.000000" fill="#333333" font-size="14.666667" font-family="Arial,Helvetica,'Helvetica Neue',sans-serif">8.0e+06</text>
  <text x="779.889236" y="214.791104" fill="#333333" font-size="14.666667" font-family="Arial,Helvetica,'Helvetica Neue',sans-serif">8.1e+06</text>
  <text x="779.889236" y="184.582226" fill="#333333" font-size="14.666667" font-family="Arial,Helvetica,'Helvetica Neue',sans-serif">8.2e+06</text>
  <text x="779.889236" y="154.373330" fill="#333333" font-size="14.666667" font-family="Arial,Helvetica,'Helvetica Neue',sans-serif">8.4e+06</text>
  <text x="779.889236" y="124.164434" fill="#333333" font-size="14.666667" font-family="Arial,Helvetica,'Helvetica Neue',sans-serif">8.5e+06</text>
  <text x="779.889236" y="93.955556" fill="#333333" font-size="14.666667" font-family="Arial,Helvetica,'Helvetica Neue',sans-serif">8.6e+06</text>
  <text x="846.756944" y="246.500000" fill="#333333" font-size="18.666667" font-family="Arial,Helvetica,'Helvetica Neue',sans-serif" transform="rotate(90 869.944 240)">Value</text>
  <path stroke-width="1.333333" stroke="#333333" fill="none" d="M131.844 391.044 L768.156 391.044 "/>
  <path stroke-width="1.333333" stroke="#333333" fill="none" d="M131.844 391.044 L131.844 385.711 "/>
  <path stroke-width="1.333333" stroke="#333333" fill="none" d="M195.475 391.044 L195.475 385.711 "/>
  <path stroke-width="1.333333" stroke="#333333" fill="none" d="M259.106 391.044 L259.106 385.711 "/>
  <path stroke-width="1.333333" stroke="#333333" fill="none" d="M322.738 391.044 L322.738 385.711 "/>
  <path stroke-width="1.333333" stroke="#333333" fill="none" d="M386.369 391.044 L386.369 385.711 "/>
  <path stroke-width="1.333333" stroke="#333333" fill="none" d="M450 391.044 L450 385.711 "/>
  <path stroke-width="1.333333" stroke="#333333" fill="none" d="M513.631 391.044 L513.631 385.711 "/>
  <path stroke-width="1.333333" stroke="#333333" fill="none" d="M577.262 391.044 L577.262 385.711 "/>
  <path stroke-width="1.333333" stroke="#333333" fill="none" d="M640.894 391.044 L640.894 385.711 "/>
  <path stroke-width="1.333333" stroke="#333333" fill="none" d="M704.525 391.044 L704.525 385.711 "/>
  <path stroke-width="1.333333" stroke="#333333" fill="none" d="M768.156 391.044 L768.156 385.711 "/>
  <text x="103.297222" y="416.777778" fill="#333333" font-size="14.666667" font-family="Arial,Helvetica,'Helvetica Neue',sans-serif">05:15:44</text>
  <text x="166.928404" y="416.777778" fill="#333333" font-size="14.666667" font-family="Arial,Helvetica,'Helvetica Neue',sans-serif">05:51:34</text>
  <text x="230.559585" y="416.777778" fill="#333333" font-size="14.666667" font-family="Arial,Helvetica,'Helvetica Neue',sans-serif">06:27:24</text>
  <text x="294.190771" y="416.777778" fill="#333333" font-size="14.666667" font-family="Arial,Helvetica,'Helvetica Neue',sans-serif">07:03:15</text>
  <text x="357.821948" y="416.777778" fill="#333333" font-size="14.666667" font-family="Arial,Helvetica,'Helvetica Neue',sans-serif">07:39:05</text>
  <text x="421.453125" y="416.777778" fill="#333333" font-size="14.666667" font-family="Arial,Helvetica,'Helvetica Neue',sans-serif">08:14:56</text>
  <text x="485.084321" y="416.777778" fill="#333333" font-size="14.666667" font-family="Arial,Helvetica,'Helvetica Neue',sans-serif">08:50:46</text>
  <text x="548.715479" y="416.777778" fill="#333333" font-size="14.666667" font-family="Arial,Helvetica,'Helvetica Neue',sans-serif">09:26:36</text>
  <text x="612.346674" y="416.777778" fill="#333333" font-size="14.666667" font-family="Arial,Helvetica,'Helvetica Neue',sans-serif">10:02:27</text>
  <text x="675.977870" y="416.777778" fill="#333333" font-size="14.666667" font-family="Arial,Helvetica,'Helvetica Neue',sans-serif">10:38:17</text>
  <text x="740.155903" y="416.777778" fill="#333333" font-size="14.666667" font-family="Arial,Helvetica,'Helvetica Neue',sans-serif">11:14:08</text>
  <text x="429.601562" y="456.444444" fill="#333333" font-size="18.666667" font-family="Arial,Helvetica,'Helvetica Neue',sans-serif">Time</text>
  <path stroke-width="1.333333" stroke="#333333" fill="none" d="M131.844 88.9556 L131.844 391.044 "/>
  <path stroke-width="1.333333" stroke="#333333" fill="none" d="M131.844 391.044 L137.177 391.044 "/>
  <path stroke-width="1.333333" stroke="#333333" fill="none" d="M131.844 360.836 L137.177 360.836 "/>
  <path stroke-width="1.333333" stroke="#333333" fill="none" d="M131.844 330.627 L137.177 330.627 "/>
  <path stroke-width="1.333333" stroke="#333333" fill="none" d="M131.844 300.418 L137.177 300.418 "/>
  <path stroke-width="1.333333" stroke="#333333" fill="none" d="M131.844 270.209 L137.177 270.209 "/>
  <path stroke-width="1.333333" stroke="#333333" fill="none" d="M131.844 240 L137.177 240 "/>
  <path stroke-width="1.333333" stroke="#333333" fill="none" d="M131.844 209.791 L137.177 209.791 "/>
  <path stroke-width="1.333333" stroke="#333333" fill="none" d="M131.844 179.582 L137.177 179.582 "/>
  <path stroke-width="1.333333" stroke="#333333" fill="none" d="M131.844 149.373 L137.177 149.373 "/>
  <path stroke-width="1.333333" stroke="#333333" fill="none" d="M131.844 119.164 L137.177 119.164 "/>
  <path stroke-width="1.333333" stroke="#333333" fill="none" d="M131.844 88.9556 L137.177 88.9556 "/>
  <text x="66.688889" y="396.044444" fill="#333333" font-size="14.666667" font-family="Arial,Helvetica,'Helvetica Neue',sans-serif">7.3e+06</text>
  <text x="66.688889" y="365.835555" fill="#333333" font-size="14.666667" font-family="Arial,Helvetica,'Helvetica Neue',sans-serif">7.4e+06</text>
  <text x="66.688889" y="335.626666" fill="#333333" font-size="14.666667" font-family="Arial,Helvetica,'Helvetica Neue',sans-serif">7.6e+06</text>
  <text x="66.688889" y="305.417774" fill="#333333" font-size="14.666667" font-family="Arial,Helvetica,'Helvetica Neue',sans-serif">7.7e+06</text>
  <text x="66.688889" y="275.208887" fill="#333333" font-size="14.666667" font-family="Arial,Helvetica,'Helvetica Neue',sans-serif">7.8e+06</text>
  <text x="66.688889" y="245.000000" fill="#333333" font-size="14.666667" font-family="Arial,Helvetica,'Helvetica Neue',sans-serif">8.0e+06</text>
  <text x="66.688889" y="214.791104" fill="#333333" font-size="14.666667" font-family="Arial,Helvetica,'Helvetica Neue',sans-serif">8.1e+06</text>
  <text x="66.688889" y="184.582226" fill="#333333" font-size="14.666667" font-family="Arial,Helvetica,'Helvetica Neue',sans-serif">8.2e+06</text>
  <text x="66.688889" y="154.373330" fill="#333333" font-size="14.666667" font-family="Arial,Helvetica,'Helvetica Neue',sans-serif">8.4e+06</text>
  <text x="66.688889" y="124.164434" fill="#333333" font-size="14.666667" font-family="Arial,Helvetica,'Helvetica Neue',sans-serif">8.5e+06</text>
  <text x="66.688889" y="93.955556" fill="#333333" font-size="14.666667" font-family="Arial,Helvetica,'Helvetica Neue',sans-serif">8.6e+06</text>
  <text x="6.868056" y="246.500000" fill="#333333" font-size="18.666667" font-family="Arial,Helvetica,'Helvetica Neue',sans-serif" transform="rotate(-90 30.0556 240)">Value</text>
</svg>