<svg xmlns="http://www.w3.org/2000/svg" width="3600.000000" height="1920.000000">
  <rect width="3600.000000" height="1920.000000" fill="#ffffffff"/>
  <text x="163.333333" y="117.666667" fill="#000000ff" font-size="77.777778" font-family="Arial,Helvetica,'Helvetica Neue',sans-serif" font-weight="500.000000">Test Color 1</text>
  <path d="M89.4444 119.833 C73.3361 119.833 60.2778 106.775 60.2778 90.6667 C60.2778 74.5584 73.3361 61.5 89.4444 61.5 C105.553 61.5 118.611 74.5584 118.611 90.6667 C118.611 106.775 105.553 119.833 89.4444 119.833 Z" fill="#00cc00ff"/>
  <text x="163.333333" y="229.000000" fill="#000000ff" font-size="77.777778" font-family="Arial,Helvetica,'Helvetica Neue',sans-serif" font-weight="500.000000">Test Color 2</text>
  <path d="M89.4444 231.167 C73.3361 231.167 60.2778 218.108 60.2778 202 C60.2778 185.892 73.3361 172.833 89.4444 172.833 C105.553 172.833 118.611 185.892 118.611 202 C118.611 218.108 105.553 231.167 89.4444 231.167 Z" fill="#cc0000ff"/>
  <text x="163.333333" y="340.333333" fill="#000000ff" font-size="77.777778" font-family="Arial,Helvetica,'Helvetica Neue',sans-serif" font-weight="500.000000">Test Color 3</text>
  <path d="M89.4444 342.5 C73.3361 342.5 60.2778 329.442 60.2778 313.333 C60.2778 297.225 73.3361 284.167 89.4444 284.167 C105.553 284.167 118.611 297.225 118.611 313.333 C118.611 329.442 105.553 342.5 89.4444 342.5 Z" fill="#0000ccff"/>
  <text x="163.333333" y="451.666667" fill="#000000ff" font-size="77.777778" font-family="Arial,Helvetica,'Helvetica Neue',sans-serif" font-weight="500.000000">Test Color 4</text>
  <path d="M89.4444 453.833 C73.3361 453.833 60.2778 440.775 60.2778 424.667 C60.2778 408.558 73.3361 395.5 89.4444 395.5 C105.553 395.5 118.611 408.558 118.611 424.667 C118.611 440.775 105.553 453.833 89.4444 453.833 Z" fill="#00cc00ff"/>
  <text x="163.333333" y="563.000000" fill="#000000ff" font-size="77.777778" font-family="Arial,Helvetica,'Helvetica Neue',sans-serif" font-weight="500.000000">Test Color 5</text>
  <path d="M89.4444 565.167 C73.3361 565.167 60.2778 552.108 60.2778 536 C60.2778 519.892 73.3361 506.833 89.4444 506.833 C105.553 506.833 118.611 519.892 118.611 536 C118.611 552.108 105.553 565.167 89.4444 565.167 Z" fill="#cc0000ff"/>
  <text x="163.333333" y="674.333333" fill="#000000ff" font-size="77.777778" font-family="Arial,Helvetica,'Helvetica Neue',sans-serif" font-weight="500.000000">Test Color 6</text>
  <path d="M89.4444 676.5 C73.3361 676.5 60.2778 663.442 60.2778 647.333 C60.2778 631.225 73.3361 618.167 89.4444 618.167 C105.553 618.167 118.611 631.225 118.611 647.333 C118.611 663.442 105.553 676.5 89.4444 676.5 Z" fill="#0000ccff"/>
  <text x="163.333333" y="785.666667" fill="#000000ff" font-size="77.777778" font-family="Arial,Helvetica,'Helvetica Neue',sans-serif" font-weight="500.000000">Test Color 7</text>
  <path d="M89.4444 787.833 C73.3361 787.833 60.2778 774.775 60.2778 758.667 C60.2778 742.558 73.3361 729.5 89.4444 729.5 C105.553 729.5 118.611 742.558 118.611 758.667 C118.611 774.775 105.553 787.833 89.4444 787.833 Z" fill="#00cc00ff"/>
  <text x="163.333333" y="897.000000" fill="#000000ff" font-size="77.777778" font-family="Arial,Helvetica,'Helvetica Neue',sans-serif" font-weight="500.000000">Test Color 8</text>
  <path d="M89.4444 899.167 C73.3361 899.167 60.2778 886.108 60.2778 870 C60.2778 853.892 73.3361 840.833 89.4444 840.833 C105.553 840.833 118.611 853.892 118.611 870 C118.611 886.108 105.553 899.167 89.4444 899.167 Z" fill="#cc0000ff"/>
</svg>