<svg xmlns="http://www.w3.org/2000/svg" width="3600.000000" height="1920.000000" viewBox="0 0 3600 1920">
  <rect width="3600.000000" height="1920.000000" fill="#ffffff"/>
  <path fill="#eeeeee" d="M310.897 58.6667 L3541.33 58.6667 L3541.33 1745.4 L310.897 1745.4 L310.897 58.6667 "/>
  <path stroke-width="5.333333" stroke="#ffffff" fill="none" d="M310.897 58.6667 L310.897 1745.4 "/>
  <path stroke-width="5.333333" stroke="#ffffff" fill="none" d="M633.941 58.6667 L633.941 1745.4 "/>
  <path stroke-width="5.333333" stroke="#ffffff" fill="none" d="M956.984 58.6667 L956.984 1745.4 "/>
  <path stroke-width="5.333333" stroke="#ffffff" fill="none" d="M1280.03 58.6667 L1280.03 1745.4 "/>
  <path stroke-width="5.333333" stroke="#ffffff" fill="none" d="M1603.07 58.6667 L1603.07 1745.4 "/>
  <path stroke-width="5.333333" stroke="#ffffff" fill="none" d="M1926.12 58.6667 L1926.12 1745.4 "/>
  <path stroke-width="5.333333" stroke="#ffffff" fill="none" d="M2249.16 58.6667 L2249.16 1745.4 "/>
  <path stroke-width="5.333333" stroke="#ffffff" fill="none" d="M2572.2 58.6667 L2572.2 1745.4 "/>
  <path stroke-width="5.333333" stroke="#ffffff" fill="none" d="M2895.25 58.6667 L2895.25 1745.4 "/>
  <path stroke-width="5.333333" stroke="#ffffff" fill="none" d="M3218.29 58.6667 L3218.29 1745.4 "/>
  <path stroke-width="5.333333" stroke="#ffffff" fill="none" d="M3541.33 58.6667 L3541.33 1745.4 "/>
  <path stroke-width="5.333333" stroke="#ffffff" fill="none" d="M310.897 1745.4 L3541.33 1745.4 "/>
  <path stroke-width="5.333333" stroke="#ffffff" fill="none" d="M310.897 1576.73 L3541.33 1576.73 "/>
  <path stroke-width="5.333333" stroke="#ffffff" fill="none" d="M310.897 1408.05 L3541.33 1408.05 "/>
  <path stroke-width="5.333333" stroke="#ffffff" fill="none" d="M310.897 1239.38 L3541.33 1239.38 "/>
  <path stroke-width="5.333333" stroke="#ffffff" fill="none" d="M310.897 1070.71 L3541.33 1070.71 "/>
  <path stroke-width="5.333333" stroke="#ffffff" fill="none" d="M310.897 902.033 L3541.33 902.033 "/>
  <path stroke-width="5.333333" stroke="#ffffff" fill="none" d="M310.897 733.36 L3541.33 733.36 "/>
  <path stroke-width="5.333333" stroke="#ffffff" fill="none" d="M310.897 564.687 L3541.33 564.687 "/>
  <path stroke-width="5.333333" stroke="#ffffff" fill="none" d="M310.897 396.013 L3541.33 396.013 "/>
  <path stroke-width="5.333333" stroke="#ffffff" fill="none" d="M310.897 227.34 L3541.33 227.34 "/>
  <path stroke-width="5.333333" stroke="#ffffff" fill="none" d="M310.897 58.6667 L3541.33 58.6667 "/>
  <path stroke-width="8.000000" stroke="#000000" fill="none" d="M310.897 1302.78 L349.354 1339.65 L394.422 1635.44 L439.489 1622.05 L484.557 1559.73 L529.624 1701.74 L574.692 1712.08 L619.759 1622.33 L664.827 1537.99 L709.894 1708.97 L754.962 1605.3 L800.029 1644.61 L845.097 1419.19 L890.164 1491.04 L935.232 1586.35 L980.299 1476.1 L1025.37 1604.53 L1070.43 1659.24 L1115.5 1704.25 L1160.57 1706.04 L1205.64 1705.81 L1250.7 1500.01 L1295.77 714.755 L1340.84 116.602 L1385.91 144.783 L1430.97 196.139 L1476.04 894.453 L1521.11 1080.92 L1566.18 1431.9 L1611.24 1613.91 L1656.31 1678.04 L1701.38 1661.19 L1746.45 1681.69 L1791.51 1661.31 L1836.58 1459.07 L1881.65 1441.37 L1926.72 1434.2 L1971.78 1355.32 L2016.85 1391.58 L2061.92 1453.8 L2106.99 1424.31 L2152.05 1323.58 L2197.12 1167.75 L2242.19 1185.4 L2287.26 1082.92 L2332.32 1244.55 L2377.39 1316.66 L2422.46 1483.59 L2467.53 1396.78 L2512.59 1109.2 L2557.66 1053.98 L2602.73 1192.4 L2647.8 1221.09 L2692.86 1181.5 L2737.93 1108.08 L2783 1399.47 L2828.07 1494.07 L2873.13 1233.68 L2918.2 1403.11 L2963.27 1592.17 L3008.34 1572.42 L3053.4 1376.49 L3098.47 1522.09 L3143.54 1537.62 L3188.61 1566.68 L3233.67 1535.9 L3278.74 1564.99 L3323.81 1456.13 L3368.88 1551.49 L3413.94 1491.95 L3459.01 1432.28 L3504.08 1485.12 L3541.33 1590.99 "/>
  <path fill="#000000" d="M20.1719 -37.2969 L12.2656 -16 L28.0938 -16 L20.1719 -37.2969 M16.875 -43 L23.4844 -43 L39.875 0 L33.8281 0 L29.9062 -11 L10.5156 -11 L6.59375 0 L0.46875 0 L16.875 -43 " transform="translate(2606.24 189.933)"/>
  <path fill="#000000" d="" transform="translate(2646.38 189.933)"/>
  <path fill="#000000" d="M1.75 -32 L7.375 -32 L17.4531 -5.14062 L27.5469 -32 L33.1562 -32 L21.0625 0 L13.8594 0 L1.75 -32 " transform="translate(2665.04 189.933)"/>
  <path fill="#000000" d="M33.1562 -18.125 L33.1562 -15 L8.78125 -15 C9.125 -9.625 15.0312 -4 20.3125 -4 C23.3594 -4 29.0938 -5.5 31.9219 -7 L31.9219 -2 C29.0625 -0.53125 23.0781 1 19.9844 1 C12.2656 1 3.25 -8.01562 3.25 -15.7031 C3.25 -23.6562 11.8125 -33 19.0625 -33 C25.5781 -33 33.1562 -25 33.1562 -18.125 M27.8594 -20 C27.7969 -23.6562 23.0469 -28 19.125 -28 C14.6875 -28 9.35938 -23.7969 8.95312 -19.9688 L27.8594 -20 " transform="translate(2699.76 189.933)"/>
  <path fill="#000000" d="M24.25 -28 C23.3594 -28 21.25 -28 19.9844 -28 C15.5 -28 10.6875 -22.2344 10.6875 -16.8438 L10.6875 0 L5.35938 0 L5.35938 -32 L10.6875 -32 L10.6875 -27 C12.3594 -30.0469 17.7188 -33 21.5469 -33 C22.0938 -33 23.4219 -33 24.2188 -33 L24.25 -28 " transform="translate(2735.85 189.933)"/>
  <path fill="#000000" d="M18.9844 2.29688 C16.7344 8.32812 12.4844 12 8.90625 12 L4.67188 12 L4.67188 7 L7.78125 7 C9.96875 7 12.3906 5.15625 13.8594 1.70312 L14.8125 -0.6875 L1.75 -32 L7.375 -32 L17.4531 -6.96875 L27.5469 -32 L33.1562 -32 L18.9844 2.29688 " transform="translate(2759.97 189.933)"/>
  <path fill="#000000" d="" transform="translate(2794.69 189.933)"/>
  <path fill="#000000" d="M26.125 -31 L26.125 -26 C23.875 -27 19.0469 -28 16.4531 -28 C12.5 -28 8.5625 -25.7188 8.5625 -23.4375 C8.5625 -21.6875 11.375 -19.7031 15.6406 -18.8125 L17.4531 -18.4219 C23.1094 -17.2031 27.8594 -12.7656 27.8594 -8.79688 C27.8594 -4.28125 20.75 1 14.5156 1 C11.9375 1 6.3125 -0.5 3.20312 -2 L3.20312 -7 C6.14062 -5.5 11.8438 -4 14.6406 -4 C18.375 -4 22.4062 -6.48438 22.4062 -8.75 C22.4062 -10.8594 19.5 -13.0938 14.5781 -14.125 L12.7344 -14.5469 C7.79688 -15.5781 3.42188 -19.8438 3.42188 -23.5625 C3.42188 -28.0781 9.875 -33 15.8125 -33 C18.75 -33 23.9375 -32 26.125 -31 " transform="translate(2813.35 189.933)"/>
  <path fill="#000000" d="M33.1562 -18.125 L33.1562 -15 L8.78125 -15 C9.125 -9.625 15.0312 -4 20.3125 -4 C23.3594 -4 29.0938 -5.5 31.9219 -7 L31.9219 -2 C29.0625 -0.53125 23.0781 1 19.9844 1 C12.2656 1 3.25 -8.01562 3.25 -15.7031 C3.25 -23.6562 11.8125 -33 19.0625 -33 C25.5781 -33 33.1562 -25 33.1562 -18.125 M27.8594 -20 C27.7969 -23.6562 23.0469 -28 19.125 -28 C14.6875 -28 9.35938 -23.7969 8.95312 -19.9688 L27.8594 -20 " transform="translate(2843.91 189.933)"/>
  <path fill="#000000" d="M24.25 -28 C23.3594 -28 21.25 -28 19.9844 -28 C15.5 -28 10.6875 -22.2344 10.6875 -16.8438 L10.6875 0 L5.35938 0 L5.35938 -32 L10.6875 -32 L10.6875 -27 C12.3594 -30.0469 17.7188 -33 21.5469 -33 C22.0938 -33 23.4219 -33 24.2188 -33 L24.25 -28 " transform="translate(2880.01 189.933)"/>
  <path fill="#000000" d="M5.5625 -32 L10.8594 -32 L10.8594 0 L5.5625 0 L5.5625 -32 M5.5625 -45 L10.8594 -45 L10.8594 -38 L5.5625 -38 L5.5625 -45 " transform="translate(2904.13 189.933)"/>
  <path fill="#000000" d="M18.0625 -28 C13.7969 -28 8.84375 -21.5781 8.84375 -16 C8.84375 -10.4219 13.7656 -4 18.0625 -4 C22.2969 -4 27.25 -10.4375 27.25 -16 C27.25 -21.5312 22.2969 -28 18.0625 -28 M18.0625 -33 C24.9844 -33 32.875 -23.9844 32.875 -16 C32.875 -8.04688 24.9844 1 18.0625 1 C11.125 1 3.25 -8.04688 3.25 -16 C3.25 -23.9844 11.125 -33 18.0625 -33 " transform="translate(2920.43 189.933)"/>
  <path fill="#000000" d="M5.01562 -12.6875 L5.01562 -32 L10.3125 -32 L10.3125 -12.8906 C10.3125 -8.4375 13.8906 -4 17.4531 -4 C21.75 -4 26.7344 -9.32812 26.7344 -13.9219 L26.7344 -32 L32.0312 -32 L32.0312 0 L26.7344 0 L26.7344 -5 C24.7969 -1.95312 19.7031 1 16.3281 1 C10.7812 1 5.01562 -5.96875 5.01562 -12.6875 M18.3438 -33 L18.3438 -33 " transform="translate(2956.32 189.933)"/>
  <path fill="#000000" d="M26.125 -31 L26.125 -26 C23.875 -27 19.0469 -28 16.4531 -28 C12.5 -28 8.5625 -25.7188 8.5625 -23.4375 C8.5625 -21.6875 11.375 -19.7031 15.6406 -18.8125 L17.4531 -18.4219 C23.1094 -17.2031 27.8594 -12.7656 27.8594 -8.79688 C27.8594 -4.28125 20.75 1 14.5156 1 C11.9375 1 6.3125 -0.5 3.20312 -2 L3.20312 -7 C6.14062 -5.5 11.8438 -4 14.6406 -4 C18.375 -4 22.4062 -6.48438 22.4062 -8.75 C22.4062 -10.8594 19.5 -13.0938 14.5781 -14.125 L12.7344 -14.5469 C7.79688 -15.5781 3.42188 -19.8438 3.42188 -23.5625 C3.42188 -28.0781 9.875 -33 15.8125 -33 C18.75 -33 23.9375 -32 26.125 -31 " transform="translate(2993.51 189.933)"/>
  <path fill="#000000" d="" transform="translate(3024.07 189.933)"/>
  <path fill="#000000" d="M30.6875 -25.8281 C32.6719 -29.5 38.2031 -33 41.9375 -33 C46.9844 -33 52.4531 -25.875 52.4531 -19.2969 L52.4531 0 L47.125 0 L47.125 -19.125 C47.125 -23.625 43.8438 -28 40.4688 -28 C36.3594 -28 31.5781 -22.6719 31.5781 -18.0625 L31.5781 0 L26.25 0 L26.25 -19.125 C26.25 -23.6562 22.9688 -28 19.5312 -28 C15.4688 -28 10.6875 -22.6406 10.6875 -18.0625 L10.6875 0 L5.35938 0 L5.35938 -32 L10.6875 -32 L10.6875 -27 C12.5 -30.0781 17.5781 -33 21.0625 -33 C24.5781 -33 29.5 -29.3281 30.6875 -25.8281 " transform="translate(3042.72 189.933)"/>
  <path fill="#000000" d="M33.1562 -18.125 L33.1562 -15 L8.78125 -15 C9.125 -9.625 15.0312 -4 20.3125 -4 C23.3594 -4 29.0938 -5.5 31.9219 -7 L31.9219 -2 C29.0625 -0.53125 23.0781 1 19.9844 1 C12.2656 1 3.25 -8.01562 3.25 -15.7031 C3.25 -23.6562 11.8125 -33 19.0625 -33 C25.5781 -33 33.1562 -25 33.1562 -18.125 M27.8594 -20 C27.7969 -23.6562 23.0469 -28 19.125 -28 C14.6875 -28 9.35938 -23.7969 8.95312 -19.9688 L27.8594 -20 " transform="translate(3099.88 189.933)"/>
  <path fill="#000000" d="M20.2188 -15 C13.7969 -15 8.84375 -12.4375 8.84375 -9.34375 C8.84375 -6.89062 12.5625 -4 15.7656 -4 C20.1719 -4 25.5 -9.4375 25.5 -13.9531 L25.5 -15 L20.2188 -15 M30.7969 -17.6406 L30.7969 0 L25.5 0 L25.5 -5 C23.6875 -1.92188 18.2656 1 14.3438 1 C9.39062 1 3.54688 -4.5 3.54688 -9.125 C3.54688 -14.5156 10.8281 -20 18.0625 -20 L25.5 -20 L25.5 -20.4688 C25.5 -24.0625 20.6875 -28 16.3438 -28 C13.5781 -28 8.32812 -26.5 5.90625 -25 L5.90625 -30 C8.8125 -31.5 14.2969 -33 16.875 -33 C23.8906 -33 30.7969 -25.375 30.7969 -17.6406 " transform="translate(3135.97 189.933)"/>
  <path fill="#000000" d="M26.125 -31 L26.125 -26 C23.875 -27 19.0469 -28 16.4531 -28 C12.5 -28 8.5625 -25.7188 8.5625 -23.4375 C8.5625 -21.6875 11.375 -19.7031 15.6406 -18.8125 L17.4531 -18.4219 C23.1094 -17.2031 27.8594 -12.7656 27.8594 -8.79688 C27.8594 -4.28125 20.75 1 14.5156 1 C11.9375 1 6.3125 -0.5 3.20312 -2 L3.20312 -7 C6.14062 -5.5 11.8438 -4 14.6406 -4 C18.375 -4 22.4062 -6.48438 22.4062 -8.75 C22.4062 -10.8594 19.5 -13.0938 14.5781 -14.125 L12.7344 -14.5469 C7.79688 -15.5781 3.42188 -19.8438 3.42188 -23.5625 C3.42188 -28.0781 9.875 -33 15.8125 -33 C18.75 -33 23.9375 -32 26.125 -31 " transform="translate(3171.93 189.933)"/>
  <path fill="#000000" d="M5.01562 -12.6875 L5.01562 -32 L10.3125 -32 L10.3125 -12.8906 C10.3125 -8.4375 13.8906 -4 17.4531 -4 C21.75 -4 26.7344 -9.32812 26.7344 -13.9219 L26.7344 -32 L32.0312 -32 L32.0312 0 L26.7344 0 L26.7344 -5 C24.7969 -1.95312 19.7031 1 16.3281 1 C10.7812 1 5.01562 -5.96875 5.01562 -12.6875 M18.3438 -33 L18.3438 -33 " transform="translate(3202.49 189.933)"/>
  <path fill="#000000" d="M24.25 -28 C23.3594 -28 21.25 -28 19.9844 -28 C15.5 -28 10.6875 -22.2344 10.6875 -16.8438 L10.6875 0 L5.35938 0 L5.35938 -32 L10.6875 -32 L10.6875 -27 C12.3594 -30.0469 17.7188 -33 21.5469 -33 C22.0938 -33 23.4219 -33 24.2188 -33 L24.25 -28 " transform="translate(3239.68 189.933)"/>
  <path fill="#000000" d="M33.1562 -18.125 L33.1562 -15 L8.78125 -15 C9.125 -9.625 15.0312 -4 20.3125 -4 C23.3594 -4 29.0938 -5.5 31.9219 -7 L31.9219 -2 C29.0625 -0.53125 23.0781 1 19.9844 1 C12.2656 1 3.25 -8.01562 3.25 -15.7031 C3.25 -23.6562 11.8125 -33 19.0625 -33 C25.5781 -33 33.1562 -25 33.1562 -18.125 M27.8594 -20 C27.7969 -23.6562 23.0469 -28 19.125 -28 C14.6875 -28 9.35938 -23.7969 8.95312 -19.9688 L27.8594 -20 " transform="translate(3263.8 189.933)"/>
  <path fill="#000000" d="M30.6875 -25.8281 C32.6719 -29.5 38.2031 -33 41.9375 -33 C46.9844 -33 52.4531 -25.875 52.4531 -19.2969 L52.4531 0 L47.125 0 L47.125 -19.125 C47.125 -23.625 43.8438 -28 40.4688 -28 C36.3594 -28 31.5781 -22.6719 31.5781 -18.0625 L31.5781 0 L26.25 0 L26.25 -19.125 C26.25 -23.6562 22.9688 -28 19.5312 -28 C15.4688 -28 10.6875 -22.6406 10.6875 -18.0625 L10.6875 0 L5.35938 0 L5.35938 -32 L10.6875 -32 L10.6875 -27 C12.5 -30.0781 17.5781 -33 21.0625 -33 C24.5781 -33 29.5 -29.3281 30.6875 -25.8281 " transform="translate(3299.9 189.933)"/>
  <path fill="#000000" d="M33.1562 -18.125 L33.1562 -15 L8.78125 -15 C9.125 -9.625 15.0312 -4 20.3125 -4 C23.3594 -4 29.0938 -5.5 31.9219 -7 L31.9219 -2 C29.0625 -0.53125 23.0781 1 19.9844 1 C12.2656 1 3.25 -8.01562 3.25 -15.7031 C3.25 -23.6562 11.8125 -33 19.0625 -33 C25.5781 -33 33.1562 -25 33.1562 -18.125 M27.8594 -20 C27.7969 -23.6562 23.0469 -28 19.125 -28 C14.6875 -28 9.35938 -23.7969 8.95312 -19.9688 L27.8594 -20 " transform="translate(3357.05 189.933)"/>
  <path fill="#000000" d="M32.375 -19.2969 L32.375 0 L27.0781 0 L27.0781 -19.125 C27.0781 -23.5781 23.5 -28 19.9375 -28 C15.6406 -28 10.6875 -22.6719 10.6875 -18.0625 L10.6875 0 L5.35938 0 L5.35938 -32 L10.6875 -32 L10.6875 -27 C12.5938 -30.0156 17.75 -33 21.1094 -33 C26.6719 -33 32.375 -26.0469 32.375 -19.2969 " transform="translate(3393.15 189.933)"/>
  <path fill="#000000" d="M10.7969 -41 L10.7969 -32 L21.7188 -32 L21.7188 -27 L10.7969 -27 L10.7969 -10.75 C10.7969 -7.09375 12.9688 -5 16.2812 -5 L21.7188 -5 L21.7188 0 L16.2812 0 C10.1406 0 5.46875 -4.625 5.46875 -10.75 L5.46875 -27 L1.57812 -27 L1.57812 -32 L5.46875 -32 L5.46875 -41 L10.7969 -41 " transform="translate(3430.33 189.933)"/>
  <path fill="#000000" d="M2572.51 169.433 M2528.51 169.433 a22 22 0 1 0 44 0 a22 22 0 1 0 -44 0 "/>
  <path stroke-width="0.000000" stroke="#000000" fill="none" d="M310.897 1745.4 L3541.33 1745.4 "/>
  <path stroke-width="0.000000" stroke="#000000" fill="none" d="M310.897 1724.07 L310.897 1745.4 "/>
  <path stroke-width="0.000000" stroke="#000000" fill="none" d="M633.941 1724.07 L633.941 1745.4 "/>
  <path stroke-width="0.000000" stroke="#000000" fill="none" d="M956.984 1724.07 L956.984 1745.4 "/>
  <path stroke-width="0.000000" stroke="#000000" fill="none" d="M1280.03 1724.07 L1280.03 1745.4 "/>
  <path stroke-width="0.000000" stroke="#000000" fill="none" d="M1603.07 1724.07 L1603.07 1745.4 "/>
  <path stroke-width="0.000000" stroke="#000000" fill="none" d="M1926.12 1724.07 L1926.12 1745.4 "/>
  <path stroke-width="0.000000" stroke="#000000" fill="none" d="M2249.16 1724.07 L2249.16 1745.4 "/>
  <path stroke-width="0.000000" stroke="#000000" fill="none" d="M2572.2 1724.07 L2572.2 1745.4 "/>
  <path stroke-width="0.000000" stroke="#000000" fill="none" d="M2895.25 1724.07 L2895.25 1745.4 "/>
  <path stroke-width="0.000000" stroke="#000000" fill="none" d="M3218.29 1724.07 L3218.29 1745.4 "/>
  <path stroke-width="0.000000" stroke="#000000" fill="none" d="M3541.33 1724.07 L3541.33 1745.4 "/>
  <path fill="#000000" d="M18.75 -39 C14.25 -39 9.73438 -30.25 9.73438 -21.4844 C9.73438 -12.75 14.25 -4 18.75 -4 C23.2812 -4 27.7969 -12.75 27.7969 -21.4844 C27.7969 -30.25 23.2812 -39 18.75 -39 M18.7656 -44 C25.9844 -44 33.625 -32.4688 33.625 -21.4844 C33.625 -10.5312 25.9844 1 18.7656 1 C11.5312 1 3.89062 -10.5312 3.89062 -21.4844 C3.89062 -32.4688 11.5312 -44 18.7656 -44 " transform="translate(179.147 1847.33)"/>
  <path fill="#000000" d="M6.35938 -43 L29.2188 -43 L29.2188 -38 L11.7031 -38 L11.7031 -27.125 C12.9688 -27.5625 15.5 -28 16.7656 -28 C23.9688 -28 32.375 -20.1719 32.375 -13.5 C32.375 -6.625 23.7344 1 15.875 1 C13.1562 1 7.54688 0 4.54688 -1 L4.54688 -7 C7.14062 -5.48438 12.6719 -4 15.75 -4 C20.7344 -4 26.5625 -9.10938 26.5625 -13.5 C26.5625 -17.8906 20.7344 -23 15.75 -23 C13.4219 -23 8.78125 -22.0312 6.35938 -21 L6.35938 -43 " transform="translate(216.475 1847.33)"/>
  <path fill="#000000" d="M6.92188 -7 L13 -7 L13 0 L6.92188 0 L6.92188 -7 M6.92188 -31 L13 -31 L13 -24 L6.92188 -24 L6.92188 -31 " transform="translate(253.803 1847.33)"/>
  <path fill="#000000" d="M7.3125 -5 L16.8281 -5 L16.8281 -38 L6.48438 -36 L6.48438 -41 L16.7656 -43 L22.5938 -43 L22.5938 -5 L32.0938 -5 L32.0938 0 L7.3125 0 L7.3125 -5 " transform="translate(273.569 1847.33)"/>
  <path fill="#000000" d="M6.35938 -43 L29.2188 -43 L29.2188 -38 L11.7031 -38 L11.7031 -27.125 C12.9688 -27.5625 15.5 -28 16.7656 -28 C23.9688 -28 32.375 -20.1719 32.375 -13.5 C32.375 -6.625 23.7344 1 15.875 1 C13.1562 1 7.54688 0 4.54688 -1 L4.54688 -7 C7.14062 -5.48438 12.6719 -4 15.75 -4 C20.7344 -4 26.5625 -9.10938 26.5625 -13.5 C26.5625 -17.8906 20.7344 -23 15.75 -23 C13.4219 -23 8.78125 -22.0312 6.35938 -21 L6.35938 -43 " transform="translate(310.897 1847.33)"/>
  <path fill="#000000" d="M6.92188 -7 L13 -7 L13 0 L6.92188 0 L6.92188 -7 M6.92188 -31 L13 -31 L13 -24 L6.92188 -24 L6.92188 -31 " transform="translate(348.225 1847.33)"/>
  <path fill="#000000" d="M22.2969 -37.9375 L7.60938 -15 L22.2969 -15 L22.2969 -37.9375 M20.7656 -43 L28.0938 -43 L28.0938 -15 L34.2188 -15 L34.2188 -10 L28.0938 -10 L28.0938 0 L22.2969 0 L22.2969 -10 L2.875 -10 L2.875 -15.6406 L20.7656 -43 " transform="translate(367.991 1847.33)"/>
  <path fill="#000000" d="M22.2969 -37.9375 L7.60938 -15 L22.2969 -15 L22.2969 -37.9375 M20.7656 -43 L28.0938 -43 L28.0938 -15 L34.2188 -15 L34.2188 -10 L28.0938 -10 L28.0938 0 L22.2969 0 L22.2969 -10 L2.875 -10 L2.875 -15.6406 L20.7656 -43 " transform="translate(405.319 1847.33)"/>
  <path fill="#000000" d="M18.75 -39 C14.25 -39 9.73438 -30.25 9.73438 -21.4844 C9.73438 -12.75 14.25 -4 18.75 -4 C23.2812 -4 27.7969 -12.75 27.7969 -21.4844 C27.7969 -30.25 23.2812 -39 18.75 -39 M18.7656 -44 C25.9844 -44 33.625 -32.4688 33.625 -21.4844 C33.625 -10.5312 25.9844 1 18.7656 1 C11.5312 1 3.89062 -10.5312 3.89062 -21.4844 C3.89062 -32.4688 11.5312 -44 18.7656 -44 " transform="translate(502.191 1847.33)"/>
  <path fill="#000000" d="M6.35938 -43 L29.2188 -43 L29.2188 -38 L11.7031 -38 L11.7031 -27.125 C12.9688 -27.5625 15.5 -28 16.7656 -28 C23.9688 -28 32.375 -20.1719 32.375 -13.5 C32.375 -6.625 23.7344 1 15.875 1 C13.1562 1 7.54688 0 4.54688 -1 L4.54688 -7 C7.14062 -5.48438 12.6719 -4 15.75 -4 C20.7344 -4 26.5625 -9.10938 26.5625 -13.5 C26.5625 -17.8906 20.7344 -23 15.75 -23 C13.4219 -23 8.78125 -22.0312 6.35938 -21 L6.35938 -43 " transform="translate(539.519 1847.33)"/>
  <path fill="#000000" d="M6.92188 -7 L13 -7 L13 0 L6.92188 0 L6.92188 -7 M6.92188 -31 L13 -31 L13 -24 L6.92188 -24 L6.92188 -31 " transform="translate(576.847 1847.33)"/>
  <path fill="#000000" d="M6.35938 -43 L29.2188 -43 L29.2188 -38 L11.7031 -38 L11.7031 -27.125 C12.9688 -27.5625 15.5 -28 16.7656 -28 C23.9688 -28 32.375 -20.1719 32.375 -13.5 C32.375 -6.625 23.7344 1 15.875 1 C13.1562 1 7.54688 0 4.54688 -1 L4.54688 -7 C7.14062 -5.48438 12.6719 -4 15.75 -4 C20.7344 -4 26.5625 -9.10938 26.5625 -13.5 C26.5625 -17.8906 20.7344 -23 15.75 -23 C13.4219 -23 8.78125 -22.0312 6.35938 -21 L6.35938 -43 " transform="translate(596.612 1847.33)"/>
  <path fill="#000000" d="M7.3125 -5 L16.8281 -5 L16.8281 -38 L6.48438 -36 L6.48438 -41 L16.7656 -43 L22.5938 -43 L22.5938 -5 L32.0938 -5 L32.0938 0 L7.3125 0 L7.3125 -5 " transform="translate(633.941 1847.33)"/>
  <path fill="#000000" d="M6.92188 -7 L13 -7 L13 0 L6.92188 0 L6.92188 -7 M6.92188 -31 L13 -31 L13 -24 L6.92188 -24 L6.92188 -31 " transform="translate(671.269 1847.33)"/>
  <path fill="#000000" d="M23.9375 -22.7031 C28.1094 -21.8281 32.8125 -16.25 32.8125 -12.1562 C32.8125 -5.875 24.0625 1 15.9844 1 C13.2812 1 7.54688 0 4.5 -1 L4.5 -7 C6.92188 -5.51562 12.6719 -4 15.8125 -4 C21.2812 -4 27.0156 -8.1875 27.0156 -12.1719 C27.0156 -15.8438 21.6875 -20 16.9375 -20 L11.9219 -20 L11.9219 -25 L17.1719 -25 C21.4688 -25 26.0156 -28.5469 26.0156 -31.8906 C26.0156 -35.3281 21.3125 -39 16.9375 -39 C14.5469 -39 9.07812 -38.0312 5.79688 -37 L5.79688 -42 C9.10938 -43 14.9062 -44 17.4688 -44 C24.0938 -44 31.8125 -37.7812 31.8125 -32.4688 C31.8125 -28.7812 27.7188 -23.6875 23.9375 -22.7031 " transform="translate(691.034 1847.33)"/>
  <path fill="#000000" d="M22.2969 -37.9375 L7.60938 -15 L22.2969 -15 L22.2969 -37.9375 M20.7656 -43 L28.0938 -43 L28.0938 -15 L34.2188 -15 L34.2188 -10 L28.0938 -10 L28.0938 0 L22.2969 0 L22.2969 -10 L2.875 -10 L2.875 -15.6406 L20.7656 -43 " transform="translate(728.362 1847.33)"/>
  <path fill="#000000" d="M18.75 -39 C14.25 -39 9.73438 -30.25 9.73438 -21.4844 C9.73438 -12.75 14.25 -4 18.75 -4 C23.2812 -4 27.7969 -12.75 27.7969 -21.4844 C27.7969 -30.25 23.2812 -39 18.75 -39 M18.7656 -44 C25.9844 -44 33.625 -32.4688 33.625 -21.4844 C33.625 -10.5312 25.9844 1 18.7656 1 C11.5312 1 3.89062 -10.5312 3.89062 -21.4844 C3.89062 -32.4688 11.5312 -44 18.7656 -44 " transform="translate(825.234 1847.33)"/>
  <path fill="#000000" d="M19.4688 -24 C15.5469 -24 10.9688 -18.6562 10.9688 -14 C10.9688 -9.375 15.5469 -4 19.4688 -4 C23.3906 -4 27.9688 -9.375 27.9688 -14 C27.9688 -18.6562 23.3906 -24 19.4688 -24 M31.0312 -42 L31.0312 -37 C28.8438 -37.9688 24.375 -39 22.1875 -39 C16.4219 -39 10.3438 -31.25 9.90625 -23.4219 C11.6094 -26.125 16.7344 -29 19.8281 -29 C26.3125 -29 33.8281 -20.9375 33.8281 -14 C33.8281 -7.20312 25.9844 1 19.4844 1 C12.0156 1 4.125 -10.5312 4.125 -21.4844 C4.125 -31.7656 13.7969 -44 21.9531 -44 C24.1406 -44 28.6094 -43 31.0312 -42 " transform="translate(862.562 1847.33)"/>
  <path fill="#000000" d="M6.92188 -7 L13 -7 L13 0 L6.92188 0 L6.92188 -7 M6.92188 -31 L13 -31 L13 -24 L6.92188 -24 L6.92188 -31 " transform="translate(899.89 1847.33)"/>
  <path fill="#000000" d="M11.3281 -5 L31.625 -5 L31.625 0 L4.32812 0 L4.32812 -5 C7.64062 -8.42188 19.0625 -19.9844 20.5312 -21.6562 C23.3281 -24.7969 25.5469 -29.1406 25.5469 -31.25 C25.5469 -34.6719 20.7344 -39 16.875 -39 C14.1406 -39 8.0625 -37.0156 4.60938 -35 L4.60938 -41 C8.125 -42.4844 14.2344 -44 16.7656 -44 C23.4531 -44 31.4062 -37.2969 31.4062 -31.6875 C31.4062 -29.0312 29.4219 -24.2656 26.7969 -21.0312 C26.0781 -20.2031 18.3594 -12.1875 11.3281 -5 " transform="translate(919.656 1847.33)"/>
  <path fill="#000000" d="M4.84375 -43 L32.5 -43 L32.5 -40.5156 L16.875 0 L10.7969 0 L25.5 -38 L4.84375 -38 L4.84375 -43 " transform="translate(956.984 1847.33)"/>
  <path fill="#000000" d="M6.92188 -7 L13 -7 L13 0 L6.92188 0 L6.92188 -7 M6.92188 -31 L13 -31 L13 -24 L6.92188 -24 L6.92188 -31 " transform="translate(994.312 1847.33)"/>
  <path fill="#000000" d="M11.3281 -5 L31.625 -5 L31.625 0 L4.32812 0 L4.32812 -5 C7.64062 -8.42188 19.0625 -19.9844 20.5312 -21.6562 C23.3281 -24.7969 25.5469 -29.1406 25.5469 -31.25 C25.5469 -34.6719 20.7344 -39 16.875 -39 C14.1406 -39 8.0625 -37.0156 4.60938 -35 L4.60938 -41 C8.125 -42.4844 14.2344 -44 16.7656 -44 C23.4531 -44 31.4062 -37.2969 31.4062 -31.6875 C31.4062 -29.0312 29.4219 -24.2656 26.7969 -21.0312 C26.0781 -20.2031 18.3594 -12.1875 11.3281 -5 " transform="translate(1014.08 1847.33)"/>
  <path fill="#000000" d="M22.2969 -37.9375 L7.60938 -15 L22.2969 -15 L22.2969 -37.9375 M20.7656 -43 L28.0938 -43 L28.0938 -15 L34.2188 -15 L34.2188 -10 L28.0938 -10 L28.0938 0 L22.2969 0 L22.2969 -10 L2.875 -10 L2.875 -15.6406 L20.7656 -43 " transform="translate(1051.41 1847.33)"/>
  <path fill="#000000" d="M18.75 -39 C14.25 -39 9.73438 -30.25 9.73438 -21.4844 C9.73438 -12.75 14.25 -4 18.75 -4 C23.2812 -4 27.7969 -12.75 27.7969 -21.4844 C27.7969 -30.25 23.2812 -39 18.75 -39 M18.7656 -44 C25.9844 -44 33.625 -32.4688 33.625 -21.4844 C33.625 -10.5312 25.9844 1 18.7656 1 C11.5312 1 3.89062 -10.5312 3.89062 -21.4844 C3.89062 -32.4688 11.5312 -44 18.7656 -44 " transform="translate(1148.28 1847.33)"/>
  <path fill="#000000" d="M4.84375 -43 L32.5 -43 L32.5 -40.5156 L16.875 0 L10.7969 0 L25.5 -38 L4.84375 -38 L4.84375 -43 " transform="translate(1185.61 1847.33)"/>
  <path fill="#000000" d="M6.92188 -7 L13 -7 L13 0 L6.92188 0 L6.92188 -7 M6.92188 -31 L13 -31 L13 -24 L6.92188 -24 L6.92188 -31 " transform="translate(1222.93 1847.33)"/>
  <path fill="#000000" d="M18.75 -39 C14.25 -39 9.73438 -30.25 9.73438 -21.4844 C9.73438 -12.75 14.25 -4 18.75 -4 C23.2812 -4 27.7969 -12.75 27.7969 -21.4844 C27.7969 -30.25 23.2812 -39 18.75 -39 M18.7656 -44 C25.9844 -44 33.625 -32.4688 33.625 -21.4844 C33.625 -10.5312 25.9844 1 18.7656 1 C11.5312 1 3.89062 -10.5312 3.89062 -21.4844 C3.89062 -32.4688 11.5312 -44 18.7656 -44 " transform="translate(1242.7 1847.33)"/>
  <path fill="#000000" d="M23.9375 -22.7031 C28.1094 -21.8281 32.8125 -16.25 32.8125 -12.1562 C32.8125 -5.875 24.0625 1 15.9844 1 C13.2812 1 7.54688 0 4.5 -1 L4.5 -7 C6.92188 -5.51562 12.6719 -4 15.8125 -4 C21.2812 -4 27.0156 -8.1875 27.0156 -12.1719 C27.0156 -15.8438 21.6875 -20 16.9375 -20 L11.9219 -20 L11.9219 -25 L17.1719 -25 C21.4688 -25 26.0156 -28.5469 26.0156 -31.8906 C26.0156 -35.3281 21.3125 -39 16.9375 -39 C14.5469 -39 9.07812 -38.0312 5.79688 -37 L5.79688 -42 C9.10938 -43 14.9062 -44 17.4688 -44 C24.0938 -44 31.8125 -37.7812 31.8125 -32.4688 C31.8125 -28.7812 27.7188 -23.6875 23.9375 -22.7031 " transform="translate(1280.03 1847.33)"/>
  <path fill="#000000" d="M6.92188 -7 L13 -7 L13 0 L6.92188 0 L6.92188 -7 M6.92188 -31 L13 -31 L13 -24 L6.92188 -24 L6.92188 -31 " transform="translate(1317.36 1847.33)"/>
  <path fill="#000000" d="M7.3125 -5 L16.8281 -5 L16.8281 -38 L6.48438 -36 L6.48438 -41 L16.7656 -43 L22.5938 -43 L22.5938 -5 L32.0938 -5 L32.0938 0 L7.3125 0 L7.3125 -5 " transform="translate(1337.12 1847.33)"/>
  <path fill="#000000" d="M6.35938 -43 L29.2188 -43 L29.2188 -38 L11.7031 -38 L11.7031 -27.125 C12.9688 -27.5625 15.5 -28 16.7656 -28 C23.9688 -28 32.375 -20.1719 32.375 -13.5 C32.375 -6.625 23.7344 1 15.875 1 C13.1562 1 7.54688 0 4.54688 -1 L4.54688 -7 C7.14062 -5.48438 12.6719 -4 15.75 -4 C20.7344 -4 26.5625 -9.10938 26.5625 -13.5 C26.5625 -17.8906 20.7344 -23 15.75 -23 C13.4219 -23 8.78125 -22.0312 6.35938 -21 L6.35938 -43 " transform="translate(1374.45 1847.33)"/>
  <path fill="#000000" d="M18.75 -39 C14.25 -39 9.73438 -30.25 9.73438 -21.4844 C9.73438 -12.75 14.25 -4 18.75 -4 C23.2812 -4 27.7969 -12.75 27.7969 -21.4844 C27.7969 -30.25 23.2812 -39 18.75 -39 M18.7656 -44 C25.9844 -44 33.625 -32.4688 33.625 -21.4844 C33.625 -10.5312 25.9844 1 18.7656 1 C11.5312 1 3.89062 -10.5312 3.89062 -21.4844 C3.89062 -32.4688 11.5312 -44 18.7656 -44 " transform="translate(1471.32 1847.33)"/>
  <path fill="#000000" d="M4.84375 -43 L32.5 -43 L32.5 -40.5156 L16.875 0 L10.7969 0 L25.5 -38 L4.84375 -38 L4.84375 -43 " transform="translate(1508.65 1847.33)"/>
  <path fill="#000000" d="M6.92188 -7 L13 -7 L13 0 L6.92188 0 L6.92188 -7 M6.92188 -31 L13 -31 L13 -24 L6.92188 -24 L6.92188 -31 " transform="translate(1545.98 1847.33)"/>
  <path fill="#000000" d="M23.9375 -22.7031 C28.1094 -21.8281 32.8125 -16.25 32.8125 -12.1562 C32.8125 -5.875 24.0625 1 15.9844 1 C13.2812 1 7.54688 0 4.5 -1 L4.5 -7 C6.92188 -5.51562 12.6719 -4 15.8125 -4 C21.2812 -4 27.0156 -8.1875 27.0156 -12.1719 C27.0156 -15.8438 21.6875 -20 16.9375 -20 L11.9219 -20 L11.9219 -25 L17.1719 -25 C21.4688 -25 26.0156 -28.5469 26.0156 -31.8906 C26.0156 -35.3281 21.3125 -39 16.9375 -39 C14.5469 -39 9.07812 -38.0312 5.79688 -37 L5.79688 -42 C9.10938 -43 14.9062 -44 17.4688 -44 C24.0938 -44 31.8125 -37.7812 31.8125 -32.4688 C31.8125 -28.7812 27.7188 -23.6875 23.9375 -22.7031 " transform="translate(1565.74 1847.33)"/>
  <path fill="#000000" d="M6.48438 -1 L6.48438 -6 C8.67188 -5.03125 13.1719 -4 15.3281 -4 C21.0781 -4 27.1562 -12.2031 27.5938 -20.5469 C25.9219 -17.8594 20.7969 -15 17.6875 -15 C11.2344 -15 3.71875 -22.75 3.71875 -29.4688 C3.71875 -36.0469 11.5469 -44 18.0625 -44 C25.5312 -44 33.3906 -32.4688 33.3906 -21.4844 C33.3906 -11.2344 23.7344 1 15.5938 1 C13.3906 1 8.90625 0 6.48438 -1 M18.0625 -20 C21.9844 -20 26.5625 -25.0781 26.5625 -29.5 C26.5625 -33.8906 21.9844 -39 18.0625 -39 C14.1406 -39 9.5625 -33.8906 9.5625 -29.5 C9.5625 -25.0781 14.1406 -20 18.0625 -20 " transform="translate(1603.07 1847.33)"/>
  <path fill="#000000" d="M6.92188 -7 L13 -7 L13 0 L6.92188 0 L6.92188 -7 M6.92188 -31 L13 -31 L13 -24 L6.92188 -24 L6.92188 -31 " transform="translate(1640.4 1847.33)"/>
  <path fill="#000000" d="M18.75 -39 C14.25 -39 9.73438 -30.25 9.73438 -21.4844 C9.73438 -12.75 14.25 -4 18.75 -4 C23.2812 -4 27.7969 -12.75 27.7969 -21.4844 C27.7969 -30.25 23.2812 -39 18.75 -39 M18.7656 -44 C25.9844 -44 33.625 -32.4688 33.625 -21.4844 C33.625 -10.5312 25.9844 1 18.7656 1 C11.5312 1 3.89062 -10.5312 3.89062 -21.4844 C3.89062 -32.4688 11.5312 -44 18.7656 -44 " transform="translate(1660.17 1847.33)"/>
  <path fill="#000000" d="M6.35938 -43 L29.2188 -43 L29.2188 -38 L11.7031 -38 L11.7031 -27.125 C12.9688 -27.5625 15.5 -28 16.7656 -28 C23.9688 -28 32.375 -20.1719 32.375 -13.5 C32.375 -6.625 23.7344 1 15.875 1 C13.1562 1 7.54688 0 4.54688 -1 L4.54688 -7 C7.14062 -5.48438 12.6719 -4 15.75 -4 C20.7344 -4 26.5625 -9.10938 26.5625 -13.5 C26.5625 -17.8906 20.7344 -23 15.75 -23 C13.4219 -23 8.78125 -22.0312 6.35938 -21 L6.35938 -43 " transform="translate(1697.49 1847.33)"/>
  <path fill="#000000" d="M18.75 -39 C14.25 -39 9.73438 -30.25 9.73438 -21.4844 C9.73438 -12.75 14.25 -4 18.75 -4 C23.2812 -4 27.7969 -12.75 27.7969 -21.4844 C27.7969 -30.25 23.2812 -39 18.75 -39 M18.7656 -44 C25.9844 -44 33.625 -32.4688 33.625 -21.4844 C33.625 -10.5312 25.9844 1 18.7656 1 C11.5312 1 3.89062 -10.5312 3.89062 -21.4844 C3.89062 -32.4688 11.5312 -44 18.7656 -44 " transform="translate(1794.37 1847.33)"/>
  <path fill="#000000" d="M18.7656 -20 C14.6094 -20 9.85938 -15.7344 9.85938 -12 C9.85938 -8.26562 14.6094 -4 18.7656 -4 C22.9062 -4 27.6875 -8.29688 27.6875 -12 C27.6875 -15.7344 22.9375 -20 18.7656 -20 M12.9375 -22.7031 C9.1875 -23.6406 5.01562 -28.875 5.01562 -32.625 C5.01562 -37.8906 12.3594 -44 18.75 -44 C25.1875 -44 32.5 -37.8906 32.5 -32.625 C32.5 -28.875 28.3281 -23.6406 24.6094 -22.7031 C28.8125 -21.7188 33.5 -16.0312 33.5 -11.9219 C33.5 -5.67188 25.8594 1 18.75 1 C11.6406 1 4 -5.67188 4 -11.9219 C4 -16.0312 8.73438 -21.7188 12.9375 -22.7031 M10.7969 -32 C10.7969 -28.7031 14.9688 -25 18.75 -25 C22.5 -25 26.7344 -28.7031 26.7344 -32 C26.7344 -35.2969 22.5 -39 18.75 -39 C14.9688 -39 10.7969 -35.2969 10.7969 -32 " transform="translate(1831.69 1847.33)"/>
  <path fill="#000000" d="M6.92188 -7 L13 -7 L13 0 L6.92188 0 L6.92188 -7 M6.92188 -31 L13 -31 L13 -24 L6.92188 -24 L6.92188 -31 " transform="translate(1869.02 1847.33)"/>
  <path fill="#000000" d="M7.3125 -5 L16.8281 -5 L16.8281 -38 L6.48438 -36 L6.48438 -41 L16.7656 -43 L22.5938 -43 L22.5938 -5 L32.0938 -5 L32.0938 0 L7.3125 0 L7.3125 -5 " transform="translate(1888.79 1847.33)"/>
  <path fill="#000000" d="M22.2969 -37.9375 L7.60938 -15 L22.2969 -15 L22.2969 -37.9375 M20.7656 -43 L28.0938 -43 L28.0938 -15 L34.2188 -15 L34.2188 -10 L28.0938 -10 L28.0938 0 L22.2969 0 L22.2969 -10 L2.875 -10 L2.875 -15.6406 L20.7656 -43 " transform="translate(1926.12 1847.33)"/>
  <path fill="#000000" d="M6.92188 -7 L13 -7 L13 0 L6.92188 0 L6.92188 -7 M6.92188 -31 L13 -31 L13 -24 L6.92188 -24 L6.92188 -31 " transform="translate(1963.44 1847.33)"/>
  <path fill="#000000" d="M6.35938 -43 L29.2188 -43 L29.2188 -38 L11.7031 -38 L11.7031 -27.125 C12.9688 -27.5625 15.5 -28 16.7656 -28 C23.9688 -28 32.375 -20.1719 32.375 -13.5 C32.375 -6.625 23.7344 1 15.875 1 C13.1562 1 7.54688 0 4.54688 -1 L4.54688 -7 C7.14062 -5.48438 12.6719 -4 15.75 -4 C20.7344 -4 26.5625 -9.10938 26.5625 -13.5 C26.5625 -17.8906 20.7344 -23 15.75 -23 C13.4219 -23 8.78125 -22.0312 6.35938 -21 L6.35938 -43 " transform="translate(1983.21 1847.33)"/>
  <path fill="#000000" d="M19.4688 -24 C15.5469 -24 10.9688 -18.6562 10.9688 -14 C10.9688 -9.375 15.5469 -4 19.4688 -4 C23.3906 -4 27.9688 -9.375 27.9688 -14 C27.9688 -18.6562 23.3906 -24 19.4688 -24 M31.0312 -42 L31.0312 -37 C28.8438 -37.9688 24.375 -39 22.1875 -39 C16.4219 -39 10.3438 -31.25 9.90625 -23.4219 C11.6094 -26.125 16.7344 -29 19.8281 -29 C26.3125 -29 33.8281 -20.9375 33.8281 -14 C33.8281 -7.20312 25.9844 1 19.4844 1 C12.0156 1 4.125 -10.5312 4.125 -21.4844 C4.125 -31.7656 13.7969 -44 21.9531 -44 C24.1406 -44 28.6094 -43 31.0312 -42 " transform="translate(2020.54 1847.33)"/>
  <path fill="#000000" d="M18.75 -39 C14.25 -39 9.73438 -30.25 9.73438 -21.4844 C9.73438 -12.75 14.25 -4 18.75 -4 C23.2812 -4 27.7969 -12.75 27.7969 -21.4844 C27.7969 -30.25 23.2812 -39 18.75 -39 M18.7656 -44 C25.9844 -44 33.625 -32.4688 33.625 -21.4844 C33.625 -10.5312 25.9844 1 18.7656 1 C11.5312 1 3.89062 -10.5312 3.89062 -21.4844 C3.89062 -32.4688 11.5312 -44 18.7656 -44 " transform="translate(2117.41 1847.33)"/>
  <path fill="#000000" d="M18.7656 -20 C14.6094 -20 9.85938 -15.7344 9.85938 -12 C9.85938 -8.26562 14.6094 -4 18.7656 -4 C22.9062 -4 27.6875 -8.29688 27.6875 -12 C27.6875 -15.7344 22.9375 -20 18.7656 -20 M12.9375 -22.7031 C9.1875 -23.6406 5.01562 -28.875 5.01562 -32.625 C5.01562 -37.8906 12.3594 -44 18.75 -44 C25.1875 -44 32.5 -37.8906 32.5 -32.625 C32.5 -28.875 28.3281 -23.6406 24.6094 -22.7031 C28.8125 -21.7188 33.5 -16.0312 33.5 -11.9219 C33.5 -5.67188 25.8594 1 18.75 1 C11.6406 1 4 -5.67188 4 -11.9219 C4 -16.0312 8.73438 -21.7188 12.9375 -22.7031 M10.7969 -32 C10.7969 -28.7031 14.9688 -25 18.75 -25 C22.5 -25 26.7344 -28.7031 26.7344 -32 C26.7344 -35.2969 22.5 -39 18.75 -39 C14.9688 -39 10.7969 -35.2969 10.7969 -32 " transform="translate(2154.74 1847.33)"/>
  <path fill="#000000" d="M6.92188 -7 L13 -7 L13 0 L6.92188 0 L6.92188 -7 M6.92188 -31 L13 -31 L13 -24 L6.92188 -24 L6.92188 -31 " transform="translate(2192.07 1847.33)"/>
  <path fill="#000000" d="M6.35938 -43 L29.2188 -43 L29.2188 -38 L11.7031 -38 L11.7031 -27.125 C12.9688 -27.5625 15.5 -28 16.7656 -28 C23.9688 -28 32.375 -20.1719 32.375 -13.5 C32.375 -6.625 23.7344 1 15.875 1 C13.1562 1 7.54688 0 4.54688 -1 L4.54688 -7 C7.14062 -5.48438 12.6719 -4 15.75 -4 C20.7344 -4 26.5625 -9.10938 26.5625 -13.5 C26.5625 -17.8906 20.7344 -23 15.75 -23 C13.4219 -23 8.78125 -22.0312 6.35938 -21 L6.35938 -43 " transform="translate(2211.83 1847.33)"/>
  <path fill="#000000" d="M18.75 -39 C14.25 -39 9.73438 -30.25 9.73438 -21.4844 C9.73438 -12.75 14.25 -4 18.75 -4 C23.2812 -4 27.7969 -12.75 27.7969 -21.4844 C27.7969 -30.25 23.2812 -39 18.75 -39 M18.7656 -44 C25.9844 -44 33.625 -32.4688 33.625 -21.4844 C33.625 -10.5312 25.9844 1 18.7656 1 C11.5312 1 3.89062 -10.5312 3.89062 -21.4844 C3.89062 -32.4688 11.5312 -44 18.7656 -44 " transform="translate(2249.16 1847.33)"/>
  <path fill="#000000" d="M6.92188 -7 L13 -7 L13 0 L6.92188 0 L6.92188 -7 M6.92188 -31 L13 -31 L13 -24 L6.92188 -24 L6.92188 -31 " transform="translate(2286.49 1847.33)"/>
  <path fill="#000000" d="M22.2969 -37.9375 L7.60938 -15 L22.2969 -15 L22.2969 -37.9375 M20.7656 -43 L28.0938 -43 L28.0938 -15 L34.2188 -15 L34.2188 -10 L28.0938 -10 L28.0938 0 L22.2969 0 L22.2969 -10 L2.875 -10 L2.875 -15.6406 L20.7656 -43 " transform="translate(2306.25 1847.33)"/>
  <path fill="#000000" d="M19.4688 -24 C15.5469 -24 10.9688 -18.6562 10.9688 -14 C10.9688 -9.375 15.5469 -4 19.4688 -4 C23.3906 -4 27.9688 -9.375 27.9688 -14 C27.9688 -18.6562 23.3906 -24 19.4688 -24 M31.0312 -42 L31.0312 -37 C28.8438 -37.9688 24.375 -39 22.1875 -39 C16.4219 -39 10.3438 -31.25 9.90625 -23.4219 C11.6094 -26.125 16.7344 -29 19.8281 -29 C26.3125 -29 33.8281 -20.9375 33.8281 -14 C33.8281 -7.20312 25.9844 1 19.4844 1 C12.0156 1 4.125 -10.5312 4.125 -21.4844 C4.125 -31.7656 13.7969 -44 21.9531 -44 C24.1406 -44 28.6094 -43 31.0312 -42 " transform="translate(2343.58 1847.33)"/>
  <path fill="#000000" d="M18.75 -39 C14.25 -39 9.73438 -30.25 9.73438 -21.4844 C9.73438 -12.75 14.25 -4 18.75 -4 C23.2812 -4 27.7969 -12.75 27.7969 -21.4844 C27.7969 -30.25 23.2812 -39 18.75 -39 M18.7656 -44 C25.9844 -44 33.625 -32.4688 33.625 -21.4844 C33.625 -10.5312 25.9844 1 18.7656 1 C11.5312 1 3.89062 -10.5312 3.89062 -21.4844 C3.89062 -32.4688 11.5312 -44 18.7656 -44 " transform="translate(2440.45 1847.33)"/>
  <path fill="#000000" d="M6.48438 -1 L6.48438 -6 C8.67188 -5.03125 13.1719 -4 15.3281 -4 C21.0781 -4 27.1562 -12.2031 27.5938 -20.5469 C25.9219 -17.8594 20.7969 -15 17.6875 -15 C11.2344 -15 3.71875 -22.75 3.71875 -29.4688 C3.71875 -36.0469 11.5469 -44 18.0625 -44 C25.5312 -44 33.3906 -32.4688 33.3906 -21.4844 C33.3906 -11.2344 23.7344 1 15.5938 1 C13.3906 1 8.90625 0 6.48438 -1 M18.0625 -20 C21.9844 -20 26.5625 -25.0781 26.5625 -29.5 C26.5625 -33.8906 21.9844 -39 18.0625 -39 C14.1406 -39 9.5625 -33.8906 9.5625 -29.5 C9.5625 -25.0781 14.1406 -20 18.0625 -20 " transform="translate(2477.78 1847.33)"/>
  <path fill="#000000" d="M6.92188 -7 L13 -7 L13 0 L6.92188 0 L6.92188 -7 M6.92188 -31 L13 -31 L13 -24 L6.92188 -24 L6.92188 -31 " transform="translate(2515.11 1847.33)"/>
  <path fill="#000000" d="M11.3281 -5 L31.625 -5 L31.625 0 L4.32812 0 L4.32812 -5 C7.64062 -8.42188 19.0625 -19.9844 20.5312 -21.6562 C23.3281 -24.7969 25.5469 -29.1406 25.5469 -31.25 C25.5469 -34.6719 20.7344 -39 16.875 -39 C14.1406 -39 8.0625 -37.0156 4.60938 -35 L4.60938 -41 C8.125 -42.4844 14.2344 -44 16.7656 -44 C23.4531 -44 31.4062 -37.2969 31.4062 -31.6875 C31.4062 -29.0312 29.4219 -24.2656 26.7969 -21.0312 C26.0781 -20.2031 18.3594 -12.1875 11.3281 -5 " transform="translate(2534.87 1847.33)"/>
  <path fill="#000000" d="M19.4688 -24 C15.5469 -24 10.9688 -18.6562 10.9688 -14 C10.9688 -9.375 15.5469 -4 19.4688 -4 C23.3906 -4 27.9688 -9.375 27.9688 -14 C27.9688 -18.6562 23.3906 -24 19.4688 -24 M31.0312 -42 L31.0312 -37 C28.8438 -37.9688 24.375 -39 22.1875 -39 C16.4219 -39 10.3438 -31.25 9.90625 -23.4219 C11.6094 -26.125 16.7344 -29 19.8281 -29 C26.3125 -29 33.8281 -20.9375 33.8281 -14 C33.8281 -7.20312 25.9844 1 19.4844 1 C12.0156 1 4.125 -10.5312 4.125 -21.4844 C4.125 -31.7656 13.7969 -44 21.9531 -44 C24.1406 -44 28.6094 -43 31.0312 -42 " transform="translate(2572.2 1847.33)"/>
  <path fill="#000000" d="M6.92188 -7 L13 -7 L13 0 L6.92188 0 L6.92188 -7 M6.92188 -31 L13 -31 L13 -24 L6.92188 -24 L6.92188 -31 " transform="translate(2609.53 1847.33)"/>
  <path fill="#000000" d="M23.9375 -22.7031 C28.1094 -21.8281 32.8125 -16.25 32.8125 -12.1562 C32.8125 -5.875 24.0625 1 15.9844 1 C13.2812 1 7.54688 0 4.5 -1 L4.5 -7 C6.92188 -5.51562 12.6719 -4 15.8125 -4 C21.2812 -4 27.0156 -8.1875 27.0156 -12.1719 C27.0156 -15.8438 21.6875 -20 16.9375 -20 L11.9219 -20 L11.9219 -25 L17.1719 -25 C21.4688 -25 26.0156 -28.5469 26.0156 -31.8906 C26.0156 -35.3281 21.3125 -39 16.9375 -39 C14.5469 -39 9.07812 -38.0312 5.79688 -37 L5.79688 -42 C9.10938 -43 14.9062 -44 17.4688 -44 C24.0938 -44 31.8125 -37.7812 31.8125 -32.4688 C31.8125 -28.7812 27.7188 -23.6875 23.9375 -22.7031 " transform="translate(2629.3 1847.33)"/>
  <path fill="#000000" d="M19.4688 -24 C15.5469 -24 10.9688 -18.6562 10.9688 -14 C10.9688 -9.375 15.5469 -4 19.4688 -4 C23.3906 -4 27.9688 -9.375 27.9688 -14 C27.9688 -18.6562 23.3906 -24 19.4688 -24 M31.0312 -42 L31.0312 -37 C28.8438 -37.9688 24.375 -39 22.1875 -39 C16.4219 -39 10.3438 -31.25 9.90625 -23.4219 C11.6094 -26.125 16.7344 -29 19.8281 -29 C26.3125 -29 33.8281 -20.9375 33.8281 -14 C33.8281 -7.20312 25.9844 1 19.4844 1 C12.0156 1 4.125 -10.5312 4.125 -21.4844 C4.125 -31.7656 13.7969 -44 21.9531 -44 C24.1406 -44 28.6094 -43 31.0312 -42 " transform="translate(2666.62 1847.33)"/>
  <path fill="#000000" d="M7.3125 -5 L16.8281 -5 L16.8281 -38 L6.48438 -36 L6.48438 -41 L16.7656 -43 L22.5938 -43 L22.5938 -5 L32.0938 -5 L32.0938 0 L7.3125 0 L7.3125 -5 " transform="translate(2763.5 1847.33)"/>
  <path fill="#000000" d="M18.75 -39 C14.25 -39 9.73438 -30.25 9.73438 -21.4844 C9.73438 -12.75 14.25 -4 18.75 -4 C23.2812 -4 27.7969 -12.75 27.7969 -21.4844 C27.7969 -30.25 23.2812 -39 18.75 -39 M18.7656 -44 C25.9844 -44 33.625 -32.4688 33.625 -21.4844 C33.625 -10.5312 25.9844 1 18.7656 1 C11.5312 1 3.89062 -10.5312 3.89062 -21.4844 C3.89062 -32.4688 11.5312 -44 18.7656 -44 " transform="translate(2800.82 1847.33)"/>
  <path fill="#000000" d="M6.92188 -7 L13 -7 L13 0 L6.92188 0 L6.92188 -7 M6.92188 -31 L13 -31 L13 -24 L6.92188 -24 L6.92188 -31 " transform="translate(2838.15 1847.33)"/>
  <path fill="#000000" d="M18.75 -39 C14.25 -39 9.73438 -30.25 9.73438 -21.4844 C9.73438 -12.75 14.25 -4 18.75 -4 C23.2812 -4 27.7969 -12.75 27.7969 -21.4844 C27.7969 -30.25 23.2812 -39 18.75 -39 M18.7656 -44 C25.9844 -44 33.625 -32.4688 33.625 -21.4844 C33.625 -10.5312 25.9844 1 18.7656 1 C11.5312 1 3.89062 -10.5312 3.89062 -21.4844 C3.89062 -32.4688 11.5312 -44 18.7656 -44 " transform="translate(2857.92 1847.33)"/>
  <path fill="#000000" d="M11.3281 -5 L31.625 -5 L31.625 0 L4.32812 0 L4.32812 -5 C7.64062 -8.42188 19.0625 -19.9844 20.5312 -21.6562 C23.3281 -24.7969 25.5469 -29.1406 25.5469 -31.25 C25.5469 -34.6719 20.7344 -39 16.875 -39 C14.1406 -39 8.0625 -37.0156 4.60938 -35 L4.60938 -41 C8.125 -42.4844 14.2344 -44 16.7656 -44 C23.4531 -44 31.4062 -37.2969 31.4062 -31.6875 C31.4062 -29.0312 29.4219 -24.2656 26.7969 -21.0312 C26.0781 -20.2031 18.3594 -12.1875 11.3281 -5 " transform="translate(2895.25 1847.33)"/>
  <path fill="#000000" d="M6.92188 -7 L13 -7 L13 0 L6.92188 0 L6.92188 -7 M6.92188 -31 L13 -31 L13 -24 L6.92188 -24 L6.92188 -31 " transform="translate(2932.57 1847.33)"/>
  <path fill="#000000" d="M11.3281 -5 L31.625 -5 L31.625 0 L4.32812 0 L4.32812 -5 C7.64062 -8.42188 19.0625 -19.9844 20.5312 -21.6562 C23.3281 -24.7969 25.5469 -29.1406 25.5469 -31.25 C25.5469 -34.6719 20.7344 -39 16.875 -39 C14.1406 -39 8.0625 -37.0156 4.60938 -35 L4.60938 -41 C8.125 -42.4844 14.2344 -44 16.7656 -44 C23.4531 -44 31.4062 -37.2969 31.4062 -31.6875 C31.4062 -29.0312 29.4219 -24.2656 26.7969 -21.0312 C26.0781 -20.2031 18.3594 -12.1875 11.3281 -5 " transform="translate(2952.34 1847.33)"/>
  <path fill="#000000" d="M4.84375 -43 L32.5 -43 L32.5 -40.5156 L16.875 0 L10.7969 0 L25.5 -38 L4.84375 -38 L4.84375 -43 " transform="translate(2989.67 1847.33)"/>
  <path fill="#000000" d="M7.3125 -5 L16.8281 -5 L16.8281 -38 L6.48438 -36 L6.48438 -41 L16.7656 -43 L22.5938 -43 L22.5938 -5 L32.0938 -5 L32.0938 0 L7.3125 0 L7.3125 -5 " transform="translate(3086.54 1847.33)"/>
  <path fill="#000000" d="M18.75 -39 C14.25 -39 9.73438 -30.25 9.73438 -21.4844 C9.73438 -12.75 14.25 -4 18.75 -4 C23.2812 -4 27.7969 -12.75 27.7969 -21.4844 C27.7969 -30.25 23.2812 -39 18.75 -39 M18.7656 -44 C25.9844 -44 33.625 -32.4688 33.625 -21.4844 C33.625 -10.5312 25.9844 1 18.7656 1 C11.5312 1 3.89062 -10.5312 3.89062 -21.4844 C3.89062 -32.4688 11.5312 -44 18.7656 -44 " transform="translate(3123.87 1847.33)"/>
  <path fill="#000000" d="M6.92188 -7 L13 -7 L13 0 L6.92188 0 L6.92188 -7 M6.92188 -31 L13 -31 L13 -24 L6.92188 -24 L6.92188 -31 " transform="translate(3161.2 1847.33)"/>
  <path fill="#000000" d="M23.9375 -22.7031 C28.1094 -21.8281 32.8125 -16.25 32.8125 -12.1562 C32.8125 -5.875 24.0625 1 15.9844 1 C13.2812 1 7.54688 0 4.5 -1 L4.5 -7 C6.92188 -5.51562 12.6719 -4 15.8125 -4 C21.2812 -4 27.0156 -8.1875 27.0156 -12.1719 C27.0156 -15.8438 21.6875 -20 16.9375 -20 L11.9219 -20 L11.9219 -25 L17.1719 -25 C21.4688 -25 26.0156 -28.5469 26.0156 -31.8906 C26.0156 -35.3281 21.3125 -39 16.9375 -39 C14.5469 -39 9.07812 -38.0312 5.79688 -37 L5.79688 -42 C9.10938 -43 14.9062 -44 17.4688 -44 C24.0938 -44 31.8125 -37.7812 31.8125 -32.4688 C31.8125 -28.7812 27.7188 -23.6875 23.9375 -22.7031 " transform="translate(3180.96 1847.33)"/>
  <path fill="#000000" d="M18.7656 -20 C14.6094 -20 9.85938 -15.7344 9.85938 -12 C9.85938 -8.26562 14.6094 -4 18.7656 -4 C22.9062 -4 27.6875 -8.29688 27.6875 -12 C27.6875 -15.7344 22.9375 -20 18.7656 -20 M12.9375 -22.7031 C9.1875 -23.6406 5.01562 -28.875 5.01562 -32.625 C5.01562 -37.8906 12.3594 -44 18.75 -44 C25.1875 -44 32.5 -37.8906 32.5 -32.625 C32.5 -28.875 28.3281 -23.6406 24.6094 -22.7031 C28.8125 -21.7188 33.5 -16.0312 33.5 -11.9219 C33.5 -5.67188 25.8594 1 18.75 1 C11.6406 1 4 -5.67188 4 -11.9219 C4 -16.0312 8.73438 -21.7188 12.9375 -22.7031 M10.7969 -32 C10.7969 -28.7031 14.9688 -25 18.75 -25 C22.5 -25 26.7344 -28.7031 26.7344 -32 C26.7344 -35.2969 22.5 -39 18.75 -39 C14.9688 -39 10.7969 -35.2969 10.7969 -32 " transform="translate(3218.29 1847.33)"/>
  <path fill="#000000" d="M6.92188 -7 L13 -7 L13 0 L6.92188 0 L6.92188 -7 M6.92188 -31 L13 -31 L13 -24 L6.92188 -24 L6.92188 -31 " transform="translate(3255.62 1847.33)"/>
  <path fill="#000000" d="M7.3125 -5 L16.8281 -5 L16.8281 -38 L6.48438 -36 L6.48438 -41 L16.7656 -43 L22.5938 -43 L22.5938 -5 L32.0938 -5 L32.0938 0 L7.3125 0 L7.3125 -5 " transform="translate(3275.38 1847.33)"/>
  <path fill="#000000" d="M4.84375 -43 L32.5 -43 L32.5 -40.5156 L16.875 0 L10.7969 0 L25.5 -38 L4.84375 -38 L4.84375 -43 " transform="translate(3312.71 1847.33)"/>
  <path fill="#000000" d="M7.3125 -5 L16.8281 -5 L16.8281 -38 L6.48438 -36 L6.48438 -41 L16.7656 -43 L22.5938 -43 L22.5938 -5 L32.0938 -5 L32.0938 0 L7.3125 0 L7.3125 -5 " transform="translate(3409.58 1847.33)"/>
  <path fill="#000000" d="M7.3125 -5 L16.8281 -5 L16.8281 -38 L6.48438 -36 L6.48438 -41 L16.7656 -43 L22.5938 -43 L22.5938 -5 L32.0938 -5 L32.0938 0 L7.3125 0 L7.3125 -5 " transform="translate(3446.91 1847.33)"/>
  <path fill="#000000" d="M6.92188 -7 L13 -7 L13 0 L6.92188 0 L6.92188 -7 M6.92188 -31 L13 -31 L13 -24 L6.92188 -24 L6.92188 -31 " transform="translate(3484.24 1847.33)"/>
  <path fill="#000000" d="M7.3125 -5 L16.8281 -5 L16.8281 -38 L6.48438 -36 L6.48438 -41 L16.7656 -43 L22.5938 -43 L22.5938 -5 L32.0938 -5 L32.0938 0 L7.3125 0 L7.3125 -5 " transform="translate(3504.01 1847.33)"/>
  <path fill="#000000" d="M22.2969 -37.9375 L7.60938 -15 L22.2969 -15 L22.2969 -37.9375 M20.7656 -43 L28.0938 -43 L28.0938 -15 L34.2188 -15 L34.2188 -10 L28.0938 -10 L28.0938 0 L22.2969 0 L22.2969 -10 L2.875 -10 L2.875 -15.6406 L20.7656 -43 " transform="translate(3541.33 1847.33)"/>
  <path fill="#000000" d="M6.92188 -7 L13 -7 L13 0 L6.92188 0 L6.92188 -7 M6.92188 -31 L13 -31 L13 -24 L6.92188 -24 L6.92188 -31 " transform="translate(3578.66 1847.33)"/>
  <path fill="#000000" d="M18.75 -39 C14.25 -39 9.73438 -30.25 9.73438 -21.4844 C9.73438 -12.75 14.25 -4 18.75 -4 C23.2812 -4 27.7969 -12.75 27.7969 -21.4844 C27.7969 -30.25 23.2812 -39 18.75 -39 M18.7656 -44 C25.9844 -44 33.625 -32.4688 33.625 -21.4844 C33.625 -10.5312 25.9844 1 18.7656 1 C11.5312 1 3.89062 -10.5312 3.89062 -21.4844 C3.89062 -32.4688 11.5312 -44 18.7656 -44 " transform="translate(3598.43 1847.33)"/>
  <path fill="#000000" d="M18.7656 -20 C14.6094 -20 9.85938 -15.7344 9.85938 -12 C9.85938 -8.26562 14.6094 -4 18.7656 -4 C22.9062 -4 27.6875 -8.29688 27.6875 -12 C27.6875 -15.7344 22.9375 -20 18.7656 -20 M12.9375 -22.7031 C9.1875 -23.6406 5.01562 -28.875 5.01562 -32.625 C5.01562 -37.8906 12.3594 -44 18.75 -44 C25.1875 -44 32.5 -37.8906 32.5 -32.625 C32.5 -28.875 28.3281 -23.6406 24.6094 -22.7031 C28.8125 -21.7188 33.5 -16.0312 33.5 -11.9219 C33.5 -5.67188 25.8594 1 18.75 1 C11.6406 1 4 -5.67188 4 -11.9219 C4 -16.0312 8.73438 -21.7188 12.9375 -22.7031 M10.7969 -32 C10.7969 -28.7031 14.9688 -25 18.75 -25 C22.5 -25 26.7344 -28.7031 26.7344 -32 C26.7344 -35.2969 22.5 -39 18.75 -39 C14.9688 -39 10.7969 -35.2969 10.7969 -32 " transform="translate(3635.76 1847.33)"/>
  <path stroke-width="0.000000" stroke="#000000" fill="none" d="M310.897 58.6667 L310.897 1745.4 "/>
  <path stroke-width="0.000000" stroke="#000000" fill="none" d="M310.897 1745.4 L332.23 1745.4 "/>
  <path stroke-width="0.000000" stroke="#000000" fill="none" d="M310.897 1576.73 L332.23 1576.73 "/>
  <path stroke-width="0.000000" stroke="#000000" fill="none" d="M310.897 1408.05 L332.23 1408.05 "/>
  <path stroke-width="0.000000" stroke="#000000" fill="none" d="M310.897 1239.38 L332.23 1239.38 "/>
  <path stroke-width="0.000000" stroke="#000000" fill="none" d="M310.897 1070.71 L332.23 1070.71 "/>
  <path stroke-width="0.000000" stroke="#000000" fill="none" d="M310.897 902.033 L332.23 902.033 "/>
  <path stroke-width="0.000000" stroke="#000000" fill="none" d="M310.897 733.36 L332.23 733.36 "/>
  <path stroke-width="0.000000" stroke="#000000" fill="none" d="M310.897 564.687 L332.23 564.687 "/>
  <path stroke-width="0.000000" stroke="#000000" fill="none" d="M310.897 396.013 L332.23 396.013 "/>
  <path stroke-width="0.000000" stroke="#000000" fill="none" d="M310.897 227.34 L332.23 227.34 "/>
  <path stroke-width="0.000000" stroke="#000000" fill="none" d="M310.897 58.6667 L332.23 58.6667 "/>
  <path fill="#000000" d="M18.75 -39 C14.25 -39 9.73438 -30.25 9.73438 -21.4844 C9.73438 -12.75 14.25 -4 18.75 -4 C23.2812 -4 27.7969 -12.75 27.7969 -21.4844 C27.7969 -30.25 23.2812 -39 18.75 -39 M18.7656 -44 C25.9844 -44 33.625 -32.4688 33.625 -21.4844 C33.625 -10.5312 25.9844 1 18.7656 1 C11.5312 1 3.89062 -10.5312 3.89062 -21.4844 C3.89062 -32.4688 11.5312 -44 18.7656 -44 " transform="translate(133.323 1765.9)"/>
  <path fill="#000000" d="M6.3125 -7 L12.3906 -7 L12.3906 0 L6.3125 0 L6.3125 -7 " transform="translate(170.651 1765.9)"/>
  <path fill="#000000" d="M18.75 -39 C14.25 -39 9.73438 -30.25 9.73438 -21.4844 C9.73438 -12.75 14.25 -4 18.75 -4 C23.2812 -4 27.7969 -12.75 27.7969 -21.4844 C27.7969 -30.25 23.2812 -39 18.75 -39 M18.7656 -44 C25.9844 -44 33.625 -32.4688 33.625 -21.4844 C33.625 -10.5312 25.9844 1 18.7656 1 C11.5312 1 3.89062 -10.5312 3.89062 -21.4844 C3.89062 -32.4688 11.5312 -44 18.7656 -44 " transform="translate(189.307 1765.9)"/>
  <path fill="#000000" d="M18.75 -39 C14.25 -39 9.73438 -30.25 9.73438 -21.4844 C9.73438 -12.75 14.25 -4 18.75 -4 C23.2812 -4 27.7969 -12.75 27.7969 -21.4844 C27.7969 -30.25 23.2812 -39 18.75 -39 M18.7656 -44 C25.9844 -44 33.625 -32.4688 33.625 -21.4844 C33.625 -10.5312 25.9844 1 18.7656 1 C11.5312 1 3.89062 -10.5312 3.89062 -21.4844 C3.89062 -32.4688 11.5312 -44 18.7656 -44 " transform="translate(226.635 1765.9)"/>
  <path fill="#000000" d="M7.3125 -5 L16.8281 -5 L16.8281 -38 L6.48438 -36 L6.48438 -41 L16.7656 -43 L22.5938 -43 L22.5938 -5 L32.0938 -5 L32.0938 0 L7.3125 0 L7.3125 -5 " transform="translate(95.9948 1597.23)"/>
  <path fill="#000000" d="M11.3281 -5 L31.625 -5 L31.625 0 L4.32812 0 L4.32812 -5 C7.64062 -8.42188 19.0625 -19.9844 20.5312 -21.6562 C23.3281 -24.7969 25.5469 -29.1406 25.5469 -31.25 C25.5469 -34.6719 20.7344 -39 16.875 -39 C14.1406 -39 8.0625 -37.0156 4.60938 -35 L4.60938 -41 C8.125 -42.4844 14.2344 -44 16.7656 -44 C23.4531 -44 31.4062 -37.2969 31.4062 -31.6875 C31.4062 -29.0312 29.4219 -24.2656 26.7969 -21.0312 C26.0781 -20.2031 18.3594 -12.1875 11.3281 -5 " transform="translate(133.323 1597.23)"/>
  <path fill="#000000" d="M6.3125 -7 L12.3906 -7 L12.3906 0 L6.3125 0 L6.3125 -7 " transform="translate(170.651 1597.23)"/>
  <path fill="#000000" d="M18.75 -39 C14.25 -39 9.73438 -30.25 9.73438 -21.4844 C9.73438 -12.75 14.25 -4 18.75 -4 C23.2812 -4 27.7969 -12.75 27.7969 -21.4844 C27.7969 -30.25 23.2812 -39 18.75 -39 M18.7656 -44 C25.9844 -44 33.625 -32.4688 33.625 -21.4844 C33.625 -10.5312 25.9844 1 18.7656 1 C11.5312 1 3.89062 -10.5312 3.89062 -21.4844 C3.89062 -32.4688 11.5312 -44 18.7656 -44 " transform="translate(189.307 1597.23)"/>
  <path fill="#000000" d="M18.75 -39 C14.25 -39 9.73438 -30.25 9.73438 -21.4844 C9.73438 -12.75 14.25 -4 18.75 -4 C23.2812 -4 27.7969 -12.75 27.7969 -21.4844 C27.7969 -30.25 23.2812 -39 18.75 -39 M18.7656 -44 C25.9844 -44 33.625 -32.4688 33.625 -21.4844 C33.625 -10.5312 25.9844 1 18.7656 1 C11.5312 1 3.89062 -10.5312 3.89062 -21.4844 C3.89062 -32.4688 11.5312 -44 18.7656 -44 " transform="translate(226.635 1597.23)"/>
  <path fill="#000000" d="M11.3281 -5 L31.625 -5 L31.625 0 L4.32812 0 L4.32812 -5 C7.64062 -8.42188 19.0625 -19.9844 20.5312 -21.6562 C23.3281 -24.7969 25.5469 -29.1406 25.5469 -31.25 C25.5469 -34.6719 20.7344 -39 16.875 -39 C14.1406 -39 8.0625 -37.0156 4.60938 -35 L4.60938 -41 C8.125 -42.4844 14.2344 -44 16.7656 -44 C23.4531 -44 31.4062 -37.2969 31.4062 -31.6875 C31.4062 -29.0312 29.4219 -24.2656 26.7969 -21.0312 C26.0781 -20.2031 18.3594 -12.1875 11.3281 -5 " transform="translate(95.9948 1428.55)"/>
  <path fill="#000000" d="M22.2969 -37.9375 L7.60938 -15 L22.2969 -15 L22.2969 -37.9375 M20.7656 -43 L28.0938 -43 L28.0938 -15 L34.2188 -15 L34.2188 -10 L28.0938 -10 L28.0938 0 L22.2969 0 L22.2969 -10 L2.875 -10 L2.875 -15.6406 L20.7656 -43 " transform="translate(133.323 1428.55)"/>
  <path fill="#000000" d="M6.3125 -7 L12.3906 -7 L12.3906 0 L6.3125 0 L6.3125 -7 " transform="translate(170.651 1428.55)"/>
  <path fill="#000000" d="M18.75 -39 C14.25 -39 9.73438 -30.25 9.73438 -21.4844 C9.73438 -12.75 14.25 -4 18.75 -4 C23.2812 -4 27.7969 -12.75 27.7969 -21.4844 C27.7969 -30.25 23.2812 -39 18.75 -39 M18.7656 -44 C25.9844 -44 33.625 -32.4688 33.625 -21.4844 C33.625 -10.5312 25.9844 1 18.7656 1 C11.5312 1 3.89062 -10.5312 3.89062 -21.4844 C3.89062 -32.4688 11.5312 -44 18.7656 -44 " transform="translate(189.307 1428.55)"/>
  <path fill="#000000" d="M18.75 -39 C14.25 -39 9.73438 -30.25 9.73438 -21.4844 C9.73438 -12.75 14.25 -4 18.75 -4 C23.2812 -4 27.7969 -12.75 27.7969 -21.4844 C27.7969 -30.25 23.2812 -39 18.75 -39 M18.7656 -44 C25.9844 -44 33.625 -32.4688 33.625 -21.4844 C33.625 -10.5312 25.9844 1 18.7656 1 C11.5312 1 3.89062 -10.5312 3.89062 -21.4844 C3.89062 -32.4688 11.5312 -44 18.7656 -44 " transform="translate(226.635 1428.55)"/>
  <path fill="#000000" d="M23.9375 -22.7031 C28.1094 -21.8281 32.8125 -16.25 32.8125 -12.1562 C32.8125 -5.875 24.0625 1 15.9844 1 C13.2812 1 7.54688 0 4.5 -1 L4.5 -7 C6.92188 -5.51562 12.6719 -4 15.8125 -4 C21.2812 -4 27.0156 -8.1875 27.0156 -12.1719 C27.0156 -15.8438 21.6875 -20 16.9375 -20 L11.9219 -20 L11.9219 -25 L17.1719 -25 C21.4688 -25 26.0156 -28.5469 26.0156 -31.8906 C26.0156 -35.3281 21.3125 -39 16.9375 -39 C14.5469 -39 9.07812 -38.0312 5.79688 -37 L5.79688 -42 C9.10938 -43 14.9062 -44 17.4688 -44 C24.0938 -44 31.8125 -37.7812 31.8125 -32.4688 C31.8125 -28.7812 27.7188 -23.6875 23.9375 -22.7031 " transform="translate(95.9948 1259.88)"/>
  <path fill="#000000" d="M19.4688 -24 C15.5469 -24 10.9688 -18.6562 10.9688 -14 C10.9688 -9.375 15.5469 -4 19.4688 -4 C23.3906 -4 27.9688 -9.375 27.9688 -14 C27.9688 -18.6562 23.3906 -24 19.4688 -24 M31.0312 -42 L31.0312 -37 C28.8438 -37.9688 24.375 -39 22.1875 -39 C16.4219 -39 10.3438 -31.25 9.90625 -23.4219 C11.6094 -26.125 16.7344 -29 19.8281 -29 C26.3125 -29 33.8281 -20.9375 33.8281 -14 C33.8281 -7.20312 25.9844 1 19.4844 1 C12.0156 1 4.125 -10.5312 4.125 -21.4844 C4.125 -31.7656 13.7969 -44 21.9531 -44 C24.1406 -44 28.6094 -43 31.0312 -42 " transform="translate(133.323 1259.88)"/>
  <path fill="#000000" d="M6.3125 -7 L12.3906 -7 L12.3906 0 L6.3125 0 L6.3125 -7 " transform="translate(170.651 1259.88)"/>
  <path fill="#000000" d="M18.75 -39 C14.25 -39 9.73438 -30.25 9.73438 -21.4844 C9.73438 -12.75 14.25 -4 18.75 -4 C23.2812 -4 27.7969 -12.75 27.7969 -21.4844 C27.7969 -30.25 23.2812 -39 18.75 -39 M18.7656 -44 C25.9844 -44 33.625 -32.4688 33.625 -21.4844 C33.625 -10.5312 25.9844 1 18.7656 1 C11.5312 1 3.89062 -10.5312 3.89062 -21.4844 C3.89062 -32.4688 11.5312 -44 18.7656 -44 " transform="translate(189.307 1259.88)"/>
  <path fill="#000000" d="M18.75 -39 C14.25 -39 9.73438 -30.25 9.73438 -21.4844 C9.73438 -12.75 14.25 -4 18.75 -4 C23.2812 -4 27.7969 -12.75 27.7969 -21.4844 C27.7969 -30.25 23.2812 -39 18.75 -39 M18.7656 -44 C25.9844 -44 33.625 -32.4688 33.625 -21.4844 C33.625 -10.5312 25.9844 1 18.7656 1 C11.5312 1 3.89062 -10.5312 3.89062 -21.4844 C3.89062 -32.4688 11.5312 -44 18.7656 -44 " transform="translate(226.635 1259.88)"/>
  <path fill="#000000" d="M22.2969 -37.9375 L7.60938 -15 L22.2969 -15 L22.2969 -37.9375 M20.7656 -43 L28.0938 -43 L28.0938 -15 L34.2188 -15 L34.2188 -10 L28.0938 -10 L28.0938 0 L22.2969 0 L22.2969 -10 L2.875 -10 L2.875 -15.6406 L20.7656 -43 " transform="translate(95.9948 1091.21)"/>
  <path fill="#000000" d="M18.7656 -20 C14.6094 -20 9.85938 -15.7344 9.85938 -12 C9.85938 -8.26562 14.6094 -4 18.7656 -4 C22.9062 -4 27.6875 -8.29688 27.6875 -12 C27.6875 -15.7344 22.9375 -20 18.7656 -20 M12.9375 -22.7031 C9.1875 -23.6406 5.01562 -28.875 5.01562 -32.625 C5.01562 -37.8906 12.3594 -44 18.75 -44 C25.1875 -44 32.5 -37.8906 32.5 -32.625 C32.5 -28.875 28.3281 -23.6406 24.6094 -22.7031 C28.8125 -21.7188 33.5 -16.0312 33.5 -11.9219 C33.5 -5.67188 25.8594 1 18.75 1 C11.6406 1 4 -5.67188 4 -11.9219 C4 -16.0312 8.73438 -21.7188 12.9375 -22.7031 M10.7969 -32 C10.7969 -28.7031 14.9688 -25 18.75 -25 C22.5 -25 26.7344 -28.7031 26.7344 -32 C26.7344 -35.2969 22.5 -39 18.75 -39 C14.9688 -39 10.7969 -35.2969 10.7969 -32 " transform="translate(133.323 1091.21)"/>
  <path fill="#000000" d="M6.3125 -7 L12.3906 -7 L12.3906 0 L6.3125 0 L6.3125 -7 " transform="translate(170.651 1091.21)"/>
  <path fill="#000000" d="M18.75 -39 C14.25 -39 9.73438 -30.25 9.73438 -21.4844 C9.73438 -12.75 14.25 -4 18.75 -4 C23.2812 -4 27.7969 -12.75 27.7969 -21.4844 C27.7969 -30.25 23.2812 -39 18.75 -39 M18.7656 -44 C25.9844 -44 33.625 -32.4688 33.625 -21.4844 C33.625 -10.5312 25.9844 1 18.7656 1 C11.5312 1 3.89062 -10.5312 3.89062 -21.4844 C3.89062 -32.4688 11.5312 -44 18.7656 -44 " transform="translate(189.307 1091.21)"/>
  <path fill="#000000" d="M18.75 -39 C14.25 -39 9.73438 -30.25 9.73438 -21.4844 C9.73438 -12.75 14.25 -4 18.75 -4 C23.2812 -4 27.7969 -12.75 27.7969 -21.4844 C27.7969 -30.25 23.2812 -39 18.75 -39 M18.7656 -44 C25.9844 -44 33.625 -32.4688 33.625 -21.4844 C33.625 -10.5312 25.9844 1 18.7656 1 C11.5312 1 3.89062 -10.5312 3.89062 -21.4844 C3.89062 -32.4688 11.5312 -44 18.7656 -44 " transform="translate(226.635 1091.21)"/>
  <path fill="#000000" d="M19.4688 -24 C15.5469 -24 10.9688 -18.6562 10.9688 -14 C10.9688 -9.375 15.5469 -4 19.4688 -4 C23.3906 -4 27.9688 -9.375 27.9688 -14 C27.9688 -18.6562 23.3906 -24 19.4688 -24 M31.0312 -42 L31.0312 -37 C28.8438 -37.9688 24.375 -39 22.1875 -39 C16.4219 -39 10.3438 -31.25 9.90625 -23.4219 C11.6094 -26.125 16.7344 -29 19.8281 -29 C26.3125 -29 33.8281 -20.9375 33.8281 -14 C33.8281 -7.20312 25.9844 1 19.4844 1 C12.0156 1 4.125 -10.5312 4.125 -21.4844 C4.125 -31.7656 13.7969 -44 21.9531 -44 C24.1406 -44 28.6094 -43 31.0312 -42 " transform="translate(95.9948 922.533)"/>
  <path fill="#000000" d="M18.75 -39 C14.25 -39 9.73438 -30.25 9.73438 -21.4844 C9.73438 -12.75 14.25 -4 18.75 -4 C23.2812 -4 27.7969 -12.75 27.7969 -21.4844 C27.7969 -30.25 23.2812 -39 18.75 -39 M18.7656 -44 C25.9844 -44 33.625 -32.4688 33.625 -21.4844 C33.625 -10.5312 25.9844 1 18.7656 1 C11.5312 1 3.89062 -10.5312 3.89062 -21.4844 C3.89062 -32.4688 11.5312 -44 18.7656 -44 " transform="translate(133.323 922.533)"/>
  <path fill="#000000" d="M6.3125 -7 L12.3906 -7 L12.3906 0 L6.3125 0 L6.3125 -7 " transform="translate(170.651 922.533)"/>
  <path fill="#000000" d="M18.75 -39 C14.25 -39 9.73438 -30.25 9.73438 -21.4844 C9.73438 -12.75 14.25 -4 18.75 -4 C23.2812 -4 27.7969 -12.75 27.7969 -21.4844 C27.7969 -30.25 23.2812 -39 18.75 -39 M18.7656 -44 C25.9844 -44 33.625 -32.4688 33.625 -21.4844 C33.625 -10.5312 25.9844 1 18.7656 1 C11.5312 1 3.89062 -10.5312 3.89062 -21.4844 C3.89062 -32.4688 11.5312 -44 18.7656 -44 " transform="translate(189.307 922.533)"/>
  <path fill="#000000" d="M18.75 -39 C14.25 -39 9.73438 -30.25 9.73438 -21.4844 C9.73438 -12.75 14.25 -4 18.75 -4 C23.2812 -4 27.7969 -12.75 27.7969 -21.4844 C27.7969 -30.25 23.2812 -39 18.75 -39 M18.7656 -44 C25.9844 -44 33.625 -32.4688 33.625 -21.4844 C33.625 -10.5312 25.9844 1 18.7656 1 C11.5312 1 3.89062 -10.5312 3.89062 -21.4844 C3.89062 -32.4688 11.5312 -44 18.7656 -44 " transform="translate(226.635 922.533)"/>
  <path fill="#000000" d="M4.84375 -43 L32.5 -43 L32.5 -40.5156 L16.875 0 L10.7969 0 L25.5 -38 L4.84375 -38 L4.84375 -43 " transform="translate(95.9948 753.86)"/>
  <path fill="#000000" d="M11.3281 -5 L31.625 -5 L31.625 0 L4.32812 0 L4.32812 -5 C7.64062 -8.42188 19.0625 -19.9844 20.5312 -21.6562 C23.3281 -24.7969 25.5469 -29.1406 25.5469 -31.25 C25.5469 -34.6719 20.7344 -39 16.875 -39 C14.1406 -39 8.0625 -37.0156 4.60938 -35 L4.60938 -41 C8.125 -42.4844 14.2344 -44 16.7656 -44 C23.4531 -44 31.4062 -37.2969 31.4062 -31.6875 C31.4062 -29.0312 29.4219 -24.2656 26.7969 -21.0312 C26.0781 -20.2031 18.3594 -12.1875 11.3281 -5 " transform="translate(133.323 753.86)"/>
  <path fill="#000000" d="M6.3125 -7 L12.3906 -7 L12.3906 0 L6.3125 0 L6.3125 -7 " transform="translate(170.651 753.86)"/>
  <path fill="#000000" d="M18.75 -39 C14.25 -39 9.73438 -30.25 9.73438 -21.4844 C9.73438 -12.75 14.25 -4 18.75 -4 C23.2812 -4 27.7969 -12.75 27.7969 -21.4844 C27.7969 -30.25 23.2812 -39 18.75 -39 M18.7656 -44 C25.9844 -44 33.625 -32.4688 33.625 -21.4844 C33.625 -10.5312 25.9844 1 18.7656 1 C11.5312 1 3.89062 -10.5312 3.89062 -21.4844 C3.89062 -32.4688 11.5312 -44 18.7656 -44 " transform="translate(189.307 753.86)"/>
  <path fill="#000000" d="M18.75 -39 C14.25 -39 9.73438 -30.25 9.73438 -21.4844 C9.73438 -12.75 14.25 -4 18.75 -4 C23.2812 -4 27.7969 -12.75 27.7969 -21.4844 C27.7969 -30.25 23.2812 -39 18.75 -39 M18.7656 -44 C25.9844 -44 33.625 -32.4688 33.625 -21.4844 C33.625 -10.5312 25.9844 1 18.7656 1 C11.5312 1 3.89062 -10.5312 3.89062 -21.4844 C3.89062 -32.4688 11.5312 -44 18.7656 -44 " transform="translate(226.635 753.86)"/>
  <path fill="#000000" d="M18.7656 -20 C14.6094 -20 9.85938 -15.7344 9.85938 -12 C9.85938 -8.26562 14.6094 -4 18.7656 -4 C22.9062 -4 27.6875 -8.29688 27.6875 -12 C27.6875 -15.7344 22.9375 -20 18.7656 -20 M12.9375 -22.7031 C9.1875 -23.6406 5.01562 -28.875 5.01562 -32.625 C5.01562 -37.8906 12.3594 -44 18.75 -44 C25.1875 -44 32.5 -37.8906 32.5 -32.625 C32.5 -28.875 28.3281 -23.6406 24.6094 -22.7031 C28.8125 -21.7188 33.5 -16.0312 33.5 -11.9219 C33.5 -5.67188 25.8594 1 18.75 1 C11.6406 1 4 -5.67188 4 -11.9219 C4 -16.0312 8.73438 -21.7188 12.9375 -22.7031 M10.7969 -32 C10.7969 -28.7031 14.9688 -25 18.75 -25 C22.5 -25 26.7344 -28.7031 26.7344 -32 C26.7344 -35.2969 22.5 -39 18.75 -39 C14.9688 -39 10.7969 -35.2969 10.7969 -32 " transform="translate(95.9948 585.187)"/>
  <path fill="#000000" d="M22.2969 -37.9375 L7.60938 -15 L22.2969 -15 L22.2969 -37.9375 M20.7656 -43 L28.0938 -43 L28.0938 -15 L34.2188 -15 L34.2188 -10 L28.0938 -10 L28.0938 0 L22.2969 0 L22.2969 -10 L2.875 -10 L2.875 -15.6406 L20.7656 -43 " transform="translate(133.323 585.187)"/>
  <path fill="#000000" d="M6.3125 -7 L12.3906 -7 L12.3906 0 L6.3125 0 L6.3125 -7 " transform="translate(170.651 585.187)"/>
  <path fill="#000000" d="M18.75 -39 C14.25 -39 9.73438 -30.25 9.73438 -21.4844 C9.73438 -12.75 14.25 -4 18.75 -4 C23.2812 -4 27.7969 -12.75 27.7969 -21.4844 C27.7969 -30.25 23.2812 -39 18.75 -39 M18.7656 -44 C25.9844 -44 33.625 -32.4688 33.625 -21.4844 C33.625 -10.5312 25.9844 1 18.7656 1 C11.5312 1 3.89062 -10.5312 3.89062 -21.4844 C3.89062 -32.4688 11.5312 -44 18.7656 -44 " transform="translate(189.307 585.187)"/>
  <path fill="#000000" d="M18.75 -39 C14.25 -39 9.73438 -30.25 9.73438 -21.4844 C9.73438 -12.75 14.25 -4 18.75 -4 C23.2812 -4 27.7969 -12.75 27.7969 -21.4844 C27.7969 -30.25 23.2812 -39 18.75 -39 M18.7656 -44 C25.9844 -44 33.625 -32.4688 33.625 -21.4844 C33.625 -10.5312 25.9844 1 18.7656 1 C11.5312 1 3.89062 -10.5312 3.89062 -21.4844 C3.89062 -32.4688 11.5312 -44 18.7656 -44 " transform="translate(226.635 585.187)"/>
  <path fill="#000000" d="M6.48438 -1 L6.48438 -6 C8.67188 -5.03125 13.1719 -4 15.3281 -4 C21.0781 -4 27.1562 -12.2031 27.5938 -20.5469 C25.9219 -17.8594 20.7969 -15 17.6875 -15 C11.2344 -15 3.71875 -22.75 3.71875 -29.4688 C3.71875 -36.0469 11.5469 -44 18.0625 -44 C25.5312 -44 33.3906 -32.4688 33.3906 -21.4844 C33.3906 -11.2344 23.7344 1 15.5938 1 C13.3906 1 8.90625 0 6.48438 -1 M18.0625 -20 C21.9844 -20 26.5625 -25.0781 26.5625 -29.5 C26.5625 -33.8906 21.9844 -39 18.0625 -39 C14.1406 -39 9.5625 -33.8906 9.5625 -29.5 C9.5625 -25.0781 14.1406 -20 18.0625 -20 " transform="translate(95.9948 416.513)"/>
  <path fill="#000000" d="M19.4688 -24 C15.5469 -24 10.9688 -18.6562 10.9688 -14 C10.9688 -9.375 15.5469 -4 19.4688 -4 C23.3906 -4 27.9688 -9.375 27.9688 -14 C27.9688 -18.6562 23.3906 -24 19.4688 -24 M31.0312 -42 L31.0312 -37 C28.8438 -37.9688 24.375 -39 22.1875 -39 C16.4219 -39 10.3438 -31.25 9.90625 -23.4219 C11.6094 -26.125 16.7344 -29 19.8281 -29 C26.3125 -29 33.8281 -20.9375 33.8281 -14 C33.8281 -7.20312 25.9844 1 19.4844 1 C12.0156 1 4.125 -10.5312 4.125 -21.4844 C4.125 -31.7656 13.7969 -44 21.9531 -44 C24.1406 -44 28.6094 -43 31.0312 -42 " transform="translate(133.323 416.513)"/>
  <path fill="#000000" d="M6.3125 -7 L12.3906 -7 L12.3906 0 L6.3125 0 L6.3125 -7 " transform="translate(170.651 416.513)"/>
  <path fill="#000000" d="M18.75 -39 C14.25 -39 9.73438 -30.25 9.73438 -21.4844 C9.73438 -12.75 14.25 -4 18.75 -4 C23.2812 -4 27.7969 -12.75 27.7969 -21.4844 C27.7969 -30.25 23.2812 -39 18.75 -39 M18.7656 -44 C25.9844 -44 33.625 -32.4688 33.625 -21.4844 C33.625 -10.5312 25.9844 1 18.7656 1 C11.5312 1 3.89062 -10.5312 3.89062 -21.4844 C3.89062 -32.4688 11.5312 -44 18.7656 -44 " transform="translate(189.307 416.513)"/>
  <path fill="#000000" d="M18.75 -39 C14.25 -39 9.73438 -30.25 9.73438 -21.4844 C9.73438 -12.75 14.25 -4 18.75 -4 C23.2812 -4 27.7969 -12.75 27.7969 -21.4844 C27.7969 -30.25 23.2812 -39 18.75 -39 M18.7656 -44 C25.9844 -44 33.625 -32.4688 33.625 -21.4844 C33.625 -10.5312 25.9844 1 18.7656 1 C11.5312 1 3.89062 -10.5312 3.89062 -21.4844 C3.89062 -32.4688 11.5312 -44 18.7656 -44 " transform="translate(226.635 416.513)"/>
  <path fill="#000000" d="M7.3125 -5 L16.8281 -5 L16.8281 -38 L6.48438 -36 L6.48438 -41 L16.7656 -43 L22.5938 -43 L22.5938 -5 L32.0938 -5 L32.0938 0 L7.3125 0 L7.3125 -5 " transform="translate(58.6667 247.84)"/>
  <path fill="#000000" d="M18.75 -39 C14.25 -39 9.73438 -30.25 9.73438 -21.4844 C9.73438 -12.75 14.25 -4 18.75 -4 C23.2812 -4 27.7969 -12.75 27.7969 -21.4844 C27.7969 -30.25 23.2812 -39 18.75 -39 M18.7656 -44 C25.9844 -44 33.625 -32.4688 33.625 -21.4844 C33.625 -10.5312 25.9844 1 18.7656 1 C11.5312 1 3.89062 -10.5312 3.89062 -21.4844 C3.89062 -32.4688 11.5312 -44 18.7656 -44 " transform="translate(95.9948 247.84)"/>
  <path fill="#000000" d="M18.7656 -20 C14.6094 -20 9.85938 -15.7344 9.85938 -12 C9.85938 -8.26562 14.6094 -4 18.7656 -4 C22.9062 -4 27.6875 -8.29688 27.6875 -12 C27.6875 -15.7344 22.9375 -20 18.7656 -20 M12.9375 -22.7031 C9.1875 -23.6406 5.01562 -28.875 5.01562 -32.625 C5.01562 -37.8906 12.3594 -44 18.75 -44 C25.1875 -44 32.5 -37.8906 32.5 -32.625 C32.5 -28.875 28.3281 -23.6406 24.6094 -22.7031 C28.8125 -21.7188 33.5 -16.0312 33.5 -11.9219 C33.5 -5.67188 25.8594 1 18.75 1 C11.6406 1 4 -5.67188 4 -11.9219 C4 -16.0312 8.73438 -21.7188 12.9375 -22.7031 M10.7969 -32 C10.7969 -28.7031 14.9688 -25 18.75 -25 C22.5 -25 26.7344 -28.7031 26.7344 -32 C26.7344 -35.2969 22.5 -39 18.75 -39 C14.9688 -39 10.7969 -35.2969 10.7969 -32 " transform="translate(133.323 247.84)"/>
  <path fill="#000000" d="M6.3125 -7 L12.3906 -7 L12.3906 0 L6.3125 0 L6.3125 -7 " transform="translate(170.651 247.84)"/>
  <path fill="#000000" d="M18.75 -39 C14.25 -39 9.73438 -30.25 9.73438 -21.4844 C9.73438 -12.75 14.25 -4 18.75 -4 C23.2812 -4 27.7969 -12.75 27.7969 -21.4844 C27.7969 -30.25 23.2812 -39 18.75 -39 M18.7656 -44 C25.9844 -44 33.625 -32.4688 33.625 -21.4844 C33.625 -10.5312 25.9844 1 18.7656 1 C11.5312 1 3.89062 -10.5312 3.89062 -21.4844 C3.89062 -32.4688 11.5312 -44 18.7656 -44 " transform="translate(189.307 247.84)"/>
  <path fill="#000000" d="M18.75 -39 C14.25 -39 9.73438 -30.25 9.73438 -21.4844 C9.73438 -12.75 14.25 -4 18.75 -4 C23.2812 -4 27.7969 -12.75 27.7969 -21.4844 C27.7969 -30.25 23.2812 -39 18.75 -39 M18.7656 -44 C25.9844 -44 33.625 -32.4688 33.625 -21.4844 C33.625 -10.5312 25.9844 1 18.7656 1 C11.5312 1 3.89062 -10.5312 3.89062 -21.4844 C3.89062 -32.4688 11.5312 -44 18.7656 -44 " transform="translate(226.635 247.84)"/>
  <path fill="#000000" d="M7.3125 -5 L16.8281 -5 L16.8281 -38 L6.48438 -36 L6.48438 -41 L16.7656 -43 L22.5938 -43 L22.5938 -5 L32.0938 -5 L32.0938 0 L7.3125 0 L7.3125 -5 " transform="translate(58.6667 79.1667)"/>
  <path fill="#000000" d="M11.3281 -5 L31.625 -5 L31.625 0 L4.32812 0 L4.32812 -5 C7.64062 -8.42188 19.0625 -19.9844 20.5312 -21.6562 C23.3281 -24.7969 25.5469 -29.1406 25.5469 -31.25 C25.5469 -34.6719 20.7344 -39 16.875 -39 C14.1406 -39 8.0625 -37.0156 4.60938 -35 L4.60938 -41 C8.125 -42.4844 14.2344 -44 16.7656 -44 C23.4531 -44 31.4062 -37.2969 31.4062 -31.6875 C31.4062 -29.0312 29.4219 -24.2656 26.7969 -21.0312 C26.0781 -20.2031 18.3594 -12.1875 11.3281 -5 " transform="translate(95.9948 79.1667)"/>
  <path fill="#000000" d="M18.75 -39 C14.25 -39 9.73438 -30.25 9.73438 -21.4844 C9.73438 -12.75 14.25 -4 18.75 -4 C23.2812 -4 27.7969 -12.75 27.7969 -21.4844 C27.7969 -30.25 23.2812 -39 18.75 -39 M18.7656 -44 C25.9844 -44 33.625 -32.4688 33.625 -21.4844 C33.625 -10.5312 25.9844 1 18.7656 1 C11.5312 1 3.89062 -10.5312 3.89062 -21.4844 C3.89062 -32.4688 11.5312 -44 18.7656 -44 " transform="translate(133.323 79.1667)"/>
  <path fill="#000000" d="M6.3125 -7 L12.3906 -7 L12.3906 0 L6.3125 0 L6.3125 -7 " transform="translate(170.651 79.1667)"/>
  <path fill="#000000" d="M18.75 -39 C14.25 -39 9.73438 -30.25 9.73438 -21.4844 C9.73438 -12.75 14.25 -4 18.75 -4 C23.2812 -4 27.7969 -12.75 27.7969 -21.4844 C27.7969 -30.25 23.2812 -39 18.75 -39 M18.7656 -44 C25.9844 -44 33.625 -32.4688 33.625 -21.4844 C33.625 -10.5312 25.9844 1 18.7656 1 C11.5312 1 3.89062 -10.5312 3.89062 -21.4844 C3.89062 -32.4688 11.5312 -44 18.7656 -44 " transform="translate(189.307 79.1667)"/>
  <path fill="#000000" d="M18.75 -39 C14.25 -39 9.73438 -30.25 9.73438 -21.4844 C9.73438 -12.75 14.25 -4 18.75 -4 C23.2812 -4 27.7969 -12.75 27.7969 -21.4844 C27.7969 -30.25 23.2812 -39 18.75 -39 M18.7656 -44 C25.9844 -44 33.625 -32.4688 33.625 -21.4844 C33.625 -10.5312 25.9844 1 18.7656 1 C11.5312 1 3.89062 -10.5312 3.89062 -21.4844 C3.89062 -32.4688 11.5312 -44 18.7656 -44 " transform="translate(226.635 79.1667)"/>
</svg>