<svg xmlns="http://www.w3.org/2000/svg" width="3600.000000" height="1920.000000" viewBox="0 0 3600 1920">
  <rect width="3600.000000" height="1920.000000" fill="#ffffff"/>
  <text x="163.333333" y="133.222222" fill="#000000" font-size="77.777778" font-family="Arial,Helvetica,'Helvetica Neue',sans-serif" font-weight="500.000000">Test Color 1</text>
  <path fill="#cc0000" d="M118.611 106.222 M60.2778 106.222 a29.1667 29.1667 0 1 0 58.3333 0 a29.1667 29.1667 0 1 0 -58.3333 0 "/>
  <text x="163.333333" y="244.555556" fill="#000000" font-size="77.777778" font-family="Arial,Helvetica,'Helvetica Neue',sans-serif" font-weight="500.000000">Test Color 2</text>
  <path fill="#0000cc" d="M118.611 217.556 M60.2778 217.556 a29.1667 29.1667 0 1 0 58.3333 0 a29.1667 29.1667 0 1 0 -58.3333 0 "/>
  <text x="163.333333" y="355.888889" fill="#000000" font-size="77.777778" font-family="Arial,Helvetica,'Helvetica Neue',sans-serif" font-weight="500.000000">Test Color 3</text>
  <path fill="#00cc00" d="M118.611 328.889 M60.2778 328.889 a29.1667 29.1667 0 1 0 58.3333 0 a29.1667 29.1667 0 1 0 -58.3333 0 "/>
  <text x="163.333333" y="467.222222" fill="#000000" font-size="77.777778" font-family="Arial,Helvetica,'Helvetica Neue',sans-serif" font-weight="500.000000">Test Color 4</text>
  <path fill="#cc0000" d="M118.611 440.222 M60.2778 440.222 a29.1667 29.1667 0 1 0 58.3333 0 a29.1667 29.1667 0 1 0 -58.3333 0 "/>
  <text x="163.333333" y="578.555556" fill="#000000" font-size="77.777778" font-family="Arial,Helvetica,'Helvetica Neue',sans-serif" font-weight="500.000000">Test Color 5</text>
  <path fill="#0000cc" d="M118.611 551.556 M60.2778 551.556 a29.1667 29.1667 0 1 0 58.3333 0 a29.1667 29.1667 0 1 0 -58.3333 0 "/>
  <text x="163.333333" y="689.888889" fill="#000000" font-size="77.777778" font-family="Arial,Helvetica,'Helvetica Neue',sans-serif" font-weight="500.000000">Test Color 6</text>
  <path fill="#00cc00" d="M118.611 662.889 M60.2778 662.889 a29.1667 29.1667 0 1 0 58.3333 0 a29.1667 29.1667 0 1 0 -58.3333 0 "/>
  <text x="163.333333" y="801.222222" fill="#000000" font-size="77.777778" font-family="Arial,Helvetica,'Helvetica Neue',sans-serif" font-weight="500.000000">Test Color 7</text>
  <path fill="#cc0000" d="M118.611 774.222 M60.2778 774.222 a29.1667 29.1667 0 1 0 58.3333 0 a29.1667 29.1667 0 1 0 -58.3333 0 "/>
  <text x="163.333333" y="912.555556" fill="#000000" font-size="77.777778" font-family="Arial,Helvetica,'Helvetica Neue',sans-serif" font-weight="500.000000">Test Color 8</text>
  <path fill="#0000cc" d="M118.611 885.556 M60.2778 885.556 a29.1667 29.1667 0 1 0 58.3333 0 a29.1667 29.1667 0 1 0 -58.3333 0 "/>
</svg>