<svg xmlns="http://www.w3.org/2000/svg" width="3600.000000" height="1920.000000" viewBox="0 0 3600 1920">
  <rect width="3600.000000" height="1920.000000" fill="#ffffffff"/>
  <text x="163.333333" y="117.666667" fill="#000000ff" font-size="77.777778" font-family="Arial,Helvetica,'Helvetica Neue',sans-serif" font-weight="500.000000">Test Color 1</text>
  <path fill="#00cc00ff" d="M118.611 90.6667 M60.2778 90.6667 a29.1667 29.1667 0 1 0 58.3333 0 a29.1667 29.1667 0 1 0 -58.3333 0 "/>
  <text x="163.333333" y="229.000000" fill="#000000ff" font-size="77.777778" font-family="Arial,Helvetica,'Helvetica Neue',sans-serif" font-weight="500.000000">Test Color 2</text>
  <path fill="#cc0000ff" d="M118.611 202 M60.2778 202 a29.1667 29.1667 0 1 0 58.3333 0 a29.1667 29.1667 0 1 0 -58.3333 0 "/>
  <text x="163.333333" y="340.333333" fill="#000000ff" font-size="77.777778" font-family="Arial,Helvetica,'Helvetica Neue',sans-serif" font-weight="500.000000">Test Color 3</text>
  <path fill="#0000ccff" d="M118.611 313.333 M60.2778 313.333 a29.1667 29.1667 0 1 0 58.3333 0 a29.1667 29.1667 0 1 0 -58.3333 0 "/>
  <text x="163.333333" y="451.666667" fill="#000000ff" font-size="77.777778" font-family="Arial,Helvetica,'Helvetica Neue',sans-serif" font-weight="500.000000">Test Color 4</text>
  <path fill="#00cc00ff" d="M118.611 424.667 M60.2778 424.667 a29.1667 29.1667 0 1 0 58.3333 0 a29.1667 29.1667 0 1 0 -58.3333 0 "/>
  <text x="163.333333" y="563.000000" fill="#000000ff" font-size="77.777778" font-family="Arial,Helvetica,'Helvetica Neue',sans-serif" font-weight="500.000000">Test Color 5</text>
  <path fill="#cc0000ff" d="M118.611 536 M60.2778 536 a29.1667 29.1667 0 1 0 58.3333 0 a29.1667 29.1667 0 1 0 -58.3333 0 "/>
  <text x="163.333333" y="674.333333" fill="#000000ff" font-size="77.777778" font-family="Arial,Helvetica,'Helvetica Neue',sans-serif" font-weight="500.000000">Test Color 6</text>
  <path fill="#0000ccff" d="M118.611 647.333 M60.2778 647.333 a29.1667 29.1667 0 1 0 58.3333 0 a29.1667 29.1667 0 1 0 -58.3333 0 "/>
  <text x="163.333333" y="785.666667" fill="#000000ff" font-size="77.777778" font-family="Arial,Helvetica,'Helvetica Neue',sans-serif" font-weight="500.000000">Test Color 7</text>
  <path fill="#00cc00ff" d="M118.611 758.667 M60.2778 758.667 a29.1667 29.1667 0 1 0 58.3333 0 a29.1667 29.1667 0 1 0 -58.3333 0 "/>
  <text x="163.333333" y="897.000000" fill="#000000ff" font-size="77.777778" font-family="Arial,Helvetica,'Helvetica Neue',sans-serif" font-weight="500.000000">Test Color 8</text>
  <path fill="#cc0000ff" d="M118.611 870 M60.2778 870 a29.1667 29.1667 0 1 0 58.3333 0 a29.1667 29.1667 0 1 0 -58.3333 0 "/>
</svg>