<svg xmlns="http://www.w3.org/2000/svg" width="900.000000" height="480.000000" viewBox="0 0 900 480">
  <rect width="900.000000" height="480.000000" fill="#ffffff"/>
  <path fill="#eeeeee" d="M88.6795 19.5556 L880.444 19.5556 L880.444 426.711 L88.6795 426.711 L88.6795 19.5556 "/>
  <path stroke-width="1.000000" stroke="#ffffff" fill="none" d="M88.6795 19.5556 L88.6795 426.711 "/>
  <path stroke-width="1.000000" stroke="#ffffff" fill="none" d="M167.856 19.5556 L167.856 426.711 "/>
  <path stroke-width="1.000000" stroke="#ffffff" fill="none" d="M247.033 19.5556 L247.033 426.711 "/>
  <path stroke-width="1.000000" stroke="#ffffff" fill="none" d="M326.209 19.5556 L326.209 426.711 "/>
  <path stroke-width="1.000000" stroke="#ffffff" fill="none" d="M405.385 19.5556 L405.385 426.711 "/>
  <path stroke-width="1.000000" stroke="#ffffff" fill="none" d="M484.562 19.5556 L484.562 426.711 "/>
  <path stroke-width="1.000000" stroke="#ffffff" fill="none" d="M563.738 19.5556 L563.738 426.711 "/>
  <path stroke-width="1.000000" stroke="#ffffff" fill="none" d="M642.915 19.5556 L642.915 426.711 "/>
  <path stroke-width="1.000000" stroke="#ffffff" fill="none" d="M722.091 19.5556 L722.091 426.711 "/>
  <path stroke-width="1.000000" stroke="#ffffff" fill="none" d="M801.268 19.5556 L801.268 426.711 "/>
  <path stroke-width="1.000000" stroke="#ffffff" fill="none" d="M880.444 19.5556 L880.444 426.711 "/>
  <path stroke-width="1.000000" stroke="#ffffff" fill="none" d="M88.6795 426.711 L880.444 426.711 "/>
  <path stroke-width="1.000000" stroke="#ffffff" fill="none" d="M88.6795 385.996 L880.444 385.996 "/>
  <path stroke-width="1.000000" stroke="#ffffff" fill="none" d="M88.6795 345.28 L880.444 345.28 "/>
  <path stroke-width="1.000000" stroke="#ffffff" fill="none" d="M88.6795 304.564 L880.444 304.564 "/>
  <path stroke-width="1.000000" stroke="#ffffff" fill="none" d="M88.6795 263.849 L880.444 263.849 "/>
  <path stroke-width="1.000000" stroke="#ffffff" fill="none" d="M88.6795 223.133 L880.444 223.133 "/>
  <path stroke-width="1.000000" stroke="#ffffff" fill="none" d="M88.6795 182.418 L880.444 182.418 "/>
  <path stroke-width="1.000000" stroke="#ffffff" fill="none" d="M88.6795 141.702 L880.444 141.702 "/>
  <path stroke-width="1.000000" stroke="#ffffff" fill="none" d="M88.6795 100.987 L880.444 100.987 "/>
  <path stroke-width="1.000000" stroke="#ffffff" fill="none" d="M88.6795 60.2711 L880.444 60.2711 "/>
  <path stroke-width="1.000000" stroke="#ffffff" fill="none" d="M88.6795 19.5556 L880.444 19.5556 "/>
  <path stroke-width="2.000000" stroke="#000000" fill="none" d="M88.6795 19.5556 L98.1053 106.262 L109.151 159.658 L120.197 155.389 L131.243 198.506 L142.289 225.673 L153.334 243.784 L164.38 254.88 L175.426 283.284 L186.472 232.895 L197.518 248.76 L208.564 297.391 L219.609 235.278 L230.655 242.862 L241.701 290.848 L252.747 284.375 L263.793 316.376 L274.839 338.282 L285.884 371.731 L296.93 384.145 L307.976 401.431 L319.022 266.889 L330.068 166.611 L341.113 139.461 L352.159 163.452 L363.205 218.909 L374.251 295.804 L385.297 289.681 L396.343 336.102 L407.388 351.794 L418.434 373.858 L429.48 353.856 L440.526 378.255 L451.572 331.504 L462.618 293.256 L473.663 372.788 L484.709 382.902 L495.755 395.646 L506.801 426.711 L517.847 362.303 L528.893 333.909 L539.938 336.876 L550.984 352.608 L562.03 310.396 L573.076 376.561 L584.122 331.643 L595.168 313.393 L606.213 315.395 L617.259 339.486 L628.305 289.81 L639.351 281.597 L650.397 249.477 L661.443 289.777 L672.488 330.246 L683.534 362.364 L694.58 300.489 L705.626 329.629 L716.672 323.4 L727.717 378.801 L738.763 394.765 L749.809 377.82 L760.855 390.681 L771.901 377.453 L782.947 355.462 L793.992 362.639 L805.038 348.017 L816.084 325.96 L827.13 338.195 L838.176 358.116 L849.222 285.68 L860.267 275.985 L871.313 236.675 L880.444 240.749 "/>
  <path stroke-width="0.000000" stroke="#000000" fill="none" d="M88.6795 426.711 L880.444 426.711 "/>
  <path stroke-width="0.000000" stroke="#000000" fill="none" d="M88.6795 421.378 L88.6795 426.711 "/>
  <path stroke-width="0.000000" stroke="#000000" fill="none" d="M167.856 421.378 L167.856 426.711 "/>
  <path stroke-width="0.000000" stroke="#000000" fill="none" d="M247.033 421.378 L247.033 426.711 "/>
  <path stroke-width="0.000000" stroke="#000000" fill="none" d="M326.209 421.378 L326.209 426.711 "/>
  <path stroke-width="0.000000" stroke="#000000" fill="none" d="M405.385 421.378 L405.385 426.711 "/>
  <path stroke-width="0.000000" stroke="#000000" fill="none" d="M484.562 421.378 L484.562 426.711 "/>
  <path stroke-width="0.000000" stroke="#000000" fill="none" d="M563.738 421.378 L563.738 426.711 "/>
  <path stroke-width="0.000000" stroke="#000000" fill="none" d="M642.915 421.378 L642.915 426.711 "/>
  <path stroke-width="0.000000" stroke="#000000" fill="none" d="M722.091 421.378 L722.091 426.711 "/>
  <path stroke-width="0.000000" stroke="#000000" fill="none" d="M801.268 421.378 L801.268 426.711 "/>
  <path stroke-width="0.000000" stroke="#000000" fill="none" d="M880.444 421.378 L880.444 426.711 "/>
  <text x="58.601389" y="455.444444" fill="#000000" font-size="14.666667" font-family="'Comic Sans MS'" font-weight="400.000000">05:15:44</text>
  <text x="137.777883" y="455.444444" fill="#000000" font-size="14.666667" font-family="'Comic Sans MS'" font-weight="400.000000">05:51:34</text>
  <text x="215.782502" y="455.444444" fill="#000000" font-size="14.666667" font-family="'Comic Sans MS'" font-weight="400.000000">06:27:24</text>
  <text x="296.130877" y="455.444444" fill="#000000" font-size="14.666667" font-family="'Comic Sans MS'" font-weight="400.000000">07:03:15</text>
  <text x="374.135491" y="455.444444" fill="#000000" font-size="14.666667" font-family="'Comic Sans MS'" font-weight="400.000000">07:39:05</text>
  <text x="454.483854" y="455.444444" fill="#000000" font-size="14.666667" font-family="'Comic Sans MS'" font-weight="400.000000">08:14:56</text>
  <text x="532.488491" y="455.444444" fill="#000000" font-size="14.666667" font-family="'Comic Sans MS'" font-weight="400.000000">08:50:46</text>
  <text x="611.664956" y="455.444444" fill="#000000" font-size="14.666667" font-family="'Comic Sans MS'" font-weight="400.000000">09:26:36</text>
  <text x="692.013343" y="455.444444" fill="#000000" font-size="14.666667" font-family="'Comic Sans MS'" font-weight="400.000000">10:02:27</text>
  <text x="772.361730" y="455.444444" fill="#000000" font-size="14.666667" font-family="'Comic Sans MS'" font-weight="400.000000">10:38:17</text>
  <text x="852.710069" y="455.444444" fill="#000000" font-size="14.666667" font-family="'Comic Sans MS'" font-weight="400.000000">11:14:08</text>
  <path stroke-width="0.000000" stroke="#000000" fill="none" d="M88.6795 19.5556 L88.6795 426.711 "/>
  <path stroke-width="0.000000" stroke="#000000" fill="none" d="M88.6795 426.711 L94.0128 426.711 "/>
  <path stroke-width="0.000000" stroke="#000000" fill="none" d="M88.6795 385.996 L94.0128 385.996 "/>
  <path stroke-width="0.000000" stroke="#000000" fill="none" d="M88.6795 345.28 L94.0128 345.28 "/>
  <path stroke-width="0.000000" stroke="#000000" fill="none" d="M88.6795 304.564 L94.0128 304.564 "/>
  <path stroke-width="0.000000" stroke="#000000" fill="none" d="M88.6795 263.849 L94.0128 263.849 "/>
  <path stroke-width="0.000000" stroke="#000000" fill="none" d="M88.6795 223.133 L94.0128 223.133 "/>
  <path stroke-width="0.000000" stroke="#000000" fill="none" d="M88.6795 182.418 L94.0128 182.418 "/>
  <path stroke-width="0.000000" stroke="#000000" fill="none" d="M88.6795 141.702 L94.0128 141.702 "/>
  <path stroke-width="0.000000" stroke="#000000" fill="none" d="M88.6795 100.987 L94.0128 100.987 "/>
  <path stroke-width="0.000000" stroke="#000000" fill="none" d="M88.6795 60.2711 L94.0128 60.2711 "/>
  <path stroke-width="0.000000" stroke="#000000" fill="none" d="M88.6795 19.5556 L94.0128 19.5556 "/>
  <text x="19.555556" y="432.711111" fill="#000000" font-size="14.666667" font-family="'Comic Sans MS'" font-weight="400.000000">7.3 × 10⁶</text>
  <text x="19.555556" y="391.995555" fill="#000000" font-size="14.666667" font-family="'Comic Sans MS'" font-weight="400.000000">7.4 × 10⁶</text>
  <text x="19.555556" y="351.279999" fill="#000000" font-size="14.666667" font-family="'Comic Sans MS'" font-weight="400.000000">7.6 × 10⁶</text>
  <text x="19.555556" y="310.564440" fill="#000000" font-size="14.666667" font-family="'Comic Sans MS'" font-weight="400.000000">7.7 × 10⁶</text>
  <text x="19.555556" y="269.848886" fill="#000000" font-size="14.666667" font-family="'Comic Sans MS'" font-weight="400.000000">7.8 × 10⁶</text>
  <text x="19.555556" y="229.133333" fill="#000000" font-size="14.666667" font-family="'Comic Sans MS'" font-weight="400.000000">8.0 × 10⁶</text>
  <text x="21.899306" y="188.417768" fill="#000000" font-size="14.666667" font-family="'Comic Sans MS'" font-weight="400.000000">8.1 × 10⁶</text>
  <text x="19.555556" y="147.702227" fill="#000000" font-size="14.666667" font-family="'Comic Sans MS'" font-weight="400.000000">8.2 × 10⁶</text>
  <text x="19.555556" y="106.986662" fill="#000000" font-size="14.666667" font-family="'Comic Sans MS'" font-weight="400.000000">8.4 × 10⁶</text>
  <text x="19.555556" y="66.271097" fill="#000000" font-size="14.666667" font-family="'Comic Sans MS'" font-weight="400.000000">8.5 × 10⁶</text>
  <text x="19.555556" y="25.555556" fill="#000000" font-size="14.666667" font-family="'Comic Sans MS'" font-weight="400.000000">8.6 × 10⁶</text>
</svg>