<svg xmlns="http://www.w3.org/2000/svg" width="900.000000" height="480.000000" viewBox="0 0 900 480">
  <rect width="900.000000" height="480.000000" fill="#ffffff"/>
  <path stroke-width="2.000000" stroke="#0066cc" fill="none" d="M63.1031 109.346 L72.8916 101.459 L84.3624 38.1879 L95.8333 41.0519 L107.304 54.3828 L118.775 24.0051 L130.246 21.7932 L141.717 40.9924 L153.187 59.0319 L164.658 22.4594 L176.129 44.635 L187.6 36.2254 L199.071 84.4443 L210.542 69.0756 L222.013 48.689 L233.483 72.271 L244.954 44.8001 L256.425 33.0974 L267.896 23.469 L279.367 23.0861 L290.838 23.1342 L302.308 67.1558 L313.779 235.126 L325.25 363.074 L336.721 357.046 L348.192 346.061 L359.663 196.688 L371.134 156.802 L382.604 81.7262 L394.075 42.7921 L405.546 29.0761 L417.017 32.6792 L428.488 28.2955 L439.959 32.6528 L451.429 75.9137 L462.9 79.6991 L474.371 81.2332 L485.842 98.1061 L497.313 90.3499 L508.784 77.042 L520.255 83.3489 L531.725 104.895 L543.196 138.23 L554.667 134.454 L566.138 156.373 L577.609 121.8 L589.08 106.376 L600.55 70.6691 L612.021 89.2376 L623.492 150.752 L634.963 162.565 L646.434 132.955 L657.905 126.82 L669.376 135.287 L680.846 150.992 L692.317 88.6634 L703.788 68.4265 L715.259 124.126 L726.73 87.8849 L738.201 47.4435 L749.671 51.667 L761.142 93.5785 L772.613 62.4347 L784.084 59.1113 L795.555 52.8959 L807.026 59.4787 L818.497 53.2568 L829.967 76.5437 L841.438 56.1453 L852.909 68.8805 L864.38 81.6444 L875.851 70.3413 L885.333 47.6953 "/>
  <path stroke-width="1.333333" stroke="#000000" fill="none" d="M63.1031 435.6 L885.333 435.6 "/>
  <path stroke-width="1.333333" stroke="#000000" fill="none" d="M63.1031 430.267 L63.1031 435.6 "/>
  <path stroke-width="1.333333" stroke="#000000" fill="none" d="M200.141 430.267 L200.141 435.6 "/>
  <path stroke-width="1.333333" stroke="#000000" fill="none" d="M337.18 430.267 L337.18 435.6 "/>
  <path stroke-width="1.333333" stroke="#000000" fill="none" d="M474.218 430.267 L474.218 435.6 "/>
  <path stroke-width="1.333333" stroke="#000000" fill="none" d="M611.257 430.267 L611.257 435.6 "/>
  <path stroke-width="1.333333" stroke="#000000" fill="none" d="M748.295 430.267 L748.295 435.6 "/>
  <path stroke-width="1.333333" stroke="#000000" fill="none" d="M885.333 430.267 L885.333 435.6 "/>
  <text x="34.556250" y="461.333333" fill="#000000" font-size="14.666667" font-family="Arial,Helvetica,'Helvetica Neue',sans-serif" font-weight="500.000000">05:15:44</text>
  <text x="171.594622" y="461.333333" fill="#000000" font-size="14.666667" font-family="Arial,Helvetica,'Helvetica Neue',sans-serif" font-weight="500.000000">06:15:28</text>
  <text x="308.632994" y="461.333333" fill="#000000" font-size="14.666667" font-family="Arial,Helvetica,'Helvetica Neue',sans-serif" font-weight="500.000000">07:15:12</text>
  <text x="445.671354" y="461.333333" fill="#000000" font-size="14.666667" font-family="Arial,Helvetica,'Helvetica Neue',sans-serif" font-weight="500.000000">08:14:56</text>
  <text x="582.709739" y="461.333333" fill="#000000" font-size="14.666667" font-family="Arial,Helvetica,'Helvetica Neue',sans-serif" font-weight="500.000000">09:14:40</text>
  <text x="719.748123" y="461.333333" fill="#000000" font-size="14.666667" font-family="Arial,Helvetica,'Helvetica Neue',sans-serif" font-weight="500.000000">10:14:24</text>
  <text x="856.786458" y="461.333333" fill="#000000" font-size="14.666667" font-family="Arial,Helvetica,'Helvetica Neue',sans-serif" font-weight="500.000000">11:14:08</text>
  <path stroke-width="1.333333" stroke="#000000" fill="none" d="M63.1031 14.6667 L63.1031 435.6 "/>
  <path stroke-width="1.333333" stroke="#000000" fill="none" d="M63.1031 14.6667 L68.4365 14.6667 "/>
  <path stroke-width="1.333333" stroke="#000000" fill="none" d="M63.1031 74.8 L68.4365 74.8 "/>
  <path stroke-width="1.333333" stroke="#000000" fill="none" d="M63.1031 134.933 L68.4365 134.933 "/>
  <path stroke-width="1.333333" stroke="#000000" fill="none" d="M63.1031 195.067 L68.4365 195.067 "/>
  <path stroke-width="1.333333" stroke="#000000" fill="none" d="M63.1031 255.2 L68.4365 255.2 "/>
  <path stroke-width="1.333333" stroke="#000000" fill="none" d="M63.1031 315.333 L68.4365 315.333 "/>
  <path stroke-width="1.333333" stroke="#000000" fill="none" d="M63.1031 375.467 L68.4365 375.467 "/>
  <path stroke-width="1.333333" stroke="#000000" fill="none" d="M63.1031 435.6 L68.4365 435.6 "/>
  <text x="30.979167" y="19.666667" fill="#000000" font-size="14.666667" font-family="Arial,Helvetica,'Helvetica Neue',sans-serif" font-weight="500.000000">0.0</text>
  <text x="22.822917" y="79.800000" fill="#000000" font-size="14.666667" font-family="Arial,Helvetica,'Helvetica Neue',sans-serif" font-weight="500.000000">20.0</text>
  <text x="22.822917" y="139.933333" fill="#000000" font-size="14.666667" font-family="Arial,Helvetica,'Helvetica Neue',sans-serif" font-weight="500.000000">40.0</text>
  <text x="22.822917" y="200.066667" fill="#000000" font-size="14.666667" font-family="Arial,Helvetica,'Helvetica Neue',sans-serif" font-weight="500.000000">60.0</text>
  <text x="22.822917" y="260.200000" fill="#000000" font-size="14.666667" font-family="Arial,Helvetica,'Helvetica Neue',sans-serif" font-weight="500.000000">80.0</text>
  <text x="14.666667" y="320.333333" fill="#000000" font-size="14.666667" font-family="Arial,Helvetica,'Helvetica Neue',sans-serif" font-weight="500.000000">100.0</text>
  <text x="14.666667" y="380.466667" fill="#000000" font-size="14.666667" font-family="Arial,Helvetica,'Helvetica Neue',sans-serif" font-weight="500.000000">120.0</text>
  <text x="14.666667" y="440.600000" fill="#000000" font-size="14.666667" font-family="Arial,Helvetica,'Helvetica Neue',sans-serif" font-weight="500.000000">140.0</text>
</svg>