<svg xmlns="http://www.w3.org/2000/svg" width="900.000000" height="480.000000" viewBox="0 0 900 480">
  <rect width="900.000000" height="480.000000" fill="#ffffff"/>
  <path stroke-width="2.000000" stroke="#0066cc" fill="none" d="M108.396 112.884 L156.955 187.717 L399.748 290.612 L569.703 183.04 L593.982 388.83 L642.54 379.476 "/>
  <path fill="#0066cc" d="M112.396 112.884 M104.396 112.884 a4 4 0 1 0 8 0 a4 4 0 1 0 -8 0 "/>
  <path fill="#0066cc" d="M160.955 187.717 M152.955 187.717 a4 4 0 1 0 8 0 a4 4 0 1 0 -8 0 "/>
  <path fill="#0066cc" d="M403.748 290.612 M395.748 290.612 a4 4 0 1 0 8 0 a4 4 0 1 0 -8 0 "/>
  <path fill="#0066cc" d="M573.703 183.04 M565.703 183.04 a4 4 0 1 0 8 0 a4 4 0 1 0 -8 0 "/>
  <path fill="#0066cc" d="M597.982 388.83 M589.982 388.83 a4 4 0 1 0 8 0 a4 4 0 1 0 -8 0 "/>
  <path fill="#0066cc" d="M646.54 379.476 M638.54 379.476 a4 4 0 1 0 8 0 a4 4 0 1 0 -8 0 "/>
  <path stroke-width="2.000000" stroke="#cc0066" fill="none" d="M156.955 112.884 L399.748 356.09 L642.54 70.7911 L691.099 360.767 L763.937 154.978 L836.775 117.561 "/>
  <path fill="#cc0066" d="M160.955 112.884 M152.955 112.884 a4 4 0 1 0 8 0 a4 4 0 1 0 -8 0 "/>
  <path fill="#cc0066" d="M403.748 356.09 M395.748 356.09 a4 4 0 1 0 8 0 a4 4 0 1 0 -8 0 "/>
  <path fill="#cc0066" d="M646.54 70.7911 M638.54 70.7911 a4 4 0 1 0 8 0 a4 4 0 1 0 -8 0 "/>
  <path fill="#cc0066" d="M695.099 360.767 M687.099 360.767 a4 4 0 1 0 8 0 a4 4 0 1 0 -8 0 "/>
  <path fill="#cc0066" d="M767.937 154.978 M759.937 154.978 a4 4 0 1 0 8 0 a4 4 0 1 0 -8 0 "/>
  <path fill="#cc0066" d="M840.775 117.561 M832.775 117.561 a4 4 0 1 0 8 0 a4 4 0 1 0 -8 0 "/>
  <path fill="#ffffff" d="M74.5042 357.067 L175.424 357.067 L175.424 420.933 L74.5042 420.933 L74.5042 357.067 "/>
  <path stroke-width="1.000000" stroke="#000000" fill="none" d="M74.5042 357.067 L175.424 357.067 "/>
  <path stroke-width="1.000000" stroke="#000000" fill="none" d="M175.424 357.067 L175.424 420.933 "/>
  <path stroke-width="1.000000" stroke="#000000" fill="none" d="M74.5042 420.933 L175.424 420.933 "/>
  <path stroke-width="1.000000" stroke="#000000" fill="none" d="M74.5042 357.067 L74.5042 420.933 "/>
  <text x="105.304167" y="382.800000" fill="#000000" font-size="14.666667" font-family="Arial,Helvetica,'Helvetica Neue',sans-serif" font-weight="500.000000">Series A</text>
  <path fill="#0066cc" d="M96.8708 377.8 M85.8708 377.8 a5.5 5.5 0 1 0 11 0 a5.5 5.5 0 1 0 -11 0 "/>
  <text x="105.304167" y="405.200000" fill="#000000" font-size="14.666667" font-family="Arial,Helvetica,'Helvetica Neue',sans-serif" font-weight="500.000000">Series B</text>
  <path fill="#cc0066" d="M96.8708 400.2 M85.8708 400.2 a5.5 5.5 0 1 0 11 0 a5.5 5.5 0 1 0 -11 0 "/>
  <path stroke-width="1.333333" stroke="#000000" fill="none" d="M59.8375 435.6 L885.333 435.6 "/>
  <path stroke-width="1.333333" stroke="#000000" fill="none" d="M59.8375 430.267 L59.8375 435.6 "/>
  <path stroke-width="1.333333" stroke="#000000" fill="none" d="M142.387 430.267 L142.387 435.6 "/>
  <path stroke-width="1.333333" stroke="#000000" fill="none" d="M224.937 430.267 L224.937 435.6 "/>
  <path stroke-width="1.333333" stroke="#000000" fill="none" d="M307.486 430.267 L307.486 435.6 "/>
  <path stroke-width="1.333333" stroke="#000000" fill="none" d="M390.036 430.267 L390.036 435.6 "/>
  <path stroke-width="1.333333" stroke="#000000" fill="none" d="M472.585 430.267 L472.585 435.6 "/>
  <path stroke-width="1.333333" stroke="#000000" fill="none" d="M555.135 430.267 L555.135 435.6 "/>
  <path stroke-width="1.333333" stroke="#000000" fill="none" d="M637.685 430.267 L637.685 435.6 "/>
  <path stroke-width="1.333333" stroke="#000000" fill="none" d="M720.234 430.267 L720.234 435.6 "/>
  <path stroke-width="1.333333" stroke="#000000" fill="none" d="M802.784 430.267 L802.784 435.6 "/>
  <path stroke-width="1.333333" stroke="#000000" fill="none" d="M885.333 430.267 L885.333 435.6 "/>
  <text x="43.118750" y="461.333333" fill="#000000" font-size="14.666667" font-family="Arial,Helvetica,'Helvetica Neue',sans-serif" font-weight="500.000000">-12.0</text>
  <text x="129.746460" y="461.333333" fill="#000000" font-size="14.666667" font-family="Arial,Helvetica,'Helvetica Neue',sans-serif" font-weight="500.000000">-8.6</text>
  <text x="212.296044" y="461.333333" fill="#000000" font-size="14.666667" font-family="Arial,Helvetica,'Helvetica Neue',sans-serif" font-weight="500.000000">-5.2</text>
  <text x="294.845635" y="461.333333" fill="#000000" font-size="14.666667" font-family="Arial,Helvetica,'Helvetica Neue',sans-serif" font-weight="500.000000">-1.8</text>
  <text x="379.840526" y="461.333333" fill="#000000" font-size="14.666667" font-family="Arial,Helvetica,'Helvetica Neue',sans-serif" font-weight="500.000000">1.6</text>
  <text x="462.390104" y="461.333333" fill="#000000" font-size="14.666667" font-family="Arial,Helvetica,'Helvetica Neue',sans-serif" font-weight="500.000000">5.0</text>
  <text x="544.939707" y="461.333333" fill="#000000" font-size="14.666667" font-family="Arial,Helvetica,'Helvetica Neue',sans-serif" font-weight="500.000000">8.4</text>
  <text x="623.411136" y="461.333333" fill="#000000" font-size="14.666667" font-family="Arial,Helvetica,'Helvetica Neue',sans-serif" font-weight="500.000000">11.8</text>
  <text x="705.960739" y="461.333333" fill="#000000" font-size="14.666667" font-family="Arial,Helvetica,'Helvetica Neue',sans-serif" font-weight="500.000000">15.2</text>
  <text x="788.510342" y="461.333333" fill="#000000" font-size="14.666667" font-family="Arial,Helvetica,'Helvetica Neue',sans-serif" font-weight="500.000000">18.6</text>
  <text x="871.059896" y="461.333333" fill="#000000" font-size="14.666667" font-family="Arial,Helvetica,'Helvetica Neue',sans-serif" font-weight="500.000000">22.0</text>
  <path stroke-width="1.333333" stroke="#000000" fill="none" d="M59.8375 14.6667 L59.8375 435.6 "/>
  <path stroke-width="1.333333" stroke="#000000" fill="none" d="M59.8375 435.6 L65.1708 435.6 "/>
  <path stroke-width="1.333333" stroke="#000000" fill="none" d="M59.8375 393.507 L65.1708 393.507 "/>
  <path stroke-width="1.333333" stroke="#000000" fill="none" d="M59.8375 351.413 L65.1708 351.413 "/>
  <path stroke-width="1.333333" stroke="#000000" fill="none" d="M59.8375 309.32 L65.1708 309.32 "/>
  <path stroke-width="1.333333" stroke="#000000" fill="none" d="M59.8375 267.227 L65.1708 267.227 "/>
  <path stroke-width="1.333333" stroke="#000000" fill="none" d="M59.8375 225.133 L65.1708 225.133 "/>
  <path stroke-width="1.333333" stroke="#000000" fill="none" d="M59.8375 183.04 L65.1708 183.04 "/>
  <path stroke-width="1.333333" stroke="#000000" fill="none" d="M59.8375 140.947 L65.1708 140.947 "/>
  <path stroke-width="1.333333" stroke="#000000" fill="none" d="M59.8375 98.8533 L65.1708 98.8533 "/>
  <path stroke-width="1.333333" stroke="#000000" fill="none" d="M59.8375 56.76 L65.1708 56.76 "/>
  <path stroke-width="1.333333" stroke="#000000" fill="none" d="M59.8375 14.6667 L65.1708 14.6667 "/>
  <text x="14.666667" y="440.600000" fill="#000000" font-size="14.666667" font-family="Arial,Helvetica,'Helvetica Neue',sans-serif" font-weight="500.000000">-35.0</text>
  <text x="14.666667" y="398.506666" fill="#000000" font-size="14.666667" font-family="Arial,Helvetica,'Helvetica Neue',sans-serif" font-weight="500.000000">-26.0</text>
  <text x="14.666667" y="356.413332" fill="#000000" font-size="14.666667" font-family="Arial,Helvetica,'Helvetica Neue',sans-serif" font-weight="500.000000">-17.0</text>
  <text x="22.822917" y="314.319995" fill="#000000" font-size="14.666667" font-family="Arial,Helvetica,'Helvetica Neue',sans-serif" font-weight="500.000000">-8.0</text>
  <text x="27.713542" y="272.226664" fill="#000000" font-size="14.666667" font-family="Arial,Helvetica,'Helvetica Neue',sans-serif" font-weight="500.000000">1.0</text>
  <text x="19.557292" y="230.133333" fill="#000000" font-size="14.666667" font-family="Arial,Helvetica,'Helvetica Neue',sans-serif" font-weight="500.000000">10.0</text>
  <text x="19.557292" y="188.039990" fill="#000000" font-size="14.666667" font-family="Arial,Helvetica,'Helvetica Neue',sans-serif" font-weight="500.000000">19.0</text>
  <text x="19.557292" y="145.946672" fill="#000000" font-size="14.666667" font-family="Arial,Helvetica,'Helvetica Neue',sans-serif" font-weight="500.000000">28.0</text>
  <text x="19.557292" y="103.853328" fill="#000000" font-size="14.666667" font-family="Arial,Helvetica,'Helvetica Neue',sans-serif" font-weight="500.000000">37.0</text>
  <text x="19.557292" y="61.759985" fill="#000000" font-size="14.666667" font-family="Arial,Helvetica,'Helvetica Neue',sans-serif" font-weight="500.000000">46.0</text>
  <text x="19.557292" y="19.666667" fill="#000000" font-size="14.666667" font-family="Arial,Helvetica,'Helvetica Neue',sans-serif" font-weight="500.000000">55.0</text>
</svg>