<svg xmlns="http://www.w3.org/2000/svg" width="900.000000" height="480.000000" viewBox="0 0 900 480">
  <rect width="900.000000" height="480.000000" fill="#ffffff"/>
  <path stroke-width="2.000000" stroke="#0066cc" fill="none" d="M112.71 115.492 L160.693 188.586 L400.61 289.091 L568.552 184.018 L592.544 385.027 L640.527 375.89 "/>
  <path fill="#0066cc" d="M116.71 115.492 M108.71 115.492 a4 4 0 1 0 8 0 a4 4 0 1 0 -8 0 "/>
  <path fill="#0066cc" d="M164.693 188.586 M156.693 188.586 a4 4 0 1 0 8 0 a4 4 0 1 0 -8 0 "/>
  <path fill="#0066cc" d="M404.61 289.091 M396.61 289.091 a4 4 0 1 0 8 0 a4 4 0 1 0 -8 0 "/>
  <path fill="#0066cc" d="M572.552 184.018 M564.552 184.018 a4 4 0 1 0 8 0 a4 4 0 1 0 -8 0 "/>
  <path fill="#0066cc" d="M596.544 385.027 M588.544 385.027 a4 4 0 1 0 8 0 a4 4 0 1 0 -8 0 "/>
  <path fill="#0066cc" d="M644.527 375.89 M636.527 375.89 a4 4 0 1 0 8 0 a4 4 0 1 0 -8 0 "/>
  <path stroke-width="2.000000" stroke="#cc0066" fill="none" d="M160.693 115.492 L400.61 353.048 L640.527 74.3763 L688.511 357.617 L760.486 156.607 L832.461 120.06 "/>
  <path fill="#cc0066" d="M164.693 115.492 M156.693 115.492 a4 4 0 1 0 8 0 a4 4 0 1 0 -8 0 "/>
  <path fill="#cc0066" d="M404.61 353.048 M396.61 353.048 a4 4 0 1 0 8 0 a4 4 0 1 0 -8 0 "/>
  <path fill="#cc0066" d="M644.527 74.3763 M636.527 74.3763 a4 4 0 1 0 8 0 a4 4 0 1 0 -8 0 "/>
  <path fill="#cc0066" d="M692.511 357.617 M684.511 357.617 a4 4 0 1 0 8 0 a4 4 0 1 0 -8 0 "/>
  <path fill="#cc0066" d="M764.486 156.607 M756.486 156.607 a4 4 0 1 0 8 0 a4 4 0 1 0 -8 0 "/>
  <path fill="#cc0066" d="M836.461 120.06 M828.461 120.06 a4 4 0 1 0 8 0 a4 4 0 1 0 -8 0 "/>
  <path fill="#ffffff" d="M84.2819 338 L200.357 338 L200.357 411.156 L84.2819 411.156 L84.2819 338 "/>
  <path stroke-width="1.000000" stroke="#333333" fill="none" d="M84.2819 338 L200.357 338 "/>
  <path stroke-width="1.000000" stroke="#333333" fill="none" d="M200.357 338 L200.357 411.156 "/>
  <path stroke-width="1.000000" stroke="#333333" fill="none" d="M84.2819 411.156 L200.357 411.156 "/>
  <path stroke-width="1.000000" stroke="#333333" fill="none" d="M84.2819 338 L84.2819 411.156 "/>
  <text x="125.348611" y="367.644444" fill="#333333" font-size="14.666667" font-family="Arial,Helvetica,'Helvetica Neue',sans-serif" font-weight="500.000000">Series A</text>
  <path fill="#0066cc" d="M112.271 362.644 M101.271 362.644 a5.5 5.5 0 1 0 11 0 a5.5 5.5 0 1 0 -11 0 "/>
  <text x="125.348611" y="391.511111" fill="#333333" font-size="14.666667" font-family="Arial,Helvetica,'Helvetica Neue',sans-serif" font-weight="500.000000">Series B</text>
  <path fill="#cc0066" d="M112.271 386.511 M101.271 386.511 a5.5 5.5 0 1 0 11 0 a5.5 5.5 0 1 0 -11 0 "/>
  <path stroke-width="1.333333" stroke="#333333" fill="none" d="M64.7264 430.711 L880.444 430.711 "/>
  <path stroke-width="1.333333" stroke="#333333" fill="none" d="M64.7264 425.378 L64.7264 430.711 "/>
  <path stroke-width="1.333333" stroke="#333333" fill="none" d="M146.298 425.378 L146.298 430.711 "/>
  <path stroke-width="1.333333" stroke="#333333" fill="none" d="M227.87 425.378 L227.87 430.711 "/>
  <path stroke-width="1.333333" stroke="#333333" fill="none" d="M309.442 425.378 L309.442 430.711 "/>
  <path stroke-width="1.333333" stroke="#333333" fill="none" d="M391.014 425.378 L391.014 430.711 "/>
  <path stroke-width="1.333333" stroke="#333333" fill="none" d="M472.585 425.378 L472.585 430.711 "/>
  <path stroke-width="1.333333" stroke="#333333" fill="none" d="M554.157 425.378 L554.157 430.711 "/>
  <path stroke-width="1.333333" stroke="#333333" fill="none" d="M635.729 425.378 L635.729 430.711 "/>
  <path stroke-width="1.333333" stroke="#333333" fill="none" d="M717.301 425.378 L717.301 430.711 "/>
  <path stroke-width="1.333333" stroke="#333333" fill="none" d="M798.873 425.378 L798.873 430.711 "/>
  <path stroke-width="1.333333" stroke="#333333" fill="none" d="M880.444 425.378 L880.444 430.711 "/>
  <text x="48.007639" y="456.444444" fill="#333333" font-size="14.666667" font-family="Arial,Helvetica,'Helvetica Neue',sans-serif" font-weight="500.000000">-12.0</text>
  <text x="133.657571" y="456.444444" fill="#333333" font-size="14.666667" font-family="Arial,Helvetica,'Helvetica Neue',sans-serif" font-weight="500.000000">-8.6</text>
  <text x="215.229377" y="456.444444" fill="#333333" font-size="14.666667" font-family="Arial,Helvetica,'Helvetica Neue',sans-serif" font-weight="500.000000">-5.2</text>
  <text x="296.801190" y="456.444444" fill="#333333" font-size="14.666667" font-family="Arial,Helvetica,'Helvetica Neue',sans-serif" font-weight="500.000000">-1.8</text>
  <text x="380.818303" y="456.444444" fill="#333333" font-size="14.666667" font-family="Arial,Helvetica,'Helvetica Neue',sans-serif" font-weight="500.000000">1.6</text>
  <text x="462.390104" y="456.444444" fill="#333333" font-size="14.666667" font-family="Arial,Helvetica,'Helvetica Neue',sans-serif" font-weight="500.000000">5.0</text>
  <text x="543.961929" y="456.444444" fill="#333333" font-size="14.666667" font-family="Arial,Helvetica,'Helvetica Neue',sans-serif" font-weight="500.000000">8.4</text>
  <text x="622.002456" y="456.444444" fill="#333333" font-size="14.666667" font-family="Arial,Helvetica,'Helvetica Neue',sans-serif" font-weight="500.000000">11.8</text>
  <text x="703.027406" y="456.444444" fill="#333333" font-size="14.666667" font-family="Arial,Helvetica,'Helvetica Neue',sans-serif" font-weight="500.000000">15.2</text>
  <text x="784.599231" y="456.444444" fill="#333333" font-size="14.666667" font-family="Arial,Helvetica,'Helvetica Neue',sans-serif" font-weight="500.000000">18.6</text>
  <text x="866.171007" y="456.444444" fill="#333333" font-size="14.666667" font-family="Arial,Helvetica,'Helvetica Neue',sans-serif" font-weight="500.000000">22.0</text>
  <path stroke-width="1.333333" stroke="#333333" fill="none" d="M64.7264 19.5556 L64.7264 430.711 "/>
  <path stroke-width="1.333333" stroke="#333333" fill="none" d="M64.7264 430.711 L70.0597 430.711 "/>
  <path stroke-width="1.333333" stroke="#333333" fill="none" d="M64.7264 389.596 L70.0597 389.596 "/>
  <path stroke-width="1.333333" stroke="#333333" fill="none" d="M64.7264 348.48 L70.0597 348.48 "/>
  <path stroke-width="1.333333" stroke="#333333" fill="none" d="M64.7264 307.364 L70.0597 307.364 "/>
  <path stroke-width="1.333333" stroke="#333333" fill="none" d="M64.7264 266.249 L70.0597 266.249 "/>
  <path stroke-width="1.333333" stroke="#333333" fill="none" d="M64.7264 225.133 L70.0597 225.133 "/>
  <path stroke-width="1.333333" stroke="#333333" fill="none" d="M64.7264 184.018 L70.0597 184.018 "/>
  <path stroke-width="1.333333" stroke="#333333" fill="none" d="M64.7264 142.902 L70.0597 142.902 "/>
  <path stroke-width="1.333333" stroke="#333333" fill="none" d="M64.7264 101.787 L70.0597 101.787 "/>
  <path stroke-width="1.333333" stroke="#333333" fill="none" d="M64.7264 60.6711 L70.0597 60.6711 "/>
  <path stroke-width="1.333333" stroke="#333333" fill="none" d="M64.7264 19.5556 L70.0597 19.5556 "/>
  <text x="19.555556" y="435.711111" fill="#333333" font-size="14.666667" font-family="Arial,Helvetica,'Helvetica Neue',sans-serif" font-weight="500.000000">-35.0</text>
  <text x="19.555556" y="394.595555" fill="#333333" font-size="14.666667" font-family="Arial,Helvetica,'Helvetica Neue',sans-serif" font-weight="500.000000">-26.0</text>
  <text x="19.555556" y="353.479999" fill="#333333" font-size="14.666667" font-family="Arial,Helvetica,'Helvetica Neue',sans-serif" font-weight="500.000000">-17.0</text>
  <text x="27.711806" y="312.364440" fill="#333333" font-size="14.666667" font-family="Arial,Helvetica,'Helvetica Neue',sans-serif" font-weight="500.000000">-8.0</text>
  <text x="32.602431" y="271.248886" fill="#333333" font-size="14.666667" font-family="Arial,Helvetica,'Helvetica Neue',sans-serif" font-weight="500.000000">1.0</text>
  <text x="24.446181" y="230.133333" fill="#333333" font-size="14.666667" font-family="Arial,Helvetica,'Helvetica Neue',sans-serif" font-weight="500.000000">10.0</text>
  <text x="24.446181" y="189.017768" fill="#333333" font-size="14.666667" font-family="Arial,Helvetica,'Helvetica Neue',sans-serif" font-weight="500.000000">19.0</text>
  <text x="24.446181" y="147.902227" fill="#333333" font-size="14.666667" font-family="Arial,Helvetica,'Helvetica Neue',sans-serif" font-weight="500.000000">28.0</text>
  <text x="24.446181" y="106.786662" fill="#333333" font-size="14.666667" font-family="Arial,Helvetica,'Helvetica Neue',sans-serif" font-weight="500.000000">37.0</text>
  <text x="24.446181" y="65.671096" fill="#333333" font-size="14.666667" font-family="Arial,Helvetica,'Helvetica Neue',sans-serif" font-weight="500.000000">46.0</text>
  <text x="24.446181" y="24.555556" fill="#333333" font-size="14.666667" font-family="Arial,Helvetica,'Helvetica Neue',sans-serif" font-weight="500.000000">55.0</text>
</svg>