<svg xmlns="http://www.w3.org/2000/svg" width="900.000000" height="480.000000" viewBox="0 0 900 480">
  <rect width="900.000000" height="480.000000" fill="#ffffff"/>
  <path fill="#eeeeee" d="M84.3045 49.2889 L815.695 49.2889 L815.695 430.711 L84.3045 430.711 L84.3045 49.2889 "/>
  <path stroke-width="1.000000" stroke="#ffffff" fill="none" d="M84.3045 49.2889 L84.3045 430.711 "/>
  <path stroke-width="1.000000" stroke="#ffffff" fill="none" d="M157.444 49.2889 L157.444 430.711 "/>
  <path stroke-width="1.000000" stroke="#ffffff" fill="none" d="M230.583 49.2889 L230.583 430.711 "/>
  <path stroke-width="1.000000" stroke="#ffffff" fill="none" d="M303.722 49.2889 L303.722 430.711 "/>
  <path stroke-width="1.000000" stroke="#ffffff" fill="none" d="M376.861 49.2889 L376.861 430.711 "/>
  <path stroke-width="1.000000" stroke="#ffffff" fill="none" d="M450 49.2889 L450 430.711 "/>
  <path stroke-width="1.000000" stroke="#ffffff" fill="none" d="M523.139 49.2889 L523.139 430.711 "/>
  <path stroke-width="1.000000" stroke="#ffffff" fill="none" d="M596.278 49.2889 L596.278 430.711 "/>
  <path stroke-width="1.000000" stroke="#ffffff" fill="none" d="M669.417 49.2889 L669.417 430.711 "/>
  <path stroke-width="1.000000" stroke="#ffffff" fill="none" d="M742.556 49.2889 L742.556 430.711 "/>
  <path stroke-width="1.000000" stroke="#ffffff" fill="none" d="M815.695 49.2889 L815.695 430.711 "/>
  <path stroke-width="1.000000" stroke="#ffffff" fill="none" d="M84.3045 430.711 L815.695 430.711 "/>
  <path stroke-width="1.000000" stroke="#ffffff" fill="none" d="M84.3045 402.006 L815.695 402.006 "/>
  <path stroke-width="1.000000" stroke="#ffffff" fill="none" d="M84.3045 385.215 L815.695 385.215 "/>
  <path stroke-width="1.000000" stroke="#ffffff" fill="none" d="M84.3045 373.301 L815.695 373.301 "/>
  <path stroke-width="1.000000" stroke="#ffffff" fill="none" d="M84.3045 364.06 L815.695 364.06 "/>
  <path stroke-width="1.000000" stroke="#ffffff" fill="none" d="M84.3045 356.51 L815.695 356.51 "/>
  <path stroke-width="1.000000" stroke="#ffffff" fill="none" d="M84.3045 350.126 L815.695 350.126 "/>
  <path stroke-width="1.000000" stroke="#ffffff" fill="none" d="M84.3045 344.596 L815.695 344.596 "/>
  <path stroke-width="1.000000" stroke="#ffffff" fill="none" d="M84.3045 339.719 L815.695 339.719 "/>
  <path stroke-width="1.000000" stroke="#ffffff" fill="none" d="M84.3045 335.356 L815.695 335.356 "/>
  <path stroke-width="1.000000" stroke="#ffffff" fill="none" d="M84.3045 306.651 L815.695 306.651 "/>
  <path stroke-width="1.000000" stroke="#ffffff" fill="none" d="M84.3045 289.859 L815.695 289.859 "/>
  <path stroke-width="1.000000" stroke="#ffffff" fill="none" d="M84.3045 277.946 L815.695 277.946 "/>
  <path stroke-width="1.000000" stroke="#ffffff" fill="none" d="M84.3045 268.705 L815.695 268.705 "/>
  <path stroke-width="1.000000" stroke="#ffffff" fill="none" d="M84.3045 261.155 L815.695 261.155 "/>
  <path stroke-width="1.000000" stroke="#ffffff" fill="none" d="M84.3045 254.771 L815.695 254.771 "/>
  <path stroke-width="1.000000" stroke="#ffffff" fill="none" d="M84.3045 249.241 L815.695 249.241 "/>
  <path stroke-width="1.000000" stroke="#ffffff" fill="none" d="M84.3045 244.363 L815.695 244.363 "/>
  <path stroke-width="1.000000" stroke="#ffffff" fill="none" d="M84.3045 240 L815.695 240 "/>
  <path stroke-width="1.000000" stroke="#ffffff" fill="none" d="M84.3045 211.295 L815.695 211.295 "/>
  <path stroke-width="1.000000" stroke="#ffffff" fill="none" d="M84.3045 194.504 L815.695 194.504 "/>
  <path stroke-width="1.000000" stroke="#ffffff" fill="none" d="M84.3045 182.59 L815.695 182.59 "/>
  <path stroke-width="1.000000" stroke="#ffffff" fill="none" d="M84.3045 173.349 L815.695 173.349 "/>
  <path stroke-width="1.000000" stroke="#ffffff" fill="none" d="M84.3045 165.799 L815.695 165.799 "/>
  <path stroke-width="1.000000" stroke="#ffffff" fill="none" d="M84.3045 159.415 L815.695 159.415 "/>
  <path stroke-width="1.000000" stroke="#ffffff" fill="none" d="M84.3045 153.885 L815.695 153.885 "/>
  <path stroke-width="1.000000" stroke="#ffffff" fill="none" d="M84.3045 149.008 L815.695 149.008 "/>
  <path stroke-width="1.000000" stroke="#ffffff" fill="none" d="M84.3045 144.644 L815.695 144.644 "/>
  <path stroke-width="1.000000" stroke="#ffffff" fill="none" d="M84.3045 115.94 L815.695 115.94 "/>
  <path stroke-width="1.000000" stroke="#ffffff" fill="none" d="M84.3045 99.1483 L815.695 99.1483 "/>
  <path stroke-width="1.000000" stroke="#ffffff" fill="none" d="M84.3045 87.2347 L815.695 87.2347 "/>
  <path stroke-width="1.000000" stroke="#ffffff" fill="none" d="M84.3045 77.9938 L815.695 77.9938 "/>
  <path stroke-width="1.000000" stroke="#ffffff" fill="none" d="M84.3045 70.4434 L815.695 70.4434 "/>
  <path stroke-width="1.000000" stroke="#ffffff" fill="none" d="M84.3045 64.0597 L815.695 64.0597 "/>
  <path stroke-width="1.000000" stroke="#ffffff" fill="none" d="M84.3045 58.5298 L815.695 58.5298 "/>
  <path stroke-width="1.000000" stroke="#ffffff" fill="none" d="M84.3045 53.6521 L815.695 53.6521 "/>
  <path stroke-width="1.000000" stroke="#ffffff" fill="none" d="M84.3045 49.2889 L815.695 49.2889 "/>
  <path stroke-width="2.000000" stroke="#000000" fill="none" d="M84.3045 430.711 L267.152 335.356 L450 240 L632.848 144.644 L815.695 49.2889 "/>
  <path stroke-width="0.000000" stroke="#333333" fill="none" d="M84.3045 49.2889 L815.695 49.2889 "/>
  <path stroke-width="0.000000" stroke="#333333" fill="none" d="M84.3045 49.2889 L84.3045 54.6222 "/>
  <path stroke-width="0.000000" stroke="#333333" fill="none" d="M157.444 49.2889 L157.444 54.6222 "/>
  <path stroke-width="0.000000" stroke="#333333" fill="none" d="M230.583 49.2889 L230.583 54.6222 "/>
  <path stroke-width="0.000000" stroke="#333333" fill="none" d="M303.722 49.2889 L303.722 54.6222 "/>
  <path stroke-width="0.000000" stroke="#333333" fill="none" d="M376.861 49.2889 L376.861 54.6222 "/>
  <path stroke-width="0.000000" stroke="#333333" fill="none" d="M450 49.2889 L450 54.6222 "/>
  <path stroke-width="0.000000" stroke="#333333" fill="none" d="M523.139 49.2889 L523.139 54.6222 "/>
  <path stroke-width="0.000000" stroke="#333333" fill="none" d="M596.278 49.2889 L596.278 54.6222 "/>
  <path stroke-width="0.000000" stroke="#333333" fill="none" d="M669.417 49.2889 L669.417 54.6222 "/>
  <path stroke-width="0.000000" stroke="#333333" fill="none" d="M742.556 49.2889 L742.556 54.6222 "/>
  <path stroke-width="0.000000" stroke="#333333" fill="none" d="M815.695 49.2889 L815.695 54.6222 "/>
  <text x="74.109201" y="33.555556" fill="#333333" font-size="14.666667" font-family="Arial,Helvetica,'Helvetica Neue',sans-serif" font-weight="500.000000">1.0</text>
  <text x="147.248300" y="33.555556" fill="#333333" font-size="14.666667" font-family="Arial,Helvetica,'Helvetica Neue',sans-serif" font-weight="500.000000">1.4</text>
  <text x="220.387398" y="33.555556" fill="#333333" font-size="14.666667" font-family="Arial,Helvetica,'Helvetica Neue',sans-serif" font-weight="500.000000">1.8</text>
  <text x="293.526502" y="33.555556" fill="#333333" font-size="14.666667" font-family="Arial,Helvetica,'Helvetica Neue',sans-serif" font-weight="500.000000">2.2</text>
  <text x="366.665595" y="33.555556" fill="#333333" font-size="14.666667" font-family="Arial,Helvetica,'Helvetica Neue',sans-serif" font-weight="500.000000">2.6</text>
  <text x="439.804688" y="33.555556" fill="#333333" font-size="14.666667" font-family="Arial,Helvetica,'Helvetica Neue',sans-serif" font-weight="500.000000">3.0</text>
  <text x="512.943802" y="33.555556" fill="#333333" font-size="14.666667" font-family="Arial,Helvetica,'Helvetica Neue',sans-serif" font-weight="500.000000">3.4</text>
  <text x="586.082873" y="33.555556" fill="#333333" font-size="14.666667" font-family="Arial,Helvetica,'Helvetica Neue',sans-serif" font-weight="500.000000">3.8</text>
  <text x="659.221988" y="33.555556" fill="#333333" font-size="14.666667" font-family="Arial,Helvetica,'Helvetica Neue',sans-serif" font-weight="500.000000">4.2</text>
  <text x="732.361103" y="33.555556" fill="#333333" font-size="14.666667" font-family="Arial,Helvetica,'Helvetica Neue',sans-serif" font-weight="500.000000">4.6</text>
  <text x="805.500174" y="33.555556" fill="#333333" font-size="14.666667" font-family="Arial,Helvetica,'Helvetica Neue',sans-serif" font-weight="500.000000">5.0</text>
  <path stroke-width="0.000000" stroke="#333333" fill="none" d="M815.695 49.2889 L815.695 430.711 "/>
  <path stroke-width="0.000000" stroke="#333333" fill="none" d="M810.362 430.711 L815.695 430.711 "/>
  <path stroke-width="0.000000" stroke="#333333" fill="none" d="M810.362 402.006 L815.695 402.006 "/>
  <path stroke-width="0.000000" stroke="#333333" fill="none" d="M810.362 385.215 L815.695 385.215 "/>
  <path stroke-width="0.000000" stroke="#333333" fill="none" d="M810.362 373.301 L815.695 373.301 "/>
  <path stroke-width="0.000000" stroke="#333333" fill="none" d="M810.362 364.06 L815.695 364.06 "/>
  <path stroke-width="0.000000" stroke="#333333" fill="none" d="M810.362 356.51 L815.695 356.51 "/>
  <path stroke-width="0.000000" stroke="#333333" fill="none" d="M810.362 350.126 L815.695 350.126 "/>
  <path stroke-width="0.000000" stroke="#333333" fill="none" d="M810.362 344.596 L815.695 344.596 "/>
  <path stroke-width="0.000000" stroke="#333333" fill="none" d="M810.362 339.719 L815.695 339.719 "/>
  <path stroke-width="0.000000" stroke="#333333" fill="none" d="M810.362 335.356 L815.695 335.356 "/>
  <path stroke-width="0.000000" stroke="#333333" fill="none" d="M810.362 306.651 L815.695 306.651 "/>
  <path stroke-width="0.000000" stroke="#333333" fill="none" d="M810.362 289.859 L815.695 289.859 "/>
  <path stroke-width="0.000000" stroke="#333333" fill="none" d="M810.362 277.946 L815.695 277.946 "/>
  <path stroke-width="0.000000" stroke="#333333" fill="none" d="M810.362 268.705 L815.695 268.705 "/>
  <path stroke-width="0.000000" stroke="#333333" fill="none" d="M810.362 261.155 L815.695 261.155 "/>
  <path stroke-width="0.000000" stroke="#333333" fill="none" d="M810.362 254.771 L815.695 254.771 "/>
  <path stroke-width="0.000000" stroke="#333333" fill="none" d="M810.362 249.241 L815.695 249.241 "/>
  <path stroke-width="0.000000" stroke="#333333" fill="none" d="M810.362 244.363 L815.695 244.363 "/>
  <path stroke-width="0.000000" stroke="#333333" fill="none" d="M810.362 240 L815.695 240 "/>
  <path stroke-width="0.000000" stroke="#333333" fill="none" d="M810.362 211.295 L815.695 211.295 "/>
  <path stroke-width="0.000000" stroke="#333333" fill="none" d="M810.362 194.504 L815.695 194.504 "/>
  <path stroke-width="0.000000" stroke="#333333" fill="none" d="M810.362 182.59 L815.695 182.59 "/>
  <path stroke-width="0.000000" stroke="#333333" fill="none" d="M810.362 173.349 L815.695 173.349 "/>
  <path stroke-width="0.000000" stroke="#333333" fill="none" d="M810.362 165.799 L815.695 165.799 "/>
  <path stroke-width="0.000000" stroke="#333333" fill="none" d="M810.362 159.415 L815.695 159.415 "/>
  <path stroke-width="0.000000" stroke="#333333" fill="none" d="M810.362 153.885 L815.695 153.885 "/>
  <path stroke-width="0.000000" stroke="#333333" fill="none" d="M810.362 149.008 L815.695 149.008 "/>
  <path stroke-width="0.000000" stroke="#333333" fill="none" d="M810.362 144.644 L815.695 144.644 "/>
  <path stroke-width="0.000000" stroke="#333333" fill="none" d="M810.362 115.94 L815.695 115.94 "/>
  <path stroke-width="0.000000" stroke="#333333" fill="none" d="M810.362 99.1483 L815.695 99.1483 "/>
  <path stroke-width="0.000000" stroke="#333333" fill="none" d="M810.362 87.2347 L815.695 87.2347 "/>
  <path stroke-width="0.000000" stroke="#333333" fill="none" d="M810.362 77.9938 L815.695 77.9938 "/>
  <path stroke-width="0.000000" stroke="#333333" fill="none" d="M810.362 70.4434 L815.695 70.4434 "/>
  <path stroke-width="0.000000" stroke="#333333" fill="none" d="M810.362 64.0597 L815.695 64.0597 "/>
  <path stroke-width="0.000000" stroke="#333333" fill="none" d="M810.362 58.5298 L815.695 58.5298 "/>
  <path stroke-width="0.000000" stroke="#333333" fill="none" d="M810.362 53.6521 L815.695 53.6521 "/>
  <path stroke-width="0.000000" stroke="#333333" fill="none" d="M810.362 49.2889 L815.695 49.2889 "/>
  <text x="827.428819" y="435.711111" fill="#333333" font-size="14.666667" font-family="Arial,Helvetica,'Helvetica Neue',sans-serif" font-weight="500.000000">1.0</text>
  <text x="827.428819" y="340.355556" fill="#333333" font-size="14.666667" font-family="Arial,Helvetica,'Helvetica Neue',sans-serif" font-weight="500.000000">10.0</text>
  <text x="827.428819" y="245.000000" fill="#333333" font-size="14.666667" font-family="Arial,Helvetica,'Helvetica Neue',sans-serif" font-weight="500.000000">100.0</text>
  <text x="827.428819" y="149.644444" fill="#333333" font-size="14.666667" font-family="Arial,Helvetica,'Helvetica Neue',sans-serif" font-weight="500.000000">1000.0</text>
  <text x="827.428819" y="54.288889" fill="#333333" font-size="14.666667" font-family="Arial,Helvetica,'Helvetica Neue',sans-serif" font-weight="500.000000">10000.0</text>
  <path stroke-width="0.000000" stroke="#333333" fill="none" d="M84.3045 430.711 L815.695 430.711 "/>
  <path stroke-width="0.000000" stroke="#333333" fill="none" d="M84.3045 425.378 L84.3045 430.711 "/>
  <path stroke-width="0.000000" stroke="#333333" fill="none" d="M157.444 425.378 L157.444 430.711 "/>
  <path stroke-width="0.000000" stroke="#333333" fill="none" d="M230.583 425.378 L230.583 430.711 "/>
  <path stroke-width="0.000000" stroke="#333333" fill="none" d="M303.722 425.378 L303.722 430.711 "/>
  <path stroke-width="0.000000" stroke="#333333" fill="none" d="M376.861 425.378 L376.861 430.711 "/>
  <path stroke-width="0.000000" stroke="#333333" fill="none" d="M450 425.378 L450 430.711 "/>
  <path stroke-width="0.000000" stroke="#333333" fill="none" d="M523.139 425.378 L523.139 430.711 "/>
  <path stroke-width="0.000000" stroke="#333333" fill="none" d="M596.278 425.378 L596.278 430.711 "/>
  <path stroke-width="0.000000" stroke="#333333" fill="none" d="M669.417 425.378 L669.417 430.711 "/>
  <path stroke-width="0.000000" stroke="#333333" fill="none" d="M742.556 425.378 L742.556 430.711 "/>
  <path stroke-width="0.000000" stroke="#333333" fill="none" d="M815.695 425.378 L815.695 430.711 "/>
  <text x="74.109201" y="456.444444" fill="#333333" font-size="14.666667" font-family="Arial,Helvetica,'Helvetica Neue',sans-serif" font-weight="500.000000">1.0</text>
  <text x="147.248300" y="456.444444" fill="#333333" font-size="14.666667" font-family="Arial,Helvetica,'Helvetica Neue',sans-serif" font-weight="500.000000">1.4</text>
  <text x="220.387398" y="456.444444" fill="#333333" font-size="14.666667" font-family="Arial,Helvetica,'Helvetica Neue',sans-serif" font-weight="500.000000">1.8</text>
  <text x="293.526502" y="456.444444" fill="#333333" font-size="14.666667" font-family="Arial,Helvetica,'Helvetica Neue',sans-serif" font-weight="500.000000">2.2</text>
  <text x="366.665595" y="456.444444" fill="#333333" font-size="14.666667" font-family="Arial,Helvetica,'Helvetica Neue',sans-serif" font-weight="500.000000">2.6</text>
  <text x="439.804688" y="456.444444" fill="#333333" font-size="14.666667" font-family="Arial,Helvetica,'Helvetica Neue',sans-serif" font-weight="500.000000">3.0</text>
  <text x="512.943802" y="456.444444" fill="#333333" font-size="14.666667" font-family="Arial,Helvetica,'Helvetica Neue',sans-serif" font-weight="500.000000">3.4</text>
  <text x="586.082873" y="456.444444" fill="#333333" font-size="14.666667" font-family="Arial,Helvetica,'Helvetica Neue',sans-serif" font-weight="500.000000">3.8</text>
  <text x="659.221988" y="456.444444" fill="#333333" font-size="14.666667" font-family="Arial,Helvetica,'Helvetica Neue',sans-serif" font-weight="500.000000">4.2</text>
  <text x="732.361103" y="456.444444" fill="#333333" font-size="14.666667" font-family="Arial,Helvetica,'Helvetica Neue',sans-serif" font-weight="500.000000">4.6</text>
  <text x="805.500174" y="456.444444" fill="#333333" font-size="14.666667" font-family="Arial,Helvetica,'Helvetica Neue',sans-serif" font-weight="500.000000">5.0</text>
  <path stroke-width="0.000000" stroke="#333333" fill="none" d="M84.3045 49.2889 L84.3045 430.711 "/>
  <path stroke-width="0.000000" stroke="#333333" fill="none" d="M84.3045 430.711 L89.6378 430.711 "/>
  <path stroke-width="0.000000" stroke="#333333" fill="none" d="M84.3045 402.006 L89.6378 402.006 "/>
  <path stroke-width="0.000000" stroke="#333333" fill="none" d="M84.3045 385.215 L89.6378 385.215 "/>
  <path stroke-width="0.000000" stroke="#333333" fill="none" d="M84.3045 373.301 L89.6378 373.301 "/>
  <path stroke-width="0.000000" stroke="#333333" fill="none" d="M84.3045 364.06 L89.6378 364.06 "/>
  <path stroke-width="0.000000" stroke="#333333" fill="none" d="M84.3045 356.51 L89.6378 356.51 "/>
  <path stroke-width="0.000000" stroke="#333333" fill="none" d="M84.3045 350.126 L89.6378 350.126 "/>
  <path stroke-width="0.000000" stroke="#333333" fill="none" d="M84.3045 344.596 L89.6378 344.596 "/>
  <path stroke-width="0.000000" stroke="#333333" fill="none" d="M84.3045 339.719 L89.6378 339.719 "/>
  <path stroke-width="0.000000" stroke="#333333" fill="none" d="M84.3045 335.356 L89.6378 335.356 "/>
  <path stroke-width="0.000000" stroke="#333333" fill="none" d="M84.3045 306.651 L89.6378 306.651 "/>
  <path stroke-width="0.000000" stroke="#333333" fill="none" d="M84.3045 289.859 L89.6378 289.859 "/>
  <path stroke-width="0.000000" stroke="#333333" fill="none" d="M84.3045 277.946 L89.6378 277.946 "/>
  <path stroke-width="0.000000" stroke="#333333" fill="none" d="M84.3045 268.705 L89.6378 268.705 "/>
  <path stroke-width="0.000000" stroke="#333333" fill="none" d="M84.3045 261.155 L89.6378 261.155 "/>
  <path stroke-width="0.000000" stroke="#333333" fill="none" d="M84.3045 254.771 L89.6378 254.771 "/>
  <path stroke-width="0.000000" stroke="#333333" fill="none" d="M84.3045 249.241 L89.6378 249.241 "/>
  <path stroke-width="0.000000" stroke="#333333" fill="none" d="M84.3045 244.363 L89.6378 244.363 "/>
  <path stroke-width="0.000000" stroke="#333333" fill="none" d="M84.3045 240 L89.6378 240 "/>
  <path stroke-width="0.000000" stroke="#333333" fill="none" d="M84.3045 211.295 L89.6378 211.295 "/>
  <path stroke-width="0.000000" stroke="#333333" fill="none" d="M84.3045 194.504 L89.6378 194.504 "/>
  <path stroke-width="0.000000" stroke="#333333" fill="none" d="M84.3045 182.59 L89.6378 182.59 "/>
  <path stroke-width="0.000000" stroke="#333333" fill="none" d="M84.3045 173.349 L89.6378 173.349 "/>
  <path stroke-width="0.000000" stroke="#333333" fill="none" d="M84.3045 165.799 L89.6378 165.799 "/>
  <path stroke-width="0.000000" stroke="#333333" fill="none" d="M84.3045 159.415 L89.6378 159.415 "/>
  <path stroke-width="0.000000" stroke="#333333" fill="none" d="M84.3045 153.885 L89.6378 153.885 "/>
  <path stroke-width="0.000000" stroke="#333333" fill="none" d="M84.3045 149.008 L89.6378 149.008 "/>
  <path stroke-width="0.000000" stroke="#333333" fill="none" d="M84.3045 144.644 L89.6378 144.644 "/>
  <path stroke-width="0.000000" stroke="#333333" fill="none" d="M84.3045 115.94 L89.6378 115.94 "/>
  <path stroke-width="0.000000" stroke="#333333" fill="none" d="M84.3045 99.1483 L89.6378 99.1483 "/>
  <path stroke-width="0.000000" stroke="#333333" fill="none" d="M84.3045 87.2347 L89.6378 87.2347 "/>
  <path stroke-width="0.000000" stroke="#333333" fill="none" d="M84.3045 77.9938 L89.6378 77.9938 "/>
  <path stroke-width="0.000000" stroke="#333333" fill="none" d="M84.3045 70.4434 L89.6378 70.4434 "/>
  <path stroke-width="0.000000" stroke="#333333" fill="none" d="M84.3045 64.0597 L89.6378 64.0597 "/>
  <path stroke-width="0.000000" stroke="#333333" fill="none" d="M84.3045 58.5298 L89.6378 58.5298 "/>
  <path stroke-width="0.000000" stroke="#333333" fill="none" d="M84.3045 53.6521 L89.6378 53.6521 "/>
  <path stroke-width="0.000000" stroke="#333333" fill="none" d="M84.3045 49.2889 L89.6378 49.2889 "/>
  <text x="52.180556" y="435.711111" fill="#333333" font-size="14.666667" font-family="Arial,Helvetica,'Helvetica Neue',sans-serif" font-weight="500.000000">1.0</text>
  <text x="44.024306" y="340.355556" fill="#333333" font-size="14.666667" font-family="Arial,Helvetica,'Helvetica Neue',sans-serif" font-weight="500.000000">10.0</text>
  <text x="35.868056" y="245.000000" fill="#333333" font-size="14.666667" font-family="Arial,Helvetica,'Helvetica Neue',sans-serif" font-weight="500.000000">100.0</text>
  <text x="27.711806" y="149.644444" fill="#333333" font-size="14.666667" font-family="Arial,Helvetica,'Helvetica Neue',sans-serif" font-weight="500.000000">1000.0</text>
  <text x="19.555556" y="54.288889" fill="#333333" font-size="14.666667" font-family="Arial,Helvetica,'Helvetica Neue',sans-serif" font-weight="500.000000">10000.0</text>
</svg>