<svg xmlns="http://www.w3.org/2000/svg" width="900.000000" height="240.000000" viewBox="0 0 900 240">
  <rect width="900.000000" height="240.000000" fill="#ffffff"/>
  <path stroke-width="2.000000" stroke="#4572a7" fill="none" d="M54.9469 165.808 L56.9475 166.77 L58.9482 144.646 L60.9488 151.697 L62.9495 164.758 L64.9502 185.698 L66.9508 141.341 L68.9515 149.904 L70.9521 166.709 L72.9528 141.973 L74.9535 179.71 L76.9541 194.372 L78.9548 141.858 L80.9554 144.551 L82.9561 139.595 L84.9567 191.779 L86.9574 158.287 L88.9581 193.617 L90.9587 173.702 L92.9594 140.727 L94.96 187.608 L96.9607 154.724 L98.9613 178.289 L100.962 148.517 L102.963 137.436 L104.963 161.126 L106.964 181.188 L108.965 149.363 L110.965 145.862 L112.966 150.121 L114.967 185.229 L116.967 147.134 L118.968 189.902 L120.969 193.135 L122.969 144.23 L124.97 187.422 L126.971 158.452 L128.971 171.636 L130.972 185.323 L132.973 136.927 L134.973 175.849 L136.974 175.068 L138.975 174.831 L140.975 145.325 L142.976 140.706 L144.976 136.622 L146.977 139.951 L148.978 138.875 L150.978 157.938 L152.979 146.75 L154.98 181.134 L156.98 170.49 L158.981 167.488 L160.982 146.007 L162.982 160.524 L164.983 149.073 L166.984 135.638 L168.984 158.041 L170.985 168.506 L172.986 144.104 L174.986 170.203 L176.987 139.136 L178.988 190.277 L180.988 143.506 L182.989 187.85 L184.99 140.573 L186.99 189.971 L188.991 169.079 L190.992 164.077 L192.992 152.772 L194.993 194.579 L196.994 146.249 L198.994 159.721 L200.995 150.368 L202.996 157.415 L204.996 151.617 L206.997 192.561 L208.998 155.472 L210.998 144.88 L212.999 140.306 L215 156.885 L217 173.373 L219.001 144.593 L221.001 166.245 L223.002 189.978 L225.003 158.682 L227.003 172.348 L229.004 142.243 L231.005 150.015 L233.005 161.619 L235.006 194.865 L237.007 180.5 L239.007 138.87 L241.008 151.084 L243.009 153.918 L245.009 141.457 L247.01 166.351 L249.011 181.442 L251.011 152.914 L253.012 170.835 L255.013 174.247 L257.013 172.394 L259.014 152.769 L261.015 178.197 L263.015 161.626 L265.016 162.796 L267.017 153.445 L269.017 157.916 L271.018 153.566 L273.019 181.842 L275.019 175.912 L277.02 160.236 L279.021 164.309 L281.021 193.958 L283.022 158.572 L285.023 157.135 L287.023 146.045 L289.024 187.572 L291.025 168.867 L293.025 156.14 L295.026 188.812 L297.026 184.784 L299.027 152.889 L301.028 190.056 L303.028 159.426 L305.029 142.629 L307.03 141.209 L309.03 171.028 L311.031 167.357 L313.032 148.566 L315.032 175.663 L317.033 186.389 L319.034 164.469 L321.034 142.227 L323.035 168.713 L325.036 156.605 L327.036 177.039 L329.037 187.827 L331.038 150.776 L333.038 194.953 L335.039 158.309 L337.04 164.213 L339.04 156.742 L341.041 166.063 L343.042 181.704 L345.042 176.546 L347.043 141.608 L349.044 158.794 L351.044 148.848 L353.045 182.746 L355.046 192.911 L357.046 171.209 L359.047 157.989 L361.048 153.017 L363.048 190.287 L365.049 149.31 L367.05 184.616 L369.05 157.783 L371.051 191.339 L373.051 151.762 L375.052 186.793 L377.053 192.529 L379.053 185.161 L381.054 172.289 L383.055 191.955 L385.055 162.974 L387.056 157.643 L389.057 149.932 L391.057 163.919 L393.058 169.186 L395.059 193.08 L397.059 194.974 L399.06 194.393 L401.061 168.086 L403.061 161.696 L405.062 187.761 L407.063 193.403 L409.063 181.274 L411.064 159.927 L413.065 157.735 L415.065 155.374 L417.066 138.176 L419.067 179.989 L421.067 170.276 L423.068 138.741 L425.069 147.036 L427.069 139.39 L429.07 187.959 L431.071 183.623 L433.071 159.065 L435.072 154.997 L437.073 144.738 L439.073 184.34 L441.074 182.486 L443.075 171.577 L445.075 159.179 L447.076 160.337 L449.076 178.912 L451.077 150.958 L453.078 174.845 L455.078 177.029 L457.079 153.843 L459.08 155.085 L461.08 155.123 L463.081 135.388 L465.082 153.836 L467.082 135.148 L469.083 138.413 L471.084 145.014 L473.084 164.023 L475.085 189.129 L477.086 136.039 L479.086 188.87 L481.087 177.14 L483.088 152.82 L485.088 138.999 L487.089 141.882 L489.09 135.62 L491.09 177.262 L493.091 153.571 L495.092 135.165 L497.092 146.986 L499.093 136.218 L501.094 171.106 L503.094 140.277 L505.095 146.852 L507.096 141.885 L509.096 142.354 L511.097 192.906 L513.098 180.695 L515.098 137.359 L517.099 157.963 L519.1 162.379 L521.1 179.765 L523.101 165.473 L525.101 150.206 L527.102 182.564 L529.103 146.828 L531.103 141.837 L533.104 164.701 L535.105 150.38 L537.105 156.37 L539.106 154.198 L541.107 135.786 L543.107 152.755 L545.108 175.42 L547.109 182.608 L549.109 164.902 L551.11 185.315 L553.111 138.225 L555.111 147.611 L557.112 143.465 L559.113 189.358 L561.113 194.394 L563.114 144.807 L565.115 160.638 L567.115 162.731 L569.116 154.367 L571.117 175.92 L573.117 150.264 L575.118 151.376 L577.119 136.465 L579.119 181.549 L581.12 178.308 L583.121 194.481 L585.121 185.082 L587.122 173.838 L589.123 182.043 L591.123 152.376 L593.124 181.064 L595.125 137.842 L597.125 192.167 L599.126 158.846 L601.126 142.225 L603.127 160.226 L605.128 193.835 L607.128 135.224 L609.129 144.546 L611.13 178.231 L613.13 177.453 L615.131 145.575 L617.132 192.402 L619.132 156.976 L621.133 135.102 L623.134 146.214 L625.134 184.004 L627.135 144.38 L629.136 136.035 L631.136 142.848 L633.137 189.187 L635.138 186.957 L637.138 162.117 L639.139 166.909 L641.14 192.871 L643.14 178.949 L645.141 189.934 L647.142 182.263 L649.142 164.409 L651.143 147.692 L653.144 168.066 L655.144 188.118 L657.145 139.714 L659.146 157.91 L661.146 188.221 L663.147 139.853 L665.148 160.751 L667.148 193.803 L669.149 143.603 L671.15 189.799 L673.15 167.696 L675.151 138.653 L677.151 137.417 L679.152 160.569 L681.153 156.186 L683.153 161.37 L685.154 140.072 L687.155 177.788 L689.155 150.202 L691.156 153.337 L693.157 150.868 L695.157 170.968 L697.158 147.899 L699.159 142.564 L701.159 169.559 L703.16 161.028 L705.161 145.27 L707.161 165.937 L709.162 186.084 L711.163 192.073 L713.163 188.261 L715.164 185.044 L717.165 179.922 L719.165 165.503 L721.166 154.076 L723.167 163.94 L725.167 177.013 L727.168 188.724 L729.169 193.429 L731.169 151.785 L733.17 146.234 L735.171 166.798 L737.171 138.047 L739.172 180.658 L741.173 148.343 L743.173 137.438 L745.174 151.867 L747.175 159.146 L749.175 173.733 L751.176 154.126 L753.176 157.27 L755.177 140.206 L757.178 137.586 L759.178 135.525 L761.179 154.544 L763.18 139.248 L765.18 142.048 L767.181 178.221 L769.182 155.798 L771.182 170.809 L773.183 162.133 L775.184 168.7 L777.184 194.356 L779.185 180.532 L781.186 156.701 L783.186 159.103 L785.187 195.081 L787.188 136.472 L789.188 183.533 L791.189 166.048 L793.19 146.519 L795.19 143.87 L797.191 150.611 L799.192 159.939 L801.192 159.108 L803.193 137.497 L805.194 140.368 L807.194 149.955 L809.195 138.159 L811.196 161.942 L813.196 166.712 L815.197 136.311 L817.198 194.484 L819.198 163.63 L821.199 146.589 L823.2 181.006 L825.2 139.71 L827.201 177.819 L829.201 192.269 L831.202 170.616 L833.203 137.585 L835.203 144.572 L837.204 170.027 L839.205 185.411 L841.205 140.055 L843.206 155.624 L845.207 150.239 L847.207 155.44 L849.208 149.212 L851.209 142.381 L853.209 137.874 "/>
  <path stroke-width="2.000000" stroke="#aa4643" fill="none" d="M54.9469 78.3325 L56.9475 79.006 L58.9482 63.5187 L60.9488 68.4548 L62.9495 77.5975 L64.9502 92.2553 L66.9508 61.2056 L68.9515 67.1996 L70.9521 78.9629 L72.9528 61.6478 L74.9535 88.0638 L76.9541 98.3272 L78.9548 61.5675 L80.9554 63.4523 L82.9561 59.9829 L84.9567 96.512 L86.9574 73.0677 L88.9581 97.7986 L90.9587 83.8579 L92.9594 60.7753 L94.96 93.5919 L96.9607 70.5732 L98.9613 87.069 L100.962 66.2283 L102.963 58.4716 L104.963 75.0546 L106.964 89.0985 L108.965 66.8209 L110.965 64.3698 L112.966 67.3514 L114.967 91.9268 L116.967 65.2603 L118.968 95.1982 L120.969 97.4614 L122.969 63.2275 L124.97 93.4618 L126.971 73.1831 L128.971 82.412 L130.972 91.9931 L132.973 58.1152 L134.973 85.3613 L136.974 84.8142 L138.975 84.6485 L140.975 63.9945 L142.976 60.761 L144.976 57.9023 L146.977 60.2323 L148.978 59.4791 L150.978 72.8235 L152.979 64.9916 L154.98 89.0608 L156.98 81.6099 L158.981 79.5086 L160.982 64.4714 L162.982 74.6336 L164.983 66.6175 L166.984 57.2132 L168.984 72.8951 L170.985 80.2206 L172.986 63.1397 L174.986 81.4088 L176.987 59.6618 L178.988 95.4609 L180.988 62.7207 L182.989 93.7617 L184.99 60.6677 L186.99 95.2467 L188.991 80.6219 L190.992 77.1203 L192.992 69.207 L194.993 98.472 L196.994 64.641 L198.994 74.0713 L200.995 67.5245 L202.996 72.4573 L204.996 68.3988 L206.997 97.0597 L208.998 71.0974 L210.998 63.6827 L212.999 60.4808 L215 72.0861 L217 83.628 L219.001 63.482 L221.001 78.6382 L223.002 95.2515 L225.003 73.3441 L227.003 82.9102 L229.004 61.8365 L231.005 67.2771 L233.005 75.4003 L235.006 98.6722 L237.007 88.6168 L239.007 59.4757 L241.008 68.0257 L243.009 70.009 L245.009 61.2863 L247.01 78.7125 L249.011 89.2761 L251.011 69.3062 L253.012 81.8513 L255.013 84.2392 L257.013 82.9422 L259.014 69.2051 L261.015 87.0047 L263.015 75.4046 L265.016 76.2237 L267.017 69.6784 L269.017 72.8079 L271.018 69.7631 L273.019 89.5558 L275.019 85.4051 L277.02 74.432 L279.021 77.2827 L281.021 98.0372 L283.022 73.2674 L285.023 72.261 L287.023 64.4983 L289.024 93.567 L291.025 80.4733 L293.025 71.5647 L295.026 94.4348 L297.026 91.6154 L299.027 69.2892 L301.028 95.3058 L303.028 73.8646 L305.029 62.107 L307.03 61.113 L309.03 81.9865 L311.031 79.4167 L313.032 66.2628 L315.032 85.2308 L317.033 92.739 L319.034 77.395 L321.034 61.8256 L323.035 80.3659 L325.036 71.8901 L327.036 86.1937 L329.037 93.7453 L331.038 67.8096 L333.038 98.734 L335.039 73.0827 L337.04 77.2156 L339.04 71.9857 L341.041 78.5109 L343.042 89.4596 L345.042 85.8489 L347.043 61.3926 L349.044 73.4226 L351.044 66.4603 L353.045 90.1888 L355.046 97.3045 L357.046 82.1132 L359.047 72.859 L361.048 69.3789 L363.048 95.4675 L365.049 66.7837 L367.05 91.4981 L369.05 72.7149 L371.051 96.2037 L373.051 68.5003 L375.052 93.0217 L377.053 97.0372 L379.053 91.8793 L381.054 82.8691 L383.055 96.6354 L385.055 76.3486 L387.056 72.6171 L389.057 67.2194 L391.057 77.0096 L393.058 80.6968 L395.059 97.423 L397.059 98.7484 L399.06 98.3415 L401.061 79.9266 L403.061 75.4539 L405.062 93.6991 L407.063 97.6486 L409.063 89.1588 L411.064 74.2158 L413.065 72.6812 L415.065 71.0283 L417.066 58.9898 L419.067 88.2587 L421.067 81.4601 L423.068 59.3857 L425.069 65.1918 L427.069 59.8399 L429.07 93.8383 L431.071 90.8025 L433.071 73.6121 L435.072 70.7649 L437.073 63.583 L439.073 91.3046 L441.074 90.0067 L443.075 82.3705 L445.075 73.6916 L447.076 74.5028 L449.076 87.5051 L451.077 67.9374 L453.078 84.6581 L455.078 86.1868 L457.079 69.9568 L459.08 70.8262 L461.08 70.8531 L463.081 57.0385 L465.082 69.952 L467.082 56.8706 L469.083 59.1554 L471.084 63.7763 L473.084 77.0831 L475.085 94.6569 L477.086 57.494 L479.086 94.4754 L481.087 86.2644 L483.088 69.241 L485.088 59.5662 L487.089 61.5842 L489.09 57.2009 L491.09 86.3498 L493.091 69.7663 L495.092 56.8824 L497.092 65.1569 L499.093 57.6191 L501.094 82.0409 L503.094 60.4603 L505.095 65.0629 L507.096 61.5863 L509.096 61.9147 L511.097 97.3006 L513.098 88.7529 L515.098 58.4177 L517.099 72.841 L519.1 75.9321 L521.1 88.1024 L523.101 78.0974 L525.101 67.4109 L527.102 90.0617 L529.103 65.0464 L531.103 61.5525 L533.104 77.5571 L535.105 67.5325 L537.105 71.7256 L539.106 70.2055 L541.107 57.317 L543.107 69.1953 L545.108 85.0606 L547.109 90.0922 L549.109 77.6979 L551.11 91.987 L553.111 59.0244 L555.111 65.5941 L557.112 62.6922 L559.113 94.817 L561.113 98.3426 L563.114 63.6313 L565.115 74.7134 L567.115 76.1785 L569.116 70.3236 L571.117 85.4106 L573.117 67.4515 L575.118 68.2297 L577.119 57.7925 L579.119 89.3511 L581.12 87.0824 L583.121 98.4035 L585.121 91.8242 L587.122 83.9536 L589.123 89.6968 L591.123 68.9297 L593.124 89.0113 L595.125 58.7561 L597.125 96.7834 L599.126 73.4588 L601.126 61.8241 L603.127 74.4251 L605.128 97.9515 L607.128 56.9234 L609.129 63.4488 L611.13 87.028 L613.13 86.484 L615.131 64.1689 L617.132 96.948 L619.132 72.1499 L621.133 56.8382 L623.134 64.6161 L625.134 91.0696 L627.135 63.3326 L629.136 57.4911 L631.136 62.2601 L633.137 94.6976 L635.138 93.1366 L637.138 75.7487 L639.139 79.1029 L641.14 97.2763 L643.14 87.5307 L645.141 95.2208 L647.142 89.8507 L649.142 77.353 L651.143 65.6512 L653.144 79.913 L655.144 93.9494 L657.145 60.0667 L659.146 72.8038 L661.146 94.0217 L663.147 60.1636 L665.148 74.7925 L667.148 97.929 L669.149 62.789 L671.15 95.1259 L673.15 79.6536 L675.151 59.3241 L677.151 58.4585 L679.152 74.6647 L681.153 71.5968 L683.153 75.2253 L685.154 60.3174 L687.155 86.7183 L689.155 67.4082 L691.156 69.6024 L693.157 67.8743 L695.157 81.9443 L697.158 65.7959 L699.159 62.0617 L701.159 80.9581 L703.16 74.9861 L705.161 63.9555 L707.161 78.4227 L709.162 92.5256 L711.163 96.7177 L713.163 94.0495 L715.164 91.7976 L717.165 88.212 L719.165 78.1188 L721.166 70.1201 L723.167 77.0249 L725.167 86.1761 L727.168 94.3732 L729.169 97.6667 L731.169 68.5164 L733.17 64.6307 L735.171 79.0256 L737.171 58.8995 L739.172 88.727 L741.173 66.1069 L743.173 58.4731 L745.174 68.5736 L747.175 73.6689 L749.175 83.8798 L751.176 70.1546 L753.176 72.3555 L755.177 60.4108 L757.178 58.5768 L759.178 57.1341 L761.179 70.4472 L763.18 59.7399 L765.18 61.7 L767.181 87.0214 L769.182 71.3256 L771.182 81.8328 L773.183 75.7601 L775.184 80.3566 L777.184 98.3158 L779.185 88.6389 L781.186 71.9577 L783.186 73.6389 L785.187 98.8231 L787.188 57.7968 L789.188 90.7397 L791.189 78.5005 L793.19 64.8297 L795.19 62.9759 L797.191 67.6942 L799.192 74.224 L801.192 73.6419 L803.193 58.5149 L805.194 60.5241 L807.194 67.2352 L809.195 58.978 L811.196 75.6257 L813.196 78.9648 L815.197 57.6843 L817.198 98.4051 L819.198 76.808 L821.199 64.8792 L823.2 88.9707 L825.2 60.0634 L827.201 86.74 L829.201 96.8548 L831.202 81.6977 L833.203 58.576 L835.203 63.4674 L837.204 81.2858 L839.205 92.0543 L841.205 60.305 L843.206 71.2032 L845.207 67.434 L847.207 71.0743 L849.208 66.7154 L851.209 61.9332 L853.209 58.7786 "/>
  <path stroke-width="1.333333" stroke="#000000" fill="none" d="M853.209 14.6667 L853.209 225.333 "/>
  <path stroke-width="1.333333" stroke="#000000" fill="none" d="M847.876 120 L853.209 120 "/>
  <path stroke-width="1.333333" stroke="#000000" fill="none" d="M847.876 98.9333 L853.209 98.9333 "/>
  <path stroke-width="1.333333" stroke="#000000" fill="none" d="M847.876 77.8667 L853.209 77.8667 "/>
  <path stroke-width="1.333333" stroke="#000000" fill="none" d="M847.876 56.8 L853.209 56.8 "/>
  <path stroke-width="1.333333" stroke="#000000" fill="none" d="M847.876 35.7333 L853.209 35.7333 "/>
  <path stroke-width="1.333333" stroke="#000000" fill="none" d="M847.876 14.6667 L853.209 14.6667 "/>
  <text x="864.942708" y="125.000000" fill="#000000" font-size="14.666667" font-family="Arial,Helvetica,'Helvetica Neue',sans-serif" font-weight="500.000000">0.5</text>
  <text x="864.942708" y="103.933333" fill="#000000" font-size="14.666667" font-family="Arial,Helvetica,'Helvetica Neue',sans-serif" font-weight="500.000000">0.6</text>
  <text x="864.942708" y="82.866667" fill="#000000" font-size="14.666667" font-family="Arial,Helvetica,'Helvetica Neue',sans-serif" font-weight="500.000000">0.7</text>
  <text x="864.942708" y="61.800000" fill="#000000" font-size="14.666667" font-family="Arial,Helvetica,'Helvetica Neue',sans-serif" font-weight="500.000000">0.8</text>
  <text x="864.942708" y="40.733333" fill="#000000" font-size="14.666667" font-family="Arial,Helvetica,'Helvetica Neue',sans-serif" font-weight="500.000000">0.9</text>
  <text x="864.942708" y="19.666667" fill="#000000" font-size="14.666667" font-family="Arial,Helvetica,'Helvetica Neue',sans-serif" font-weight="500.000000">1.0</text>
  <path stroke-width="1.333333" stroke="#000000" fill="none" d="M54.9469 14.6667 L54.9469 225.333 "/>
  <path stroke-width="1.333333" stroke="#000000" fill="none" d="M54.9469 204.267 L60.2802 204.267 "/>
  <path stroke-width="1.333333" stroke="#000000" fill="none" d="M54.9469 183.2 L60.2802 183.2 "/>
  <path stroke-width="1.333333" stroke="#000000" fill="none" d="M54.9469 162.133 L60.2802 162.133 "/>
  <path stroke-width="1.333333" stroke="#000000" fill="none" d="M54.9469 141.067 L60.2802 141.067 "/>
  <path stroke-width="1.333333" stroke="#000000" fill="none" d="M54.9469 120 L60.2802 120 "/>
  <text x="14.666667" y="209.266667" fill="#000000" font-size="14.666667" font-family="Arial,Helvetica,'Helvetica Neue',sans-serif" font-weight="500.000000">10.0</text>
  <text x="14.666667" y="188.200000" fill="#000000" font-size="14.666667" font-family="Arial,Helvetica,'Helvetica Neue',sans-serif" font-weight="500.000000">20.0</text>
  <text x="14.666667" y="167.133333" fill="#000000" font-size="14.666667" font-family="Arial,Helvetica,'Helvetica Neue',sans-serif" font-weight="500.000000">30.0</text>
  <text x="14.666667" y="146.066667" fill="#000000" font-size="14.666667" font-family="Arial,Helvetica,'Helvetica Neue',sans-serif" font-weight="500.000000">40.0</text>
  <text x="14.666667" y="125.000000" fill="#000000" font-size="14.666667" font-family="Arial,Helvetica,'Helvetica Neue',sans-serif" font-weight="500.000000">50.0</text>
</svg>