<svg xmlns="http://www.w3.org/2000/svg" width="900.000000" height="480.000000" viewBox="0 0 900 480">
  <rect width="900.000000" height="480.000000" fill="#ffffff"/>
  <path fill="#0000cc" d="M158.947 265.333 M150.947 265.333 a4 4 0 1 0 8 0 a4 4 0 1 0 -8 0 "/>
  <path fill="#cc0000" d="M558.947 165.333 M550.947 165.333 a4 4 0 1 0 8 0 a4 4 0 1 0 -8 0 "/>
  <path fill="#0000cc" d="M758.947 265.333 M750.947 265.333 a4 4 0 1 0 8 0 a4 4 0 1 0 -8 0 "/>
  <path fill="#cc0000" d="M458.947 85.3333 M450.947 85.3333 a4 4 0 1 0 8 0 a4 4 0 1 0 -8 0 "/>
  <path fill="#0000cc" d="M358.947 365.333 M350.947 365.333 a4 4 0 1 0 8 0 a4 4 0 1 0 -8 0 "/>
  <text x="148.946875" y="254.133333" fill="#000000" font-size="18.000000" font-family="Arial,Helvetica,'Helvetica Neue',sans-serif" font-weight="500.000000">A</text>
  <text x="548.946875" y="154.133333" fill="#000000" font-size="18.000000" font-family="Arial,Helvetica,'Helvetica Neue',sans-serif" font-weight="500.000000">B</text>
  <text x="748.946875" y="254.133333" fill="#000000" font-size="18.000000" font-family="Arial,Helvetica,'Helvetica Neue',sans-serif" font-weight="500.000000">A</text>
  <text x="448.946875" y="74.133333" fill="#000000" font-size="18.000000" font-family="Arial,Helvetica,'Helvetica Neue',sans-serif" font-weight="500.000000">B</text>
  <text x="348.946875" y="354.133333" fill="#000000" font-size="18.000000" font-family="Arial,Helvetica,'Helvetica Neue',sans-serif" font-weight="500.000000">A</text>
  <path stroke-width="1.333333" stroke="#000000" fill="none" d="M853.209 14.6667 L853.209 465.333 "/>
  <path stroke-width="1.333333" stroke="#000000" fill="none" d="M847.876 465.333 L853.209 465.333 "/>
  <path stroke-width="1.333333" stroke="#000000" fill="none" d="M847.876 420.267 L853.209 420.267 "/>
  <path stroke-width="1.333333" stroke="#000000" fill="none" d="M847.876 375.2 L853.209 375.2 "/>
  <path stroke-width="1.333333" stroke="#000000" fill="none" d="M847.876 330.133 L853.209 330.133 "/>
  <path stroke-width="1.333333" stroke="#000000" fill="none" d="M847.876 285.067 L853.209 285.067 "/>
  <path stroke-width="1.333333" stroke="#000000" fill="none" d="M847.876 240 L853.209 240 "/>
  <path stroke-width="1.333333" stroke="#000000" fill="none" d="M847.876 194.933 L853.209 194.933 "/>
  <path stroke-width="1.333333" stroke="#000000" fill="none" d="M847.876 149.867 L853.209 149.867 "/>
  <path stroke-width="1.333333" stroke="#000000" fill="none" d="M847.876 104.8 L853.209 104.8 "/>
  <path stroke-width="1.333333" stroke="#000000" fill="none" d="M847.876 59.7333 L853.209 59.7333 "/>
  <path stroke-width="1.333333" stroke="#000000" fill="none" d="M847.876 14.6667 L853.209 14.6667 "/>
  <text x="864.942708" y="470.333333" fill="#000000" font-size="14.666667" font-family="Arial,Helvetica,'Helvetica Neue',sans-serif" font-weight="500.000000">0.0</text>
  <text x="864.942708" y="425.266667" fill="#000000" font-size="14.666667" font-family="Arial,Helvetica,'Helvetica Neue',sans-serif" font-weight="500.000000">0.1</text>
  <text x="864.942708" y="380.200000" fill="#000000" font-size="14.666667" font-family="Arial,Helvetica,'Helvetica Neue',sans-serif" font-weight="500.000000">0.2</text>
  <text x="864.942708" y="335.133333" fill="#000000" font-size="14.666667" font-family="Arial,Helvetica,'Helvetica Neue',sans-serif" font-weight="500.000000">0.3</text>
  <text x="864.942708" y="290.066667" fill="#000000" font-size="14.666667" font-family="Arial,Helvetica,'Helvetica Neue',sans-serif" font-weight="500.000000">0.4</text>
  <text x="864.942708" y="245.000000" fill="#000000" font-size="14.666667" font-family="Arial,Helvetica,'Helvetica Neue',sans-serif" font-weight="500.000000">0.5</text>
  <text x="864.942708" y="199.933333" fill="#000000" font-size="14.666667" font-family="Arial,Helvetica,'Helvetica Neue',sans-serif" font-weight="500.000000">0.6</text>
  <text x="864.942708" y="154.866667" fill="#000000" font-size="14.666667" font-family="Arial,Helvetica,'Helvetica Neue',sans-serif" font-weight="500.000000">0.7</text>
  <text x="864.942708" y="109.800000" fill="#000000" font-size="14.666667" font-family="Arial,Helvetica,'Helvetica Neue',sans-serif" font-weight="500.000000">0.8</text>
  <text x="864.942708" y="64.733333" fill="#000000" font-size="14.666667" font-family="Arial,Helvetica,'Helvetica Neue',sans-serif" font-weight="500.000000">0.9</text>
  <text x="864.942708" y="19.666667" fill="#000000" font-size="14.666667" font-family="Arial,Helvetica,'Helvetica Neue',sans-serif" font-weight="500.000000">1.0</text>
  <path stroke-width="1.333333" stroke="#000000" fill="none" d="M54.9469 14.6667 L54.9469 465.333 "/>
  <path stroke-width="1.333333" stroke="#000000" fill="none" d="M54.9469 420.267 L60.2802 420.267 "/>
  <path stroke-width="1.333333" stroke="#000000" fill="none" d="M54.9469 330.133 L60.2802 330.133 "/>
  <path stroke-width="1.333333" stroke="#000000" fill="none" d="M54.9469 240 L60.2802 240 "/>
  <path stroke-width="1.333333" stroke="#000000" fill="none" d="M54.9469 149.867 L60.2802 149.867 "/>
  <path stroke-width="1.333333" stroke="#000000" fill="none" d="M54.9469 59.7333 L60.2802 59.7333 "/>
  <text x="14.666667" y="425.266667" fill="#000000" font-size="14.666667" font-family="Arial,Helvetica,'Helvetica Neue',sans-serif" font-weight="500.000000">10.0</text>
  <text x="14.666667" y="335.133333" fill="#000000" font-size="14.666667" font-family="Arial,Helvetica,'Helvetica Neue',sans-serif" font-weight="500.000000">30.0</text>
  <text x="14.666667" y="245.000000" fill="#000000" font-size="14.666667" font-family="Arial,Helvetica,'Helvetica Neue',sans-serif" font-weight="500.000000">50.0</text>
  <text x="14.666667" y="154.866667" fill="#000000" font-size="14.666667" font-family="Arial,Helvetica,'Helvetica Neue',sans-serif" font-weight="500.000000">70.0</text>
  <text x="14.666667" y="64.733333" fill="#000000" font-size="14.666667" font-family="Arial,Helvetica,'Helvetica Neue',sans-serif" font-weight="500.000000">90.0</text>
</svg>