<svg xmlns="http://www.w3.org/2000/svg" width="900.000000" height="480.000000" viewBox="0 0 900 480">
  <rect width="900.000000" height="480.000000" fill="#ffffff"/>
  <path stroke-width="2.000000" stroke="#000000" fill="none" d="M44.4 14.6667 L54.0619 96.8323 L65.3844 147.432 L76.707 143.387 L88.0295 184.246 L99.3521 209.99 L110.675 227.153 L121.997 237.668 L133.32 264.585 L144.642 216.834 L155.965 231.868 L167.287 277.952 L178.61 219.093 L189.932 226.279 L201.255 271.753 L212.578 265.618 L223.9 295.944 L235.223 316.702 L246.545 348.4 L257.868 360.164 L269.19 376.544 L280.513 249.048 L291.835 154.021 L303.158 128.293 L314.48 151.028 L325.803 203.581 L337.126 276.449 L348.448 270.646 L359.771 314.637 L371.093 329.507 L382.416 350.415 L393.738 331.461 L405.061 354.582 L416.383 310.279 L427.706 274.034 L439.028 349.402 L450.351 358.986 L461.674 371.063 L472.996 400.501 L484.319 339.465 L495.641 312.559 L506.964 315.37 L518.286 330.278 L529.609 290.277 L540.931 352.977 L552.254 310.411 L563.576 293.117 L574.899 295.014 L586.222 317.844 L597.544 270.769 L608.867 262.986 L620.189 232.548 L631.512 270.737 L642.834 309.088 L654.157 339.523 L665.479 280.889 L676.802 308.503 L688.124 302.599 L699.447 355.1 L710.769 370.228 L722.092 354.17 L733.415 366.358 L744.737 353.822 L756.06 332.983 L767.382 339.784 L778.705 325.927 L790.027 305.026 L801.35 316.62 L812.672 335.498 L823.995 266.855 L835.317 257.668 L846.64 220.416 L856 224.277 "/>
  <path stroke-width="1.333333" stroke="#000000" fill="none" d="M44.4 400.501 L856 400.501 "/>
  <path stroke-width="1.333333" stroke="#000000" fill="none" d="M44.4 395.167 L44.4 400.501 "/>
  <path stroke-width="1.333333" stroke="#000000" fill="none" d="M125.56 395.167 L125.56 400.501 "/>
  <path stroke-width="1.333333" stroke="#000000" fill="none" d="M206.72 395.167 L206.72 400.501 "/>
  <path stroke-width="1.333333" stroke="#000000" fill="none" d="M287.88 395.167 L287.88 400.501 "/>
  <path stroke-width="1.333333" stroke="#000000" fill="none" d="M369.04 395.167 L369.04 400.501 "/>
  <path stroke-width="1.333333" stroke="#000000" fill="none" d="M450.2 395.167 L450.2 400.501 "/>
  <path stroke-width="1.333333" stroke="#000000" fill="none" d="M531.36 395.167 L531.36 400.501 "/>
  <path stroke-width="1.333333" stroke="#000000" fill="none" d="M612.52 395.167 L612.52 400.501 "/>
  <path stroke-width="1.333333" stroke="#000000" fill="none" d="M693.68 395.167 L693.68 400.501 "/>
  <path stroke-width="1.333333" stroke="#000000" fill="none" d="M774.84 395.167 L774.84 400.501 "/>
  <path stroke-width="1.333333" stroke="#000000" fill="none" d="M856 395.167 L856 400.501 "/>
  <text x="44.400000" y="417.234033" fill="#000000" font-size="14.666667" font-family="Arial,Helvetica,'Helvetica Neue',sans-serif" font-weight="500.000000" transform="rotate(45 44.4 412.234)">05:15:44</text>
  <text x="125.560001" y="417.234033" fill="#000000" font-size="14.666667" font-family="Arial,Helvetica,'Helvetica Neue',sans-serif" font-weight="500.000000" transform="rotate(45 125.56 412.234)">05:51:34</text>
  <text x="206.720002" y="417.234033" fill="#000000" font-size="14.666667" font-family="Arial,Helvetica,'Helvetica Neue',sans-serif" font-weight="500.000000" transform="rotate(45 206.72 412.234)">06:27:24</text>
  <text x="287.880010" y="417.234033" fill="#000000" font-size="14.666667" font-family="Arial,Helvetica,'Helvetica Neue',sans-serif" font-weight="500.000000" transform="rotate(45 287.88 412.234)">07:03:15</text>
  <text x="369.040005" y="417.234033" fill="#000000" font-size="14.666667" font-family="Arial,Helvetica,'Helvetica Neue',sans-serif" font-weight="500.000000" transform="rotate(45 369.04 412.234)">07:39:05</text>
  <text x="450.200000" y="417.234033" fill="#000000" font-size="14.666667" font-family="Arial,Helvetica,'Helvetica Neue',sans-serif" font-weight="500.000000" transform="rotate(45 450.2 412.234)">08:14:56</text>
  <text x="531.360019" y="417.234033" fill="#000000" font-size="14.666667" font-family="Arial,Helvetica,'Helvetica Neue',sans-serif" font-weight="500.000000" transform="rotate(45 531.36 412.234)">08:50:46</text>
  <text x="612.519990" y="417.234033" fill="#000000" font-size="14.666667" font-family="Arial,Helvetica,'Helvetica Neue',sans-serif" font-weight="500.000000" transform="rotate(45 612.52 412.234)">09:26:36</text>
  <text x="693.680010" y="417.234033" fill="#000000" font-size="14.666667" font-family="Arial,Helvetica,'Helvetica Neue',sans-serif" font-weight="500.000000" transform="rotate(45 693.68 412.234)">10:02:27</text>
  <text x="774.840029" y="417.234033" fill="#000000" font-size="14.666667" font-family="Arial,Helvetica,'Helvetica Neue',sans-serif" font-weight="500.000000" transform="rotate(45 774.84 412.234)">10:38:17</text>
  <text x="856.000000" y="417.234033" fill="#000000" font-size="14.666667" font-family="Arial,Helvetica,'Helvetica Neue',sans-serif" font-weight="500.000000" transform="rotate(45 856 412.234)">11:14:08</text>
  <path stroke-width="1.333333" stroke="#000000" fill="none" d="M44.4 14.6667 L44.4 400.501 "/>
  <path stroke-width="1.333333" stroke="#000000" fill="none" d="M44.4 400.501 L49.7333 400.501 "/>
  <path stroke-width="1.333333" stroke="#000000" fill="none" d="M44.4 304.042 L49.7333 304.042 "/>
  <path stroke-width="1.333333" stroke="#000000" fill="none" d="M44.4 207.584 L49.7333 207.584 "/>
  <path stroke-width="1.333333" stroke="#000000" fill="none" d="M44.4 111.125 L49.7333 111.125 "/>
  <path stroke-width="1.333333" stroke="#000000" fill="none" d="M44.4 14.6667 L49.7333 14.6667 "/>
  <text x="1.596354" y="396.500700" fill="#000000" font-size="14.666667" font-family="Arial,Helvetica,'Helvetica Neue',sans-serif" font-weight="500.000000" transform="rotate(-90 32.6667 400.501)">7.3 × 10⁶</text>
  <text x="1.596354" y="300.042192" fill="#000000" font-size="14.666667" font-family="Arial,Helvetica,'Helvetica Neue',sans-serif" font-weight="500.000000" transform="rotate(-90 32.6667 304.042)">7.6 × 10⁶</text>
  <text x="1.596354" y="203.583683" fill="#000000" font-size="14.666667" font-family="Arial,Helvetica,'Helvetica Neue',sans-serif" font-weight="500.000000" transform="rotate(-90 32.6667 207.584)">8.0 × 10⁶</text>
  <text x="1.596354" y="107.125175" fill="#000000" font-size="14.666667" font-family="Arial,Helvetica,'Helvetica Neue',sans-serif" font-weight="500.000000" transform="rotate(-90 32.6667 111.125)">8.3 × 10⁶</text>
  <text x="1.596354" y="10.666667" fill="#000000" font-size="14.666667" font-family="Arial,Helvetica,'Helvetica Neue',sans-serif" font-weight="500.000000" transform="rotate(-90 32.6667 14.6667)">8.6 × 10⁶</text>
</svg>