<svg xmlns="http://www.w3.org/2000/svg" width="900.000000" height="480.000000" viewBox="0 0 900 480">
  <rect width="900.000000" height="480.000000" fill="#ffffffff"/>
  <path stroke-width="2.000000" stroke="#000000ff" fill="none" d="M41.4 14.6667 L51.0976 96.8323 L62.462 147.432 L73.8264 143.387 L85.1908 184.246 L96.5552 209.99 L107.92 227.153 L119.284 237.668 L130.648 264.585 L142.013 216.834 L153.377 231.868 L164.742 277.952 L176.106 219.093 L187.47 226.279 L198.835 271.753 L210.199 265.618 L221.564 295.944 L232.928 316.702 L244.292 348.4 L255.657 360.164 L267.021 376.544 L278.386 249.048 L289.75 154.021 L301.114 128.293 L312.479 151.028 L323.843 203.581 L335.208 276.449 L346.572 270.646 L357.936 314.637 L369.301 329.507 L380.665 350.415 L392.03 331.461 L403.394 354.582 L414.758 310.279 L426.123 274.034 L437.487 349.402 L448.852 358.986 L460.216 371.063 L471.58 400.501 L482.945 339.465 L494.309 312.559 L505.674 315.37 L517.038 330.278 L528.402 290.277 L539.767 352.977 L551.131 310.411 L562.495 293.117 L573.86 295.014 L585.224 317.844 L596.589 270.769 L607.953 262.986 L619.317 232.548 L630.682 270.737 L642.046 309.088 L653.411 339.523 L664.775 280.889 L676.139 308.503 L687.504 302.599 L698.868 355.1 L710.233 370.228 L721.597 354.17 L732.961 366.358 L744.326 353.822 L755.69 332.983 L767.055 339.784 L778.419 325.927 L789.783 305.026 L801.148 316.62 L812.512 335.498 L823.877 266.855 L835.241 257.668 L846.605 220.416 L856 224.277 "/>
  <path stroke-width="1.333333" stroke="#000000ff" fill="none" d="M41.4 400.501 L856 400.501 "/>
  <path stroke-width="1.333333" stroke="#000000ff" fill="none" d="M41.4 395.167 L41.4 400.501 "/>
  <path stroke-width="1.333333" stroke="#000000ff" fill="none" d="M122.86 395.167 L122.86 400.501 "/>
  <path stroke-width="1.333333" stroke="#000000ff" fill="none" d="M204.32 395.167 L204.32 400.501 "/>
  <path stroke-width="1.333333" stroke="#000000ff" fill="none" d="M285.78 395.167 L285.78 400.501 "/>
  <path stroke-width="1.333333" stroke="#000000ff" fill="none" d="M367.24 395.167 L367.24 400.501 "/>
  <path stroke-width="1.333333" stroke="#000000ff" fill="none" d="M448.7 395.167 L448.7 400.501 "/>
  <path stroke-width="1.333333" stroke="#000000ff" fill="none" d="M530.16 395.167 L530.16 400.501 "/>
  <path stroke-width="1.333333" stroke="#000000ff" fill="none" d="M611.62 395.167 L611.62 400.501 "/>
  <path stroke-width="1.333333" stroke="#000000ff" fill="none" d="M693.08 395.167 L693.08 400.501 "/>
  <path stroke-width="1.333333" stroke="#000000ff" fill="none" d="M774.54 395.167 L774.54 400.501 "/>
  <path stroke-width="1.333333" stroke="#000000ff" fill="none" d="M856 395.167 L856 400.501 "/>
  <text x="41.400000" y="417.234033" fill="#000000ff" font-size="14.666667" font-family="Arial,Helvetica,'Helvetica Neue',sans-serif" font-weight="500.000000" transform="rotate(45 41.4 412.234)">05:15:44</text>
  <text x="122.860001" y="417.234033" fill="#000000ff" font-size="14.666667" font-family="Arial,Helvetica,'Helvetica Neue',sans-serif" font-weight="500.000000" transform="rotate(45 122.86 412.234)">05:51:34</text>
  <text x="204.320002" y="417.234033" fill="#000000ff" font-size="14.666667" font-family="Arial,Helvetica,'Helvetica Neue',sans-serif" font-weight="500.000000" transform="rotate(45 204.32 412.234)">06:27:24</text>
  <text x="285.780010" y="417.234033" fill="#000000ff" font-size="14.666667" font-family="Arial,Helvetica,'Helvetica Neue',sans-serif" font-weight="500.000000" transform="rotate(45 285.78 412.234)">07:03:15</text>
  <text x="367.240005" y="417.234033" fill="#000000ff" font-size="14.666667" font-family="Arial,Helvetica,'Helvetica Neue',sans-serif" font-weight="500.000000" transform="rotate(45 367.24 412.234)">07:39:05</text>
  <text x="448.700000" y="417.234033" fill="#000000ff" font-size="14.666667" font-family="Arial,Helvetica,'Helvetica Neue',sans-serif" font-weight="500.000000" transform="rotate(45 448.7 412.234)">08:14:56</text>
  <text x="530.160019" y="417.234033" fill="#000000ff" font-size="14.666667" font-family="Arial,Helvetica,'Helvetica Neue',sans-serif" font-weight="500.000000" transform="rotate(45 530.16 412.234)">08:50:46</text>
  <text x="611.619990" y="417.234033" fill="#000000ff" font-size="14.666667" font-family="Arial,Helvetica,'Helvetica Neue',sans-serif" font-weight="500.000000" transform="rotate(45 611.62 412.234)">09:26:36</text>
  <text x="693.080010" y="417.234033" fill="#000000ff" font-size="14.666667" font-family="Arial,Helvetica,'Helvetica Neue',sans-serif" font-weight="500.000000" transform="rotate(45 693.08 412.234)">10:02:27</text>
  <text x="774.540029" y="417.234033" fill="#000000ff" font-size="14.666667" font-family="Arial,Helvetica,'Helvetica Neue',sans-serif" font-weight="500.000000" transform="rotate(45 774.54 412.234)">10:38:17</text>
  <text x="856.000000" y="417.234033" fill="#000000ff" font-size="14.666667" font-family="Arial,Helvetica,'Helvetica Neue',sans-serif" font-weight="500.000000" transform="rotate(45 856 412.234)">11:14:08</text>
  <path stroke-width="1.333333" stroke="#000000ff" fill="none" d="M41.4 14.6667 L41.4 400.501 "/>
  <path stroke-width="1.333333" stroke="#000000ff" fill="none" d="M41.4 400.501 L46.7333 400.501 "/>
  <path stroke-width="1.333333" stroke="#000000ff" fill="none" d="M41.4 304.042 L46.7333 304.042 "/>
  <path stroke-width="1.333333" stroke="#000000ff" fill="none" d="M41.4 207.584 L46.7333 207.584 "/>
  <path stroke-width="1.333333" stroke="#000000ff" fill="none" d="M41.4 111.125 L46.7333 111.125 "/>
  <path stroke-width="1.333333" stroke="#000000ff" fill="none" d="M41.4 14.6667 L46.7333 14.6667 "/>
  <text x="1.651042" y="396.500700" fill="#000000ff" font-size="14.666667" font-family="Arial,Helvetica,'Helvetica Neue',sans-serif" font-weight="500.000000" transform="rotate(-90 29.6667 400.501)">7.3 × 10⁶</text>
  <text x="1.651042" y="300.042192" fill="#000000ff" font-size="14.666667" font-family="Arial,Helvetica,'Helvetica Neue',sans-serif" font-weight="500.000000" transform="rotate(-90 29.6667 304.042)">7.6 × 10⁶</text>
  <text x="1.651042" y="203.583683" fill="#000000ff" font-size="14.666667" font-family="Arial,Helvetica,'Helvetica Neue',sans-serif" font-weight="500.000000" transform="rotate(-90 29.6667 207.584)">8.0 × 10⁶</text>
  <text x="1.651042" y="107.125175" fill="#000000ff" font-size="14.666667" font-family="Arial,Helvetica,'Helvetica Neue',sans-serif" font-weight="500.000000" transform="rotate(-90 29.6667 111.125)">8.3 × 10⁶</text>
  <text x="1.651042" y="10.666667" fill="#000000ff" font-size="14.666667" font-family="Arial,Helvetica,'Helvetica Neue',sans-serif" font-weight="500.000000" transform="rotate(-90 29.6667 14.6667)">8.6 × 10⁶</text>
</svg>