<svg xmlns="http://www.w3.org/2000/svg" width="900.000000" height="480.000000" viewBox="0 0 900 480">
  <rect width="900.000000" height="480.000000" fill="#ffffff"/>
  <path stroke-width="2.000000" stroke="#000000" fill="none" d="M49.2889 19.5556 L58.718 99.6389 L69.7677 148.957 L80.8174 145.014 L91.8672 184.837 L102.917 209.929 L113.967 226.657 L125.016 236.906 L136.066 263.14 L147.116 216.599 L158.166 231.253 L169.215 276.169 L180.265 218.801 L191.315 225.805 L202.364 270.126 L213.414 264.147 L224.464 293.705 L235.514 313.937 L246.563 344.831 L257.613 356.297 L268.663 372.263 L279.713 247.997 L290.762 155.379 L301.812 130.302 L312.862 152.461 L323.911 203.682 L334.961 274.704 L346.011 269.048 L357.061 311.924 L368.11 326.417 L379.16 346.795 L390.21 328.322 L401.26 350.857 L412.309 307.677 L423.359 272.35 L434.409 345.808 L445.458 355.149 L456.508 366.92 L467.558 395.612 L478.608 336.123 L489.657 309.898 L500.707 312.638 L511.757 327.169 L522.807 288.181 L533.856 349.292 L544.906 307.805 L555.956 290.949 L567.005 292.799 L578.055 315.049 L589.105 269.167 L600.155 261.582 L611.204 231.915 L622.254 269.137 L633.304 306.515 L644.354 336.18 L655.403 279.031 L666.453 305.945 L677.503 300.191 L688.552 351.361 L699.602 366.106 L710.652 350.455 L721.702 362.334 L732.751 350.116 L743.801 329.805 L754.851 336.433 L765.901 322.928 L776.95 302.557 L788 313.857 L799.05 332.256 L810.099 265.353 L821.149 256.399 L832.199 220.091 L841.333 223.854 "/>
  <path stroke-width="1.333333" stroke="#000000" fill="none" d="M49.2889 395.612 L841.333 395.612 "/>
  <path stroke-width="1.333333" stroke="#000000" fill="none" d="M49.2889 390.278 L49.2889 395.612 "/>
  <path stroke-width="1.333333" stroke="#000000" fill="none" d="M128.493 390.278 L128.493 395.612 "/>
  <path stroke-width="1.333333" stroke="#000000" fill="none" d="M207.698 390.278 L207.698 395.612 "/>
  <path stroke-width="1.333333" stroke="#000000" fill="none" d="M286.902 390.278 L286.902 395.612 "/>
  <path stroke-width="1.333333" stroke="#000000" fill="none" d="M366.107 390.278 L366.107 395.612 "/>
  <path stroke-width="1.333333" stroke="#000000" fill="none" d="M445.311 390.278 L445.311 395.612 "/>
  <path stroke-width="1.333333" stroke="#000000" fill="none" d="M524.516 390.278 L524.516 395.612 "/>
  <path stroke-width="1.333333" stroke="#000000" fill="none" d="M603.72 390.278 L603.72 395.612 "/>
  <path stroke-width="1.333333" stroke="#000000" fill="none" d="M682.924 390.278 L682.924 395.612 "/>
  <path stroke-width="1.333333" stroke="#000000" fill="none" d="M762.129 390.278 L762.129 395.612 "/>
  <path stroke-width="1.333333" stroke="#000000" fill="none" d="M841.333 390.278 L841.333 395.612 "/>
  <text x="49.288889" y="412.345145" fill="#000000" font-size="14.666667" font-family="Arial,Helvetica,'Helvetica Neue',sans-serif" font-weight="500.000000" transform="rotate(45 49.2889 407.345)">05:15:44</text>
  <text x="128.493335" y="412.345145" fill="#000000" font-size="14.666667" font-family="Arial,Helvetica,'Helvetica Neue',sans-serif" font-weight="500.000000" transform="rotate(45 128.493 407.345)">05:51:34</text>
  <text x="207.697780" y="412.345145" fill="#000000" font-size="14.666667" font-family="Arial,Helvetica,'Helvetica Neue',sans-serif" font-weight="500.000000" transform="rotate(45 207.698 407.345)">06:27:24</text>
  <text x="286.902232" y="412.345145" fill="#000000" font-size="14.666667" font-family="Arial,Helvetica,'Helvetica Neue',sans-serif" font-weight="500.000000" transform="rotate(45 286.902 407.345)">07:03:15</text>
  <text x="366.106671" y="412.345145" fill="#000000" font-size="14.666667" font-family="Arial,Helvetica,'Helvetica Neue',sans-serif" font-weight="500.000000" transform="rotate(45 366.107 407.345)">07:39:05</text>
  <text x="445.311111" y="412.345145" fill="#000000" font-size="14.666667" font-family="Arial,Helvetica,'Helvetica Neue',sans-serif" font-weight="500.000000" transform="rotate(45 445.311 407.345)">08:14:56</text>
  <text x="524.515574" y="412.345145" fill="#000000" font-size="14.666667" font-family="Arial,Helvetica,'Helvetica Neue',sans-serif" font-weight="500.000000" transform="rotate(45 524.516 407.345)">08:50:46</text>
  <text x="603.719991" y="412.345145" fill="#000000" font-size="14.666667" font-family="Arial,Helvetica,'Helvetica Neue',sans-serif" font-weight="500.000000" transform="rotate(45 603.72 407.345)">09:26:36</text>
  <text x="682.924454" y="412.345145" fill="#000000" font-size="14.666667" font-family="Arial,Helvetica,'Helvetica Neue',sans-serif" font-weight="500.000000" transform="rotate(45 682.924 407.345)">10:02:27</text>
  <text x="762.128917" y="412.345145" fill="#000000" font-size="14.666667" font-family="Arial,Helvetica,'Helvetica Neue',sans-serif" font-weight="500.000000" transform="rotate(45 762.129 407.345)">10:38:17</text>
  <text x="841.333333" y="412.345145" fill="#000000" font-size="14.666667" font-family="Arial,Helvetica,'Helvetica Neue',sans-serif" font-weight="500.000000" transform="rotate(45 841.333 407.345)">11:14:08</text>
  <path stroke-width="1.333333" stroke="#000000" fill="none" d="M49.2889 19.5556 L49.2889 395.612 "/>
  <path stroke-width="1.333333" stroke="#000000" fill="none" d="M49.2889 395.612 L54.6222 395.612 "/>
  <path stroke-width="1.333333" stroke="#000000" fill="none" d="M49.2889 301.598 L54.6222 301.598 "/>
  <path stroke-width="1.333333" stroke="#000000" fill="none" d="M49.2889 207.584 L54.6222 207.584 "/>
  <path stroke-width="1.333333" stroke="#000000" fill="none" d="M49.2889 113.57 L54.6222 113.57 "/>
  <path stroke-width="1.333333" stroke="#000000" fill="none" d="M49.2889 19.5556 L54.6222 19.5556 "/>
  <text x="6.485243" y="391.611811" fill="#000000" font-size="14.666667" font-family="Arial,Helvetica,'Helvetica Neue',sans-serif" font-weight="500.000000" transform="rotate(-90 37.5556 395.612)">7.3 × 10⁶</text>
  <text x="6.485243" y="297.597747" fill="#000000" font-size="14.666667" font-family="Arial,Helvetica,'Helvetica Neue',sans-serif" font-weight="500.000000" transform="rotate(-90 37.5556 301.598)">7.6 × 10⁶</text>
  <text x="6.485243" y="203.583683" fill="#000000" font-size="14.666667" font-family="Arial,Helvetica,'Helvetica Neue',sans-serif" font-weight="500.000000" transform="rotate(-90 37.5556 207.584)">8.0 × 10⁶</text>
  <text x="6.485243" y="109.569619" fill="#000000" font-size="14.666667" font-family="Arial,Helvetica,'Helvetica Neue',sans-serif" font-weight="500.000000" transform="rotate(-90 37.5556 113.57)">8.3 × 10⁶</text>
  <text x="6.485243" y="15.555556" fill="#000000" font-size="14.666667" font-family="Arial,Helvetica,'Helvetica Neue',sans-serif" font-weight="500.000000" transform="rotate(-90 37.5556 19.5556)">8.6 × 10⁶</text>
</svg>