<svg xmlns="http://www.w3.org/2000/svg" width="3600.000000" height="1920.000000" viewBox="0 0 3600 1920">
  <rect width="3600.000000" height="1920.000000" fill="#ffffff"/>
  <path fill="#000000" d="M5.1875 -49 L5.1875 -56 L12.0312 -56 L12.0312 -49 L5.1875 -49 M5.1875 0 L5.1875 -41 L12.0312 -41 L12.0312 0 L5.1875 0 " transform="translate(163.333 133.222)"/>
  <path fill="#000000" d="M9.75 0 L9.75 -48.75 L48.75 -48.75 L48.75 0 L9.75 0 M10.9688 -1.21875 L47.5312 -1.21875 L47.5312 -47.5312 L10.9688 -47.5312 L10.9688 -1.21875 " transform="translate(180.615 133.222)"/>
  <path fill="#000000" d="M9.75 0 L9.75 -48.75 L48.75 -48.75 L48.75 0 L9.75 0 M10.9688 -1.21875 L47.5312 -1.21875 L47.5312 -47.5312 L10.9688 -47.5312 L10.9688 -1.21875 " transform="translate(238.958 133.222)"/>
  <path fill="#000000" d="M9.75 0 L9.75 -48.75 L48.75 -48.75 L48.75 0 L9.75 0 M10.9688 -1.21875 L47.5312 -1.21875 L47.5312 -47.5312 L10.9688 -47.5312 L10.9688 -1.21875 " transform="translate(297.302 133.222)"/>
  <path fill="#000000" d="" transform="translate(355.646 133.222)"/>
  <path fill="#000000" d="M18.25 16 C12.5781 8.95312 4.71875 -9.92188 4.71875 -20.0312 Q4.71875 -28.9531 7.65625 -37.125 Q11.0781 -46.5938 18.25 -56 L23.1562 -56 Q18.5469 -48.2031 17.0625 -44.875 Q14.7344 -39.7031 13.4062 -34.0781 Q11.7656 -27.0781 11.7656 -20 Q11.7656 -1.98438 23.1562 16 L18.25 16 " transform="translate(377.255 133.222)"/>
  <path fill="#000000" d="M5.71875 0 L5.71875 -56 L26.6562 -56 C33.0625 -56 40.7969 -52.625 45.1719 -45.6094 L45.1719 -41.7812 C45.1719 -38.2188 41.2812 -31.9375 37.3594 -30 C42.4219 -28.5 47.875 -21.2656 47.875 -16.3438 C47.875 -12.3906 44.5625 -5.57812 39.6875 -1.89062 Q32.3438 0 27 0 L5.71875 0 M13.1094 -33 L25.1875 -33 Q30.0938 -33 32.2344 -33.6094 C35.0469 -34.4062 37.8906 -38.0938 37.8906 -40.875 C37.8906 -43.5156 35.2188 -47.5156 30.2812 -49 L24.2656 -49 L13.1094 -49 L13.1094 -33 M13.1094 -7 L27 -7 Q30.5781 -7 32.0312 -7.26562 C34.5781 -7.71875 38.0156 -9.82812 40.2188 -13.8594 L40.2188 -16.5 C40.2188 -19.5938 37.0156 -24.1562 31.3438 -26 L26.0156 -26 L13.1094 -26 L13.1094 -7 " transform="translate(403.161 133.222)"/>
  <path fill="#000000" d="M32.8281 -12 L39.9219 -11 C38.25 -5.29688 29.1875 1 22.1406 1 C13.2656 1 2.85938 -10.125 2.85938 -20.1562 C2.85938 -30.5312 13.375 -42 21.75 -42 C29.8594 -42 40.1406 -30.9062 40.1406 -20.8438 Q40.1406 -20.2188 40.1094 -19 L9.9375 -19 C10.3125 -12.7031 17.0938 -6 22.1562 -6 C25.9375 -6 31.2656 -8.85938 32.8281 -12 M10.3281 -26 L32.9062 -26 Q32.4531 -29.9531 30.3125 -31.9375 Q27.0469 -35 21.8281 -35 C17.1094 -35 10.6719 -30.1094 10.3281 -26 " transform="translate(455.036 133.222)"/>
  <path fill="#000000" d="M5.1875 -49 L5.1875 -56 L12.0312 -56 L12.0312 -49 L5.1875 -49 M5.1875 0 L5.1875 -41 L12.0312 -41 L12.0312 0 L5.1875 0 " transform="translate(498.302 133.222)"/>
  <path fill="#000000" d="M5.10938 -49 L5.10938 -56 L11.9531 -56 L11.9531 -49 L5.10938 -49 M-3.57812 16.1562 L-2.28125 9.48438 Q-0.21875 10 0.953125 10 C3.04688 10 5.10938 7.21875 5.10938 1.64062 L5.10938 -41 L11.9531 -41 L11.9531 2.51562 Q11.9531 10.125 10.0156 13.1094 Q7.53125 17 1.79688 17 Q-0.984375 17 -3.57812 16.1562 " transform="translate(515.583 133.222)"/>
  <path fill="#000000" d="M5.1875 -49 L5.1875 -56 L12.0312 -56 L12.0312 -49 L5.1875 -49 M5.1875 0 L5.1875 -41 L12.0312 -41 L12.0312 0 L5.1875 0 " transform="translate(532.865 133.222)"/>
  <path fill="#000000" d="M5.14062 0 L5.14062 -41 L11.3125 -41 L11.3125 -35.25 Q15.7656 -42 24.1875 -42 C27.8438 -42 33.9844 -39.3281 37.0312 -35 L37.6406 -32.0156 Q38.0156 -30.0938 38.0156 -25.25 L38.0156 0 L31.1562 0 L31.1562 -24.3125 C31.1562 -28.4531 29.5625 -32.5469 25.4844 -35 L22.7344 -35 C18.3594 -35 12 -29.5 12 -21.8281 L12 0 L5.14062 0 " transform="translate(550.146 133.222)"/>
  <path fill="#000000" d="M3.89062 4 L10.5469 5 Q10.9688 7.40625 12.875 8.51562 Q15.4219 10 19.8438 10 C24.5938 10 29.7812 6.4375 30.6875 3.23438 Q31.2344 1.26562 31.1875 -5 Q26.6875 0 20 0 C11.6562 0 2.51562 -12.2188 2.51562 -20.7656 C2.51562 -26.6406 6.70312 -36.5781 14.6719 -42 L20.0312 -42 Q27.2031 -42 31.8438 -36 L31.8438 -41 L38.1562 -41 L38.1562 -5.34375 C38.1562 4.29688 34.3125 12.3438 25.9688 17 L19.875 17 C12.6406 17 3.73438 10.5156 3.89062 4 M9.5625 -21.25 C9.5625 -13.8281 15.8906 -7 20.6406 -7 C25.375 -7 31.7656 -13.7812 31.7656 -21.0312 C31.7656 -27.9688 25.1719 -35 20.5312 -35 C15.9531 -35 9.5625 -28.0781 9.5625 -21.25 " transform="translate(593.411 133.222)"/>
  <path fill="#000000" d="M9.64062 16 L4.71875 16 Q16.1094 -1.98438 16.1094 -20 Q16.1094 -27.0469 14.4688 -33.9688 Q13.1719 -39.5938 10.8594 -44.7656 Q9.35938 -48.1406 4.71875 -56 L9.64062 -56 Q16.7969 -46.5938 20.2188 -37.125 Q23.1562 -28.9531 23.1562 -20.0312 C23.1562 -9.92188 15.2812 8.95312 9.64062 16 " transform="translate(636.677 133.222)"/>
  <path fill="#0066cc" d="M118.611 106.222 M60.2778 106.222 a29.1667 29.1667 0 1 0 58.3333 0 a29.1667 29.1667 0 1 0 -58.3333 0 "/>
  <path fill="#000000" d="M34.125 -7 L40.5625 -7 L40.5625 0 L1.90625 0 L1.90625 -7 L26.8438 -7 L26.8438 -20.5625 C26.8438 -26.1094 24.3281 -31.7031 17.75 -35 L10.7812 -35 Q8.29688 -35 3.125 -34 L2.51562 -41 Q7.65625 -42 13.4531 -42 C24.3438 -42 34.125 -32.5 34.125 -22.8281 L34.125 -7 " transform="translate(163.333 249.056)"/>
  <path fill="#000000" d="M13.3281 -41 L13.3281 -20 L5.90625 -20 L5.90625 -41 L13.3281 -41 " transform="translate(205.49 249.056)"/>
  <path fill="#000000" d="M34.125 -7 L40.5625 -7 L40.5625 0 L1.90625 0 L1.90625 -7 L26.8438 -7 L26.8438 -20.5625 C26.8438 -26.1094 24.3281 -31.7031 17.75 -35 L10.7812 -35 Q8.29688 -35 3.125 -34 L2.51562 -41 Q7.65625 -42 13.4531 -42 C24.3438 -42 34.125 -32.5 34.125 -22.8281 L34.125 -7 " transform="translate(224.661 249.056)"/>
  <path fill="#000000" d="M41.8125 0 L32.8281 0 L17.4062 -21.9062 Q13.8281 -19.9531 13.1719 -14.0312 L11.5469 0 L4 0 L5.64062 -14.1719 Q6.78125 -24.0625 13.5625 -27.5469 L4.15625 -41 L13.1094 -41 L26.0469 -22.6094 C28.4062 -24.2031 30.2812 -28.1875 30.8125 -32.75 L31.7656 -41 L39.3125 -41 L38.3906 -32.5312 C37.7812 -27.0781 34.1562 -20.0781 29.7031 -17.3281 L41.8125 0 " transform="translate(266.818 249.056)"/>
  <path fill="#000000" d="" transform="translate(310.615 249.056)"/>
  <path fill="#000000" d="M9.51562 -41 L31.9219 -41 L31.9219 -30.7969 C31.9219 -26.4688 30.3125 -21.0938 28.3438 -18.3594 L26.2812 -15.5781 Q23.1875 -11.3594 23.1875 -6.5625 L23.1875 0 L15.9219 0 L15.9219 -5.39062 C15.9219 -10.2656 17.8594 -15.1719 19.7344 -17.5469 L22.0156 -20.4219 C23.6875 -22.5312 24.6406 -25.9219 24.6406 -28.6094 L24.6406 -34 L2.28125 -34 L2.28125 -56 L9.51562 -56 L9.51562 -41 " transform="translate(332.224 249.056)"/>
  <path fill="#000000" d="M1.53125 -1.5 L2.78125 -8.5 Q4.76562 -7 7.07812 -7 C9.70312 -7 11.6875 -9.25 11.6875 -12.2031 L11.6875 -34.7656 Q8.42188 -34.7656 3.65625 -34.0781 L3.01562 -40.7656 Q11.7031 -42 20.6406 -42 C29.7031 -42 39.4531 -38.875 44.5938 -30.5312 L44.5938 -22.4219 L44.5938 0 L37.3281 0 L37.3281 -20.0938 C37.3281 -26.0625 35.5312 -31.6094 29.5156 -35.0781 L22.5781 -35.0781 L18.9219 -35 L18.9219 -10.4531 C18.9219 -6.64062 17.5156 -2.59375 13.0625 0 L8.64062 0 Q5.0625 0 1.53125 -1.5 " transform="translate(368.224 249.056)"/>
  <path fill="#000000" d="" transform="translate(418.208 249.056)"/>
  <path fill="#000000" d="M26.5156 -58.4375 Q26.5156 -57.0938 24.1562 -54.5312 Q22.4062 -52.7812 20.6875 -51.0156 Q16.4531 -46.1875 14.0469 -37.2344 Q11.9531 -29.4375 11.9531 -21.8906 Q11.9531 -2.45312 20.7188 6.625 Q22.4688 8 24.2656 9.375 Q26.4688 11.1406 26.4688 12.8594 C26.4688 14.125 24.4844 16 23.1875 16 Q22.0469 16 20.4531 15.125 Q4.34375 6.04688 4.34375 -22.7656 Q4.34375 -33.1406 8.5 -43.7812 Q13.1406 -55.6094 20.6875 -60.9219 Q22.2031 -62 23.0938 -62 C24.4531 -62 26.5156 -59.8125 26.5156 -58.4375 " transform="translate(441.458 249.056)"/>
  <path fill="#000000" d="M51.875 -48.1719 Q49.0469 -48.1719 43.1875 -48.625 Q37.4688 -49.0312 34.5 -49 L31.7969 -49 Q31.9062 -43.7656 32.8281 -32.0156 Q33.6719 -21.0781 33.6719 -15 C33.6719 -13.6875 34.2031 -8.29688 34.2031 -6.9375 Q34.2031 -4.35938 33.3594 -2.5 Q32.2969 0 30.0469 0 C28.5312 0 26.0938 -2.125 26.0938 -3.79688 C26.0938 -4.375 26.4688 -6.65625 26.4688 -7.21875 C26.4688 -9.07812 25.9844 -16.5312 25.9844 -18.4375 Q25.9844 -23.875 25.1094 -33.7188 Q24.1875 -44.3594 24.0781 -49 L20.6094 -48.9688 Q12.2656 -48.9688 7.5 -50.1875 Q4.42188 -50.9844 4.42188 -53.9688 Q4.42188 -55.5469 5.40625 -56.7344 Q6.54688 -58.0625 8.34375 -57.9531 Q9.67188 -57.875 14.4375 -57.2656 Q18.25 -56.8125 20.6094 -56.8125 C22.8906 -56.8125 32.1875 -57 34.4688 -57 C37.4062 -57 48.9375 -56.1406 51.875 -56.1406 C53.5156 -56.1406 55.7188 -53.8438 55.7188 -52.125 C55.7188 -50.4375 53.5156 -48.1719 51.875 -48.1719 " transform="translate(469.943 249.056)"/>
  <path fill="#000000" d="M23.0781 2 Q14.4688 2 9.14062 -2.34375 Q3.3125 -7.15625 3.3125 -15.8281 Q3.3125 -25.8281 8.10938 -32.6094 Q13.3281 -40 22.0469 -40 Q28.375 -40 32.375 -37.8125 Q37.2812 -35.125 37.2812 -29.5312 Q37.2812 -25.625 32.9844 -22.4219 Q31.0781 -21.1406 24.9062 -18.4531 L10.3594 -12.0312 C12.5 -9.03125 18.8594 -6 23.0781 -6 Q25.7031 -6 29.25 -6.9375 C33.75 -8.125 36.3438 -12 37.8281 -12 C39.1562 -12 41.25 -9.85938 41.25 -8.45312 Q41.25 -3.96875 34.4375 -0.75 Q28.6094 2 23.0781 2 M22.0625 -32 C17.4062 -32 11.2344 -25.2969 9.71875 -18.5625 L21.4062 -23.7344 Q28.2969 -26.8594 31.2344 -29.1562 Q27.9531 -32 22.0625 -32 " transform="translate(522.802 249.056)"/>
  <path fill="#000000" d="M14.9688 -30.1094 L14.3906 -10.8594 Q14.3906 -7.79688 14.0938 -1.875 Q13.7188 2 10.3594 2 Q6.625 2 6.625 -1.95312 C6.625 -6.64062 7.46875 -25.4219 7.46875 -30.1094 C7.46875 -36.2344 7.84375 -52 7.84375 -58.125 Q7.84375 -62 11.5781 -62 Q15.3438 -62 15.3438 -58.125 C15.3438 -52 14.9688 -36.2344 14.9688 -30.1094 " transform="translate(565.411 249.056)"/>
  <path fill="#000000" d="" transform="translate(586.724 249.056)"/>
  <path fill="#000000" d="M47.6094 0 Q44.1094 0 41.5156 -8.54688 Q40.5156 -12.0938 39.0312 -20.9531 Q35.1406 -20.3438 28.8594 -18.7812 L18.7344 -16.3906 Q16.8281 -11.5 12.2188 -2.09375 Q11 0 8.90625 0 C7.39062 0 4.98438 -2.21875 4.98438 -3.875 Q4.98438 -5.70312 10.7344 -17.8594 Q10.0938 -18.8594 10.0938 -20.1562 Q10.0938 -23.2656 13.8281 -24.1406 Q18.1719 -31.9688 24.7969 -42.1406 Q33.8281 -56 36.0312 -56 Q39.0312 -56 40.1406 -51.9844 L42.5469 -39.4219 L48.2188 -13.4375 L50.3906 -7.65625 Q51.5 -4.6875 51.5 -3.70312 C51.5 -2.125 49.1406 0 47.6094 0 M34.1562 -42.6562 L23.2656 -24.2969 Q27.875 -26.2188 37.25 -28.9531 L34.1562 -42.6562 " transform="translate(609.974 249.056)"/>
  <path fill="#000000" d="M22.8594 -1.96875 Q22.75 1.53125 19.3906 1.53125 Q16.6094 1.53125 15.3438 -1.75 L9.51562 -17.2188 L2.75 -34.7031 Q2.35938 -35.6562 2.35938 -36.3906 C2.35938 -37.875 4.71875 -40 6.28125 -40 Q8.57812 -40 9.5625 -37.9062 L19.2344 -11.2656 Q22.0938 -17.3594 26.4375 -28.9531 Q27.4688 -32 29.6719 -37.5625 Q30.8438 -40 33.0156 -40 C34.5781 -40 36.9375 -37.7969 36.9375 -36.2656 Q36.9375 -34.8125 30.6562 -19.9531 L22.8594 -1.96875 " transform="translate(666.865 249.056)"/>
  <path fill="#000000" d="M12.5781 -49 C10.75 -49 8.07812 -51.3438 8.07812 -53 C8.07812 -54.6562 10.75 -57 12.5781 -57 C14.4062 -57 17.0312 -54.6562 17.0312 -53 C17.0312 -51.3438 14.4062 -49 12.5781 -49 M14.2812 -17.8438 C14.2812 -15.5156 14.5469 -6.21875 14.5469 -3.89062 C14.5469 -2.17188 12.4844 0 10.8125 0 C9.17188 0 7.07812 -2.17188 7.07812 -3.89062 C7.07812 -6.21875 6.8125 -15.5156 6.8125 -17.8438 C6.8125 -21.5 7.57812 -32.4219 7.57812 -36.0781 C7.57812 -37.8281 9.67188 -40 11.3125 -40 C12.9531 -40 15.0469 -37.8281 15.0469 -36.0781 C15.0469 -32.4219 14.2812 -21.5 14.2812 -17.8438 " transform="translate(704.693 249.056)"/>
  <path fill="#000000" d="M22.8594 -1.96875 Q22.75 1.53125 19.3906 1.53125 Q16.6094 1.53125 15.3438 -1.75 L9.51562 -17.2188 L2.75 -34.7031 Q2.35938 -35.6562 2.35938 -36.3906 C2.35938 -37.875 4.71875 -40 6.28125 -40 Q8.57812 -40 9.5625 -37.9062 L19.2344 -11.2656 Q22.0938 -17.3594 26.4375 -28.9531 Q27.4688 -32 29.6719 -37.5625 Q30.8438 -40 33.0156 -40 C34.5781 -40 36.9375 -37.7969 36.9375 -36.2656 Q36.9375 -34.8125 30.6562 -19.9531 L22.8594 -1.96875 " transform="translate(726.49 249.056)"/>
  <path fill="#000000" d="M26.5156 -22.7656 Q26.5156 6.04688 10.3594 15.125 Q8.79688 16 7.65625 16 C6.35938 16 4.375 14.125 4.375 12.8594 Q4.375 11.1406 6.57812 9.375 Q8.34375 8 10.125 6.625 Q18.8906 -2.45312 18.8906 -21.8906 Q18.8906 -29.4375 16.7969 -37.2344 Q14.3594 -46.1875 10.1719 -51.0156 Q8.42188 -52.7812 6.70312 -54.5312 Q4.34375 -57.0938 4.34375 -58.4375 C4.34375 -59.8125 6.35938 -62 7.73438 -62 Q8.60938 -62 10.1719 -60.9219 Q17.7188 -55.6094 22.3594 -43.7812 Q26.5156 -33.1406 26.5156 -22.7656 " transform="translate(764.318 249.056)"/>
  <path fill="#cc0066" d="M118.611 217.556 M60.2778 217.556 a29.1667 29.1667 0 1 0 58.3333 0 a29.1667 29.1667 0 1 0 -58.3333 0 "/>
  <path fill="#000000" d="M17.8281 -48.6562 L14.8594 -43 L8.6875 -46.375 L11.5469 -52 L17.8281 -48.6562 M9.0625 -45.7031 L6.17188 -40 L0 -43.2969 L2.8125 -49 L9.0625 -45.7031 M21.1719 -24.0938 Q21.1719 -18.3594 19.4219 -15.4688 Q16.7188 -11 9.51562 -11 Q6.73438 -11 4.90625 -12.1719 Q2.8125 -13.5 2.8125 -15.9688 Q2.8125 -18.7969 4.14062 -22.5 Q5.35938 -25.6562 6.625 -28.8438 L6.0625 -29 L8.375 -36 Q15.2656 -32.1406 16.6094 -31.125 Q21.1719 -27.7031 21.1719 -24.0938 M17.8594 -21.3594 Q17.8594 -22.7969 13.6719 -25.1875 Q11.8906 -26.2031 9.82812 -27.1875 Q8.10938 -25.3281 7.76562 -24.875 Q6.70312 -23.4062 6.70312 -22.0781 C6.70312 -20.1562 8.875 -18 10.7031 -18 C12.8281 -18 17.8594 -20.375 17.8594 -21.3594 " transform="translate(163.333 360.389)"/>
  <path fill="#000000" d="M38.125 -11.4219 Q38.125 -7.1875 34.5469 -2.65625 Q31.4219 1.34375 26.7656 4.23438 Q22.3594 7 19.5 7 Q16.875 7 13.8281 6.09375 Q11.5 5.40625 8.26562 3.95312 Q5.51562 2.73438 2.8125 1.5 L3.46875 0.046875 C5.98438 0.6875 11.4219 2 13.6406 2 Q18.5156 2 23.7969 -1.01562 C28.5938 -3.78125 35.375 -12.2031 35.375 -15.5938 Q35.375 -18.5 33.625 -21.7031 Q32.2188 -24.2812 29.6719 -27 L31.8438 -34 Q34.9688 -31.0781 36.4531 -28.1562 Q38.125 -24.8438 38.125 -20.7656 L38.125 -11.4219 " transform="translate(185.286 360.389)"/>
  <path fill="#000000" d="M30.0156 -18.7188 Q30.0156 -16.5469 28.6406 -13.8906 Q27.1562 -11 25.6719 -11 Q24.1094 -11 19.8438 -12.4219 Q15.9219 -13.7344 13.2188 -15 Q8.79688 -12.5781 6.78125 -11.875 Q4.21875 -11 0.75 -11 L-2.67188 -11 L-2.67188 -18 L0.75 -18 C2.3125 -18 5.21875 -18.5312 7.6875 -19.2188 Q6.70312 -19.9531 5.70312 -20.7188 Q4.64062 -21.6719 4.64062 -22.5938 C4.64062 -23.2344 4.75 -23.8594 5.21875 -24.6875 L8.98438 -31.3125 C9.75 -32.6562 11 -33.6875 12.1094 -34 Q9.48438 -35.8594 9.48438 -36.6406 Q9.48438 -37.4375 11.1562 -40.7188 Q11.7344 -41.8281 12.9062 -44 Q15.3438 -41.7188 19.0469 -37.3594 Q23.7344 -31.8906 26.4375 -27.5781 Q30.0156 -21.875 30.0156 -18.7188 M16.6094 -26.2969 Q16.6094 -27.9219 15.9219 -28.875 Q15.125 -30 13.375 -30 C11.6094 -30 8.5625 -27.7031 8.5625 -26.0781 Q8.5625 -24.5312 13.2188 -22 Q14.8594 -23.0625 15.6562 -24.0312 Q16.6094 -25.1719 16.6094 -26.2969 M25.7812 -18.9688 Q25.7812 -20.0781 23.6562 -22.4062 Q22.3125 -23.875 20.375 -25.5469 C20.375 -23.6406 18.8125 -20.3125 17.4062 -19.4219 Q19.6875 -18.8906 22.0156 -18.375 Q23.9219 -18 24.7188 -18 C25.1719 -18 25.7812 -18.5625 25.7812 -18.9688 " transform="translate(223.302 360.389)"/>
  <path fill="#000000" d="M17.9062 -11 L12.5625 -11 Q9.98438 -11 8.40625 -13.0781 C7.04688 -14.9062 5.625 -22.1094 5.25 -27.375 C5.01562 -31.6562 4.53125 -40.6719 3.73438 -45.3438 L3.04688 -46.8125 Q2.20312 -48.6406 0.71875 -50 L5.40625 -57 Q6.89062 -52.5312 7.5 -46.3281 Q7.89062 -42.4688 8.26562 -28.0312 Q8.95312 -21.4219 10.25 -19.5625 Q11.3125 -18 12.5781 -18 L17.9062 -18 L17.9062 -11 " transform="translate(258.318 360.389)"/>
  <path fill="#000000" d="M18.8594 -54.6094 L15.6094 -49 L10.8594 -52.4375 L14.125 -58 L18.8594 -54.6094 M10.125 -52.6875 L7.125 -47 L2.4375 -50.3906 L5.59375 -56 L10.125 -52.6875 M20.4844 -11 L-2.67188 -11 L-2.67188 -18 L10.3906 -18 C12.7656 -18 16.0781 -18.3594 18.0156 -18.9531 Q11.4688 -19.9219 9.51562 -20.7656 Q5.14062 -22.6875 5.14062 -27.3125 Q5.14062 -31.3594 7.23438 -34.9531 Q9.59375 -39 12.9844 -39 Q16.875 -39 18.8906 -33.9375 Q20.4844 -29.9062 20.4844 -24.4531 L20.4844 -11 M17.0625 -25 Q16.1875 -27.8906 15.3906 -29.2969 Q13.8281 -32 11.625 -32 C10.5469 -32 9.03125 -30.4062 9.03125 -29.3281 Q9.03125 -26.5938 12.0312 -25.6562 Q13.1094 -25.3281 17.0625 -25 " transform="translate(276.161 360.389)"/>
  <path fill="#000000" d="M16.1562 -11 L-2.67188 -11 L-2.67188 -18 L12.2969 -18 L7.76562 -51.6719 L5.79688 -52.6719 C5.79688 -55.3438 6.71875 -60.0469 7.625 -62.25 L8.1875 -61.8438 Q8.1875 -59.625 10.6719 -58.5312 Q12.5781 -57.7656 14.5156 -57 C14.5156 -55.0156 13.9062 -50.4688 13.4844 -49.3594 L11.6562 -50 L16.1562 -18.875 L16.1562 -11 " transform="translate(296.599 360.389)"/>
  <path fill="#000000" d="M12.875 -20.6094 Q12.875 -17.5938 11.7656 -14.7812 Q11.2031 -13.2656 9.29688 -10 L8.60938 -10.375 C8.71875 -11.4688 8.90625 -14.3438 8.90625 -14.8281 C8.90625 -18.7656 7.65625 -32.8438 6.78125 -40.5156 Q6.23438 -45.1719 5.59375 -50 C6.35938 -51.6094 8.29688 -55.3438 9.17188 -57 C9.78125 -52.7188 11.6562 -37.8281 12.1875 -31.8438 Q12.875 -24.4062 12.875 -20.6094 " transform="translate(312.708 360.389)"/>
  <path fill="#000000" d="" transform="translate(328.818 360.389)"/>
  <path fill="#000000" d="" transform="translate(328.818 360.389)"/>
  <path fill="#000000" d="M26.5156 -58.4375 Q26.5156 -57.0938 24.1562 -54.5312 Q22.4062 -52.7812 20.6875 -51.0156 Q16.4531 -46.1875 14.0469 -37.2344 Q11.9531 -29.4375 11.9531 -21.8906 Q11.9531 -2.45312 20.7188 6.625 Q22.4688 8 24.2656 9.375 Q26.4688 11.1406 26.4688 12.8594 C26.4688 14.125 24.4844 16 23.1875 16 Q22.0469 16 20.4531 15.125 Q4.34375 6.04688 4.34375 -22.7656 Q4.34375 -33.1406 8.5 -43.7812 Q13.1406 -55.6094 20.6875 -60.9219 Q22.2031 -62 23.0938 -62 C24.4531 -62 26.5156 -59.8125 26.5156 -58.4375 " transform="translate(352.068 360.389)"/>
  <path fill="#000000" d="M42.0469 -43 Q39.6094 -43 38.3906 -45.75 Q37.3281 -48.0781 36.4062 -48.5938 Q35.6094 -49 32.4531 -49 Q26.9219 -49 20.1875 -40.5625 Q11.0469 -29.2344 11.0469 -19.0938 Q11.0469 -14.1875 14.2031 -10.6562 Q17.4375 -7 22.0156 -7 Q25.9375 -7 29.8906 -8.98438 Q32.1094 -10.125 36.6719 -13.4219 Q38.8438 -15 39.9531 -15 C41.5938 -15 43.7969 -12.5156 43.7969 -10.9844 Q43.7969 -9.26562 42.3438 -7.95312 Q32.2969 1 22.0156 1 Q14.125 1 8.67188 -5.09375 Q3.42188 -10.9844 3.42188 -19.0156 Q3.42188 -32 14.2344 -45.625 Q23.2656 -57 32.4375 -57 C34.3125 -57 37.2812 -56.6562 38.4219 -56.2812 Q39.75 -58 41.8906 -58 Q44.5156 -58 45.2031 -54.5938 Q45.8125 -51.5625 45.8125 -47.1562 Q45.8125 -45.625 44.9688 -44.4531 Q43.9531 -43 42.0469 -43 " transform="translate(380.552 360.389)"/>
  <path fill="#000000" d="M35.0312 1 Q34.3125 1 32.4062 -0.5 Q30.6875 -1.90625 29.8594 -3 C26.2031 -1.01562 20.6406 1 18.7656 1 Q9.85938 1 5.78125 -3.92188 Q1.9375 -8.5625 1.9375 -18.125 C1.9375 -27.1562 14.625 -40 23.4219 -40 Q26.7344 -40 30.8594 -38.3438 Q36.0312 -36.2656 36.0312 -33.3438 Q36.0312 -32.3594 35.2656 -31.5781 C34.8906 -30.1719 34.4688 -23.75 34.4375 -18.7188 Q34.3906 -14.1406 35.0781 -11.4844 Q35.4688 -9.85938 37.4688 -4.98438 Q37.75 -4.3125 38.3438 -3.03125 L38.5781 -2.39062 C38.5781 -0.921875 36.4375 1 35.0312 1 M27.125 -24.0312 C27.125 -25.4688 27.5312 -28.8438 27.9531 -30.7656 C26.5469 -31.3906 24.5312 -32 23.9219 -32 C18.0156 -32 9.45312 -23.5156 9.45312 -17.9844 C9.45312 -12.5 13.875 -7 18.2969 -7 Q21.9531 -7 24.5 -8.17188 Q25.875 -8.8125 28.3438 -10.7188 Q27.125 -19.5938 27.125 -24.0312 " transform="translate(427.411 360.389)"/>
  <path fill="#000000" d="M12.5781 -49 C10.75 -49 8.07812 -51.3438 8.07812 -53 C8.07812 -54.6562 10.75 -57 12.5781 -57 C14.4062 -57 17.0312 -54.6562 17.0312 -53 C17.0312 -51.3438 14.4062 -49 12.5781 -49 M14.2812 -17.8438 C14.2812 -15.5156 14.5469 -6.21875 14.5469 -3.89062 C14.5469 -2.17188 12.4844 0 10.8125 0 C9.17188 0 7.07812 -2.17188 7.07812 -3.89062 C7.07812 -6.21875 6.8125 -15.5156 6.8125 -17.8438 C6.8125 -21.5 7.57812 -32.4219 7.57812 -36.0781 C7.57812 -37.8281 9.67188 -40 11.3125 -40 C12.9531 -40 15.0469 -37.8281 15.0469 -36.0781 C15.0469 -32.4219 14.2812 -21.5 14.2812 -17.8438 " transform="translate(467.208 360.389)"/>
  <path fill="#000000" d="M34.9375 -28.8281 Q34.6562 -24 31.125 -24 Q27.8438 -24 27.8438 -27.9062 Q27.8438 -28.6562 27.7344 -30.6875 L27.6094 -34 Q21.5938 -33.25 17.9844 -30.4688 Q14.5938 -27.9062 12.3438 -22.7031 L12.4219 -1 Q12.4219 3 8.65625 3 Q5.29688 3 5.29688 -0.9375 L5.29688 -28.3281 C5.29688 -29.625 5.48438 -34.7656 5.48438 -36.0625 Q5.48438 -40 8.84375 -40 Q12.5781 -40 12.6094 -34.0781 Q19.9219 -41 28.8438 -41 C31.9219 -41 34.9688 -36.2812 34.9688 -31.5312 Q34.9688 -29.5312 34.9375 -28.8281 " transform="translate(489.005 360.389)"/>
  <path fill="#000000" d="M19.5781 1 Q13.1719 1 8.5625 -3.64062 Q3.42188 -8.79688 3.15625 -17.5156 Q2.9375 -25.9688 7.5 -32.4062 Q12.8281 -40 22.3594 -40 Q29.9688 -40 33.8906 -33.1562 Q37.0156 -27.625 36.9062 -19.8438 Q36.7969 -11.5312 32.4844 -5.65625 Q27.6094 1 19.5781 1 M21.875 -32 Q16.2656 -32.0312 13.1406 -26.9375 Q10.6719 -22.8438 10.6719 -17.5938 Q10.6719 -12.3594 13.6875 -9.42188 Q16.1875 -7 19.5781 -7 Q23.5469 -7 26.4062 -9.75 Q29.6406 -12.7812 29.8281 -17.9688 Q30.3594 -31.9688 21.875 -32 " transform="translate(526.38 360.389)"/>
  <path fill="#000000" d="M26.5156 -22.7656 Q26.5156 6.04688 10.3594 15.125 Q8.79688 16 7.65625 16 C6.35938 16 4.375 14.125 4.375 12.8594 Q4.375 11.1406 6.57812 9.375 Q8.34375 8 10.125 6.625 Q18.8906 -2.45312 18.8906 -21.8906 Q18.8906 -29.4375 16.7969 -37.2344 Q14.3594 -46.1875 10.1719 -51.0156 Q8.42188 -52.7812 6.70312 -54.5312 Q4.34375 -57.0938 4.34375 -58.4375 C4.34375 -59.8125 6.35938 -62 7.73438 -62 Q8.60938 -62 10.1719 -60.9219 Q17.7188 -55.6094 22.3594 -43.7812 Q26.5156 -33.1406 26.5156 -22.7656 " transform="translate(567.286 360.389)"/>
  <path fill="#cc0066" d="M118.611 328.889 M60.2778 328.889 a29.1667 29.1667 0 1 0 58.3333 0 a29.1667 29.1667 0 1 0 -58.3333 0 "/>
  <path fill="#000000" d="M61.8906 4 Q59.8281 4 58.5 1.82812 Q57.3594 -0.046875 56.4375 -4.40625 L55.0625 -11.1875 Q53.5156 -17.4844 50.125 -38.9844 L42.5156 -15.2344 L40.2656 -7.75 Q38.8906 -3.29688 37.4062 -0.46875 Q35.8125 2 33.1094 2 Q30.8594 2 29.5625 0 Q28.7188 -1.65625 28.0312 -4.21875 L26.9375 -8.57812 Q23.0781 -22.4844 20.1406 -38.3594 L18.7656 -31.375 L13.8594 -10.75 Q13.5469 -7.10938 11.9531 0 Q10.8125 3 8.1875 3 Q6.32812 3 5.21875 1.64062 Q4.26562 0.484375 4.26562 -1.20312 Q4.26562 -7.65625 6.89062 -17.0469 L11.0781 -32.9219 L13.2969 -45.3281 Q14.9688 -54.0312 16.8438 -56.7188 Q18.3594 -59 20.6094 -59 Q23.0781 -59 24.2969 -56.0781 Q25.7812 -52.5781 27.5 -41.7812 Q29.5156 -28.8281 33.7812 -13.75 Q39.4219 -28.9062 43.5312 -45.3281 L44.6719 -51.0781 Q45.3594 -54.5469 46.4688 -56.6719 Q47.9531 -59 50.5469 -59 Q53.8125 -59 55.5312 -53.0469 Q56.1406 -50.7969 57.0156 -43.75 Q59.2656 -25.9531 62.625 -13.3438 L64.4844 -6.57812 Q65.9219 -1.1875 65.9219 0.0625 C65.9219 1.73438 63.4531 4 61.8906 4 " transform="translate(163.333 482.222)"/>
  <path fill="#000000" d="M43.5781 -23.3281 Q43.5781 -14.5 38.3281 -7.32812 Q32.1875 1 22.3281 1 Q14.25 1 8.60938 -3.46875 Q2.625 -8.17188 2.625 -15.6719 Q2.625 -24.5 8.375 -31.7812 Q14.8125 -40 24.6875 -40 Q43.5781 -40 43.5781 -23.3281 M35.6562 -23.0781 C35.6562 -28.1719 30.7344 -32 24.6875 -32 Q18.8125 -32 14.5469 -26.8125 Q10.5469 -21.875 10.5469 -15.9219 Q10.5469 -11.8906 14.0156 -9.375 Q17.3281 -7 22.3281 -7 Q28.1094 -7 32.0312 -12.1875 Q35.6562 -16.9844 35.6562 -23.0781 " transform="translate(232.005 482.222)"/>
  <path fill="#000000" d="M22.5156 1 Q14.7031 1 9.48438 -3.51562 Q4 -8.25 4 -16 Q4 -23.3906 9.14062 -31.2656 Q14.8594 -40 22.0156 -40 Q25.75 -40 30.3594 -38.0781 Q36.1875 -35.6094 36.1875 -32.0625 C36.1875 -30.4688 34.2812 -28 32.875 -28 C31.7656 -28 30.125 -29.4219 29.375 -30.0938 Q27.125 -32 22.0156 -32 Q18.1406 -32 14.3281 -25.9375 Q10.8594 -20.3594 10.8594 -16.2969 Q10.8594 -11.9062 14.2812 -9.35938 Q17.4844 -7 22.5156 -7 Q24.7969 -7 27.3906 -8.15625 L31.7969 -10.4219 Q32.9531 -11 33.4375 -11 C34.8438 -11 36.9062 -8.625 36.9062 -7.09375 Q36.9062 -4.15625 31.0469 -1.42188 Q25.9062 1 22.5156 1 " transform="translate(278.005 482.222)"/>
  <path fill="#000000" d="M36.9062 -2.51562 C36.9062 -0.953125 34.5 1 33.0156 1 C30.3594 1 28.3281 -4.5 23.7969 -11.0312 Q18.9688 -17.9688 17.5625 -18 Q17.1719 -18 12.9844 -18 Q12.9844 -16.75 12.9531 -13.5781 Q12.9062 -10.6406 12.9062 -9.125 Q12.9062 -2.92188 12.7188 -2.0625 Q12.1094 1 8.98438 1 C7.39062 1 5.14062 -0.890625 5.14062 -2.4375 C5.14062 -4.20312 5.45312 -11.7812 5.45312 -13.5938 C5.45312 -17.1875 4.90625 -31.5156 4.90625 -35.1406 Q4.90625 -40 8.82812 -40 C10.4375 -40 12.6406 -38.125 12.6406 -36.6719 Q12.6406 -34.0312 12.9062 -26 Q13.9375 -26 15.6875 -26 Q20.3438 -26.3125 22.4062 -30.1875 Q23.0156 -31.5938 24 -33.8594 Q26.9375 -40 31.2656 -40 Q32.6406 -40 34.125 -39.3438 Q36.0312 -38.4844 36.0312 -37.0938 Q36.0312 -34.0312 33.4375 -34.0312 Q31.2969 -34.0312 29.0156 -28.8281 Q27.4219 -25.2969 27.2344 -24.9062 Q26.0469 -22.7031 24.6094 -21.5 Q28.4219 -18.7344 32.6094 -12.3594 Q36.9062 -5.84375 36.9062 -2.51562 " transform="translate(317.958 482.222)"/>
  <path fill="#000000" d="M36.4844 -10.5938 Q36.4844 -3.6875 25.6719 -0.8125 Q18.8906 1 9.17188 1 C7.6875 1 4.98438 -1.32812 4.98438 -2.75 L4.98438 -9.875 Q4.98438 -9.98438 5.375 -29.9531 Q5.375 -31.8281 5.375 -33.7031 Q5.40625 -35.9844 5.875 -37.375 Q6.17188 -38.4219 7.01562 -38.8438 Q7.39062 -39.0625 9.10938 -39.4375 Q11.3906 -40 16.7188 -40 Q22.8594 -40 27.8438 -37.1094 Q33.6719 -33.7188 33.6719 -28.1094 Q33.6719 -22.9219 27.9531 -20.5 Q30.8438 -19.25 33.4688 -16.4531 Q36.4844 -13.2812 36.4844 -10.5938 M26.5469 -27.5156 Q26.5469 -29.3594 23.3438 -30.75 Q20.5312 -32 18.0156 -32 L16.4531 -32 Q13.5625 -32 12.5312 -31.9062 Q12.5 -30.875 12.5 -28.5781 Q12.5 -28 12.6875 -26.2969 Q12.8438 -24.875 12.7656 -24 Q14.9375 -23.7656 16.6875 -23.7656 Q20.9531 -23.7656 22.8906 -24.25 Q26.5469 -25.0625 26.5469 -27.5156 M28.9531 -11.6094 Q28.9531 -13.3594 25.9375 -14.9062 Q23.625 -16.125 21.0625 -16.5781 Q19.5781 -16.8438 16.6875 -16.875 Q13.0625 -16.9375 12.2656 -17 Q12.1094 -14.8125 12.1094 -13.2969 L12.1094 -7 Q28.9531 -7.60938 28.9531 -11.6094 " transform="translate(356.24 482.222)"/>
  <path fill="#000000" d="M35.0312 1 Q34.3125 1 32.4062 -0.5 Q30.6875 -1.90625 29.8594 -3 C26.2031 -1.01562 20.6406 1 18.7656 1 Q9.85938 1 5.78125 -3.92188 Q1.9375 -8.5625 1.9375 -18.125 C1.9375 -27.1562 14.625 -40 23.4219 -40 Q26.7344 -40 30.8594 -38.3438 Q36.0312 -36.2656 36.0312 -33.3438 Q36.0312 -32.3594 35.2656 -31.5781 C34.8906 -30.1719 34.4688 -23.75 34.4375 -18.7188 Q34.3906 -14.1406 35.0781 -11.4844 Q35.4688 -9.85938 37.4688 -4.98438 Q37.75 -4.3125 38.3438 -3.03125 L38.5781 -2.39062 C38.5781 -0.921875 36.4375 1 35.0312 1 M27.125 -24.0312 C27.125 -25.4688 27.5312 -28.8438 27.9531 -30.7656 C26.5469 -31.3906 24.5312 -32 23.9219 -32 C18.0156 -32 9.45312 -23.5156 9.45312 -17.9844 C9.45312 -12.5 13.875 -7 18.2969 -7 Q21.9531 -7 24.5 -8.17188 Q25.875 -8.8125 28.3438 -10.7188 Q27.125 -19.5938 27.125 -24.0312 " transform="translate(395.427 482.222)"/>
  <path fill="#6600cc" d="M118.611 450.722 M60.2778 450.722 a29.1667 29.1667 0 1 0 58.3333 0 a29.1667 29.1667 0 1 0 -58.3333 0 "/>
  <path fill="#000000" d="M5.9375 0 L5.9375 -56 L13.5156 -56 L42.8438 -11.5781 L42.8438 -56 L49.9375 -56 L49.9375 0 L42.3594 0 L13.0312 -44.4219 L13.0312 0 L5.9375 0 " transform="translate(163.333 599.556)"/>
  <path fill="#000000" d="M32.8281 -12 L39.9219 -11 C38.25 -5.29688 29.1875 1 22.1406 1 C13.2656 1 2.85938 -10.125 2.85938 -20.1562 C2.85938 -30.5312 13.375 -42 21.75 -42 C29.8594 -42 40.1406 -30.9062 40.1406 -20.8438 Q40.1406 -20.2188 40.1094 -19 L9.9375 -19 C10.3125 -12.7031 17.0938 -6 22.1562 -6 C25.9375 -6 31.2656 -8.85938 32.8281 -12 M10.3281 -26 L32.9062 -26 Q32.4531 -29.9531 30.3125 -31.9375 Q27.0469 -35 21.8281 -35 C17.1094 -35 10.6719 -30.1094 10.3281 -26 " transform="translate(219.505 599.556)"/>
  <path fill="#000000" d="M12.6094 0 L0.234375 -41 L7.3125 -41 L13.75 -17.1719 L16.1406 -8.53125 Q16.2969 -9.17188 18.25 -16.75 L24.6875 -41 L31.7188 -41 L37.7812 -17 L39.7969 -9.375 L42.125 -17.0781 L49.0625 -41 L55.7188 -41 L43.0781 0 L35.9531 0 L29.5156 -24.2812 L27.9531 -31.5469 L19.7656 0 L12.6094 0 " transform="translate(262.771 599.556)"/>
  <path fill="#000000" d="" transform="translate(318.943 599.556)"/>
  <path fill="#000000" d="M21.75 0 L21.75 -23.7188 L0.234375 -56 L9.21875 -56 L20.2188 -38.9688 Q23.2656 -34.2344 25.9062 -30.0156 Q28.4062 -33.9062 32 -39.4062 L42.8125 -56 L51.4219 -56 L29.1406 -23.7188 L29.1406 0 L21.75 0 " transform="translate(339.849 599.556)"/>
  <path fill="#000000" d="M2.59375 -20.5 Q2.59375 -31.9219 8.84375 -37.4219 Q14.0625 -42 21.5625 -42 C29.8906 -42 40.4844 -30.875 40.4844 -21.0781 C40.4844 -13.1406 35.7969 -4.03125 26.8438 1 L21.5625 1 C13.0625 1 2.59375 -10.0781 2.59375 -20.5 M9.64062 -20.5156 C9.64062 -13.2344 16.4219 -6 21.5625 -6 C26.6562 -6 33.4375 -13.2812 33.4375 -20.7344 C33.4375 -27.7656 26.625 -35 21.5625 -35 C16.4219 -35 9.64062 -27.7969 9.64062 -20.5156 " transform="translate(387.443 599.556)"/>
  <path fill="#000000" d="M5.0625 0 L5.0625 -41 L11.2344 -41 L11.2344 -35.0312 C13.5938 -39.2812 17.5938 -42 20 -42 Q23.4688 -42 27.0469 -39.7344 L24.6875 -33.3906 Q22.1719 -35 19.6562 -35 C17.4062 -35 13.8281 -32.2344 13.0625 -29.7812 Q11.9219 -26.0469 11.9219 -21.625 L11.9219 0 L5.0625 0 " transform="translate(427.146 599.556)"/>
  <path fill="#000000" d="M5.1875 0 L5.1875 -56 L12.0312 -56 L12.0312 -25.0156 L28.2656 -41 L37.1406 -41 L21.6719 -25.7656 L38.7031 0 L30.2344 0 L16.875 -20.9219 L12.0312 -16.25 L12.0312 0 L5.1875 0 " transform="translate(453.052 599.556)"/>
  <path fill="#000000" d="" transform="translate(491.943 599.556)"/>
  <path fill="#000000" d="M45.8594 -19.8594 L53.25 -18.0469 C50.9219 -8.75 38.8594 1 30.125 1 C21.1094 1 9.79688 -6.39062 3.89062 -20.3906 L3.89062 -28.4219 C3.89062 -37.1875 10.5625 -50.2344 22.8594 -57 L30.25 -57 C38.625 -57 50.0469 -48.2344 52.2969 -40.2969 L45.0156 -38.625 C43.0781 -44.5781 35.6875 -50 30.0938 -50 C23.6562 -50 15 -43.9844 11.5 -33.8281 L11.5 -28.4531 C11.5 -21.5 15.6562 -11.125 24.4062 -6 L29.5156 -6 C35.7344 -6 44.3281 -12.9844 45.8594 -19.8594 " transform="translate(513.552 599.556)"/>
  <path fill="#000000" d="M5.1875 -49 L5.1875 -56 L12.0312 -56 L12.0312 -49 L5.1875 -49 M5.1875 0 L5.1875 -41 L12.0312 -41 L12.0312 0 L5.1875 0 " transform="translate(569.724 599.556)"/>
  <path fill="#000000" d="M20.1094 -5.73438 L21.0938 0.328125 Q18.2031 1 15.9219 1 C12.1875 1 8.07812 -1.3125 6.40625 -5.09375 L6.40625 -11.1562 L6.40625 -34 L1.375 -34 L1.375 -41 L6.40625 -41 L6.40625 -51.0156 L13.2188 -55.125 L13.2188 -41 L20.1094 -41 L20.1094 -34 L13.2188 -34 L13.2188 -11.3594 C13.2188 -8.54688 13.9375 -6.95312 15.5781 -6 L17.1094 -6 Q18.25 -6 20.1094 -5.73438 " transform="translate(587.005 599.556)"/>
  <path fill="#000000" d="M4.84375 16.125 L4.07812 9.39062 Q6.32812 10 8 10 C10.2812 10 13.0312 8.45312 13.9062 7.0625 Q14.5469 6.01562 16 1.875 Q16.1875 1.29688 16.6094 0.171875 L1.25 -41 L8.64062 -41 L17.0625 -18.3594 Q18.7031 -14.0469 20 -9.29688 Q21.1719 -12.3906 22.8125 -16.9062 L31.4531 -41 L38.3125 -41 L22.9219 0.796875 Q20.4531 7.65625 19.0781 10.25 C17.25 13.75 12.5312 17 9.26562 17 Q7.28125 17 4.84375 16.125 " transform="translate(608.615 599.556)"/>
  <path fill="#000000" d="" transform="translate(647.505 599.556)"/>
  <path fill="#000000" d="M9.75 0 L9.75 -48.75 L48.75 -48.75 L48.75 0 L9.75 0 M10.9688 -1.21875 L47.5312 -1.21875 L47.5312 -47.5312 L10.9688 -47.5312 L10.9688 -1.21875 " transform="translate(669.115 599.556)"/>
  <path fill="#000000" d="" transform="translate(727.458 599.556)"/>
  <path fill="#000000" d="M9.75 0 L9.75 -48.75 L48.75 -48.75 L48.75 0 L9.75 0 M10.9688 -1.21875 L47.5312 -1.21875 L47.5312 -47.5312 L10.9688 -47.5312 L10.9688 -1.21875 " transform="translate(749.068 599.556)"/>
  <path fill="#000000" d="" transform="translate(807.411 599.556)"/>
  <path fill="#000000" d="M9.75 0 L9.75 -48.75 L48.75 -48.75 L48.75 0 L9.75 0 M10.9688 -1.21875 L47.5312 -1.21875 L47.5312 -47.5312 L10.9688 -47.5312 L10.9688 -1.21875 " transform="translate(829.021 599.556)"/>
  <path fill="#000000" d="M9.75 0 L9.75 -48.75 L48.75 -48.75 L48.75 0 L9.75 0 M10.9688 -1.21875 L47.5312 -1.21875 L47.5312 -47.5312 L10.9688 -47.5312 L10.9688 -1.21875 " transform="translate(887.365 599.556)"/>
  <path fill="#6600cc" d="M118.611 572.556 M60.2778 572.556 a29.1667 29.1667 0 1 0 58.3333 0 a29.1667 29.1667 0 1 0 -58.3333 0 "/>
  <path fill="#000000" d="M9.75 0 L9.75 -48.75 L48.75 -48.75 L48.75 0 L9.75 0 M10.9688 -1.21875 L47.5312 -1.21875 L47.5312 -47.5312 L10.9688 -47.5312 L10.9688 -1.21875 " transform="translate(163.333 710.889)"/>
  <path fill="#000000" d="M9.75 0 L9.75 -48.75 L48.75 -48.75 L48.75 0 L9.75 0 M10.9688 -1.21875 L47.5312 -1.21875 L47.5312 -47.5312 L10.9688 -47.5312 L10.9688 -1.21875 " transform="translate(221.677 710.889)"/>
  <path fill="#000000" d="M9.75 0 L9.75 -48.75 L48.75 -48.75 L48.75 0 L9.75 0 M10.9688 -1.21875 L47.5312 -1.21875 L47.5312 -47.5312 L10.9688 -47.5312 L10.9688 -1.21875 " transform="translate(280.021 710.889)"/>
  <path fill="#000000" d="" transform="translate(338.365 710.889)"/>
  <path fill="#000000" d="M18.25 16 C12.5781 8.95312 4.71875 -9.92188 4.71875 -20.0312 Q4.71875 -28.9531 7.65625 -37.125 Q11.0781 -46.5938 18.25 -56 L23.1562 -56 Q18.5469 -48.2031 17.0625 -44.875 Q14.7344 -39.7031 13.4062 -34.0781 Q11.7656 -27.0781 11.7656 -20 Q11.7656 -1.98438 23.1562 16 L18.25 16 " transform="translate(359.974 710.889)"/>
  <path fill="#000000" d="M20.2188 0 L20.2188 -49 L1.82812 -49 L1.82812 -56 L46.0781 -56 L46.0781 -49 L27.6094 -49 L27.6094 0 L20.2188 0 " transform="translate(385.88 710.889)"/>
  <path fill="#000000" d="M2.59375 -20.5 Q2.59375 -31.9219 8.84375 -37.4219 Q14.0625 -42 21.5625 -42 C29.8906 -42 40.4844 -30.875 40.4844 -21.0781 C40.4844 -13.1406 35.7969 -4.03125 26.8438 1 L21.5625 1 C13.0625 1 2.59375 -10.0781 2.59375 -20.5 M9.64062 -20.5156 C9.64062 -13.2344 16.4219 -6 21.5625 -6 C26.6562 -6 33.4375 -13.2812 33.4375 -20.7344 C33.4375 -27.7656 26.625 -35 21.5625 -35 C16.4219 -35 9.64062 -27.7969 9.64062 -20.5156 " transform="translate(429.083 710.889)"/>
  <path fill="#000000" d="M5.1875 0 L5.1875 -56 L12.0312 -56 L12.0312 -25.0156 L28.2656 -41 L37.1406 -41 L21.6719 -25.7656 L38.7031 0 L30.2344 0 L16.875 -20.9219 L12.0312 -16.25 L12.0312 0 L5.1875 0 " transform="translate(468.036 710.889)"/>
  <path fill="#000000" d="M4.84375 16.125 L4.07812 9.39062 Q6.32812 10 8 10 C10.2812 10 13.0312 8.45312 13.9062 7.0625 Q14.5469 6.01562 16 1.875 Q16.1875 1.29688 16.6094 0.171875 L1.25 -41 L8.64062 -41 L17.0625 -18.3594 Q18.7031 -14.0469 20 -9.29688 Q21.1719 -12.3906 22.8125 -16.9062 L31.4531 -41 L38.3125 -41 L22.9219 0.796875 Q20.4531 7.65625 19.0781 10.25 C17.25 13.75 12.5312 17 9.26562 17 Q7.28125 17 4.84375 16.125 " transform="translate(506.927 710.889)"/>
  <path fill="#000000" d="M2.59375 -20.5 Q2.59375 -31.9219 8.84375 -37.4219 Q14.0625 -42 21.5625 -42 C29.8906 -42 40.4844 -30.875 40.4844 -21.0781 C40.4844 -13.1406 35.7969 -4.03125 26.8438 1 L21.5625 1 C13.0625 1 2.59375 -10.0781 2.59375 -20.5 M9.64062 -20.5156 C9.64062 -13.2344 16.4219 -6 21.5625 -6 C26.6562 -6 33.4375 -13.2812 33.4375 -20.7344 C33.4375 -27.7656 26.625 -35 21.5625 -35 C16.4219 -35 9.64062 -27.7969 9.64062 -20.5156 " transform="translate(545.818 710.889)"/>
  <path fill="#000000" d="M9.64062 16 L4.71875 16 Q16.1094 -1.98438 16.1094 -20 Q16.1094 -27.0469 14.4688 -33.9688 Q13.1719 -39.5938 10.8594 -44.7656 Q9.35938 -48.1406 4.71875 -56 L9.64062 -56 Q16.7969 -46.5938 20.2188 -37.125 Q23.1562 -28.9531 23.1562 -20.0312 C23.1562 -9.92188 15.2812 8.95312 9.64062 16 " transform="translate(589.083 710.889)"/>
  <path fill="#66cc00" d="M118.611 683.889 M60.2778 683.889 a29.1667 29.1667 0 1 0 58.3333 0 a29.1667 29.1667 0 1 0 -58.3333 0 "/>
  <path fill="#000000" d="M9.75 0 L9.75 -48.75 L48.75 -48.75 L48.75 0 L9.75 0 M10.9688 -1.21875 L47.5312 -1.21875 L47.5312 -47.5312 L10.9688 -47.5312 L10.9688 -1.21875 " transform="translate(163.333 822.222)"/>
  <path fill="#000000" d="M9.75 0 L9.75 -48.75 L48.75 -48.75 L48.75 0 L9.75 0 M10.9688 -1.21875 L47.5312 -1.21875 L47.5312 -47.5312 L10.9688 -47.5312 L10.9688 -1.21875 " transform="translate(221.677 822.222)"/>
  <path fill="#000000" d="" transform="translate(280.021 822.222)"/>
  <path fill="#000000" d="M18.25 16 C12.5781 8.95312 4.71875 -9.92188 4.71875 -20.0312 Q4.71875 -28.9531 7.65625 -37.125 Q11.0781 -46.5938 18.25 -56 L23.1562 -56 Q18.5469 -48.2031 17.0625 -44.875 Q14.7344 -39.7031 13.4062 -34.0781 Q11.7656 -27.0781 11.7656 -20 Q11.7656 -1.98438 23.1562 16 L18.25 16 " transform="translate(301.63 822.222)"/>
  <path fill="#000000" d="M3.5 -19 L10.4688 -19 C10.9688 -14.7656 14.5781 -9.34375 22.2031 -6 L26.9688 -6 C31.1875 -6 37.6719 -8.53125 40.8281 -12.9688 L40.8281 -15.4688 C40.8281 -18.0156 37.7812 -21.8125 34.2812 -23.125 C32.0312 -24 16.6406 -27.6406 13.5625 -29.2812 C9.5625 -31.3906 5.64062 -37.6406 5.64062 -41.5156 C5.64062 -45.7656 10.4375 -53.1719 19.6562 -57 L25.2969 -57 C31.5 -57 40.9844 -52.9219 46.0938 -45 L46.2812 -40 L39.1875 -40 C38.6094 -44.9531 32.0312 -50 25.5938 -50 C18.8906 -50 12.7656 -45.1562 12.7656 -41.7344 Q12.7656 -38.7656 14.9375 -36.8594 C17.0625 -34.9375 35.0781 -30.9062 38.4375 -29.375 C43.3125 -27.125 47.9531 -20.2344 47.9531 -15.7344 C47.9531 -11.2812 42.8438 -3.39062 33.2812 1 L27.3125 1 C19.7344 1 9.48438 -3.67188 3.65625 -13.0781 L3.5 -19 " transform="translate(327.536 822.222)"/>
  <path fill="#000000" d="M32.8281 -12 L39.9219 -11 C38.25 -5.29688 29.1875 1 22.1406 1 C13.2656 1 2.85938 -10.125 2.85938 -20.1562 C2.85938 -30.5312 13.375 -42 21.75 -42 C29.8594 -42 40.1406 -30.9062 40.1406 -20.8438 Q40.1406 -20.2188 40.1094 -19 L9.9375 -19 C10.3125 -12.7031 17.0938 -6 22.1562 -6 C25.9375 -6 31.2656 -8.85938 32.8281 -12 M10.3281 -26 L32.9062 -26 Q32.4531 -29.9531 30.3125 -31.9375 Q27.0469 -35 21.8281 -35 C17.1094 -35 10.6719 -30.1094 10.3281 -26 " transform="translate(379.411 822.222)"/>
  <path fill="#000000" d="M2.59375 -20.5 Q2.59375 -31.9219 8.84375 -37.4219 Q14.0625 -42 21.5625 -42 C29.8906 -42 40.4844 -30.875 40.4844 -21.0781 C40.4844 -13.1406 35.7969 -4.03125 26.8438 1 L21.5625 1 C13.0625 1 2.59375 -10.0781 2.59375 -20.5 M9.64062 -20.5156 C9.64062 -13.2344 16.4219 -6 21.5625 -6 C26.6562 -6 33.4375 -13.2812 33.4375 -20.7344 C33.4375 -27.7656 26.625 -35 21.5625 -35 C16.4219 -35 9.64062 -27.7969 9.64062 -20.5156 " transform="translate(422.677 822.222)"/>
  <path fill="#000000" d="M31.6562 0 L31.6562 -6.9375 Q26.9375 1 18.8125 1 C15.2344 1 9.01562 -1.78125 6.01562 -6 L5.40625 -9.0625 Q4.98438 -11.1094 4.98438 -15.5469 L4.98438 -41 L11.8438 -41 L11.8438 -18.8594 Q11.8438 -13.5625 12.2656 -11.7188 C12.9062 -9.04688 17.0938 -6 20.1875 -6 C23.2656 -6 28.6719 -9.125 30.9219 -14.5 L30.9219 -19.6094 L30.9219 -41 L37.7812 -41 L37.7812 0 L31.6562 0 " transform="translate(465.943 822.222)"/>
  <path fill="#000000" d="M4.98438 0 L4.98438 -56 L11.8438 -56 L11.8438 0 L4.98438 0 " transform="translate(509.208 822.222)"/>
  <path fill="#000000" d="M9.64062 16 L4.71875 16 Q16.1094 -1.98438 16.1094 -20 Q16.1094 -27.0469 14.4688 -33.9688 Q13.1719 -39.5938 10.8594 -44.7656 Q9.35938 -48.1406 4.71875 -56 L9.64062 -56 Q16.7969 -46.5938 20.2188 -37.125 Q23.1562 -28.9531 23.1562 -20.0312 C23.1562 -9.92188 15.2812 8.95312 9.64062 16 " transform="translate(526.49 822.222)"/>
  <path fill="#000000" d="M118.611 795.222 M60.2778 795.222 a29.1667 29.1667 0 1 0 58.3333 0 a29.1667 29.1667 0 1 0 -58.3333 0 "/>
</svg>