<svg xmlns="http://www.w3.org/2000/svg" width="3600.000000" height="1920.000000" viewBox="0 0 3600 1920">
  <rect width="3600.000000" height="1920.000000" fill="#ffffff"/>
  <text x="163.333333" y="144.222222" fill="#000000" font-size="77.777778" font-family="Arial,Helvetica,'Helvetica Neue',sans-serif" font-weight="500.000000">北京市 (Beijing)</text>
  <path fill="#0066cc" d="M118.611 113.722 M60.2778 113.722 a29.1667 29.1667 0 1 0 58.3333 0 a29.1667 29.1667 0 1 0 -58.3333 0 "/>
  <text x="163.333333" y="259.555556" fill="#000000" font-size="77.777778" font-family="Arial,Helvetica,'Helvetica Neue',sans-serif" font-weight="500.000000">תל אביב (Tel Aviv)</text>
  <path fill="#cc0066" d="M118.611 232.556 M60.2778 232.556 a29.1667 29.1667 0 1 0 58.3333 0 a29.1667 29.1667 0 1 0 -58.3333 0 "/>
  <text x="163.333333" y="370.888889" fill="#000000" font-size="77.777778" font-family="Arial,Helvetica,'Helvetica Neue',sans-serif" font-weight="500.000000">القاهرة‎ (Cairo)</text>
  <path fill="#cc0066" d="M118.611 343.889 M60.2778 343.889 a29.1667 29.1667 0 1 0 58.3333 0 a29.1667 29.1667 0 1 0 -58.3333 0 "/>
  <text x="163.333333" y="482.222222" fill="#000000" font-size="77.777778" font-family="Arial,Helvetica,'Helvetica Neue',sans-serif" font-weight="500.000000">Москва</text>
  <path fill="#6600cc" d="M118.611 455.222 M60.2778 455.222 a29.1667 29.1667 0 1 0 58.3333 0 a29.1667 29.1667 0 1 0 -58.3333 0 "/>
  <text x="163.333333" y="604.555556" fill="#000000" font-size="77.777778" font-family="Arial,Helvetica,'Helvetica Neue',sans-serif" font-weight="500.000000">東京都 (Tokyo)</text>
  <path fill="#66cc00" d="M118.611 574.056 M60.2778 574.056 a29.1667 29.1667 0 1 0 58.3333 0 a29.1667 29.1667 0 1 0 -58.3333 0 "/>
  <text x="163.333333" y="730.888889" fill="#000000" font-size="77.777778" font-family="Arial,Helvetica,'Helvetica Neue',sans-serif" font-weight="500.000000">서울 (Seoul)</text>
  <path fill="#000000" d="M118.611 700.389 M60.2778 700.389 a29.1667 29.1667 0 1 0 58.3333 0 a29.1667 29.1667 0 1 0 -58.3333 0 "/>
</svg>