<?xml version="1.0" encoding="UTF-8" ?>
<!-- Generated by clip v0.6.0 (clip-lang.org) -->
<svg xmlns="http://www.w3.org/2000/svg" width="1200.000000" height="480.000000">
  <rect width="1200.000000" height="480.000000" fill="#ffffff" fill-opacity="1.000000"/>
  <path d="M29.3333 59.0667 L1170.67 59.0667 " fill="none" stroke-width="1.333333" stroke="#000000ff"/>
  <path d="M29.3333 64.4 L29.3333 59.0667 " fill="none" stroke-width="1.333333" stroke="#000000ff"/>
  <path d="M143.467 64.4 L143.467 59.0667 " fill="none" stroke-width="1.333333" stroke="#000000ff"/>
  <path d="M257.6 64.4 L257.6 59.0667 " fill="none" stroke-width="1.333333" stroke="#000000ff"/>
  <path d="M371.733 64.4 L371.733 59.0667 " fill="none" stroke-width="1.333333" stroke="#000000ff"/>
  <path d="M485.867 64.4 L485.867 59.0667 " fill="none" stroke-width="1.333333" stroke="#000000ff"/>
  <path d="M600 64.4 L600 59.0667 " fill="none" stroke-width="1.333333" stroke="#000000ff"/>
  <path d="M714.133 64.4 L714.133 59.0667 " fill="none" stroke-width="1.333333" stroke="#000000ff"/>
  <path d="M828.267 64.4 L828.267 59.0667 " fill="none" stroke-width="1.333333" stroke="#000000ff"/>
  <path d="M942.4 64.4 L942.4 59.0667 " fill="none" stroke-width="1.333333" stroke="#000000ff"/>
  <path d="M1056.53 64.4 L1056.53 59.0667 " fill="none" stroke-width="1.333333" stroke="#000000ff"/>
  <path d="M1170.67 64.4 L1170.67 59.0667 " fill="none" stroke-width="1.333333" stroke="#000000ff"/>
  <text x="19.138021" y="43.333333" fill="#000000ff" font-size="14.666667" font-family="Arial,Helvetica,'Helvetica Neue',sans-serif" font-weight="500.000000">0.0</text>
  <text x="133.271356" y="43.333333" fill="#000000ff" font-size="14.666667" font-family="Arial,Helvetica,'Helvetica Neue',sans-serif" font-weight="500.000000">0.1</text>
  <text x="247.404691" y="43.333333" fill="#000000ff" font-size="14.666667" font-family="Arial,Helvetica,'Helvetica Neue',sans-serif" font-weight="500.000000">0.2</text>
  <text x="361.538034" y="43.333333" fill="#000000ff" font-size="14.666667" font-family="Arial,Helvetica,'Helvetica Neue',sans-serif" font-weight="500.000000">0.3</text>
  <text x="475.671361" y="43.333333" fill="#000000ff" font-size="14.666667" font-family="Arial,Helvetica,'Helvetica Neue',sans-serif" font-weight="500.000000">0.4</text>
  <text x="589.804688" y="43.333333" fill="#000000ff" font-size="14.666667" font-family="Arial,Helvetica,'Helvetica Neue',sans-serif" font-weight="500.000000">0.5</text>
  <text x="703.938048" y="43.333333" fill="#000000ff" font-size="14.666667" font-family="Arial,Helvetica,'Helvetica Neue',sans-serif" font-weight="500.000000">0.6</text>
  <text x="818.071341" y="43.333333" fill="#000000ff" font-size="14.666667" font-family="Arial,Helvetica,'Helvetica Neue',sans-serif" font-weight="500.000000">0.7</text>
  <text x="932.204701" y="43.333333" fill="#000000ff" font-size="14.666667" font-family="Arial,Helvetica,'Helvetica Neue',sans-serif" font-weight="500.000000">0.8</text>
  <text x="1046.338062" y="43.333333" fill="#000000ff" font-size="14.666667" font-family="Arial,Helvetica,'Helvetica Neue',sans-serif" font-weight="500.000000">0.9</text>
  <text x="1160.471354" y="43.333333" fill="#000000ff" font-size="14.666667" font-family="Arial,Helvetica,'Helvetica Neue',sans-serif" font-weight="500.000000">1.0</text>
  <path d="M29.3333 420.933 L1170.67 420.933 " fill="none" stroke-width="1.333333" stroke="#000000ff"/>
  <path d="M29.3333 420.933 L29.3333 415.6 " fill="none" stroke-width="1.333333" stroke="#000000ff"/>
  <path d="M143.467 420.933 L143.467 415.6 " fill="none" stroke-width="1.333333" stroke="#000000ff"/>
  <path d="M257.6 420.933 L257.6 415.6 " fill="none" stroke-width="1.333333" stroke="#000000ff"/>
  <path d="M371.733 420.933 L371.733 415.6 " fill="none" stroke-width="1.333333" stroke="#000000ff"/>
  <path d="M485.867 420.933 L485.867 415.6 " fill="none" stroke-width="1.333333" stroke="#000000ff"/>
  <path d="M600 420.933 L600 415.6 " fill="none" stroke-width="1.333333" stroke="#000000ff"/>
  <path d="M714.133 420.933 L714.133 415.6 " fill="none" stroke-width="1.333333" stroke="#000000ff"/>
  <path d="M828.267 420.933 L828.267 415.6 " fill="none" stroke-width="1.333333" stroke="#000000ff"/>
  <path d="M942.4 420.933 L942.4 415.6 " fill="none" stroke-width="1.333333" stroke="#000000ff"/>
  <path d="M1056.53 420.933 L1056.53 415.6 " fill="none" stroke-width="1.333333" stroke="#000000ff"/>
  <path d="M1170.67 420.933 L1170.67 415.6 " fill="none" stroke-width="1.333333" stroke="#000000ff"/>
  <text x="19.138021" y="446.666667" fill="#000000ff" font-size="14.666667" font-family="Arial,Helvetica,'Helvetica Neue',sans-serif" font-weight="500.000000">0.0</text>
  <text x="133.271356" y="446.666667" fill="#000000ff" font-size="14.666667" font-family="Arial,Helvetica,'Helvetica Neue',sans-serif" font-weight="500.000000">0.1</text>
  <text x="247.404691" y="446.666667" fill="#000000ff" font-size="14.666667" font-family="Arial,Helvetica,'Helvetica Neue',sans-serif" font-weight="500.000000">0.2</text>
  <text x="361.538034" y="446.666667" fill="#000000ff" font-size="14.666667" font-family="Arial,Helvetica,'Helvetica Neue',sans-serif" font-weight="500.000000">0.3</text>
  <text x="475.671361" y="446.666667" fill="#000000ff" font-size="14.666667" font-family="Arial,Helvetica,'Helvetica Neue',sans-serif" font-weight="500.000000">0.4</text>
  <text x="589.804688" y="446.666667" fill="#000000ff" font-size="14.666667" font-family="Arial,Helvetica,'Helvetica Neue',sans-serif" font-weight="500.000000">0.5</text>
  <text x="703.938048" y="446.666667" fill="#000000ff" font-size="14.666667" font-family="Arial,Helvetica,'Helvetica Neue',sans-serif" font-weight="500.000000">0.6</text>
  <text x="818.071341" y="446.666667" fill="#000000ff" font-size="14.666667" font-family="Arial,Helvetica,'Helvetica Neue',sans-serif" font-weight="500.000000">0.7</text>
  <text x="932.204701" y="446.666667" fill="#000000ff" font-size="14.666667" font-family="Arial,Helvetica,'Helvetica Neue',sans-serif" font-weight="500.000000">0.8</text>
  <text x="1046.338062" y="446.666667" fill="#000000ff" font-size="14.666667" font-family="Arial,Helvetica,'Helvetica Neue',sans-serif" font-weight="500.000000">0.9</text>
  <text x="1160.471354" y="446.666667" fill="#000000ff" font-size="14.666667" font-family="Arial,Helvetica,'Helvetica Neue',sans-serif" font-weight="500.000000">1.0</text>
  <path d="M29.3333 116.965 L172 102.491 L314.667 84.3973 L600 120.584 L885.333 164.008 L1170.67 120.584 L1170.67 355.797 L885.333 305.136 L600 326.848 L314.667 312.373 L172 348.56 L29.3333 363.035 Z" fill="#cccccc" fill-opacity="1.000000"/>
  <path d="M29.3333 127.821 L172 120.584 L314.667 131.44 L600 142.296 L885.333 192.957 L1170.67 131.44 L1170.67 305.136 L885.333 265.331 L600 312.373 L314.667 276.187 L172 312.373 L29.3333 326.848 Z" fill="#888888" fill-opacity="1.000000"/>
  <path d="M29.3333 235.549 L314.667 202.655 L600 262.544 L885.333 223.969 L1170.67 227.516 " fill="none" stroke-width="2.000000" stroke="#000000ff"/>
  <path d="M29.3333 238.216 C27.8606 238.216 26.6667 237.022 26.6667 235.549 C26.6667 234.076 27.8606 232.882 29.3333 232.882 C30.8061 232.882 32 234.076 32 235.549 C32 237.022 30.8061 238.216 29.3333 238.216 Z" fill="#000000" fill-opacity="1.000000"/>
  <path d="M314.667 205.322 C313.194 205.322 312 204.128 312 202.655 C312 201.183 313.194 199.989 314.667 199.989 C316.139 199.989 317.333 201.183 317.333 202.655 C317.333 204.128 316.139 205.322 314.667 205.322 Z" fill="#000000" fill-opacity="1.000000"/>
  <path d="M600 265.211 C598.527 265.211 597.333 264.017 597.333 262.544 C597.333 261.072 598.527 259.878 600 259.878 C601.473 259.878 602.667 261.072 602.667 262.544 C602.667 264.017 601.473 265.211 600 265.211 Z" fill="#000000" fill-opacity="1.000000"/>
  <path d="M885.333 226.636 C883.861 226.636 882.667 225.442 882.667 223.969 C882.667 222.497 883.861 221.303 885.333 221.303 C886.806 221.303 888 222.497 888 223.969 C888 225.442 886.806 226.636 885.333 226.636 Z" fill="#000000" fill-opacity="1.000000"/>
  <path d="M1170.67 230.182 C1169.19 230.182 1168 228.988 1168 227.516 C1168 226.043 1169.19 224.849 1170.67 224.849 C1172.14 224.849 1173.33 226.043 1173.33 227.516 C1173.33 228.988 1172.14 230.182 1170.67 230.182 Z" fill="#000000" fill-opacity="1.000000"/>
  <text x="896.913542" y="399.333333" fill="#000000ff" font-size="14.666667" font-family="Arial,Helvetica,'Helvetica Neue',sans-serif" font-weight="500.000000">Series A</text>
  <path d="M882.98 399.833 C879.943 399.833 877.48 397.371 877.48 394.333 C877.48 391.296 879.943 388.833 882.98 388.833 C886.018 388.833 888.48 391.296 888.48 394.333 C888.48 397.371 886.018 399.833 882.98 399.833 Z" fill="#cccccc" fill-opacity="1.000000"/>
  <text x="988.220833" y="399.333333" fill="#000000ff" font-size="14.666667" font-family="Arial,Helvetica,'Helvetica Neue',sans-serif" font-weight="500.000000">Series B</text>
  <path d="M974.288 399.833 C971.25 399.833 968.788 397.371 968.788 394.333 C968.788 391.296 971.25 388.833 974.288 388.833 C977.325 388.833 979.788 391.296 979.788 394.333 C979.788 397.371 977.325 399.833 974.288 399.833 Z" fill="#888888" fill-opacity="1.000000"/>
  <text x="1080.340625" y="399.333333" fill="#000000ff" font-size="14.666667" font-family="Arial,Helvetica,'Helvetica Neue',sans-serif" font-weight="500.000000">Combined</text>
  <path d="M1066.41 399.833 C1063.37 399.833 1060.91 397.371 1060.91 394.333 C1060.91 391.296 1063.37 388.833 1066.41 388.833 C1069.44 388.833 1071.91 391.296 1071.91 394.333 C1071.91 397.371 1069.44 399.833 1066.41 399.833 Z" fill="#000000" fill-opacity="1.000000"/>
</svg>