<?xml version="1.0" encoding="UTF-8" ?>
<!-- Generated by clip v0.6.0 (clip-lang.org) -->
<svg xmlns="http://www.w3.org/2000/svg" width="1024.000000" height="512.000000">
  <rect width="1024.000000" height="512.000000" fill="#ffffff" fill-opacity="1.000000"/>
  <path d="M82.4313 467.6 L1009.33 467.6 " fill="none" stroke-width="1.333333" stroke="#000000ff"/>
  <path d="M82.4313 467.6 L82.4313 462.267 " fill="none" stroke-width="1.333333" stroke="#000000ff"/>
  <path d="M175.121 467.6 L175.121 462.267 " fill="none" stroke-width="1.333333" stroke="#000000ff"/>
  <path d="M267.812 467.6 L267.812 462.267 " fill="none" stroke-width="1.333333" stroke="#000000ff"/>
  <path d="M360.502 467.6 L360.502 462.267 " fill="none" stroke-width="1.333333" stroke="#000000ff"/>
  <path d="M453.192 467.6 L453.192 462.267 " fill="none" stroke-width="1.333333" stroke="#000000ff"/>
  <path d="M545.882 467.6 L545.882 462.267 " fill="none" stroke-width="1.333333" stroke="#000000ff"/>
  <path d="M638.573 467.6 L638.573 462.267 " fill="none" stroke-width="1.333333" stroke="#000000ff"/>
  <path d="M731.263 467.6 L731.263 462.267 " fill="none" stroke-width="1.333333" stroke="#000000ff"/>
  <path d="M823.953 467.6 L823.953 462.267 " fill="none" stroke-width="1.333333" stroke="#000000ff"/>
  <path d="M916.643 467.6 L916.643 462.267 " fill="none" stroke-width="1.333333" stroke="#000000ff"/>
  <path d="M1009.33 467.6 L1009.33 462.267 " fill="none" stroke-width="1.333333" stroke="#000000ff"/>
  <text x="53.884375" y="493.333333" fill="#000000ff" font-size="14.666667" font-family="Arial,Helvetica,'Helvetica Neue',sans-serif" font-weight="500.000000">05:15:00</text>
  <text x="146.574585" y="493.333333" fill="#000000ff" font-size="14.666667" font-family="Arial,Helvetica,'Helvetica Neue',sans-serif" font-weight="500.000000">05:51:00</text>
  <text x="239.264794" y="493.333333" fill="#000000ff" font-size="14.666667" font-family="Arial,Helvetica,'Helvetica Neue',sans-serif" font-weight="500.000000">06:27:00</text>
  <text x="331.955011" y="493.333333" fill="#000000ff" font-size="14.666667" font-family="Arial,Helvetica,'Helvetica Neue',sans-serif" font-weight="500.000000">07:03:00</text>
  <text x="424.645214" y="493.333333" fill="#000000ff" font-size="14.666667" font-family="Arial,Helvetica,'Helvetica Neue',sans-serif" font-weight="500.000000">07:39:00</text>
  <text x="517.335417" y="493.333333" fill="#000000ff" font-size="14.666667" font-family="Arial,Helvetica,'Helvetica Neue',sans-serif" font-weight="500.000000">08:15:00</text>
  <text x="610.025647" y="493.333333" fill="#000000ff" font-size="14.666667" font-family="Arial,Helvetica,'Helvetica Neue',sans-serif" font-weight="500.000000">08:51:00</text>
  <text x="702.715822" y="493.333333" fill="#000000ff" font-size="14.666667" font-family="Arial,Helvetica,'Helvetica Neue',sans-serif" font-weight="500.000000">09:26:59</text>
  <text x="795.406053" y="493.333333" fill="#000000ff" font-size="14.666667" font-family="Arial,Helvetica,'Helvetica Neue',sans-serif" font-weight="500.000000">10:03:00</text>
  <text x="888.096283" y="493.333333" fill="#000000ff" font-size="14.666667" font-family="Arial,Helvetica,'Helvetica Neue',sans-serif" font-weight="500.000000">10:39:00</text>
  <text x="981.333333" y="493.333333" fill="#000000ff" font-size="14.666667" font-family="Arial,Helvetica,'Helvetica Neue',sans-serif" font-weight="500.000000">11:15:00</text>
  <path d="M82.4313 467.6 L82.4313 14.6667 " fill="none" stroke-width="1.333333" stroke="#000000ff"/>
  <path d="M82.4313 467.6 L87.7646 467.6 " fill="none" stroke-width="1.333333" stroke="#000000ff"/>
  <path d="M82.4313 422.307 L87.7646 422.307 " fill="none" stroke-width="1.333333" stroke="#000000ff"/>
  <path d="M82.4313 377.013 L87.7646 377.013 " fill="none" stroke-width="1.333333" stroke="#000000ff"/>
  <path d="M82.4313 331.72 L87.7646 331.72 " fill="none" stroke-width="1.333333" stroke="#000000ff"/>
  <path d="M82.4313 286.427 L87.7646 286.427 " fill="none" stroke-width="1.333333" stroke="#000000ff"/>
  <path d="M82.4313 241.133 L87.7646 241.133 " fill="none" stroke-width="1.333333" stroke="#000000ff"/>
  <path d="M82.4313 195.84 L87.7646 195.84 " fill="none" stroke-width="1.333333" stroke="#000000ff"/>
  <path d="M82.4313 150.547 L87.7646 150.547 " fill="none" stroke-width="1.333333" stroke="#000000ff"/>
  <path d="M82.4313 105.253 L87.7646 105.253 " fill="none" stroke-width="1.333333" stroke="#000000ff"/>
  <path d="M82.4313 59.96 L87.7646 59.96 " fill="none" stroke-width="1.333333" stroke="#000000ff"/>
  <path d="M82.4313 14.6667 L87.7646 14.6667 " fill="none" stroke-width="1.333333" stroke="#000000ff"/>
  <text x="62.541667" y="472.600000" fill="#000000ff" font-size="14.666667" font-family="Arial,Helvetica,'Helvetica Neue',sans-serif" font-weight="500.000000">0</text>
  <text x="14.666667" y="425.806666" fill="#000000ff" font-size="14.666667" font-family="Arial,Helvetica,'Helvetica Neue',sans-serif" font-weight="500.000000">2.0 × 10⁶</text>
  <text x="14.666667" y="380.513332" fill="#000000ff" font-size="14.666667" font-family="Arial,Helvetica,'Helvetica Neue',sans-serif" font-weight="500.000000">4.0 × 10⁶</text>
  <text x="14.666667" y="335.219995" fill="#000000ff" font-size="14.666667" font-family="Arial,Helvetica,'Helvetica Neue',sans-serif" font-weight="500.000000">6.0 × 10⁶</text>
  <text x="14.666667" y="289.926664" fill="#000000ff" font-size="14.666667" font-family="Arial,Helvetica,'Helvetica Neue',sans-serif" font-weight="500.000000">8.0 × 10⁶</text>
  <text x="14.666667" y="244.633333" fill="#000000ff" font-size="14.666667" font-family="Arial,Helvetica,'Helvetica Neue',sans-serif" font-weight="500.000000">1.0 × 10⁷</text>
  <text x="14.666667" y="199.339989" fill="#000000ff" font-size="14.666667" font-family="Arial,Helvetica,'Helvetica Neue',sans-serif" font-weight="500.000000">1.2 × 10⁷</text>
  <text x="14.666667" y="154.046672" fill="#000000ff" font-size="14.666667" font-family="Arial,Helvetica,'Helvetica Neue',sans-serif" font-weight="500.000000">1.4 × 10⁷</text>
  <text x="14.666667" y="108.753328" fill="#000000ff" font-size="14.666667" font-family="Arial,Helvetica,'Helvetica Neue',sans-serif" font-weight="500.000000">1.6 × 10⁷</text>
  <text x="14.666667" y="63.459984" fill="#000000ff" font-size="14.666667" font-family="Arial,Helvetica,'Helvetica Neue',sans-serif" font-weight="500.000000">1.8 × 10⁷</text>
  <text x="14.666667" y="18.166667" fill="#000000ff" font-size="14.666667" font-family="Arial,Helvetica,'Helvetica Neue',sans-serif" font-weight="500.000000">2.0 × 10⁷</text>
  <path d="M82.4313 467.6 L82.4313 14.6667 " fill="none" stroke-width="1.333333" stroke="#ffffffff"/>
  <path d="M175.121 467.6 L175.121 14.6667 " fill="none" stroke-width="1.333333" stroke="#ffffffff"/>
  <path d="M267.812 467.6 L267.812 14.6667 " fill="none" stroke-width="1.333333" stroke="#ffffffff"/>
  <path d="M360.502 467.6 L360.502 14.6667 " fill="none" stroke-width="1.333333" stroke="#ffffffff"/>
  <path d="M453.192 467.6 L453.192 14.6667 " fill="none" stroke-width="1.333333" stroke="#ffffffff"/>
  <path d="M545.882 467.6 L545.882 14.6667 " fill="none" stroke-width="1.333333" stroke="#ffffffff"/>
  <path d="M638.573 467.6 L638.573 14.6667 " fill="none" stroke-width="1.333333" stroke="#ffffffff"/>
  <path d="M731.263 467.6 L731.263 14.6667 " fill="none" stroke-width="1.333333" stroke="#ffffffff"/>
  <path d="M823.953 467.6 L823.953 14.6667 " fill="none" stroke-width="1.333333" stroke="#ffffffff"/>
  <path d="M916.643 467.6 L916.643 14.6667 " fill="none" stroke-width="1.333333" stroke="#ffffffff"/>
  <path d="M1009.33 467.6 L1009.33 14.6667 " fill="none" stroke-width="1.333333" stroke="#ffffffff"/>
  <path d="M82.4313 14.6667 L1009.33 14.6667 " fill="none" stroke-width="1.333333" stroke="#ffffffff"/>
  <path d="M82.4313 59.96 L1009.33 59.96 " fill="none" stroke-width="1.333333" stroke="#ffffffff"/>
  <path d="M82.4313 105.253 L1009.33 105.253 " fill="none" stroke-width="1.333333" stroke="#ffffffff"/>
  <path d="M82.4313 150.547 L1009.33 150.547 " fill="none" stroke-width="1.333333" stroke="#ffffffff"/>
  <path d="M82.4313 195.84 L1009.33 195.84 " fill="none" stroke-width="1.333333" stroke="#ffffffff"/>
  <path d="M82.4313 241.133 L1009.33 241.133 " fill="none" stroke-width="1.333333" stroke="#ffffffff"/>
  <path d="M82.4313 286.427 L1009.33 286.427 " fill="none" stroke-width="1.333333" stroke="#ffffffff"/>
  <path d="M82.4313 331.72 L1009.33 331.72 " fill="none" stroke-width="1.333333" stroke="#ffffffff"/>
  <path d="M82.4313 377.013 L1009.33 377.013 " fill="none" stroke-width="1.333333" stroke="#ffffffff"/>
  <path d="M82.4313 422.307 L1009.33 422.307 " fill="none" stroke-width="1.333333" stroke="#ffffffff"/>
  <path d="M82.4313 467.6 L1009.33 467.6 " fill="none" stroke-width="1.333333" stroke="#ffffffff"/>
  <path d="M82.4313 272.34 L95.3049 278.785 L108.179 282.754 L121.052 282.436 L133.926 285.641 L146.799 287.66 L159.673 289.007 L172.547 289.831 L185.42 291.943 L198.294 288.197 L211.168 289.376 L224.041 292.991 L236.915 288.374 L249.789 288.938 L262.662 292.505 L275.536 292.024 L288.409 294.402 L301.283 296.031 L314.157 298.517 L327.03 299.44 L339.904 300.724 L352.778 290.724 L365.651 283.27 L378.525 281.252 L391.399 283.036 L404.272 287.158 L417.146 292.873 L430.02 292.418 L442.893 295.869 L455.767 297.035 L468.64 298.675 L481.514 297.188 L494.388 299.002 L507.261 295.527 L520.135 292.684 L533.009 298.595 L545.882 299.347 L558.756 300.294 L571.63 302.603 L584.503 297.816 L597.377 295.706 L610.25 295.926 L623.124 297.095 L635.998 293.958 L648.871 298.876 L661.745 295.537 L674.619 294.181 L687.492 294.329 L700.366 296.12 L713.24 292.428 L726.113 291.817 L738.987 289.43 L751.861 292.425 L764.734 295.433 L777.608 297.821 L790.481 293.222 L803.355 295.387 L816.229 294.924 L829.102 299.042 L841.976 300.229 L854.85 298.969 L867.723 299.925 L880.597 298.942 L893.471 297.308 L906.344 297.841 L919.218 296.754 L932.091 295.115 L944.965 296.024 L957.839 297.505 L970.712 292.121 L983.586 291.4 L996.46 288.478 L1009.33 288.781 L1009.33 467.6 L996.46 467.6 L983.586 467.6 L970.712 467.6 L957.839 467.6 L944.965 467.6 L932.091 467.6 L919.218 467.6 L906.344 467.6 L893.471 467.6 L880.597 467.6 L867.723 467.6 L854.85 467.6 L841.976 467.6 L829.102 467.6 L816.229 467.6 L803.355 467.6 L790.481 467.6 L777.608 467.6 L764.734 467.6 L751.861 467.6 L738.987 467.6 L726.113 467.6 L713.24 467.6 L700.366 467.6 L687.492 467.6 L674.619 467.6 L661.745 467.6 L648.871 467.6 L635.998 467.6 L623.124 467.6 L610.25 467.6 L597.377 467.6 L584.503 467.6 L571.63 467.6 L558.756 467.6 L545.882 467.6 L533.009 467.6 L520.135 467.6 L507.261 467.6 L494.388 467.6 L481.514 467.6 L468.64 467.6 L455.767 467.6 L442.893 467.6 L430.02 467.6 L417.146 467.6 L404.272 467.6 L391.399 467.6 L378.525 467.6 L365.651 467.6 L352.778 467.6 L339.904 467.6 L327.03 467.6 L314.157 467.6 L301.283 467.6 L288.409 467.6 L275.536 467.6 L262.662 467.6 L249.789 467.6 L236.915 467.6 L224.041 467.6 L211.168 467.6 L198.294 467.6 L185.42 467.6 L172.547 467.6 L159.673 467.6 L146.799 467.6 L133.926 467.6 L121.052 467.6 L108.179 467.6 L95.3049 467.6 L82.4313 467.6 Z" fill="#888888" fill-opacity="1.000000"/>
</svg>