<?xml version="1.0" encoding="UTF-8" ?>
<!-- Generated by clip v0.6.0 (clip-lang.org) -->
<svg xmlns="http://www.w3.org/2000/svg" width="1200.000000" height="480.000000">
  <rect width="1200.000000" height="480.000000" fill="#ffffff" fill-opacity="1.000000"/>
  <path d="M14.6667 44.4 L1185.33 44.4 " fill="none" stroke-width="1.333333" stroke="#000000ff"/>
  <path d="M14.6667 49.7333 L14.6667 44.4 " fill="none" stroke-width="1.333333" stroke="#000000ff"/>
  <path d="M131.733 49.7333 L131.733 44.4 " fill="none" stroke-width="1.333333" stroke="#000000ff"/>
  <path d="M248.8 49.7333 L248.8 44.4 " fill="none" stroke-width="1.333333" stroke="#000000ff"/>
  <path d="M365.867 49.7333 L365.867 44.4 " fill="none" stroke-width="1.333333" stroke="#000000ff"/>
  <path d="M482.933 49.7333 L482.933 44.4 " fill="none" stroke-width="1.333333" stroke="#000000ff"/>
  <path d="M600 49.7333 L600 44.4 " fill="none" stroke-width="1.333333" stroke="#000000ff"/>
  <path d="M717.067 49.7333 L717.067 44.4 " fill="none" stroke-width="1.333333" stroke="#000000ff"/>
  <path d="M834.133 49.7333 L834.133 44.4 " fill="none" stroke-width="1.333333" stroke="#000000ff"/>
  <path d="M951.2 49.7333 L951.2 44.4 " fill="none" stroke-width="1.333333" stroke="#000000ff"/>
  <path d="M1068.27 49.7333 L1068.27 44.4 " fill="none" stroke-width="1.333333" stroke="#000000ff"/>
  <path d="M1185.33 49.7333 L1185.33 44.4 " fill="none" stroke-width="1.333333" stroke="#000000ff"/>
  <text x="4.471354" y="28.666667" fill="#000000ff" font-size="14.666667" font-family="Arial,Helvetica,'Helvetica Neue',sans-serif" font-weight="500.000000">0.0</text>
  <text x="121.538023" y="28.666667" fill="#000000ff" font-size="14.666667" font-family="Arial,Helvetica,'Helvetica Neue',sans-serif" font-weight="500.000000">0.1</text>
  <text x="238.604691" y="28.666667" fill="#000000ff" font-size="14.666667" font-family="Arial,Helvetica,'Helvetica Neue',sans-serif" font-weight="500.000000">0.2</text>
  <text x="355.671368" y="28.666667" fill="#000000ff" font-size="14.666667" font-family="Arial,Helvetica,'Helvetica Neue',sans-serif" font-weight="500.000000">0.3</text>
  <text x="472.738028" y="28.666667" fill="#000000ff" font-size="14.666667" font-family="Arial,Helvetica,'Helvetica Neue',sans-serif" font-weight="500.000000">0.4</text>
  <text x="589.804688" y="28.666667" fill="#000000ff" font-size="14.666667" font-family="Arial,Helvetica,'Helvetica Neue',sans-serif" font-weight="500.000000">0.5</text>
  <text x="706.871382" y="28.666667" fill="#000000ff" font-size="14.666667" font-family="Arial,Helvetica,'Helvetica Neue',sans-serif" font-weight="500.000000">0.6</text>
  <text x="823.938007" y="28.666667" fill="#000000ff" font-size="14.666667" font-family="Arial,Helvetica,'Helvetica Neue',sans-serif" font-weight="500.000000">0.7</text>
  <text x="941.004701" y="28.666667" fill="#000000ff" font-size="14.666667" font-family="Arial,Helvetica,'Helvetica Neue',sans-serif" font-weight="500.000000">0.8</text>
  <text x="1058.071396" y="28.666667" fill="#000000ff" font-size="14.666667" font-family="Arial,Helvetica,'Helvetica Neue',sans-serif" font-weight="500.000000">0.9</text>
  <text x="1175.138021" y="28.666667" fill="#000000ff" font-size="14.666667" font-family="Arial,Helvetica,'Helvetica Neue',sans-serif" font-weight="500.000000">1.0</text>
  <path d="M14.6667 435.6 L1185.33 435.6 " fill="none" stroke-width="1.333333" stroke="#000000ff"/>
  <path d="M14.6667 435.6 L14.6667 430.267 " fill="none" stroke-width="1.333333" stroke="#000000ff"/>
  <path d="M131.733 435.6 L131.733 430.267 " fill="none" stroke-width="1.333333" stroke="#000000ff"/>
  <path d="M248.8 435.6 L248.8 430.267 " fill="none" stroke-width="1.333333" stroke="#000000ff"/>
  <path d="M365.867 435.6 L365.867 430.267 " fill="none" stroke-width="1.333333" stroke="#000000ff"/>
  <path d="M482.933 435.6 L482.933 430.267 " fill="none" stroke-width="1.333333" stroke="#000000ff"/>
  <path d="M600 435.6 L600 430.267 " fill="none" stroke-width="1.333333" stroke="#000000ff"/>
  <path d="M717.067 435.6 L717.067 430.267 " fill="none" stroke-width="1.333333" stroke="#000000ff"/>
  <path d="M834.133 435.6 L834.133 430.267 " fill="none" stroke-width="1.333333" stroke="#000000ff"/>
  <path d="M951.2 435.6 L951.2 430.267 " fill="none" stroke-width="1.333333" stroke="#000000ff"/>
  <path d="M1068.27 435.6 L1068.27 430.267 " fill="none" stroke-width="1.333333" stroke="#000000ff"/>
  <path d="M1185.33 435.6 L1185.33 430.267 " fill="none" stroke-width="1.333333" stroke="#000000ff"/>
  <text x="4.471354" y="461.333333" fill="#000000ff" font-size="14.666667" font-family="Arial,Helvetica,'Helvetica Neue',sans-serif" font-weight="500.000000">0.0</text>
  <text x="121.538023" y="461.333333" fill="#000000ff" font-size="14.666667" font-family="Arial,Helvetica,'Helvetica Neue',sans-serif" font-weight="500.000000">0.1</text>
  <text x="238.604691" y="461.333333" fill="#000000ff" font-size="14.666667" font-family="Arial,Helvetica,'Helvetica Neue',sans-serif" font-weight="500.000000">0.2</text>
  <text x="355.671368" y="461.333333" fill="#000000ff" font-size="14.666667" font-family="Arial,Helvetica,'Helvetica Neue',sans-serif" font-weight="500.000000">0.3</text>
  <text x="472.738028" y="461.333333" fill="#000000ff" font-size="14.666667" font-family="Arial,Helvetica,'Helvetica Neue',sans-serif" font-weight="500.000000">0.4</text>
  <text x="589.804688" y="461.333333" fill="#000000ff" font-size="14.666667" font-family="Arial,Helvetica,'Helvetica Neue',sans-serif" font-weight="500.000000">0.5</text>
  <text x="706.871382" y="461.333333" fill="#000000ff" font-size="14.666667" font-family="Arial,Helvetica,'Helvetica Neue',sans-serif" font-weight="500.000000">0.6</text>
  <text x="823.938007" y="461.333333" fill="#000000ff" font-size="14.666667" font-family="Arial,Helvetica,'Helvetica Neue',sans-serif" font-weight="500.000000">0.7</text>
  <text x="941.004701" y="461.333333" fill="#000000ff" font-size="14.666667" font-family="Arial,Helvetica,'Helvetica Neue',sans-serif" font-weight="500.000000">0.8</text>
  <text x="1058.071396" y="461.333333" fill="#000000ff" font-size="14.666667" font-family="Arial,Helvetica,'Helvetica Neue',sans-serif" font-weight="500.000000">0.9</text>
  <text x="1175.138021" y="461.333333" fill="#000000ff" font-size="14.666667" font-family="Arial,Helvetica,'Helvetica Neue',sans-serif" font-weight="500.000000">1.0</text>
  <path d="M14.6667 106.992 L161 91.344 L307.333 71.784 L600 110.904 L892.667 157.848 L1185.33 110.904 L1185.33 365.184 L892.667 310.416 L600 333.888 L307.333 318.24 L161 357.36 L14.6667 373.008 Z" fill="#cccccc" fill-opacity="1.000000"/>
  <path d="M14.6667 118.728 L161 110.904 L307.333 122.64 L600 134.376 L892.667 189.144 L1185.33 122.64 L1185.33 310.416 L892.667 267.384 L600 318.24 L307.333 279.12 L161 318.24 L14.6667 333.888 Z" fill="#888888" fill-opacity="1.000000"/>
  <path d="M14.6667 235.188 L307.333 199.628 L600 264.372 L892.667 222.67 L1185.33 226.504 " fill="none" stroke-width="2.000000" stroke="#000000ff"/>
  <path d="M14.6667 237.855 C13.1939 237.855 12 236.661 12 235.188 C12 233.715 13.1939 232.522 14.6667 232.522 C16.1394 232.522 17.3333 233.715 17.3333 235.188 C17.3333 236.661 16.1394 237.855 14.6667 237.855 Z" fill="#000000" fill-opacity="1.000000"/>
  <path d="M307.333 202.295 C305.861 202.295 304.667 201.101 304.667 199.628 C304.667 198.155 305.861 196.961 307.333 196.961 C308.806 196.961 310 198.155 310 199.628 C310 201.101 308.806 202.295 307.333 202.295 Z" fill="#000000" fill-opacity="1.000000"/>
  <path d="M600 267.038 C598.527 267.038 597.333 265.845 597.333 264.372 C597.333 262.899 598.527 261.705 600 261.705 C601.473 261.705 602.667 262.899 602.667 264.372 C602.667 265.845 601.473 267.038 600 267.038 Z" fill="#000000" fill-opacity="1.000000"/>
  <path d="M892.667 225.337 C891.194 225.337 890 224.143 890 222.67 C890 221.197 891.194 220.003 892.667 220.003 C894.139 220.003 895.333 221.197 895.333 222.67 C895.333 224.143 894.139 225.337 892.667 225.337 Z" fill="#000000" fill-opacity="1.000000"/>
  <path d="M1185.33 229.17 C1183.86 229.17 1182.67 227.976 1182.67 226.504 C1182.67 225.031 1183.86 223.837 1185.33 223.837 C1186.81 223.837 1188 225.031 1188 226.504 C1188 227.976 1186.81 229.17 1185.33 229.17 Z" fill="#000000" fill-opacity="1.000000"/>
  <text x="911.580208" y="414.000000" fill="#000000ff" font-size="14.666667" font-family="Arial,Helvetica,'Helvetica Neue',sans-serif" font-weight="500.000000">Series A</text>
  <path d="M897.647 414.5 C894.609 414.5 892.147 412.038 892.147 409 C892.147 405.962 894.609 403.5 897.647 403.5 C900.684 403.5 903.147 405.962 903.147 409 C903.147 412.038 900.684 414.5 897.647 414.5 Z" fill="#cccccc" fill-opacity="1.000000"/>
  <text x="1002.887500" y="414.000000" fill="#000000ff" font-size="14.666667" font-family="Arial,Helvetica,'Helvetica Neue',sans-serif" font-weight="500.000000">Series B</text>
  <path d="M988.954 414.5 C985.917 414.5 983.454 412.038 983.454 409 C983.454 405.962 985.917 403.5 988.954 403.5 C991.992 403.5 994.454 405.962 994.454 409 C994.454 412.038 991.992 414.5 988.954 414.5 Z" fill="#888888" fill-opacity="1.000000"/>
  <text x="1095.007292" y="414.000000" fill="#000000ff" font-size="14.666667" font-family="Arial,Helvetica,'Helvetica Neue',sans-serif" font-weight="500.000000">Combined</text>
  <path d="M1081.07 414.5 C1078.04 414.5 1075.57 412.038 1075.57 409 C1075.57 405.962 1078.04 403.5 1081.07 403.5 C1084.11 403.5 1086.57 405.962 1086.57 409 C1086.57 412.038 1084.11 414.5 1081.07 414.5 Z" fill="#000000" fill-opacity="1.000000"/>
</svg>