<?xml version="1.0" encoding="UTF-8" ?>
<!-- Generated by clip v0.6.0 (clip-lang.org) -->
<svg xmlns="http://www.w3.org/2000/svg" width="1200.000000" height="480.000000">
  <rect width="1200.000000" height="480.000000" fill="#ffffff" fill-opacity="1.000000"/>
  <path d="M98.1604 420.933 L1170.67 420.933 " fill="none" stroke-width="1.333333" stroke="#000000ff"/>
  <path d="M98.1604 420.933 L98.1604 415.6 " fill="none" stroke-width="1.333333" stroke="#000000ff"/>
  <path d="M205.411 420.933 L205.411 415.6 " fill="none" stroke-width="1.333333" stroke="#000000ff"/>
  <path d="M312.662 420.933 L312.662 415.6 " fill="none" stroke-width="1.333333" stroke="#000000ff"/>
  <path d="M419.912 420.933 L419.912 415.6 " fill="none" stroke-width="1.333333" stroke="#000000ff"/>
  <path d="M527.163 420.933 L527.163 415.6 " fill="none" stroke-width="1.333333" stroke="#000000ff"/>
  <path d="M634.414 420.933 L634.414 415.6 " fill="none" stroke-width="1.333333" stroke="#000000ff"/>
  <path d="M741.664 420.933 L741.664 415.6 " fill="none" stroke-width="1.333333" stroke="#000000ff"/>
  <path d="M848.915 420.933 L848.915 415.6 " fill="none" stroke-width="1.333333" stroke="#000000ff"/>
  <path d="M956.165 420.933 L956.165 415.6 " fill="none" stroke-width="1.333333" stroke="#000000ff"/>
  <path d="M1063.42 420.933 L1063.42 415.6 " fill="none" stroke-width="1.333333" stroke="#000000ff"/>
  <path d="M1170.67 420.933 L1170.67 415.6 " fill="none" stroke-width="1.333333" stroke="#000000ff"/>
  <text x="87.965104" y="446.666667" fill="#000000ff" font-size="14.666667" font-family="Arial,Helvetica,'Helvetica Neue',sans-serif" font-weight="500.000000">0.0</text>
  <text x="191.137606" y="446.666667" fill="#000000ff" font-size="14.666667" font-family="Arial,Helvetica,'Helvetica Neue',sans-serif" font-weight="500.000000">15.0</text>
  <text x="298.388232" y="446.666667" fill="#000000ff" font-size="14.666667" font-family="Arial,Helvetica,'Helvetica Neue',sans-serif" font-weight="500.000000">30.0</text>
  <text x="405.638867" y="446.666667" fill="#000000ff" font-size="14.666667" font-family="Arial,Helvetica,'Helvetica Neue',sans-serif" font-weight="500.000000">45.0</text>
  <text x="512.889486" y="446.666667" fill="#000000ff" font-size="14.666667" font-family="Arial,Helvetica,'Helvetica Neue',sans-serif" font-weight="500.000000">60.0</text>
  <text x="620.140104" y="446.666667" fill="#000000ff" font-size="14.666667" font-family="Arial,Helvetica,'Helvetica Neue',sans-serif" font-weight="500.000000">75.0</text>
  <text x="727.390755" y="446.666667" fill="#000000ff" font-size="14.666667" font-family="Arial,Helvetica,'Helvetica Neue',sans-serif" font-weight="500.000000">90.0</text>
  <text x="830.563216" y="446.666667" fill="#000000ff" font-size="14.666667" font-family="Arial,Helvetica,'Helvetica Neue',sans-serif" font-weight="500.000000">105.0</text>
  <text x="937.813867" y="446.666667" fill="#000000ff" font-size="14.666667" font-family="Arial,Helvetica,'Helvetica Neue',sans-serif" font-weight="500.000000">120.0</text>
  <text x="1045.064518" y="446.666667" fill="#000000ff" font-size="14.666667" font-family="Arial,Helvetica,'Helvetica Neue',sans-serif" font-weight="500.000000">135.0</text>
  <text x="1152.315104" y="446.666667" fill="#000000ff" font-size="14.666667" font-family="Arial,Helvetica,'Helvetica Neue',sans-serif" font-weight="500.000000">150.0</text>
  <path d="M98.1604 420.933 L98.1604 29.3333 " fill="none" stroke-width="1.333333" stroke="#000000ff"/>
  <path d="M98.1604 420.933 L103.494 420.933 " fill="none" stroke-width="1.333333" stroke="#000000ff"/>
  <path d="M98.1604 381.773 L103.494 381.773 " fill="none" stroke-width="1.333333" stroke="#000000ff"/>
  <path d="M98.1604 342.613 L103.494 342.613 " fill="none" stroke-width="1.333333" stroke="#000000ff"/>
  <path d="M98.1604 303.453 L103.494 303.453 " fill="none" stroke-width="1.333333" stroke="#000000ff"/>
  <path d="M98.1604 264.293 L103.494 264.293 " fill="none" stroke-width="1.333333" stroke="#000000ff"/>
  <path d="M98.1604 225.133 L103.494 225.133 " fill="none" stroke-width="1.333333" stroke="#000000ff"/>
  <path d="M98.1604 185.973 L103.494 185.973 " fill="none" stroke-width="1.333333" stroke="#000000ff"/>
  <path d="M98.1604 146.813 L103.494 146.813 " fill="none" stroke-width="1.333333" stroke="#000000ff"/>
  <path d="M98.1604 107.653 L103.494 107.653 " fill="none" stroke-width="1.333333" stroke="#000000ff"/>
  <path d="M98.1604 68.4933 L103.494 68.4933 " fill="none" stroke-width="1.333333" stroke="#000000ff"/>
  <path d="M98.1604 29.3333 L103.494 29.3333 " fill="none" stroke-width="1.333333" stroke="#000000ff"/>
  <text x="29.333333" y="425.933333" fill="#000000ff" font-size="14.666667" font-family="Arial,Helvetica,'Helvetica Neue',sans-serif" font-weight="500.000000">05:15:00</text>
  <text x="29.333333" y="386.773333" fill="#000000ff" font-size="14.666667" font-family="Arial,Helvetica,'Helvetica Neue',sans-serif" font-weight="500.000000">05:51:00</text>
  <text x="29.333333" y="347.613332" fill="#000000ff" font-size="14.666667" font-family="Arial,Helvetica,'Helvetica Neue',sans-serif" font-weight="500.000000">06:27:00</text>
  <text x="29.333333" y="308.453329" fill="#000000ff" font-size="14.666667" font-family="Arial,Helvetica,'Helvetica Neue',sans-serif" font-weight="500.000000">07:03:00</text>
  <text x="29.333333" y="269.293331" fill="#000000ff" font-size="14.666667" font-family="Arial,Helvetica,'Helvetica Neue',sans-serif" font-weight="500.000000">07:39:00</text>
  <text x="29.333333" y="230.133333" fill="#000000ff" font-size="14.666667" font-family="Arial,Helvetica,'Helvetica Neue',sans-serif" font-weight="500.000000">08:15:00</text>
  <text x="29.333333" y="190.973324" fill="#000000ff" font-size="14.666667" font-family="Arial,Helvetica,'Helvetica Neue',sans-serif" font-weight="500.000000">08:51:00</text>
  <text x="29.333333" y="151.813338" fill="#000000ff" font-size="14.666667" font-family="Arial,Helvetica,'Helvetica Neue',sans-serif" font-weight="500.000000">09:26:59</text>
  <text x="29.333333" y="112.653329" fill="#000000ff" font-size="14.666667" font-family="Arial,Helvetica,'Helvetica Neue',sans-serif" font-weight="500.000000">10:03:00</text>
  <text x="29.333333" y="73.493319" fill="#000000ff" font-size="14.666667" font-family="Arial,Helvetica,'Helvetica Neue',sans-serif" font-weight="500.000000">10:39:00</text>
  <text x="30.427083" y="34.333333" fill="#000000ff" font-size="14.666667" font-family="Arial,Helvetica,'Helvetica Neue',sans-serif" font-weight="500.000000">11:15:00</text>
  <path d="M323.314 420.933 L304.558 415.494 L154.095 410.056 L160.906 404.617 L192.608 399.178 L120.368 393.739 L115.108 388.3 L160.765 382.861 L203.664 377.422 L116.692 371.983 L169.427 366.544 L149.428 361.106 L264.096 355.667 L227.548 350.228 L179.068 344.789 L235.147 339.35 L169.82 333.911 L141.99 328.472 L119.093 323.033 L118.182 317.594 L118.297 312.156 L222.983 306.717 L622.427 301.278 L926.695 295.839 L912.36 290.4 L886.236 284.961 L531.019 279.522 L436.168 274.083 L257.632 268.644 L165.044 263.206 L132.427 257.767 L140.995 252.328 L130.571 246.889 L140.933 241.45 L243.81 236.011 L252.811 230.572 L256.46 225.133 L296.585 219.694 L278.14 214.256 L246.493 208.817 L261.491 203.378 L312.729 197.939 L392.001 192.5 L383.023 187.061 L435.148 181.622 L352.931 176.183 L316.252 170.744 L231.338 165.306 L275.495 159.867 L421.781 154.428 L449.871 148.989 L379.457 143.55 L364.868 138.111 L385.002 132.672 L422.351 127.233 L274.129 121.794 L226.005 116.356 L358.461 110.917 L272.278 105.478 L176.106 100.039 L186.149 94.6 L285.818 89.1611 L211.756 83.7222 L203.853 78.2833 L189.072 72.8444 L204.726 67.4056 L189.93 61.9667 L245.308 56.5278 L196.799 51.0889 L227.084 45.65 L257.438 40.2111 L230.558 34.7722 L176.705 29.3333 L98.1604 29.3333 L98.1604 34.7722 L98.1604 40.2111 L98.1604 45.65 L98.1604 51.0889 L98.1604 56.5278 L98.1604 61.9667 L98.1604 67.4056 L98.1604 72.8444 L98.1604 78.2833 L98.1604 83.7222 L98.1604 89.1611 L98.1604 94.6 L98.1604 100.039 L98.1604 105.478 L98.1604 110.917 L98.1604 116.356 L98.1604 121.794 L98.1604 127.233 L98.1604 132.672 L98.1604 138.111 L98.1604 143.55 L98.1604 148.989 L98.1604 154.428 L98.1604 159.867 L98.1604 165.306 L98.1604 170.744 L98.1604 176.183 L98.1604 181.622 L98.1604 187.061 L98.1604 192.5 L98.1604 197.939 L98.1604 203.378 L98.1604 208.817 L98.1604 214.256 L98.1604 219.694 L98.1604 225.133 L98.1604 230.572 L98.1604 236.011 L98.1604 241.45 L98.1604 246.889 L98.1604 252.328 L98.1604 257.767 L98.1604 263.206 L98.1604 268.644 L98.1604 274.083 L98.1604 279.522 L98.1604 284.961 L98.1604 290.4 L98.1604 295.839 L98.1604 301.278 L98.1604 306.717 L98.1604 312.156 L98.1604 317.594 L98.1604 323.033 L98.1604 328.472 L98.1604 333.911 L98.1604 339.35 L98.1604 344.789 L98.1604 350.228 L98.1604 355.667 L98.1604 361.106 L98.1604 366.544 L98.1604 371.983 L98.1604 377.422 L98.1604 382.861 L98.1604 388.3 L98.1604 393.739 L98.1604 399.178 L98.1604 404.617 L98.1604 410.056 L98.1604 415.494 L98.1604 420.933 Z" fill="#999999" fill-opacity="1.000000"/>
</svg>