<?xml version="1.0" encoding="UTF-8" ?>
<!-- Generated by clip v0.6.0 (clip-lang.org) -->
<svg xmlns="http://www.w3.org/2000/svg" width="1024.000000" height="512.000000">
  <rect width="1024.000000" height="512.000000" fill="#ffffff" fill-opacity="1.000000"/>
  <path d="M97.0979 452.933 L994.667 452.933 " fill="none" stroke-width="1.333333" stroke="#000000ff"/>
  <path d="M97.0979 452.933 L97.0979 447.6 " fill="none" stroke-width="1.333333" stroke="#000000ff"/>
  <path d="M186.855 452.933 L186.855 447.6 " fill="none" stroke-width="1.333333" stroke="#000000ff"/>
  <path d="M276.612 452.933 L276.612 447.6 " fill="none" stroke-width="1.333333" stroke="#000000ff"/>
  <path d="M366.369 452.933 L366.369 447.6 " fill="none" stroke-width="1.333333" stroke="#000000ff"/>
  <path d="M456.125 452.933 L456.125 447.6 " fill="none" stroke-width="1.333333" stroke="#000000ff"/>
  <path d="M545.882 452.933 L545.882 447.6 " fill="none" stroke-width="1.333333" stroke="#000000ff"/>
  <path d="M635.639 452.933 L635.639 447.6 " fill="none" stroke-width="1.333333" stroke="#000000ff"/>
  <path d="M725.396 452.933 L725.396 447.6 " fill="none" stroke-width="1.333333" stroke="#000000ff"/>
  <path d="M815.153 452.933 L815.153 447.6 " fill="none" stroke-width="1.333333" stroke="#000000ff"/>
  <path d="M904.91 452.933 L904.91 447.6 " fill="none" stroke-width="1.333333" stroke="#000000ff"/>
  <path d="M994.667 452.933 L994.667 447.6 " fill="none" stroke-width="1.333333" stroke="#000000ff"/>
  <text x="68.551042" y="478.666667" fill="#000000ff" font-size="14.666667" font-family="Arial,Helvetica,'Helvetica Neue',sans-serif" font-weight="500.000000">05:15:00</text>
  <text x="158.307918" y="478.666667" fill="#000000ff" font-size="14.666667" font-family="Arial,Helvetica,'Helvetica Neue',sans-serif" font-weight="500.000000">05:51:00</text>
  <text x="248.064794" y="478.666667" fill="#000000ff" font-size="14.666667" font-family="Arial,Helvetica,'Helvetica Neue',sans-serif" font-weight="500.000000">06:27:00</text>
  <text x="337.821677" y="478.666667" fill="#000000ff" font-size="14.666667" font-family="Arial,Helvetica,'Helvetica Neue',sans-serif" font-weight="500.000000">07:03:00</text>
  <text x="427.578547" y="478.666667" fill="#000000ff" font-size="14.666667" font-family="Arial,Helvetica,'Helvetica Neue',sans-serif" font-weight="500.000000">07:39:00</text>
  <text x="517.335417" y="478.666667" fill="#000000ff" font-size="14.666667" font-family="Arial,Helvetica,'Helvetica Neue',sans-serif" font-weight="500.000000">08:15:00</text>
  <text x="607.092313" y="478.666667" fill="#000000ff" font-size="14.666667" font-family="Arial,Helvetica,'Helvetica Neue',sans-serif" font-weight="500.000000">08:51:00</text>
  <text x="696.849156" y="478.666667" fill="#000000ff" font-size="14.666667" font-family="Arial,Helvetica,'Helvetica Neue',sans-serif" font-weight="500.000000">09:26:59</text>
  <text x="786.606052" y="478.666667" fill="#000000ff" font-size="14.666667" font-family="Arial,Helvetica,'Helvetica Neue',sans-serif" font-weight="500.000000">10:03:00</text>
  <text x="876.362949" y="478.666667" fill="#000000ff" font-size="14.666667" font-family="Arial,Helvetica,'Helvetica Neue',sans-serif" font-weight="500.000000">10:39:00</text>
  <text x="966.666667" y="478.666667" fill="#000000ff" font-size="14.666667" font-family="Arial,Helvetica,'Helvetica Neue',sans-serif" font-weight="500.000000">11:15:00</text>
  <path d="M97.0979 452.933 L97.0979 29.3333 " fill="none" stroke-width="1.333333" stroke="#000000ff"/>
  <path d="M97.0979 452.933 L102.431 452.933 " fill="none" stroke-width="1.333333" stroke="#000000ff"/>
  <path d="M97.0979 410.573 L102.431 410.573 " fill="none" stroke-width="1.333333" stroke="#000000ff"/>
  <path d="M97.0979 368.213 L102.431 368.213 " fill="none" stroke-width="1.333333" stroke="#000000ff"/>
  <path d="M97.0979 325.853 L102.431 325.853 " fill="none" stroke-width="1.333333" stroke="#000000ff"/>
  <path d="M97.0979 283.493 L102.431 283.493 " fill="none" stroke-width="1.333333" stroke="#000000ff"/>
  <path d="M97.0979 241.133 L102.431 241.133 " fill="none" stroke-width="1.333333" stroke="#000000ff"/>
  <path d="M97.0979 198.773 L102.431 198.773 " fill="none" stroke-width="1.333333" stroke="#000000ff"/>
  <path d="M97.0979 156.413 L102.431 156.413 " fill="none" stroke-width="1.333333" stroke="#000000ff"/>
  <path d="M97.0979 114.053 L102.431 114.053 " fill="none" stroke-width="1.333333" stroke="#000000ff"/>
  <path d="M97.0979 71.6933 L102.431 71.6933 " fill="none" stroke-width="1.333333" stroke="#000000ff"/>
  <path d="M97.0979 29.3333 L102.431 29.3333 " fill="none" stroke-width="1.333333" stroke="#000000ff"/>
  <text x="77.208333" y="457.933333" fill="#000000ff" font-size="14.666667" font-family="Arial,Helvetica,'Helvetica Neue',sans-serif" font-weight="500.000000">0</text>
  <text x="29.333333" y="414.073333" fill="#000000ff" font-size="14.666667" font-family="Arial,Helvetica,'Helvetica Neue',sans-serif" font-weight="500.000000">2.0 × 10⁶</text>
  <text x="29.333333" y="371.713332" fill="#000000ff" font-size="14.666667" font-family="Arial,Helvetica,'Helvetica Neue',sans-serif" font-weight="500.000000">4.0 × 10⁶</text>
  <text x="29.333333" y="329.353328" fill="#000000ff" font-size="14.666667" font-family="Arial,Helvetica,'Helvetica Neue',sans-serif" font-weight="500.000000">6.0 × 10⁶</text>
  <text x="29.333333" y="286.993331" fill="#000000ff" font-size="14.666667" font-family="Arial,Helvetica,'Helvetica Neue',sans-serif" font-weight="500.000000">8.0 × 10⁶</text>
  <text x="29.333333" y="244.633333" fill="#000000ff" font-size="14.666667" font-family="Arial,Helvetica,'Helvetica Neue',sans-serif" font-weight="500.000000">1.0 × 10⁷</text>
  <text x="29.333333" y="202.273323" fill="#000000ff" font-size="14.666667" font-family="Arial,Helvetica,'Helvetica Neue',sans-serif" font-weight="500.000000">1.2 × 10⁷</text>
  <text x="29.333333" y="159.913338" fill="#000000ff" font-size="14.666667" font-family="Arial,Helvetica,'Helvetica Neue',sans-serif" font-weight="500.000000">1.4 × 10⁷</text>
  <text x="29.333333" y="117.553328" fill="#000000ff" font-size="14.666667" font-family="Arial,Helvetica,'Helvetica Neue',sans-serif" font-weight="500.000000">1.6 × 10⁷</text>
  <text x="29.333333" y="75.193318" fill="#000000ff" font-size="14.666667" font-family="Arial,Helvetica,'Helvetica Neue',sans-serif" font-weight="500.000000">1.8 × 10⁷</text>
  <text x="29.333333" y="32.833333" fill="#000000ff" font-size="14.666667" font-family="Arial,Helvetica,'Helvetica Neue',sans-serif" font-weight="500.000000">2.0 × 10⁷</text>
  <path d="M97.0979 452.933 L97.0979 29.3333 " fill="none" stroke-width="1.333333" stroke="#ffffffff"/>
  <path d="M186.855 452.933 L186.855 29.3333 " fill="none" stroke-width="1.333333" stroke="#ffffffff"/>
  <path d="M276.612 452.933 L276.612 29.3333 " fill="none" stroke-width="1.333333" stroke="#ffffffff"/>
  <path d="M366.369 452.933 L366.369 29.3333 " fill="none" stroke-width="1.333333" stroke="#ffffffff"/>
  <path d="M456.125 452.933 L456.125 29.3333 " fill="none" stroke-width="1.333333" stroke="#ffffffff"/>
  <path d="M545.882 452.933 L545.882 29.3333 " fill="none" stroke-width="1.333333" stroke="#ffffffff"/>
  <path d="M635.639 452.933 L635.639 29.3333 " fill="none" stroke-width="1.333333" stroke="#ffffffff"/>
  <path d="M725.396 452.933 L725.396 29.3333 " fill="none" stroke-width="1.333333" stroke="#ffffffff"/>
  <path d="M815.153 452.933 L815.153 29.3333 " fill="none" stroke-width="1.333333" stroke="#ffffffff"/>
  <path d="M904.91 452.933 L904.91 29.3333 " fill="none" stroke-width="1.333333" stroke="#ffffffff"/>
  <path d="M994.667 452.933 L994.667 29.3333 " fill="none" stroke-width="1.333333" stroke="#ffffffff"/>
  <path d="M97.0979 29.3333 L994.667 29.3333 " fill="none" stroke-width="1.333333" stroke="#ffffffff"/>
  <path d="M97.0979 71.6933 L994.667 71.6933 " fill="none" stroke-width="1.333333" stroke="#ffffffff"/>
  <path d="M97.0979 114.053 L994.667 114.053 " fill="none" stroke-width="1.333333" stroke="#ffffffff"/>
  <path d="M97.0979 156.413 L994.667 156.413 " fill="none" stroke-width="1.333333" stroke="#ffffffff"/>
  <path d="M97.0979 198.773 L994.667 198.773 " fill="none" stroke-width="1.333333" stroke="#ffffffff"/>
  <path d="M97.0979 241.133 L994.667 241.133 " fill="none" stroke-width="1.333333" stroke="#ffffffff"/>
  <path d="M97.0979 283.493 L994.667 283.493 " fill="none" stroke-width="1.333333" stroke="#ffffffff"/>
  <path d="M97.0979 325.853 L994.667 325.853 " fill="none" stroke-width="1.333333" stroke="#ffffffff"/>
  <path d="M97.0979 368.213 L994.667 368.213 " fill="none" stroke-width="1.333333" stroke="#ffffffff"/>
  <path d="M97.0979 410.573 L994.667 410.573 " fill="none" stroke-width="1.333333" stroke="#ffffffff"/>
  <path d="M97.0979 452.933 L994.667 452.933 " fill="none" stroke-width="1.333333" stroke="#ffffffff"/>
  <path d="M97.0979 270.319 L109.564 276.346 L122.03 280.058 L134.497 279.761 L146.963 282.759 L159.429 284.647 L171.895 285.906 L184.362 286.678 L196.828 288.652 L209.294 285.149 L221.76 286.252 L234.226 289.633 L246.693 285.315 L259.159 285.842 L271.625 289.178 L284.091 288.728 L296.558 290.953 L309.024 292.475 L321.49 294.801 L333.956 295.664 L346.423 296.865 L358.889 287.512 L371.355 280.541 L383.821 278.654 L396.287 280.322 L408.754 284.177 L421.22 289.522 L433.686 289.097 L446.152 292.324 L458.619 293.415 L471.085 294.948 L483.551 293.558 L496.017 295.254 L508.484 292.004 L520.95 289.345 L533.416 294.874 L545.882 295.577 L558.349 296.463 L570.815 298.623 L583.281 294.145 L595.747 292.171 L608.213 292.378 L620.68 293.471 L633.146 290.537 L645.612 295.136 L658.078 292.014 L670.545 290.745 L683.011 290.884 L695.477 292.559 L707.943 289.106 L720.41 288.535 L732.876 286.302 L745.342 289.103 L757.808 291.917 L770.274 294.149 L782.741 289.848 L795.207 291.874 L807.673 291.441 L820.139 295.292 L832.606 296.402 L845.072 295.224 L857.538 296.118 L870.004 295.198 L882.471 293.67 L894.937 294.168 L907.403 293.152 L919.869 291.619 L932.336 292.469 L944.802 293.854 L957.268 288.819 L969.734 288.145 L982.2 285.412 L994.667 285.695 L994.667 452.933 L982.2 452.933 L969.734 452.933 L957.268 452.933 L944.802 452.933 L932.336 452.933 L919.869 452.933 L907.403 452.933 L894.937 452.933 L882.471 452.933 L870.004 452.933 L857.538 452.933 L845.072 452.933 L832.606 452.933 L820.139 452.933 L807.673 452.933 L795.207 452.933 L782.741 452.933 L770.274 452.933 L757.808 452.933 L745.342 452.933 L732.876 452.933 L720.41 452.933 L707.943 452.933 L695.477 452.933 L683.011 452.933 L670.545 452.933 L658.078 452.933 L645.612 452.933 L633.146 452.933 L620.68 452.933 L608.213 452.933 L595.747 452.933 L583.281 452.933 L570.815 452.933 L558.349 452.933 L545.882 452.933 L533.416 452.933 L520.95 452.933 L508.484 452.933 L496.017 452.933 L483.551 452.933 L471.085 452.933 L458.619 452.933 L446.152 452.933 L433.686 452.933 L421.22 452.933 L408.754 452.933 L396.287 452.933 L383.821 452.933 L371.355 452.933 L358.889 452.933 L346.423 452.933 L333.956 452.933 L321.49 452.933 L309.024 452.933 L296.558 452.933 L284.091 452.933 L271.625 452.933 L259.159 452.933 L246.693 452.933 L234.226 452.933 L221.76 452.933 L209.294 452.933 L196.828 452.933 L184.362 452.933 L171.895 452.933 L159.429 452.933 L146.963 452.933 L134.497 452.933 L122.03 452.933 L109.564 452.933 L97.0979 452.933 Z" fill="#888888" fill-opacity="1.000000"/>
</svg>