<?xml version="1.0" encoding="UTF-8" ?>
<!-- Generated by clip v0.6.0 (clip-lang.org) -->
<svg xmlns="http://www.w3.org/2000/svg" width="1200.000000" height="480.000000">
  <rect width="1200.000000" height="480.000000" fill="#ffffff" fill-opacity="1.000000"/>
  <path d="M83.4938 435.6 L1185.33 435.6 " fill="none" stroke-width="1.333333" stroke="#000000ff"/>
  <path d="M83.4938 435.6 L83.4938 430.267 " fill="none" stroke-width="1.333333" stroke="#000000ff"/>
  <path d="M193.678 435.6 L193.678 430.267 " fill="none" stroke-width="1.333333" stroke="#000000ff"/>
  <path d="M303.862 435.6 L303.862 430.267 " fill="none" stroke-width="1.333333" stroke="#000000ff"/>
  <path d="M414.046 435.6 L414.046 430.267 " fill="none" stroke-width="1.333333" stroke="#000000ff"/>
  <path d="M524.23 435.6 L524.23 430.267 " fill="none" stroke-width="1.333333" stroke="#000000ff"/>
  <path d="M634.414 435.6 L634.414 430.267 " fill="none" stroke-width="1.333333" stroke="#000000ff"/>
  <path d="M744.598 435.6 L744.598 430.267 " fill="none" stroke-width="1.333333" stroke="#000000ff"/>
  <path d="M854.781 435.6 L854.781 430.267 " fill="none" stroke-width="1.333333" stroke="#000000ff"/>
  <path d="M964.965 435.6 L964.965 430.267 " fill="none" stroke-width="1.333333" stroke="#000000ff"/>
  <path d="M1075.15 435.6 L1075.15 430.267 " fill="none" stroke-width="1.333333" stroke="#000000ff"/>
  <path d="M1185.33 435.6 L1185.33 430.267 " fill="none" stroke-width="1.333333" stroke="#000000ff"/>
  <text x="73.298438" y="461.333333" fill="#000000ff" font-size="14.666667" font-family="Arial,Helvetica,'Helvetica Neue',sans-serif" font-weight="500.000000">0.0</text>
  <text x="179.404272" y="461.333333" fill="#000000ff" font-size="14.666667" font-family="Arial,Helvetica,'Helvetica Neue',sans-serif" font-weight="500.000000">15.0</text>
  <text x="289.588232" y="461.333333" fill="#000000ff" font-size="14.666667" font-family="Arial,Helvetica,'Helvetica Neue',sans-serif" font-weight="500.000000">30.0</text>
  <text x="399.772201" y="461.333333" fill="#000000ff" font-size="14.666667" font-family="Arial,Helvetica,'Helvetica Neue',sans-serif" font-weight="500.000000">45.0</text>
  <text x="509.956152" y="461.333333" fill="#000000ff" font-size="14.666667" font-family="Arial,Helvetica,'Helvetica Neue',sans-serif" font-weight="500.000000">60.0</text>
  <text x="620.140104" y="461.333333" fill="#000000ff" font-size="14.666667" font-family="Arial,Helvetica,'Helvetica Neue',sans-serif" font-weight="500.000000">75.0</text>
  <text x="730.324089" y="461.333333" fill="#000000ff" font-size="14.666667" font-family="Arial,Helvetica,'Helvetica Neue',sans-serif" font-weight="500.000000">90.0</text>
  <text x="836.429883" y="461.333333" fill="#000000ff" font-size="14.666667" font-family="Arial,Helvetica,'Helvetica Neue',sans-serif" font-weight="500.000000">105.0</text>
  <text x="946.613867" y="461.333333" fill="#000000ff" font-size="14.666667" font-family="Arial,Helvetica,'Helvetica Neue',sans-serif" font-weight="500.000000">120.0</text>
  <text x="1056.797852" y="461.333333" fill="#000000ff" font-size="14.666667" font-family="Arial,Helvetica,'Helvetica Neue',sans-serif" font-weight="500.000000">135.0</text>
  <text x="1166.981771" y="461.333333" fill="#000000ff" font-size="14.666667" font-family="Arial,Helvetica,'Helvetica Neue',sans-serif" font-weight="500.000000">150.0</text>
  <path d="M83.4938 435.6 L83.4938 14.6667 " fill="none" stroke-width="1.333333" stroke="#000000ff"/>
  <path d="M83.4938 435.6 L88.8271 435.6 " fill="none" stroke-width="1.333333" stroke="#000000ff"/>
  <path d="M83.4938 393.507 L88.8271 393.507 " fill="none" stroke-width="1.333333" stroke="#000000ff"/>
  <path d="M83.4938 351.413 L88.8271 351.413 " fill="none" stroke-width="1.333333" stroke="#000000ff"/>
  <path d="M83.4938 309.32 L88.8271 309.32 " fill="none" stroke-width="1.333333" stroke="#000000ff"/>
  <path d="M83.4938 267.227 L88.8271 267.227 " fill="none" stroke-width="1.333333" stroke="#000000ff"/>
  <path d="M83.4938 225.133 L88.8271 225.133 " fill="none" stroke-width="1.333333" stroke="#000000ff"/>
  <path d="M83.4938 183.04 L88.8271 183.04 " fill="none" stroke-width="1.333333" stroke="#000000ff"/>
  <path d="M83.4938 140.947 L88.8271 140.947 " fill="none" stroke-width="1.333333" stroke="#000000ff"/>
  <path d="M83.4938 98.8533 L88.8271 98.8533 " fill="none" stroke-width="1.333333" stroke="#000000ff"/>
  <path d="M83.4938 56.76 L88.8271 56.76 " fill="none" stroke-width="1.333333" stroke="#000000ff"/>
  <path d="M83.4938 14.6667 L88.8271 14.6667 " fill="none" stroke-width="1.333333" stroke="#000000ff"/>
  <text x="14.666667" y="440.600000" fill="#000000ff" font-size="14.666667" font-family="Arial,Helvetica,'Helvetica Neue',sans-serif" font-weight="500.000000">05:15:00</text>
  <text x="14.666667" y="398.506666" fill="#000000ff" font-size="14.666667" font-family="Arial,Helvetica,'Helvetica Neue',sans-serif" font-weight="500.000000">05:51:00</text>
  <text x="14.666667" y="356.413332" fill="#000000ff" font-size="14.666667" font-family="Arial,Helvetica,'Helvetica Neue',sans-serif" font-weight="500.000000">06:27:00</text>
  <text x="14.666667" y="314.319995" fill="#000000ff" font-size="14.666667" font-family="Arial,Helvetica,'Helvetica Neue',sans-serif" font-weight="500.000000">07:03:00</text>
  <text x="14.666667" y="272.226664" fill="#000000ff" font-size="14.666667" font-family="Arial,Helvetica,'Helvetica Neue',sans-serif" font-weight="500.000000">07:39:00</text>
  <text x="14.666667" y="230.133333" fill="#000000ff" font-size="14.666667" font-family="Arial,Helvetica,'Helvetica Neue',sans-serif" font-weight="500.000000">08:15:00</text>
  <text x="14.666667" y="188.039990" fill="#000000ff" font-size="14.666667" font-family="Arial,Helvetica,'Helvetica Neue',sans-serif" font-weight="500.000000">08:51:00</text>
  <text x="14.666667" y="145.946672" fill="#000000ff" font-size="14.666667" font-family="Arial,Helvetica,'Helvetica Neue',sans-serif" font-weight="500.000000">09:26:59</text>
  <text x="14.666667" y="103.853328" fill="#000000ff" font-size="14.666667" font-family="Arial,Helvetica,'Helvetica Neue',sans-serif" font-weight="500.000000">10:03:00</text>
  <text x="14.666667" y="61.759985" fill="#000000ff" font-size="14.666667" font-family="Arial,Helvetica,'Helvetica Neue',sans-serif" font-weight="500.000000">10:39:00</text>
  <text x="15.760417" y="19.666667" fill="#000000ff" font-size="14.666667" font-family="Arial,Helvetica,'Helvetica Neue',sans-serif" font-weight="500.000000">11:15:00</text>
  <path d="M314.805 435.6 L295.536 429.754 L140.959 423.907 L147.956 418.061 L180.524 412.215 L106.308 406.369 L100.905 400.522 L147.81 394.676 L191.883 388.83 L102.532 382.983 L156.709 377.137 L136.164 371.291 L253.968 365.444 L216.42 359.598 L166.614 353.752 L224.227 347.906 L157.113 342.059 L128.522 336.213 L104.999 330.367 L104.063 324.52 L104.181 318.674 L211.73 312.828 L622.1 306.981 L934.689 301.135 L919.962 295.289 L893.124 289.443 L528.191 283.596 L430.746 277.75 L247.327 271.904 L152.207 266.057 L118.698 260.211 L127.5 254.365 L116.79 248.519 L127.436 242.672 L233.127 236.826 L242.375 230.98 L246.123 225.133 L287.345 219.287 L268.396 213.441 L235.883 207.594 L251.292 201.748 L303.931 195.902 L385.371 190.056 L376.147 184.209 L429.698 178.363 L345.232 172.517 L307.55 166.67 L220.314 160.824 L265.678 154.978 L415.965 149.131 L444.823 143.285 L372.484 137.439 L357.496 131.593 L378.181 125.746 L416.551 119.9 L264.276 114.054 L214.835 108.207 L350.913 102.361 L262.373 96.5148 L163.571 90.6685 L173.889 84.8222 L276.283 78.9759 L200.196 73.1296 L192.077 67.2833 L176.892 61.437 L192.974 55.5907 L177.774 49.7444 L234.666 43.8981 L184.83 38.0519 L215.944 32.2056 L247.127 26.3593 L219.513 20.513 L164.186 14.6667 L83.4938 14.6667 L83.4938 20.513 L83.4938 26.3593 L83.4938 32.2056 L83.4938 38.0519 L83.4938 43.8981 L83.4938 49.7444 L83.4938 55.5907 L83.4938 61.437 L83.4938 67.2833 L83.4938 73.1296 L83.4938 78.9759 L83.4938 84.8222 L83.4938 90.6685 L83.4938 96.5148 L83.4938 102.361 L83.4938 108.207 L83.4938 114.054 L83.4938 119.9 L83.4938 125.746 L83.4938 131.593 L83.4938 137.439 L83.4938 143.285 L83.4938 149.131 L83.4938 154.978 L83.4938 160.824 L83.4938 166.67 L83.4938 172.517 L83.4938 178.363 L83.4938 184.209 L83.4938 190.056 L83.4938 195.902 L83.4938 201.748 L83.4938 207.594 L83.4938 213.441 L83.4938 219.287 L83.4938 225.133 L83.4938 230.98 L83.4938 236.826 L83.4938 242.672 L83.4938 248.519 L83.4938 254.365 L83.4938 260.211 L83.4938 266.057 L83.4938 271.904 L83.4938 277.75 L83.4938 283.596 L83.4938 289.443 L83.4938 295.289 L83.4938 301.135 L83.4938 306.981 L83.4938 312.828 L83.4938 318.674 L83.4938 324.52 L83.4938 330.367 L83.4938 336.213 L83.4938 342.059 L83.4938 347.906 L83.4938 353.752 L83.4938 359.598 L83.4938 365.444 L83.4938 371.291 L83.4938 377.137 L83.4938 382.983 L83.4938 388.83 L83.4938 394.676 L83.4938 400.522 L83.4938 406.369 L83.4938 412.215 L83.4938 418.061 L83.4938 423.907 L83.4938 429.754 L83.4938 435.6 Z" fill="#999999" fill-opacity="1.000000"/>
</svg>