<?xml version="1.0" encoding="UTF-8" ?>
<!-- Generated by clip v0.6.0 (clip-lang.org) -->
<svg xmlns="http://www.w3.org/2000/svg" width="1600.000000" height="900.000000">
  <rect width="1600.000000" height="900.000000" fill="#ffffff" fill-opacity="1.000000"/>
  <path d="M137.359 108 L1462.64 108 " fill="none" stroke-width="3.333333" stroke="#000000ff"/>
  <path d="M137.359 121.333 L137.359 108 " fill="none" stroke-width="3.333333" stroke="#000000ff"/>
  <path d="M358.24 121.333 L358.24 108 " fill="none" stroke-width="3.333333" stroke="#000000ff"/>
  <path d="M579.12 121.333 L579.12 108 " fill="none" stroke-width="3.333333" stroke="#000000ff"/>
  <path d="M800 121.333 L800 108 " fill="none" stroke-width="3.333333" stroke="#000000ff"/>
  <path d="M1020.88 121.333 L1020.88 108 " fill="none" stroke-width="3.333333" stroke="#000000ff"/>
  <path d="M1241.76 121.333 L1241.76 108 " fill="none" stroke-width="3.333333" stroke="#000000ff"/>
  <path d="M1462.64 121.333 L1462.64 108 " fill="none" stroke-width="3.333333" stroke="#000000ff"/>
  <text x="235.572917" y="70.666667" fill="#000000ff" font-size="36.666667" font-family="Arial,Helvetica,'Helvetica Neue',sans-serif" font-weight="500.000000">A</text>
  <text x="456.453125" y="70.666667" fill="#000000ff" font-size="36.666667" font-family="Arial,Helvetica,'Helvetica Neue',sans-serif" font-weight="500.000000">B</text>
  <text x="676.317708" y="70.666667" fill="#000000ff" font-size="36.666667" font-family="Arial,Helvetica,'Helvetica Neue',sans-serif" font-weight="500.000000">C</text>
  <text x="897.197917" y="70.666667" fill="#000000ff" font-size="36.666667" font-family="Arial,Helvetica,'Helvetica Neue',sans-serif" font-weight="500.000000">D</text>
  <text x="1119.093750" y="70.666667" fill="#000000ff" font-size="36.666667" font-family="Arial,Helvetica,'Helvetica Neue',sans-serif" font-weight="500.000000">E</text>
  <text x="1340.997396" y="70.666667" fill="#000000ff" font-size="36.666667" font-family="Arial,Helvetica,'Helvetica Neue',sans-serif" font-weight="500.000000">F</text>
  <path d="M1462.64 792 L1462.64 108 " fill="none" stroke-width="3.333333" stroke="#000000ff"/>
  <path d="M1449.31 706.5 L1462.64 706.5 " fill="none" stroke-width="3.333333" stroke="#000000ff"/>
  <path d="M1449.31 621 L1462.64 621 " fill="none" stroke-width="3.333333" stroke="#000000ff"/>
  <path d="M1449.31 535.5 L1462.64 535.5 " fill="none" stroke-width="3.333333" stroke="#000000ff"/>
  <path d="M1449.31 450 L1462.64 450 " fill="none" stroke-width="3.333333" stroke="#000000ff"/>
  <path d="M1449.31 364.5 L1462.64 364.5 " fill="none" stroke-width="3.333333" stroke="#000000ff"/>
  <path d="M1449.31 279 L1462.64 279 " fill="none" stroke-width="3.333333" stroke="#000000ff"/>
  <path d="M1449.31 193.5 L1462.64 193.5 " fill="none" stroke-width="3.333333" stroke="#000000ff"/>
  <text x="1491.973958" y="719.500000" fill="#000000ff" font-size="36.666667" font-family="Arial,Helvetica,'Helvetica Neue',sans-serif" font-weight="500.000000">10.0</text>
  <text x="1491.973958" y="634.000000" fill="#000000ff" font-size="36.666667" font-family="Arial,Helvetica,'Helvetica Neue',sans-serif" font-weight="500.000000">20.0</text>
  <text x="1491.973958" y="548.500000" fill="#000000ff" font-size="36.666667" font-family="Arial,Helvetica,'Helvetica Neue',sans-serif" font-weight="500.000000">30.0</text>
  <text x="1491.973958" y="463.000000" fill="#000000ff" font-size="36.666667" font-family="Arial,Helvetica,'Helvetica Neue',sans-serif" font-weight="500.000000">40.0</text>
  <text x="1491.973958" y="377.500000" fill="#000000ff" font-size="36.666667" font-family="Arial,Helvetica,'Helvetica Neue',sans-serif" font-weight="500.000000">50.0</text>
  <text x="1491.973958" y="292.000000" fill="#000000ff" font-size="36.666667" font-family="Arial,Helvetica,'Helvetica Neue',sans-serif" font-weight="500.000000">60.0</text>
  <text x="1491.973958" y="206.500000" fill="#000000ff" font-size="36.666667" font-family="Arial,Helvetica,'Helvetica Neue',sans-serif" font-weight="500.000000">70.0</text>
  <path d="M137.359 792 L1462.64 792 " fill="none" stroke-width="3.333333" stroke="#000000ff"/>
  <path d="M137.359 792 L137.359 778.667 " fill="none" stroke-width="3.333333" stroke="#000000ff"/>
  <path d="M358.24 792 L358.24 778.667 " fill="none" stroke-width="3.333333" stroke="#000000ff"/>
  <path d="M579.12 792 L579.12 778.667 " fill="none" stroke-width="3.333333" stroke="#000000ff"/>
  <path d="M800 792 L800 778.667 " fill="none" stroke-width="3.333333" stroke="#000000ff"/>
  <path d="M1020.88 792 L1020.88 778.667 " fill="none" stroke-width="3.333333" stroke="#000000ff"/>
  <path d="M1241.76 792 L1241.76 778.667 " fill="none" stroke-width="3.333333" stroke="#000000ff"/>
  <path d="M1462.64 792 L1462.64 778.667 " fill="none" stroke-width="3.333333" stroke="#000000ff"/>
  <text x="235.572917" y="855.333333" fill="#000000ff" font-size="36.666667" font-family="Arial,Helvetica,'Helvetica Neue',sans-serif" font-weight="500.000000">A</text>
  <text x="456.453125" y="855.333333" fill="#000000ff" font-size="36.666667" font-family="Arial,Helvetica,'Helvetica Neue',sans-serif" font-weight="500.000000">B</text>
  <text x="676.317708" y="855.333333" fill="#000000ff" font-size="36.666667" font-family="Arial,Helvetica,'Helvetica Neue',sans-serif" font-weight="500.000000">C</text>
  <text x="897.197917" y="855.333333" fill="#000000ff" font-size="36.666667" font-family="Arial,Helvetica,'Helvetica Neue',sans-serif" font-weight="500.000000">D</text>
  <text x="1119.093750" y="855.333333" fill="#000000ff" font-size="36.666667" font-family="Arial,Helvetica,'Helvetica Neue',sans-serif" font-weight="500.000000">E</text>
  <text x="1340.997396" y="855.333333" fill="#000000ff" font-size="36.666667" font-family="Arial,Helvetica,'Helvetica Neue',sans-serif" font-weight="500.000000">F</text>
  <path d="M137.359 792 L137.359 108 " fill="none" stroke-width="3.333333" stroke="#000000ff"/>
  <path d="M137.359 706.5 L150.693 706.5 " fill="none" stroke-width="3.333333" stroke="#000000ff"/>
  <path d="M137.359 621 L150.693 621 " fill="none" stroke-width="3.333333" stroke="#000000ff"/>
  <path d="M137.359 535.5 L150.693 535.5 " fill="none" stroke-width="3.333333" stroke="#000000ff"/>
  <path d="M137.359 450 L150.693 450 " fill="none" stroke-width="3.333333" stroke="#000000ff"/>
  <path d="M137.359 364.5 L150.693 364.5 " fill="none" stroke-width="3.333333" stroke="#000000ff"/>
  <path d="M137.359 279 L150.693 279 " fill="none" stroke-width="3.333333" stroke="#000000ff"/>
  <path d="M137.359 193.5 L150.693 193.5 " fill="none" stroke-width="3.333333" stroke="#000000ff"/>
  <text x="36.666667" y="719.500000" fill="#000000ff" font-size="36.666667" font-family="Arial,Helvetica,'Helvetica Neue',sans-serif" font-weight="500.000000">10.0</text>
  <text x="36.666667" y="634.000000" fill="#000000ff" font-size="36.666667" font-family="Arial,Helvetica,'Helvetica Neue',sans-serif" font-weight="500.000000">20.0</text>
  <text x="36.666667" y="548.500000" fill="#000000ff" font-size="36.666667" font-family="Arial,Helvetica,'Helvetica Neue',sans-serif" font-weight="500.000000">30.0</text>
  <text x="36.666667" y="463.000000" fill="#000000ff" font-size="36.666667" font-family="Arial,Helvetica,'Helvetica Neue',sans-serif" font-weight="500.000000">40.0</text>
  <text x="36.666667" y="377.500000" fill="#000000ff" font-size="36.666667" font-family="Arial,Helvetica,'Helvetica Neue',sans-serif" font-weight="500.000000">50.0</text>
  <text x="36.666667" y="292.000000" fill="#000000ff" font-size="36.666667" font-family="Arial,Helvetica,'Helvetica Neue',sans-serif" font-weight="500.000000">60.0</text>
  <text x="36.666667" y="206.500000" fill="#000000ff" font-size="36.666667" font-family="Arial,Helvetica,'Helvetica Neue',sans-serif" font-weight="500.000000">70.0</text>
  <path d="M137.359 108 L1462.64 108 " fill="none" stroke-width="3.333333" stroke="#0000000c" stroke-dasharray="6.66667 6.66667 " stroke-dashoffset="0.000000"/>
  <path d="M137.359 176.4 L1462.64 176.4 " fill="none" stroke-width="3.333333" stroke="#0000000c" stroke-dasharray="6.66667 6.66667 " stroke-dashoffset="0.000000"/>
  <path d="M137.359 244.8 L1462.64 244.8 " fill="none" stroke-width="3.333333" stroke="#0000000c" stroke-dasharray="6.66667 6.66667 " stroke-dashoffset="0.000000"/>
  <path d="M137.359 313.2 L1462.64 313.2 " fill="none" stroke-width="3.333333" stroke="#0000000c" stroke-dasharray="6.66667 6.66667 " stroke-dashoffset="0.000000"/>
  <path d="M137.359 381.6 L1462.64 381.6 " fill="none" stroke-width="3.333333" stroke="#0000000c" stroke-dasharray="6.66667 6.66667 " stroke-dashoffset="0.000000"/>
  <path d="M137.359 450 L1462.64 450 " fill="none" stroke-width="3.333333" stroke="#0000000c" stroke-dasharray="6.66667 6.66667 " stroke-dashoffset="0.000000"/>
  <path d="M137.359 518.4 L1462.64 518.4 " fill="none" stroke-width="3.333333" stroke="#0000000c" stroke-dasharray="6.66667 6.66667 " stroke-dashoffset="0.000000"/>
  <path d="M137.359 586.8 L1462.64 586.8 " fill="none" stroke-width="3.333333" stroke="#0000000c" stroke-dasharray="6.66667 6.66667 " stroke-dashoffset="0.000000"/>
  <path d="M137.359 655.2 L1462.64 655.2 " fill="none" stroke-width="3.333333" stroke="#0000000c" stroke-dasharray="6.66667 6.66667 " stroke-dashoffset="0.000000"/>
  <path d="M137.359 723.6 L1462.64 723.6 " fill="none" stroke-width="3.333333" stroke="#0000000c" stroke-dasharray="6.66667 6.66667 " stroke-dashoffset="0.000000"/>
  <path d="M137.359 792 L1462.64 792 " fill="none" stroke-width="3.333333" stroke="#0000000c" stroke-dasharray="6.66667 6.66667 " stroke-dashoffset="0.000000"/>
  <path d="M200.466 792 L200.466 501.3 L237.133 501.3 L237.133 792 Z" fill="#444444" fill-opacity="1.000000"/>
  <path d="M421.346 792 L421.346 467.1 L458.013 467.1 L458.013 792 Z" fill="#444444" fill-opacity="1.000000"/>
  <path d="M642.227 792 L642.227 424.35 L678.893 424.35 L678.893 792 Z" fill="#444444" fill-opacity="1.000000"/>
  <path d="M863.107 792 L863.107 509.85 L899.773 509.85 L899.773 792 Z" fill="#444444" fill-opacity="1.000000"/>
  <path d="M1083.99 792 L1083.99 612.45 L1120.65 612.45 L1120.65 792 Z" fill="#444444" fill-opacity="1.000000"/>
  <path d="M1304.87 792 L1304.87 509.85 L1341.53 509.85 L1341.53 792 Z" fill="#444444" fill-opacity="1.000000"/>
  <path d="M258.466 792 L258.466 424.35 L295.133 424.35 L295.133 792 Z" fill="#999999" fill-opacity="1.000000"/>
  <path d="M479.346 792 L479.346 236.25 L516.013 236.25 L516.013 792 Z" fill="#999999" fill-opacity="1.000000"/>
  <path d="M700.227 792 L700.227 398.7 L736.893 398.7 L736.893 792 Z" fill="#999999" fill-opacity="1.000000"/>
  <path d="M921.107 792 L921.107 467.1 L957.773 467.1 L957.773 792 Z" fill="#999999" fill-opacity="1.000000"/>
  <path d="M1141.99 792 L1141.99 467.1 L1178.65 467.1 L1178.65 792 Z" fill="#999999" fill-opacity="1.000000"/>
  <path d="M1362.87 792 L1362.87 321.75 L1399.53 321.75 L1399.53 792 Z" fill="#999999" fill-opacity="1.000000"/>
</svg>