<svg xmlns="http://www.w3.org/2000/svg" width="2048.000000" height="512.000000">
  <rect width="2048.000000" height="512.000000" fill="#ffffffff"/>
  <path d="M137.359 404 L1910.64 404 L1910.64 36.6667 L137.359 36.6667 Z" fill="#eeeeeeff"/>
  <path d="M137.359 404 L137.359 36.6667 " fill="none" stroke-width="3.333333" stroke="#ffffffff"/>
  <path d="M432.906 404 L432.906 36.6667 " fill="none" stroke-width="3.333333" stroke="#ffffffff"/>
  <path d="M728.453 404 L728.453 36.6667 " fill="none" stroke-width="3.333333" stroke="#ffffffff"/>
  <path d="M1024 404 L1024 36.6667 " fill="none" stroke-width="3.333333" stroke="#ffffffff"/>
  <path d="M1319.55 404 L1319.55 36.6667 " fill="none" stroke-width="3.333333" stroke="#ffffffff"/>
  <path d="M1615.09 404 L1615.09 36.6667 " fill="none" stroke-width="3.333333" stroke="#ffffffff"/>
  <path d="M1910.64 404 L1910.64 36.6667 " fill="none" stroke-width="3.333333" stroke="#ffffffff"/>
  <path d="M137.359 82.5833 L1910.64 82.5833 " fill="none" stroke-width="3.333333" stroke="#ffffffff"/>
  <path d="M137.359 128.5 L1910.64 128.5 " fill="none" stroke-width="3.333333" stroke="#ffffffff"/>
  <path d="M137.359 174.417 L1910.64 174.417 " fill="none" stroke-width="3.333333" stroke="#ffffffff"/>
  <path d="M137.359 220.333 L1910.64 220.333 " fill="none" stroke-width="3.333333" stroke="#ffffffff"/>
  <path d="M137.359 266.25 L1910.64 266.25 " fill="none" stroke-width="3.333333" stroke="#ffffffff"/>
  <path d="M137.359 312.167 L1910.64 312.167 " fill="none" stroke-width="3.333333" stroke="#ffffffff"/>
  <path d="M137.359 358.083 L1910.64 358.083 " fill="none" stroke-width="3.333333" stroke="#ffffffff"/>
  <path d="M237.799 404 L237.799 247.883 L274.466 247.883 L274.466 404 Z" fill="#444444ff"/>
  <path d="M533.346 404 L533.346 229.517 L570.013 229.517 L570.013 404 Z" fill="#444444ff"/>
  <path d="M828.893 404 L828.893 206.558 L865.56 206.558 L865.56 404 Z" fill="#444444ff"/>
  <path d="M1124.44 404 L1124.44 252.475 L1161.11 252.475 L1161.11 404 Z" fill="#444444ff"/>
  <path d="M1419.99 404 L1419.99 307.575 L1456.65 307.575 L1456.65 404 Z" fill="#444444ff"/>
  <path d="M1715.53 404 L1715.53 252.475 L1752.2 252.475 L1752.2 404 Z" fill="#444444ff"/>
  <path d="M295.799 404 L295.799 206.558 L332.466 206.558 L332.466 404 Z" fill="#999999ff"/>
  <path d="M591.346 404 L591.346 105.542 L628.013 105.542 L628.013 404 Z" fill="#999999ff"/>
  <path d="M886.893 404 L886.893 192.783 L923.56 192.783 L923.56 404 Z" fill="#999999ff"/>
  <path d="M1182.44 404 L1182.44 229.517 L1219.11 229.517 L1219.11 404 Z" fill="#999999ff"/>
  <path d="M1477.99 404 L1477.99 229.517 L1514.65 229.517 L1514.65 404 Z" fill="#999999ff"/>
  <path d="M1773.53 404 L1773.53 151.458 L1810.2 151.458 L1810.2 404 Z" fill="#999999ff"/>
  <text x="1939.973958" y="371.083333" fill="#000000ff" font-size="36.666667" font-family="Arial,Helvetica,'Helvetica Neue',sans-serif" font-weight="500.000000">10.0</text>
  <text x="1939.973958" y="325.166667" fill="#000000ff" font-size="36.666667" font-family="Arial,Helvetica,'Helvetica Neue',sans-serif" font-weight="500.000000">20.0</text>
  <text x="1939.973958" y="279.250000" fill="#000000ff" font-size="36.666667" font-family="Arial,Helvetica,'Helvetica Neue',sans-serif" font-weight="500.000000">30.0</text>
  <text x="1939.973958" y="233.333333" fill="#000000ff" font-size="36.666667" font-family="Arial,Helvetica,'Helvetica Neue',sans-serif" font-weight="500.000000">40.0</text>
  <text x="1939.973958" y="187.416667" fill="#000000ff" font-size="36.666667" font-family="Arial,Helvetica,'Helvetica Neue',sans-serif" font-weight="500.000000">50.0</text>
  <text x="1939.973958" y="141.500000" fill="#000000ff" font-size="36.666667" font-family="Arial,Helvetica,'Helvetica Neue',sans-serif" font-weight="500.000000">60.0</text>
  <text x="1939.973958" y="95.583333" fill="#000000ff" font-size="36.666667" font-family="Arial,Helvetica,'Helvetica Neue',sans-serif" font-weight="500.000000">70.0</text>
  <text x="272.906250" y="467.333333" fill="#000000ff" font-size="36.666667" font-family="Arial,Helvetica,'Helvetica Neue',sans-serif" font-weight="500.000000">A</text>
  <text x="568.453125" y="467.333333" fill="#000000ff" font-size="36.666667" font-family="Arial,Helvetica,'Helvetica Neue',sans-serif" font-weight="500.000000">B</text>
  <text x="862.984375" y="467.333333" fill="#000000ff" font-size="36.666667" font-family="Arial,Helvetica,'Helvetica Neue',sans-serif" font-weight="500.000000">C</text>
  <text x="1158.531250" y="467.333333" fill="#000000ff" font-size="36.666667" font-family="Arial,Helvetica,'Helvetica Neue',sans-serif" font-weight="500.000000">D</text>
  <text x="1455.093750" y="467.333333" fill="#000000ff" font-size="36.666667" font-family="Arial,Helvetica,'Helvetica Neue',sans-serif" font-weight="500.000000">E</text>
  <text x="1751.664062" y="467.333333" fill="#000000ff" font-size="36.666667" font-family="Arial,Helvetica,'Helvetica Neue',sans-serif" font-weight="500.000000">F</text>
  <text x="36.666667" y="371.083333" fill="#000000ff" font-size="36.666667" font-family="Arial,Helvetica,'Helvetica Neue',sans-serif" font-weight="500.000000">10.0</text>
  <text x="36.666667" y="325.166667" fill="#000000ff" font-size="36.666667" font-family="Arial,Helvetica,'Helvetica Neue',sans-serif" font-weight="500.000000">20.0</text>
  <text x="36.666667" y="279.250000" fill="#000000ff" font-size="36.666667" font-family="Arial,Helvetica,'Helvetica Neue',sans-serif" font-weight="500.000000">30.0</text>
  <text x="36.666667" y="233.333333" fill="#000000ff" font-size="36.666667" font-family="Arial,Helvetica,'Helvetica Neue',sans-serif" font-weight="500.000000">40.0</text>
  <text x="36.666667" y="187.416667" fill="#000000ff" font-size="36.666667" font-family="Arial,Helvetica,'Helvetica Neue',sans-serif" font-weight="500.000000">50.0</text>
  <text x="36.666667" y="141.500000" fill="#000000ff" font-size="36.666667" font-family="Arial,Helvetica,'Helvetica Neue',sans-serif" font-weight="500.000000">60.0</text>
  <text x="36.666667" y="95.583333" fill="#000000ff" font-size="36.666667" font-family="Arial,Helvetica,'Helvetica Neue',sans-serif" font-weight="500.000000">70.0</text>
</svg>