<?xml version="1.0" encoding="UTF-8" ?>
<!-- Generated by clip v0.6.0 (clip-lang.org) -->
<svg xmlns="http://www.w3.org/2000/svg" width="1600.000000" height="800.000000">
  <rect width="1600.000000" height="800.000000" fill="#ffffff" fill-opacity="1.000000"/>
  <path d="M181.141 682 L1563.33 682 " fill="none" stroke-width="3.333333" stroke="#000000ff"/>
  <path d="M181.141 682 L181.141 668.667 " fill="none" stroke-width="3.333333" stroke="#000000ff"/>
  <path d="M411.506 682 L411.506 668.667 " fill="none" stroke-width="3.333333" stroke="#000000ff"/>
  <path d="M641.872 682 L641.872 668.667 " fill="none" stroke-width="3.333333" stroke="#000000ff"/>
  <path d="M872.237 682 L872.237 668.667 " fill="none" stroke-width="3.333333" stroke="#000000ff"/>
  <path d="M1102.6 682 L1102.6 668.667 " fill="none" stroke-width="3.333333" stroke="#000000ff"/>
  <path d="M1332.97 682 L1332.97 668.667 " fill="none" stroke-width="3.333333" stroke="#000000ff"/>
  <path d="M1563.33 682 L1563.33 668.667 " fill="none" stroke-width="3.333333" stroke="#000000ff"/>
  <path fill="#000000ff" d="M117.039 752.333 Q111.539 752.333 109.008 747.443 Q107.102 743.693 107.102 737.661 Q107.102 732.568 109.586 728.771 Q112.539 724.333 117.586 724.333 Q122.336 724.333 124.992 728.271 Q127.289 731.677 127.289 736.583 Q127.289 744.443 124.727 748.388 Q122.164 752.333 117.039 752.333 ZM117.57 728.333 Q114.211 728.333 112.242 731.458 Q110.602 734.068 110.602 737.427 Q110.602 742.88 112.211 745.607 Q113.82 748.333 117.039 748.333 Q120.867 748.333 122.523 744.333 Q123.68 741.552 123.68 737.286 Q123.68 732.802 122.156 730.568 Q120.633 728.333 117.57 728.333 Z"/>
  <path fill="#000000ff" d="M138.523 752.333 Q133.398 752.333 130.977 748.271 Q130.648 747.708 130.648 747.193 Q130.648 746.443 131.211 745.888 Q131.773 745.333 132.477 745.333 Q133.211 745.333 133.883 746.115 Q134.836 747.24 135.32 747.552 Q136.508 748.333 138.523 748.333 Q141.648 748.333 143.711 746.146 Q145.68 744.068 145.68 741.146 Q145.68 738.74 144.805 737.24 Q143.695 735.333 141.367 735.333 Q139.43 735.333 138.195 735.865 Q137.227 736.286 136.227 737.318 L134.258 739.505 Q133.461 740.333 132.633 740.333 Q131.914 740.333 131.406 739.818 Q130.898 739.302 130.898 738.583 Q130.898 738.224 131.195 735.38 Q131.805 729.708 131.805 727.927 Q131.805 727.302 131.484 726.552 Q131.164 725.802 131.164 725.443 Q131.164 724.349 133.055 724.349 Q133.43 724.349 134.156 724.411 Q134.883 724.474 135.242 724.474 Q136.289 724.474 138.391 724.404 Q140.492 724.333 141.539 724.333 Q142.023 724.333 143.016 724.365 Q144.008 724.396 144.492 724.396 Q144.836 724.396 145.492 724.271 Q146.148 724.146 146.477 724.146 Q147.18 724.146 147.719 724.607 Q148.258 725.068 148.258 725.661 Q148.258 727.396 143.977 727.396 Q143.414 727.396 142.562 727.365 Q141.711 727.333 141.539 727.333 L138.477 727.38 L135.43 727.474 Q135.43 728.24 134.758 733.302 Q137.227 731.333 141.352 731.333 Q145.336 731.333 147.43 734.411 Q149.195 737.036 149.195 741.083 Q149.195 745.927 146.336 749.068 Q143.383 752.333 138.523 752.333 Z"/>
  <path fill="#000000ff" d="M158.227 748.349 Q158.227 749.208 157.703 749.771 Q157.18 750.333 156.367 750.333 Q155.555 750.333 155.055 749.771 Q154.523 749.208 154.523 748.349 Q154.523 747.974 154.406 747.271 Q154.289 746.568 154.289 746.224 Q154.289 745.411 154.859 744.872 Q155.43 744.333 156.211 744.333 Q158.227 744.333 158.227 748.349 ZM157.914 736.474 Q157.914 737.286 157.398 737.81 Q156.883 738.333 156.07 738.333 Q155.258 738.333 154.734 737.81 Q154.211 737.286 154.211 736.474 Q154.211 736.255 154.133 735.81 Q154.055 735.365 154.055 735.13 Q154.055 734.349 154.594 733.841 Q155.133 733.333 155.93 733.333 Q157.914 733.333 157.914 736.474 Z"/>
  <path fill="#000000ff" d="M174.414 752.333 L170.82 752.333 L167.242 752.318 Q165.977 752.318 165.477 752.115 Q164.555 751.724 164.555 750.458 Q164.555 748.286 167.383 748.286 L168.258 748.302 L168.992 748.333 Q168.992 747.521 168.836 745.919 Q168.68 744.318 168.68 743.505 Q168.68 741.349 169.102 736.927 Q169.508 732.583 169.477 730.333 Q167.055 732.333 166.383 732.333 Q165.664 732.333 165.133 731.771 Q164.602 731.208 164.602 730.458 Q164.602 729.583 166.148 728.318 Q167.133 727.599 168.914 726.005 Q170.508 724.333 171.961 724.333 Q173.164 724.333 173.164 725.677 Q173.164 726.083 173.055 726.88 Q172.945 727.677 172.945 728.083 Q172.945 728.661 173.008 729.833 Q173.07 731.005 173.07 731.583 Q173.07 733.583 172.641 737.544 Q172.211 741.505 172.211 743.474 Q172.211 744.49 172.359 745.951 Q172.508 747.411 172.523 748.333 L174.414 748.302 Q175.18 748.302 175.672 748.872 Q176.164 749.443 176.164 750.318 Q176.164 751.193 175.664 751.763 Q175.164 752.333 174.414 752.333 Z"/>
  <path fill="#000000ff" d="M188.367 752.333 Q183.242 752.333 180.82 748.271 Q180.492 747.708 180.492 747.193 Q180.492 746.443 181.055 745.888 Q181.617 745.333 182.32 745.333 Q183.055 745.333 183.727 746.115 Q184.68 747.24 185.164 747.552 Q186.352 748.333 188.367 748.333 Q191.492 748.333 193.555 746.146 Q195.523 744.068 195.523 741.146 Q195.523 738.74 194.648 737.24 Q193.539 735.333 191.211 735.333 Q189.273 735.333 188.039 735.865 Q187.07 736.286 186.07 737.318 L184.102 739.505 Q183.305 740.333 182.477 740.333 Q181.758 740.333 181.25 739.818 Q180.742 739.302 180.742 738.583 Q180.742 738.224 181.039 735.38 Q181.648 729.708 181.648 727.927 Q181.648 727.302 181.328 726.552 Q181.008 725.802 181.008 725.443 Q181.008 724.349 182.898 724.349 Q183.273 724.349 184 724.411 Q184.727 724.474 185.086 724.474 Q186.133 724.474 188.234 724.404 Q190.336 724.333 191.383 724.333 Q191.867 724.333 192.859 724.365 Q193.852 724.396 194.336 724.396 Q194.68 724.396 195.336 724.271 Q195.992 724.146 196.32 724.146 Q197.023 724.146 197.562 724.607 Q198.102 725.068 198.102 725.661 Q198.102 727.396 193.82 727.396 Q193.258 727.396 192.406 727.365 Q191.555 727.333 191.383 727.333 L188.32 727.38 L185.273 727.474 Q185.273 728.24 184.602 733.302 Q187.07 731.333 191.195 731.333 Q195.18 731.333 197.273 734.411 Q199.039 737.036 199.039 741.083 Q199.039 745.927 196.18 749.068 Q193.227 752.333 188.367 752.333 Z"/>
  <path fill="#000000ff" d="M208.07 748.349 Q208.07 749.208 207.547 749.771 Q207.023 750.333 206.211 750.333 Q205.398 750.333 204.898 749.771 Q204.367 749.208 204.367 748.349 Q204.367 747.974 204.25 747.271 Q204.133 746.568 204.133 746.224 Q204.133 745.411 204.703 744.872 Q205.273 744.333 206.055 744.333 Q208.07 744.333 208.07 748.349 ZM207.758 736.474 Q207.758 737.286 207.242 737.81 Q206.727 738.333 205.914 738.333 Q205.102 738.333 204.578 737.81 Q204.055 737.286 204.055 736.474 Q204.055 736.255 203.977 735.81 Q203.898 735.365 203.898 735.13 Q203.898 734.349 204.438 733.841 Q204.977 733.333 205.773 733.333 Q207.758 733.333 207.758 736.474 Z"/>
  <path fill="#000000ff" d="M222.586 752.333 Q217.086 752.333 214.555 747.443 Q212.648 743.693 212.648 737.661 Q212.648 732.568 215.133 728.771 Q218.086 724.333 223.133 724.333 Q227.883 724.333 230.539 728.271 Q232.836 731.677 232.836 736.583 Q232.836 744.443 230.273 748.388 Q227.711 752.333 222.586 752.333 ZM223.117 728.333 Q219.758 728.333 217.789 731.458 Q216.148 734.068 216.148 737.427 Q216.148 742.88 217.758 745.607 Q219.367 748.333 222.586 748.333 Q226.414 748.333 228.07 744.333 Q229.227 741.552 229.227 737.286 Q229.227 732.802 227.703 730.568 Q226.18 728.333 223.117 728.333 Z"/>
  <path fill="#000000ff" d="M244.961 752.333 Q239.461 752.333 236.93 747.443 Q235.023 743.693 235.023 737.661 Q235.023 732.568 237.508 728.771 Q240.461 724.333 245.508 724.333 Q250.258 724.333 252.914 728.271 Q255.211 731.677 255.211 736.583 Q255.211 744.443 252.648 748.388 Q250.086 752.333 244.961 752.333 ZM245.492 728.333 Q242.133 728.333 240.164 731.458 Q238.523 734.068 238.523 737.427 Q238.523 742.88 240.133 745.607 Q241.742 748.333 244.961 748.333 Q248.789 748.333 250.445 744.333 Q251.602 741.552 251.602 737.286 Q251.602 732.802 250.078 730.568 Q248.555 728.333 245.492 728.333 Z"/>
  <path fill="#000000ff" d="M347.405 752.333 Q341.905 752.333 339.373 747.443 Q337.467 743.693 337.467 737.661 Q337.467 732.568 339.951 728.771 Q342.905 724.333 347.951 724.333 Q352.701 724.333 355.358 728.271 Q357.655 731.677 357.655 736.583 Q357.655 744.443 355.092 748.388 Q352.53 752.333 347.405 752.333 ZM347.936 728.333 Q344.576 728.333 342.608 731.458 Q340.967 734.068 340.967 737.427 Q340.967 742.88 342.576 745.607 Q344.186 748.333 347.405 748.333 Q351.233 748.333 352.889 744.333 Q354.045 741.552 354.045 737.286 Q354.045 732.802 352.522 730.568 Q350.998 728.333 347.936 728.333 Z"/>
  <path fill="#000000ff" d="M369.514 752.333 Q364.795 752.333 362.576 749.052 Q360.733 746.349 360.733 741.849 Q360.733 733.349 367.983 727.099 L369.686 725.474 Q370.936 724.333 371.561 724.333 Q372.28 724.333 372.826 724.857 Q373.373 725.38 373.389 726.099 Q373.42 726.755 371.545 728.661 L367.858 732.318 Q366.389 733.833 365.342 736.88 Q366.92 736.099 368.092 735.716 Q369.264 735.333 370.014 735.333 Q374.248 735.333 376.506 737.404 Q378.764 739.474 378.764 743.255 Q378.764 747.224 376.326 749.724 Q373.78 752.333 369.514 752.333 ZM369.53 739.333 Q367.967 739.333 366.733 739.755 Q366.264 739.911 364.373 740.818 Q364.264 741.552 364.264 742.271 Q364.264 744.755 365.342 746.333 Q366.717 748.333 369.623 748.333 Q372.358 748.333 373.858 746.833 Q375.248 745.443 375.248 743.146 Q375.248 741.24 373.819 740.286 Q372.389 739.333 369.53 739.333 Z"/>
  <path fill="#000000ff" d="M388.592 748.349 Q388.592 749.208 388.069 749.771 Q387.545 750.333 386.733 750.333 Q385.92 750.333 385.42 749.771 Q384.889 749.208 384.889 748.349 Q384.889 747.974 384.772 747.271 Q384.655 746.568 384.655 746.224 Q384.655 745.411 385.225 744.872 Q385.795 744.333 386.576 744.333 Q388.592 744.333 388.592 748.349 ZM388.28 736.474 Q388.28 737.286 387.764 737.81 Q387.248 738.333 386.436 738.333 Q385.623 738.333 385.1 737.81 Q384.576 737.286 384.576 736.474 Q384.576 736.255 384.498 735.81 Q384.42 735.365 384.42 735.13 Q384.42 734.349 384.959 733.841 Q385.498 733.333 386.295 733.333 Q388.28 733.333 388.28 736.474 Z"/>
  <path fill="#000000ff" d="M404.78 752.333 L401.186 752.333 L397.608 752.318 Q396.342 752.318 395.842 752.115 Q394.92 751.724 394.92 750.458 Q394.92 748.286 397.748 748.286 L398.623 748.302 L399.358 748.333 Q399.358 747.521 399.201 745.919 Q399.045 744.318 399.045 743.505 Q399.045 741.349 399.467 736.927 Q399.873 732.583 399.842 730.333 Q397.42 732.333 396.748 732.333 Q396.03 732.333 395.498 731.771 Q394.967 731.208 394.967 730.458 Q394.967 729.583 396.514 728.318 Q397.498 727.599 399.28 726.005 Q400.873 724.333 402.326 724.333 Q403.53 724.333 403.53 725.677 Q403.53 726.083 403.42 726.88 Q403.311 727.677 403.311 728.083 Q403.311 728.661 403.373 729.833 Q403.436 731.005 403.436 731.583 Q403.436 733.583 403.006 737.544 Q402.576 741.505 402.576 743.474 Q402.576 744.49 402.725 745.951 Q402.873 747.411 402.889 748.333 L404.78 748.302 Q405.545 748.302 406.037 748.872 Q406.53 749.443 406.53 750.318 Q406.53 751.193 406.03 751.763 Q405.53 752.333 404.78 752.333 Z"/>
  <path fill="#000000ff" d="M418.733 752.333 Q413.608 752.333 411.186 748.271 Q410.858 747.708 410.858 747.193 Q410.858 746.443 411.42 745.888 Q411.983 745.333 412.686 745.333 Q413.42 745.333 414.092 746.115 Q415.045 747.24 415.53 747.552 Q416.717 748.333 418.733 748.333 Q421.858 748.333 423.92 746.146 Q425.889 744.068 425.889 741.146 Q425.889 738.74 425.014 737.24 Q423.905 735.333 421.576 735.333 Q419.639 735.333 418.405 735.865 Q417.436 736.286 416.436 737.318 L414.467 739.505 Q413.67 740.333 412.842 740.333 Q412.123 740.333 411.615 739.818 Q411.108 739.302 411.108 738.583 Q411.108 738.224 411.405 735.38 Q412.014 729.708 412.014 727.927 Q412.014 727.302 411.694 726.552 Q411.373 725.802 411.373 725.443 Q411.373 724.349 413.264 724.349 Q413.639 724.349 414.365 724.411 Q415.092 724.474 415.451 724.474 Q416.498 724.474 418.6 724.404 Q420.701 724.333 421.748 724.333 Q422.233 724.333 423.225 724.365 Q424.217 724.396 424.701 724.396 Q425.045 724.396 425.701 724.271 Q426.358 724.146 426.686 724.146 Q427.389 724.146 427.928 724.607 Q428.467 725.068 428.467 725.661 Q428.467 727.396 424.186 727.396 Q423.623 727.396 422.772 727.365 Q421.92 727.333 421.748 727.333 L418.686 727.38 L415.639 727.474 Q415.639 728.24 414.967 733.302 Q417.436 731.333 421.561 731.333 Q425.545 731.333 427.639 734.411 Q429.405 737.036 429.405 741.083 Q429.405 745.927 426.545 749.068 Q423.592 752.333 418.733 752.333 Z"/>
  <path fill="#000000ff" d="M438.436 748.349 Q438.436 749.208 437.912 749.771 Q437.389 750.333 436.576 750.333 Q435.764 750.333 435.264 749.771 Q434.733 749.208 434.733 748.349 Q434.733 747.974 434.615 747.271 Q434.498 746.568 434.498 746.224 Q434.498 745.411 435.069 744.872 Q435.639 744.333 436.42 744.333 Q438.436 744.333 438.436 748.349 ZM438.123 736.474 Q438.123 737.286 437.608 737.81 Q437.092 738.333 436.28 738.333 Q435.467 738.333 434.944 737.81 Q434.42 737.286 434.42 736.474 Q434.42 736.255 434.342 735.81 Q434.264 735.365 434.264 735.13 Q434.264 734.349 434.803 733.841 Q435.342 733.333 436.139 733.333 Q438.123 733.333 438.123 736.474 Z"/>
  <path fill="#000000ff" d="M452.951 752.333 Q447.451 752.333 444.92 747.443 Q443.014 743.693 443.014 737.661 Q443.014 732.568 445.498 728.771 Q448.451 724.333 453.498 724.333 Q458.248 724.333 460.905 728.271 Q463.201 731.677 463.201 736.583 Q463.201 744.443 460.639 748.388 Q458.076 752.333 452.951 752.333 ZM453.483 728.333 Q450.123 728.333 448.155 731.458 Q446.514 734.068 446.514 737.427 Q446.514 742.88 448.123 745.607 Q449.733 748.333 452.951 748.333 Q456.78 748.333 458.436 744.333 Q459.592 741.552 459.592 737.286 Q459.592 732.802 458.069 730.568 Q456.545 728.333 453.483 728.333 Z"/>
  <path fill="#000000ff" d="M475.326 752.333 Q469.826 752.333 467.295 747.443 Q465.389 743.693 465.389 737.661 Q465.389 732.568 467.873 728.771 Q470.826 724.333 475.873 724.333 Q480.623 724.333 483.28 728.271 Q485.576 731.677 485.576 736.583 Q485.576 744.443 483.014 748.388 Q480.451 752.333 475.326 752.333 ZM475.858 728.333 Q472.498 728.333 470.53 731.458 Q468.889 734.068 468.889 737.427 Q468.889 742.88 470.498 745.607 Q472.108 748.333 475.326 748.333 Q479.155 748.333 480.811 744.333 Q481.967 741.552 481.967 737.286 Q481.967 732.802 480.444 730.568 Q478.92 728.333 475.858 728.333 Z"/>
  <path fill="#000000ff" d="M577.77 752.333 Q572.27 752.333 569.739 747.443 Q567.832 743.693 567.832 737.661 Q567.832 732.568 570.317 728.771 Q573.27 724.333 578.317 724.333 Q583.067 724.333 585.723 728.271 Q588.02 731.677 588.02 736.583 Q588.02 744.443 585.457 748.388 Q582.895 752.333 577.77 752.333 ZM578.301 728.333 Q574.942 728.333 572.973 731.458 Q571.332 734.068 571.332 737.427 Q571.332 742.88 572.942 745.607 Q574.551 748.333 577.77 748.333 Q581.598 748.333 583.254 744.333 Q584.411 741.552 584.411 737.286 Q584.411 732.802 582.887 730.568 Q581.364 728.333 578.301 728.333 Z"/>
  <path fill="#000000ff" d="M609.942 728.052 L608.301 730.177 Q605.957 732.333 603.989 736.974 L600.692 744.333 Q600.348 745.036 599.176 748.036 Q598.239 750.411 597.426 751.583 Q596.926 752.333 595.989 752.333 Q595.254 752.333 594.707 751.935 Q594.161 751.536 594.161 750.974 Q594.161 750.427 595.317 748.193 L599.379 738.021 Q602.067 731.99 604.911 728.724 L605.254 728.333 L596.176 728.13 L592.114 728.005 Q590.364 727.818 590.364 726.005 Q590.364 725.13 590.872 724.583 Q591.379 724.036 592.129 724.036 Q594.411 724.036 598.973 724.185 Q603.536 724.333 605.817 724.333 L609.114 724.333 Q611.036 724.333 611.036 725.599 Q611.036 726.536 609.942 728.052 Z"/>
  <path fill="#000000ff" d="M618.957 748.349 Q618.957 749.208 618.434 749.771 Q617.911 750.333 617.098 750.333 Q616.286 750.333 615.786 749.771 Q615.254 749.208 615.254 748.349 Q615.254 747.974 615.137 747.271 Q615.02 746.568 615.02 746.224 Q615.02 745.411 615.59 744.872 Q616.161 744.333 616.942 744.333 Q618.957 744.333 618.957 748.349 ZM618.645 736.474 Q618.645 737.286 618.129 737.81 Q617.614 738.333 616.801 738.333 Q615.989 738.333 615.465 737.81 Q614.942 737.286 614.942 736.474 Q614.942 736.255 614.864 735.81 Q614.786 735.365 614.786 735.13 Q614.786 734.349 615.325 733.841 Q615.864 733.333 616.661 733.333 Q618.645 733.333 618.645 736.474 Z"/>
  <path fill="#000000ff" d="M635.145 752.333 L631.551 752.333 L627.973 752.318 Q626.707 752.318 626.207 752.115 Q625.286 751.724 625.286 750.458 Q625.286 748.286 628.114 748.286 L628.989 748.302 L629.723 748.333 Q629.723 747.521 629.567 745.919 Q629.411 744.318 629.411 743.505 Q629.411 741.349 629.832 736.927 Q630.239 732.583 630.207 730.333 Q627.786 732.333 627.114 732.333 Q626.395 732.333 625.864 731.771 Q625.332 731.208 625.332 730.458 Q625.332 729.583 626.879 728.318 Q627.864 727.599 629.645 726.005 Q631.239 724.333 632.692 724.333 Q633.895 724.333 633.895 725.677 Q633.895 726.083 633.786 726.88 Q633.676 727.677 633.676 728.083 Q633.676 728.661 633.739 729.833 Q633.801 731.005 633.801 731.583 Q633.801 733.583 633.372 737.544 Q632.942 741.505 632.942 743.474 Q632.942 744.49 633.09 745.951 Q633.239 747.411 633.254 748.333 L635.145 748.302 Q635.911 748.302 636.403 748.872 Q636.895 749.443 636.895 750.318 Q636.895 751.193 636.395 751.763 Q635.895 752.333 635.145 752.333 Z"/>
  <path fill="#000000ff" d="M649.098 752.333 Q643.973 752.333 641.551 748.271 Q641.223 747.708 641.223 747.193 Q641.223 746.443 641.786 745.888 Q642.348 745.333 643.051 745.333 Q643.786 745.333 644.457 746.115 Q645.411 747.24 645.895 747.552 Q647.082 748.333 649.098 748.333 Q652.223 748.333 654.286 746.146 Q656.254 744.068 656.254 741.146 Q656.254 738.74 655.379 737.24 Q654.27 735.333 651.942 735.333 Q650.004 735.333 648.77 735.865 Q647.801 736.286 646.801 737.318 L644.832 739.505 Q644.036 740.333 643.207 740.333 Q642.489 740.333 641.981 739.818 Q641.473 739.302 641.473 738.583 Q641.473 738.224 641.77 735.38 Q642.379 729.708 642.379 727.927 Q642.379 727.302 642.059 726.552 Q641.739 725.802 641.739 725.443 Q641.739 724.349 643.629 724.349 Q644.004 724.349 644.731 724.411 Q645.457 724.474 645.817 724.474 Q646.864 724.474 648.965 724.404 Q651.067 724.333 652.114 724.333 Q652.598 724.333 653.59 724.365 Q654.582 724.396 655.067 724.396 Q655.411 724.396 656.067 724.271 Q656.723 724.146 657.051 724.146 Q657.754 724.146 658.293 724.607 Q658.832 725.068 658.832 725.661 Q658.832 727.396 654.551 727.396 Q653.989 727.396 653.137 727.365 Q652.286 727.333 652.114 727.333 L649.051 727.38 L646.004 727.474 Q646.004 728.24 645.332 733.302 Q647.801 731.333 651.926 731.333 Q655.911 731.333 658.004 734.411 Q659.77 737.036 659.77 741.083 Q659.77 745.927 656.911 749.068 Q653.957 752.333 649.098 752.333 Z"/>
  <path fill="#000000ff" d="M668.801 748.349 Q668.801 749.208 668.278 749.771 Q667.754 750.333 666.942 750.333 Q666.129 750.333 665.629 749.771 Q665.098 749.208 665.098 748.349 Q665.098 747.974 664.981 747.271 Q664.864 746.568 664.864 746.224 Q664.864 745.411 665.434 744.872 Q666.004 744.333 666.786 744.333 Q668.801 744.333 668.801 748.349 ZM668.489 736.474 Q668.489 737.286 667.973 737.81 Q667.457 738.333 666.645 738.333 Q665.832 738.333 665.309 737.81 Q664.786 737.286 664.786 736.474 Q664.786 736.255 664.707 735.81 Q664.629 735.365 664.629 735.13 Q664.629 734.349 665.168 733.841 Q665.707 733.333 666.504 733.333 Q668.489 733.333 668.489 736.474 Z"/>
  <path fill="#000000ff" d="M683.317 752.333 Q677.817 752.333 675.286 747.443 Q673.379 743.693 673.379 737.661 Q673.379 732.568 675.864 728.771 Q678.817 724.333 683.864 724.333 Q688.614 724.333 691.27 728.271 Q693.567 731.677 693.567 736.583 Q693.567 744.443 691.004 748.388 Q688.442 752.333 683.317 752.333 ZM683.848 728.333 Q680.489 728.333 678.52 731.458 Q676.879 734.068 676.879 737.427 Q676.879 742.88 678.489 745.607 Q680.098 748.333 683.317 748.333 Q687.145 748.333 688.801 744.333 Q689.957 741.552 689.957 737.286 Q689.957 732.802 688.434 730.568 Q686.911 728.333 683.848 728.333 Z"/>
  <path fill="#000000ff" d="M705.692 752.333 Q700.192 752.333 697.661 747.443 Q695.754 743.693 695.754 737.661 Q695.754 732.568 698.239 728.771 Q701.192 724.333 706.239 724.333 Q710.989 724.333 713.645 728.271 Q715.942 731.677 715.942 736.583 Q715.942 744.443 713.379 748.388 Q710.817 752.333 705.692 752.333 ZM706.223 728.333 Q702.864 728.333 700.895 731.458 Q699.254 734.068 699.254 737.427 Q699.254 742.88 700.864 745.607 Q702.473 748.333 705.692 748.333 Q709.52 748.333 711.176 744.333 Q712.332 741.552 712.332 737.286 Q712.332 732.802 710.809 730.568 Q709.286 728.333 706.223 728.333 Z"/>
  <path fill="#000000ff" d="M808.135 752.333 Q802.635 752.333 800.104 747.443 Q798.198 743.693 798.198 737.661 Q798.198 732.568 800.682 728.771 Q803.635 724.333 808.682 724.333 Q813.432 724.333 816.089 728.271 Q818.385 731.677 818.385 736.583 Q818.385 744.443 815.823 748.388 Q813.26 752.333 808.135 752.333 ZM808.667 728.333 Q805.307 728.333 803.339 731.458 Q801.698 734.068 801.698 737.427 Q801.698 742.88 803.307 745.607 Q804.917 748.333 808.135 748.333 Q811.964 748.333 813.62 744.333 Q814.776 741.552 814.776 737.286 Q814.776 732.802 813.253 730.568 Q811.729 728.333 808.667 728.333 Z"/>
  <path fill="#000000ff" d="M830.557 752.333 Q826.745 752.333 824.401 750.63 Q821.714 748.693 821.667 744.958 Q821.589 738.943 825.776 736.771 Q822.557 734.958 822.557 731.63 Q822.557 728.474 825.026 726.38 Q827.401 724.365 830.776 724.333 Q838.354 724.255 838.354 731.177 Q838.354 733.146 837.495 734.224 Q836.776 735.115 834.76 736.052 Q837.448 737.458 838.542 739.083 Q839.807 741.005 839.807 744.349 Q839.807 748.177 837.073 750.349 Q834.542 752.333 830.557 752.333 ZM830.714 728.333 Q828.385 728.333 827.151 729.286 Q826.057 730.193 826.073 731.708 Q826.089 733.552 830.229 734.333 Q832.401 733.88 833.339 733.411 Q834.839 732.677 834.839 731.443 Q834.839 729.646 833.729 728.927 Q832.792 728.333 830.714 728.333 ZM830.385 738.333 Q827.51 739.583 826.557 740.49 Q825.057 741.896 825.151 744.443 Q825.229 746.552 827.229 747.599 Q828.698 748.333 830.557 748.333 Q833.729 748.333 834.995 746.927 Q836.01 745.818 836.01 743.568 Q836.01 741.349 834.167 740.005 Q832.932 739.068 830.385 738.333 Z"/>
  <path fill="#000000ff" d="M849.323 748.349 Q849.323 749.208 848.799 749.771 Q848.276 750.333 847.464 750.333 Q846.651 750.333 846.151 749.771 Q845.62 749.208 845.62 748.349 Q845.62 747.974 845.503 747.271 Q845.385 746.568 845.385 746.224 Q845.385 745.411 845.956 744.872 Q846.526 744.333 847.307 744.333 Q849.323 744.333 849.323 748.349 ZM849.01 736.474 Q849.01 737.286 848.495 737.81 Q847.979 738.333 847.167 738.333 Q846.354 738.333 845.831 737.81 Q845.307 737.286 845.307 736.474 Q845.307 736.255 845.229 735.81 Q845.151 735.365 845.151 735.13 Q845.151 734.349 845.69 733.841 Q846.229 733.333 847.026 733.333 Q849.01 733.333 849.01 736.474 Z"/>
  <path fill="#000000ff" d="M865.51 752.333 L861.917 752.333 L858.339 752.318 Q857.073 752.318 856.573 752.115 Q855.651 751.724 855.651 750.458 Q855.651 748.286 858.479 748.286 L859.354 748.302 L860.089 748.333 Q860.089 747.521 859.932 745.919 Q859.776 744.318 859.776 743.505 Q859.776 741.349 860.198 736.927 Q860.604 732.583 860.573 730.333 Q858.151 732.333 857.479 732.333 Q856.76 732.333 856.229 731.771 Q855.698 731.208 855.698 730.458 Q855.698 729.583 857.245 728.318 Q858.229 727.599 860.01 726.005 Q861.604 724.333 863.057 724.333 Q864.26 724.333 864.26 725.677 Q864.26 726.083 864.151 726.88 Q864.042 727.677 864.042 728.083 Q864.042 728.661 864.104 729.833 Q864.167 731.005 864.167 731.583 Q864.167 733.583 863.737 737.544 Q863.307 741.505 863.307 743.474 Q863.307 744.49 863.456 745.951 Q863.604 747.411 863.62 748.333 L865.51 748.302 Q866.276 748.302 866.768 748.872 Q867.26 749.443 867.26 750.318 Q867.26 751.193 866.76 751.763 Q866.26 752.333 865.51 752.333 Z"/>
  <path fill="#000000ff" d="M879.464 752.333 Q874.339 752.333 871.917 748.271 Q871.589 747.708 871.589 747.193 Q871.589 746.443 872.151 745.888 Q872.714 745.333 873.417 745.333 Q874.151 745.333 874.823 746.115 Q875.776 747.24 876.26 747.552 Q877.448 748.333 879.464 748.333 Q882.589 748.333 884.651 746.146 Q886.62 744.068 886.62 741.146 Q886.62 738.74 885.745 737.24 Q884.635 735.333 882.307 735.333 Q880.37 735.333 879.135 735.865 Q878.167 736.286 877.167 737.318 L875.198 739.505 Q874.401 740.333 873.573 740.333 Q872.854 740.333 872.346 739.818 Q871.839 739.302 871.839 738.583 Q871.839 738.224 872.135 735.38 Q872.745 729.708 872.745 727.927 Q872.745 727.302 872.424 726.552 Q872.104 725.802 872.104 725.443 Q872.104 724.349 873.995 724.349 Q874.37 724.349 875.096 724.411 Q875.823 724.474 876.182 724.474 Q877.229 724.474 879.331 724.404 Q881.432 724.333 882.479 724.333 Q882.964 724.333 883.956 724.365 Q884.948 724.396 885.432 724.396 Q885.776 724.396 886.432 724.271 Q887.089 724.146 887.417 724.146 Q888.12 724.146 888.659 724.607 Q889.198 725.068 889.198 725.661 Q889.198 727.396 884.917 727.396 Q884.354 727.396 883.503 727.365 Q882.651 727.333 882.479 727.333 L879.417 727.38 L876.37 727.474 Q876.37 728.24 875.698 733.302 Q878.167 731.333 882.292 731.333 Q886.276 731.333 888.37 734.411 Q890.135 737.036 890.135 741.083 Q890.135 745.927 887.276 749.068 Q884.323 752.333 879.464 752.333 Z"/>
  <path fill="#000000ff" d="M899.167 748.349 Q899.167 749.208 898.643 749.771 Q898.12 750.333 897.307 750.333 Q896.495 750.333 895.995 749.771 Q895.464 749.208 895.464 748.349 Q895.464 747.974 895.346 747.271 Q895.229 746.568 895.229 746.224 Q895.229 745.411 895.799 744.872 Q896.37 744.333 897.151 744.333 Q899.167 744.333 899.167 748.349 ZM898.854 736.474 Q898.854 737.286 898.339 737.81 Q897.823 738.333 897.01 738.333 Q896.198 738.333 895.674 737.81 Q895.151 737.286 895.151 736.474 Q895.151 736.255 895.073 735.81 Q894.995 735.365 894.995 735.13 Q894.995 734.349 895.534 733.841 Q896.073 733.333 896.87 733.333 Q898.854 733.333 898.854 736.474 Z"/>
  <path fill="#000000ff" d="M913.682 752.333 Q908.182 752.333 905.651 747.443 Q903.745 743.693 903.745 737.661 Q903.745 732.568 906.229 728.771 Q909.182 724.333 914.229 724.333 Q918.979 724.333 921.635 728.271 Q923.932 731.677 923.932 736.583 Q923.932 744.443 921.37 748.388 Q918.807 752.333 913.682 752.333 ZM914.214 728.333 Q910.854 728.333 908.885 731.458 Q907.245 734.068 907.245 737.427 Q907.245 742.88 908.854 745.607 Q910.464 748.333 913.682 748.333 Q917.51 748.333 919.167 744.333 Q920.323 741.552 920.323 737.286 Q920.323 732.802 918.799 730.568 Q917.276 728.333 914.214 728.333 Z"/>
  <path fill="#000000ff" d="M936.057 752.333 Q930.557 752.333 928.026 747.443 Q926.12 743.693 926.12 737.661 Q926.12 732.568 928.604 728.771 Q931.557 724.333 936.604 724.333 Q941.354 724.333 944.01 728.271 Q946.307 731.677 946.307 736.583 Q946.307 744.443 943.745 748.388 Q941.182 752.333 936.057 752.333 ZM936.589 728.333 Q933.229 728.333 931.26 731.458 Q929.62 734.068 929.62 737.427 Q929.62 742.88 931.229 745.607 Q932.839 748.333 936.057 748.333 Q939.885 748.333 941.542 744.333 Q942.698 741.552 942.698 737.286 Q942.698 732.802 941.174 730.568 Q939.651 728.333 936.589 728.333 Z"/>
  <path fill="#000000ff" d="M1038.5 752.333 Q1033 752.333 1030.47 747.443 Q1028.56 743.693 1028.56 737.661 Q1028.56 732.568 1031.05 728.771 Q1034 724.333 1039.05 724.333 Q1043.8 724.333 1046.45 728.271 Q1048.75 731.677 1048.75 736.583 Q1048.75 744.443 1046.19 748.388 Q1043.63 752.333 1038.5 752.333 ZM1039.03 728.333 Q1035.67 728.333 1033.7 731.458 Q1032.06 734.068 1032.06 737.427 Q1032.06 742.88 1033.67 745.607 Q1035.28 748.333 1038.5 748.333 Q1042.33 748.333 1043.99 744.333 Q1045.14 741.552 1045.14 737.286 Q1045.14 732.802 1043.62 730.568 Q1042.09 728.333 1039.03 728.333 Z"/>
  <path fill="#000000ff" d="M1063.99 750.365 Q1062.67 751.349 1059.77 752.755 Q1056.53 754.333 1055.27 754.333 Q1054.52 754.333 1054.04 753.747 Q1053.56 753.161 1053.56 752.38 Q1053.56 751.24 1054.8 750.646 L1057.81 749.536 Q1060.61 748.318 1062.24 746.716 Q1063.88 745.115 1065.2 742.177 L1065.99 740.505 Q1064.97 741.193 1063.38 741.763 Q1061.8 742.333 1060.8 742.333 Q1057.39 742.333 1054.89 740.458 Q1051.86 738.161 1051.86 733.943 Q1051.86 728.958 1054.97 726.458 Q1057.63 724.333 1061.94 724.333 Q1065.25 724.333 1067.89 727.099 Q1070.67 730.021 1070.69 734.161 Q1070.72 738.833 1068.99 743.224 Q1067.14 747.974 1063.99 750.365 ZM1061.44 728.333 Q1058.39 728.333 1056.87 729.677 Q1055.34 731.021 1055.33 733.724 Q1055.33 735.99 1057.19 737.24 Q1058.83 738.333 1061.33 738.333 Q1062.77 738.333 1064.34 737.599 Q1065.06 737.255 1066.94 736.068 Q1067.17 734.724 1067.17 733.943 Q1067.16 732.005 1065.27 730.169 Q1063.38 728.333 1061.44 728.333 Z"/>
  <path fill="#000000ff" d="M1079.69 748.349 Q1079.69 749.208 1079.16 749.771 Q1078.64 750.333 1077.83 750.333 Q1077.02 750.333 1076.52 749.771 Q1075.99 749.208 1075.99 748.349 Q1075.99 747.974 1075.87 747.271 Q1075.75 746.568 1075.75 746.224 Q1075.75 745.411 1076.32 744.872 Q1076.89 744.333 1077.67 744.333 Q1079.69 744.333 1079.69 748.349 ZM1079.38 736.474 Q1079.38 737.286 1078.86 737.81 Q1078.34 738.333 1077.53 738.333 Q1076.72 738.333 1076.2 737.81 Q1075.67 737.286 1075.67 736.474 Q1075.67 736.255 1075.59 735.81 Q1075.52 735.365 1075.52 735.13 Q1075.52 734.349 1076.06 733.841 Q1076.59 733.333 1077.39 733.333 Q1079.38 733.333 1079.38 736.474 Z"/>
  <path fill="#000000ff" d="M1095.88 752.333 L1092.28 752.333 L1088.7 752.318 Q1087.44 752.318 1086.94 752.115 Q1086.02 751.724 1086.02 750.458 Q1086.02 748.286 1088.84 748.286 L1089.72 748.302 L1090.45 748.333 Q1090.45 747.521 1090.3 745.919 Q1090.14 744.318 1090.14 743.505 Q1090.14 741.349 1090.56 736.927 Q1090.97 732.583 1090.94 730.333 Q1088.52 732.333 1087.84 732.333 Q1087.13 732.333 1086.59 731.771 Q1086.06 731.208 1086.06 730.458 Q1086.06 729.583 1087.61 728.318 Q1088.59 727.599 1090.38 726.005 Q1091.97 724.333 1093.42 724.333 Q1094.63 724.333 1094.63 725.677 Q1094.63 726.083 1094.52 726.88 Q1094.41 727.677 1094.41 728.083 Q1094.41 728.661 1094.47 729.833 Q1094.53 731.005 1094.53 731.583 Q1094.53 733.583 1094.1 737.544 Q1093.67 741.505 1093.67 743.474 Q1093.67 744.49 1093.82 745.951 Q1093.97 747.411 1093.99 748.333 L1095.88 748.302 Q1096.64 748.302 1097.13 748.872 Q1097.63 749.443 1097.63 750.318 Q1097.63 751.193 1097.13 751.763 Q1096.63 752.333 1095.88 752.333 Z"/>
  <path fill="#000000ff" d="M1109.83 752.333 Q1104.7 752.333 1102.28 748.271 Q1101.95 747.708 1101.95 747.193 Q1101.95 746.443 1102.52 745.888 Q1103.08 745.333 1103.78 745.333 Q1104.52 745.333 1105.19 746.115 Q1106.14 747.24 1106.63 747.552 Q1107.81 748.333 1109.83 748.333 Q1112.95 748.333 1115.02 746.146 Q1116.99 744.068 1116.99 741.146 Q1116.99 738.74 1116.11 737.24 Q1115 735.333 1112.67 735.333 Q1110.74 735.333 1109.5 735.865 Q1108.53 736.286 1107.53 737.318 L1105.56 739.505 Q1104.77 740.333 1103.94 740.333 Q1103.22 740.333 1102.71 739.818 Q1102.2 739.302 1102.2 738.583 Q1102.2 738.224 1102.5 735.38 Q1103.11 729.708 1103.11 727.927 Q1103.11 727.302 1102.79 726.552 Q1102.47 725.802 1102.47 725.443 Q1102.47 724.349 1104.36 724.349 Q1104.74 724.349 1105.46 724.411 Q1106.19 724.474 1106.55 724.474 Q1107.59 724.474 1109.7 724.404 Q1111.8 724.333 1112.84 724.333 Q1113.33 724.333 1114.32 724.365 Q1115.31 724.396 1115.8 724.396 Q1116.14 724.396 1116.8 724.271 Q1117.45 724.146 1117.78 724.146 Q1118.49 724.146 1119.02 724.607 Q1119.56 725.068 1119.56 725.661 Q1119.56 727.396 1115.28 727.396 Q1114.72 727.396 1113.87 727.365 Q1113.02 727.333 1112.84 727.333 L1109.78 727.38 L1106.74 727.474 Q1106.74 728.24 1106.06 733.302 Q1108.53 731.333 1112.66 731.333 Q1116.64 731.333 1118.74 734.411 Q1120.5 737.036 1120.5 741.083 Q1120.5 745.927 1117.64 749.068 Q1114.69 752.333 1109.83 752.333 Z"/>
  <path fill="#000000ff" d="M1129.53 748.349 Q1129.53 749.208 1129.01 749.771 Q1128.49 750.333 1127.67 750.333 Q1126.86 750.333 1126.36 749.771 Q1125.83 749.208 1125.83 748.349 Q1125.83 747.974 1125.71 747.271 Q1125.59 746.568 1125.59 746.224 Q1125.59 745.411 1126.16 744.872 Q1126.74 744.333 1127.52 744.333 Q1129.53 744.333 1129.53 748.349 ZM1129.22 736.474 Q1129.22 737.286 1128.7 737.81 Q1128.19 738.333 1127.38 738.333 Q1126.56 738.333 1126.04 737.81 Q1125.52 737.286 1125.52 736.474 Q1125.52 736.255 1125.44 735.81 Q1125.36 735.365 1125.36 735.13 Q1125.36 734.349 1125.9 733.841 Q1126.44 733.333 1127.24 733.333 Q1129.22 733.333 1129.22 736.474 Z"/>
  <path fill="#000000ff" d="M1144.05 752.333 Q1138.55 752.333 1136.02 747.443 Q1134.11 743.693 1134.11 737.661 Q1134.11 732.568 1136.59 728.771 Q1139.55 724.333 1144.59 724.333 Q1149.34 724.333 1152 728.271 Q1154.3 731.677 1154.3 736.583 Q1154.3 744.443 1151.74 748.388 Q1149.17 752.333 1144.05 752.333 ZM1144.58 728.333 Q1141.22 728.333 1139.25 731.458 Q1137.61 734.068 1137.61 737.427 Q1137.61 742.88 1139.22 745.607 Q1140.83 748.333 1144.05 748.333 Q1147.88 748.333 1149.53 744.333 Q1150.69 741.552 1150.69 737.286 Q1150.69 732.802 1149.16 730.568 Q1147.64 728.333 1144.58 728.333 Z"/>
  <path fill="#000000ff" d="M1166.42 752.333 Q1160.92 752.333 1158.39 747.443 Q1156.49 743.693 1156.49 737.661 Q1156.49 732.568 1158.97 728.771 Q1161.92 724.333 1166.97 724.333 Q1171.72 724.333 1174.38 728.271 Q1176.67 731.677 1176.67 736.583 Q1176.67 744.443 1174.11 748.388 Q1171.55 752.333 1166.42 752.333 ZM1166.95 728.333 Q1163.59 728.333 1161.63 731.458 Q1159.99 734.068 1159.99 737.427 Q1159.99 742.88 1161.59 745.607 Q1163.2 748.333 1166.42 748.333 Q1170.25 748.333 1171.91 744.333 Q1173.06 741.552 1173.06 737.286 Q1173.06 732.802 1171.54 730.568 Q1170.02 728.333 1166.95 728.333 Z"/>
  <path fill="#000000ff" d="M1273.47 752.333 L1269.87 752.333 L1266.3 752.318 Q1265.03 752.318 1264.53 752.115 Q1263.61 751.724 1263.61 750.458 Q1263.61 748.286 1266.44 748.286 L1267.31 748.302 L1268.05 748.333 Q1268.05 747.521 1267.89 745.919 Q1267.73 744.318 1267.73 743.505 Q1267.73 741.349 1268.16 736.927 Q1268.56 732.583 1268.53 730.333 Q1266.11 732.333 1265.44 732.333 Q1264.72 732.333 1264.19 731.771 Q1263.66 731.208 1263.66 730.458 Q1263.66 729.583 1265.2 728.318 Q1266.19 727.599 1267.97 726.005 Q1269.56 724.333 1271.01 724.333 Q1272.22 724.333 1272.22 725.677 Q1272.22 726.083 1272.11 726.88 Q1272 727.677 1272 728.083 Q1272 728.661 1272.06 729.833 Q1272.12 731.005 1272.12 731.583 Q1272.12 733.583 1271.69 737.544 Q1271.26 741.505 1271.26 743.474 Q1271.26 744.49 1271.41 745.951 Q1271.56 747.411 1271.58 748.333 L1273.47 748.302 Q1274.23 748.302 1274.73 748.872 Q1275.22 749.443 1275.22 750.318 Q1275.22 751.193 1274.72 751.763 Q1274.22 752.333 1273.47 752.333 Z"/>
  <path fill="#000000ff" d="M1288.31 752.333 Q1282.81 752.333 1280.28 747.443 Q1278.37 743.693 1278.37 737.661 Q1278.37 732.568 1280.86 728.771 Q1283.81 724.333 1288.86 724.333 Q1293.61 724.333 1296.26 728.271 Q1298.56 731.677 1298.56 736.583 Q1298.56 744.443 1296 748.388 Q1293.44 752.333 1288.31 752.333 ZM1288.84 728.333 Q1285.48 728.333 1283.51 731.458 Q1281.87 734.068 1281.87 737.427 Q1281.87 742.88 1283.48 745.607 Q1285.09 748.333 1288.31 748.333 Q1292.14 748.333 1293.8 744.333 Q1294.95 741.552 1294.95 737.286 Q1294.95 732.802 1293.43 730.568 Q1291.91 728.333 1288.84 728.333 Z"/>
  <path fill="#000000ff" d="M1307.12 748.349 Q1307.12 749.208 1306.6 749.771 Q1306.08 750.333 1305.26 750.333 Q1304.45 750.333 1303.95 749.771 Q1303.42 749.208 1303.42 748.349 Q1303.42 747.974 1303.3 747.271 Q1303.19 746.568 1303.19 746.224 Q1303.19 745.411 1303.76 744.872 Q1304.33 744.333 1305.11 744.333 Q1307.12 744.333 1307.12 748.349 ZM1306.81 736.474 Q1306.81 737.286 1306.3 737.81 Q1305.78 738.333 1304.97 738.333 Q1304.16 738.333 1303.63 737.81 Q1303.11 737.286 1303.11 736.474 Q1303.11 736.255 1303.03 735.81 Q1302.95 735.365 1302.95 735.13 Q1302.95 734.349 1303.49 733.841 Q1304.03 733.333 1304.83 733.333 Q1306.81 733.333 1306.81 736.474 Z"/>
  <path fill="#000000ff" d="M1323.31 752.333 L1319.72 752.333 L1316.14 752.318 Q1314.87 752.318 1314.37 752.115 Q1313.45 751.724 1313.45 750.458 Q1313.45 748.286 1316.28 748.286 L1317.16 748.302 L1317.89 748.333 Q1317.89 747.521 1317.73 745.919 Q1317.58 744.318 1317.58 743.505 Q1317.58 741.349 1318 736.927 Q1318.41 732.583 1318.37 730.333 Q1315.95 732.333 1315.28 732.333 Q1314.56 732.333 1314.03 731.771 Q1313.5 731.208 1313.5 730.458 Q1313.5 729.583 1315.05 728.318 Q1316.03 727.599 1317.81 726.005 Q1319.41 724.333 1320.86 724.333 Q1322.06 724.333 1322.06 725.677 Q1322.06 726.083 1321.95 726.88 Q1321.84 727.677 1321.84 728.083 Q1321.84 728.661 1321.91 729.833 Q1321.97 731.005 1321.97 731.583 Q1321.97 733.583 1321.54 737.544 Q1321.11 741.505 1321.11 743.474 Q1321.11 744.49 1321.26 745.951 Q1321.41 747.411 1321.42 748.333 L1323.31 748.302 Q1324.08 748.302 1324.57 748.872 Q1325.06 749.443 1325.06 750.318 Q1325.06 751.193 1324.56 751.763 Q1324.06 752.333 1323.31 752.333 Z"/>
  <path fill="#000000ff" d="M1337.26 752.333 Q1332.14 752.333 1329.72 748.271 Q1329.39 747.708 1329.39 747.193 Q1329.39 746.443 1329.95 745.888 Q1330.51 745.333 1331.22 745.333 Q1331.95 745.333 1332.62 746.115 Q1333.58 747.24 1334.06 747.552 Q1335.25 748.333 1337.26 748.333 Q1340.39 748.333 1342.45 746.146 Q1344.42 744.068 1344.42 741.146 Q1344.42 738.74 1343.55 737.24 Q1342.44 735.333 1340.11 735.333 Q1338.17 735.333 1336.94 735.865 Q1335.97 736.286 1334.97 737.318 L1333 739.505 Q1332.2 740.333 1331.37 740.333 Q1330.66 740.333 1330.15 739.818 Q1329.64 739.302 1329.64 738.583 Q1329.64 738.224 1329.94 735.38 Q1330.55 729.708 1330.55 727.927 Q1330.55 727.302 1330.23 726.552 Q1329.91 725.802 1329.91 725.443 Q1329.91 724.349 1331.8 724.349 Q1332.17 724.349 1332.9 724.411 Q1333.62 724.474 1333.98 724.474 Q1335.03 724.474 1337.13 724.404 Q1339.23 724.333 1340.28 724.333 Q1340.76 724.333 1341.76 724.365 Q1342.75 724.396 1343.23 724.396 Q1343.58 724.396 1344.23 724.271 Q1344.89 724.146 1345.22 724.146 Q1345.92 724.146 1346.46 724.607 Q1347 725.068 1347 725.661 Q1347 727.396 1342.72 727.396 Q1342.16 727.396 1341.3 727.365 Q1340.45 727.333 1340.28 727.333 L1337.22 727.38 L1334.17 727.474 Q1334.17 728.24 1333.5 733.302 Q1335.97 731.333 1340.09 731.333 Q1344.08 731.333 1346.17 734.411 Q1347.94 737.036 1347.94 741.083 Q1347.94 745.927 1345.08 749.068 Q1342.12 752.333 1337.26 752.333 Z"/>
  <path fill="#000000ff" d="M1356.97 748.349 Q1356.97 749.208 1356.44 749.771 Q1355.92 750.333 1355.11 750.333 Q1354.3 750.333 1353.8 749.771 Q1353.26 749.208 1353.26 748.349 Q1353.26 747.974 1353.15 747.271 Q1353.03 746.568 1353.03 746.224 Q1353.03 745.411 1353.6 744.872 Q1354.17 744.333 1354.95 744.333 Q1356.97 744.333 1356.97 748.349 ZM1356.66 736.474 Q1356.66 737.286 1356.14 737.81 Q1355.62 738.333 1354.81 738.333 Q1354 738.333 1353.48 737.81 Q1352.95 737.286 1352.95 736.474 Q1352.95 736.255 1352.87 735.81 Q1352.8 735.365 1352.8 735.13 Q1352.8 734.349 1353.34 733.841 Q1353.87 733.333 1354.67 733.333 Q1356.66 733.333 1356.66 736.474 Z"/>
  <path fill="#000000ff" d="M1371.48 752.333 Q1365.98 752.333 1363.45 747.443 Q1361.55 743.693 1361.55 737.661 Q1361.55 732.568 1364.03 728.771 Q1366.98 724.333 1372.03 724.333 Q1376.78 724.333 1379.44 728.271 Q1381.73 731.677 1381.73 736.583 Q1381.73 744.443 1379.17 748.388 Q1376.61 752.333 1371.48 752.333 ZM1372.01 728.333 Q1368.66 728.333 1366.69 731.458 Q1365.05 734.068 1365.05 737.427 Q1365.05 742.88 1366.66 745.607 Q1368.26 748.333 1371.48 748.333 Q1375.31 748.333 1376.97 744.333 Q1378.12 741.552 1378.12 737.286 Q1378.12 732.802 1376.6 730.568 Q1375.08 728.333 1372.01 728.333 Z"/>
  <path fill="#000000ff" d="M1393.86 752.333 Q1388.36 752.333 1385.83 747.443 Q1383.92 743.693 1383.92 737.661 Q1383.92 732.568 1386.41 728.771 Q1389.36 724.333 1394.41 724.333 Q1399.16 724.333 1401.81 728.271 Q1404.11 731.677 1404.11 736.583 Q1404.11 744.443 1401.55 748.388 Q1398.98 752.333 1393.86 752.333 ZM1394.39 728.333 Q1391.03 728.333 1389.06 731.458 Q1387.42 734.068 1387.42 737.427 Q1387.42 742.88 1389.03 745.607 Q1390.64 748.333 1393.86 748.333 Q1397.69 748.333 1399.34 744.333 Q1400.5 741.552 1400.5 737.286 Q1400.5 732.802 1398.98 730.568 Q1397.45 728.333 1394.39 728.333 Z"/>
  <path fill="#000000ff" d="M1506.76 752.333 L1503.17 752.333 L1499.59 752.318 Q1498.33 752.318 1497.83 752.115 Q1496.9 751.724 1496.9 750.458 Q1496.9 748.286 1499.73 748.286 L1500.61 748.302 L1501.34 748.333 Q1501.34 747.521 1501.18 745.919 Q1501.03 744.318 1501.03 743.505 Q1501.03 741.349 1501.45 736.927 Q1501.86 732.583 1501.83 730.333 Q1499.4 732.333 1498.73 732.333 Q1498.01 732.333 1497.48 731.771 Q1496.95 731.208 1496.95 730.458 Q1496.95 729.583 1498.5 728.318 Q1499.48 727.599 1501.26 726.005 Q1502.86 724.333 1504.31 724.333 Q1505.51 724.333 1505.51 725.677 Q1505.51 726.083 1505.4 726.88 Q1505.29 727.677 1505.29 728.083 Q1505.29 728.661 1505.36 729.833 Q1505.42 731.005 1505.42 731.583 Q1505.42 733.583 1504.99 737.544 Q1504.56 741.505 1504.56 743.474 Q1504.56 744.49 1504.71 745.951 Q1504.86 747.411 1504.87 748.333 L1506.76 748.302 Q1507.53 748.302 1508.02 748.872 Q1508.51 749.443 1508.51 750.318 Q1508.51 751.193 1508.01 751.763 Q1507.51 752.333 1506.76 752.333 Z"/>
  <path fill="#000000ff" d="M1523.28 752.333 L1519.68 752.333 L1516.11 752.318 Q1514.84 752.318 1514.34 752.115 Q1513.42 751.724 1513.42 750.458 Q1513.42 748.286 1516.25 748.286 L1517.12 748.302 L1517.86 748.333 Q1517.86 747.521 1517.7 745.919 Q1517.54 744.318 1517.54 743.505 Q1517.54 741.349 1517.97 736.927 Q1518.37 732.583 1518.34 730.333 Q1515.92 732.333 1515.25 732.333 Q1514.53 732.333 1514 731.771 Q1513.47 731.208 1513.47 730.458 Q1513.47 729.583 1515.01 728.318 Q1516 727.599 1517.78 726.005 Q1519.37 724.333 1520.83 724.333 Q1522.03 724.333 1522.03 725.677 Q1522.03 726.083 1521.92 726.88 Q1521.81 727.677 1521.81 728.083 Q1521.81 728.661 1521.87 729.833 Q1521.93 731.005 1521.93 731.583 Q1521.93 733.583 1521.51 737.544 Q1521.08 741.505 1521.08 743.474 Q1521.08 744.49 1521.22 745.951 Q1521.37 747.411 1521.39 748.333 L1523.28 748.302 Q1524.04 748.302 1524.54 748.872 Q1525.03 749.443 1525.03 750.318 Q1525.03 751.193 1524.53 751.763 Q1524.03 752.333 1523.28 752.333 Z"/>
  <path fill="#000000ff" d="M1534.56 748.349 Q1534.56 749.208 1534.04 749.771 Q1533.51 750.333 1532.7 750.333 Q1531.89 750.333 1531.39 749.771 Q1530.86 749.208 1530.86 748.349 Q1530.86 747.974 1530.74 747.271 Q1530.62 746.568 1530.62 746.224 Q1530.62 745.411 1531.19 744.872 Q1531.76 744.333 1532.54 744.333 Q1534.56 744.333 1534.56 748.349 ZM1534.25 736.474 Q1534.25 737.286 1533.73 737.81 Q1533.22 738.333 1532.4 738.333 Q1531.59 738.333 1531.07 737.81 Q1530.54 737.286 1530.54 736.474 Q1530.54 736.255 1530.47 735.81 Q1530.39 735.365 1530.39 735.13 Q1530.39 734.349 1530.93 733.841 Q1531.47 733.333 1532.26 733.333 Q1534.25 733.333 1534.25 736.474 Z"/>
  <path fill="#000000ff" d="M1550.75 752.333 L1547.15 752.333 L1543.58 752.318 Q1542.31 752.318 1541.81 752.115 Q1540.89 751.724 1540.89 750.458 Q1540.89 748.286 1543.72 748.286 L1544.59 748.302 L1545.33 748.333 Q1545.33 747.521 1545.17 745.919 Q1545.01 744.318 1545.01 743.505 Q1545.01 741.349 1545.43 736.927 Q1545.84 732.583 1545.81 730.333 Q1543.39 732.333 1542.72 732.333 Q1542 732.333 1541.47 731.771 Q1540.93 731.208 1540.93 730.458 Q1540.93 729.583 1542.48 728.318 Q1543.47 727.599 1545.25 726.005 Q1546.84 724.333 1548.29 724.333 Q1549.5 724.333 1549.5 725.677 Q1549.5 726.083 1549.39 726.88 Q1549.28 727.677 1549.28 728.083 Q1549.28 728.661 1549.34 729.833 Q1549.4 731.005 1549.4 731.583 Q1549.4 733.583 1548.97 737.544 Q1548.54 741.505 1548.54 743.474 Q1548.54 744.49 1548.69 745.951 Q1548.84 747.411 1548.86 748.333 L1550.75 748.302 Q1551.51 748.302 1552.01 748.872 Q1552.5 749.443 1552.5 750.318 Q1552.5 751.193 1552 751.763 Q1551.5 752.333 1550.75 752.333 Z"/>
  <path fill="#000000ff" d="M1564.7 752.333 Q1559.58 752.333 1557.15 748.271 Q1556.83 747.708 1556.83 747.193 Q1556.83 746.443 1557.39 745.888 Q1557.95 745.333 1558.65 745.333 Q1559.39 745.333 1560.06 746.115 Q1561.01 747.24 1561.5 747.552 Q1562.68 748.333 1564.7 748.333 Q1567.83 748.333 1569.89 746.146 Q1571.86 744.068 1571.86 741.146 Q1571.86 738.74 1570.98 737.24 Q1569.87 735.333 1567.54 735.333 Q1565.61 735.333 1564.37 735.865 Q1563.4 736.286 1562.4 737.318 L1560.43 739.505 Q1559.64 740.333 1558.81 740.333 Q1558.09 740.333 1557.58 739.818 Q1557.08 739.302 1557.08 738.583 Q1557.08 738.224 1557.37 735.38 Q1557.98 729.708 1557.98 727.927 Q1557.98 727.302 1557.66 726.552 Q1557.34 725.802 1557.34 725.443 Q1557.34 724.349 1559.23 724.349 Q1559.61 724.349 1560.33 724.411 Q1561.06 724.474 1561.42 724.474 Q1562.47 724.474 1564.57 724.404 Q1566.67 724.333 1567.72 724.333 Q1568.2 724.333 1569.19 724.365 Q1570.18 724.396 1570.67 724.396 Q1571.01 724.396 1571.67 724.271 Q1572.33 724.146 1572.65 724.146 Q1573.36 724.146 1573.9 724.607 Q1574.43 725.068 1574.43 725.661 Q1574.43 727.396 1570.15 727.396 Q1569.59 727.396 1568.74 727.365 Q1567.89 727.333 1567.72 727.333 L1564.65 727.38 L1561.61 727.474 Q1561.61 728.24 1560.93 733.302 Q1563.4 731.333 1567.53 731.333 Q1571.51 731.333 1573.61 734.411 Q1575.37 737.036 1575.37 741.083 Q1575.37 745.927 1572.51 749.068 Q1569.56 752.333 1564.7 752.333 Z"/>
  <path fill="#000000ff" d="M1584.4 748.349 Q1584.4 749.208 1583.88 749.771 Q1583.36 750.333 1582.54 750.333 Q1581.73 750.333 1581.23 749.771 Q1580.7 749.208 1580.7 748.349 Q1580.7 747.974 1580.58 747.271 Q1580.47 746.568 1580.47 746.224 Q1580.47 745.411 1581.04 744.872 Q1581.61 744.333 1582.39 744.333 Q1584.4 744.333 1584.4 748.349 ZM1584.09 736.474 Q1584.09 737.286 1583.58 737.81 Q1583.06 738.333 1582.25 738.333 Q1581.43 738.333 1580.91 737.81 Q1580.39 737.286 1580.39 736.474 Q1580.39 736.255 1580.31 735.81 Q1580.23 735.365 1580.23 735.13 Q1580.23 734.349 1580.77 733.841 Q1581.31 733.333 1582.11 733.333 Q1584.09 733.333 1584.09 736.474 Z"/>
  <path fill="#000000ff" d="M1598.92 752.333 Q1593.42 752.333 1590.89 747.443 Q1588.98 743.693 1588.98 737.661 Q1588.98 732.568 1591.47 728.771 Q1594.42 724.333 1599.47 724.333 Q1604.22 724.333 1606.87 728.271 Q1609.17 731.677 1609.17 736.583 Q1609.17 744.443 1606.61 748.388 Q1604.04 752.333 1598.92 752.333 ZM1599.45 728.333 Q1596.09 728.333 1594.12 731.458 Q1592.48 734.068 1592.48 737.427 Q1592.48 742.88 1594.09 745.607 Q1595.7 748.333 1598.92 748.333 Q1602.75 748.333 1604.4 744.333 Q1605.56 741.552 1605.56 737.286 Q1605.56 732.802 1604.04 730.568 Q1602.51 728.333 1599.45 728.333 Z"/>
  <path fill="#000000ff" d="M1621.29 752.333 Q1615.79 752.333 1613.26 747.443 Q1611.36 743.693 1611.36 737.661 Q1611.36 732.568 1613.84 728.771 Q1616.79 724.333 1621.84 724.333 Q1626.59 724.333 1629.25 728.271 Q1631.54 731.677 1631.54 736.583 Q1631.54 744.443 1628.98 748.388 Q1626.42 752.333 1621.29 752.333 ZM1621.83 728.333 Q1618.47 728.333 1616.5 731.458 Q1614.86 734.068 1614.86 737.427 Q1614.86 742.88 1616.47 745.607 Q1618.08 748.333 1621.29 748.333 Q1625.12 748.333 1626.78 744.333 Q1627.93 741.552 1627.93 737.286 Q1627.93 732.802 1626.41 730.568 Q1624.89 728.333 1621.83 728.333 Z"/>
  <path d="M181.141 682 L181.141 36.6667 " fill="none" stroke-width="3.333333" stroke="#000000ff"/>
  <path d="M181.141 682 L194.474 682 " fill="none" stroke-width="3.333333" stroke="#000000ff"/>
  <path d="M181.141 574.444 L194.474 574.444 " fill="none" stroke-width="3.333333" stroke="#000000ff"/>
  <path d="M181.141 466.889 L194.474 466.889 " fill="none" stroke-width="3.333333" stroke="#000000ff"/>
  <path d="M181.141 359.333 L194.474 359.333 " fill="none" stroke-width="3.333333" stroke="#000000ff"/>
  <path d="M181.141 251.778 L194.474 251.778 " fill="none" stroke-width="3.333333" stroke="#000000ff"/>
  <path d="M181.141 144.222 L194.474 144.222 " fill="none" stroke-width="3.333333" stroke="#000000ff"/>
  <path d="M181.141 36.6667 L194.474 36.6667 " fill="none" stroke-width="3.333333" stroke="#000000ff"/>
  <path fill="#000000ff" d="M86.6042 697 Q81.1042 697 78.5729 692.109 Q76.6667 688.359 76.6667 682.328 Q76.6667 677.234 79.151 673.438 Q82.1042 669 87.151 669 Q91.901 669 94.5573 672.938 Q96.8542 676.344 96.8542 681.25 Q96.8542 689.109 94.2917 693.055 Q91.7292 697 86.6042 697 ZM87.1354 673 Q83.776 673 81.8073 676.125 Q80.1667 678.734 80.1667 682.094 Q80.1667 687.547 81.776 690.273 Q83.3854 693 86.6042 693 Q90.4323 693 92.0885 689 Q93.2448 686.219 93.2448 681.953 Q93.2448 677.469 91.7214 675.234 Q90.1979 673 87.1354 673 Z"/>
  <path fill="#000000ff" d="M102.745 699 Q101.807 699 101.159 698.422 Q100.51 697.844 100.51 697 Q100.51 696.172 101.159 695.586 Q101.807 695 102.745 695 Q103.682 695 104.339 695.586 Q104.995 696.172 104.995 697 Q104.995 697.844 104.339 698.422 Q103.682 699 102.745 699 Z"/>
  <path fill="#000000ff" d="M118.104 697 Q112.604 697 110.073 692.109 Q108.167 688.359 108.167 682.328 Q108.167 677.234 110.651 673.438 Q113.604 669 118.651 669 Q123.401 669 126.057 672.938 Q128.354 676.344 128.354 681.25 Q128.354 689.109 125.792 693.055 Q123.229 697 118.104 697 ZM118.635 673 Q115.276 673 113.307 676.125 Q111.667 678.734 111.667 682.094 Q111.667 687.547 113.276 690.273 Q114.885 693 118.104 693 Q121.932 693 123.589 689 Q124.745 686.219 124.745 681.953 Q124.745 677.469 123.221 675.234 Q121.698 673 118.635 673 Z"/>
  <path fill="#000000ff" d="M140.479 697 Q134.979 697 132.448 692.109 Q130.542 688.359 130.542 682.328 Q130.542 677.234 133.026 673.438 Q135.979 669 141.026 669 Q145.776 669 148.432 672.938 Q150.729 676.344 150.729 681.25 Q150.729 689.109 148.167 693.055 Q145.604 697 140.479 697 ZM141.01 673 Q137.651 673 135.682 676.125 Q134.042 678.734 134.042 682.094 Q134.042 687.547 135.651 690.273 Q137.26 693 140.479 693 Q144.307 693 145.964 689 Q147.12 686.219 147.12 681.953 Q147.12 677.469 145.596 675.234 Q144.073 673 141.01 673 Z"/>
  <path fill="#000000ff" d="M71.3854 589.444 Q70.9323 589.444 70.112 588.944 Q69.2917 588.444 68.8698 588.444 Q67.9479 588.444 66.1042 588.632 Q64.2604 588.819 63.3229 588.819 Q62.6198 588.819 61.237 589.132 Q59.8542 589.444 59.151 589.444 Q58.9479 589.444 58.5729 589.374 Q58.1979 589.304 57.9948 589.304 Q56.7448 589.304 56.3698 588.101 Q56.151 587.491 56.151 585.976 Q56.151 581.819 58.4479 579.288 Q59.4948 578.132 64.1042 575.007 Q66.6823 573.273 67.5573 572.288 Q69.1042 570.569 69.1042 568.273 Q69.1042 567.132 67.6042 566.241 Q66.2917 565.444 65.026 565.444 Q63.3542 565.444 61.8542 566.507 L59.276 568.757 Q58.4948 569.444 58.026 569.444 Q56.1667 569.444 56.1667 567.773 Q56.1667 566.804 56.8542 566.116 Q58.9635 563.866 60.526 562.851 Q62.7135 561.444 65.026 561.444 Q67.9479 561.444 70.2448 563.007 Q72.8073 564.773 72.8073 567.538 Q72.8073 569.366 72.2839 570.898 Q71.7604 572.429 70.6979 573.694 Q69.3385 575.304 66.1042 577.273 Q62.6979 579.382 61.6354 580.476 Q59.6354 582.523 59.6667 585.444 L63.3854 584.835 Q67.2135 584.444 68.8542 584.444 Q70.2292 584.444 71.4635 585.023 Q73.0885 585.819 73.0885 587.21 Q73.0885 588.069 72.6042 588.757 Q72.1198 589.444 71.3854 589.444 Z"/>
  <path fill="#000000ff" d="M86.6042 589.444 Q81.1042 589.444 78.5729 584.554 Q76.6667 580.804 76.6667 574.773 Q76.6667 569.679 79.151 565.882 Q82.1042 561.444 87.151 561.444 Q91.901 561.444 94.5573 565.382 Q96.8542 568.788 96.8542 573.694 Q96.8542 581.554 94.2917 585.499 Q91.7292 589.444 86.6042 589.444 ZM87.1354 565.444 Q83.776 565.444 81.8073 568.569 Q80.1667 571.179 80.1667 574.538 Q80.1667 579.991 81.776 582.718 Q83.3854 585.444 86.6042 585.444 Q90.4323 585.444 92.0885 581.444 Q93.2448 578.663 93.2448 574.398 Q93.2448 569.913 91.7214 567.679 Q90.1979 565.444 87.1354 565.444 Z"/>
  <path fill="#000000ff" d="M102.745 591.444 Q101.807 591.444 101.159 590.866 Q100.51 590.288 100.51 589.444 Q100.51 588.616 101.159 588.03 Q101.807 587.444 102.745 587.444 Q103.682 587.444 104.339 588.03 Q104.995 588.616 104.995 589.444 Q104.995 590.288 104.339 590.866 Q103.682 591.444 102.745 591.444 Z"/>
  <path fill="#000000ff" d="M118.104 589.444 Q112.604 589.444 110.073 584.554 Q108.167 580.804 108.167 574.773 Q108.167 569.679 110.651 565.882 Q113.604 561.444 118.651 561.444 Q123.401 561.444 126.057 565.382 Q128.354 568.788 128.354 573.694 Q128.354 581.554 125.792 585.499 Q123.229 589.444 118.104 589.444 ZM118.635 565.444 Q115.276 565.444 113.307 568.569 Q111.667 571.179 111.667 574.538 Q111.667 579.991 113.276 582.718 Q114.885 585.444 118.104 585.444 Q121.932 585.444 123.589 581.444 Q124.745 578.663 124.745 574.398 Q124.745 569.913 123.221 567.679 Q121.698 565.444 118.635 565.444 Z"/>
  <path fill="#000000ff" d="M140.479 589.444 Q134.979 589.444 132.448 584.554 Q130.542 580.804 130.542 574.773 Q130.542 569.679 133.026 565.882 Q135.979 561.444 141.026 561.444 Q145.776 561.444 148.432 565.382 Q150.729 568.788 150.729 573.694 Q150.729 581.554 148.167 585.499 Q145.604 589.444 140.479 589.444 ZM141.01 565.444 Q137.651 565.444 135.682 568.569 Q134.042 571.179 134.042 574.538 Q134.042 579.991 135.651 582.718 Q137.26 585.444 140.479 585.444 Q144.307 585.444 145.964 581.444 Q147.12 578.663 147.12 574.398 Q147.12 569.913 145.596 567.679 Q144.073 565.444 141.01 565.444 Z"/>
  <path fill="#000000ff" d="M70.6042 473.889 L70.6042 480.28 Q70.6042 481.889 68.9479 481.889 Q67.0417 481.889 67.0417 479.405 Q67.0417 479.108 67.0729 478.537 Q67.1042 477.967 67.1042 477.764 L67.0885 473.889 L59.1354 473.889 Q56.651 473.889 55.6979 473.889 Q54.0573 473.623 54.0573 472.592 Q54.0573 471.78 55.0573 470.514 L56.6042 468.655 L65.4948 455.576 Q66.6979 453.889 68.5573 453.889 Q70.6042 453.889 70.6042 455.576 L70.6042 469.889 Q70.9167 469.873 71.3385 469.873 Q74.6667 469.873 74.6667 471.905 Q74.6667 473.389 73.2917 473.78 Q72.6823 473.951 70.6042 473.889 ZM67.0885 459.389 Q62.2604 466.405 59.5573 469.889 L67.0885 469.889 L67.0885 459.389 Z"/>
  <path fill="#000000ff" d="M86.6042 481.889 Q81.1042 481.889 78.5729 476.998 Q76.6667 473.248 76.6667 467.217 Q76.6667 462.123 79.151 458.326 Q82.1042 453.889 87.151 453.889 Q91.901 453.889 94.5573 457.826 Q96.8542 461.233 96.8542 466.139 Q96.8542 473.998 94.2917 477.944 Q91.7292 481.889 86.6042 481.889 ZM87.1354 457.889 Q83.776 457.889 81.8073 461.014 Q80.1667 463.623 80.1667 466.983 Q80.1667 472.436 81.776 475.162 Q83.3854 477.889 86.6042 477.889 Q90.4323 477.889 92.0885 473.889 Q93.2448 471.108 93.2448 466.842 Q93.2448 462.358 91.7214 460.123 Q90.1979 457.889 87.1354 457.889 Z"/>
  <path fill="#000000ff" d="M102.745 483.889 Q101.807 483.889 101.159 483.311 Q100.51 482.733 100.51 481.889 Q100.51 481.061 101.159 480.475 Q101.807 479.889 102.745 479.889 Q103.682 479.889 104.339 480.475 Q104.995 481.061 104.995 481.889 Q104.995 482.733 104.339 483.311 Q103.682 483.889 102.745 483.889 Z"/>
  <path fill="#000000ff" d="M118.104 481.889 Q112.604 481.889 110.073 476.998 Q108.167 473.248 108.167 467.217 Q108.167 462.123 110.651 458.326 Q113.604 453.889 118.651 453.889 Q123.401 453.889 126.057 457.826 Q128.354 461.233 128.354 466.139 Q128.354 473.998 125.792 477.944 Q123.229 481.889 118.104 481.889 ZM118.635 457.889 Q115.276 457.889 113.307 461.014 Q111.667 463.623 111.667 466.983 Q111.667 472.436 113.276 475.162 Q114.885 477.889 118.104 477.889 Q121.932 477.889 123.589 473.889 Q124.745 471.108 124.745 466.842 Q124.745 462.358 123.221 460.123 Q121.698 457.889 118.635 457.889 Z"/>
  <path fill="#000000ff" d="M140.479 481.889 Q134.979 481.889 132.448 476.998 Q130.542 473.248 130.542 467.217 Q130.542 462.123 133.026 458.326 Q135.979 453.889 141.026 453.889 Q145.776 453.889 148.432 457.826 Q150.729 461.233 150.729 466.139 Q150.729 473.998 148.167 477.944 Q145.604 481.889 140.479 481.889 ZM141.01 457.889 Q137.651 457.889 135.682 461.014 Q134.042 463.623 134.042 466.983 Q134.042 472.436 135.651 475.162 Q137.26 477.889 140.479 477.889 Q144.307 477.889 145.964 473.889 Q147.12 471.108 147.12 466.842 Q147.12 462.358 145.596 460.123 Q144.073 457.889 141.01 457.889 Z"/>
  <path fill="#000000ff" d="M63.9635 374.333 Q59.2448 374.333 57.026 371.052 Q55.1823 368.349 55.1823 363.849 Q55.1823 355.349 62.4323 349.099 L64.1354 347.474 Q65.3854 346.333 66.0104 346.333 Q66.7292 346.333 67.276 346.857 Q67.8229 347.38 67.8385 348.099 Q67.8698 348.755 65.9948 350.661 L62.3073 354.318 Q60.8385 355.833 59.7917 358.88 Q61.3698 358.099 62.5417 357.716 Q63.7135 357.333 64.4635 357.333 Q68.6979 357.333 70.9557 359.404 Q73.2135 361.474 73.2135 365.255 Q73.2135 369.224 70.776 371.724 Q68.2292 374.333 63.9635 374.333 ZM63.9792 361.333 Q62.4167 361.333 61.1823 361.755 Q60.7135 361.911 58.8229 362.818 Q58.7135 363.552 58.7135 364.271 Q58.7135 366.755 59.7917 368.333 Q61.1667 370.333 64.0729 370.333 Q66.8073 370.333 68.3073 368.833 Q69.6979 367.443 69.6979 365.146 Q69.6979 363.24 68.2682 362.286 Q66.8385 361.333 63.9792 361.333 Z"/>
  <path fill="#000000ff" d="M86.6042 374.333 Q81.1042 374.333 78.5729 369.443 Q76.6667 365.693 76.6667 359.661 Q76.6667 354.568 79.151 350.771 Q82.1042 346.333 87.151 346.333 Q91.901 346.333 94.5573 350.271 Q96.8542 353.677 96.8542 358.583 Q96.8542 366.443 94.2917 370.388 Q91.7292 374.333 86.6042 374.333 ZM87.1354 350.333 Q83.776 350.333 81.8073 353.458 Q80.1667 356.068 80.1667 359.427 Q80.1667 364.88 81.776 367.607 Q83.3854 370.333 86.6042 370.333 Q90.4323 370.333 92.0885 366.333 Q93.2448 363.552 93.2448 359.286 Q93.2448 354.802 91.7214 352.568 Q90.1979 350.333 87.1354 350.333 Z"/>
  <path fill="#000000ff" d="M102.745 376.333 Q101.807 376.333 101.159 375.755 Q100.51 375.177 100.51 374.333 Q100.51 373.505 101.159 372.919 Q101.807 372.333 102.745 372.333 Q103.682 372.333 104.339 372.919 Q104.995 373.505 104.995 374.333 Q104.995 375.177 104.339 375.755 Q103.682 376.333 102.745 376.333 Z"/>
  <path fill="#000000ff" d="M118.104 374.333 Q112.604 374.333 110.073 369.443 Q108.167 365.693 108.167 359.661 Q108.167 354.568 110.651 350.771 Q113.604 346.333 118.651 346.333 Q123.401 346.333 126.057 350.271 Q128.354 353.677 128.354 358.583 Q128.354 366.443 125.792 370.388 Q123.229 374.333 118.104 374.333 ZM118.635 350.333 Q115.276 350.333 113.307 353.458 Q111.667 356.068 111.667 359.427 Q111.667 364.88 113.276 367.607 Q114.885 370.333 118.104 370.333 Q121.932 370.333 123.589 366.333 Q124.745 363.552 124.745 359.286 Q124.745 354.802 123.221 352.568 Q121.698 350.333 118.635 350.333 Z"/>
  <path fill="#000000ff" d="M140.479 374.333 Q134.979 374.333 132.448 369.443 Q130.542 365.693 130.542 359.661 Q130.542 354.568 133.026 350.771 Q135.979 346.333 141.026 346.333 Q145.776 346.333 148.432 350.271 Q150.729 353.677 150.729 358.583 Q150.729 366.443 148.167 370.388 Q145.604 374.333 140.479 374.333 ZM141.01 350.333 Q137.651 350.333 135.682 353.458 Q134.042 356.068 134.042 359.427 Q134.042 364.88 135.651 367.607 Q137.26 370.333 140.479 370.333 Q144.307 370.333 145.964 366.333 Q147.12 363.552 147.12 359.286 Q147.12 354.802 145.596 352.568 Q144.073 350.333 141.01 350.333 Z"/>
  <path fill="#000000ff" d="M64.276 266.778 Q60.4635 266.778 58.1198 265.075 Q55.4323 263.137 55.3854 259.403 Q55.3073 253.387 59.4948 251.215 Q56.276 249.403 56.276 246.075 Q56.276 242.918 58.7448 240.825 Q61.1198 238.809 64.4948 238.778 Q72.0729 238.7 72.0729 245.622 Q72.0729 247.59 71.2135 248.668 Q70.4948 249.559 68.4792 250.497 Q71.1667 251.903 72.2604 253.528 Q73.526 255.45 73.526 258.793 Q73.526 262.622 70.7917 264.793 Q68.2604 266.778 64.276 266.778 ZM64.4323 242.778 Q62.1042 242.778 60.8698 243.731 Q59.776 244.637 59.7917 246.153 Q59.8073 247.997 63.9479 248.778 Q66.1198 248.325 67.0573 247.856 Q68.5573 247.122 68.5573 245.887 Q68.5573 244.09 67.4479 243.372 Q66.5104 242.778 64.4323 242.778 ZM64.1042 252.778 Q61.2292 254.028 60.276 254.934 Q58.776 256.34 58.8698 258.887 Q58.9479 260.997 60.9479 262.043 Q62.4167 262.778 64.276 262.778 Q67.4479 262.778 68.7135 261.372 Q69.7292 260.262 69.7292 258.012 Q69.7292 255.793 67.8854 254.45 Q66.651 253.512 64.1042 252.778 Z"/>
  <path fill="#000000ff" d="M86.6042 266.778 Q81.1042 266.778 78.5729 261.887 Q76.6667 258.137 76.6667 252.106 Q76.6667 247.012 79.151 243.215 Q82.1042 238.778 87.151 238.778 Q91.901 238.778 94.5573 242.715 Q96.8542 246.122 96.8542 251.028 Q96.8542 258.887 94.2917 262.832 Q91.7292 266.778 86.6042 266.778 ZM87.1354 242.778 Q83.776 242.778 81.8073 245.903 Q80.1667 248.512 80.1667 251.872 Q80.1667 257.325 81.776 260.051 Q83.3854 262.778 86.6042 262.778 Q90.4323 262.778 92.0885 258.778 Q93.2448 255.997 93.2448 251.731 Q93.2448 247.247 91.7214 245.012 Q90.1979 242.778 87.1354 242.778 Z"/>
  <path fill="#000000ff" d="M102.745 268.778 Q101.807 268.778 101.159 268.2 Q100.51 267.622 100.51 266.778 Q100.51 265.95 101.159 265.364 Q101.807 264.778 102.745 264.778 Q103.682 264.778 104.339 265.364 Q104.995 265.95 104.995 266.778 Q104.995 267.622 104.339 268.2 Q103.682 268.778 102.745 268.778 Z"/>
  <path fill="#000000ff" d="M118.104 266.778 Q112.604 266.778 110.073 261.887 Q108.167 258.137 108.167 252.106 Q108.167 247.012 110.651 243.215 Q113.604 238.778 118.651 238.778 Q123.401 238.778 126.057 242.715 Q128.354 246.122 128.354 251.028 Q128.354 258.887 125.792 262.832 Q123.229 266.778 118.104 266.778 ZM118.635 242.778 Q115.276 242.778 113.307 245.903 Q111.667 248.512 111.667 251.872 Q111.667 257.325 113.276 260.051 Q114.885 262.778 118.104 262.778 Q121.932 262.778 123.589 258.778 Q124.745 255.997 124.745 251.731 Q124.745 247.247 123.221 245.012 Q121.698 242.778 118.635 242.778 Z"/>
  <path fill="#000000ff" d="M140.479 266.778 Q134.979 266.778 132.448 261.887 Q130.542 258.137 130.542 252.106 Q130.542 247.012 133.026 243.215 Q135.979 238.778 141.026 238.778 Q145.776 238.778 148.432 242.715 Q150.729 246.122 150.729 251.028 Q150.729 258.887 148.167 262.832 Q145.604 266.778 140.479 266.778 ZM141.01 242.778 Q137.651 242.778 135.682 245.903 Q134.042 248.512 134.042 251.872 Q134.042 257.325 135.651 260.051 Q137.26 262.778 140.479 262.778 Q144.307 262.778 145.964 258.778 Q147.12 255.997 147.12 251.731 Q147.12 247.247 145.596 245.012 Q144.073 242.778 141.01 242.778 Z"/>
  <path fill="#000000ff" d="M49.3854 159.222 L45.7917 159.222 L42.2135 159.207 Q40.9479 159.207 40.4479 159.003 Q39.526 158.613 39.526 157.347 Q39.526 155.175 42.3542 155.175 L43.2292 155.191 L43.9635 155.222 Q43.9635 154.41 43.8073 152.808 Q43.651 151.207 43.651 150.394 Q43.651 148.238 44.0729 143.816 Q44.4792 139.472 44.4479 137.222 Q42.026 139.222 41.3542 139.222 Q40.6354 139.222 40.1042 138.66 Q39.5729 138.097 39.5729 137.347 Q39.5729 136.472 41.1198 135.207 Q42.1042 134.488 43.8854 132.894 Q45.4792 131.222 46.9323 131.222 Q48.1354 131.222 48.1354 132.566 Q48.1354 132.972 48.026 133.769 Q47.9167 134.566 47.9167 134.972 Q47.9167 135.55 47.9792 136.722 Q48.0417 137.894 48.0417 138.472 Q48.0417 140.472 47.612 144.433 Q47.1823 148.394 47.1823 150.363 Q47.1823 151.378 47.3307 152.839 Q47.4792 154.3 47.4948 155.222 L49.3854 155.191 Q50.151 155.191 50.6432 155.761 Q51.1354 156.332 51.1354 157.207 Q51.1354 158.082 50.6354 158.652 Q50.1354 159.222 49.3854 159.222 Z"/>
  <path fill="#000000ff" d="M64.2292 159.222 Q58.7292 159.222 56.1979 154.332 Q54.2917 150.582 54.2917 144.55 Q54.2917 139.457 56.776 135.66 Q59.7292 131.222 64.776 131.222 Q69.526 131.222 72.1823 135.16 Q74.4792 138.566 74.4792 143.472 Q74.4792 151.332 71.9167 155.277 Q69.3542 159.222 64.2292 159.222 ZM64.7604 135.222 Q61.401 135.222 59.4323 138.347 Q57.7917 140.957 57.7917 144.316 Q57.7917 149.769 59.401 152.496 Q61.0104 155.222 64.2292 155.222 Q68.0573 155.222 69.7135 151.222 Q70.8698 148.441 70.8698 144.175 Q70.8698 139.691 69.3464 137.457 Q67.8229 135.222 64.7604 135.222 Z"/>
  <path fill="#000000ff" d="M86.6042 159.222 Q81.1042 159.222 78.5729 154.332 Q76.6667 150.582 76.6667 144.55 Q76.6667 139.457 79.151 135.66 Q82.1042 131.222 87.151 131.222 Q91.901 131.222 94.5573 135.16 Q96.8542 138.566 96.8542 143.472 Q96.8542 151.332 94.2917 155.277 Q91.7292 159.222 86.6042 159.222 ZM87.1354 135.222 Q83.776 135.222 81.8073 138.347 Q80.1667 140.957 80.1667 144.316 Q80.1667 149.769 81.776 152.496 Q83.3854 155.222 86.6042 155.222 Q90.4323 155.222 92.0885 151.222 Q93.2448 148.441 93.2448 144.175 Q93.2448 139.691 91.7214 137.457 Q90.1979 135.222 87.1354 135.222 Z"/>
  <path fill="#000000ff" d="M102.745 161.222 Q101.807 161.222 101.159 160.644 Q100.51 160.066 100.51 159.222 Q100.51 158.394 101.159 157.808 Q101.807 157.222 102.745 157.222 Q103.682 157.222 104.339 157.808 Q104.995 158.394 104.995 159.222 Q104.995 160.066 104.339 160.644 Q103.682 161.222 102.745 161.222 Z"/>
  <path fill="#000000ff" d="M118.104 159.222 Q112.604 159.222 110.073 154.332 Q108.167 150.582 108.167 144.55 Q108.167 139.457 110.651 135.66 Q113.604 131.222 118.651 131.222 Q123.401 131.222 126.057 135.16 Q128.354 138.566 128.354 143.472 Q128.354 151.332 125.792 155.277 Q123.229 159.222 118.104 159.222 ZM118.635 135.222 Q115.276 135.222 113.307 138.347 Q111.667 140.957 111.667 144.316 Q111.667 149.769 113.276 152.496 Q114.885 155.222 118.104 155.222 Q121.932 155.222 123.589 151.222 Q124.745 148.441 124.745 144.175 Q124.745 139.691 123.221 137.457 Q121.698 135.222 118.635 135.222 Z"/>
  <path fill="#000000ff" d="M140.479 159.222 Q134.979 159.222 132.448 154.332 Q130.542 150.582 130.542 144.55 Q130.542 139.457 133.026 135.66 Q135.979 131.222 141.026 131.222 Q145.776 131.222 148.432 135.16 Q150.729 138.566 150.729 143.472 Q150.729 151.332 148.167 155.277 Q145.604 159.222 140.479 159.222 ZM141.01 135.222 Q137.651 135.222 135.682 138.347 Q134.042 140.957 134.042 144.316 Q134.042 149.769 135.651 152.496 Q137.26 155.222 140.479 155.222 Q144.307 155.222 145.964 151.222 Q147.12 148.441 147.12 144.175 Q147.12 139.691 145.596 137.457 Q144.073 135.222 141.01 135.222 Z"/>
  <path fill="#000000ff" d="M49.3854 51.6667 L45.7917 51.6667 L42.2135 51.651 Q40.9479 51.651 40.4479 51.4479 Q39.526 51.0573 39.526 49.7917 Q39.526 47.6198 42.3542 47.6198 L43.2292 47.6354 L43.9635 47.6667 Q43.9635 46.8542 43.8073 45.2526 Q43.651 43.651 43.651 42.8385 Q43.651 40.6823 44.0729 36.2604 Q44.4792 31.9167 44.4479 29.6667 Q42.026 31.6667 41.3542 31.6667 Q40.6354 31.6667 40.1042 31.1042 Q39.5729 30.5417 39.5729 29.7917 Q39.5729 28.9167 41.1198 27.651 Q42.1042 26.9323 43.8854 25.3385 Q45.4792 23.6667 46.9323 23.6667 Q48.1354 23.6667 48.1354 25.0104 Q48.1354 25.4167 48.026 26.2135 Q47.9167 27.0104 47.9167 27.4167 Q47.9167 27.9948 47.9792 29.1667 Q48.0417 30.3385 48.0417 30.9167 Q48.0417 32.9167 47.612 36.8776 Q47.1823 40.8385 47.1823 42.8073 Q47.1823 43.8229 47.3307 45.2839 Q47.4792 46.7448 47.4948 47.6667 L49.3854 47.6354 Q50.151 47.6354 50.6432 48.2057 Q51.1354 48.776 51.1354 49.651 Q51.1354 50.526 50.6354 51.0964 Q50.1354 51.6667 49.3854 51.6667 Z"/>
  <path fill="#000000ff" d="M71.3854 51.6667 Q70.9323 51.6667 70.112 51.1667 Q69.2917 50.6667 68.8698 50.6667 Q67.9479 50.6667 66.1042 50.8542 Q64.2604 51.0417 63.3229 51.0417 Q62.6198 51.0417 61.237 51.3542 Q59.8542 51.6667 59.151 51.6667 Q58.9479 51.6667 58.5729 51.5964 Q58.1979 51.526 57.9948 51.526 Q56.7448 51.526 56.3698 50.3229 Q56.151 49.7135 56.151 48.1979 Q56.151 44.0417 58.4479 41.5104 Q59.4948 40.3542 64.1042 37.2292 Q66.6823 35.4948 67.5573 34.5104 Q69.1042 32.7917 69.1042 30.4948 Q69.1042 29.3542 67.6042 28.4635 Q66.2917 27.6667 65.026 27.6667 Q63.3542 27.6667 61.8542 28.7292 L59.276 30.9792 Q58.4948 31.6667 58.026 31.6667 Q56.1667 31.6667 56.1667 29.9948 Q56.1667 29.026 56.8542 28.3385 Q58.9635 26.0885 60.526 25.0729 Q62.7135 23.6667 65.026 23.6667 Q67.9479 23.6667 70.2448 25.2292 Q72.8073 26.9948 72.8073 29.7604 Q72.8073 31.5885 72.2839 33.1198 Q71.7604 34.651 70.6979 35.9167 Q69.3385 37.526 66.1042 39.4948 Q62.6979 41.6042 61.6354 42.6979 Q59.6354 44.7448 59.6667 47.6667 L63.3854 47.0573 Q67.2135 46.6667 68.8542 46.6667 Q70.2292 46.6667 71.4635 47.2448 Q73.0885 48.0417 73.0885 49.4323 Q73.0885 50.2917 72.6042 50.9792 Q72.1198 51.6667 71.3854 51.6667 Z"/>
  <path fill="#000000ff" d="M86.6042 51.6667 Q81.1042 51.6667 78.5729 46.776 Q76.6667 43.026 76.6667 36.9948 Q76.6667 31.901 79.151 28.1042 Q82.1042 23.6667 87.151 23.6667 Q91.901 23.6667 94.5573 27.6042 Q96.8542 31.0104 96.8542 35.9167 Q96.8542 43.776 94.2917 47.7214 Q91.7292 51.6667 86.6042 51.6667 ZM87.1354 27.6667 Q83.776 27.6667 81.8073 30.7917 Q80.1667 33.401 80.1667 36.7604 Q80.1667 42.2135 81.776 44.9401 Q83.3854 47.6667 86.6042 47.6667 Q90.4323 47.6667 92.0885 43.6667 Q93.2448 40.8854 93.2448 36.6198 Q93.2448 32.1354 91.7214 29.901 Q90.1979 27.6667 87.1354 27.6667 Z"/>
  <path fill="#000000ff" d="M102.745 53.6667 Q101.807 53.6667 101.159 53.0885 Q100.51 52.5104 100.51 51.6667 Q100.51 50.8385 101.159 50.2526 Q101.807 49.6667 102.745 49.6667 Q103.682 49.6667 104.339 50.2526 Q104.995 50.8385 104.995 51.6667 Q104.995 52.5104 104.339 53.0885 Q103.682 53.6667 102.745 53.6667 Z"/>
  <path fill="#000000ff" d="M118.104 51.6667 Q112.604 51.6667 110.073 46.776 Q108.167 43.026 108.167 36.9948 Q108.167 31.901 110.651 28.1042 Q113.604 23.6667 118.651 23.6667 Q123.401 23.6667 126.057 27.6042 Q128.354 31.0104 128.354 35.9167 Q128.354 43.776 125.792 47.7214 Q123.229 51.6667 118.104 51.6667 ZM118.635 27.6667 Q115.276 27.6667 113.307 30.7917 Q111.667 33.401 111.667 36.7604 Q111.667 42.2135 113.276 44.9401 Q114.885 47.6667 118.104 47.6667 Q121.932 47.6667 123.589 43.6667 Q124.745 40.8854 124.745 36.6198 Q124.745 32.1354 123.221 29.901 Q121.698 27.6667 118.635 27.6667 Z"/>
  <path fill="#000000ff" d="M140.479 51.6667 Q134.979 51.6667 132.448 46.776 Q130.542 43.026 130.542 36.9948 Q130.542 31.901 133.026 28.1042 Q135.979 23.6667 141.026 23.6667 Q145.776 23.6667 148.432 27.6042 Q150.729 31.0104 150.729 35.9167 Q150.729 43.776 148.167 47.7214 Q145.604 51.6667 140.479 51.6667 ZM141.01 27.6667 Q137.651 27.6667 135.682 30.7917 Q134.042 33.401 134.042 36.7604 Q134.042 42.2135 135.651 44.9401 Q137.26 47.6667 140.479 47.6667 Q144.307 47.6667 145.964 43.6667 Q147.12 40.8854 147.12 36.6198 Q147.12 32.1354 145.596 29.901 Q144.073 27.6667 141.01 27.6667 Z"/>
  <path d="M181.141 682 L181.141 36.6667 L1563.33 36.6667 L1563.33 682 Z" fill="#f2f2f2" fill-opacity="1.000000" stroke-width="1.000000" stroke="#000000ff"/>
  <path d="M181.141 682 L181.141 36.6667 " fill="none" stroke-width="3.333333" stroke="#ffffffff"/>
  <path d="M319.36 682 L319.36 36.6667 " fill="none" stroke-width="3.333333" stroke="#ffffffff"/>
  <path d="M457.579 682 L457.579 36.6667 " fill="none" stroke-width="3.333333" stroke="#ffffffff"/>
  <path d="M595.798 682 L595.798 36.6667 " fill="none" stroke-width="3.333333" stroke="#ffffffff"/>
  <path d="M734.018 682 L734.018 36.6667 " fill="none" stroke-width="3.333333" stroke="#ffffffff"/>
  <path d="M872.237 682 L872.237 36.6667 " fill="none" stroke-width="3.333333" stroke="#ffffffff"/>
  <path d="M1010.46 682 L1010.46 36.6667 " fill="none" stroke-width="3.333333" stroke="#ffffffff"/>
  <path d="M1148.68 682 L1148.68 36.6667 " fill="none" stroke-width="3.333333" stroke="#ffffffff"/>
  <path d="M1286.89 682 L1286.89 36.6667 " fill="none" stroke-width="3.333333" stroke="#ffffffff"/>
  <path d="M1425.11 682 L1425.11 36.6667 " fill="none" stroke-width="3.333333" stroke="#ffffffff"/>
  <path d="M1563.33 682 L1563.33 36.6667 " fill="none" stroke-width="3.333333" stroke="#ffffffff"/>
  <path d="M181.141 36.6667 L1563.33 36.6667 " fill="none" stroke-width="3.333333" stroke="#ffffffff"/>
  <path d="M181.141 101.2 L1563.33 101.2 " fill="none" stroke-width="3.333333" stroke="#ffffffff"/>
  <path d="M181.141 165.733 L1563.33 165.733 " fill="none" stroke-width="3.333333" stroke="#ffffffff"/>
  <path d="M181.141 230.267 L1563.33 230.267 " fill="none" stroke-width="3.333333" stroke="#ffffffff"/>
  <path d="M181.141 294.8 L1563.33 294.8 " fill="none" stroke-width="3.333333" stroke="#ffffffff"/>
  <path d="M181.141 359.333 L1563.33 359.333 " fill="none" stroke-width="3.333333" stroke="#ffffffff"/>
  <path d="M181.141 423.867 L1563.33 423.867 " fill="none" stroke-width="3.333333" stroke="#ffffffff"/>
  <path d="M181.141 488.4 L1563.33 488.4 " fill="none" stroke-width="3.333333" stroke="#ffffffff"/>
  <path d="M181.141 552.933 L1563.33 552.933 " fill="none" stroke-width="3.333333" stroke="#ffffffff"/>
  <path d="M181.141 617.467 L1563.33 617.467 " fill="none" stroke-width="3.333333" stroke="#ffffffff"/>
  <path d="M181.141 682 L1563.33 682 " fill="none" stroke-width="3.333333" stroke="#ffffffff"/>
  <path d="M181.141 512.655 L200.338 526.762 L219.535 639.93 L238.732 634.807 L257.929 610.963 L277.126 665.297 L296.323 669.253 L315.52 634.913 L334.718 602.648 L353.915 668.062 L373.112 628.398 L392.309 643.44 L411.506 557.195 L430.703 584.683 L449.9 621.147 L469.097 578.968 L488.295 628.103 L507.492 649.035 L526.689 666.256 L545.886 666.941 L565.083 666.855 L584.28 588.117 L603.477 287.682 L622.674 58.8324 L641.872 69.6143 L661.069 89.2627 L680.266 356.433 L699.463 427.774 L718.66 562.056 L737.857 631.694 L757.054 656.227 L776.251 649.783 L795.448 657.623 L814.646 649.83 L833.843 572.452 L853.04 565.682 L872.237 562.938 L891.434 532.759 L910.631 546.632 L929.828 570.434 L949.025 559.154 L968.223 520.616 L987.42 460.993 L1006.62 467.746 L1025.81 428.541 L1045.01 490.379 L1064.21 517.967 L1083.41 581.833 L1102.6 548.621 L1121.8 438.595 L1141 417.467 L1160.19 470.427 L1179.39 481.401 L1198.59 466.257 L1217.79 438.166 L1236.98 549.648 L1256.18 585.844 L1275.38 486.22 L1294.57 551.041 L1313.77 623.375 L1332.97 615.821 L1352.17 540.857 L1371.36 596.561 L1390.56 602.506 L1409.76 613.623 L1428.95 601.848 L1448.15 612.977 L1467.35 571.326 L1486.54 607.811 L1505.74 585.032 L1524.94 562.202 L1544.14 582.419 L1563.33 622.924 " fill="none" stroke-width="5.000000" stroke="#000000ff"/>
  <path fill="#000000ff" d="M1047.47 118 Q1045.82 118 1044.58 113.734 Q1044.11 112.094 1043.41 108 Q1041.57 108.234 1038.58 108.844 L1033.79 109.766 Q1032.88 112.219 1030.69 116.953 Q1030.11 118 1029.11 118 Q1028.4 118 1027.83 117.469 Q1027.26 116.938 1027.26 116.141 Q1027.26 115.25 1029.99 109.406 Q1029.68 108.922 1029.68 108.297 Q1029.68 106.797 1031.46 106.375 Q1033.52 102.359 1036.66 97.125 Q1040.94 90 1041.99 90 Q1043.41 90 1043.94 92.0625 L1045.08 98.3281 L1047.77 111.281 L1048.8 114.172 Q1049.32 115.656 1049.32 116.156 Q1049.32 116.938 1048.76 117.469 Q1048.19 118 1047.47 118 ZM1041.1 96.8594 L1035.93 105.656 Q1038.11 104.984 1042.57 104.016 L1041.1 96.8594 Z"/>
  <path fill="#000000ff" d=""/>
  <path fill="#000000ff" d="M1073.52 117.047 Q1073.47 118.703 1071.88 118.703 Q1070.55 118.703 1069.96 117.156 L1067.19 109.812 L1063.97 101.516 Q1063.8 101.062 1063.8 100.719 Q1063.8 100 1064.36 99.5 Q1064.93 99 1065.66 99 Q1066.74 99 1067.21 100 L1071.8 112.641 Q1073.16 109.75 1075.22 104.25 Q1075.71 102.797 1076.76 100.156 Q1077.32 99 1078.35 99 Q1079.08 99 1079.65 99.5234 Q1080.21 100.047 1080.21 100.766 Q1080.21 101.453 1077.22 108.516 L1073.52 117.047 Z"/>
  <path fill="#000000ff" d="M1091.46 118 Q1087.38 118 1084.85 116.031 Q1082.08 113.859 1082.08 109.938 Q1082.08 105.406 1084.36 102.344 Q1086.83 99 1090.97 99 Q1093.97 99 1095.86 99.9688 Q1098.19 101.172 1098.19 103.656 Q1098.19 105.406 1096.15 106.828 Q1095.26 107.344 1092.32 108.422 L1085.43 110.984 Q1086.44 112.484 1087.95 113.242 Q1089.46 114 1091.46 114 Q1092.71 114 1094.38 113.531 Q1096.51 112.938 1097.12 111.969 Q1097.74 111 1098.44 111 Q1099.07 111 1099.57 111.531 Q1100.07 112.062 1100.07 112.781 Q1100.07 115.016 1096.83 116.625 Q1094.07 118 1091.46 118 ZM1090.96 103 Q1088.76 103 1087.29 104.344 Q1085.83 105.688 1085.11 108.375 L1090.66 106.312 Q1093.93 105.062 1095.32 104.141 Q1093.77 103 1090.96 103 Z"/>
  <path fill="#000000ff" d="M1117.16 104.734 Q1117.04 107 1115.35 107 Q1113.8 107 1113.8 105.047 Q1113.8 104.672 1113.76 103.656 L1113.69 102 Q1110.85 102.328 1109.13 103.531 Q1107.52 104.641 1106.46 106.875 L1106.49 116.266 Q1106.49 118 1104.71 118 Q1103.11 118 1103.11 116.266 L1103.11 104.156 Q1103.11 103.594 1103.16 102.453 Q1103.21 101.312 1103.21 100.734 Q1103.21 99 1104.8 99 Q1106.57 99 1106.58 101.969 Q1110.05 99 1114.27 99 Q1115.74 99 1116.46 100.109 Q1117.18 101.219 1117.18 103.453 Q1117.18 104.406 1117.16 104.734 Z"/>
  <path fill="#000000ff" d="M1136.49 102.094 L1130.24 115.453 Q1127.93 120.328 1126.69 123.609 L1125.51 127.078 Q1125.04 128 1123.88 128 Q1123.11 128 1122.57 127.57 Q1122.02 127.141 1122.02 126.5 Q1122.02 124.922 1125.93 116.312 L1119.44 103.828 L1118.63 102.5 Q1118.15 101.672 1118.15 101.109 Q1118.15 100.266 1118.72 99.6328 Q1119.29 99 1119.99 99 Q1120.82 99 1121.27 99.625 Q1124.35 104.047 1127.86 112.219 L1130.55 105.875 Q1131.99 102.656 1133.33 100.219 Q1133.91 99 1134.85 99 Q1135.58 99 1136.15 99.6094 Q1136.72 100.219 1136.72 101.047 Q1136.72 101.516 1136.49 102.094 Z"/>
  <path fill="#000000ff" d=""/>
  <path fill="#000000ff" d="M1162.97 104 Q1161.99 104 1161.58 103.234 Q1161.32 102.703 1161.11 101 Q1159.76 101.312 1156.94 102.172 Q1154.04 103.25 1154.02 104.828 Q1154.57 105.016 1155.08 105.109 Q1159.24 105.828 1161.27 107.109 Q1164.21 108.953 1164.21 112.469 Q1164.21 115.344 1161.66 116.797 Q1159.55 118 1156.3 118 Q1153.94 118 1151.79 117.125 Q1149.01 116 1149.01 114 Q1149.01 113.203 1149.58 112.602 Q1150.15 112 1150.86 112 Q1151.43 112 1152.32 112.984 Q1152.74 113.453 1154.27 113.75 Q1155.47 114 1156.3 114 Q1157.82 114 1158.97 113.656 Q1160.66 113.172 1160.66 112.109 Q1160.66 109.828 1157.22 109.016 L1155.35 108.625 Q1152.94 108.125 1151.94 107.469 Q1150.47 106.5 1150.47 104.578 Q1150.47 101.016 1154.04 99.4844 Q1155.11 99.0312 1157.5 98.3906 Q1159.88 97.75 1160.91 97.3125 Q1161.66 97 1162.52 97 Q1163.3 97 1163.8 97.5234 Q1164.3 98.0469 1164.3 98.9062 Q1164.3 99.4531 1164.53 100.5 Q1164.76 101.547 1164.76 102.094 Q1164.76 102.953 1164.26 103.477 Q1163.76 104 1162.97 104 Z"/>
  <path fill="#000000ff" d="M1177.08 118 Q1173.01 118 1170.47 116.031 Q1167.71 113.859 1167.71 109.938 Q1167.71 105.406 1169.99 102.344 Q1172.46 99 1176.6 99 Q1179.6 99 1181.49 99.9688 Q1183.82 101.172 1183.82 103.656 Q1183.82 105.406 1181.77 106.828 Q1180.88 107.344 1177.94 108.422 L1171.05 110.984 Q1172.07 112.484 1173.58 113.242 Q1175.08 114 1177.08 114 Q1178.33 114 1180.01 113.531 Q1182.13 112.938 1182.75 111.969 Q1183.36 111 1184.07 111 Q1184.69 111 1185.19 111.531 Q1185.69 112.062 1185.69 112.781 Q1185.69 115.016 1182.46 116.625 Q1179.69 118 1177.08 118 ZM1176.58 103 Q1174.38 103 1172.92 104.344 Q1171.46 105.688 1170.74 108.375 L1176.29 106.312 Q1179.55 105.062 1180.94 104.141 Q1179.4 103 1176.58 103 Z"/>
  <path fill="#000000ff" d="M1202.79 104.734 Q1202.66 107 1200.97 107 Q1199.43 107 1199.43 105.047 Q1199.43 104.672 1199.38 103.656 L1199.32 102 Q1196.47 102.328 1194.76 103.531 Q1193.15 104.641 1192.08 106.875 L1192.11 116.266 Q1192.11 118 1190.33 118 Q1188.74 118 1188.74 116.266 L1188.74 104.156 Q1188.74 103.594 1188.79 102.453 Q1188.83 101.312 1188.83 100.734 Q1188.83 99 1190.43 99 Q1192.19 99 1192.21 101.969 Q1195.68 99 1199.9 99 Q1201.36 99 1202.08 100.109 Q1202.8 101.219 1202.8 103.453 Q1202.8 104.406 1202.79 104.734 Z"/>
  <path fill="#000000ff" d="M1209.82 95 Q1208.94 95 1208.31 94.4141 Q1207.68 93.8281 1207.68 93 Q1207.68 92.1719 1208.31 91.5859 Q1208.94 91 1209.82 91 Q1210.68 91 1211.3 91.5859 Q1211.93 92.1719 1211.93 93 Q1211.93 93.8281 1211.3 94.4141 Q1210.68 95 1209.82 95 ZM1210.63 109.531 Q1210.63 110.625 1210.69 112.836 Q1210.76 115.047 1210.76 116.156 Q1210.76 116.969 1210.26 117.484 Q1209.77 118 1208.97 118 Q1208.21 118 1207.71 117.484 Q1207.21 116.969 1207.21 116.156 Q1207.21 115.047 1207.15 112.836 Q1207.08 110.625 1207.08 109.531 Q1207.08 107.797 1207.26 105.195 Q1207.44 102.594 1207.44 100.859 Q1207.44 100.031 1207.94 99.5156 Q1208.44 99 1209.21 99 Q1209.99 99 1210.49 99.5156 Q1210.99 100.031 1210.99 100.859 Q1210.99 102.594 1210.81 105.195 Q1210.63 107.797 1210.63 109.531 Z"/>
  <path fill="#000000ff" d="M1223.41 118 Q1220.38 118 1218.19 115.844 Q1215.76 113.453 1215.63 109.422 Q1215.52 105.5 1217.69 102.516 Q1220.22 99 1224.74 99 Q1228.35 99 1230.21 102.172 Q1231.69 104.734 1231.63 108.344 Q1231.58 112.188 1229.54 114.922 Q1227.22 118 1223.41 118 ZM1224.51 103 Q1221.85 102.984 1220.36 105.234 Q1219.19 107.031 1219.19 109.328 Q1219.19 111.641 1220.61 112.938 Q1221.8 114 1223.41 114 Q1225.29 114 1226.65 112.797 Q1228.18 111.453 1228.27 109.172 Q1228.54 103.016 1224.51 103 Z"/>
  <path fill="#000000ff" d="M1250.66 106.938 Q1250.66 108.141 1250.68 110.539 Q1250.69 112.938 1250.69 114.141 Q1250.69 114.5 1250.76 115.25 Q1250.83 116 1250.83 116.359 Q1250.83 117.078 1250.31 117.539 Q1249.79 118 1249.02 118 Q1247.63 118 1247.26 116.828 Q1244.99 118 1242.05 118 Q1239.68 118 1238.13 117.016 Q1236.41 115.922 1236.08 113.828 Q1235.38 109.312 1235.38 105.797 Q1235.38 103.453 1235.93 100.484 Q1236.18 99 1237.65 99 Q1238.41 99 1238.93 99.4531 Q1239.46 99.9062 1239.46 100.609 Q1239.46 101.359 1239.2 103.023 Q1238.94 104.688 1238.94 105.562 Q1238.94 108.297 1239.14 110.25 Q1239.33 112.203 1239.74 113.391 Q1240.33 113.688 1240.91 113.844 Q1241.49 114 1242.05 114 Q1244.47 114 1247.16 113.281 L1247.15 109.938 L1247.1 106.719 Q1247.1 103.156 1247.44 100.516 Q1247.65 99 1249.19 99 Q1249.97 99 1250.5 99.4688 Q1251.02 99.9375 1250.99 100.641 L1250.66 106.938 Z"/>
  <path fill="#000000ff" d="M1267.18 104 Q1266.19 104 1265.79 103.234 Q1265.52 102.703 1265.32 101 Q1263.96 101.312 1261.15 102.172 Q1258.24 103.25 1258.22 104.828 Q1258.77 105.016 1259.29 105.109 Q1263.44 105.828 1265.47 107.109 Q1268.41 108.953 1268.41 112.469 Q1268.41 115.344 1265.86 116.797 Q1263.76 118 1260.51 118 Q1258.15 118 1255.99 117.125 Q1253.21 116 1253.21 114 Q1253.21 113.203 1253.78 112.602 Q1254.35 112 1255.07 112 Q1255.63 112 1256.52 112.984 Q1256.94 113.453 1258.47 113.75 Q1259.68 114 1260.51 114 Q1262.02 114 1263.18 113.656 Q1264.86 113.172 1264.86 112.109 Q1264.86 109.828 1261.43 109.016 L1259.55 108.625 Q1257.15 108.125 1256.15 107.469 Q1254.68 106.5 1254.68 104.578 Q1254.68 101.016 1258.24 99.4844 Q1259.32 99.0312 1261.7 98.3906 Q1264.08 97.75 1265.11 97.3125 Q1265.86 97 1266.72 97 Q1267.51 97 1268.01 97.5234 Q1268.51 98.0469 1268.51 98.9062 Q1268.51 99.4531 1268.73 100.5 Q1268.96 101.547 1268.96 102.094 Q1268.96 102.953 1268.46 103.477 Q1267.96 104 1267.18 104 Z"/>
  <path fill="#000000ff" d=""/>
  <path fill="#000000ff" d="M1306.74 118 Q1305.26 118 1305.01 116.594 Q1304.68 114.828 1304.36 111.609 L1303.74 106.625 Q1303.57 105.516 1303.13 104.453 Q1302.52 103 1301.8 103 Q1301.13 103 1299.3 104.031 Q1297.57 104.984 1297.02 105.562 Q1297.01 107.109 1297.11 108.656 L1297.66 113.047 Q1298.01 115.641 1298.01 117.344 Q1298.01 118.062 1297.51 118.531 Q1297.01 119 1296.22 119 Q1295.46 119 1294.96 118.539 Q1294.46 118.078 1294.46 117.359 Q1294.46 115.375 1294.01 111.523 Q1293.57 107.672 1293.57 105.688 Q1293.57 103.969 1293.02 103 Q1291.76 103.531 1290.46 104.719 L1288.33 106.906 Q1288.04 107.297 1287.41 107.938 Q1287.41 108.938 1287.22 110.867 Q1287.02 112.797 1287.02 113.719 Q1287.02 114.219 1287.19 115.109 Q1287.36 116 1287.36 116.391 Q1287.36 117.078 1286.81 117.539 Q1286.26 118 1285.51 118 Q1283.47 118 1283.47 113.797 Q1283.47 112.812 1283.67 110.867 Q1283.86 108.922 1283.86 107.938 Q1283.86 107.062 1283.69 105.328 Q1283.52 103.594 1283.52 102.719 Q1283.52 99 1285.36 99 Q1286.07 99 1286.66 99.1328 Q1287.26 99.2656 1287.26 99.9844 Q1287.26 100.328 1287.16 101.055 Q1287.07 101.781 1287.07 102.156 L1287.1 104.062 Q1288.04 102.125 1289.86 100.562 Q1291.69 99 1292.97 99 Q1295.8 99 1296.88 101.641 Q1297.86 100.328 1299.24 99.6641 Q1300.61 99 1302.38 99 Q1305.4 99 1306.51 102.031 Q1306.72 102.625 1307.26 106.75 Q1307.76 109.641 1308.55 116.391 Q1308.6 117.062 1308.06 117.531 Q1307.52 118 1306.74 118 Z"/>
  <path fill="#000000ff" d="M1320.72 118 Q1316.65 118 1314.11 116.031 Q1311.35 113.859 1311.35 109.938 Q1311.35 105.406 1313.63 102.344 Q1316.1 99 1320.24 99 Q1323.24 99 1325.13 99.9688 Q1327.46 101.172 1327.46 103.656 Q1327.46 105.406 1325.41 106.828 Q1324.52 107.344 1321.58 108.422 L1314.69 110.984 Q1315.71 112.484 1317.22 113.242 Q1318.72 114 1320.72 114 Q1321.97 114 1323.65 113.531 Q1325.77 112.938 1326.39 111.969 Q1327.01 111 1327.71 111 Q1328.33 111 1328.83 111.531 Q1329.33 112.062 1329.33 112.781 Q1329.33 115.016 1326.1 116.625 Q1323.33 118 1320.72 118 ZM1320.22 103 Q1318.02 103 1316.56 104.344 Q1315.1 105.688 1314.38 108.375 L1319.93 106.312 Q1323.19 105.062 1324.58 104.141 Q1323.04 103 1320.22 103 Z"/>
  <path fill="#000000ff" d="M1346.49 118 Q1346.15 118 1345.24 117.25 Q1344.43 116.547 1344.02 116 Q1342.29 116.984 1340.97 117.492 Q1339.66 118 1338.77 118 Q1334.54 118 1332.61 115.719 Q1330.79 113.562 1330.79 109.141 Q1330.79 104.953 1333.79 101.977 Q1336.8 99 1340.97 99 Q1342.55 99 1344.49 99.7656 Q1346.96 100.734 1346.96 102.078 Q1346.96 102.547 1346.6 102.906 Q1346.41 103.547 1346.31 105.039 Q1346.21 106.531 1346.19 108.859 Q1346.18 110.984 1346.51 112.219 Q1346.68 112.969 1347.63 115.234 Q1347.77 115.531 1348.05 116.141 L1348.16 116.422 Q1348.16 117.109 1347.65 117.555 Q1347.15 118 1346.49 118 ZM1342.72 106.516 Q1342.72 105.875 1342.83 105.133 Q1342.93 104.391 1343.13 103.547 Q1342.46 103.266 1341.97 103.133 Q1341.49 103 1341.21 103 Q1338.41 103 1336.38 104.867 Q1334.35 106.734 1334.35 109.156 Q1334.35 111.578 1335.4 112.789 Q1336.44 114 1338.54 114 Q1340.27 114 1341.47 113.484 Q1342.13 113.203 1343.3 112.359 Q1342.72 108.453 1342.72 106.516 Z"/>
  <path fill="#000000ff" d="M1363.33 104 Q1362.35 104 1361.94 103.234 Q1361.68 102.703 1361.47 101 Q1360.11 101.312 1357.3 102.172 Q1354.4 103.25 1354.38 104.828 Q1354.93 105.016 1355.44 105.109 Q1359.6 105.828 1361.63 107.109 Q1364.57 108.953 1364.57 112.469 Q1364.57 115.344 1362.02 116.797 Q1359.91 118 1356.66 118 Q1354.3 118 1352.15 117.125 Q1349.36 116 1349.36 114 Q1349.36 113.203 1349.93 112.602 Q1350.51 112 1351.22 112 Q1351.79 112 1352.68 112.984 Q1353.1 113.453 1354.63 113.75 Q1355.83 114 1356.66 114 Q1358.18 114 1359.33 113.656 Q1361.02 113.172 1361.02 112.109 Q1361.02 109.828 1357.58 109.016 L1355.71 108.625 Q1353.3 108.125 1352.3 107.469 Q1350.83 106.5 1350.83 104.578 Q1350.83 101.016 1354.4 99.4844 Q1355.47 99.0312 1357.86 98.3906 Q1360.24 97.75 1361.27 97.3125 Q1362.02 97 1362.88 97 Q1363.66 97 1364.16 97.5234 Q1364.66 98.0469 1364.66 98.9062 Q1364.66 99.4531 1364.89 100.5 Q1365.11 101.547 1365.11 102.094 Q1365.11 102.953 1364.61 103.477 Q1364.11 104 1363.33 104 Z"/>
  <path fill="#000000ff" d="M1383.74 106.938 Q1383.74 108.141 1383.76 110.539 Q1383.77 112.938 1383.77 114.141 Q1383.77 114.5 1383.84 115.25 Q1383.91 116 1383.91 116.359 Q1383.91 117.078 1383.39 117.539 Q1382.86 118 1382.1 118 Q1380.71 118 1380.33 116.828 Q1378.07 118 1375.13 118 Q1372.76 118 1371.21 117.016 Q1369.49 115.922 1369.16 113.828 Q1368.46 109.312 1368.46 105.797 Q1368.46 103.453 1369.01 100.484 Q1369.26 99 1370.72 99 Q1371.49 99 1372.01 99.4531 Q1372.54 99.9062 1372.54 100.609 Q1372.54 101.359 1372.28 103.023 Q1372.02 104.688 1372.02 105.562 Q1372.02 108.297 1372.22 110.25 Q1372.41 112.203 1372.82 113.391 Q1373.41 113.688 1373.99 113.844 Q1374.57 114 1375.13 114 Q1377.55 114 1380.24 113.281 L1380.22 109.938 L1380.18 106.719 Q1380.18 103.156 1380.52 100.516 Q1380.72 99 1382.27 99 Q1383.05 99 1383.58 99.4688 Q1384.1 99.9375 1384.07 100.641 L1383.74 106.938 Z"/>
  <path fill="#000000ff" d="M1402.11 104.734 Q1401.99 107 1400.3 107 Q1398.76 107 1398.76 105.047 Q1398.76 104.672 1398.71 103.656 L1398.65 102 Q1395.8 102.328 1394.08 103.531 Q1392.47 104.641 1391.41 106.875 L1391.44 116.266 Q1391.44 118 1389.66 118 Q1388.07 118 1388.07 116.266 L1388.07 104.156 Q1388.07 103.594 1388.11 102.453 Q1388.16 101.312 1388.16 100.734 Q1388.16 99 1389.76 99 Q1391.52 99 1391.54 101.969 Q1395.01 99 1399.22 99 Q1400.69 99 1401.41 100.109 Q1402.13 101.219 1402.13 103.453 Q1402.13 104.406 1402.11 104.734 Z"/>
  <path fill="#000000ff" d="M1414.13 118 Q1410.05 118 1407.52 116.031 Q1404.76 113.859 1404.76 109.938 Q1404.76 105.406 1407.04 102.344 Q1409.51 99 1413.65 99 Q1416.65 99 1418.54 99.9688 Q1420.86 101.172 1420.86 103.656 Q1420.86 105.406 1418.82 106.828 Q1417.93 107.344 1414.99 108.422 L1408.1 110.984 Q1409.11 112.484 1410.62 113.242 Q1412.13 114 1414.13 114 Q1415.38 114 1417.05 113.531 Q1419.18 112.938 1419.79 111.969 Q1420.41 111 1421.11 111 Q1421.74 111 1422.24 111.531 Q1422.74 112.062 1422.74 112.781 Q1422.74 115.016 1419.51 116.625 Q1416.74 118 1414.13 118 ZM1413.63 103 Q1411.43 103 1409.97 104.344 Q1408.51 105.688 1407.79 108.375 L1413.33 106.312 Q1416.6 105.062 1417.99 104.141 Q1416.44 103 1413.63 103 Z"/>
  <path fill="#000000ff" d="M1448.72 118 Q1447.24 118 1446.99 116.594 Q1446.66 114.828 1446.35 111.609 L1445.72 106.625 Q1445.55 105.516 1445.11 104.453 Q1444.51 103 1443.79 103 Q1443.11 103 1441.29 104.031 Q1439.55 104.984 1439.01 105.562 Q1438.99 107.109 1439.1 108.656 L1439.65 113.047 Q1439.99 115.641 1439.99 117.344 Q1439.99 118.062 1439.49 118.531 Q1438.99 119 1438.21 119 Q1437.44 119 1436.94 118.539 Q1436.44 118.078 1436.44 117.359 Q1436.44 115.375 1436 111.523 Q1435.55 107.672 1435.55 105.688 Q1435.55 103.969 1435.01 103 Q1433.74 103.531 1432.44 104.719 L1430.32 106.906 Q1430.02 107.297 1429.4 107.938 Q1429.4 108.938 1429.2 110.867 Q1429.01 112.797 1429.01 113.719 Q1429.01 114.219 1429.18 115.109 Q1429.35 116 1429.35 116.391 Q1429.35 117.078 1428.79 117.539 Q1428.24 118 1427.49 118 Q1425.46 118 1425.46 113.797 Q1425.46 112.812 1425.65 110.867 Q1425.85 108.922 1425.85 107.938 Q1425.85 107.062 1425.68 105.328 Q1425.51 103.594 1425.51 102.719 Q1425.51 99 1427.35 99 Q1428.05 99 1428.65 99.1328 Q1429.24 99.2656 1429.24 99.9844 Q1429.24 100.328 1429.15 101.055 Q1429.05 101.781 1429.05 102.156 L1429.08 104.062 Q1430.02 102.125 1431.85 100.562 Q1433.68 99 1434.96 99 Q1437.79 99 1438.86 101.641 Q1439.85 100.328 1441.22 99.6641 Q1442.6 99 1444.36 99 Q1447.38 99 1448.49 102.031 Q1448.71 102.625 1449.24 106.75 Q1449.74 109.641 1450.54 116.391 Q1450.58 117.062 1450.04 117.531 Q1449.51 118 1448.72 118 Z"/>
  <path fill="#000000ff" d="M1462.71 118 Q1458.63 118 1456.1 116.031 Q1453.33 113.859 1453.33 109.938 Q1453.33 105.406 1455.61 102.344 Q1458.08 99 1462.22 99 Q1465.22 99 1467.11 99.9688 Q1469.44 101.172 1469.44 103.656 Q1469.44 105.406 1467.4 106.828 Q1466.51 107.344 1463.57 108.422 L1456.68 110.984 Q1457.69 112.484 1459.2 113.242 Q1460.71 114 1462.71 114 Q1463.96 114 1465.63 113.531 Q1467.76 112.938 1468.37 111.969 Q1468.99 111 1469.69 111 Q1470.32 111 1470.82 111.531 Q1471.32 112.062 1471.32 112.781 Q1471.32 115.016 1468.08 116.625 Q1465.32 118 1462.71 118 ZM1462.21 103 Q1460.01 103 1458.54 104.344 Q1457.08 105.688 1456.36 108.375 L1461.91 106.312 Q1465.18 105.062 1466.57 104.141 Q1465.02 103 1462.21 103 Z"/>
  <path fill="#000000ff" d="M1488.21 118 Q1486.66 118 1486.46 116.5 L1485.96 113 Q1485.71 111.125 1485.71 109.5 Q1485.71 109.047 1485.77 107.977 Q1485.83 106.906 1485.83 106.453 Q1485.83 103 1484.4 103 Q1482.36 103 1480.52 105.188 Q1478.86 107.156 1477.91 110.203 Q1477.88 110.844 1477.76 111.797 Q1477.65 112.625 1477.65 113.391 Q1477.65 113.891 1477.76 114.875 Q1477.86 115.859 1477.86 116.344 Q1477.86 117.078 1477.36 117.539 Q1476.86 118 1476.08 118 Q1475.3 118 1474.81 117.531 Q1474.32 117.062 1474.32 116.312 Q1474.32 115.812 1474.2 114.812 Q1474.08 113.812 1474.08 113.312 Q1474.08 111.594 1474.35 108.555 Q1474.61 105.516 1474.61 103.797 Q1474.61 103.266 1474.55 102.219 Q1474.49 101.172 1474.49 100.641 Q1474.49 99.9219 1475.01 99.4609 Q1475.52 99 1476.29 99 Q1477.94 99 1478.11 101.109 L1478.16 103 Q1481.19 99 1484.4 99 Q1487.29 99 1488.43 101.344 Q1489.19 102.922 1489.27 105.984 L1489.27 107.672 L1489.24 109.219 Q1489.24 110.594 1489.63 112.789 Q1490.02 114.984 1490.02 116.344 Q1490.02 117.078 1489.51 117.539 Q1488.99 118 1488.21 118 Z"/>
  <path fill="#000000ff" d="M1505.66 102.781 Q1505.27 102.781 1504.76 102.742 Q1504.26 102.703 1503.86 102.703 Q1503.46 102.703 1501.41 103 L1501.76 112.797 L1501.77 113.531 L1501.79 114.375 Q1501.85 118 1499.9 118 Q1499.16 118 1498.63 117.57 Q1498.1 117.141 1498.1 116.484 Q1498.1 115.859 1498.15 114.594 Q1498.21 113.328 1498.21 112.703 L1497.85 103 Q1496.52 102.938 1493.83 102.656 Q1492.22 102.422 1492.22 100.688 Q1492.22 99.8125 1492.71 99.2578 Q1493.19 98.7031 1493.96 98.7031 L1497.76 99 Q1497.76 98.1406 1497.68 96.7031 Q1497.6 95.2656 1497.6 94.625 Q1497.6 93.9219 1498.12 93.4609 Q1498.65 93 1499.4 93 Q1501.04 93 1501.3 95.4844 Q1501.35 96.0938 1501.35 96.9844 L1501.32 97.9531 L1501.3 99 Q1503.54 98.7188 1503.86 98.7188 Q1505.74 98.7188 1506.32 98.8906 Q1507.43 99.2812 1507.43 100.766 Q1507.43 101.641 1506.93 102.211 Q1506.43 102.781 1505.66 102.781 Z"/>
  <path d="M990.062 116.75 C982.469 116.75 976.312 110.594 976.312 103 C976.312 95.4061 982.469 89.25 990.062 89.25 C997.656 89.25 1003.81 95.4061 1003.81 103 C1003.81 110.594 997.656 116.75 990.062 116.75 Z" fill="#000000" fill-opacity="1.000000"/>
</svg>