<svg xmlns="http://www.w3.org/2000/svg" width="1024.000000" height="512.000000">
  <rect width="1024.000000" height="512.000000" fill="#ffffff" fill-opacity="1.000000"/>
  <path d="M198.531 404 L987.333 404 " fill="none" stroke-width="3.333333" stroke="#000000ff"/>
  <path d="M311.217 404 L311.217 390.667 " fill="none" stroke-width="3.333333" stroke="#000000ff"/>
  <path d="M423.903 404 L423.903 390.667 " fill="none" stroke-width="3.333333" stroke="#000000ff"/>
  <path d="M536.589 404 L536.589 390.667 " fill="none" stroke-width="3.333333" stroke="#000000ff"/>
  <path d="M649.275 404 L649.275 390.667 " fill="none" stroke-width="3.333333" stroke="#000000ff"/>
  <path d="M761.961 404 L761.961 390.667 " fill="none" stroke-width="3.333333" stroke="#000000ff"/>
  <path d="M874.647 404 L874.647 390.667 " fill="none" stroke-width="3.333333" stroke="#000000ff"/>
  <text x="285.732887" y="467.333333" fill="#000000ff" font-size="36.666667" font-family="Arial,Helvetica,'Helvetica Neue',sans-serif" font-weight="500.000000">1.0</text>
  <text x="398.418899" y="467.333333" fill="#000000ff" font-size="36.666667" font-family="Arial,Helvetica,'Helvetica Neue',sans-serif" font-weight="500.000000">2.0</text>
  <text x="511.104911" y="467.333333" fill="#000000ff" font-size="36.666667" font-family="Arial,Helvetica,'Helvetica Neue',sans-serif" font-weight="500.000000">3.0</text>
  <text x="623.790923" y="467.333333" fill="#000000ff" font-size="36.666667" font-family="Arial,Helvetica,'Helvetica Neue',sans-serif" font-weight="500.000000">4.0</text>
  <text x="736.476935" y="467.333333" fill="#000000ff" font-size="36.666667" font-family="Arial,Helvetica,'Helvetica Neue',sans-serif" font-weight="500.000000">5.0</text>
  <text x="849.162946" y="467.333333" fill="#000000ff" font-size="36.666667" font-family="Arial,Helvetica,'Helvetica Neue',sans-serif" font-weight="500.000000">6.0</text>
  <path d="M198.531 404 L198.531 36.6667 " fill="none" stroke-width="3.333333" stroke="#000000ff"/>
  <path d="M198.531 404 L211.865 404 " fill="none" stroke-width="3.333333" stroke="#000000ff"/>
  <path d="M198.531 376.355 L211.865 376.355 " fill="none" stroke-width="3.333333" stroke="#000000ff"/>
  <path d="M198.531 360.184 L211.865 360.184 " fill="none" stroke-width="3.333333" stroke="#000000ff"/>
  <path d="M198.531 348.711 L211.865 348.711 " fill="none" stroke-width="3.333333" stroke="#000000ff"/>
  <path d="M198.531 339.811 L211.865 339.811 " fill="none" stroke-width="3.333333" stroke="#000000ff"/>
  <path d="M198.531 332.54 L211.865 332.54 " fill="none" stroke-width="3.333333" stroke="#000000ff"/>
  <path d="M198.531 326.392 L211.865 326.392 " fill="none" stroke-width="3.333333" stroke="#000000ff"/>
  <path d="M198.531 321.066 L211.865 321.066 " fill="none" stroke-width="3.333333" stroke="#000000ff"/>
  <path d="M198.531 316.369 L211.865 316.369 " fill="none" stroke-width="3.333333" stroke="#000000ff"/>
  <path d="M198.531 312.167 L211.865 312.167 " fill="none" stroke-width="3.333333" stroke="#000000ff"/>
  <path d="M198.531 284.522 L211.865 284.522 " fill="none" stroke-width="3.333333" stroke="#000000ff"/>
  <path d="M198.531 268.351 L211.865 268.351 " fill="none" stroke-width="3.333333" stroke="#000000ff"/>
  <path d="M198.531 256.877 L211.865 256.877 " fill="none" stroke-width="3.333333" stroke="#000000ff"/>
  <path d="M198.531 247.978 L211.865 247.978 " fill="none" stroke-width="3.333333" stroke="#000000ff"/>
  <path d="M198.531 240.706 L211.865 240.706 " fill="none" stroke-width="3.333333" stroke="#000000ff"/>
  <path d="M198.531 234.558 L211.865 234.558 " fill="none" stroke-width="3.333333" stroke="#000000ff"/>
  <path d="M198.531 229.233 L211.865 229.233 " fill="none" stroke-width="3.333333" stroke="#000000ff"/>
  <path d="M198.531 224.535 L211.865 224.535 " fill="none" stroke-width="3.333333" stroke="#000000ff"/>
  <path d="M198.531 220.333 L211.865 220.333 " fill="none" stroke-width="3.333333" stroke="#000000ff"/>
  <path d="M198.531 192.689 L211.865 192.689 " fill="none" stroke-width="3.333333" stroke="#000000ff"/>
  <path d="M198.531 176.518 L211.865 176.518 " fill="none" stroke-width="3.333333" stroke="#000000ff"/>
  <path d="M198.531 165.044 L211.865 165.044 " fill="none" stroke-width="3.333333" stroke="#000000ff"/>
  <path d="M198.531 156.145 L211.865 156.145 " fill="none" stroke-width="3.333333" stroke="#000000ff"/>
  <path d="M198.531 148.873 L211.865 148.873 " fill="none" stroke-width="3.333333" stroke="#000000ff"/>
  <path d="M198.531 142.725 L211.865 142.725 " fill="none" stroke-width="3.333333" stroke="#000000ff"/>
  <path d="M198.531 137.4 L211.865 137.4 " fill="none" stroke-width="3.333333" stroke="#000000ff"/>
  <path d="M198.531 132.702 L211.865 132.702 " fill="none" stroke-width="3.333333" stroke="#000000ff"/>
  <path d="M198.531 128.5 L211.865 128.5 " fill="none" stroke-width="3.333333" stroke="#000000ff"/>
  <path d="M198.531 100.855 L211.865 100.855 " fill="none" stroke-width="3.333333" stroke="#000000ff"/>
  <path d="M198.531 84.6844 L211.865 84.6844 " fill="none" stroke-width="3.333333" stroke="#000000ff"/>
  <path d="M198.531 73.2108 L211.865 73.2108 " fill="none" stroke-width="3.333333" stroke="#000000ff"/>
  <path d="M198.531 64.3113 L211.865 64.3113 " fill="none" stroke-width="3.333333" stroke="#000000ff"/>
  <path d="M198.531 57.0398 L211.865 57.0398 " fill="none" stroke-width="3.333333" stroke="#000000ff"/>
  <path d="M198.531 50.8918 L211.865 50.8918 " fill="none" stroke-width="3.333333" stroke="#000000ff"/>
  <path d="M198.531 45.5662 L211.865 45.5662 " fill="none" stroke-width="3.333333" stroke="#000000ff"/>
  <path d="M198.531 40.8687 L211.865 40.8687 " fill="none" stroke-width="3.333333" stroke="#000000ff"/>
  <path d="M198.531 36.6667 L211.865 36.6667 " fill="none" stroke-width="3.333333" stroke="#000000ff"/>
  <text x="118.229167" y="417.000000" fill="#000000ff" font-size="36.666667" font-family="Arial,Helvetica,'Helvetica Neue',sans-serif" font-weight="500.000000">1.0</text>
  <text x="97.838542" y="325.166667" fill="#000000ff" font-size="36.666667" font-family="Arial,Helvetica,'Helvetica Neue',sans-serif" font-weight="500.000000">10.0</text>
  <text x="77.447917" y="233.333333" fill="#000000ff" font-size="36.666667" font-family="Arial,Helvetica,'Helvetica Neue',sans-serif" font-weight="500.000000">100.0</text>
  <text x="57.057292" y="141.500000" fill="#000000ff" font-size="36.666667" font-family="Arial,Helvetica,'Helvetica Neue',sans-serif" font-weight="500.000000">1000.0</text>
  <text x="36.666667" y="49.666667" fill="#000000ff" font-size="36.666667" font-family="Arial,Helvetica,'Helvetica Neue',sans-serif" font-weight="500.000000">10000.0</text>
  <path d="M278.217 404 L278.217 64.7524 L344.217 64.7524 L344.217 404 Z" fill="#666666" fill-opacity="1.000000"/>
  <path d="M390.903 404 L390.903 252.18 L456.903 252.18 L456.903 404 Z" fill="#666666" fill-opacity="1.000000"/>
  <path d="M503.589 404 L503.589 332.54 L569.589 332.54 L569.589 404 Z" fill="#666666" fill-opacity="1.000000"/>
  <path d="M616.275 404 L616.275 348.711 L682.275 348.711 L682.275 404 Z" fill="#666666" fill-opacity="1.000000"/>
  <path d="M728.961 404 L728.961 376.355 L794.961 376.355 L794.961 404 Z" fill="#666666" fill-opacity="1.000000"/>
  <path d="M841.647 404 L841.647 404 L907.647 404 L907.647 404 Z" fill="#666666" fill-opacity="1.000000"/>
</svg>