<svg xmlns="http://www.w3.org/2000/svg" width="2048.000000" height="512.000000">
  <rect width="2048.000000" height="512.000000" fill="#ffffff" fill-opacity="1.000000"/>
  <path d="M218.266 404 L2011.33 404 " fill="none" stroke-width="3.333333" stroke="#000000ff"/>
  <path d="M442.399 404 L442.399 390.667 " fill="none" stroke-width="3.333333" stroke="#000000ff"/>
  <path d="M666.533 404 L666.533 390.667 " fill="none" stroke-width="3.333333" stroke="#000000ff"/>
  <path d="M890.666 404 L890.666 390.667 " fill="none" stroke-width="3.333333" stroke="#000000ff"/>
  <path d="M1114.8 404 L1114.8 390.667 " fill="none" stroke-width="3.333333" stroke="#000000ff"/>
  <path d="M1338.93 404 L1338.93 390.667 " fill="none" stroke-width="3.333333" stroke="#000000ff"/>
  <path d="M1563.07 404 L1563.07 390.667 " fill="none" stroke-width="3.333333" stroke="#000000ff"/>
  <path d="M1787.2 404 L1787.2 390.667 " fill="none" stroke-width="3.333333" stroke="#000000ff"/>
  <path d="M2011.33 404 L2011.33 390.667 " fill="none" stroke-width="3.333333" stroke="#000000ff"/>
  <text x="371.039714" y="467.333333" fill="#000000ff" font-size="36.666667" font-family="Arial,Helvetica,'Helvetica Neue',sans-serif" font-weight="500.000000">00:15:00</text>
  <text x="595.173177" y="467.333333" fill="#000000ff" font-size="36.666667" font-family="Arial,Helvetica,'Helvetica Neue',sans-serif" font-weight="500.000000">00:30:00</text>
  <text x="819.306641" y="467.333333" fill="#000000ff" font-size="36.666667" font-family="Arial,Helvetica,'Helvetica Neue',sans-serif" font-weight="500.000000">00:45:00</text>
  <text x="1043.440104" y="467.333333" fill="#000000ff" font-size="36.666667" font-family="Arial,Helvetica,'Helvetica Neue',sans-serif" font-weight="500.000000">01:00:00</text>
  <text x="1267.573568" y="467.333333" fill="#000000ff" font-size="36.666667" font-family="Arial,Helvetica,'Helvetica Neue',sans-serif" font-weight="500.000000">01:15:00</text>
  <text x="1491.707031" y="467.333333" fill="#000000ff" font-size="36.666667" font-family="Arial,Helvetica,'Helvetica Neue',sans-serif" font-weight="500.000000">01:30:00</text>
  <text x="1715.840495" y="467.333333" fill="#000000ff" font-size="36.666667" font-family="Arial,Helvetica,'Helvetica Neue',sans-serif" font-weight="500.000000">01:45:00</text>
  <text x="1939.973958" y="467.333333" fill="#000000ff" font-size="36.666667" font-family="Arial,Helvetica,'Helvetica Neue',sans-serif" font-weight="500.000000">02:00:00</text>
  <path d="M218.266 404 L218.266 36.6667 " fill="none" stroke-width="3.333333" stroke="#000000ff"/>
  <path d="M218.266 404 L231.599 404 " fill="none" stroke-width="3.333333" stroke="#000000ff"/>
  <path d="M218.266 367.267 L231.599 367.267 " fill="none" stroke-width="3.333333" stroke="#000000ff"/>
  <path d="M218.266 330.533 L231.599 330.533 " fill="none" stroke-width="3.333333" stroke="#000000ff"/>
  <path d="M218.266 293.8 L231.599 293.8 " fill="none" stroke-width="3.333333" stroke="#000000ff"/>
  <path d="M218.266 257.067 L231.599 257.067 " fill="none" stroke-width="3.333333" stroke="#000000ff"/>
  <path d="M218.266 220.333 L231.599 220.333 " fill="none" stroke-width="3.333333" stroke="#000000ff"/>
  <path d="M218.266 183.6 L231.599 183.6 " fill="none" stroke-width="3.333333" stroke="#000000ff"/>
  <path d="M218.266 146.867 L231.599 146.867 " fill="none" stroke-width="3.333333" stroke="#000000ff"/>
  <path d="M218.266 110.133 L231.599 110.133 " fill="none" stroke-width="3.333333" stroke="#000000ff"/>
  <path d="M218.266 73.4 L231.599 73.4 " fill="none" stroke-width="3.333333" stroke="#000000ff"/>
  <path d="M218.266 36.6667 L231.599 36.6667 " fill="none" stroke-width="3.333333" stroke="#000000ff"/>
  <text x="36.666667" y="412.500000" fill="#000000ff" font-size="36.666667" font-family="Arial,Helvetica,'Helvetica Neue',sans-serif" font-weight="500.000000">-5.0 × 10⁰</text>
  <text x="36.666667" y="375.766666" fill="#000000ff" font-size="36.666667" font-family="Arial,Helvetica,'Helvetica Neue',sans-serif" font-weight="500.000000">-4.0 × 10⁰</text>
  <text x="36.666667" y="339.033332" fill="#000000ff" font-size="36.666667" font-family="Arial,Helvetica,'Helvetica Neue',sans-serif" font-weight="500.000000">-3.0 × 10⁰</text>
  <text x="36.666667" y="302.299996" fill="#000000ff" font-size="36.666667" font-family="Arial,Helvetica,'Helvetica Neue',sans-serif" font-weight="500.000000">-2.0 × 10⁰</text>
  <text x="36.666667" y="265.566664" fill="#000000ff" font-size="36.666667" font-family="Arial,Helvetica,'Helvetica Neue',sans-serif" font-weight="500.000000">-1.0 × 10⁰</text>
  <text x="168.541667" y="233.333333" fill="#000000ff" font-size="36.666667" font-family="Arial,Helvetica,'Helvetica Neue',sans-serif" font-weight="500.000000">0</text>
  <text x="48.885417" y="192.099991" fill="#000000ff" font-size="36.666667" font-family="Arial,Helvetica,'Helvetica Neue',sans-serif" font-weight="500.000000">1.0 × 10⁰</text>
  <text x="48.885417" y="155.366671" fill="#000000ff" font-size="36.666667" font-family="Arial,Helvetica,'Helvetica Neue',sans-serif" font-weight="500.000000">2.0 × 10⁰</text>
  <text x="48.885417" y="118.633329" fill="#000000ff" font-size="36.666667" font-family="Arial,Helvetica,'Helvetica Neue',sans-serif" font-weight="500.000000">3.0 × 10⁰</text>
  <text x="48.885417" y="81.899987" fill="#000000ff" font-size="36.666667" font-family="Arial,Helvetica,'Helvetica Neue',sans-serif" font-weight="500.000000">4.0 × 10⁰</text>
  <text x="48.885417" y="45.166667" fill="#000000ff" font-size="36.666667" font-family="Arial,Helvetica,'Helvetica Neue',sans-serif" font-weight="500.000000">5.0 × 10⁰</text>
  <path d="M218.266 221.146 L223.246 222.32 L228.227 195.315 L233.208 203.922 L238.189 219.864 L243.169 245.422 L248.15 191.282 L253.131 201.733 L258.112 222.245 L263.092 192.053 L268.073 238.114 L273.054 256.01 L278.035 191.913 L283.015 195.199 L287.996 189.15 L292.977 252.845 L297.958 211.966 L302.938 255.088 L307.919 230.78 L312.9 190.532 L317.88 247.753 L322.861 207.616 L327.842 236.379 L332.823 200.04 L337.803 186.515 L342.784 215.43 L347.765 239.918 L352.746 201.073 L357.726 196.799 L362.707 201.998 L367.688 244.849 L372.669 198.352 L377.649 250.554 L382.63 254.5 L387.611 194.807 L392.592 247.526 L397.572 212.167 L402.553 228.259 L407.534 244.965 L412.515 185.893 L417.495 233.401 L422.476 232.447 L427.457 232.159 L432.438 196.145 L437.418 190.507 L442.399 185.522 L447.38 189.585 L452.361 188.272 L457.341 211.54 L462.322 197.883 L467.303 239.852 L472.284 226.86 L477.264 223.196 L482.245 196.976 L487.226 214.696 L492.207 200.719 L497.187 184.32 L502.168 211.664 L507.149 224.438 L512.129 194.654 L517.11 226.51 L522.091 188.59 L527.072 251.012 L532.052 193.924 L537.033 248.049 L542.014 190.344 L546.995 250.638 L551.975 225.137 L556.956 219.032 L561.937 205.234 L566.918 256.262 L571.898 197.272 L576.879 213.715 L581.86 202.3 L586.841 210.901 L591.821 203.825 L596.802 253.8 L601.783 208.53 L606.764 195.601 L611.744 190.018 L616.725 210.254 L621.706 230.379 L626.687 195.251 L631.667 221.679 L636.648 250.647 L641.629 212.447 L646.61 229.128 L651.59 192.382 L656.571 201.869 L661.552 216.033 L666.533 256.611 L671.513 239.078 L676.494 188.266 L681.475 203.174 L686.456 206.632 L691.436 191.423 L696.417 221.808 L701.398 240.228 L706.379 205.407 L711.359 227.281 L716.34 231.445 L721.321 229.183 L726.301 205.23 L731.282 236.267 L736.263 216.04 L741.244 217.469 L746.224 206.056 L751.205 211.513 L756.186 206.203 L761.167 240.715 L766.147 233.478 L771.128 214.344 L776.109 219.315 L781.09 255.504 L786.07 212.314 L791.051 210.559 L796.032 197.023 L801.013 247.71 L805.993 224.879 L810.974 209.345 L815.955 249.223 L820.936 244.307 L825.916 205.377 L830.897 250.741 L835.878 213.355 L840.859 192.854 L845.839 191.12 L850.82 227.517 L855.801 223.036 L860.782 200.1 L865.762 233.174 L870.743 246.266 L875.724 219.511 L880.705 192.363 L885.685 224.691 L890.666 209.912 L895.647 234.853 L900.628 248.02 L905.608 202.797 L910.589 256.719 L915.57 211.992 L920.55 219.198 L925.531 210.079 L930.512 221.457 L935.493 240.548 L940.473 234.252 L945.454 191.608 L950.435 212.584 L955.416 200.444 L960.396 241.819 L965.377 254.227 L970.358 227.738 L975.339 211.602 L980.319 205.533 L985.3 251.023 L990.281 201.008 L995.262 244.102 L1000.24 211.35 L1005.22 252.307 L1010.2 204.002 L1015.18 246.759 L1020.17 253.761 L1025.15 244.767 L1030.13 229.056 L1035.11 253.06 L1040.09 217.686 L1045.07 211.18 L1050.05 201.768 L1055.03 218.839 L1060.01 225.268 L1064.99 254.433 L1069.97 256.744 L1074.95 256.035 L1079.93 223.925 L1084.92 216.126 L1089.9 247.94 L1094.88 254.827 L1099.86 240.023 L1104.84 213.967 L1109.82 211.292 L1114.8 208.41 L1119.78 187.418 L1124.76 238.454 L1129.74 226.599 L1134.72 188.109 L1139.7 198.233 L1144.68 188.901 L1149.66 248.183 L1154.65 242.889 L1159.63 212.915 L1164.61 207.95 L1169.59 195.427 L1174.57 243.765 L1179.55 241.501 L1184.53 228.187 L1189.51 213.053 L1194.49 214.468 L1199.47 237.14 L1204.45 203.02 L1209.43 232.175 L1214.41 234.841 L1219.4 206.541 L1224.38 208.057 L1229.36 208.104 L1234.34 184.016 L1239.32 206.533 L1244.3 183.723 L1249.28 187.707 L1254.26 195.764 L1259.24 218.967 L1264.22 249.61 L1269.2 184.81 L1274.18 249.293 L1279.16 234.976 L1284.14 205.293 L1289.13 188.423 L1294.11 191.942 L1299.09 184.299 L1304.07 235.125 L1309.05 206.209 L1314.03 183.744 L1319.01 198.172 L1323.99 185.028 L1328.97 227.612 L1333.95 189.982 L1338.93 198.008 L1343.91 191.946 L1348.89 192.518 L1353.88 254.22 L1358.86 239.315 L1363.84 186.421 L1368.82 211.57 L1373.8 216.96 L1378.78 238.181 L1383.76 220.736 L1388.74 202.102 L1393.72 241.597 L1398.7 197.979 L1403.68 191.887 L1408.66 219.793 L1413.64 202.314 L1418.62 209.625 L1423.61 206.975 L1428.59 184.502 L1433.57 205.213 L1438.55 232.877 L1443.53 241.651 L1448.51 220.039 L1453.49 244.955 L1458.47 187.479 L1463.45 198.934 L1468.43 193.874 L1473.41 249.889 L1478.39 256.037 L1483.37 195.512 L1488.36 214.835 L1493.34 217.39 L1498.32 207.181 L1503.3 233.487 L1508.28 202.173 L1513.26 203.53 L1518.24 185.331 L1523.22 240.358 L1528.2 236.403 L1533.18 256.143 L1538.16 244.671 L1543.14 230.947 L1548.12 240.961 L1553.1 204.75 L1558.09 239.766 L1563.07 187.011 L1568.05 253.318 L1573.03 212.647 L1578.01 192.36 L1582.99 214.332 L1587.97 255.355 L1592.95 183.815 L1597.93 195.193 L1602.91 236.308 L1607.89 235.359 L1612.87 196.449 L1617.85 253.605 L1622.84 210.365 L1627.82 183.667 L1632.8 197.229 L1637.78 243.355 L1642.76 194.991 L1647.74 184.805 L1652.72 193.121 L1657.7 249.681 L1662.68 246.959 L1667.66 216.64 L1672.64 222.489 L1677.62 254.177 L1682.6 237.184 L1687.58 250.593 L1692.57 241.229 L1697.55 219.438 L1702.53 199.034 L1707.51 223.902 L1712.49 248.376 L1717.47 189.296 L1722.45 211.505 L1727.43 248.502 L1732.41 189.465 L1737.39 214.973 L1742.37 255.315 L1747.35 194.043 L1752.33 250.428 L1757.32 223.449 L1762.3 188.001 L1767.28 186.492 L1772.26 214.75 L1777.24 209.401 L1782.22 215.728 L1787.2 189.733 L1792.18 235.768 L1797.16 202.097 L1802.14 205.923 L1807.12 202.91 L1812.1 227.443 L1817.08 199.286 L1822.07 192.775 L1827.05 225.724 L1832.03 215.31 L1837.01 196.077 L1841.99 221.303 L1846.97 245.894 L1851.95 253.203 L1856.93 248.551 L1861.91 244.624 L1866.89 238.372 L1871.87 220.773 L1876.85 206.826 L1881.83 218.865 L1886.81 234.822 L1891.8 249.115 L1896.78 254.858 L1901.76 204.029 L1906.74 197.254 L1911.72 222.354 L1916.7 187.261 L1921.68 239.27 L1926.66 199.828 L1931.64 186.517 L1936.62 204.129 L1941.6 213.014 L1946.58 230.818 L1951.56 206.886 L1956.55 210.724 L1961.53 189.896 L1966.51 186.698 L1971.49 184.183 L1976.47 207.396 L1981.45 188.726 L1986.43 192.144 L1991.41 236.296 L1996.39 208.928 L2001.37 227.249 L2006.35 216.66 L2011.33 224.675 L2016.31 255.99 L2021.29 239.117 L2026.28 210.03 L2031.26 212.961 L2036.24 256.874 L2041.22 185.338 L2046.2 242.78 L2051.18 221.438 L2056.16 197.601 L2061.14 194.369 L2066.12 202.596 L2071.1 213.982 L2076.08 212.967 L2081.06 186.59 L2086.04 190.094 L2091.03 201.796 L2096.01 187.398 L2100.99 216.426 L2105.97 222.248 L2110.95 185.142 L2115.93 256.146 L2120.91 218.487 L2125.89 197.687 L2130.87 239.695 L2135.85 189.29 L2140.83 235.805 L2145.81 253.442 L2150.79 227.013 L2155.77 186.697 L2160.76 195.226 L2165.74 226.295 L2170.72 245.072 L2175.7 189.712 L2180.68 208.714 L2185.66 202.142 L2190.64 208.49 L2195.62 200.889 L2200.6 192.551 L2205.58 187.05 " fill="none" stroke-width="5.000000" stroke="#0066ccff"/>
  <text x="1726.432292" y="114.666667" fill="#000000ff" font-size="36.666667" font-family="Arial,Helvetica,'Helvetica Neue',sans-serif" font-weight="500.000000">Random Data</text>
  <path d="M1691.6 115.417 C1684.01 115.417 1677.85 109.261 1677.85 101.667 C1677.85 94.0728 1684.01 87.9167 1691.6 87.9167 C1699.19 87.9167 1705.35 94.0728 1705.35 101.667 C1705.35 109.261 1699.19 115.417 1691.6 115.417 Z" fill="#0066cc" fill-opacity="1.000000"/>
</svg>