<svg xmlns="http://www.w3.org/2000/svg" width="2048.000000" height="512.000000">
  <rect width="2048.000000" height="512.000000" fill="#ffffffff"/>
  <path d="M129.188 404 L2011.33 404 L2011.33 36.6667 L129.188 36.6667 Z" fill="#eeeeeeff"/>
  <path d="M341.46 404 L341.46 36.6667 " fill="none" stroke-width="3.333333" stroke="#ffffffff"/>
  <path d="M553.732 404 L553.732 36.6667 " fill="none" stroke-width="3.333333" stroke="#ffffffff"/>
  <path d="M766.004 404 L766.004 36.6667 " fill="none" stroke-width="3.333333" stroke="#ffffffff"/>
  <path d="M978.276 404 L978.276 36.6667 " fill="none" stroke-width="3.333333" stroke="#ffffffff"/>
  <path d="M1190.55 404 L1190.55 36.6667 " fill="none" stroke-width="3.333333" stroke="#ffffffff"/>
  <path d="M1402.82 404 L1402.82 36.6667 " fill="none" stroke-width="3.333333" stroke="#ffffffff"/>
  <path d="M1615.09 404 L1615.09 36.6667 " fill="none" stroke-width="3.333333" stroke="#ffffffff"/>
  <path d="M1827.36 404 L1827.36 36.6667 " fill="none" stroke-width="3.333333" stroke="#ffffffff"/>
  <path d="M129.188 36.6667 L2011.33 36.6667 " fill="none" stroke-width="3.333333" stroke="#ffffffff"/>
  <path d="M129.188 73.4 L2011.33 73.4 " fill="none" stroke-width="3.333333" stroke="#ffffffff"/>
  <path d="M129.188 110.133 L2011.33 110.133 " fill="none" stroke-width="3.333333" stroke="#ffffffff"/>
  <path d="M129.188 146.867 L2011.33 146.867 " fill="none" stroke-width="3.333333" stroke="#ffffffff"/>
  <path d="M129.188 183.6 L2011.33 183.6 " fill="none" stroke-width="3.333333" stroke="#ffffffff"/>
  <path d="M129.188 220.333 L2011.33 220.333 " fill="none" stroke-width="3.333333" stroke="#ffffffff"/>
  <path d="M129.188 257.067 L2011.33 257.067 " fill="none" stroke-width="3.333333" stroke="#ffffffff"/>
  <path d="M129.188 293.8 L2011.33 293.8 " fill="none" stroke-width="3.333333" stroke="#ffffffff"/>
  <path d="M129.188 330.533 L2011.33 330.533 " fill="none" stroke-width="3.333333" stroke="#ffffffff"/>
  <path d="M129.188 367.267 L2011.33 367.267 " fill="none" stroke-width="3.333333" stroke="#ffffffff"/>
  <path d="M129.188 404 L2011.33 404 " fill="none" stroke-width="3.333333" stroke="#ffffffff"/>
  <path d="M129.188 221.146 L133.905 222.32 L138.622 195.315 L143.339 203.922 L148.056 219.864 L152.773 245.422 L157.49 191.282 L162.208 201.733 L166.925 222.245 L171.642 192.053 L176.359 238.114 L181.076 256.01 L185.793 191.913 L190.511 195.199 L195.228 189.15 L199.945 252.845 L204.662 211.966 L209.379 255.088 L214.096 230.78 L218.813 190.532 L223.531 247.753 L228.248 207.616 L232.965 236.379 L237.682 200.04 L242.399 186.515 L247.116 215.43 L251.834 239.918 L256.551 201.073 L261.268 196.799 L265.985 201.998 L270.702 244.849 L275.419 198.352 L280.137 250.554 L284.854 254.5 L289.571 194.807 L294.288 247.526 L299.005 212.167 L303.722 228.259 L308.439 244.965 L313.157 185.893 L317.874 233.401 L322.591 232.447 L327.308 232.159 L332.025 196.145 L336.742 190.507 L341.46 185.522 L346.177 189.585 L350.894 188.272 L355.611 211.54 L360.328 197.883 L365.045 239.852 L369.763 226.86 L374.48 223.196 L379.197 196.976 L383.914 214.696 L388.631 200.719 L393.348 184.32 L398.065 211.664 L402.783 224.438 L407.5 194.654 L412.217 226.51 L416.934 188.59 L421.651 251.012 L426.368 193.924 L431.086 248.049 L435.803 190.344 L440.52 250.638 L445.237 225.137 L449.954 219.032 L454.671 205.234 L459.389 256.262 L464.106 197.272 L468.823 213.715 L473.54 202.3 L478.257 210.901 L482.974 203.825 L487.691 253.8 L492.409 208.53 L497.126 195.601 L501.843 190.018 L506.56 210.254 L511.277 230.379 L515.994 195.251 L520.712 221.679 L525.429 250.647 L530.146 212.447 L534.863 229.128 L539.58 192.382 L544.297 201.869 L549.015 216.033 L553.732 256.611 L558.449 239.078 L563.166 188.266 L567.883 203.174 L572.6 206.632 L577.317 191.423 L582.035 221.808 L586.752 240.228 L591.469 205.407 L596.186 227.281 L600.903 231.445 L605.62 229.183 L610.338 205.23 L615.055 236.267 L619.772 216.04 L624.489 217.469 L629.206 206.056 L633.923 211.513 L638.641 206.203 L643.358 240.715 L648.075 233.478 L652.792 214.344 L657.509 219.315 L662.226 255.504 L666.943 212.314 L671.661 210.559 L676.378 197.023 L681.095 247.71 L685.812 224.879 L690.529 209.345 L695.246 249.223 L699.964 244.307 L704.681 205.377 L709.398 250.741 L714.115 213.355 L718.832 192.854 L723.549 191.12 L728.266 227.517 L732.984 223.036 L737.701 200.1 L742.418 233.174 L747.135 246.266 L751.852 219.511 L756.569 192.363 L761.287 224.691 L766.004 209.912 L770.721 234.853 L775.438 248.02 L780.155 202.797 L784.872 256.719 L789.59 211.992 L794.307 219.198 L799.024 210.079 L803.741 221.457 L808.458 240.548 L813.175 234.252 L817.892 191.608 L822.61 212.584 L827.327 200.444 L832.044 241.819 L836.761 254.227 L841.478 227.738 L846.195 211.602 L850.913 205.533 L855.63 251.023 L860.347 201.008 L865.064 244.102 L869.781 211.35 L874.498 252.307 L879.216 204.002 L883.933 246.759 L888.65 253.761 L893.367 244.767 L898.084 229.056 L902.801 253.06 L907.518 217.686 L912.236 211.18 L916.953 201.768 L921.67 218.839 L926.387 225.268 L931.104 254.433 L935.821 256.744 L940.539 256.035 L945.256 223.925 L949.973 216.126 L954.69 247.94 L959.407 254.827 L964.124 240.023 L968.842 213.967 L973.559 211.292 L978.276 208.41 L982.993 187.418 L987.71 238.454 L992.427 226.599 L997.144 188.109 L1001.86 198.233 L1006.58 188.901 L1011.3 248.183 L1016.01 242.889 L1020.73 212.915 L1025.45 207.95 L1030.16 195.427 L1034.88 243.765 L1039.6 241.501 L1044.32 228.187 L1049.03 213.053 L1053.75 214.468 L1058.47 237.14 L1063.18 203.02 L1067.9 232.175 L1072.62 234.841 L1077.34 206.541 L1082.05 208.057 L1086.77 208.104 L1091.49 184.016 L1096.2 206.533 L1100.92 183.723 L1105.64 187.707 L1110.36 195.764 L1115.07 218.967 L1119.79 249.61 L1124.51 184.81 L1129.22 249.293 L1133.94 234.976 L1138.66 205.293 L1143.38 188.423 L1148.09 191.942 L1152.81 184.299 L1157.53 235.125 L1162.24 206.209 L1166.96 183.744 L1171.68 198.172 L1176.4 185.028 L1181.11 227.612 L1185.83 189.982 L1190.55 198.008 L1195.27 191.946 L1199.98 192.518 L1204.7 254.22 L1209.42 239.315 L1214.13 186.421 L1218.85 211.57 L1223.57 216.96 L1228.29 238.181 L1233 220.736 L1237.72 202.102 L1242.44 241.597 L1247.15 197.979 L1251.87 191.887 L1256.59 219.793 L1261.31 202.314 L1266.02 209.625 L1270.74 206.975 L1275.46 184.502 L1280.17 205.213 L1284.89 232.877 L1289.61 241.651 L1294.33 220.039 L1299.04 244.955 L1303.76 187.479 L1308.48 198.934 L1313.19 193.874 L1317.91 249.889 L1322.63 256.037 L1327.35 195.512 L1332.06 214.835 L1336.78 217.39 L1341.5 207.181 L1346.21 233.487 L1350.93 202.173 L1355.65 203.53 L1360.37 185.331 L1365.08 240.358 L1369.8 236.403 L1374.52 256.143 L1379.23 244.671 L1383.95 230.947 L1388.67 240.961 L1393.39 204.75 L1398.1 239.766 L1402.82 187.011 L1407.54 253.318 L1412.25 212.647 L1416.97 192.36 L1421.69 214.332 L1426.41 255.355 L1431.12 183.815 L1435.84 195.193 L1440.56 236.308 L1445.27 235.359 L1449.99 196.449 L1454.71 253.605 L1459.43 210.365 L1464.14 183.667 L1468.86 197.229 L1473.58 243.355 L1478.29 194.991 L1483.01 184.805 L1487.73 193.121 L1492.45 249.681 L1497.16 246.959 L1501.88 216.64 L1506.6 222.489 L1511.31 254.177 L1516.03 237.184 L1520.75 250.593 L1525.47 241.229 L1530.18 219.438 L1534.9 199.034 L1539.62 223.902 L1544.33 248.376 L1549.05 189.296 L1553.77 211.505 L1558.49 248.502 L1563.2 189.465 L1567.92 214.973 L1572.64 255.315 L1577.35 194.043 L1582.07 250.428 L1586.79 223.449 L1591.51 188.001 L1596.22 186.492 L1600.94 214.75 L1605.66 209.401 L1610.37 215.728 L1615.09 189.733 L1619.81 235.768 L1624.53 202.097 L1629.24 205.923 L1633.96 202.91 L1638.68 227.443 L1643.4 199.286 L1648.11 192.775 L1652.83 225.724 L1657.55 215.31 L1662.26 196.077 L1666.98 221.303 L1671.7 245.894 L1676.42 253.203 L1681.13 248.551 L1685.85 244.624 L1690.57 238.372 L1695.28 220.773 L1700 206.826 L1704.72 218.865 L1709.44 234.822 L1714.15 249.115 L1718.87 254.858 L1723.59 204.029 L1728.3 197.254 L1733.02 222.354 L1737.74 187.261 L1742.46 239.27 L1747.17 199.828 L1751.89 186.517 L1756.61 204.129 L1761.32 213.014 L1766.04 230.818 L1770.76 206.886 L1775.48 210.724 L1780.19 189.896 L1784.91 186.698 L1789.63 184.183 L1794.34 207.396 L1799.06 188.726 L1803.78 192.144 L1808.5 236.296 L1813.21 208.928 L1817.93 227.249 L1822.65 216.66 L1827.36 224.675 L1832.08 255.99 L1836.8 239.117 L1841.52 210.03 L1846.23 212.961 L1850.95 256.874 L1855.67 185.338 L1860.38 242.78 L1865.1 221.438 L1869.82 197.601 L1874.54 194.369 L1879.25 202.596 L1883.97 213.982 L1888.69 212.967 L1893.4 186.59 L1898.12 190.094 L1902.84 201.796 L1907.56 187.398 L1912.27 216.426 L1916.99 222.248 L1921.71 185.142 L1926.42 256.146 L1931.14 218.487 L1935.86 197.687 L1940.58 239.695 L1945.29 189.29 L1950.01 235.805 L1954.73 253.442 L1959.44 227.013 L1964.16 186.697 L1968.88 195.226 L1973.6 226.295 L1978.31 245.072 L1983.03 189.712 L1987.75 208.714 L1992.46 202.142 L1997.18 208.49 L2001.9 200.889 L2006.62 192.551 L2011.33 187.05 " fill="none" stroke-width="5.000000" stroke="#000000ff"/>
  <text x="1733.765625" y="107.333333" fill="#000000ff" font-size="36.666667" font-family="Arial,Helvetica,'Helvetica Neue',sans-serif" font-weight="500.000000">Random Data</text>
  <path d="M1698.93 108.083 C1691.34 108.083 1685.18 101.927 1685.18 94.3333 C1685.18 86.7394 1691.34 80.5833 1698.93 80.5833 C1706.53 80.5833 1712.68 86.7394 1712.68 94.3333 C1712.68 101.927 1706.53 108.083 1698.93 108.083 Z" fill="#000000ff"/>
  <text x="270.100211" y="467.333333" fill="#000000ff" font-size="36.666667" font-family="Arial,Helvetica,'Helvetica Neue',sans-serif" font-weight="500.000000">00:15:00</text>
  <text x="482.372298" y="467.333333" fill="#000000ff" font-size="36.666667" font-family="Arial,Helvetica,'Helvetica Neue',sans-serif" font-weight="500.000000">00:30:00</text>
  <text x="694.644384" y="467.333333" fill="#000000ff" font-size="36.666667" font-family="Arial,Helvetica,'Helvetica Neue',sans-serif" font-weight="500.000000">00:45:00</text>
  <text x="906.916471" y="467.333333" fill="#000000ff" font-size="36.666667" font-family="Arial,Helvetica,'Helvetica Neue',sans-serif" font-weight="500.000000">01:00:00</text>
  <text x="1119.188557" y="467.333333" fill="#000000ff" font-size="36.666667" font-family="Arial,Helvetica,'Helvetica Neue',sans-serif" font-weight="500.000000">01:15:00</text>
  <text x="1331.460644" y="467.333333" fill="#000000ff" font-size="36.666667" font-family="Arial,Helvetica,'Helvetica Neue',sans-serif" font-weight="500.000000">01:30:00</text>
  <text x="1543.732730" y="467.333333" fill="#000000ff" font-size="36.666667" font-family="Arial,Helvetica,'Helvetica Neue',sans-serif" font-weight="500.000000">01:45:00</text>
  <text x="1756.004817" y="467.333333" fill="#000000ff" font-size="36.666667" font-family="Arial,Helvetica,'Helvetica Neue',sans-serif" font-weight="500.000000">02:00:00</text>
  <text x="36.666667" y="417.000000" fill="#000000ff" font-size="36.666667" font-family="Arial,Helvetica,'Helvetica Neue',sans-serif" font-weight="500.000000">-5.0</text>
  <text x="36.666667" y="380.266666" fill="#000000ff" font-size="36.666667" font-family="Arial,Helvetica,'Helvetica Neue',sans-serif" font-weight="500.000000">-4.0</text>
  <text x="36.666667" y="343.533332" fill="#000000ff" font-size="36.666667" font-family="Arial,Helvetica,'Helvetica Neue',sans-serif" font-weight="500.000000">-3.0</text>
  <text x="36.666667" y="306.799996" fill="#000000ff" font-size="36.666667" font-family="Arial,Helvetica,'Helvetica Neue',sans-serif" font-weight="500.000000">-2.0</text>
  <text x="36.666667" y="270.066664" fill="#000000ff" font-size="36.666667" font-family="Arial,Helvetica,'Helvetica Neue',sans-serif" font-weight="500.000000">-1.0</text>
  <text x="48.885417" y="233.333333" fill="#000000ff" font-size="36.666667" font-family="Arial,Helvetica,'Helvetica Neue',sans-serif" font-weight="500.000000">0.0</text>
  <text x="48.885417" y="196.599991" fill="#000000ff" font-size="36.666667" font-family="Arial,Helvetica,'Helvetica Neue',sans-serif" font-weight="500.000000">1.0</text>
  <text x="48.885417" y="159.866671" fill="#000000ff" font-size="36.666667" font-family="Arial,Helvetica,'Helvetica Neue',sans-serif" font-weight="500.000000">2.0</text>
  <text x="48.885417" y="123.133329" fill="#000000ff" font-size="36.666667" font-family="Arial,Helvetica,'Helvetica Neue',sans-serif" font-weight="500.000000">3.0</text>
  <text x="48.885417" y="86.399987" fill="#000000ff" font-size="36.666667" font-family="Arial,Helvetica,'Helvetica Neue',sans-serif" font-weight="500.000000">4.0</text>
  <text x="48.885417" y="49.666667" fill="#000000ff" font-size="36.666667" font-family="Arial,Helvetica,'Helvetica Neue',sans-serif" font-weight="500.000000">5.0</text>
</svg>