<svg xmlns="http://www.w3.org/2000/svg" width="800.000000" height="600.000000" viewBox="0 0 800 600">
  <rect width="800.000000" height="600.000000" fill="#ffffff"/>
  <path fill="#999999" d="M233.669 550.711 L221.566 544.388 L124.476 536.978 L128.871 529.568 L149.327 522.158 L102.712 514.747 L99.3184 507.337 L128.78 499.927 L156.461 492.517 L100.341 485.107 L134.369 477.697 L121.465 470.287 L195.457 462.877 L171.873 455.467 L140.59 448.057 L176.777 440.647 L134.623 433.236 L116.665 425.826 L101.89 418.416 L101.302 411.006 L101.376 403.596 L168.928 396.186 L426.679 388.776 L623.015 381.366 L613.765 373.956 L596.909 366.546 L367.695 359.135 L306.49 351.725 L191.286 344.315 L131.541 336.905 L110.494 329.495 L116.023 322.085 L109.296 314.675 L115.983 307.265 L182.367 299.855 L188.175 292.445 L190.529 285.035 L216.421 277.624 L204.519 270.214 L184.098 262.804 L193.776 255.394 L226.839 247.984 L277.991 240.574 L272.197 233.164 L305.832 225.754 L252.78 218.344 L229.111 210.934 L174.319 203.523 L202.812 196.113 L297.207 188.703 L315.333 181.293 L269.897 173.883 L260.482 166.473 L273.475 159.063 L297.575 151.653 L201.931 144.243 L170.877 136.833 L256.348 129.423 L200.736 122.012 L138.679 114.602 L145.16 107.192 L209.473 99.7822 L161.683 92.3721 L156.583 84.962 L147.046 77.5519 L157.147 70.1418 L147.599 62.7317 L183.333 55.3216 L152.032 47.9115 L171.574 40.5014 L191.16 33.0913 L173.816 25.6812 L139.065 19.5556 L88.3826 19.5556 L88.3826 25.6812 L88.3826 33.0913 L88.3826 40.5014 L88.3826 47.9115 L88.3826 55.3216 L88.3826 62.7317 L88.3826 70.1418 L88.3826 77.5519 L88.3826 84.962 L88.3826 92.3721 L88.3826 99.7822 L88.3826 107.192 L88.3826 114.602 L88.3826 122.012 L88.3826 129.423 L88.3826 136.833 L88.3826 144.243 L88.3826 151.653 L88.3826 159.063 L88.3826 166.473 L88.3826 173.883 L88.3826 181.293 L88.3826 188.703 L88.3826 196.113 L88.3826 203.523 L88.3826 210.934 L88.3826 218.344 L88.3826 225.754 L88.3826 233.164 L88.3826 240.574 L88.3826 247.984 L88.3826 255.394 L88.3826 262.804 L88.3826 270.214 L88.3826 277.624 L88.3826 285.035 L88.3826 292.445 L88.3826 299.855 L88.3826 307.265 L88.3826 314.675 L88.3826 322.085 L88.3826 329.495 L88.3826 336.905 L88.3826 344.315 L88.3826 351.725 L88.3826 359.135 L88.3826 366.546 L88.3826 373.956 L88.3826 381.366 L88.3826 388.776 L88.3826 396.186 L88.3826 403.596 L88.3826 411.006 L88.3826 418.416 L88.3826 425.826 L88.3826 433.236 L88.3826 440.647 L88.3826 448.057 L88.3826 455.467 L88.3826 462.877 L88.3826 470.287 L88.3826 477.697 L88.3826 485.107 L88.3826 492.517 L88.3826 499.927 L88.3826 507.337 L88.3826 514.747 L88.3826 522.158 L88.3826 529.568 L88.3826 536.978 L88.3826 544.388 L88.3826 550.711 "/>
  <path stroke-width="1.333333" stroke="#333333" fill="none" d="M88.3826 550.711 L780.444 550.711 "/>
  <path stroke-width="1.333333" stroke="#333333" fill="none" d="M88.3826 545.378 L88.3826 550.711 "/>
  <path stroke-width="1.333333" stroke="#333333" fill="none" d="M157.589 545.378 L157.589 550.711 "/>
  <path stroke-width="1.333333" stroke="#333333" fill="none" d="M226.795 545.378 L226.795 550.711 "/>
  <path stroke-width="1.333333" stroke="#333333" fill="none" d="M296.001 545.378 L296.001 550.711 "/>
  <path stroke-width="1.333333" stroke="#333333" fill="none" d="M365.207 545.378 L365.207 550.711 "/>
  <path stroke-width="1.333333" stroke="#333333" fill="none" d="M434.414 545.378 L434.414 550.711 "/>
  <path stroke-width="1.333333" stroke="#333333" fill="none" d="M503.62 545.378 L503.62 550.711 "/>
  <path stroke-width="1.333333" stroke="#333333" fill="none" d="M572.826 545.378 L572.826 550.711 "/>
  <path stroke-width="1.333333" stroke="#333333" fill="none" d="M642.032 545.378 L642.032 550.711 "/>
  <path stroke-width="1.333333" stroke="#333333" fill="none" d="M711.238 545.378 L711.238 550.711 "/>
  <path stroke-width="1.333333" stroke="#333333" fill="none" d="M780.444 545.378 L780.444 550.711 "/>
  <text x="78.187326" y="576.444444" fill="#333333" font-size="14.666667" font-family="Arial,Helvetica,'Helvetica Neue',sans-serif">0.0</text>
  <text x="143.315383" y="576.444444" fill="#333333" font-size="14.666667" font-family="Arial,Helvetica,'Helvetica Neue',sans-serif">15.0</text>
  <text x="212.521565" y="576.444444" fill="#333333" font-size="14.666667" font-family="Arial,Helvetica,'Helvetica Neue',sans-serif">30.0</text>
  <text x="281.727751" y="576.444444" fill="#333333" font-size="14.666667" font-family="Arial,Helvetica,'Helvetica Neue',sans-serif">45.0</text>
  <text x="350.933928" y="576.444444" fill="#333333" font-size="14.666667" font-family="Arial,Helvetica,'Helvetica Neue',sans-serif">60.0</text>
  <text x="420.140104" y="576.444444" fill="#333333" font-size="14.666667" font-family="Arial,Helvetica,'Helvetica Neue',sans-serif">75.0</text>
  <text x="489.346301" y="576.444444" fill="#333333" font-size="14.666667" font-family="Arial,Helvetica,'Helvetica Neue',sans-serif">90.0</text>
  <text x="554.474332" y="576.444444" fill="#333333" font-size="14.666667" font-family="Arial,Helvetica,'Helvetica Neue',sans-serif">105.0</text>
  <text x="623.680529" y="576.444444" fill="#333333" font-size="14.666667" font-family="Arial,Helvetica,'Helvetica Neue',sans-serif">120.0</text>
  <text x="692.886726" y="576.444444" fill="#333333" font-size="14.666667" font-family="Arial,Helvetica,'Helvetica Neue',sans-serif">135.0</text>
  <text x="762.092882" y="576.444444" fill="#333333" font-size="14.666667" font-family="Arial,Helvetica,'Helvetica Neue',sans-serif">150.0</text>
  <path stroke-width="1.333333" stroke="#333333" fill="none" d="M88.3826 19.5556 L88.3826 550.711 "/>
  <path stroke-width="1.333333" stroke="#333333" fill="none" d="M88.3826 550.711 L93.716 550.711 "/>
  <path stroke-width="1.333333" stroke="#333333" fill="none" d="M88.3826 497.596 L93.716 497.596 "/>
  <path stroke-width="1.333333" stroke="#333333" fill="none" d="M88.3826 444.48 L93.716 444.48 "/>
  <path stroke-width="1.333333" stroke="#333333" fill="none" d="M88.3826 391.364 L93.716 391.364 "/>
  <path stroke-width="1.333333" stroke="#333333" fill="none" d="M88.3826 338.249 L93.716 338.249 "/>
  <path stroke-width="1.333333" stroke="#333333" fill="none" d="M88.3826 285.133 L93.716 285.133 "/>
  <path stroke-width="1.333333" stroke="#333333" fill="none" d="M88.3826 232.018 L93.716 232.018 "/>
  <path stroke-width="1.333333" stroke="#333333" fill="none" d="M88.3826 178.902 L93.716 178.902 "/>
  <path stroke-width="1.333333" stroke="#333333" fill="none" d="M88.3826 125.787 L93.716 125.787 "/>
  <path stroke-width="1.333333" stroke="#333333" fill="none" d="M88.3826 72.6711 L93.716 72.6711 "/>
  <path stroke-width="1.333333" stroke="#333333" fill="none" d="M88.3826 19.5556 L93.716 19.5556 "/>
  <text x="19.555556" y="555.711111" fill="#333333" font-size="14.666667" font-family="Arial,Helvetica,'Helvetica Neue',sans-serif">05:15:44</text>
  <text x="19.555556" y="502.595555" fill="#333333" font-size="14.666667" font-family="Arial,Helvetica,'Helvetica Neue',sans-serif">05:51:34</text>
  <text x="19.555556" y="449.479998" fill="#333333" font-size="14.666667" font-family="Arial,Helvetica,'Helvetica Neue',sans-serif">06:27:24</text>
  <text x="19.555556" y="396.364438" fill="#333333" font-size="14.666667" font-family="Arial,Helvetica,'Helvetica Neue',sans-serif">07:03:15</text>
  <text x="19.555556" y="343.248886" fill="#333333" font-size="14.666667" font-family="Arial,Helvetica,'Helvetica Neue',sans-serif">07:39:05</text>
  <text x="19.555556" y="290.133333" fill="#333333" font-size="14.666667" font-family="Arial,Helvetica,'Helvetica Neue',sans-serif">08:14:56</text>
  <text x="19.555556" y="237.017765" fill="#333333" font-size="14.666667" font-family="Arial,Helvetica,'Helvetica Neue',sans-serif">08:50:46</text>
  <text x="19.555556" y="183.902229" fill="#333333" font-size="14.666667" font-family="Arial,Helvetica,'Helvetica Neue',sans-serif">09:26:36</text>
  <text x="19.555556" y="130.786660" fill="#333333" font-size="14.666667" font-family="Arial,Helvetica,'Helvetica Neue',sans-serif">10:02:27</text>
  <text x="19.555556" y="77.671092" fill="#333333" font-size="14.666667" font-family="Arial,Helvetica,'Helvetica Neue',sans-serif">10:38:17</text>
  <text x="20.649306" y="24.555556" fill="#333333" font-size="14.666667" font-family="Arial,Helvetica,'Helvetica Neue',sans-serif">11:14:08</text>
</svg>