<svg xmlns="http://www.w3.org/2000/svg" width="1200.000000" height="480.000000" viewBox="0 0 1200 480">
  <rect width="1200.000000" height="480.000000" fill="#ffffff"/>
  <path fill="#eeeeee" d="M84.7108 19.5556 L1180.44 19.5556 L1180.44 430.711 L84.7108 430.711 L84.7108 19.5556 "/>
  <path stroke-width="1.000000" stroke="#ffffff" fill="none" d="M84.7108 19.5556 L84.7108 430.711 "/>
  <path stroke-width="1.000000" stroke="#ffffff" fill="none" d="M194.284 19.5556 L194.284 430.711 "/>
  <path stroke-width="1.000000" stroke="#ffffff" fill="none" d="M303.858 19.5556 L303.858 430.711 "/>
  <path stroke-width="1.000000" stroke="#ffffff" fill="none" d="M413.431 19.5556 L413.431 430.711 "/>
  <path stroke-width="1.000000" stroke="#ffffff" fill="none" d="M523.004 19.5556 L523.004 430.711 "/>
  <path stroke-width="1.000000" stroke="#ffffff" fill="none" d="M632.578 19.5556 L632.578 430.711 "/>
  <path stroke-width="1.000000" stroke="#ffffff" fill="none" d="M742.151 19.5556 L742.151 430.711 "/>
  <path stroke-width="1.000000" stroke="#ffffff" fill="none" d="M851.724 19.5556 L851.724 430.711 "/>
  <path stroke-width="1.000000" stroke="#ffffff" fill="none" d="M961.298 19.5556 L961.298 430.711 "/>
  <path stroke-width="1.000000" stroke="#ffffff" fill="none" d="M1070.87 19.5556 L1070.87 430.711 "/>
  <path stroke-width="1.000000" stroke="#ffffff" fill="none" d="M1180.44 19.5556 L1180.44 430.711 "/>
  <path stroke-width="1.000000" stroke="#ffffff" fill="none" d="M84.7108 430.711 L1180.44 430.711 "/>
  <path stroke-width="1.000000" stroke="#ffffff" fill="none" d="M84.7108 389.596 L1180.44 389.596 "/>
  <path stroke-width="1.000000" stroke="#ffffff" fill="none" d="M84.7108 348.48 L1180.44 348.48 "/>
  <path stroke-width="1.000000" stroke="#ffffff" fill="none" d="M84.7108 307.364 L1180.44 307.364 "/>
  <path stroke-width="1.000000" stroke="#ffffff" fill="none" d="M84.7108 266.249 L1180.44 266.249 "/>
  <path stroke-width="1.000000" stroke="#ffffff" fill="none" d="M84.7108 225.133 L1180.44 225.133 "/>
  <path stroke-width="1.000000" stroke="#ffffff" fill="none" d="M84.7108 184.018 L1180.44 184.018 "/>
  <path stroke-width="1.000000" stroke="#ffffff" fill="none" d="M84.7108 142.902 L1180.44 142.902 "/>
  <path stroke-width="1.000000" stroke="#ffffff" fill="none" d="M84.7108 101.787 L1180.44 101.787 "/>
  <path stroke-width="1.000000" stroke="#ffffff" fill="none" d="M84.7108 60.6711 L1180.44 60.6711 "/>
  <path stroke-width="1.000000" stroke="#ffffff" fill="none" d="M84.7108 19.5556 L1180.44 19.5556 "/>
  <path fill="#888888" d="M84.7108 19.5556 L97.7552 107.114 L113.042 161.035 L128.328 156.724 L143.615 200.264 L158.901 227.698 L174.188 245.987 L189.474 257.192 L204.76 285.875 L220.047 234.991 L235.333 251.011 L250.62 300.12 L265.906 237.397 L281.193 245.056 L296.479 293.513 L311.766 286.976 L327.052 319.292 L342.339 341.413 L357.625 375.191 L372.912 387.727 L388.198 405.183 L403.484 269.319 L418.771 168.056 L434.057 140.639 L449.344 164.866 L464.63 220.868 L479.917 298.518 L495.203 292.334 L510.49 339.212 L525.776 355.058 L541.063 377.338 L556.349 357.141 L571.636 381.779 L586.922 334.569 L602.208 295.945 L617.495 376.258 L632.781 386.472 L648.068 399.341 L663.354 430.711 L678.641 365.67 L693.927 336.998 L709.214 339.993 L724.5 355.88 L739.787 313.253 L755.073 380.068 L770.36 334.709 L785.646 316.28 L800.933 318.302 L816.219 342.629 L831.505 292.465 L846.792 284.172 L862.078 251.736 L877.365 292.431 L892.651 333.299 L907.938 365.732 L923.224 303.249 L938.511 332.675 L953.797 326.385 L969.084 382.33 L984.37 398.451 L999.657 381.339 L1014.94 394.327 L1030.23 380.969 L1045.52 358.762 L1060.8 366.009 L1076.09 351.244 L1091.38 328.971 L1106.66 341.325 L1121.95 361.442 L1137.23 288.295 L1152.52 278.505 L1167.81 238.808 L1180.44 242.922 L1180.44 430.711 L1167.81 430.711 L1152.52 430.711 L1137.23 430.711 L1121.95 430.711 L1106.66 430.711 L1091.38 430.711 L1076.09 430.711 L1060.8 430.711 L1045.52 430.711 L1030.23 430.711 L1014.94 430.711 L999.657 430.711 L984.37 430.711 L969.084 430.711 L953.797 430.711 L938.511 430.711 L923.224 430.711 L907.938 430.711 L892.651 430.711 L877.365 430.711 L862.078 430.711 L846.792 430.711 L831.505 430.711 L816.219 430.711 L800.933 430.711 L785.646 430.711 L770.36 430.711 L755.073 430.711 L739.787 430.711 L724.5 430.711 L709.214 430.711 L693.927 430.711 L678.641 430.711 L663.354 430.711 L648.068 430.711 L632.781 430.711 L617.495 430.711 L602.208 430.711 L586.922 430.711 L571.636 430.711 L556.349 430.711 L541.063 430.711 L525.776 430.711 L510.49 430.711 L495.203 430.711 L479.917 430.711 L464.63 430.711 L449.344 430.711 L434.057 430.711 L418.771 430.711 L403.484 430.711 L388.198 430.711 L372.912 430.711 L357.625 430.711 L342.339 430.711 L327.052 430.711 L311.766 430.711 L296.479 430.711 L281.193 430.711 L265.906 430.711 L250.62 430.711 L235.333 430.711 L220.047 430.711 L204.76 430.711 L189.474 430.711 L174.188 430.711 L158.901 430.711 L143.615 430.711 L128.328 430.711 L113.042 430.711 L97.7552 430.711 L84.7108 430.711 "/>
  <path stroke-width="0.000000" stroke="#333333" fill="none" d="M84.7108 430.711 L1180.44 430.711 "/>
  <path stroke-width="0.000000" stroke="#333333" fill="none" d="M84.7108 430.711 L84.7108 425.378 "/>
  <path stroke-width="0.000000" stroke="#333333" fill="none" d="M194.284 430.711 L194.284 425.378 "/>
  <path stroke-width="0.000000" stroke="#333333" fill="none" d="M303.858 430.711 L303.858 425.378 "/>
  <path stroke-width="0.000000" stroke="#333333" fill="none" d="M413.431 430.711 L413.431 425.378 "/>
  <path stroke-width="0.000000" stroke="#333333" fill="none" d="M523.004 430.711 L523.004 425.378 "/>
  <path stroke-width="0.000000" stroke="#333333" fill="none" d="M632.578 430.711 L632.578 425.378 "/>
  <path stroke-width="0.000000" stroke="#333333" fill="none" d="M742.151 430.711 L742.151 425.378 "/>
  <path stroke-width="0.000000" stroke="#333333" fill="none" d="M851.724 430.711 L851.724 425.378 "/>
  <path stroke-width="0.000000" stroke="#333333" fill="none" d="M961.298 430.711 L961.298 425.378 "/>
  <path stroke-width="0.000000" stroke="#333333" fill="none" d="M1070.87 430.711 L1070.87 425.378 "/>
  <path stroke-width="0.000000" stroke="#333333" fill="none" d="M1180.44 430.711 L1180.44 425.378 "/>
  <text x="56.163889" y="456.444444" fill="#333333" font-size="14.666667" font-family="Arial,Helvetica,'Helvetica Neue',sans-serif">05:15:44</text>
  <text x="165.737259" y="456.444444" fill="#333333" font-size="14.666667" font-family="Arial,Helvetica,'Helvetica Neue',sans-serif">05:51:34</text>
  <text x="275.310628" y="456.444444" fill="#333333" font-size="14.666667" font-family="Arial,Helvetica,'Helvetica Neue',sans-serif">06:27:24</text>
  <text x="384.884006" y="456.444444" fill="#333333" font-size="14.666667" font-family="Arial,Helvetica,'Helvetica Neue',sans-serif">07:03:15</text>
  <text x="494.457368" y="456.444444" fill="#333333" font-size="14.666667" font-family="Arial,Helvetica,'Helvetica Neue',sans-serif">07:39:05</text>
  <text x="604.030729" y="456.444444" fill="#333333" font-size="14.666667" font-family="Arial,Helvetica,'Helvetica Neue',sans-serif">08:14:56</text>
  <text x="713.604123" y="456.444444" fill="#333333" font-size="14.666667" font-family="Arial,Helvetica,'Helvetica Neue',sans-serif">08:50:46</text>
  <text x="823.177452" y="456.444444" fill="#333333" font-size="14.666667" font-family="Arial,Helvetica,'Helvetica Neue',sans-serif">09:26:36</text>
  <text x="932.750846" y="456.444444" fill="#333333" font-size="14.666667" font-family="Arial,Helvetica,'Helvetica Neue',sans-serif">10:02:27</text>
  <text x="1042.324241" y="456.444444" fill="#333333" font-size="14.666667" font-family="Arial,Helvetica,'Helvetica Neue',sans-serif">10:38:17</text>
  <text x="1152.444444" y="456.444444" fill="#333333" font-size="14.666667" font-family="Arial,Helvetica,'Helvetica Neue',sans-serif">11:14:08</text>
  <path stroke-width="0.000000" stroke="#333333" fill="none" d="M84.7108 19.5556 L84.7108 430.711 "/>
  <path stroke-width="0.000000" stroke="#333333" fill="none" d="M84.7108 430.711 L90.0441 430.711 "/>
  <path stroke-width="0.000000" stroke="#333333" fill="none" d="M84.7108 389.596 L90.0441 389.596 "/>
  <path stroke-width="0.000000" stroke="#333333" fill="none" d="M84.7108 348.48 L90.0441 348.48 "/>
  <path stroke-width="0.000000" stroke="#333333" fill="none" d="M84.7108 307.364 L90.0441 307.364 "/>
  <path stroke-width="0.000000" stroke="#333333" fill="none" d="M84.7108 266.249 L90.0441 266.249 "/>
  <path stroke-width="0.000000" stroke="#333333" fill="none" d="M84.7108 225.133 L90.0441 225.133 "/>
  <path stroke-width="0.000000" stroke="#333333" fill="none" d="M84.7108 184.018 L90.0441 184.018 "/>
  <path stroke-width="0.000000" stroke="#333333" fill="none" d="M84.7108 142.902 L90.0441 142.902 "/>
  <path stroke-width="0.000000" stroke="#333333" fill="none" d="M84.7108 101.787 L90.0441 101.787 "/>
  <path stroke-width="0.000000" stroke="#333333" fill="none" d="M84.7108 60.6711 L90.0441 60.6711 "/>
  <path stroke-width="0.000000" stroke="#333333" fill="none" d="M84.7108 19.5556 L90.0441 19.5556 "/>
  <text x="19.555556" y="435.711111" fill="#333333" font-size="14.666667" font-family="Arial,Helvetica,'Helvetica Neue',sans-serif">7.3e+06</text>
  <text x="19.555556" y="394.595555" fill="#333333" font-size="14.666667" font-family="Arial,Helvetica,'Helvetica Neue',sans-serif">7.4e+06</text>
  <text x="19.555556" y="353.479999" fill="#333333" font-size="14.666667" font-family="Arial,Helvetica,'Helvetica Neue',sans-serif">7.6e+06</text>
  <text x="19.555556" y="312.364440" fill="#333333" font-size="14.666667" font-family="Arial,Helvetica,'Helvetica Neue',sans-serif">7.7e+06</text>
  <text x="19.555556" y="271.248886" fill="#333333" font-size="14.666667" font-family="Arial,Helvetica,'Helvetica Neue',sans-serif">7.8e+06</text>
  <text x="19.555556" y="230.133333" fill="#333333" font-size="14.666667" font-family="Arial,Helvetica,'Helvetica Neue',sans-serif">8.0e+06</text>
  <text x="19.555556" y="189.017768" fill="#333333" font-size="14.666667" font-family="Arial,Helvetica,'Helvetica Neue',sans-serif">8.1e+06</text>
  <text x="19.555556" y="147.902227" fill="#333333" font-size="14.666667" font-family="Arial,Helvetica,'Helvetica Neue',sans-serif">8.2e+06</text>
  <text x="19.555556" y="106.786662" fill="#333333" font-size="14.666667" font-family="Arial,Helvetica,'Helvetica Neue',sans-serif">8.4e+06</text>
  <text x="19.555556" y="65.671096" fill="#333333" font-size="14.666667" font-family="Arial,Helvetica,'Helvetica Neue',sans-serif">8.5e+06</text>
  <text x="19.555556" y="24.555556" fill="#333333" font-size="14.666667" font-family="Arial,Helvetica,'Helvetica Neue',sans-serif">8.6e+06</text>
</svg>