<svg xmlns="http://www.w3.org/2000/svg" width="1200.000000" height="480.000000" viewBox="0 0 1200 480">
  <rect width="1200.000000" height="480.000000" fill="#ffffff"/>
  <path fill="#cccccc" d="M19.5556 110.316 L164.667 95.0596 L309.778 75.9884 L600 114.131 L890.222 159.901 L1180.44 114.131 L1180.44 362.055 L890.222 308.656 L600 331.541 L309.778 316.284 L164.667 354.427 L19.5556 369.684 "/>
  <path fill="#888888" d="M19.5556 121.759 L164.667 114.131 L309.778 95.0596 L600 137.016 L890.222 190.415 L1180.44 125.573 L1180.44 308.656 L890.222 266.7 L600 316.284 L309.778 297.213 L164.667 316.284 L19.5556 331.541 "/>
  <path stroke-width="2.000000" stroke="#000000" fill="none" d="M19.5556 235.309 L309.778 200.637 L600 263.763 L890.222 223.103 L1180.44 226.841 "/>
  <path fill="#000000" d="M23.5556 235.309 M15.5556 235.309 a4 4 0 1 0 8 0 a4 4 0 1 0 -8 0 "/>
  <path fill="#000000" d="M313.778 200.637 M305.778 200.637 a4 4 0 1 0 8 0 a4 4 0 1 0 -8 0 "/>
  <path fill="#000000" d="M604 263.763 M596 263.763 a4 4 0 1 0 8 0 a4 4 0 1 0 -8 0 "/>
  <path fill="#000000" d="M894.222 223.103 M886.222 223.103 a4 4 0 1 0 8 0 a4 4 0 1 0 -8 0 "/>
  <path fill="#000000" d="M1184.44 226.841 M1176.44 226.841 a4 4 0 1 0 8 0 a4 4 0 1 0 -8 0 "/>
  <path fill="#ffffff" d="M39.1111 338 L155.186 338 L155.186 411.156 L39.1111 411.156 L39.1111 338 "/>
  <path stroke-width="1.000000" stroke="#333333" fill="none" d="M39.1111 338 L155.186 338 "/>
  <path stroke-width="1.000000" stroke="#333333" fill="none" d="M155.186 338 L155.186 411.156 "/>
  <path stroke-width="1.000000" stroke="#333333" fill="none" d="M39.1111 411.156 L155.186 411.156 "/>
  <path stroke-width="1.000000" stroke="#333333" fill="none" d="M39.1111 338 L39.1111 411.156 "/>
  <text x="80.177778" y="367.644444" fill="#333333" font-size="14.666667" font-family="Arial,Helvetica,'Helvetica Neue',sans-serif">Series A</text>
  <path fill="#cccccc" d="M67.1 362.644 M56.1 362.644 a5.5 5.5 0 1 0 11 0 a5.5 5.5 0 1 0 -11 0 "/>
  <text x="80.177778" y="391.511111" fill="#333333" font-size="14.666667" font-family="Arial,Helvetica,'Helvetica Neue',sans-serif">Series B</text>
  <path fill="#888888" d="M67.1 386.511 M56.1 386.511 a5.5 5.5 0 1 0 11 0 a5.5 5.5 0 1 0 -11 0 "/>
  <path stroke-width="1.333333" stroke="#333333" fill="none" d="M19.5556 49.2889 L1180.44 49.2889 "/>
  <path stroke-width="1.333333" stroke="#333333" fill="none" d="M19.5556 49.2889 L19.5556 54.6222 "/>
  <path stroke-width="1.333333" stroke="#333333" fill="none" d="M135.644 49.2889 L135.644 54.6222 "/>
  <path stroke-width="1.333333" stroke="#333333" fill="none" d="M251.733 49.2889 L251.733 54.6222 "/>
  <path stroke-width="1.333333" stroke="#333333" fill="none" d="M367.822 49.2889 L367.822 54.6222 "/>
  <path stroke-width="1.333333" stroke="#333333" fill="none" d="M483.911 49.2889 L483.911 54.6222 "/>
  <path stroke-width="1.333333" stroke="#333333" fill="none" d="M600 49.2889 L600 54.6222 "/>
  <path stroke-width="1.333333" stroke="#333333" fill="none" d="M716.089 49.2889 L716.089 54.6222 "/>
  <path stroke-width="1.333333" stroke="#333333" fill="none" d="M832.178 49.2889 L832.178 54.6222 "/>
  <path stroke-width="1.333333" stroke="#333333" fill="none" d="M948.267 49.2889 L948.267 54.6222 "/>
  <path stroke-width="1.333333" stroke="#333333" fill="none" d="M1064.36 49.2889 L1064.36 54.6222 "/>
  <path stroke-width="1.333333" stroke="#333333" fill="none" d="M1180.44 49.2889 L1180.44 54.6222 "/>
  <text x="5.282118" y="33.555556" fill="#333333" font-size="14.666667" font-family="Arial,Helvetica,'Helvetica Neue',sans-serif">10.0</text>
  <text x="121.371009" y="33.555556" fill="#333333" font-size="14.666667" font-family="Arial,Helvetica,'Helvetica Neue',sans-serif">14.0</text>
  <text x="237.459899" y="33.555556" fill="#333333" font-size="14.666667" font-family="Arial,Helvetica,'Helvetica Neue',sans-serif">18.0</text>
  <text x="353.548799" y="33.555556" fill="#333333" font-size="14.666667" font-family="Arial,Helvetica,'Helvetica Neue',sans-serif">22.0</text>
  <text x="469.637681" y="33.555556" fill="#333333" font-size="14.666667" font-family="Arial,Helvetica,'Helvetica Neue',sans-serif">26.0</text>
  <text x="585.726562" y="33.555556" fill="#333333" font-size="14.666667" font-family="Arial,Helvetica,'Helvetica Neue',sans-serif">30.0</text>
  <text x="701.815479" y="33.555556" fill="#333333" font-size="14.666667" font-family="Arial,Helvetica,'Helvetica Neue',sans-serif">34.0</text>
  <text x="817.904326" y="33.555556" fill="#333333" font-size="14.666667" font-family="Arial,Helvetica,'Helvetica Neue',sans-serif">38.0</text>
  <text x="933.993243" y="33.555556" fill="#333333" font-size="14.666667" font-family="Arial,Helvetica,'Helvetica Neue',sans-serif">42.0</text>
  <text x="1050.082160" y="33.555556" fill="#333333" font-size="14.666667" font-family="Arial,Helvetica,'Helvetica Neue',sans-serif">46.0</text>
  <text x="1166.171007" y="33.555556" fill="#333333" font-size="14.666667" font-family="Arial,Helvetica,'Helvetica Neue',sans-serif">50.0</text>
  <path stroke-width="1.333333" stroke="#333333" fill="none" d="M19.5556 430.711 L1180.44 430.711 "/>
  <path stroke-width="1.333333" stroke="#333333" fill="none" d="M19.5556 425.378 L19.5556 430.711 "/>
  <path stroke-width="1.333333" stroke="#333333" fill="none" d="M135.644 425.378 L135.644 430.711 "/>
  <path stroke-width="1.333333" stroke="#333333" fill="none" d="M251.733 425.378 L251.733 430.711 "/>
  <path stroke-width="1.333333" stroke="#333333" fill="none" d="M367.822 425.378 L367.822 430.711 "/>
  <path stroke-width="1.333333" stroke="#333333" fill="none" d="M483.911 425.378 L483.911 430.711 "/>
  <path stroke-width="1.333333" stroke="#333333" fill="none" d="M600 425.378 L600 430.711 "/>
  <path stroke-width="1.333333" stroke="#333333" fill="none" d="M716.089 425.378 L716.089 430.711 "/>
  <path stroke-width="1.333333" stroke="#333333" fill="none" d="M832.178 425.378 L832.178 430.711 "/>
  <path stroke-width="1.333333" stroke="#333333" fill="none" d="M948.267 425.378 L948.267 430.711 "/>
  <path stroke-width="1.333333" stroke="#333333" fill="none" d="M1064.36 425.378 L1064.36 430.711 "/>
  <path stroke-width="1.333333" stroke="#333333" fill="none" d="M1180.44 425.378 L1180.44 430.711 "/>
  <text x="5.282118" y="456.444444" fill="#333333" font-size="14.666667" font-family="Arial,Helvetica,'Helvetica Neue',sans-serif">10.0</text>
  <text x="121.371009" y="456.444444" fill="#333333" font-size="14.666667" font-family="Arial,Helvetica,'Helvetica Neue',sans-serif">14.0</text>
  <text x="237.459899" y="456.444444" fill="#333333" font-size="14.666667" font-family="Arial,Helvetica,'Helvetica Neue',sans-serif">18.0</text>
  <text x="353.548799" y="456.444444" fill="#333333" font-size="14.666667" font-family="Arial,Helvetica,'Helvetica Neue',sans-serif">22.0</text>
  <text x="469.637681" y="456.444444" fill="#333333" font-size="14.666667" font-family="Arial,Helvetica,'Helvetica Neue',sans-serif">26.0</text>
  <text x="585.726562" y="456.444444" fill="#333333" font-size="14.666667" font-family="Arial,Helvetica,'Helvetica Neue',sans-serif">30.0</text>
  <text x="701.815479" y="456.444444" fill="#333333" font-size="14.666667" font-family="Arial,Helvetica,'Helvetica Neue',sans-serif">34.0</text>
  <text x="817.904326" y="456.444444" fill="#333333" font-size="14.666667" font-family="Arial,Helvetica,'Helvetica Neue',sans-serif">38.0</text>
  <text x="933.993243" y="456.444444" fill="#333333" font-size="14.666667" font-family="Arial,Helvetica,'Helvetica Neue',sans-serif">42.0</text>
  <text x="1050.082160" y="456.444444" fill="#333333" font-size="14.666667" font-family="Arial,Helvetica,'Helvetica Neue',sans-serif">46.0</text>
  <text x="1166.171007" y="456.444444" fill="#333333" font-size="14.666667" font-family="Arial,Helvetica,'Helvetica Neue',sans-serif">50.0</text>
</svg>