<svg xmlns="http://www.w3.org/2000/svg" width="960.000000" height="300.000000" viewBox="0 0 960 300">
  <rect width="960.000000" height="300.000000" fill="#ffffff"/>
  <path stroke-width="1.333333" stroke="#cccccc" fill="none" d="M199.892 44.4 L199.892 255.6 "/>
  <path stroke-width="1.333333" stroke="#cccccc" fill="none" d="M339.946 44.4 L339.946 255.6 "/>
  <path stroke-width="1.333333" stroke="#cccccc" fill="none" d="M480 44.4 L480 255.6 "/>
  <path stroke-width="1.333333" stroke="#cccccc" fill="none" d="M620.054 44.4 L620.054 255.6 "/>
  <path stroke-width="1.333333" stroke="#cccccc" fill="none" d="M760.108 44.4 L760.108 255.6 "/>
  <path fill="#4572a7" d="M111.531 107.76 L111.531 128.88 L126.198 128.88 L126.198 107.76 "/>
  <path fill="#4572a7" d="M251.585 56.1333 L251.585 119.493 L266.252 119.493 L266.252 56.1333 "/>
  <path fill="#4572a7" d="M391.64 100.72 L391.64 107.76 L406.306 107.76 L406.306 100.72 "/>
  <path fill="#4572a7" d="M531.694 119.493 L531.694 131.227 L546.36 131.227 L546.36 119.493 "/>
  <path fill="#4572a7" d="M671.748 119.493 L671.748 159.387 L686.415 159.387 L686.415 119.493 "/>
  <path fill="#4572a7" d="M811.802 79.6 L811.802 131.227 L826.469 131.227 L826.469 79.6 "/>
  <path fill="#aa4643" d="M133.531 81.9467 L133.531 241.52 L148.198 241.52 L148.198 81.9467 "/>
  <path fill="#aa4643" d="M273.585 72.56 L273.585 232.133 L288.252 232.133 L288.252 72.56 "/>
  <path fill="#aa4643" d="M413.64 60.8267 L413.64 208.667 L428.306 208.667 L428.306 60.8267 "/>
  <path fill="#aa4643" d="M553.694 84.2933 L553.694 218.053 L568.36 218.053 L568.36 84.2933 "/>
  <path fill="#aa4643" d="M693.748 112.453 L693.748 166.427 L708.415 166.427 L708.415 112.453 "/>
  <path fill="#aa4643" d="M833.802 84.2933 L833.802 236.827 L848.469 236.827 L848.469 84.2933 "/>
  <path stroke-width="1.333333" stroke="#000000" fill="none" d="M59.8375 44.4 L900.162 44.4 "/>
  <path stroke-width="1.333333" stroke="#000000" fill="none" d="M129.865 44.4 L129.865 49.7333 "/>
  <path stroke-width="1.333333" stroke="#000000" fill="none" d="M269.919 44.4 L269.919 49.7333 "/>
  <path stroke-width="1.333333" stroke="#000000" fill="none" d="M409.973 44.4 L409.973 49.7333 "/>
  <path stroke-width="1.333333" stroke="#000000" fill="none" d="M550.027 44.4 L550.027 49.7333 "/>
  <path stroke-width="1.333333" stroke="#000000" fill="none" d="M690.081 44.4 L690.081 49.7333 "/>
  <path stroke-width="1.333333" stroke="#000000" fill="none" d="M830.135 44.4 L830.135 49.7333 "/>
  <text x="119.669271" y="28.666667" fill="#000000" font-size="14.666667" font-family="Arial,Helvetica,'Helvetica Neue',sans-serif" font-weight="500.000000">1.0</text>
  <text x="259.723437" y="28.666667" fill="#000000" font-size="14.666667" font-family="Arial,Helvetica,'Helvetica Neue',sans-serif" font-weight="500.000000">2.0</text>
  <text x="399.777604" y="28.666667" fill="#000000" font-size="14.666667" font-family="Arial,Helvetica,'Helvetica Neue',sans-serif" font-weight="500.000000">3.0</text>
  <text x="539.831771" y="28.666667" fill="#000000" font-size="14.666667" font-family="Arial,Helvetica,'Helvetica Neue',sans-serif" font-weight="500.000000">4.0</text>
  <text x="679.885937" y="28.666667" fill="#000000" font-size="14.666667" font-family="Arial,Helvetica,'Helvetica Neue',sans-serif" font-weight="500.000000">5.0</text>
  <text x="819.940104" y="28.666667" fill="#000000" font-size="14.666667" font-family="Arial,Helvetica,'Helvetica Neue',sans-serif" font-weight="500.000000">6.0</text>
  <path stroke-width="1.333333" stroke="#000000" fill="none" d="M900.162 44.4 L900.162 255.6 "/>
  <path stroke-width="1.333333" stroke="#000000" fill="none" d="M894.829 255.6 L900.162 255.6 "/>
  <path stroke-width="1.333333" stroke="#000000" fill="none" d="M894.829 232.133 L900.162 232.133 "/>
  <path stroke-width="1.333333" stroke="#000000" fill="none" d="M894.829 208.667 L900.162 208.667 "/>
  <path stroke-width="1.333333" stroke="#000000" fill="none" d="M894.829 185.2 L900.162 185.2 "/>
  <path stroke-width="1.333333" stroke="#000000" fill="none" d="M894.829 161.733 L900.162 161.733 "/>
  <path stroke-width="1.333333" stroke="#000000" fill="none" d="M894.829 138.267 L900.162 138.267 "/>
  <path stroke-width="1.333333" stroke="#000000" fill="none" d="M894.829 114.8 L900.162 114.8 "/>
  <path stroke-width="1.333333" stroke="#000000" fill="none" d="M894.829 91.3333 L900.162 91.3333 "/>
  <path stroke-width="1.333333" stroke="#000000" fill="none" d="M894.829 67.8667 L900.162 67.8667 "/>
  <path stroke-width="1.333333" stroke="#000000" fill="none" d="M894.829 44.4 L900.162 44.4 "/>
  <text x="911.895833" y="260.600000" fill="#000000" font-size="14.666667" font-family="Arial,Helvetica,'Helvetica Neue',sans-serif" font-weight="500.000000">-20.0</text>
  <text x="911.895833" y="237.133333" fill="#000000" font-size="14.666667" font-family="Arial,Helvetica,'Helvetica Neue',sans-serif" font-weight="500.000000">-10.0</text>
  <text x="911.895833" y="213.666667" fill="#000000" font-size="14.666667" font-family="Arial,Helvetica,'Helvetica Neue',sans-serif" font-weight="500.000000">0.0</text>
  <text x="911.895833" y="190.200000" fill="#000000" font-size="14.666667" font-family="Arial,Helvetica,'Helvetica Neue',sans-serif" font-weight="500.000000">10.0</text>
  <text x="911.895833" y="166.733333" fill="#000000" font-size="14.666667" font-family="Arial,Helvetica,'Helvetica Neue',sans-serif" font-weight="500.000000">20.0</text>
  <text x="911.895833" y="143.266667" fill="#000000" font-size="14.666667" font-family="Arial,Helvetica,'Helvetica Neue',sans-serif" font-weight="500.000000">30.0</text>
  <text x="911.895833" y="119.800000" fill="#000000" font-size="14.666667" font-family="Arial,Helvetica,'Helvetica Neue',sans-serif" font-weight="500.000000">40.0</text>
  <text x="911.895833" y="96.333333" fill="#000000" font-size="14.666667" font-family="Arial,Helvetica,'Helvetica Neue',sans-serif" font-weight="500.000000">50.0</text>
  <text x="911.895833" y="72.866667" fill="#000000" font-size="14.666667" font-family="Arial,Helvetica,'Helvetica Neue',sans-serif" font-weight="500.000000">60.0</text>
  <text x="911.895833" y="49.400000" fill="#000000" font-size="14.666667" font-family="Arial,Helvetica,'Helvetica Neue',sans-serif" font-weight="500.000000">70.0</text>
  <path stroke-width="1.333333" stroke="#000000" fill="none" d="M59.8375 255.6 L900.162 255.6 "/>
  <path stroke-width="1.333333" stroke="#000000" fill="none" d="M129.865 250.267 L129.865 255.6 "/>
  <path stroke-width="1.333333" stroke="#000000" fill="none" d="M269.919 250.267 L269.919 255.6 "/>
  <path stroke-width="1.333333" stroke="#000000" fill="none" d="M409.973 250.267 L409.973 255.6 "/>
  <path stroke-width="1.333333" stroke="#000000" fill="none" d="M550.027 250.267 L550.027 255.6 "/>
  <path stroke-width="1.333333" stroke="#000000" fill="none" d="M690.081 250.267 L690.081 255.6 "/>
  <path stroke-width="1.333333" stroke="#000000" fill="none" d="M830.135 250.267 L830.135 255.6 "/>
  <text x="119.669271" y="281.333333" fill="#000000" font-size="14.666667" font-family="Arial,Helvetica,'Helvetica Neue',sans-serif" font-weight="500.000000">1.0</text>
  <text x="259.723437" y="281.333333" fill="#000000" font-size="14.666667" font-family="Arial,Helvetica,'Helvetica Neue',sans-serif" font-weight="500.000000">2.0</text>
  <text x="399.777604" y="281.333333" fill="#000000" font-size="14.666667" font-family="Arial,Helvetica,'Helvetica Neue',sans-serif" font-weight="500.000000">3.0</text>
  <text x="539.831771" y="281.333333" fill="#000000" font-size="14.666667" font-family="Arial,Helvetica,'Helvetica Neue',sans-serif" font-weight="500.000000">4.0</text>
  <text x="679.885937" y="281.333333" fill="#000000" font-size="14.666667" font-family="Arial,Helvetica,'Helvetica Neue',sans-serif" font-weight="500.000000">5.0</text>
  <text x="819.940104" y="281.333333" fill="#000000" font-size="14.666667" font-family="Arial,Helvetica,'Helvetica Neue',sans-serif" font-weight="500.000000">6.0</text>
  <path stroke-width="1.333333" stroke="#000000" fill="none" d="M59.8375 44.4 L59.8375 255.6 "/>
  <path stroke-width="1.333333" stroke="#000000" fill="none" d="M59.8375 255.6 L65.1708 255.6 "/>
  <path stroke-width="1.333333" stroke="#000000" fill="none" d="M59.8375 232.133 L65.1708 232.133 "/>
  <path stroke-width="1.333333" stroke="#000000" fill="none" d="M59.8375 208.667 L65.1708 208.667 "/>
  <path stroke-width="1.333333" stroke="#000000" fill="none" d="M59.8375 185.2 L65.1708 185.2 "/>
  <path stroke-width="1.333333" stroke="#000000" fill="none" d="M59.8375 161.733 L65.1708 161.733 "/>
  <path stroke-width="1.333333" stroke="#000000" fill="none" d="M59.8375 138.267 L65.1708 138.267 "/>
  <path stroke-width="1.333333" stroke="#000000" fill="none" d="M59.8375 114.8 L65.1708 114.8 "/>
  <path stroke-width="1.333333" stroke="#000000" fill="none" d="M59.8375 91.3333 L65.1708 91.3333 "/>
  <path stroke-width="1.333333" stroke="#000000" fill="none" d="M59.8375 67.8667 L65.1708 67.8667 "/>
  <path stroke-width="1.333333" stroke="#000000" fill="none" d="M59.8375 44.4 L65.1708 44.4 "/>
  <text x="14.666667" y="260.600000" fill="#000000" font-size="14.666667" font-family="Arial,Helvetica,'Helvetica Neue',sans-serif" font-weight="500.000000">-20.0</text>
  <text x="14.666667" y="237.133333" fill="#000000" font-size="14.666667" font-family="Arial,Helvetica,'Helvetica Neue',sans-serif" font-weight="500.000000">-10.0</text>
  <text x="27.713542" y="213.666667" fill="#000000" font-size="14.666667" font-family="Arial,Helvetica,'Helvetica Neue',sans-serif" font-weight="500.000000">0.0</text>
  <text x="19.557292" y="190.200000" fill="#000000" font-size="14.666667" font-family="Arial,Helvetica,'Helvetica Neue',sans-serif" font-weight="500.000000">10.0</text>
  <text x="19.557292" y="166.733333" fill="#000000" font-size="14.666667" font-family="Arial,Helvetica,'Helvetica Neue',sans-serif" font-weight="500.000000">20.0</text>
  <text x="19.557292" y="143.266667" fill="#000000" font-size="14.666667" font-family="Arial,Helvetica,'Helvetica Neue',sans-serif" font-weight="500.000000">30.0</text>
  <text x="19.557292" y="119.800000" fill="#000000" font-size="14.666667" font-family="Arial,Helvetica,'Helvetica Neue',sans-serif" font-weight="500.000000">40.0</text>
  <text x="19.557292" y="96.333333" fill="#000000" font-size="14.666667" font-family="Arial,Helvetica,'Helvetica Neue',sans-serif" font-weight="500.000000">50.0</text>
  <text x="19.557292" y="72.866667" fill="#000000" font-size="14.666667" font-family="Arial,Helvetica,'Helvetica Neue',sans-serif" font-weight="500.000000">60.0</text>
  <text x="19.557292" y="49.400000" fill="#000000" font-size="14.666667" font-family="Arial,Helvetica,'Helvetica Neue',sans-serif" font-weight="500.000000">70.0</text>
</svg>