<svg xmlns="http://www.w3.org/2000/svg" width="2048.000000" height="1024.000000">
  <rect width="2048.000000" height="1024.000000" fill="#ffffffff"/>
  <path d="M137.359 916 L1910.64 916 L1910.64 36.6667 L137.359 36.6667 Z" fill="#eeeeeeff"/>
  <path d="M137.359 916 L137.359 36.6667 " fill="none" stroke-width="3.333333" stroke="#ffffffff"/>
  <path d="M432.906 916 L432.906 36.6667 " fill="none" stroke-width="3.333333" stroke="#ffffffff"/>
  <path d="M728.453 916 L728.453 36.6667 " fill="none" stroke-width="3.333333" stroke="#ffffffff"/>
  <path d="M1024 916 L1024 36.6667 " fill="none" stroke-width="3.333333" stroke="#ffffffff"/>
  <path d="M1319.55 916 L1319.55 36.6667 " fill="none" stroke-width="3.333333" stroke="#ffffffff"/>
  <path d="M1615.09 916 L1615.09 36.6667 " fill="none" stroke-width="3.333333" stroke="#ffffffff"/>
  <path d="M1910.64 916 L1910.64 36.6667 " fill="none" stroke-width="3.333333" stroke="#ffffffff"/>
  <path d="M137.359 146.583 L1910.64 146.583 " fill="none" stroke-width="3.333333" stroke="#ffffffff"/>
  <path d="M137.359 256.5 L1910.64 256.5 " fill="none" stroke-width="3.333333" stroke="#ffffffff"/>
  <path d="M137.359 366.417 L1910.64 366.417 " fill="none" stroke-width="3.333333" stroke="#ffffffff"/>
  <path d="M137.359 476.333 L1910.64 476.333 " fill="none" stroke-width="3.333333" stroke="#ffffffff"/>
  <path d="M137.359 586.25 L1910.64 586.25 " fill="none" stroke-width="3.333333" stroke="#ffffffff"/>
  <path d="M137.359 696.167 L1910.64 696.167 " fill="none" stroke-width="3.333333" stroke="#ffffffff"/>
  <path d="M137.359 806.083 L1910.64 806.083 " fill="none" stroke-width="3.333333" stroke="#ffffffff"/>
  <path d="M237.799 916 L237.799 542.283 L274.466 542.283 L274.466 916 Z" fill="#444444ff"/>
  <path d="M533.346 916 L533.346 498.317 L570.013 498.317 L570.013 916 Z" fill="#444444ff"/>
  <path d="M828.893 916 L828.893 443.358 L865.56 443.358 L865.56 916 Z" fill="#444444ff"/>
  <path d="M1124.44 916 L1124.44 553.275 L1161.11 553.275 L1161.11 916 Z" fill="#444444ff"/>
  <path d="M1419.99 916 L1419.99 685.175 L1456.65 685.175 L1456.65 916 Z" fill="#444444ff"/>
  <path d="M1715.53 916 L1715.53 553.275 L1752.2 553.275 L1752.2 916 Z" fill="#444444ff"/>
  <path d="M295.799 916 L295.799 443.358 L332.466 443.358 L332.466 916 Z" fill="#999999ff"/>
  <path d="M591.346 916 L591.346 201.542 L628.013 201.542 L628.013 916 Z" fill="#999999ff"/>
  <path d="M886.893 916 L886.893 410.383 L923.56 410.383 L923.56 916 Z" fill="#999999ff"/>
  <path d="M1182.44 916 L1182.44 498.317 L1219.11 498.317 L1219.11 916 Z" fill="#999999ff"/>
  <path d="M1477.99 916 L1477.99 498.317 L1514.65 498.317 L1514.65 916 Z" fill="#999999ff"/>
  <path d="M1773.53 916 L1773.53 311.458 L1810.2 311.458 L1810.2 916 Z" fill="#999999ff"/>
  <text x="1939.973958" y="819.083333" fill="#000000ff" font-size="36.666667" font-family="Arial,Helvetica,'Helvetica Neue',sans-serif" font-weight="500.000000">10.0</text>
  <text x="1939.973958" y="709.166667" fill="#000000ff" font-size="36.666667" font-family="Arial,Helvetica,'Helvetica Neue',sans-serif" font-weight="500.000000">20.0</text>
  <text x="1939.973958" y="599.250000" fill="#000000ff" font-size="36.666667" font-family="Arial,Helvetica,'Helvetica Neue',sans-serif" font-weight="500.000000">30.0</text>
  <text x="1939.973958" y="489.333333" fill="#000000ff" font-size="36.666667" font-family="Arial,Helvetica,'Helvetica Neue',sans-serif" font-weight="500.000000">40.0</text>
  <text x="1939.973958" y="379.416667" fill="#000000ff" font-size="36.666667" font-family="Arial,Helvetica,'Helvetica Neue',sans-serif" font-weight="500.000000">50.0</text>
  <text x="1939.973958" y="269.500000" fill="#000000ff" font-size="36.666667" font-family="Arial,Helvetica,'Helvetica Neue',sans-serif" font-weight="500.000000">60.0</text>
  <text x="1939.973958" y="159.583333" fill="#000000ff" font-size="36.666667" font-family="Arial,Helvetica,'Helvetica Neue',sans-serif" font-weight="500.000000">70.0</text>
  <text x="272.906250" y="979.333333" fill="#000000ff" font-size="36.666667" font-family="Arial,Helvetica,'Helvetica Neue',sans-serif" font-weight="500.000000">A</text>
  <text x="568.453125" y="979.333333" fill="#000000ff" font-size="36.666667" font-family="Arial,Helvetica,'Helvetica Neue',sans-serif" font-weight="500.000000">B</text>
  <text x="862.984375" y="979.333333" fill="#000000ff" font-size="36.666667" font-family="Arial,Helvetica,'Helvetica Neue',sans-serif" font-weight="500.000000">C</text>
  <text x="1158.531250" y="979.333333" fill="#000000ff" font-size="36.666667" font-family="Arial,Helvetica,'Helvetica Neue',sans-serif" font-weight="500.000000">D</text>
  <text x="1455.093750" y="979.333333" fill="#000000ff" font-size="36.666667" font-family="Arial,Helvetica,'Helvetica Neue',sans-serif" font-weight="500.000000">E</text>
  <text x="1751.664062" y="979.333333" fill="#000000ff" font-size="36.666667" font-family="Arial,Helvetica,'Helvetica Neue',sans-serif" font-weight="500.000000">F</text>
  <text x="36.666667" y="819.083333" fill="#000000ff" font-size="36.666667" font-family="Arial,Helvetica,'Helvetica Neue',sans-serif" font-weight="500.000000">10.0</text>
  <text x="36.666667" y="709.166667" fill="#000000ff" font-size="36.666667" font-family="Arial,Helvetica,'Helvetica Neue',sans-serif" font-weight="500.000000">20.0</text>
  <text x="36.666667" y="599.250000" fill="#000000ff" font-size="36.666667" font-family="Arial,Helvetica,'Helvetica Neue',sans-serif" font-weight="500.000000">30.0</text>
  <text x="36.666667" y="489.333333" fill="#000000ff" font-size="36.666667" font-family="Arial,Helvetica,'Helvetica Neue',sans-serif" font-weight="500.000000">40.0</text>
  <text x="36.666667" y="379.416667" fill="#000000ff" font-size="36.666667" font-family="Arial,Helvetica,'Helvetica Neue',sans-serif" font-weight="500.000000">50.0</text>
  <text x="36.666667" y="269.500000" fill="#000000ff" font-size="36.666667" font-family="Arial,Helvetica,'Helvetica Neue',sans-serif" font-weight="500.000000">60.0</text>
  <text x="36.666667" y="159.583333" fill="#000000ff" font-size="36.666667" font-family="Arial,Helvetica,'Helvetica Neue',sans-serif" font-weight="500.000000">70.0</text>
</svg>