<svg xmlns="http://www.w3.org/2000/svg" width="960.000000" height="280.000000" viewBox="0 0 960 280">
  <rect width="960.000000" height="280.000000" fill="#ffffff"/>
  <path fill="#aa4643" d="M71.5897 235.6 L71.5897 198.137 L100.923 198.137 L100.923 235.6 "/>
  <path fill="#aa4643" d="M143.179 235.6 L143.179 195.256 L172.513 195.256 L172.513 235.6 "/>
  <path fill="#aa4643" d="M214.769 235.6 L214.769 180.847 L244.103 180.847 L244.103 235.6 "/>
  <path fill="#aa4643" d="M286.359 235.6 L286.359 153.951 L315.692 153.951 L315.692 235.6 "/>
  <path fill="#aa4643" d="M357.949 235.6 L357.949 121.291 L387.282 121.291 L387.282 235.6 "/>
  <path fill="#aa4643" d="M429.538 235.6 L429.538 89.5919 L458.872 89.5919 L458.872 235.6 "/>
  <path fill="#aa4643" d="M501.128 235.6 L501.128 72.3014 L530.462 72.3014 L530.462 235.6 "/>
  <path fill="#aa4643" d="M572.718 235.6 L572.718 76.1438 L602.051 76.1438 L602.051 235.6 "/>
  <path fill="#aa4643" d="M644.308 235.6 L644.308 99.1977 L673.641 99.1977 L673.641 235.6 "/>
  <path fill="#aa4643" d="M715.897 235.6 L715.897 136.66 L745.231 136.66 L745.231 235.6 "/>
  <path fill="#aa4643" d="M787.487 235.6 L787.487 172.202 L816.821 172.202 L816.821 235.6 "/>
  <path fill="#aa4643" d="M859.077 235.6 L859.077 189.492 L888.41 189.492 L888.41 235.6 "/>
  <text x="67.826723" y="185.337391" fill="#000000" font-size="14.666667" font-family="Arial,Helvetica,'Helvetica Neue',sans-serif" font-weight="500.000000">3.9°C</text>
  <text x="139.416466" y="182.455652" fill="#000000" font-size="14.666667" font-family="Arial,Helvetica,'Helvetica Neue',sans-serif" font-weight="500.000000">4.2°C</text>
  <text x="211.006210" y="168.046957" fill="#000000" font-size="14.666667" font-family="Arial,Helvetica,'Helvetica Neue',sans-serif" font-weight="500.000000">5.7°C</text>
  <text x="282.595954" y="141.150725" fill="#000000" font-size="14.666667" font-family="Arial,Helvetica,'Helvetica Neue',sans-serif" font-weight="500.000000">8.5°C</text>
  <text x="350.654447" y="108.491014" fill="#000000" font-size="14.666667" font-family="Arial,Helvetica,'Helvetica Neue',sans-serif" font-weight="500.000000">11.9°C</text>
  <text x="421.697316" y="76.791884" fill="#000000" font-size="14.666667" font-family="Arial,Helvetica,'Helvetica Neue',sans-serif" font-weight="500.000000">15.2°C</text>
  <text x="493.287059" y="59.501449" fill="#000000" font-size="14.666667" font-family="Arial,Helvetica,'Helvetica Neue',sans-serif" font-weight="500.000000">17.0°C</text>
  <text x="564.876803" y="63.343768" fill="#000000" font-size="14.666667" font-family="Arial,Helvetica,'Helvetica Neue',sans-serif" font-weight="500.000000">16.6°C</text>
  <text x="636.466546" y="86.397681" fill="#000000" font-size="14.666667" font-family="Arial,Helvetica,'Helvetica Neue',sans-serif" font-weight="500.000000">14.2°C</text>
  <text x="708.056290" y="123.860290" fill="#000000" font-size="14.666667" font-family="Arial,Helvetica,'Helvetica Neue',sans-serif" font-weight="500.000000">10.3°C</text>
  <text x="783.724159" y="159.401739" fill="#000000" font-size="14.666667" font-family="Arial,Helvetica,'Helvetica Neue',sans-serif" font-weight="500.000000">6.6°C</text>
  <text x="855.313902" y="176.692174" fill="#000000" font-size="14.666667" font-family="Arial,Helvetica,'Helvetica Neue',sans-serif" font-weight="500.000000">4.8°C</text>
  <text x="60.133333" y="55.066667" fill="#000000" font-size="14.666667" font-family="Arial,Helvetica,'Helvetica Neue',sans-serif" font-weight="500.000000">London - Average Monthly Temperature</text>
  <path fill="#aa4643" d="M51.7 50.0667 M40.7 50.0667 a5.5 5.5 0 1 0 11 0 a5.5 5.5 0 1 0 -11 0 "/>
  <path stroke-width="1.333333" stroke="#000000" fill="none" d="M14.6667 235.6 L945.333 235.6 "/>
  <path stroke-width="1.333333" stroke="#000000" fill="none" d="M86.2564 230.267 L86.2564 235.6 "/>
  <path stroke-width="1.333333" stroke="#000000" fill="none" d="M157.846 230.267 L157.846 235.6 "/>
  <path stroke-width="1.333333" stroke="#000000" fill="none" d="M229.436 230.267 L229.436 235.6 "/>
  <path stroke-width="1.333333" stroke="#000000" fill="none" d="M301.026 230.267 L301.026 235.6 "/>
  <path stroke-width="1.333333" stroke="#000000" fill="none" d="M372.615 230.267 L372.615 235.6 "/>
  <path stroke-width="1.333333" stroke="#000000" fill="none" d="M444.205 230.267 L444.205 235.6 "/>
  <path stroke-width="1.333333" stroke="#000000" fill="none" d="M515.795 230.267 L515.795 235.6 "/>
  <path stroke-width="1.333333" stroke="#000000" fill="none" d="M587.385 230.267 L587.385 235.6 "/>
  <path stroke-width="1.333333" stroke="#000000" fill="none" d="M658.974 230.267 L658.974 235.6 "/>
  <path stroke-width="1.333333" stroke="#000000" fill="none" d="M730.564 230.267 L730.564 235.6 "/>
  <path stroke-width="1.333333" stroke="#000000" fill="none" d="M802.154 230.267 L802.154 235.6 "/>
  <path stroke-width="1.333333" stroke="#000000" fill="none" d="M873.744 230.267 L873.744 235.6 "/>
  <text x="74.428285" y="261.333333" fill="#000000" font-size="14.666667" font-family="Arial,Helvetica,'Helvetica Neue',sans-serif" font-weight="500.000000">Jan</text>
  <text x="145.205529" y="261.333333" fill="#000000" font-size="14.666667" font-family="Arial,Helvetica,'Helvetica Neue',sans-serif" font-weight="500.000000">Feb</text>
  <text x="216.803085" y="261.333333" fill="#000000" font-size="14.666667" font-family="Arial,Helvetica,'Helvetica Neue',sans-serif" font-weight="500.000000">Mar</text>
  <text x="289.611579" y="261.333333" fill="#000000" font-size="14.666667" font-family="Arial,Helvetica,'Helvetica Neue',sans-serif" font-weight="500.000000">Apr</text>
  <text x="358.756010" y="261.333333" fill="#000000" font-size="14.666667" font-family="Arial,Helvetica,'Helvetica Neue',sans-serif" font-weight="500.000000">May</text>
  <text x="432.377003" y="261.333333" fill="#000000" font-size="14.666667" font-family="Arial,Helvetica,'Helvetica Neue',sans-serif" font-weight="500.000000">Jun</text>
  <text x="506.412059" y="261.333333" fill="#000000" font-size="14.666667" font-family="Arial,Helvetica,'Helvetica Neue',sans-serif" font-weight="500.000000">Jul</text>
  <text x="574.337740" y="261.333333" fill="#000000" font-size="14.666667" font-family="Arial,Helvetica,'Helvetica Neue',sans-serif" font-weight="500.000000">Aug</text>
  <text x="645.927484" y="261.333333" fill="#000000" font-size="14.666667" font-family="Arial,Helvetica,'Helvetica Neue',sans-serif" font-weight="500.000000">Sep</text>
  <text x="719.150040" y="261.333333" fill="#000000" font-size="14.666667" font-family="Arial,Helvetica,'Helvetica Neue',sans-serif" font-weight="500.000000">Oct</text>
  <text x="789.106971" y="261.333333" fill="#000000" font-size="14.666667" font-family="Arial,Helvetica,'Helvetica Neue',sans-serif" font-weight="500.000000">Nov</text>
  <text x="860.696715" y="261.333333" fill="#000000" font-size="14.666667" font-family="Arial,Helvetica,'Helvetica Neue',sans-serif" font-weight="500.000000">Dec</text>
</svg>