<svg xmlns="http://www.w3.org/2000/svg" width="900.000000" height="240.000000" viewBox="0 0 900 240">
  <rect width="900.000000" height="240.000000" fill="#ffffff"/>
  <path stroke-width="2.000000" stroke="#aa4643" fill="none" d="M100.436 151.372 L168.099 140.918 L235.763 113.577 L303.426 81.0089 L371.09 55.2761 L438.754 37.5849 L506.417 29.5434 L574.081 35.1724 L641.744 55.2761 L709.408 82.6172 L777.072 116.391 L844.735 142.526 "/>
  <path fill="#aa4643" d="M103.102 151.372 M97.769 151.372 a2.66667 2.66667 0 1 0 5.33333 0 a2.66667 2.66667 0 1 0 -5.33333 0 "/>
  <path fill="#aa4643" d="M170.766 140.918 M165.433 140.918 a2.66667 2.66667 0 1 0 5.33333 0 a2.66667 2.66667 0 1 0 -5.33333 0 "/>
  <path fill="#aa4643" d="M238.43 113.577 M233.096 113.577 a2.66667 2.66667 0 1 0 5.33333 0 a2.66667 2.66667 0 1 0 -5.33333 0 "/>
  <path fill="#aa4643" d="M306.093 81.0089 M300.76 81.0089 a2.66667 2.66667 0 1 0 5.33333 0 a2.66667 2.66667 0 1 0 -5.33333 0 "/>
  <path fill="#aa4643" d="M373.757 55.2761 M368.423 55.2761 a2.66667 2.66667 0 1 0 5.33333 0 a2.66667 2.66667 0 1 0 -5.33333 0 "/>
  <path fill="#aa4643" d="M441.42 37.5849 M436.087 37.5849 a2.66667 2.66667 0 1 0 5.33333 0 a2.66667 2.66667 0 1 0 -5.33333 0 "/>
  <path fill="#aa4643" d="M509.084 29.5434 M503.751 29.5434 a2.66667 2.66667 0 1 0 5.33333 0 a2.66667 2.66667 0 1 0 -5.33333 0 "/>
  <path fill="#aa4643" d="M576.747 35.1724 M571.414 35.1724 a2.66667 2.66667 0 1 0 5.33333 0 a2.66667 2.66667 0 1 0 -5.33333 0 "/>
  <path fill="#aa4643" d="M644.411 55.2761 M639.078 55.2761 a2.66667 2.66667 0 1 0 5.33333 0 a2.66667 2.66667 0 1 0 -5.33333 0 "/>
  <path fill="#aa4643" d="M712.075 82.6172 M706.741 82.6172 a2.66667 2.66667 0 1 0 5.33333 0 a2.66667 2.66667 0 1 0 -5.33333 0 "/>
  <path fill="#aa4643" d="M779.738 116.391 M774.405 116.391 a2.66667 2.66667 0 1 0 5.33333 0 a2.66667 2.66667 0 1 0 -5.33333 0 "/>
  <path fill="#aa4643" d="M847.402 142.526 M842.069 142.526 a2.66667 2.66667 0 1 0 5.33333 0 a2.66667 2.66667 0 1 0 -5.33333 0 "/>
  <path stroke-width="2.000000" stroke="#89a54e" fill="none" d="M100.436 165.042 L168.099 158.609 L235.763 135.691 L303.426 106.742 L371.09 76.184 L438.754 64.1218 L506.417 52.4616 L574.081 59.699 L641.744 84.6276 L709.408 110.762 L777.072 130.866 L844.735 149.764 "/>
  <path fill="#89a54e" d="M103.102 165.042 M97.769 165.042 a2.66667 2.66667 0 1 0 5.33333 0 a2.66667 2.66667 0 1 0 -5.33333 0 "/>
  <path fill="#89a54e" d="M170.766 158.609 M165.433 158.609 a2.66667 2.66667 0 1 0 5.33333 0 a2.66667 2.66667 0 1 0 -5.33333 0 "/>
  <path fill="#89a54e" d="M238.43 135.691 M233.096 135.691 a2.66667 2.66667 0 1 0 5.33333 0 a2.66667 2.66667 0 1 0 -5.33333 0 "/>
  <path fill="#89a54e" d="M306.093 106.742 M300.76 106.742 a2.66667 2.66667 0 1 0 5.33333 0 a2.66667 2.66667 0 1 0 -5.33333 0 "/>
  <path fill="#89a54e" d="M373.757 76.184 M368.423 76.184 a2.66667 2.66667 0 1 0 5.33333 0 a2.66667 2.66667 0 1 0 -5.33333 0 "/>
  <path fill="#89a54e" d="M441.42 64.1218 M436.087 64.1218 a2.66667 2.66667 0 1 0 5.33333 0 a2.66667 2.66667 0 1 0 -5.33333 0 "/>
  <path fill="#89a54e" d="M509.084 52.4616 M503.751 52.4616 a2.66667 2.66667 0 1 0 5.33333 0 a2.66667 2.66667 0 1 0 -5.33333 0 "/>
  <path fill="#89a54e" d="M576.747 59.699 M571.414 59.699 a2.66667 2.66667 0 1 0 5.33333 0 a2.66667 2.66667 0 1 0 -5.33333 0 "/>
  <path fill="#89a54e" d="M644.411 84.6276 M639.078 84.6276 a2.66667 2.66667 0 1 0 5.33333 0 a2.66667 2.66667 0 1 0 -5.33333 0 "/>
  <path fill="#89a54e" d="M712.075 110.762 M706.741 110.762 a2.66667 2.66667 0 1 0 5.33333 0 a2.66667 2.66667 0 1 0 -5.33333 0 "/>
  <path fill="#89a54e" d="M779.738 130.866 M774.405 130.866 a2.66667 2.66667 0 1 0 5.33333 0 a2.66667 2.66667 0 1 0 -5.33333 0 "/>
  <path fill="#89a54e" d="M847.402 149.764 M842.069 149.764 a2.66667 2.66667 0 1 0 5.33333 0 a2.66667 2.66667 0 1 0 -5.33333 0 "/>
  <path stroke-width="2.000000" stroke="#4572a7" fill="none" d="M100.436 83.0193 L168.099 83.0193 L235.763 74.9778 L303.426 58.8948 L371.09 38.7911 L438.754 30.7496 L506.417 22.7081 L574.081 22.7081 L641.744 34.7704 L709.408 42.8119 L777.072 62.9156 L844.735 78.9985 "/>
  <path fill="#4572a7" d="M103.102 83.0193 M97.769 83.0193 a2.66667 2.66667 0 1 0 5.33333 0 a2.66667 2.66667 0 1 0 -5.33333 0 "/>
  <path fill="#4572a7" d="M170.766 83.0193 M165.433 83.0193 a2.66667 2.66667 0 1 0 5.33333 0 a2.66667 2.66667 0 1 0 -5.33333 0 "/>
  <path fill="#4572a7" d="M238.43 74.9778 M233.096 74.9778 a2.66667 2.66667 0 1 0 5.33333 0 a2.66667 2.66667 0 1 0 -5.33333 0 "/>
  <path fill="#4572a7" d="M306.093 58.8948 M300.76 58.8948 a2.66667 2.66667 0 1 0 5.33333 0 a2.66667 2.66667 0 1 0 -5.33333 0 "/>
  <path fill="#4572a7" d="M373.757 38.7911 M368.423 38.7911 a2.66667 2.66667 0 1 0 5.33333 0 a2.66667 2.66667 0 1 0 -5.33333 0 "/>
  <path fill="#4572a7" d="M441.42 30.7496 M436.087 30.7496 a2.66667 2.66667 0 1 0 5.33333 0 a2.66667 2.66667 0 1 0 -5.33333 0 "/>
  <path fill="#4572a7" d="M509.084 22.7081 M503.751 22.7081 a2.66667 2.66667 0 1 0 5.33333 0 a2.66667 2.66667 0 1 0 -5.33333 0 "/>
  <path fill="#4572a7" d="M576.747 22.7081 M571.414 22.7081 a2.66667 2.66667 0 1 0 5.33333 0 a2.66667 2.66667 0 1 0 -5.33333 0 "/>
  <path fill="#4572a7" d="M644.411 34.7704 M639.078 34.7704 a2.66667 2.66667 0 1 0 5.33333 0 a2.66667 2.66667 0 1 0 -5.33333 0 "/>
  <path fill="#4572a7" d="M712.075 42.8119 M706.741 42.8119 a2.66667 2.66667 0 1 0 5.33333 0 a2.66667 2.66667 0 1 0 -5.33333 0 "/>
  <path fill="#4572a7" d="M779.738 62.9156 M774.405 62.9156 a2.66667 2.66667 0 1 0 5.33333 0 a2.66667 2.66667 0 1 0 -5.33333 0 "/>
  <path fill="#4572a7" d="M847.402 78.9985 M842.069 78.9985 a2.66667 2.66667 0 1 0 5.33333 0 a2.66667 2.66667 0 1 0 -5.33333 0 "/>
  <text x="378.750521" y="171.533333" fill="#000000" font-size="14.666667" font-family="Arial,Helvetica,'Helvetica Neue',sans-serif" font-weight="500.000000">Москва</text>
  <path fill="#89a54e" d="M370.317 166.533 M359.317 166.533 a5.5 5.5 0 1 0 11 0 a5.5 5.5 0 1 0 -11 0 "/>
  <text x="459.644271" y="171.533333" fill="#000000" font-size="14.666667" font-family="Arial,Helvetica,'Helvetica Neue',sans-serif" font-weight="500.000000">תל אביב</text>
  <path fill="#4572a7" d="M451.211 166.533 M440.211 166.533 a5.5 5.5 0 1 0 11 0 a5.5 5.5 0 1 0 -11 0 "/>
  <text x="538.538021" y="172.533333" fill="#000000" font-size="14.666667" font-family="Arial,Helvetica,'Helvetica Neue',sans-serif" font-weight="500.000000">北京市</text>
  <path fill="#aa4643" d="M530.105 166.533 M519.105 166.533 a5.5 5.5 0 1 0 11 0 a5.5 5.5 0 1 0 -11 0 "/>
  <path stroke-width="1.333333" stroke="#000000" fill="none" d="M59.8375 195.6 L885.333 195.6 "/>
  <path stroke-width="1.333333" stroke="#000000" fill="none" d="M100.436 190.267 L100.436 195.6 "/>
  <path stroke-width="1.333333" stroke="#000000" fill="none" d="M168.099 190.267 L168.099 195.6 "/>
  <path stroke-width="1.333333" stroke="#000000" fill="none" d="M235.763 190.267 L235.763 195.6 "/>
  <path stroke-width="1.333333" stroke="#000000" fill="none" d="M303.426 190.267 L303.426 195.6 "/>
  <path stroke-width="1.333333" stroke="#000000" fill="none" d="M371.09 190.267 L371.09 195.6 "/>
  <path stroke-width="1.333333" stroke="#000000" fill="none" d="M438.754 190.267 L438.754 195.6 "/>
  <path stroke-width="1.333333" stroke="#000000" fill="none" d="M506.417 190.267 L506.417 195.6 "/>
  <path stroke-width="1.333333" stroke="#000000" fill="none" d="M574.081 190.267 L574.081 195.6 "/>
  <path stroke-width="1.333333" stroke="#000000" fill="none" d="M641.744 190.267 L641.744 195.6 "/>
  <path stroke-width="1.333333" stroke="#000000" fill="none" d="M709.408 190.267 L709.408 195.6 "/>
  <path stroke-width="1.333333" stroke="#000000" fill="none" d="M777.072 190.267 L777.072 195.6 "/>
  <path stroke-width="1.333333" stroke="#000000" fill="none" d="M844.735 190.267 L844.735 195.6 "/>
  <text x="88.607531" y="221.333333" fill="#000000" font-size="14.666667" font-family="Arial,Helvetica,'Helvetica Neue',sans-serif" font-weight="500.000000">Jan</text>
  <text x="155.458624" y="221.333333" fill="#000000" font-size="14.666667" font-family="Arial,Helvetica,'Helvetica Neue',sans-serif" font-weight="500.000000">Feb</text>
  <text x="223.130029" y="221.333333" fill="#000000" font-size="14.666667" font-family="Arial,Helvetica,'Helvetica Neue',sans-serif" font-weight="500.000000">Mar</text>
  <text x="292.012372" y="221.333333" fill="#000000" font-size="14.666667" font-family="Arial,Helvetica,'Helvetica Neue',sans-serif" font-weight="500.000000">Apr</text>
  <text x="357.230652" y="221.333333" fill="#000000" font-size="14.666667" font-family="Arial,Helvetica,'Helvetica Neue',sans-serif" font-weight="500.000000">May</text>
  <text x="426.925495" y="221.333333" fill="#000000" font-size="14.666667" font-family="Arial,Helvetica,'Helvetica Neue',sans-serif" font-weight="500.000000">Jun</text>
  <text x="497.034401" y="221.333333" fill="#000000" font-size="14.666667" font-family="Arial,Helvetica,'Helvetica Neue',sans-serif" font-weight="500.000000">Jul</text>
  <text x="561.033931" y="221.333333" fill="#000000" font-size="14.666667" font-family="Arial,Helvetica,'Helvetica Neue',sans-serif" font-weight="500.000000">Aug</text>
  <text x="628.697524" y="221.333333" fill="#000000" font-size="14.666667" font-family="Arial,Helvetica,'Helvetica Neue',sans-serif" font-weight="500.000000">Sep</text>
  <text x="697.993929" y="221.333333" fill="#000000" font-size="14.666667" font-family="Arial,Helvetica,'Helvetica Neue',sans-serif" font-weight="500.000000">Oct</text>
  <text x="764.024710" y="221.333333" fill="#000000" font-size="14.666667" font-family="Arial,Helvetica,'Helvetica Neue',sans-serif" font-weight="500.000000">Nov</text>
  <text x="831.688303" y="221.333333" fill="#000000" font-size="14.666667" font-family="Arial,Helvetica,'Helvetica Neue',sans-serif" font-weight="500.000000">Dec</text>
  <path stroke-width="1.333333" stroke="#000000" fill="none" d="M59.8375 14.6667 L59.8375 195.6 "/>
  <path stroke-width="1.333333" stroke="#000000" fill="none" d="M59.8375 175.496 L65.1708 175.496 "/>
  <path stroke-width="1.333333" stroke="#000000" fill="none" d="M59.8375 155.393 L65.1708 155.393 "/>
  <path stroke-width="1.333333" stroke="#000000" fill="none" d="M59.8375 135.289 L65.1708 135.289 "/>
  <path stroke-width="1.333333" stroke="#000000" fill="none" d="M59.8375 115.185 L65.1708 115.185 "/>
  <path stroke-width="1.333333" stroke="#000000" fill="none" d="M59.8375 95.0815 L65.1708 95.0815 "/>
  <path stroke-width="1.333333" stroke="#000000" fill="none" d="M59.8375 74.9778 L65.1708 74.9778 "/>
  <path stroke-width="1.333333" stroke="#000000" fill="none" d="M59.8375 54.8741 L65.1708 54.8741 "/>
  <path stroke-width="1.333333" stroke="#000000" fill="none" d="M59.8375 34.7704 L65.1708 34.7704 "/>
  <path stroke-width="1.333333" stroke="#000000" fill="none" d="M59.8375 14.6667 L65.1708 14.6667 "/>
  <text x="14.666667" y="180.496296" fill="#000000" font-size="14.666667" font-family="Arial,Helvetica,'Helvetica Neue',sans-serif" font-weight="500.000000">-10.0</text>
  <text x="22.822917" y="160.392593" fill="#000000" font-size="14.666667" font-family="Arial,Helvetica,'Helvetica Neue',sans-serif" font-weight="500.000000">-5.0</text>
  <text x="27.713542" y="140.288889" fill="#000000" font-size="14.666667" font-family="Arial,Helvetica,'Helvetica Neue',sans-serif" font-weight="500.000000">0.0</text>
  <text x="27.713542" y="120.185185" fill="#000000" font-size="14.666667" font-family="Arial,Helvetica,'Helvetica Neue',sans-serif" font-weight="500.000000">5.0</text>
  <text x="19.557292" y="100.081481" fill="#000000" font-size="14.666667" font-family="Arial,Helvetica,'Helvetica Neue',sans-serif" font-weight="500.000000">10.0</text>
  <text x="19.557292" y="79.977778" fill="#000000" font-size="14.666667" font-family="Arial,Helvetica,'Helvetica Neue',sans-serif" font-weight="500.000000">15.0</text>
  <text x="19.557292" y="59.874074" fill="#000000" font-size="14.666667" font-family="Arial,Helvetica,'Helvetica Neue',sans-serif" font-weight="500.000000">20.0</text>
  <text x="19.557292" y="39.770370" fill="#000000" font-size="14.666667" font-family="Arial,Helvetica,'Helvetica Neue',sans-serif" font-weight="500.000000">25.0</text>
  <text x="19.557292" y="19.666667" fill="#000000" font-size="14.666667" font-family="Arial,Helvetica,'Helvetica Neue',sans-serif" font-weight="500.000000">30.0</text>
</svg>