<svg xmlns="http://www.w3.org/2000/svg" width="2048.000000" height="512.000000">
  <rect width="2048.000000" height="512.000000" fill="#ffffffff"/>
  <path d="M150.729 55 L176.761 135.178 L202.792 184.554 L228.824 180.606 L254.856 220.477 L280.887 245.598 L306.919 262.346 L332.951 272.606 L358.983 298.872 L385.014 252.276 L411.046 266.947 L437.078 311.916 L463.109 254.48 L489.141 261.493 L515.173 305.866 L541.205 299.88 L567.236 329.473 L593.268 349.729 L619.3 380.66 L645.331 392.139 L671.363 408.123 L697.395 283.711 L723.427 190.983 L749.458 165.877 L775.49 188.062 L801.522 239.344 L827.553 310.449 L853.585 304.787 L879.617 347.713 L905.649 362.224 L931.68 382.626 L957.712 364.131 L983.744 386.692 L1009.78 343.461 L1035.81 308.093 L1061.84 381.637 L1087.87 390.989 L1113.9 402.774 L1139.93 431.5 L1165.97 371.941 L1192 345.685 L1218.03 348.429 L1244.06 362.977 L1270.09 323.942 L1296.12 385.126 L1322.16 343.589 L1348.19 326.714 L1374.22 328.565 L1400.25 350.843 L1426.28 304.906 L1452.31 297.312 L1478.35 267.61 L1504.38 304.876 L1530.41 342.298 L1556.44 371.998 L1582.47 314.782 L1608.5 341.727 L1634.54 335.967 L1660.57 387.197 L1686.6 401.959 L1712.63 386.29 L1738.66 398.183 L1764.7 385.95 L1790.73 365.615 L1816.76 372.252 L1842.79 358.731 L1868.82 338.335 L1894.85 349.648 L1920.89 368.07 L1946.92 301.088 L1972.95 292.123 L1998.98 255.772 L2025.01 259.539 " fill="none" stroke-width="3.750000" stroke="#0066ccff"/>
  <text x="1806.812500" y="113.000000" fill="#000000ff" font-size="27.500000" font-family="Arial,Helvetica,'Helvetica Neue',sans-serif" font-weight="500.000000">Random Data</text>
  <path d="M1780.69 113.812 C1774.99 113.812 1770.38 109.195 1770.38 103.5 C1770.38 97.8046 1774.99 93.1875 1780.69 93.1875 C1786.38 93.1875 1791 97.8046 1791 103.5 C1791 109.195 1786.38 113.812 1780.69 113.812 Z" fill="#0066ccff"/>
  <path d="M154.547 431.5 L2020.5 431.5 " fill="none" stroke-width="2.500000" stroke="#000000ff"/>
  <path d="M228.824 431.5 L228.824 421.5 " fill="none" stroke-width="2.500000" stroke="#000000ff"/>
  <path d="M385.014 431.5 L385.014 421.5 " fill="none" stroke-width="2.500000" stroke="#000000ff"/>
  <path d="M541.205 431.5 L541.205 421.5 " fill="none" stroke-width="2.500000" stroke="#000000ff"/>
  <path d="M697.395 431.5 L697.395 421.5 " fill="none" stroke-width="2.500000" stroke="#000000ff"/>
  <path d="M853.585 431.5 L853.585 421.5 " fill="none" stroke-width="2.500000" stroke="#000000ff"/>
  <path d="M1009.78 431.5 L1009.78 421.5 " fill="none" stroke-width="2.500000" stroke="#000000ff"/>
  <path d="M1165.97 431.5 L1165.97 421.5 " fill="none" stroke-width="2.500000" stroke="#000000ff"/>
  <path d="M1322.16 431.5 L1322.16 421.5 " fill="none" stroke-width="2.500000" stroke="#000000ff"/>
  <path d="M1478.35 431.5 L1478.35 421.5 " fill="none" stroke-width="2.500000" stroke="#000000ff"/>
  <path d="M1634.54 431.5 L1634.54 421.5 " fill="none" stroke-width="2.500000" stroke="#000000ff"/>
  <path d="M1790.73 431.5 L1790.73 421.5 " fill="none" stroke-width="2.500000" stroke="#000000ff"/>
  <path d="M1946.92 431.5 L1946.92 421.5 " fill="none" stroke-width="2.500000" stroke="#000000ff"/>
  <text x="175.292777" y="478.500000" fill="#000000ff" font-size="27.500000" font-family="Arial,Helvetica,'Helvetica Neue',sans-serif" font-weight="500.000000">05:30:00</text>
  <text x="331.483050" y="478.500000" fill="#000000ff" font-size="27.500000" font-family="Arial,Helvetica,'Helvetica Neue',sans-serif" font-weight="500.000000">06:00:00</text>
  <text x="487.673322" y="478.500000" fill="#000000ff" font-size="27.500000" font-family="Arial,Helvetica,'Helvetica Neue',sans-serif" font-weight="500.000000">06:30:00</text>
  <text x="643.863595" y="478.500000" fill="#000000ff" font-size="27.500000" font-family="Arial,Helvetica,'Helvetica Neue',sans-serif" font-weight="500.000000">07:00:00</text>
  <text x="800.053868" y="478.500000" fill="#000000ff" font-size="27.500000" font-family="Arial,Helvetica,'Helvetica Neue',sans-serif" font-weight="500.000000">07:30:00</text>
  <text x="956.244141" y="478.500000" fill="#000000ff" font-size="27.500000" font-family="Arial,Helvetica,'Helvetica Neue',sans-serif" font-weight="500.000000">08:00:00</text>
  <text x="1112.434413" y="478.500000" fill="#000000ff" font-size="27.500000" font-family="Arial,Helvetica,'Helvetica Neue',sans-serif" font-weight="500.000000">08:30:00</text>
  <text x="1268.624686" y="478.500000" fill="#000000ff" font-size="27.500000" font-family="Arial,Helvetica,'Helvetica Neue',sans-serif" font-weight="500.000000">09:00:00</text>
  <text x="1424.814959" y="478.500000" fill="#000000ff" font-size="27.500000" font-family="Arial,Helvetica,'Helvetica Neue',sans-serif" font-weight="500.000000">09:30:00</text>
  <text x="1581.005232" y="478.500000" fill="#000000ff" font-size="27.500000" font-family="Arial,Helvetica,'Helvetica Neue',sans-serif" font-weight="500.000000">10:00:00</text>
  <text x="1737.195504" y="478.500000" fill="#000000ff" font-size="27.500000" font-family="Arial,Helvetica,'Helvetica Neue',sans-serif" font-weight="500.000000">10:30:00</text>
  <text x="1894.409215" y="478.500000" fill="#000000ff" font-size="27.500000" font-family="Arial,Helvetica,'Helvetica Neue',sans-serif" font-weight="500.000000">11:00:00</text>
  <path d="M154.547 431.5 L154.547 55 " fill="none" stroke-width="2.500000" stroke="#000000ff"/>
  <path d="M154.547 431.5 L164.547 431.5 " fill="none" stroke-width="2.500000" stroke="#000000ff"/>
  <path d="M154.547 393.85 L164.547 393.85 " fill="none" stroke-width="2.500000" stroke="#000000ff"/>
  <path d="M154.547 356.2 L164.547 356.2 " fill="none" stroke-width="2.500000" stroke="#000000ff"/>
  <path d="M154.547 318.55 L164.547 318.55 " fill="none" stroke-width="2.500000" stroke="#000000ff"/>
  <path d="M154.547 280.9 L164.547 280.9 " fill="none" stroke-width="2.500000" stroke="#000000ff"/>
  <path d="M154.547 243.25 L164.547 243.25 " fill="none" stroke-width="2.500000" stroke="#000000ff"/>
  <path d="M154.547 205.6 L164.547 205.6 " fill="none" stroke-width="2.500000" stroke="#000000ff"/>
  <path d="M154.547 167.95 L164.547 167.95 " fill="none" stroke-width="2.500000" stroke="#000000ff"/>
  <path d="M154.547 130.3 L164.547 130.3 " fill="none" stroke-width="2.500000" stroke="#000000ff"/>
  <path d="M154.547 92.65 L164.547 92.65 " fill="none" stroke-width="2.500000" stroke="#000000ff"/>
  <path d="M154.547 55 L164.547 55 " fill="none" stroke-width="2.500000" stroke="#000000ff"/>
  <text x="27.500000" y="438.000000" fill="#000000ff" font-size="27.500000" font-family="Arial,Helvetica,'Helvetica Neue',sans-serif" font-weight="500.000000">7.3 × 10⁶</text>
  <text x="27.500000" y="400.349999" fill="#000000ff" font-size="27.500000" font-family="Arial,Helvetica,'Helvetica Neue',sans-serif" font-weight="500.000000">7.4 × 10⁶</text>
  <text x="27.500000" y="362.699999" fill="#000000ff" font-size="27.500000" font-family="Arial,Helvetica,'Helvetica Neue',sans-serif" font-weight="500.000000">7.6 × 10⁶</text>
  <text x="27.500000" y="325.049996" fill="#000000ff" font-size="27.500000" font-family="Arial,Helvetica,'Helvetica Neue',sans-serif" font-weight="500.000000">7.7 × 10⁶</text>
  <text x="27.500000" y="287.399998" fill="#000000ff" font-size="27.500000" font-family="Arial,Helvetica,'Helvetica Neue',sans-serif" font-weight="500.000000">7.8 × 10⁶</text>
  <text x="27.500000" y="249.750000" fill="#000000ff" font-size="27.500000" font-family="Arial,Helvetica,'Helvetica Neue',sans-serif" font-weight="500.000000">8.0 × 10⁶</text>
  <text x="27.500000" y="212.099991" fill="#000000ff" font-size="27.500000" font-family="Arial,Helvetica,'Helvetica Neue',sans-serif" font-weight="500.000000">8.1 × 10⁶</text>
  <text x="27.500000" y="174.450004" fill="#000000ff" font-size="27.500000" font-family="Arial,Helvetica,'Helvetica Neue',sans-serif" font-weight="500.000000">8.2 × 10⁶</text>
  <text x="27.500000" y="136.799996" fill="#000000ff" font-size="27.500000" font-family="Arial,Helvetica,'Helvetica Neue',sans-serif" font-weight="500.000000">8.4 × 10⁶</text>
  <text x="27.500000" y="99.149987" fill="#000000ff" font-size="27.500000" font-family="Arial,Helvetica,'Helvetica Neue',sans-serif" font-weight="500.000000">8.5 × 10⁶</text>
  <text x="27.500000" y="61.500000" fill="#000000ff" font-size="27.500000" font-family="Arial,Helvetica,'Helvetica Neue',sans-serif" font-weight="500.000000">8.6 × 10⁶</text>
</svg>