<svg xmlns="http://www.w3.org/2000/svg" width="480.000000" height="380.000000" viewBox="0 0 480 380">
  <rect width="480.000000" height="380.000000" fill="#ffffff"/>
  <path fill="#666666" d="M120.439 330.711 L120.439 43.346 L155.639 43.346 L155.639 330.711 "/>
  <path fill="#666666" d="M174.173 330.711 L174.173 202.11 L209.373 202.11 L209.373 330.711 "/>
  <path fill="#666666" d="M227.907 330.711 L227.907 270.18 L263.107 270.18 L263.107 330.711 "/>
  <path fill="#666666" d="M281.642 330.711 L281.642 283.878 L316.842 283.878 L316.842 330.711 "/>
  <path fill="#666666" d="M335.376 330.711 L335.376 307.294 L370.576 307.294 L370.576 330.711 "/>
  <path fill="#666666" d="M389.11 330.711 L389.11 330.711 L424.31 330.711 L424.31 330.711 "/>
  <path stroke-width="1.333333" stroke="#333333" fill="none" d="M84.3045 330.711 L460.444 330.711 "/>
  <path stroke-width="1.333333" stroke="#333333" fill="none" d="M138.039 325.378 L138.039 330.711 "/>
  <path stroke-width="1.333333" stroke="#333333" fill="none" d="M191.773 325.378 L191.773 330.711 "/>
  <path stroke-width="1.333333" stroke="#333333" fill="none" d="M245.507 325.378 L245.507 330.711 "/>
  <path stroke-width="1.333333" stroke="#333333" fill="none" d="M299.242 325.378 L299.242 330.711 "/>
  <path stroke-width="1.333333" stroke="#333333" fill="none" d="M352.976 325.378 L352.976 330.711 "/>
  <path stroke-width="1.333333" stroke="#333333" fill="none" d="M406.71 325.378 L406.71 330.711 "/>
  <text x="127.843477" y="356.444444" fill="#333333" font-size="14.666667" font-family="Arial,Helvetica,'Helvetica Neue',sans-serif">1.0</text>
  <text x="181.577753" y="356.444444" fill="#333333" font-size="14.666667" font-family="Arial,Helvetica,'Helvetica Neue',sans-serif">2.0</text>
  <text x="235.312029" y="356.444444" fill="#333333" font-size="14.666667" font-family="Arial,Helvetica,'Helvetica Neue',sans-serif">3.0</text>
  <text x="289.046305" y="356.444444" fill="#333333" font-size="14.666667" font-family="Arial,Helvetica,'Helvetica Neue',sans-serif">4.0</text>
  <text x="342.780580" y="356.444444" fill="#333333" font-size="14.666667" font-family="Arial,Helvetica,'Helvetica Neue',sans-serif">5.0</text>
  <text x="396.514856" y="356.444444" fill="#333333" font-size="14.666667" font-family="Arial,Helvetica,'Helvetica Neue',sans-serif">6.0</text>
  <path stroke-width="1.333333" stroke="#333333" fill="none" d="M84.3045 19.5556 L84.3045 330.711 "/>
  <path stroke-width="1.333333" stroke="#333333" fill="none" d="M84.3045 330.711 L89.6378 330.711 "/>
  <path stroke-width="1.333333" stroke="#333333" fill="none" d="M84.3045 307.294 L89.6378 307.294 "/>
  <path stroke-width="1.333333" stroke="#333333" fill="none" d="M84.3045 293.596 L89.6378 293.596 "/>
  <path stroke-width="1.333333" stroke="#333333" fill="none" d="M84.3045 283.878 L89.6378 283.878 "/>
  <path stroke-width="1.333333" stroke="#333333" fill="none" d="M84.3045 276.339 L89.6378 276.339 "/>
  <path stroke-width="1.333333" stroke="#333333" fill="none" d="M84.3045 270.18 L89.6378 270.18 "/>
  <path stroke-width="1.333333" stroke="#333333" fill="none" d="M84.3045 264.972 L89.6378 264.972 "/>
  <path stroke-width="1.333333" stroke="#333333" fill="none" d="M84.3045 260.461 L89.6378 260.461 "/>
  <path stroke-width="1.333333" stroke="#333333" fill="none" d="M84.3045 256.482 L89.6378 256.482 "/>
  <path stroke-width="1.333333" stroke="#333333" fill="none" d="M84.3045 252.922 L89.6378 252.922 "/>
  <path stroke-width="1.333333" stroke="#333333" fill="none" d="M84.3045 229.505 L89.6378 229.505 "/>
  <path stroke-width="1.333333" stroke="#333333" fill="none" d="M84.3045 215.807 L89.6378 215.807 "/>
  <path stroke-width="1.333333" stroke="#333333" fill="none" d="M84.3045 206.089 L89.6378 206.089 "/>
  <path stroke-width="1.333333" stroke="#333333" fill="none" d="M84.3045 198.55 L89.6378 198.55 "/>
  <path stroke-width="1.333333" stroke="#333333" fill="none" d="M84.3045 192.391 L89.6378 192.391 "/>
  <path stroke-width="1.333333" stroke="#333333" fill="none" d="M84.3045 187.183 L89.6378 187.183 "/>
  <path stroke-width="1.333333" stroke="#333333" fill="none" d="M84.3045 182.672 L89.6378 182.672 "/>
  <path stroke-width="1.333333" stroke="#333333" fill="none" d="M84.3045 178.693 L89.6378 178.693 "/>
  <path stroke-width="1.333333" stroke="#333333" fill="none" d="M84.3045 175.133 L89.6378 175.133 "/>
  <path stroke-width="1.333333" stroke="#333333" fill="none" d="M84.3045 151.717 L89.6378 151.717 "/>
  <path stroke-width="1.333333" stroke="#333333" fill="none" d="M84.3045 138.019 L89.6378 138.019 "/>
  <path stroke-width="1.333333" stroke="#333333" fill="none" d="M84.3045 128.3 L89.6378 128.3 "/>
  <path stroke-width="1.333333" stroke="#333333" fill="none" d="M84.3045 120.761 L89.6378 120.761 "/>
  <path stroke-width="1.333333" stroke="#333333" fill="none" d="M84.3045 114.602 L89.6378 114.602 "/>
  <path stroke-width="1.333333" stroke="#333333" fill="none" d="M84.3045 109.394 L89.6378 109.394 "/>
  <path stroke-width="1.333333" stroke="#333333" fill="none" d="M84.3045 104.883 L89.6378 104.883 "/>
  <path stroke-width="1.333333" stroke="#333333" fill="none" d="M84.3045 100.904 L89.6378 100.904 "/>
  <path stroke-width="1.333333" stroke="#333333" fill="none" d="M84.3045 97.3444 L89.6378 97.3444 "/>
  <path stroke-width="1.333333" stroke="#333333" fill="none" d="M84.3045 73.9277 L89.6378 73.9277 "/>
  <path stroke-width="1.333333" stroke="#333333" fill="none" d="M84.3045 60.2297 L89.6378 60.2297 "/>
  <path stroke-width="1.333333" stroke="#333333" fill="none" d="M84.3045 50.5109 L89.6378 50.5109 "/>
  <path stroke-width="1.333333" stroke="#333333" fill="none" d="M84.3045 42.9723 L89.6378 42.9723 "/>
  <path stroke-width="1.333333" stroke="#333333" fill="none" d="M84.3045 36.8129 L89.6378 36.8129 "/>
  <path stroke-width="1.333333" stroke="#333333" fill="none" d="M84.3045 31.6052 L89.6378 31.6052 "/>
  <path stroke-width="1.333333" stroke="#333333" fill="none" d="M84.3045 27.0941 L89.6378 27.0941 "/>
  <path stroke-width="1.333333" stroke="#333333" fill="none" d="M84.3045 23.115 L89.6378 23.115 "/>
  <path stroke-width="1.333333" stroke="#333333" fill="none" d="M84.3045 19.5556 L89.6378 19.5556 "/>
  <text x="52.180556" y="335.711111" fill="#333333" font-size="14.666667" font-family="Arial,Helvetica,'Helvetica Neue',sans-serif">1.0</text>
  <text x="44.024306" y="257.922222" fill="#333333" font-size="14.666667" font-family="Arial,Helvetica,'Helvetica Neue',sans-serif">10.0</text>
  <text x="35.868056" y="180.133333" fill="#333333" font-size="14.666667" font-family="Arial,Helvetica,'Helvetica Neue',sans-serif">100.0</text>
  <text x="27.711806" y="102.344444" fill="#333333" font-size="14.666667" font-family="Arial,Helvetica,'Helvetica Neue',sans-serif">1000.0</text>
  <text x="19.555556" y="24.555556" fill="#333333" font-size="14.666667" font-family="Arial,Helvetica,'Helvetica Neue',sans-serif">10000.0</text>
</svg>