<svg xmlns="http://www.w3.org/2000/svg" width="900.000000" height="300.000000" viewBox="0 0 900 300">
  <rect width="900.000000" height="300.000000" fill="#ffffffff"/>
  <path d="M181.347 255.6 L181.347 33.0881 L207.747 33.0881 L207.747 255.6 Z" fill="#666666ff"/>
  <path d="M296.478 255.6 L296.478 156.021 L322.878 156.021 L322.878 255.6 Z" fill="#666666ff"/>
  <path d="M411.609 255.6 L411.609 208.729 L438.009 208.729 L438.009 255.6 Z" fill="#666666ff"/>
  <path d="M526.74 255.6 L526.74 219.336 L553.14 219.336 L553.14 255.6 Z" fill="#666666ff"/>
  <path d="M641.871 255.6 L641.871 237.468 L668.271 237.468 L668.271 255.6 Z" fill="#666666ff"/>
  <path d="M757.002 255.6 L757.002 255.6 L783.402 255.6 L783.402 255.6 Z" fill="#666666ff"/>
  <path d="M79.4156 255.6 L885.333 255.6 " fill="none" stroke-width="1.333333" stroke="#000000ff"/>
  <path d="M194.547 250.267 L194.547 255.6 " fill="none" stroke-width="1.333333" stroke="#000000ff"/>
  <path d="M309.678 250.267 L309.678 255.6 " fill="none" stroke-width="1.333333" stroke="#000000ff"/>
  <path d="M424.809 250.267 L424.809 255.6 " fill="none" stroke-width="1.333333" stroke="#000000ff"/>
  <path d="M539.94 250.267 L539.94 255.6 " fill="none" stroke-width="1.333333" stroke="#000000ff"/>
  <path d="M655.071 250.267 L655.071 255.6 " fill="none" stroke-width="1.333333" stroke="#000000ff"/>
  <path d="M770.202 250.267 L770.202 255.6 " fill="none" stroke-width="1.333333" stroke="#000000ff"/>
  <text x="184.351414" y="281.333333" fill="#000000ff" font-size="14.666667" font-family="Arial,Helvetica,'Helvetica Neue',sans-serif" font-weight="500.000000">1.0</text>
  <text x="299.482515" y="281.333333" fill="#000000ff" font-size="14.666667" font-family="Arial,Helvetica,'Helvetica Neue',sans-serif" font-weight="500.000000">2.0</text>
  <text x="414.613616" y="281.333333" fill="#000000ff" font-size="14.666667" font-family="Arial,Helvetica,'Helvetica Neue',sans-serif" font-weight="500.000000">3.0</text>
  <text x="529.744717" y="281.333333" fill="#000000ff" font-size="14.666667" font-family="Arial,Helvetica,'Helvetica Neue',sans-serif" font-weight="500.000000">4.0</text>
  <text x="644.875818" y="281.333333" fill="#000000ff" font-size="14.666667" font-family="Arial,Helvetica,'Helvetica Neue',sans-serif" font-weight="500.000000">5.0</text>
  <text x="760.006920" y="281.333333" fill="#000000ff" font-size="14.666667" font-family="Arial,Helvetica,'Helvetica Neue',sans-serif" font-weight="500.000000">6.0</text>
  <path d="M79.4156 14.6667 L79.4156 255.6 " fill="none" stroke-width="1.333333" stroke="#000000ff"/>
  <path d="M79.4156 255.6 L84.749 255.6 " fill="none" stroke-width="1.333333" stroke="#000000ff"/>
  <path d="M79.4156 237.468 L84.749 237.468 " fill="none" stroke-width="1.333333" stroke="#000000ff"/>
  <path d="M79.4156 226.861 L84.749 226.861 " fill="none" stroke-width="1.333333" stroke="#000000ff"/>
  <path d="M79.4156 219.336 L84.749 219.336 " fill="none" stroke-width="1.333333" stroke="#000000ff"/>
  <path d="M79.4156 213.499 L84.749 213.499 " fill="none" stroke-width="1.333333" stroke="#000000ff"/>
  <path d="M79.4156 208.729 L84.749 208.729 " fill="none" stroke-width="1.333333" stroke="#000000ff"/>
  <path d="M79.4156 204.697 L84.749 204.697 " fill="none" stroke-width="1.333333" stroke="#000000ff"/>
  <path d="M79.4156 201.204 L84.749 201.204 " fill="none" stroke-width="1.333333" stroke="#000000ff"/>
  <path d="M79.4156 198.123 L84.749 198.123 " fill="none" stroke-width="1.333333" stroke="#000000ff"/>
  <path d="M79.4156 195.367 L84.749 195.367 " fill="none" stroke-width="1.333333" stroke="#000000ff"/>
  <path d="M79.4156 177.235 L84.749 177.235 " fill="none" stroke-width="1.333333" stroke="#000000ff"/>
  <path d="M79.4156 166.628 L84.749 166.628 " fill="none" stroke-width="1.333333" stroke="#000000ff"/>
  <path d="M79.4156 159.103 L84.749 159.103 " fill="none" stroke-width="1.333333" stroke="#000000ff"/>
  <path d="M79.4156 153.265 L84.749 153.265 " fill="none" stroke-width="1.333333" stroke="#000000ff"/>
  <path d="M79.4156 148.496 L84.749 148.496 " fill="none" stroke-width="1.333333" stroke="#000000ff"/>
  <path d="M79.4156 144.464 L84.749 144.464 " fill="none" stroke-width="1.333333" stroke="#000000ff"/>
  <path d="M79.4156 140.971 L84.749 140.971 " fill="none" stroke-width="1.333333" stroke="#000000ff"/>
  <path d="M79.4156 137.889 L84.749 137.889 " fill="none" stroke-width="1.333333" stroke="#000000ff"/>
  <path d="M79.4156 135.133 L84.749 135.133 " fill="none" stroke-width="1.333333" stroke="#000000ff"/>
  <path d="M79.4156 117.001 L84.749 117.001 " fill="none" stroke-width="1.333333" stroke="#000000ff"/>
  <path d="M79.4156 106.395 L84.749 106.395 " fill="none" stroke-width="1.333333" stroke="#000000ff"/>
  <path d="M79.4156 98.8693 L84.749 98.8693 " fill="none" stroke-width="1.333333" stroke="#000000ff"/>
  <path d="M79.4156 93.032 L84.749 93.032 " fill="none" stroke-width="1.333333" stroke="#000000ff"/>
  <path d="M79.4156 88.2627 L84.749 88.2627 " fill="none" stroke-width="1.333333" stroke="#000000ff"/>
  <path d="M79.4156 84.2303 L84.749 84.2303 " fill="none" stroke-width="1.333333" stroke="#000000ff"/>
  <path d="M79.4156 80.7372 L84.749 80.7372 " fill="none" stroke-width="1.333333" stroke="#000000ff"/>
  <path d="M79.4156 77.6561 L84.749 77.6561 " fill="none" stroke-width="1.333333" stroke="#000000ff"/>
  <path d="M79.4156 74.9 L84.749 74.9 " fill="none" stroke-width="1.333333" stroke="#000000ff"/>
  <path d="M79.4156 56.768 L84.749 56.768 " fill="none" stroke-width="1.333333" stroke="#000000ff"/>
  <path d="M79.4156 46.1614 L84.749 46.1614 " fill="none" stroke-width="1.333333" stroke="#000000ff"/>
  <path d="M79.4156 38.6359 L84.749 38.6359 " fill="none" stroke-width="1.333333" stroke="#000000ff"/>
  <path d="M79.4156 32.7987 L84.749 32.7987 " fill="none" stroke-width="1.333333" stroke="#000000ff"/>
  <path d="M79.4156 28.0294 L84.749 28.0294 " fill="none" stroke-width="1.333333" stroke="#000000ff"/>
  <path d="M79.4156 23.9969 L84.749 23.9969 " fill="none" stroke-width="1.333333" stroke="#000000ff"/>
  <path d="M79.4156 20.5039 L84.749 20.5039 " fill="none" stroke-width="1.333333" stroke="#000000ff"/>
  <path d="M79.4156 17.4228 L84.749 17.4228 " fill="none" stroke-width="1.333333" stroke="#000000ff"/>
  <path d="M79.4156 14.6667 L84.749 14.6667 " fill="none" stroke-width="1.333333" stroke="#000000ff"/>
  <text x="47.291667" y="260.600000" fill="#000000ff" font-size="14.666667" font-family="Arial,Helvetica,'Helvetica Neue',sans-serif" font-weight="500.000000">1.0</text>
  <text x="39.135417" y="200.366667" fill="#000000ff" font-size="14.666667" font-family="Arial,Helvetica,'Helvetica Neue',sans-serif" font-weight="500.000000">10.0</text>
  <text x="30.979167" y="140.133333" fill="#000000ff" font-size="14.666667" font-family="Arial,Helvetica,'Helvetica Neue',sans-serif" font-weight="500.000000">100.0</text>
  <text x="22.822917" y="79.900000" fill="#000000ff" font-size="14.666667" font-family="Arial,Helvetica,'Helvetica Neue',sans-serif" font-weight="500.000000">1000.0</text>
  <text x="14.666667" y="19.666667" fill="#000000ff" font-size="14.666667" font-family="Arial,Helvetica,'Helvetica Neue',sans-serif" font-weight="500.000000">10000.0</text>
</svg>