<svg xmlns="http://www.w3.org/2000/svg" width="960.000000" height="240.000000" viewBox="0 0 960 240">
  <rect width="960.000000" height="240.000000" fill="#ffffff"/>
  <path stroke-width="2.000000" stroke="#4572a7" fill="none" d="M60.4372 167.374 L136.721 165.203 L213.005 154.347 L289.29 134.083 L365.574 109.476 L441.858 85.5925 L518.142 72.5653 L594.426 75.4603 L670.71 92.8299 L746.995 121.055 L823.279 147.834 L899.563 160.861 "/>
  <path fill="#4572a7" d="M64.4372 167.374 M56.4372 167.374 a4 4 0 1 0 8 0 a4 4 0 1 0 -8 0 "/>
  <path fill="#4572a7" d="M140.721 165.203 M132.721 165.203 a4 4 0 1 0 8 0 a4 4 0 1 0 -8 0 "/>
  <path fill="#4572a7" d="M217.005 154.347 M209.005 154.347 a4 4 0 1 0 8 0 a4 4 0 1 0 -8 0 "/>
  <path fill="#4572a7" d="M293.29 134.083 M285.29 134.083 a4 4 0 1 0 8 0 a4 4 0 1 0 -8 0 "/>
  <path fill="#4572a7" d="M369.574 109.476 M361.574 109.476 a4 4 0 1 0 8 0 a4 4 0 1 0 -8 0 "/>
  <path fill="#4572a7" d="M445.858 85.5925 M437.858 85.5925 a4 4 0 1 0 8 0 a4 4 0 1 0 -8 0 "/>
  <path fill="#4572a7" d="M522.142 72.5653 M514.142 72.5653 a4 4 0 1 0 8 0 a4 4 0 1 0 -8 0 "/>
  <path fill="#4572a7" d="M598.426 75.4603 M590.426 75.4603 a4 4 0 1 0 8 0 a4 4 0 1 0 -8 0 "/>
  <path fill="#4572a7" d="M674.71 92.8299 M666.71 92.8299 a4 4 0 1 0 8 0 a4 4 0 1 0 -8 0 "/>
  <path fill="#4572a7" d="M750.995 121.055 M742.995 121.055 a4 4 0 1 0 8 0 a4 4 0 1 0 -8 0 "/>
  <path fill="#4572a7" d="M827.279 147.834 M819.279 147.834 a4 4 0 1 0 8 0 a4 4 0 1 0 -8 0 "/>
  <path fill="#4572a7" d="M903.563 160.861 M895.563 160.861 a4 4 0 1 0 8 0 a4 4 0 1 0 -8 0 "/>
  <text x="42.007471" y="153.507733" fill="#000000" font-size="14.666667" font-family="Arial,Helvetica,'Helvetica Neue',sans-serif" font-weight="500.000000">3.9°C</text>
  <text x="118.291624" y="151.336533" fill="#000000" font-size="14.666667" font-family="Arial,Helvetica,'Helvetica Neue',sans-serif" font-weight="500.000000">4.2°C</text>
  <text x="194.575777" y="140.480533" fill="#000000" font-size="14.666667" font-family="Arial,Helvetica,'Helvetica Neue',sans-serif" font-weight="500.000000">5.7°C</text>
  <text x="270.859930" y="120.216000" fill="#000000" font-size="14.666667" font-family="Arial,Helvetica,'Helvetica Neue',sans-serif" font-weight="500.000000">8.5°C</text>
  <text x="343.612833" y="95.609067" fill="#000000" font-size="14.666667" font-family="Arial,Helvetica,'Helvetica Neue',sans-serif" font-weight="500.000000">11.9°C</text>
  <text x="419.350111" y="71.725867" fill="#000000" font-size="14.666667" font-family="Arial,Helvetica,'Helvetica Neue',sans-serif" font-weight="500.000000">15.2°C</text>
  <text x="495.634264" y="58.698667" fill="#000000" font-size="14.666667" font-family="Arial,Helvetica,'Helvetica Neue',sans-serif" font-weight="500.000000">17.0°C</text>
  <text x="571.918417" y="61.593600" fill="#000000" font-size="14.666667" font-family="Arial,Helvetica,'Helvetica Neue',sans-serif" font-weight="500.000000">16.6°C</text>
  <text x="648.202570" y="78.963200" fill="#000000" font-size="14.666667" font-family="Arial,Helvetica,'Helvetica Neue',sans-serif" font-weight="500.000000">14.2°C</text>
  <text x="724.486723" y="107.188800" fill="#000000" font-size="14.666667" font-family="Arial,Helvetica,'Helvetica Neue',sans-serif" font-weight="500.000000">10.3°C</text>
  <text x="804.849001" y="133.966933" fill="#000000" font-size="14.666667" font-family="Arial,Helvetica,'Helvetica Neue',sans-serif" font-weight="500.000000">6.6°C</text>
  <text x="881.133154" y="146.994133" fill="#000000" font-size="14.666667" font-family="Arial,Helvetica,'Helvetica Neue',sans-serif" font-weight="500.000000">4.8°C</text>
  <text x="60.133333" y="55.066667" fill="#000000" font-size="14.666667" font-family="Arial,Helvetica,'Helvetica Neue',sans-serif" font-weight="500.000000">London - Average Temperature</text>
  <path fill="#4572a7" d="M51.7 50.0667 M40.7 50.0667 a5.5 5.5 0 1 0 11 0 a5.5 5.5 0 1 0 -11 0 "/>
  <path stroke-width="1.333333" stroke="#000000" fill="none" d="M14.6667 195.6 L945.333 195.6 "/>
  <path stroke-width="1.333333" stroke="#000000" fill="none" d="M60.4372 190.267 L60.4372 195.6 "/>
  <path stroke-width="1.333333" stroke="#000000" fill="none" d="M136.721 190.267 L136.721 195.6 "/>
  <path stroke-width="1.333333" stroke="#000000" fill="none" d="M213.005 190.267 L213.005 195.6 "/>
  <path stroke-width="1.333333" stroke="#000000" fill="none" d="M289.29 190.267 L289.29 195.6 "/>
  <path stroke-width="1.333333" stroke="#000000" fill="none" d="M365.574 190.267 L365.574 195.6 "/>
  <path stroke-width="1.333333" stroke="#000000" fill="none" d="M441.858 190.267 L441.858 195.6 "/>
  <path stroke-width="1.333333" stroke="#000000" fill="none" d="M518.142 190.267 L518.142 195.6 "/>
  <path stroke-width="1.333333" stroke="#000000" fill="none" d="M594.426 190.267 L594.426 195.6 "/>
  <path stroke-width="1.333333" stroke="#000000" fill="none" d="M670.71 190.267 L670.71 195.6 "/>
  <path stroke-width="1.333333" stroke="#000000" fill="none" d="M746.995 190.267 L746.995 195.6 "/>
  <path stroke-width="1.333333" stroke="#000000" fill="none" d="M823.279 190.267 L823.279 195.6 "/>
  <path stroke-width="1.333333" stroke="#000000" fill="none" d="M899.563 190.267 L899.563 195.6 "/>
  <text x="48.609033" y="221.333333" fill="#000000" font-size="14.666667" font-family="Arial,Helvetica,'Helvetica Neue',sans-serif" font-weight="500.000000">Jan</text>
  <text x="124.080686" y="221.333333" fill="#000000" font-size="14.666667" font-family="Arial,Helvetica,'Helvetica Neue',sans-serif" font-weight="500.000000">Feb</text>
  <text x="200.372652" y="221.333333" fill="#000000" font-size="14.666667" font-family="Arial,Helvetica,'Helvetica Neue',sans-serif" font-weight="500.000000">Mar</text>
  <text x="277.875555" y="221.333333" fill="#000000" font-size="14.666667" font-family="Arial,Helvetica,'Helvetica Neue',sans-serif" font-weight="500.000000">Apr</text>
  <text x="351.714395" y="221.333333" fill="#000000" font-size="14.666667" font-family="Arial,Helvetica,'Helvetica Neue',sans-serif" font-weight="500.000000">May</text>
  <text x="430.029798" y="221.333333" fill="#000000" font-size="14.666667" font-family="Arial,Helvetica,'Helvetica Neue',sans-serif" font-weight="500.000000">Jun</text>
  <text x="508.759264" y="221.333333" fill="#000000" font-size="14.666667" font-family="Arial,Helvetica,'Helvetica Neue',sans-serif" font-weight="500.000000">Jul</text>
  <text x="581.379355" y="221.333333" fill="#000000" font-size="14.666667" font-family="Arial,Helvetica,'Helvetica Neue',sans-serif" font-weight="500.000000">Aug</text>
  <text x="657.663508" y="221.333333" fill="#000000" font-size="14.666667" font-family="Arial,Helvetica,'Helvetica Neue',sans-serif" font-weight="500.000000">Sep</text>
  <text x="735.580473" y="221.333333" fill="#000000" font-size="14.666667" font-family="Arial,Helvetica,'Helvetica Neue',sans-serif" font-weight="500.000000">Oct</text>
  <text x="810.231814" y="221.333333" fill="#000000" font-size="14.666667" font-family="Arial,Helvetica,'Helvetica Neue',sans-serif" font-weight="500.000000">Nov</text>
  <text x="886.515967" y="221.333333" fill="#000000" font-size="14.666667" font-family="Arial,Helvetica,'Helvetica Neue',sans-serif" font-weight="500.000000">Dec</text>
</svg>