<svg xmlns="http://www.w3.org/2000/svg" width="1200.000000" height="480.000000" viewBox="0 0 1200 480">
  <rect width="1200.000000" height="480.000000" fill="#ffffff"/>
  <path stroke-width="2.000000" stroke="#0066cc" fill="none" d="M119.598 294.638 L211.05 291.701 L302.502 277.017 L393.955 249.607 L485.407 216.323 L576.859 184.018 L668.312 166.397 L759.764 170.313 L851.216 193.807 L942.668 231.986 L1034.12 268.207 L1125.57 285.828 "/>
  <path fill="#0066cc" d="M123.598 294.638 M115.598 294.638 a4 4 0 1 0 8 0 a4 4 0 1 0 -8 0 "/>
  <path fill="#0066cc" d="M215.05 291.701 M207.05 291.701 a4 4 0 1 0 8 0 a4 4 0 1 0 -8 0 "/>
  <path fill="#0066cc" d="M306.502 277.017 M298.502 277.017 a4 4 0 1 0 8 0 a4 4 0 1 0 -8 0 "/>
  <path fill="#0066cc" d="M397.955 249.607 M389.955 249.607 a4 4 0 1 0 8 0 a4 4 0 1 0 -8 0 "/>
  <path fill="#0066cc" d="M489.407 216.323 M481.407 216.323 a4 4 0 1 0 8 0 a4 4 0 1 0 -8 0 "/>
  <path fill="#0066cc" d="M580.859 184.018 M572.859 184.018 a4 4 0 1 0 8 0 a4 4 0 1 0 -8 0 "/>
  <path fill="#0066cc" d="M672.312 166.397 M664.312 166.397 a4 4 0 1 0 8 0 a4 4 0 1 0 -8 0 "/>
  <path fill="#0066cc" d="M763.764 170.313 M755.764 170.313 a4 4 0 1 0 8 0 a4 4 0 1 0 -8 0 "/>
  <path fill="#0066cc" d="M855.216 193.807 M847.216 193.807 a4 4 0 1 0 8 0 a4 4 0 1 0 -8 0 "/>
  <path fill="#0066cc" d="M946.668 231.986 M938.668 231.986 a4 4 0 1 0 8 0 a4 4 0 1 0 -8 0 "/>
  <path fill="#0066cc" d="M1038.12 268.207 M1030.12 268.207 a4 4 0 1 0 8 0 a4 4 0 1 0 -8 0 "/>
  <path fill="#0066cc" d="M1129.57 285.828 M1121.57 285.828 a4 4 0 1 0 8 0 a4 4 0 1 0 -8 0 "/>
  <text x="101.168081" y="280.771534" fill="#000000" font-size="14.666667" font-family="Arial,Helvetica,'Helvetica Neue',sans-serif">3.9°C</text>
  <text x="192.620381" y="277.834709" fill="#000000" font-size="14.666667" font-family="Arial,Helvetica,'Helvetica Neue',sans-serif">4.2°C</text>
  <text x="284.072680" y="263.150582" fill="#000000" font-size="14.666667" font-family="Arial,Helvetica,'Helvetica Neue',sans-serif">5.7°C</text>
  <text x="375.524980" y="235.740212" fill="#000000" font-size="14.666667" font-family="Arial,Helvetica,'Helvetica Neue',sans-serif">8.5°C</text>
  <text x="463.446030" y="202.456190" fill="#000000" font-size="14.666667" font-family="Arial,Helvetica,'Helvetica Neue',sans-serif">11.9°C</text>
  <text x="554.351454" y="170.151111" fill="#000000" font-size="14.666667" font-family="Arial,Helvetica,'Helvetica Neue',sans-serif">15.2°C</text>
  <text x="645.803754" y="152.530159" fill="#000000" font-size="14.666667" font-family="Arial,Helvetica,'Helvetica Neue',sans-serif">17.0°C</text>
  <text x="737.256054" y="156.445926" fill="#000000" font-size="14.666667" font-family="Arial,Helvetica,'Helvetica Neue',sans-serif">16.6°C</text>
  <text x="828.708353" y="179.940529" fill="#000000" font-size="14.666667" font-family="Arial,Helvetica,'Helvetica Neue',sans-serif">14.2°C</text>
  <text x="920.160653" y="218.119259" fill="#000000" font-size="14.666667" font-family="Arial,Helvetica,'Helvetica Neue',sans-serif">10.3°C</text>
  <text x="1015.691078" y="254.340106" fill="#000000" font-size="14.666667" font-family="Arial,Helvetica,'Helvetica Neue',sans-serif">6.6°C</text>
  <text x="1107.143377" y="271.961058" fill="#000000" font-size="14.666667" font-family="Arial,Helvetica,'Helvetica Neue',sans-serif">4.8°C</text>
  <path stroke-width="1.000000" stroke="#333333" fill="none" d="M84.2819 361.867 L193.842 361.867 "/>
  <path stroke-width="1.000000" stroke="#333333" fill="none" d="M193.842 361.867 L193.842 411.156 "/>
  <path stroke-width="1.000000" stroke="#333333" fill="none" d="M84.2819 411.156 L193.842 411.156 "/>
  <path stroke-width="1.000000" stroke="#333333" fill="none" d="M84.2819 361.867 L84.2819 411.156 "/>
  <text x="125.348611" y="391.511111" fill="#333333" font-size="14.666667" font-family="Arial,Helvetica,'Helvetica Neue',sans-serif">London</text>
  <path fill="#0066cc" d="M113.249 386.511 M102.249 386.511 a5.5 5.5 0 1 0 11 0 a5.5 5.5 0 1 0 -11 0 "/>
  <path stroke-width="1.333333" stroke="#333333" fill="none" d="M64.7264 430.711 L1180.44 430.711 "/>
  <path stroke-width="1.333333" stroke="#333333" fill="none" d="M119.598 425.378 L119.598 430.711 "/>
  <path stroke-width="1.333333" stroke="#333333" fill="none" d="M211.05 425.378 L211.05 430.711 "/>
  <path stroke-width="1.333333" stroke="#333333" fill="none" d="M302.502 425.378 L302.502 430.711 "/>
  <path stroke-width="1.333333" stroke="#333333" fill="none" d="M393.955 425.378 L393.955 430.711 "/>
  <path stroke-width="1.333333" stroke="#333333" fill="none" d="M485.407 425.378 L485.407 430.711 "/>
  <path stroke-width="1.333333" stroke="#333333" fill="none" d="M576.859 425.378 L576.859 430.711 "/>
  <path stroke-width="1.333333" stroke="#333333" fill="none" d="M668.312 425.378 L668.312 430.711 "/>
  <path stroke-width="1.333333" stroke="#333333" fill="none" d="M759.764 425.378 L759.764 430.711 "/>
  <path stroke-width="1.333333" stroke="#333333" fill="none" d="M851.216 425.378 L851.216 430.711 "/>
  <path stroke-width="1.333333" stroke="#333333" fill="none" d="M942.668 425.378 L942.668 430.711 "/>
  <path stroke-width="1.333333" stroke="#333333" fill="none" d="M1034.12 425.378 L1034.12 430.711 "/>
  <path stroke-width="1.333333" stroke="#333333" fill="none" d="M1125.57 425.378 L1125.57 430.711 "/>
  <text x="107.769644" y="456.444444" fill="#333333" font-size="14.666667" font-family="Arial,Helvetica,'Helvetica Neue',sans-serif">Jan</text>
  <text x="198.409443" y="456.444444" fill="#333333" font-size="14.666667" font-family="Arial,Helvetica,'Helvetica Neue',sans-serif">Feb</text>
  <text x="289.869555" y="456.444444" fill="#333333" font-size="14.666667" font-family="Arial,Helvetica,'Helvetica Neue',sans-serif">Mar</text>
  <text x="382.540605" y="456.444444" fill="#333333" font-size="14.666667" font-family="Arial,Helvetica,'Helvetica Neue',sans-serif">Apr</text>
  <text x="471.547592" y="456.444444" fill="#333333" font-size="14.666667" font-family="Arial,Helvetica,'Helvetica Neue',sans-serif">May</text>
  <text x="565.031142" y="456.444444" fill="#333333" font-size="14.666667" font-family="Arial,Helvetica,'Helvetica Neue',sans-serif">Jun</text>
  <text x="658.928754" y="456.444444" fill="#333333" font-size="14.666667" font-family="Arial,Helvetica,'Helvetica Neue',sans-serif">Jul</text>
  <text x="746.716991" y="456.444444" fill="#333333" font-size="14.666667" font-family="Arial,Helvetica,'Helvetica Neue',sans-serif">Aug</text>
  <text x="838.169291" y="456.444444" fill="#333333" font-size="14.666667" font-family="Arial,Helvetica,'Helvetica Neue',sans-serif">Sep</text>
  <text x="931.254403" y="456.444444" fill="#333333" font-size="14.666667" font-family="Arial,Helvetica,'Helvetica Neue',sans-serif">Oct</text>
  <text x="1021.073890" y="456.444444" fill="#333333" font-size="14.666667" font-family="Arial,Helvetica,'Helvetica Neue',sans-serif">Nov</text>
  <text x="1112.526190" y="456.444444" fill="#333333" font-size="14.666667" font-family="Arial,Helvetica,'Helvetica Neue',sans-serif">Dec</text>
  <path stroke-width="1.333333" stroke="#333333" fill="none" d="M64.7264 19.5556 L64.7264 430.711 "/>
  <path stroke-width="1.333333" stroke="#333333" fill="none" d="M64.7264 430.711 L70.0597 430.711 "/>
  <path stroke-width="1.333333" stroke="#333333" fill="none" d="M64.7264 381.764 L70.0597 381.764 "/>
  <path stroke-width="1.333333" stroke="#333333" fill="none" d="M64.7264 332.817 L70.0597 332.817 "/>
  <path stroke-width="1.333333" stroke="#333333" fill="none" d="M64.7264 283.87 L70.0597 283.87 "/>
  <path stroke-width="1.333333" stroke="#333333" fill="none" d="M64.7264 234.923 L70.0597 234.923 "/>
  <path stroke-width="1.333333" stroke="#333333" fill="none" d="M64.7264 185.976 L70.0597 185.976 "/>
  <path stroke-width="1.333333" stroke="#333333" fill="none" d="M64.7264 137.029 L70.0597 137.029 "/>
  <path stroke-width="1.333333" stroke="#333333" fill="none" d="M64.7264 88.0815 L70.0597 88.0815 "/>
  <path stroke-width="1.333333" stroke="#333333" fill="none" d="M64.7264 39.1344 L70.0597 39.1344 "/>
  <text x="19.555556" y="435.711111" fill="#333333" font-size="14.666667" font-family="Arial,Helvetica,'Helvetica Neue',sans-serif">-10.0</text>
  <text x="27.711806" y="386.764021" fill="#333333" font-size="14.666667" font-family="Arial,Helvetica,'Helvetica Neue',sans-serif">-5.0</text>
  <text x="32.602431" y="337.816931" fill="#333333" font-size="14.666667" font-family="Arial,Helvetica,'Helvetica Neue',sans-serif">0.0</text>
  <text x="32.602431" y="288.869841" fill="#333333" font-size="14.666667" font-family="Arial,Helvetica,'Helvetica Neue',sans-serif">5.0</text>
  <text x="24.446181" y="239.922751" fill="#333333" font-size="14.666667" font-family="Arial,Helvetica,'Helvetica Neue',sans-serif">10.0</text>
  <text x="24.446181" y="190.975661" fill="#333333" font-size="14.666667" font-family="Arial,Helvetica,'Helvetica Neue',sans-serif">15.0</text>
  <text x="24.446181" y="142.028571" fill="#333333" font-size="14.666667" font-family="Arial,Helvetica,'Helvetica Neue',sans-serif">20.0</text>
  <text x="24.446181" y="93.081481" fill="#333333" font-size="14.666667" font-family="Arial,Helvetica,'Helvetica Neue',sans-serif">25.0</text>
  <text x="24.446181" y="44.134392" fill="#333333" font-size="14.666667" font-family="Arial,Helvetica,'Helvetica Neue',sans-serif">30.0</text>
</svg>