<svg xmlns="http://www.w3.org/2000/svg" width="1200.000000" height="480.000000" viewBox="0 0 1200 480">
  <rect width="1200.000000" height="480.000000" fill="#ffffff"/>
  <path stroke-width="2.000000" stroke="#4572a7" fill="none" d="M119.598 282.695 L211.05 275.22 L302.502 238.589 L393.955 196.726 L485.407 154.116 L576.859 116.738 L668.312 95.8062 L759.764 101.039 L851.216 130.941 L942.668 175.795 L1034.12 216.91 L1125.57 262.511 "/>
  <path fill="#4572a7" d="M123.598 282.695 M115.598 282.695 a4 4 0 1 0 8 0 a4 4 0 1 0 -8 0 "/>
  <path fill="#4572a7" d="M215.05 275.22 M207.05 275.22 a4 4 0 1 0 8 0 a4 4 0 1 0 -8 0 "/>
  <path fill="#4572a7" d="M306.502 238.589 M298.502 238.589 a4 4 0 1 0 8 0 a4 4 0 1 0 -8 0 "/>
  <path fill="#4572a7" d="M397.955 196.726 M389.955 196.726 a4 4 0 1 0 8 0 a4 4 0 1 0 -8 0 "/>
  <path fill="#4572a7" d="M489.407 154.116 M481.407 154.116 a4 4 0 1 0 8 0 a4 4 0 1 0 -8 0 "/>
  <path fill="#4572a7" d="M580.859 116.738 M572.859 116.738 a4 4 0 1 0 8 0 a4 4 0 1 0 -8 0 "/>
  <path fill="#4572a7" d="M672.312 95.8062 M664.312 95.8062 a4 4 0 1 0 8 0 a4 4 0 1 0 -8 0 "/>
  <path fill="#4572a7" d="M763.764 101.039 M755.764 101.039 a4 4 0 1 0 8 0 a4 4 0 1 0 -8 0 "/>
  <path fill="#4572a7" d="M855.216 130.941 M847.216 130.941 a4 4 0 1 0 8 0 a4 4 0 1 0 -8 0 "/>
  <path fill="#4572a7" d="M946.668 175.795 M938.668 175.795 a4 4 0 1 0 8 0 a4 4 0 1 0 -8 0 "/>
  <path fill="#4572a7" d="M1038.12 216.91 M1030.12 216.91 a4 4 0 1 0 8 0 a4 4 0 1 0 -8 0 "/>
  <path fill="#4572a7" d="M1129.57 262.511 M1121.57 262.511 a4 4 0 1 0 8 0 a4 4 0 1 0 -8 0 "/>
  <path stroke-width="2.000000" stroke="#aa4643" fill="none" d="M119.598 311.102 L211.05 291.666 L302.502 240.832 L393.955 180.28 L485.407 132.436 L576.859 99.544 L668.312 84.5929 L759.764 95.0587 L851.216 132.436 L942.668 183.27 L1034.12 246.065 L1125.57 294.656 "/>
  <path fill="#aa4643" d="M123.598 311.102 M115.598 311.102 a4 4 0 1 0 8 0 a4 4 0 1 0 -8 0 "/>
  <path fill="#aa4643" d="M215.05 291.666 M207.05 291.666 a4 4 0 1 0 8 0 a4 4 0 1 0 -8 0 "/>
  <path fill="#aa4643" d="M306.502 240.832 M298.502 240.832 a4 4 0 1 0 8 0 a4 4 0 1 0 -8 0 "/>
  <path fill="#aa4643" d="M397.955 180.28 M389.955 180.28 a4 4 0 1 0 8 0 a4 4 0 1 0 -8 0 "/>
  <path fill="#aa4643" d="M489.407 132.436 M481.407 132.436 a4 4 0 1 0 8 0 a4 4 0 1 0 -8 0 "/>
  <path fill="#aa4643" d="M580.859 99.544 M572.859 99.544 a4 4 0 1 0 8 0 a4 4 0 1 0 -8 0 "/>
  <path fill="#aa4643" d="M672.312 84.5929 M664.312 84.5929 a4 4 0 1 0 8 0 a4 4 0 1 0 -8 0 "/>
  <path fill="#aa4643" d="M763.764 95.0587 M755.764 95.0587 a4 4 0 1 0 8 0 a4 4 0 1 0 -8 0 "/>
  <path fill="#aa4643" d="M855.216 132.436 M847.216 132.436 a4 4 0 1 0 8 0 a4 4 0 1 0 -8 0 "/>
  <path fill="#aa4643" d="M946.668 183.27 M938.668 183.27 a4 4 0 1 0 8 0 a4 4 0 1 0 -8 0 "/>
  <path fill="#aa4643" d="M1038.12 246.065 M1030.12 246.065 a4 4 0 1 0 8 0 a4 4 0 1 0 -8 0 "/>
  <path fill="#aa4643" d="M1129.57 294.656 M1121.57 294.656 a4 4 0 1 0 8 0 a4 4 0 1 0 -8 0 "/>
  <path stroke-width="2.000000" stroke="#89a54e" fill="none" d="M119.598 336.519 L211.05 324.558 L302.502 281.948 L393.955 228.124 L485.407 171.309 L576.859 148.883 L668.312 127.204 L759.764 140.66 L851.216 187.008 L942.668 235.599 L1034.12 272.977 L1125.57 308.112 "/>
  <path fill="#89a54e" d="M123.598 336.519 M115.598 336.519 a4 4 0 1 0 8 0 a4 4 0 1 0 -8 0 "/>
  <path fill="#89a54e" d="M215.05 324.558 M207.05 324.558 a4 4 0 1 0 8 0 a4 4 0 1 0 -8 0 "/>
  <path fill="#89a54e" d="M306.502 281.948 M298.502 281.948 a4 4 0 1 0 8 0 a4 4 0 1 0 -8 0 "/>
  <path fill="#89a54e" d="M397.955 228.124 M389.955 228.124 a4 4 0 1 0 8 0 a4 4 0 1 0 -8 0 "/>
  <path fill="#89a54e" d="M489.407 171.309 M481.407 171.309 a4 4 0 1 0 8 0 a4 4 0 1 0 -8 0 "/>
  <path fill="#89a54e" d="M580.859 148.883 M572.859 148.883 a4 4 0 1 0 8 0 a4 4 0 1 0 -8 0 "/>
  <path fill="#89a54e" d="M672.312 127.204 M664.312 127.204 a4 4 0 1 0 8 0 a4 4 0 1 0 -8 0 "/>
  <path fill="#89a54e" d="M763.764 140.66 M755.764 140.66 a4 4 0 1 0 8 0 a4 4 0 1 0 -8 0 "/>
  <path fill="#89a54e" d="M855.216 187.008 M847.216 187.008 a4 4 0 1 0 8 0 a4 4 0 1 0 -8 0 "/>
  <path fill="#89a54e" d="M946.668 235.599 M938.668 235.599 a4 4 0 1 0 8 0 a4 4 0 1 0 -8 0 "/>
  <path fill="#89a54e" d="M1038.12 272.977 M1030.12 272.977 a4 4 0 1 0 8 0 a4 4 0 1 0 -8 0 "/>
  <path fill="#89a54e" d="M1129.57 308.112 M1121.57 308.112 a4 4 0 1 0 8 0 a4 4 0 1 0 -8 0 "/>
  <path stroke-width="2.000000" stroke="#80699b" fill="none" d="M119.598 287.928 L211.05 276.715 L302.502 255.036 L393.955 218.405 L485.407 180.28 L576.859 154.116 L668.312 142.155 L759.764 147.388 L851.216 174.3 L942.668 213.92 L1034.12 252.045 L1125.57 273.724 "/>
  <path fill="#80699b" d="M123.598 287.928 M115.598 287.928 a4 4 0 1 0 8 0 a4 4 0 1 0 -8 0 "/>
  <path fill="#80699b" d="M215.05 276.715 M207.05 276.715 a4 4 0 1 0 8 0 a4 4 0 1 0 -8 0 "/>
  <path fill="#80699b" d="M306.502 255.036 M298.502 255.036 a4 4 0 1 0 8 0 a4 4 0 1 0 -8 0 "/>
  <path fill="#80699b" d="M397.955 218.405 M389.955 218.405 a4 4 0 1 0 8 0 a4 4 0 1 0 -8 0 "/>
  <path fill="#80699b" d="M489.407 180.28 M481.407 180.28 a4 4 0 1 0 8 0 a4 4 0 1 0 -8 0 "/>
  <path fill="#80699b" d="M580.859 154.116 M572.859 154.116 a4 4 0 1 0 8 0 a4 4 0 1 0 -8 0 "/>
  <path fill="#80699b" d="M672.312 142.155 M664.312 142.155 a4 4 0 1 0 8 0 a4 4 0 1 0 -8 0 "/>
  <path fill="#80699b" d="M763.764 147.388 M755.764 147.388 a4 4 0 1 0 8 0 a4 4 0 1 0 -8 0 "/>
  <path fill="#80699b" d="M855.216 174.3 M847.216 174.3 a4 4 0 1 0 8 0 a4 4 0 1 0 -8 0 "/>
  <path fill="#80699b" d="M946.668 213.92 M938.668 213.92 a4 4 0 1 0 8 0 a4 4 0 1 0 -8 0 "/>
  <path fill="#80699b" d="M1038.12 252.045 M1030.12 252.045 a4 4 0 1 0 8 0 a4 4 0 1 0 -8 0 "/>
  <path fill="#80699b" d="M1129.57 273.724 M1121.57 273.724 a4 4 0 1 0 8 0 a4 4 0 1 0 -8 0 "/>
  <text x="115.570833" y="401.288889" fill="#333333" font-size="14.666667" font-family="Arial,Helvetica,'Helvetica Neue',sans-serif">New York</text>
  <path fill="#4572a7" d="M102.493 396.289 M91.4931 396.289 a5.5 5.5 0 1 0 11 0 a5.5 5.5 0 1 0 -11 0 "/>
  <text x="218.621875" y="401.288889" fill="#333333" font-size="14.666667" font-family="Arial,Helvetica,'Helvetica Neue',sans-serif">北京市   </text>
  <path fill="#aa4643" d="M205.544 396.289 M194.544 396.289 a5.5 5.5 0 1 0 11 0 a5.5 5.5 0 1 0 -11 0 "/>
  <text x="304.922917" y="401.288889" fill="#333333" font-size="14.666667" font-family="Arial,Helvetica,'Helvetica Neue',sans-serif">Москва</text>
  <path fill="#89a54e" d="M291.845 396.289 M280.845 396.289 a5.5 5.5 0 1 0 11 0 a5.5 5.5 0 1 0 -11 0 "/>
  <text x="396.083333" y="401.288889" fill="#333333" font-size="14.666667" font-family="Arial,Helvetica,'Helvetica Neue',sans-serif">Berlin</text>
  <path fill="#80699b" d="M383.006 396.289 M372.006 396.289 a5.5 5.5 0 1 0 11 0 a5.5 5.5 0 1 0 -11 0 "/>
  <path stroke-width="1.333333" stroke="#333333" fill="none" d="M64.7264 430.711 L1180.44 430.711 "/>
  <path stroke-width="1.333333" stroke="#333333" fill="none" d="M119.598 425.378 L119.598 430.711 "/>
  <path stroke-width="1.333333" stroke="#333333" fill="none" d="M211.05 425.378 L211.05 430.711 "/>
  <path stroke-width="1.333333" stroke="#333333" fill="none" d="M302.502 425.378 L302.502 430.711 "/>
  <path stroke-width="1.333333" stroke="#333333" fill="none" d="M393.955 425.378 L393.955 430.711 "/>
  <path stroke-width="1.333333" stroke="#333333" fill="none" d="M485.407 425.378 L485.407 430.711 "/>
  <path stroke-width="1.333333" stroke="#333333" fill="none" d="M576.859 425.378 L576.859 430.711 "/>
  <path stroke-width="1.333333" stroke="#333333" fill="none" d="M668.312 425.378 L668.312 430.711 "/>
  <path stroke-width="1.333333" stroke="#333333" fill="none" d="M759.764 425.378 L759.764 430.711 "/>
  <path stroke-width="1.333333" stroke="#333333" fill="none" d="M851.216 425.378 L851.216 430.711 "/>
  <path stroke-width="1.333333" stroke="#333333" fill="none" d="M942.668 425.378 L942.668 430.711 "/>
  <path stroke-width="1.333333" stroke="#333333" fill="none" d="M1034.12 425.378 L1034.12 430.711 "/>
  <path stroke-width="1.333333" stroke="#333333" fill="none" d="M1125.57 425.378 L1125.57 430.711 "/>
  <text x="107.769644" y="456.444444" fill="#333333" font-size="14.666667" font-family="Arial,Helvetica,'Helvetica Neue',sans-serif">Jan</text>
  <text x="198.409443" y="456.444444" fill="#333333" font-size="14.666667" font-family="Arial,Helvetica,'Helvetica Neue',sans-serif">Feb</text>
  <text x="289.869555" y="456.444444" fill="#333333" font-size="14.666667" font-family="Arial,Helvetica,'Helvetica Neue',sans-serif">Mar</text>
  <text x="382.540605" y="456.444444" fill="#333333" font-size="14.666667" font-family="Arial,Helvetica,'Helvetica Neue',sans-serif">Apr</text>
  <text x="471.547592" y="456.444444" fill="#333333" font-size="14.666667" font-family="Arial,Helvetica,'Helvetica Neue',sans-serif">May</text>
  <text x="565.031142" y="456.444444" fill="#333333" font-size="14.666667" font-family="Arial,Helvetica,'Helvetica Neue',sans-serif">Jun</text>
  <text x="658.928754" y="456.444444" fill="#333333" font-size="14.666667" font-family="Arial,Helvetica,'Helvetica Neue',sans-serif">Jul</text>
  <text x="746.716991" y="456.444444" fill="#333333" font-size="14.666667" font-family="Arial,Helvetica,'Helvetica Neue',sans-serif">Aug</text>
  <text x="838.169291" y="456.444444" fill="#333333" font-size="14.666667" font-family="Arial,Helvetica,'Helvetica Neue',sans-serif">Sep</text>
  <text x="931.254403" y="456.444444" fill="#333333" font-size="14.666667" font-family="Arial,Helvetica,'Helvetica Neue',sans-serif">Oct</text>
  <text x="1021.073890" y="456.444444" fill="#333333" font-size="14.666667" font-family="Arial,Helvetica,'Helvetica Neue',sans-serif">Nov</text>
  <text x="1112.526190" y="456.444444" fill="#333333" font-size="14.666667" font-family="Arial,Helvetica,'Helvetica Neue',sans-serif">Dec</text>
  <path stroke-width="1.333333" stroke="#333333" fill="none" d="M64.7264 19.5556 L64.7264 430.711 "/>
  <path stroke-width="1.333333" stroke="#333333" fill="none" d="M64.7264 430.711 L70.0597 430.711 "/>
  <path stroke-width="1.333333" stroke="#333333" fill="none" d="M64.7264 393.333 L70.0597 393.333 "/>
  <path stroke-width="1.333333" stroke="#333333" fill="none" d="M64.7264 355.956 L70.0597 355.956 "/>
  <path stroke-width="1.333333" stroke="#333333" fill="none" d="M64.7264 318.578 L70.0597 318.578 "/>
  <path stroke-width="1.333333" stroke="#333333" fill="none" d="M64.7264 281.2 L70.0597 281.2 "/>
  <path stroke-width="1.333333" stroke="#333333" fill="none" d="M64.7264 243.822 L70.0597 243.822 "/>
  <path stroke-width="1.333333" stroke="#333333" fill="none" d="M64.7264 206.444 L70.0597 206.444 "/>
  <path stroke-width="1.333333" stroke="#333333" fill="none" d="M64.7264 169.067 L70.0597 169.067 "/>
  <path stroke-width="1.333333" stroke="#333333" fill="none" d="M64.7264 131.689 L70.0597 131.689 "/>
  <path stroke-width="1.333333" stroke="#333333" fill="none" d="M64.7264 94.3111 L70.0597 94.3111 "/>
  <path stroke-width="1.333333" stroke="#333333" fill="none" d="M64.7264 56.9333 L70.0597 56.9333 "/>
  <path stroke-width="1.333333" stroke="#333333" fill="none" d="M64.7264 19.5556 L70.0597 19.5556 "/>
  <text x="19.555556" y="435.711111" fill="#333333" font-size="14.666667" font-family="Arial,Helvetica,'Helvetica Neue',sans-serif">-20.0</text>
  <text x="19.555556" y="398.333333" fill="#333333" font-size="14.666667" font-family="Arial,Helvetica,'Helvetica Neue',sans-serif">-15.0</text>
  <text x="19.555556" y="360.955556" fill="#333333" font-size="14.666667" font-family="Arial,Helvetica,'Helvetica Neue',sans-serif">-10.0</text>
  <text x="27.711806" y="323.577778" fill="#333333" font-size="14.666667" font-family="Arial,Helvetica,'Helvetica Neue',sans-serif">-5.0</text>
  <text x="32.602431" y="286.200000" fill="#333333" font-size="14.666667" font-family="Arial,Helvetica,'Helvetica Neue',sans-serif">0.0</text>
  <text x="32.602431" y="248.822222" fill="#333333" font-size="14.666667" font-family="Arial,Helvetica,'Helvetica Neue',sans-serif">5.0</text>
  <text x="24.446181" y="211.444444" fill="#333333" font-size="14.666667" font-family="Arial,Helvetica,'Helvetica Neue',sans-serif">10.0</text>
  <text x="24.446181" y="174.066667" fill="#333333" font-size="14.666667" font-family="Arial,Helvetica,'Helvetica Neue',sans-serif">15.0</text>
  <text x="24.446181" y="136.688889" fill="#333333" font-size="14.666667" font-family="Arial,Helvetica,'Helvetica Neue',sans-serif">20.0</text>
  <text x="24.446181" y="99.311111" fill="#333333" font-size="14.666667" font-family="Arial,Helvetica,'Helvetica Neue',sans-serif">25.0</text>
  <text x="24.446181" y="61.933333" fill="#333333" font-size="14.666667" font-family="Arial,Helvetica,'Helvetica Neue',sans-serif">30.0</text>
  <text x="24.446181" y="24.555556" fill="#333333" font-size="14.666667" font-family="Arial,Helvetica,'Helvetica Neue',sans-serif">35.0</text>
</svg>