<svg xmlns="http://www.w3.org/2000/svg" width="2048.000000" height="1024.000000">
  <rect width="2048.000000" height="1024.000000" fill="#ffffffff"/>
  <path d="M129.188 916 L2011.33 916 L2011.33 36.6667 L129.188 36.6667 Z" fill="#eeeeeeff"/>
  <path d="M341.46 916 L341.46 36.6667 " fill="none" stroke-width="3.333333" stroke="#ffffffff"/>
  <path d="M553.732 916 L553.732 36.6667 " fill="none" stroke-width="3.333333" stroke="#ffffffff"/>
  <path d="M766.004 916 L766.004 36.6667 " fill="none" stroke-width="3.333333" stroke="#ffffffff"/>
  <path d="M978.276 916 L978.276 36.6667 " fill="none" stroke-width="3.333333" stroke="#ffffffff"/>
  <path d="M1190.55 916 L1190.55 36.6667 " fill="none" stroke-width="3.333333" stroke="#ffffffff"/>
  <path d="M1402.82 916 L1402.82 36.6667 " fill="none" stroke-width="3.333333" stroke="#ffffffff"/>
  <path d="M1615.09 916 L1615.09 36.6667 " fill="none" stroke-width="3.333333" stroke="#ffffffff"/>
  <path d="M1827.36 916 L1827.36 36.6667 " fill="none" stroke-width="3.333333" stroke="#ffffffff"/>
  <path d="M129.188 36.6667 L2011.33 36.6667 " fill="none" stroke-width="3.333333" stroke="#ffffffff"/>
  <path d="M129.188 124.6 L2011.33 124.6 " fill="none" stroke-width="3.333333" stroke="#ffffffff"/>
  <path d="M129.188 212.533 L2011.33 212.533 " fill="none" stroke-width="3.333333" stroke="#ffffffff"/>
  <path d="M129.188 300.467 L2011.33 300.467 " fill="none" stroke-width="3.333333" stroke="#ffffffff"/>
  <path d="M129.188 388.4 L2011.33 388.4 " fill="none" stroke-width="3.333333" stroke="#ffffffff"/>
  <path d="M129.188 476.333 L2011.33 476.333 " fill="none" stroke-width="3.333333" stroke="#ffffffff"/>
  <path d="M129.188 564.267 L2011.33 564.267 " fill="none" stroke-width="3.333333" stroke="#ffffffff"/>
  <path d="M129.188 652.2 L2011.33 652.2 " fill="none" stroke-width="3.333333" stroke="#ffffffff"/>
  <path d="M129.188 740.133 L2011.33 740.133 " fill="none" stroke-width="3.333333" stroke="#ffffffff"/>
  <path d="M129.188 828.067 L2011.33 828.067 " fill="none" stroke-width="3.333333" stroke="#ffffffff"/>
  <path d="M129.188 916 L2011.33 916 " fill="none" stroke-width="3.333333" stroke="#ffffffff"/>
  <path d="M129.188 478.278 L133.905 481.089 L138.622 416.444 L143.339 437.048 L148.056 475.21 L152.773 536.392 L157.49 406.789 L162.208 431.808 L166.925 480.909 L171.642 408.635 L176.359 518.897 L181.076 561.737 L185.793 408.3 L190.511 416.167 L195.228 401.686 L199.945 554.16 L204.662 456.302 L209.379 559.53 L214.096 501.341 L218.813 404.993 L223.531 541.971 L228.248 445.89 L232.965 514.744 L237.682 427.754 L242.399 395.377 L247.116 464.596 L251.834 523.216 L256.551 430.228 L261.268 419.997 L265.985 432.442 L270.702 535.021 L275.419 423.714 L280.137 548.676 L284.854 558.123 L289.571 415.229 L294.288 541.428 L299.005 456.784 L303.722 495.306 L308.439 535.298 L313.157 393.89 L317.874 507.616 L322.591 505.333 L327.308 504.641 L332.025 418.43 L336.742 404.934 L341.46 393.001 L346.177 402.726 L350.894 399.583 L355.611 455.283 L360.328 422.592 L365.045 523.058 L369.763 491.958 L374.48 483.187 L379.197 420.421 L383.914 462.838 L388.631 429.379 L393.348 390.125 L398.065 455.582 L402.783 486.159 L407.5 414.862 L412.217 491.118 L416.934 400.345 L421.651 549.773 L426.368 413.113 L431.086 542.68 L435.803 404.544 L440.52 548.878 L445.237 487.834 L449.954 473.218 L454.671 440.188 L459.389 562.341 L464.106 421.129 L468.823 460.491 L473.54 433.164 L478.257 453.754 L482.974 436.814 L487.691 556.446 L492.409 448.078 L497.126 417.129 L501.843 403.764 L506.56 452.205 L511.277 500.381 L515.994 416.291 L520.712 479.554 L525.429 548.899 L530.146 457.456 L534.863 497.385 L539.58 409.423 L544.297 432.132 L549.015 466.039 L553.732 563.177 L558.449 521.205 L563.166 399.569 L567.883 435.257 L572.6 443.535 L577.317 407.126 L582.035 479.864 L586.752 523.957 L591.469 440.602 L596.186 492.965 L600.903 502.933 L605.62 497.519 L610.338 440.18 L615.055 514.476 L619.772 466.057 L624.489 469.476 L629.206 442.155 L633.923 455.218 L638.641 442.509 L643.358 525.124 L648.075 507.799 L652.792 461.997 L657.509 473.896 L662.226 560.526 L666.943 457.136 L671.661 452.935 L676.378 420.533 L681.095 541.867 L685.812 487.214 L690.529 450.029 L695.246 545.49 L699.964 533.721 L704.681 440.53 L709.398 549.125 L714.115 459.628 L718.832 410.552 L723.549 406.403 L728.266 493.53 L732.984 482.803 L737.701 427.898 L742.418 507.072 L747.135 538.411 L751.852 474.365 L756.569 409.377 L761.287 486.765 L766.004 451.387 L770.721 511.091 L775.438 542.612 L780.155 434.355 L784.872 563.435 L789.59 456.365 L794.307 473.616 L799.024 451.786 L803.741 479.022 L808.458 524.723 L813.175 509.652 L817.892 407.57 L822.61 457.784 L827.327 428.722 L832.044 527.766 L836.761 557.468 L841.478 494.059 L846.195 455.431 L850.913 440.905 L855.63 549.8 L860.347 430.072 L865.064 533.231 L869.781 454.83 L874.498 552.873 L879.216 437.238 L883.933 539.591 L888.65 556.352 L893.367 534.823 L898.084 497.214 L902.801 554.675 L907.518 469.997 L912.236 454.421 L916.953 431.891 L921.67 472.756 L926.387 488.146 L931.104 557.963 L935.821 563.495 L940.539 561.796 L945.256 484.932 L949.973 466.262 L954.69 542.419 L959.407 558.904 L964.124 523.467 L968.842 461.094 L973.559 454.689 L978.276 447.79 L982.993 397.54 L987.71 519.71 L992.427 491.332 L997.144 399.193 L1001.86 423.428 L1006.58 401.089 L1011.3 543 L1016.01 530.328 L1020.73 458.575 L1025.45 446.69 L1030.16 416.713 L1034.88 532.424 L1039.6 527.006 L1044.32 495.133 L1049.03 458.907 L1053.75 462.292 L1058.47 516.565 L1063.18 434.888 L1067.9 504.681 L1072.62 511.062 L1077.34 443.317 L1082.05 446.946 L1086.77 447.058 L1091.49 389.396 L1096.2 443.297 L1100.92 388.695 L1105.64 398.232 L1110.36 417.519 L1115.07 473.063 L1119.79 546.417 L1124.51 391.297 L1129.22 545.659 L1133.94 511.386 L1138.66 440.329 L1143.38 399.946 L1148.09 408.369 L1152.81 390.073 L1157.53 511.742 L1162.24 442.522 L1166.96 388.744 L1171.68 423.282 L1176.4 391.819 L1181.11 493.757 L1185.83 403.678 L1190.55 422.89 L1195.27 408.378 L1199.98 409.749 L1204.7 557.451 L1209.42 521.773 L1214.13 395.152 L1218.85 455.356 L1223.57 468.258 L1228.29 519.058 L1233 477.297 L1237.72 432.69 L1242.44 527.236 L1247.15 422.821 L1251.87 408.237 L1256.59 475.041 L1261.31 433.198 L1266.02 450.7 L1270.74 444.355 L1275.46 390.558 L1280.17 440.138 L1284.89 506.361 L1289.61 527.363 L1294.33 475.629 L1299.04 535.272 L1303.76 397.685 L1308.48 425.107 L1313.19 412.994 L1317.91 547.085 L1322.63 561.801 L1327.35 416.914 L1332.06 463.171 L1336.78 469.287 L1341.5 444.848 L1346.21 507.822 L1350.93 432.86 L1355.65 436.108 L1360.37 392.543 L1365.08 524.27 L1369.8 514.8 L1374.52 562.055 L1379.23 534.593 L1383.95 501.74 L1388.67 525.713 L1393.39 439.03 L1398.1 522.852 L1402.82 396.565 L1407.54 555.293 L1412.25 457.935 L1416.97 409.371 L1421.69 461.968 L1426.41 560.168 L1431.12 388.915 L1435.84 416.152 L1440.56 514.573 L1445.27 512.303 L1449.99 419.158 L1454.71 555.98 L1459.43 452.471 L1464.14 388.559 L1468.86 421.025 L1473.58 531.443 L1478.29 415.667 L1483.01 391.285 L1487.73 411.191 L1492.45 546.586 L1497.16 540.071 L1501.88 467.493 L1506.6 481.493 L1511.31 557.35 L1516.03 516.671 L1520.75 548.77 L1525.47 526.355 L1530.18 474.189 L1534.9 425.345 L1539.62 484.875 L1544.33 543.463 L1549.05 402.035 L1553.77 455.201 L1558.49 543.765 L1563.2 402.44 L1567.92 463.501 L1572.64 560.074 L1577.35 413.398 L1582.07 548.374 L1586.79 483.792 L1591.51 398.936 L1596.22 395.323 L1600.94 462.968 L1605.66 450.163 L1610.37 465.308 L1615.09 403.082 L1619.81 513.28 L1624.53 432.679 L1629.24 441.838 L1633.96 434.625 L1638.68 493.354 L1643.4 425.949 L1648.11 410.363 L1652.83 489.237 L1657.55 464.31 L1662.26 418.267 L1666.98 478.654 L1671.7 537.521 L1676.42 555.018 L1681.13 543.881 L1685.85 534.482 L1690.57 519.515 L1695.28 477.386 L1700 443.999 L1704.72 472.82 L1709.44 511.017 L1714.15 545.232 L1718.87 558.98 L1723.59 437.305 L1728.3 421.086 L1733.02 481.171 L1737.74 397.163 L1742.46 521.665 L1747.17 427.248 L1751.89 395.384 L1756.61 437.544 L1761.32 458.812 L1766.04 501.432 L1770.76 444.143 L1775.48 453.329 L1780.19 403.472 L1784.91 395.817 L1789.63 389.795 L1794.34 445.364 L1799.06 400.671 L1803.78 408.853 L1808.5 514.546 L1813.21 449.031 L1817.93 492.888 L1822.65 467.54 L1827.36 486.727 L1832.08 561.689 L1836.8 521.297 L1841.52 451.669 L1846.23 458.686 L1850.95 563.806 L1855.67 392.561 L1860.38 530.066 L1865.1 478.979 L1869.82 421.916 L1874.54 414.178 L1879.25 433.873 L1883.97 461.129 L1888.69 458.699 L1893.4 395.558 L1898.12 403.945 L1902.84 431.957 L1907.56 397.491 L1912.27 466.98 L1916.99 480.917 L1921.71 392.091 L1926.42 562.062 L1931.14 471.914 L1935.86 422.123 L1940.58 522.682 L1945.29 402.022 L1950.01 513.371 L1954.73 555.591 L1959.44 492.324 L1964.16 395.813 L1968.88 416.23 L1973.6 490.605 L1978.31 535.553 L1983.03 403.03 L1987.75 448.52 L1992.46 432.787 L1997.18 447.982 L2001.9 429.787 L2006.62 409.826 L2011.33 396.659 " fill="none" stroke-width="5.000000" stroke="#000000ff"/>
  <text x="1733.765625" y="107.333333" fill="#000000ff" font-size="36.666667" font-family="Arial,Helvetica,'Helvetica Neue',sans-serif" font-weight="500.000000">Random Data</text>
  <path d="M1698.93 108.083 C1691.34 108.083 1685.18 101.927 1685.18 94.3333 C1685.18 86.7394 1691.34 80.5833 1698.93 80.5833 C1706.53 80.5833 1712.68 86.7394 1712.68 94.3333 C1712.68 101.927 1706.53 108.083 1698.93 108.083 Z" fill="#000000ff"/>
  <text x="270.100211" y="979.333333" fill="#000000ff" font-size="36.666667" font-family="Arial,Helvetica,'Helvetica Neue',sans-serif" font-weight="500.000000">00:15:00</text>
  <text x="482.372298" y="979.333333" fill="#000000ff" font-size="36.666667" font-family="Arial,Helvetica,'Helvetica Neue',sans-serif" font-weight="500.000000">00:30:00</text>
  <text x="694.644384" y="979.333333" fill="#000000ff" font-size="36.666667" font-family="Arial,Helvetica,'Helvetica Neue',sans-serif" font-weight="500.000000">00:45:00</text>
  <text x="906.916471" y="979.333333" fill="#000000ff" font-size="36.666667" font-family="Arial,Helvetica,'Helvetica Neue',sans-serif" font-weight="500.000000">01:00:00</text>
  <text x="1119.188557" y="979.333333" fill="#000000ff" font-size="36.666667" font-family="Arial,Helvetica,'Helvetica Neue',sans-serif" font-weight="500.000000">01:15:00</text>
  <text x="1331.460644" y="979.333333" fill="#000000ff" font-size="36.666667" font-family="Arial,Helvetica,'Helvetica Neue',sans-serif" font-weight="500.000000">01:30:00</text>
  <text x="1543.732730" y="979.333333" fill="#000000ff" font-size="36.666667" font-family="Arial,Helvetica,'Helvetica Neue',sans-serif" font-weight="500.000000">01:45:00</text>
  <text x="1756.004817" y="979.333333" fill="#000000ff" font-size="36.666667" font-family="Arial,Helvetica,'Helvetica Neue',sans-serif" font-weight="500.000000">02:00:00</text>
  <text x="36.666667" y="929.000000" fill="#000000ff" font-size="36.666667" font-family="Arial,Helvetica,'Helvetica Neue',sans-serif" font-weight="500.000000">-5.0</text>
  <text x="36.666667" y="841.066665" fill="#000000ff" font-size="36.666667" font-family="Arial,Helvetica,'Helvetica Neue',sans-serif" font-weight="500.000000">-4.0</text>
  <text x="36.666667" y="753.133331" fill="#000000ff" font-size="36.666667" font-family="Arial,Helvetica,'Helvetica Neue',sans-serif" font-weight="500.000000">-3.0</text>
  <text x="36.666667" y="665.199990" fill="#000000ff" font-size="36.666667" font-family="Arial,Helvetica,'Helvetica Neue',sans-serif" font-weight="500.000000">-2.0</text>
  <text x="36.666667" y="577.266661" fill="#000000ff" font-size="36.666667" font-family="Arial,Helvetica,'Helvetica Neue',sans-serif" font-weight="500.000000">-1.0</text>
  <text x="48.885417" y="489.333333" fill="#000000ff" font-size="36.666667" font-family="Arial,Helvetica,'Helvetica Neue',sans-serif" font-weight="500.000000">0.0</text>
  <text x="48.885417" y="401.399979" fill="#000000ff" font-size="36.666667" font-family="Arial,Helvetica,'Helvetica Neue',sans-serif" font-weight="500.000000">1.0</text>
  <text x="48.885417" y="313.466677" fill="#000000ff" font-size="36.666667" font-family="Arial,Helvetica,'Helvetica Neue',sans-serif" font-weight="500.000000">2.0</text>
  <text x="48.885417" y="225.533323" fill="#000000ff" font-size="36.666667" font-family="Arial,Helvetica,'Helvetica Neue',sans-serif" font-weight="500.000000">3.0</text>
  <text x="48.885417" y="137.599969" fill="#000000ff" font-size="36.666667" font-family="Arial,Helvetica,'Helvetica Neue',sans-serif" font-weight="500.000000">4.0</text>
  <text x="48.885417" y="49.666667" fill="#000000ff" font-size="36.666667" font-family="Arial,Helvetica,'Helvetica Neue',sans-serif" font-weight="500.000000">5.0</text>
</svg>