<svg xmlns="http://www.w3.org/2000/svg" width="900.000000" height="480.000000" viewBox="0 0 900 480">
  <rect width="900.000000" height="480.000000" fill="#ffffff"/>
  <path fill="#eeeeee" d="M88.5406 14.6667 L885.333 14.6667 L885.333 435.6 L88.5406 435.6 L88.5406 14.6667 "/>
  <path stroke-width="1.333333" stroke="#ffffff" fill="none" d="M88.5406 14.6667 L88.5406 435.6 "/>
  <path stroke-width="1.333333" stroke="#ffffff" fill="none" d="M168.22 14.6667 L168.22 435.6 "/>
  <path stroke-width="1.333333" stroke="#ffffff" fill="none" d="M247.899 14.6667 L247.899 435.6 "/>
  <path stroke-width="1.333333" stroke="#ffffff" fill="none" d="M327.578 14.6667 L327.578 435.6 "/>
  <path stroke-width="1.333333" stroke="#ffffff" fill="none" d="M407.258 14.6667 L407.258 435.6 "/>
  <path stroke-width="1.333333" stroke="#ffffff" fill="none" d="M486.937 14.6667 L486.937 435.6 "/>
  <path stroke-width="1.333333" stroke="#ffffff" fill="none" d="M566.616 14.6667 L566.616 435.6 "/>
  <path stroke-width="1.333333" stroke="#ffffff" fill="none" d="M646.296 14.6667 L646.296 435.6 "/>
  <path stroke-width="1.333333" stroke="#ffffff" fill="none" d="M725.975 14.6667 L725.975 435.6 "/>
  <path stroke-width="1.333333" stroke="#ffffff" fill="none" d="M805.654 14.6667 L805.654 435.6 "/>
  <path stroke-width="1.333333" stroke="#ffffff" fill="none" d="M885.333 14.6667 L885.333 435.6 "/>
  <path stroke-width="1.333333" stroke="#ffffff" fill="none" d="M88.5406 435.6 L885.333 435.6 "/>
  <path stroke-width="1.333333" stroke="#ffffff" fill="none" d="M88.5406 393.507 L885.333 393.507 "/>
  <path stroke-width="1.333333" stroke="#ffffff" fill="none" d="M88.5406 351.413 L885.333 351.413 "/>
  <path stroke-width="1.333333" stroke="#ffffff" fill="none" d="M88.5406 309.32 L885.333 309.32 "/>
  <path stroke-width="1.333333" stroke="#ffffff" fill="none" d="M88.5406 267.227 L885.333 267.227 "/>
  <path stroke-width="1.333333" stroke="#ffffff" fill="none" d="M88.5406 225.133 L885.333 225.133 "/>
  <path stroke-width="1.333333" stroke="#ffffff" fill="none" d="M88.5406 183.04 L885.333 183.04 "/>
  <path stroke-width="1.333333" stroke="#ffffff" fill="none" d="M88.5406 140.947 L885.333 140.947 "/>
  <path stroke-width="1.333333" stroke="#ffffff" fill="none" d="M88.5406 98.8533 L885.333 98.8533 "/>
  <path stroke-width="1.333333" stroke="#ffffff" fill="none" d="M88.5406 56.76 L885.333 56.76 "/>
  <path stroke-width="1.333333" stroke="#ffffff" fill="none" d="M88.5406 14.6667 L885.333 14.6667 "/>
  <path stroke-width="2.000000" stroke="#000000" fill="none" d="M88.5406 14.6667 L98.0263 104.307 L109.142 159.51 L120.258 155.097 L131.374 199.672 L142.49 227.759 L153.606 246.483 L164.722 257.954 L175.838 287.32 L186.954 235.225 L198.07 251.627 L209.186 301.903 L220.302 237.689 L231.418 245.53 L242.534 295.14 L253.65 288.447 L264.766 321.532 L275.882 344.178 L286.998 378.76 L298.114 391.594 L309.23 409.464 L320.346 270.37 L331.462 166.698 L342.578 138.629 L353.694 163.433 L364.81 220.766 L375.925 300.263 L387.041 293.933 L398.157 341.925 L409.273 358.148 L420.389 380.958 L431.505 360.28 L442.621 385.504 L453.737 337.171 L464.853 297.629 L475.969 379.852 L487.085 390.309 L498.201 403.484 L509.317 435.6 L520.433 369.012 L531.549 339.658 L542.665 342.725 L553.781 358.99 L564.897 315.349 L576.013 383.753 L587.129 337.315 L598.245 318.447 L609.361 320.517 L620.477 345.424 L631.593 294.066 L642.709 285.576 L653.825 252.368 L664.941 294.032 L676.057 335.871 L687.173 369.075 L698.289 305.107 L709.405 335.233 L720.521 328.793 L731.637 386.069 L742.752 402.573 L753.868 385.054 L764.984 398.351 L776.1 384.675 L787.216 361.94 L798.332 369.359 L809.448 354.243 L820.564 331.44 L831.68 344.088 L842.796 364.684 L853.912 289.797 L865.028 279.774 L876.144 239.133 L885.333 243.345 "/>
  <path stroke-width="0.000000" stroke="#000000" fill="none" d="M88.5406 435.6 L885.333 435.6 "/>
  <path stroke-width="0.000000" stroke="#000000" fill="none" d="M88.5406 430.267 L88.5406 435.6 "/>
  <path stroke-width="0.000000" stroke="#000000" fill="none" d="M168.22 430.267 L168.22 435.6 "/>
  <path stroke-width="0.000000" stroke="#000000" fill="none" d="M247.899 430.267 L247.899 435.6 "/>
  <path stroke-width="0.000000" stroke="#000000" fill="none" d="M327.578 430.267 L327.578 435.6 "/>
  <path stroke-width="0.000000" stroke="#000000" fill="none" d="M407.258 430.267 L407.258 435.6 "/>
  <path stroke-width="0.000000" stroke="#000000" fill="none" d="M486.937 430.267 L486.937 435.6 "/>
  <path stroke-width="0.000000" stroke="#000000" fill="none" d="M566.616 430.267 L566.616 435.6 "/>
  <path stroke-width="0.000000" stroke="#000000" fill="none" d="M646.296 430.267 L646.296 435.6 "/>
  <path stroke-width="0.000000" stroke="#000000" fill="none" d="M725.975 430.267 L725.975 435.6 "/>
  <path stroke-width="0.000000" stroke="#000000" fill="none" d="M805.654 430.267 L805.654 435.6 "/>
  <path stroke-width="0.000000" stroke="#000000" fill="none" d="M885.333 430.267 L885.333 435.6 "/>
  <text x="59.993750" y="461.333333" fill="#000000" font-size="14.666667" font-family="Arial,Helvetica,'Helvetica Neue',sans-serif" font-weight="500.000000">05:15:44</text>
  <text x="139.673022" y="461.333333" fill="#000000" font-size="14.666667" font-family="Arial,Helvetica,'Helvetica Neue',sans-serif" font-weight="500.000000">05:51:34</text>
  <text x="219.352294" y="461.333333" fill="#000000" font-size="14.666667" font-family="Arial,Helvetica,'Helvetica Neue',sans-serif" font-weight="500.000000">06:27:24</text>
  <text x="299.031572" y="461.333333" fill="#000000" font-size="14.666667" font-family="Arial,Helvetica,'Helvetica Neue',sans-serif" font-weight="500.000000">07:03:15</text>
  <text x="378.710838" y="461.333333" fill="#000000" font-size="14.666667" font-family="Arial,Helvetica,'Helvetica Neue',sans-serif" font-weight="500.000000">07:39:05</text>
  <text x="458.390104" y="461.333333" fill="#000000" font-size="14.666667" font-family="Arial,Helvetica,'Helvetica Neue',sans-serif" font-weight="500.000000">08:14:56</text>
  <text x="538.069394" y="461.333333" fill="#000000" font-size="14.666667" font-family="Arial,Helvetica,'Helvetica Neue',sans-serif" font-weight="500.000000">08:50:46</text>
  <text x="617.748636" y="461.333333" fill="#000000" font-size="14.666667" font-family="Arial,Helvetica,'Helvetica Neue',sans-serif" font-weight="500.000000">09:26:36</text>
  <text x="697.427926" y="461.333333" fill="#000000" font-size="14.666667" font-family="Arial,Helvetica,'Helvetica Neue',sans-serif" font-weight="500.000000">10:02:27</text>
  <text x="777.107216" y="461.333333" fill="#000000" font-size="14.666667" font-family="Arial,Helvetica,'Helvetica Neue',sans-serif" font-weight="500.000000">10:38:17</text>
  <text x="856.786458" y="461.333333" fill="#000000" font-size="14.666667" font-family="Arial,Helvetica,'Helvetica Neue',sans-serif" font-weight="500.000000">11:14:08</text>
  <path stroke-width="0.000000" stroke="#000000" fill="none" d="M88.5406 14.6667 L88.5406 435.6 "/>
  <path stroke-width="0.000000" stroke="#000000" fill="none" d="M88.5406 435.6 L93.874 435.6 "/>
  <path stroke-width="0.000000" stroke="#000000" fill="none" d="M88.5406 393.507 L93.874 393.507 "/>
  <path stroke-width="0.000000" stroke="#000000" fill="none" d="M88.5406 351.413 L93.874 351.413 "/>
  <path stroke-width="0.000000" stroke="#000000" fill="none" d="M88.5406 309.32 L93.874 309.32 "/>
  <path stroke-width="0.000000" stroke="#000000" fill="none" d="M88.5406 267.227 L93.874 267.227 "/>
  <path stroke-width="0.000000" stroke="#000000" fill="none" d="M88.5406 225.133 L93.874 225.133 "/>
  <path stroke-width="0.000000" stroke="#000000" fill="none" d="M88.5406 183.04 L93.874 183.04 "/>
  <path stroke-width="0.000000" stroke="#000000" fill="none" d="M88.5406 140.947 L93.874 140.947 "/>
  <path stroke-width="0.000000" stroke="#000000" fill="none" d="M88.5406 98.8533 L93.874 98.8533 "/>
  <path stroke-width="0.000000" stroke="#000000" fill="none" d="M88.5406 56.76 L93.874 56.76 "/>
  <path stroke-width="0.000000" stroke="#000000" fill="none" d="M88.5406 14.6667 L93.874 14.6667 "/>
  <text x="14.666667" y="440.600000" fill="#000000" font-size="14.666667" font-family="Arial,Helvetica,'Helvetica Neue',sans-serif" font-weight="500.000000">7.3 × 10⁶</text>
  <text x="14.666667" y="398.506666" fill="#000000" font-size="14.666667" font-family="Arial,Helvetica,'Helvetica Neue',sans-serif" font-weight="500.000000">7.4 × 10⁶</text>
  <text x="14.666667" y="356.413332" fill="#000000" font-size="14.666667" font-family="Arial,Helvetica,'Helvetica Neue',sans-serif" font-weight="500.000000">7.6 × 10⁶</text>
  <text x="14.666667" y="314.319995" fill="#000000" font-size="14.666667" font-family="Arial,Helvetica,'Helvetica Neue',sans-serif" font-weight="500.000000">7.7 × 10⁶</text>
  <text x="14.666667" y="272.226664" fill="#000000" font-size="14.666667" font-family="Arial,Helvetica,'Helvetica Neue',sans-serif" font-weight="500.000000">7.8 × 10⁶</text>
  <text x="14.666667" y="230.133333" fill="#000000" font-size="14.666667" font-family="Arial,Helvetica,'Helvetica Neue',sans-serif" font-weight="500.000000">8.0 × 10⁶</text>
  <text x="14.666667" y="188.039990" fill="#000000" font-size="14.666667" font-family="Arial,Helvetica,'Helvetica Neue',sans-serif" font-weight="500.000000">8.1 × 10⁶</text>
  <text x="14.666667" y="145.946672" fill="#000000" font-size="14.666667" font-family="Arial,Helvetica,'Helvetica Neue',sans-serif" font-weight="500.000000">8.2 × 10⁶</text>
  <text x="14.666667" y="103.853328" fill="#000000" font-size="14.666667" font-family="Arial,Helvetica,'Helvetica Neue',sans-serif" font-weight="500.000000">8.4 × 10⁶</text>
  <text x="14.666667" y="61.759985" fill="#000000" font-size="14.666667" font-family="Arial,Helvetica,'Helvetica Neue',sans-serif" font-weight="500.000000">8.5 × 10⁶</text>
  <text x="14.666667" y="19.666667" fill="#000000" font-size="14.666667" font-family="Arial,Helvetica,'Helvetica Neue',sans-serif" font-weight="500.000000">8.6 × 10⁶</text>
</svg>