<svg xmlns="http://www.w3.org/2000/svg" width="900.000000" height="240.000000" viewBox="0 0 900 240">
  <rect width="900.000000" height="240.000000" fill="#ffffff"/>
  <path fill="#db843d" d="M538.585 61.7093 M533.585 61.7093 a2.5 2.5 0 1 0 5 0 a2.5 2.5 0 1 0 -5 0 "/>
  <path fill="#db843d" d="M579.335 155.795 M556.335 155.795 a11.5 11.5 0 1 0 23 0 a11.5 11.5 0 1 0 -23 0 "/>
  <path fill="#db843d" d="M605.085 45.4253 M594.085 45.4253 a5.5 5.5 0 1 0 11 0 a5.5 5.5 0 1 0 -11 0 "/>
  <path fill="#db843d" d="M667.584 157.604 M658.584 157.604 a4.5 4.5 0 1 0 9 0 a4.5 4.5 0 1 0 -9 0 "/>
  <path fill="#db843d" d="M733.584 77.9933 M719.584 77.9933 a7 7 0 1 0 14 0 a7 7 0 1 0 -14 0 "/>
  <path fill="#db843d" d="M794.084 63.5187 M786.084 63.5187 a4 4 0 1 0 8 0 a4 4 0 1 0 -8 0 "/>
  <path fill="#db843d" d="M411.586 61.7093 M406.586 61.7093 a2.5 2.5 0 1 0 5 0 a2.5 2.5 0 1 0 -5 0 "/>
  <path fill="#db843d" d="M381.336 90.6587 M373.336 90.6587 a4 4 0 1 0 8 0 a4 4 0 1 0 -8 0 "/>
  <path fill="#db843d" d="M357.086 130.464 M334.086 130.464 a11.5 11.5 0 1 0 23 0 a11.5 11.5 0 1 0 -23 0 "/>
  <path fill="#db843d" d="M283.086 88.8493 M281.086 88.8493 a1 1 0 1 0 2 0 a1 1 0 1 0 -2 0 "/>
  <path fill="#db843d" d="M220.587 168.46 M216.587 168.46 a2 2 0 1 0 4 0 a2 2 0 1 0 -4 0 "/>
  <path fill="#db843d" d="M163.587 164.841 M146.587 164.841 a8.5 8.5 0 1 0 17 0 a8.5 8.5 0 1 0 -17 0 "/>
  <text x="532.006971" y="49.342667" fill="#000000" font-size="14.666667" font-family="Arial,Helvetica,'Helvetica Neue',sans-serif" font-weight="500.000000">5</text>
  <text x="559.678686" y="134.428000" fill="#000000" font-size="14.666667" font-family="Arial,Helvetica,'Helvetica Neue',sans-serif" font-weight="500.000000">23</text>
  <text x="591.975401" y="30.058667" fill="#000000" font-size="14.666667" font-family="Arial,Helvetica,'Helvetica Neue',sans-serif" font-weight="500.000000">11</text>
  <text x="659.006330" y="143.237333" fill="#000000" font-size="14.666667" font-family="Arial,Helvetica,'Helvetica Neue',sans-serif" font-weight="500.000000">9</text>
  <text x="718.427885" y="61.126667" fill="#000000" font-size="14.666667" font-family="Arial,Helvetica,'Helvetica Neue',sans-serif" font-weight="500.000000">14</text>
  <text x="786.005689" y="49.652000" fill="#000000" font-size="14.666667" font-family="Arial,Helvetica,'Helvetica Neue',sans-serif" font-weight="500.000000">8</text>
  <text x="405.007612" y="49.342667" fill="#000000" font-size="14.666667" font-family="Arial,Helvetica,'Helvetica Neue',sans-serif" font-weight="500.000000">5</text>
  <text x="373.257772" y="76.792000" fill="#000000" font-size="14.666667" font-family="Arial,Helvetica,'Helvetica Neue',sans-serif" font-weight="500.000000">8</text>
  <text x="337.429808" y="109.097333" fill="#000000" font-size="14.666667" font-family="Arial,Helvetica,'Helvetica Neue',sans-serif" font-weight="500.000000">23</text>
  <text x="278.008253" y="77.982667" fill="#000000" font-size="14.666667" font-family="Arial,Helvetica,'Helvetica Neue',sans-serif" font-weight="500.000000">2</text>
  <text x="214.508574" y="156.593333" fill="#000000" font-size="14.666667" font-family="Arial,Helvetica,'Helvetica Neue',sans-serif" font-weight="500.000000">4</text>
  <text x="146.930769" y="146.474667" fill="#000000" font-size="14.666667" font-family="Arial,Helvetica,'Helvetica Neue',sans-serif" font-weight="500.000000">17</text>
  <path stroke-width="1.333333" stroke="#000000" fill="none" d="M59.8375 195.6 L885.333 195.6 "/>
  <path stroke-width="1.333333" stroke="#000000" fill="none" d="M59.8375 190.267 L59.8375 195.6 "/>
  <path stroke-width="1.333333" stroke="#000000" fill="none" d="M142.387 190.267 L142.387 195.6 "/>
  <path stroke-width="1.333333" stroke="#000000" fill="none" d="M224.937 190.267 L224.937 195.6 "/>
  <path stroke-width="1.333333" stroke="#000000" fill="none" d="M307.486 190.267 L307.486 195.6 "/>
  <path stroke-width="1.333333" stroke="#000000" fill="none" d="M390.036 190.267 L390.036 195.6 "/>
  <path stroke-width="1.333333" stroke="#000000" fill="none" d="M472.585 190.267 L472.585 195.6 "/>
  <path stroke-width="1.333333" stroke="#000000" fill="none" d="M555.135 190.267 L555.135 195.6 "/>
  <path stroke-width="1.333333" stroke="#000000" fill="none" d="M637.685 190.267 L637.685 195.6 "/>
  <path stroke-width="1.333333" stroke="#000000" fill="none" d="M720.234 190.267 L720.234 195.6 "/>
  <path stroke-width="1.333333" stroke="#000000" fill="none" d="M802.784 190.267 L802.784 195.6 "/>
  <path stroke-width="1.333333" stroke="#000000" fill="none" d="M885.333 190.267 L885.333 195.6 "/>
  <text x="43.118750" y="221.333333" fill="#000000" font-size="14.666667" font-family="Arial,Helvetica,'Helvetica Neue',sans-serif" font-weight="500.000000">-65.0</text>
  <text x="125.668335" y="221.333333" fill="#000000" font-size="14.666667" font-family="Arial,Helvetica,'Helvetica Neue',sans-serif" font-weight="500.000000">-52.0</text>
  <text x="208.217919" y="221.333333" fill="#000000" font-size="14.666667" font-family="Arial,Helvetica,'Helvetica Neue',sans-serif" font-weight="500.000000">-39.0</text>
  <text x="290.767510" y="221.333333" fill="#000000" font-size="14.666667" font-family="Arial,Helvetica,'Helvetica Neue',sans-serif" font-weight="500.000000">-26.0</text>
  <text x="373.317088" y="221.333333" fill="#000000" font-size="14.666667" font-family="Arial,Helvetica,'Helvetica Neue',sans-serif" font-weight="500.000000">-13.0</text>
  <text x="462.390104" y="221.333333" fill="#000000" font-size="14.666667" font-family="Arial,Helvetica,'Helvetica Neue',sans-serif" font-weight="500.000000">0.0</text>
  <text x="540.861582" y="221.333333" fill="#000000" font-size="14.666667" font-family="Arial,Helvetica,'Helvetica Neue',sans-serif" font-weight="500.000000">13.0</text>
  <text x="623.411136" y="221.333333" fill="#000000" font-size="14.666667" font-family="Arial,Helvetica,'Helvetica Neue',sans-serif" font-weight="500.000000">26.0</text>
  <text x="705.960739" y="221.333333" fill="#000000" font-size="14.666667" font-family="Arial,Helvetica,'Helvetica Neue',sans-serif" font-weight="500.000000">39.0</text>
  <text x="788.510342" y="221.333333" fill="#000000" font-size="14.666667" font-family="Arial,Helvetica,'Helvetica Neue',sans-serif" font-weight="500.000000">52.0</text>
  <text x="871.059896" y="221.333333" fill="#000000" font-size="14.666667" font-family="Arial,Helvetica,'Helvetica Neue',sans-serif" font-weight="500.000000">65.0</text>
  <path stroke-width="1.333333" stroke="#000000" fill="none" d="M59.8375 14.6667 L59.8375 195.6 "/>
  <path stroke-width="1.333333" stroke="#000000" fill="none" d="M59.8375 195.6 L65.1708 195.6 "/>
  <path stroke-width="1.333333" stroke="#000000" fill="none" d="M59.8375 177.507 L65.1708 177.507 "/>
  <path stroke-width="1.333333" stroke="#000000" fill="none" d="M59.8375 159.413 L65.1708 159.413 "/>
  <path stroke-width="1.333333" stroke="#000000" fill="none" d="M59.8375 141.32 L65.1708 141.32 "/>
  <path stroke-width="1.333333" stroke="#000000" fill="none" d="M59.8375 123.227 L65.1708 123.227 "/>
  <path stroke-width="1.333333" stroke="#000000" fill="none" d="M59.8375 105.133 L65.1708 105.133 "/>
  <path stroke-width="1.333333" stroke="#000000" fill="none" d="M59.8375 87.04 L65.1708 87.04 "/>
  <path stroke-width="1.333333" stroke="#000000" fill="none" d="M59.8375 68.9467 L65.1708 68.9467 "/>
  <path stroke-width="1.333333" stroke="#000000" fill="none" d="M59.8375 50.8533 L65.1708 50.8533 "/>
  <path stroke-width="1.333333" stroke="#000000" fill="none" d="M59.8375 32.76 L65.1708 32.76 "/>
  <path stroke-width="1.333333" stroke="#000000" fill="none" d="M59.8375 14.6667 L65.1708 14.6667 "/>
  <text x="14.666667" y="200.600000" fill="#000000" font-size="14.666667" font-family="Arial,Helvetica,'Helvetica Neue',sans-serif" font-weight="500.000000">-40.0</text>
  <text x="14.666667" y="182.506666" fill="#000000" font-size="14.666667" font-family="Arial,Helvetica,'Helvetica Neue',sans-serif" font-weight="500.000000">-30.0</text>
  <text x="14.666667" y="164.413333" fill="#000000" font-size="14.666667" font-family="Arial,Helvetica,'Helvetica Neue',sans-serif" font-weight="500.000000">-20.0</text>
  <text x="14.666667" y="146.319998" fill="#000000" font-size="14.666667" font-family="Arial,Helvetica,'Helvetica Neue',sans-serif" font-weight="500.000000">-10.0</text>
  <text x="27.713542" y="128.226666" fill="#000000" font-size="14.666667" font-family="Arial,Helvetica,'Helvetica Neue',sans-serif" font-weight="500.000000">0.0</text>
  <text x="19.557292" y="110.133333" fill="#000000" font-size="14.666667" font-family="Arial,Helvetica,'Helvetica Neue',sans-serif" font-weight="500.000000">10.0</text>
  <text x="19.557292" y="92.039996" fill="#000000" font-size="14.666667" font-family="Arial,Helvetica,'Helvetica Neue',sans-serif" font-weight="500.000000">20.0</text>
  <text x="19.557292" y="73.946669" fill="#000000" font-size="14.666667" font-family="Arial,Helvetica,'Helvetica Neue',sans-serif" font-weight="500.000000">30.0</text>
  <text x="19.557292" y="55.853331" fill="#000000" font-size="14.666667" font-family="Arial,Helvetica,'Helvetica Neue',sans-serif" font-weight="500.000000">40.0</text>
  <text x="19.557292" y="37.759994" fill="#000000" font-size="14.666667" font-family="Arial,Helvetica,'Helvetica Neue',sans-serif" font-weight="500.000000">50.0</text>
  <text x="19.557292" y="19.666667" fill="#000000" font-size="14.666667" font-family="Arial,Helvetica,'Helvetica Neue',sans-serif" font-weight="500.000000">60.0</text>
</svg>