<svg xmlns="http://www.w3.org/2000/svg" width="900.000000" height="480.000000" viewBox="0 0 900 480">
  <rect width="900.000000" height="480.000000" fill="#ffffff"/>
  <path fill="#eeeeee" d="M64.7264 19.5556 L880.444 19.5556 L880.444 430.711 L64.7264 430.711 L64.7264 19.5556 "/>
  <path stroke-width="1.000000" stroke="#ffffff" fill="none" d="M64.7264 19.5556 L64.7264 430.711 "/>
  <path stroke-width="1.000000" stroke="#ffffff" fill="none" d="M146.298 19.5556 L146.298 430.711 "/>
  <path stroke-width="1.000000" stroke="#ffffff" fill="none" d="M227.87 19.5556 L227.87 430.711 "/>
  <path stroke-width="1.000000" stroke="#ffffff" fill="none" d="M309.442 19.5556 L309.442 430.711 "/>
  <path stroke-width="1.000000" stroke="#ffffff" fill="none" d="M391.014 19.5556 L391.014 430.711 "/>
  <path stroke-width="1.000000" stroke="#ffffff" fill="none" d="M472.585 19.5556 L472.585 430.711 "/>
  <path stroke-width="1.000000" stroke="#ffffff" fill="none" d="M554.157 19.5556 L554.157 430.711 "/>
  <path stroke-width="1.000000" stroke="#ffffff" fill="none" d="M635.729 19.5556 L635.729 430.711 "/>
  <path stroke-width="1.000000" stroke="#ffffff" fill="none" d="M717.301 19.5556 L717.301 430.711 "/>
  <path stroke-width="1.000000" stroke="#ffffff" fill="none" d="M798.873 19.5556 L798.873 430.711 "/>
  <path stroke-width="1.000000" stroke="#ffffff" fill="none" d="M880.444 19.5556 L880.444 430.711 "/>
  <path stroke-width="1.000000" stroke="#ffffff" fill="none" d="M64.7264 430.711 L880.444 430.711 "/>
  <path stroke-width="1.000000" stroke="#ffffff" fill="none" d="M64.7264 389.596 L880.444 389.596 "/>
  <path stroke-width="1.000000" stroke="#ffffff" fill="none" d="M64.7264 348.48 L880.444 348.48 "/>
  <path stroke-width="1.000000" stroke="#ffffff" fill="none" d="M64.7264 307.364 L880.444 307.364 "/>
  <path stroke-width="1.000000" stroke="#ffffff" fill="none" d="M64.7264 266.249 L880.444 266.249 "/>
  <path stroke-width="1.000000" stroke="#ffffff" fill="none" d="M64.7264 225.133 L880.444 225.133 "/>
  <path stroke-width="1.000000" stroke="#ffffff" fill="none" d="M64.7264 184.018 L880.444 184.018 "/>
  <path stroke-width="1.000000" stroke="#ffffff" fill="none" d="M64.7264 142.902 L880.444 142.902 "/>
  <path stroke-width="1.000000" stroke="#ffffff" fill="none" d="M64.7264 101.787 L880.444 101.787 "/>
  <path stroke-width="1.000000" stroke="#ffffff" fill="none" d="M64.7264 60.6711 L880.444 60.6711 "/>
  <path stroke-width="1.000000" stroke="#ffffff" fill="none" d="M64.7264 19.5556 L880.444 19.5556 "/>
  <path fill="#000000" d="M537.833 120.247 M532.833 120.247 a2.5 2.5 0 1 0 5 0 a2.5 2.5 0 1 0 -5 0 "/>
  <path fill="#000000" d="M578.207 338.411 M555.207 338.411 a11.5 11.5 0 1 0 23 0 a11.5 11.5 0 1 0 -23 0 "/>
  <path fill="#000000" d="M603.581 82.4875 M592.581 82.4875 a5.5 5.5 0 1 0 11 0 a5.5 5.5 0 1 0 -11 0 "/>
  <path fill="#000000" d="M665.328 342.606 M656.328 342.606 a4.5 4.5 0 1 0 9 0 a4.5 4.5 0 1 0 -9 0 "/>
  <path fill="#000000" d="M730.576 158.006 M716.576 158.006 a7 7 0 1 0 14 0 a7 7 0 1 0 -14 0 "/>
  <path fill="#000000" d="M790.323 124.442 M782.323 124.442 a4 4 0 1 0 8 0 a4 4 0 1 0 -8 0 "/>
  <path fill="#000000" d="M412.338 120.247 M407.338 120.247 a2.5 2.5 0 1 0 5 0 a2.5 2.5 0 1 0 -5 0 "/>
  <path fill="#000000" d="M382.464 187.374 M374.464 187.374 a4 4 0 1 0 8 0 a4 4 0 1 0 -8 0 "/>
  <path fill="#000000" d="M358.59 279.674 M335.59 279.674 a11.5 11.5 0 1 0 23 0 a11.5 11.5 0 1 0 -23 0 "/>
  <path fill="#000000" d="M285.343 183.179 M283.343 183.179 a1 1 0 1 0 2 0 a1 1 0 1 0 -2 0 "/>
  <path fill="#000000" d="M223.595 367.779 M219.595 367.779 a2 2 0 1 0 4 0 a2 2 0 1 0 -4 0 "/>
  <path fill="#000000" d="M167.348 359.388 M150.348 359.388 a8.5 8.5 0 1 0 17 0 a8.5 8.5 0 1 0 -17 0 "/>
  <text x="531.254834" y="107.880045" fill="#000000" font-size="14.666667" font-family="Arial,Helvetica,'Helvetica Neue',sans-serif">5</text>
  <text x="558.550481" y="317.044218" fill="#000000" font-size="14.666667" font-family="Arial,Helvetica,'Helvetica Neue',sans-serif">23</text>
  <text x="590.471127" y="67.120862" fill="#000000" font-size="14.666667" font-family="Arial,Helvetica,'Helvetica Neue',sans-serif">11</text>
  <text x="656.749920" y="328.239683" fill="#000000" font-size="14.666667" font-family="Arial,Helvetica,'Helvetica Neue',sans-serif">9</text>
  <text x="715.419338" y="141.139229" fill="#000000" font-size="14.666667" font-family="Arial,Helvetica,'Helvetica Neue',sans-serif">14</text>
  <text x="782.245005" y="110.575510" fill="#000000" font-size="14.666667" font-family="Arial,Helvetica,'Helvetica Neue',sans-serif">8</text>
  <text x="405.759749" y="107.880045" fill="#000000" font-size="14.666667" font-family="Arial,Helvetica,'Helvetica Neue',sans-serif">5</text>
  <text x="374.385978" y="173.507483" fill="#000000" font-size="14.666667" font-family="Arial,Helvetica,'Helvetica Neue',sans-serif">8</text>
  <text x="338.934081" y="258.307710" fill="#000000" font-size="14.666667" font-family="Arial,Helvetica,'Helvetica Neue',sans-serif">23</text>
  <text x="280.264663" y="172.312018" fill="#000000" font-size="14.666667" font-family="Arial,Helvetica,'Helvetica Neue',sans-serif">2</text>
  <text x="217.517121" y="355.912472" fill="#000000" font-size="14.666667" font-family="Arial,Helvetica,'Helvetica Neue',sans-serif">4</text>
  <text x="150.691453" y="341.021542" fill="#000000" font-size="14.666667" font-family="Arial,Helvetica,'Helvetica Neue',sans-serif">17</text>
  <path fill="#000000" d="M757.044 47.4222 M747.044 47.4222 a5 5 0 1 0 10 0 a5 5 0 1 0 -10 0 "/>
  <text x="763.544444" y="52.422222" fill="#333333" font-size="14.666667" font-family="Arial,Helvetica,'Helvetica Neue',sans-serif">Random Data</text>
  <path stroke-width="0.000000" stroke="#333333" fill="none" d="M64.7264 430.711 L880.444 430.711 "/>
  <path stroke-width="0.000000" stroke="#333333" fill="none" d="M64.7264 425.378 L64.7264 430.711 "/>
  <path stroke-width="0.000000" stroke="#333333" fill="none" d="M146.298 425.378 L146.298 430.711 "/>
  <path stroke-width="0.000000" stroke="#333333" fill="none" d="M227.87 425.378 L227.87 430.711 "/>
  <path stroke-width="0.000000" stroke="#333333" fill="none" d="M309.442 425.378 L309.442 430.711 "/>
  <path stroke-width="0.000000" stroke="#333333" fill="none" d="M391.014 425.378 L391.014 430.711 "/>
  <path stroke-width="0.000000" stroke="#333333" fill="none" d="M472.585 425.378 L472.585 430.711 "/>
  <path stroke-width="0.000000" stroke="#333333" fill="none" d="M554.157 425.378 L554.157 430.711 "/>
  <path stroke-width="0.000000" stroke="#333333" fill="none" d="M635.729 425.378 L635.729 430.711 "/>
  <path stroke-width="0.000000" stroke="#333333" fill="none" d="M717.301 425.378 L717.301 430.711 "/>
  <path stroke-width="0.000000" stroke="#333333" fill="none" d="M798.873 425.378 L798.873 430.711 "/>
  <path stroke-width="0.000000" stroke="#333333" fill="none" d="M880.444 425.378 L880.444 430.711 "/>
  <text x="48.007639" y="456.444444" fill="#333333" font-size="14.666667" font-family="Arial,Helvetica,'Helvetica Neue',sans-serif">-65.0</text>
  <text x="129.579446" y="456.444444" fill="#333333" font-size="14.666667" font-family="Arial,Helvetica,'Helvetica Neue',sans-serif">-52.0</text>
  <text x="211.151252" y="456.444444" fill="#333333" font-size="14.666667" font-family="Arial,Helvetica,'Helvetica Neue',sans-serif">-39.0</text>
  <text x="292.723065" y="456.444444" fill="#333333" font-size="14.666667" font-family="Arial,Helvetica,'Helvetica Neue',sans-serif">-26.0</text>
  <text x="374.294866" y="456.444444" fill="#333333" font-size="14.666667" font-family="Arial,Helvetica,'Helvetica Neue',sans-serif">-13.0</text>
  <text x="462.390104" y="456.444444" fill="#333333" font-size="14.666667" font-family="Arial,Helvetica,'Helvetica Neue',sans-serif">0.0</text>
  <text x="539.883804" y="456.444444" fill="#333333" font-size="14.666667" font-family="Arial,Helvetica,'Helvetica Neue',sans-serif">13.0</text>
  <text x="621.455581" y="456.444444" fill="#333333" font-size="14.666667" font-family="Arial,Helvetica,'Helvetica Neue',sans-serif">26.0</text>
  <text x="703.027406" y="456.444444" fill="#333333" font-size="14.666667" font-family="Arial,Helvetica,'Helvetica Neue',sans-serif">39.0</text>
  <text x="784.599231" y="456.444444" fill="#333333" font-size="14.666667" font-family="Arial,Helvetica,'Helvetica Neue',sans-serif">52.0</text>
  <text x="866.171007" y="456.444444" fill="#333333" font-size="14.666667" font-family="Arial,Helvetica,'Helvetica Neue',sans-serif">65.0</text>
  <path stroke-width="0.000000" stroke="#333333" fill="none" d="M64.7264 19.5556 L64.7264 430.711 "/>
  <path stroke-width="0.000000" stroke="#333333" fill="none" d="M64.7264 430.711 L70.0597 430.711 "/>
  <path stroke-width="0.000000" stroke="#333333" fill="none" d="M64.7264 389.596 L70.0597 389.596 "/>
  <path stroke-width="0.000000" stroke="#333333" fill="none" d="M64.7264 348.48 L70.0597 348.48 "/>
  <path stroke-width="0.000000" stroke="#333333" fill="none" d="M64.7264 307.364 L70.0597 307.364 "/>
  <path stroke-width="0.000000" stroke="#333333" fill="none" d="M64.7264 266.249 L70.0597 266.249 "/>
  <path stroke-width="0.000000" stroke="#333333" fill="none" d="M64.7264 225.133 L70.0597 225.133 "/>
  <path stroke-width="0.000000" stroke="#333333" fill="none" d="M64.7264 184.018 L70.0597 184.018 "/>
  <path stroke-width="0.000000" stroke="#333333" fill="none" d="M64.7264 142.902 L70.0597 142.902 "/>
  <path stroke-width="0.000000" stroke="#333333" fill="none" d="M64.7264 101.787 L70.0597 101.787 "/>
  <path stroke-width="0.000000" stroke="#333333" fill="none" d="M64.7264 60.6711 L70.0597 60.6711 "/>
  <path stroke-width="0.000000" stroke="#333333" fill="none" d="M64.7264 19.5556 L70.0597 19.5556 "/>
  <text x="19.555556" y="435.711111" fill="#333333" font-size="14.666667" font-family="Arial,Helvetica,'Helvetica Neue',sans-serif">-40.0</text>
  <text x="19.555556" y="394.595555" fill="#333333" font-size="14.666667" font-family="Arial,Helvetica,'Helvetica Neue',sans-serif">-30.2</text>
  <text x="19.555556" y="353.479999" fill="#333333" font-size="14.666667" font-family="Arial,Helvetica,'Helvetica Neue',sans-serif">-20.4</text>
  <text x="19.555556" y="312.364440" fill="#333333" font-size="14.666667" font-family="Arial,Helvetica,'Helvetica Neue',sans-serif">-10.6</text>
  <text x="27.711806" y="271.248886" fill="#333333" font-size="14.666667" font-family="Arial,Helvetica,'Helvetica Neue',sans-serif">-0.8</text>
  <text x="32.602431" y="230.133333" fill="#333333" font-size="14.666667" font-family="Arial,Helvetica,'Helvetica Neue',sans-serif">9.0</text>
  <text x="24.446181" y="189.017768" fill="#333333" font-size="14.666667" font-family="Arial,Helvetica,'Helvetica Neue',sans-serif">18.8</text>
  <text x="24.446181" y="147.902227" fill="#333333" font-size="14.666667" font-family="Arial,Helvetica,'Helvetica Neue',sans-serif">28.6</text>
  <text x="24.446181" y="106.786662" fill="#333333" font-size="14.666667" font-family="Arial,Helvetica,'Helvetica Neue',sans-serif">38.4</text>
  <text x="24.446181" y="65.671096" fill="#333333" font-size="14.666667" font-family="Arial,Helvetica,'Helvetica Neue',sans-serif">48.2</text>
  <text x="24.446181" y="24.555556" fill="#333333" font-size="14.666667" font-family="Arial,Helvetica,'Helvetica Neue',sans-serif">58.0</text>
</svg>