<svg xmlns="http://www.w3.org/2000/svg" width="960.000000" height="300.000000" viewBox="0 0 960 300">
  <rect width="960.000000" height="300.000000" fill="#ffffff"/>
  <path fill="#4572a7" d="M59.8375 53.216 L170.524 43.5787 L281.211 31.532 L502.585 55.6253 L723.959 84.5373 L945.333 55.6253 L945.333 212.232 L723.959 178.501 L502.585 192.957 L281.211 183.32 L170.524 207.413 L59.8375 217.051 "/>
  <path fill="#db843d" d="M59.8375 60.444 L170.524 55.6253 L281.211 43.5787 L502.585 70.0813 L723.959 103.812 L945.333 62.8533 L945.333 178.501 L723.959 151.999 L502.585 183.32 L281.211 171.273 L170.524 183.32 L59.8375 192.957 "/>
  <path fill="#ffffff" d="M74.5042 199.467 L260.865 199.467 L260.865 240.933 L74.5042 240.933 L74.5042 199.467 "/>
  <path stroke-width="1.000000" stroke="#000000" fill="none" d="M74.5042 199.467 L260.865 199.467 "/>
  <path stroke-width="1.000000" stroke="#000000" fill="none" d="M260.865 199.467 L260.865 240.933 "/>
  <path stroke-width="1.000000" stroke="#000000" fill="none" d="M74.5042 240.933 L260.865 240.933 "/>
  <path stroke-width="1.000000" stroke="#000000" fill="none" d="M74.5042 199.467 L74.5042 240.933 "/>
  <text x="105.304167" y="225.200000" fill="#000000" font-size="14.666667" font-family="Arial,Helvetica,'Helvetica Neue',sans-serif" font-weight="500.000000">Series A</text>
  <path fill="#4572a7" d="M96.8708 220.2 M85.8708 220.2 a5.5 5.5 0 1 0 11 0 a5.5 5.5 0 1 0 -11 0 "/>
  <text x="190.744792" y="225.200000" fill="#000000" font-size="14.666667" font-family="Arial,Helvetica,'Helvetica Neue',sans-serif" font-weight="500.000000">Series B</text>
  <path fill="#db843d" d="M182.311 220.2 M171.311 220.2 a5.5 5.5 0 1 0 11 0 a5.5 5.5 0 1 0 -11 0 "/>
  <path stroke-width="1.333333" stroke="#000000" fill="none" d="M59.8375 255.6 L945.333 255.6 "/>
  <path stroke-width="1.333333" stroke="#000000" fill="none" d="M59.8375 250.267 L59.8375 255.6 "/>
  <path stroke-width="1.333333" stroke="#000000" fill="none" d="M148.387 250.267 L148.387 255.6 "/>
  <path stroke-width="1.333333" stroke="#000000" fill="none" d="M236.937 250.267 L236.937 255.6 "/>
  <path stroke-width="1.333333" stroke="#000000" fill="none" d="M325.486 250.267 L325.486 255.6 "/>
  <path stroke-width="1.333333" stroke="#000000" fill="none" d="M414.036 250.267 L414.036 255.6 "/>
  <path stroke-width="1.333333" stroke="#000000" fill="none" d="M502.585 250.267 L502.585 255.6 "/>
  <path stroke-width="1.333333" stroke="#000000" fill="none" d="M591.135 250.267 L591.135 255.6 "/>
  <path stroke-width="1.333333" stroke="#000000" fill="none" d="M679.685 250.267 L679.685 255.6 "/>
  <path stroke-width="1.333333" stroke="#000000" fill="none" d="M768.234 250.267 L768.234 255.6 "/>
  <path stroke-width="1.333333" stroke="#000000" fill="none" d="M856.784 250.267 L856.784 255.6 "/>
  <path stroke-width="1.333333" stroke="#000000" fill="none" d="M945.333 250.267 L945.333 255.6 "/>
  <text x="45.564063" y="281.333333" fill="#000000" font-size="14.666667" font-family="Arial,Helvetica,'Helvetica Neue',sans-serif" font-weight="500.000000">10.0</text>
  <text x="134.113647" y="281.333333" fill="#000000" font-size="14.666667" font-family="Arial,Helvetica,'Helvetica Neue',sans-serif" font-weight="500.000000">14.0</text>
  <text x="222.663232" y="281.333333" fill="#000000" font-size="14.666667" font-family="Arial,Helvetica,'Helvetica Neue',sans-serif" font-weight="500.000000">18.0</text>
  <text x="311.212823" y="281.333333" fill="#000000" font-size="14.666667" font-family="Arial,Helvetica,'Helvetica Neue',sans-serif" font-weight="500.000000">22.0</text>
  <text x="399.762401" y="281.333333" fill="#000000" font-size="14.666667" font-family="Arial,Helvetica,'Helvetica Neue',sans-serif" font-weight="500.000000">26.0</text>
  <text x="488.311979" y="281.333333" fill="#000000" font-size="14.666667" font-family="Arial,Helvetica,'Helvetica Neue',sans-serif" font-weight="500.000000">30.0</text>
  <text x="576.861584" y="281.333333" fill="#000000" font-size="14.666667" font-family="Arial,Helvetica,'Helvetica Neue',sans-serif" font-weight="500.000000">34.0</text>
  <text x="665.411135" y="281.333333" fill="#000000" font-size="14.666667" font-family="Arial,Helvetica,'Helvetica Neue',sans-serif" font-weight="500.000000">38.0</text>
  <text x="753.960740" y="281.333333" fill="#000000" font-size="14.666667" font-family="Arial,Helvetica,'Helvetica Neue',sans-serif" font-weight="500.000000">42.0</text>
  <text x="842.510344" y="281.333333" fill="#000000" font-size="14.666667" font-family="Arial,Helvetica,'Helvetica Neue',sans-serif" font-weight="500.000000">46.0</text>
  <text x="931.059896" y="281.333333" fill="#000000" font-size="14.666667" font-family="Arial,Helvetica,'Helvetica Neue',sans-serif" font-weight="500.000000">50.0</text>
  <path stroke-width="1.333333" stroke="#000000" fill="none" d="M59.8375 14.6667 L59.8375 255.6 "/>
  <path stroke-width="1.333333" stroke="#000000" fill="none" d="M59.8375 255.6 L65.1708 255.6 "/>
  <path stroke-width="1.333333" stroke="#000000" fill="none" d="M59.8375 231.507 L65.1708 231.507 "/>
  <path stroke-width="1.333333" stroke="#000000" fill="none" d="M59.8375 207.413 L65.1708 207.413 "/>
  <path stroke-width="1.333333" stroke="#000000" fill="none" d="M59.8375 183.32 L65.1708 183.32 "/>
  <path stroke-width="1.333333" stroke="#000000" fill="none" d="M59.8375 159.227 L65.1708 159.227 "/>
  <path stroke-width="1.333333" stroke="#000000" fill="none" d="M59.8375 135.133 L65.1708 135.133 "/>
  <path stroke-width="1.333333" stroke="#000000" fill="none" d="M59.8375 111.04 L65.1708 111.04 "/>
  <path stroke-width="1.333333" stroke="#000000" fill="none" d="M59.8375 86.9467 L65.1708 86.9467 "/>
  <path stroke-width="1.333333" stroke="#000000" fill="none" d="M59.8375 62.8533 L65.1708 62.8533 "/>
  <path stroke-width="1.333333" stroke="#000000" fill="none" d="M59.8375 38.76 L65.1708 38.76 "/>
  <path stroke-width="1.333333" stroke="#000000" fill="none" d="M59.8375 14.6667 L65.1708 14.6667 "/>
  <text x="14.666667" y="260.600000" fill="#000000" font-size="14.666667" font-family="Arial,Helvetica,'Helvetica Neue',sans-serif" font-weight="500.000000">-50.0</text>
  <text x="14.666667" y="236.506666" fill="#000000" font-size="14.666667" font-family="Arial,Helvetica,'Helvetica Neue',sans-serif" font-weight="500.000000">-40.0</text>
  <text x="14.666667" y="212.413333" fill="#000000" font-size="14.666667" font-family="Arial,Helvetica,'Helvetica Neue',sans-serif" font-weight="500.000000">-30.0</text>
  <text x="14.666667" y="188.319997" fill="#000000" font-size="14.666667" font-family="Arial,Helvetica,'Helvetica Neue',sans-serif" font-weight="500.000000">-20.0</text>
  <text x="14.666667" y="164.226665" fill="#000000" font-size="14.666667" font-family="Arial,Helvetica,'Helvetica Neue',sans-serif" font-weight="500.000000">-10.0</text>
  <text x="27.713542" y="140.133333" fill="#000000" font-size="14.666667" font-family="Arial,Helvetica,'Helvetica Neue',sans-serif" font-weight="500.000000">0.0</text>
  <text x="19.557292" y="116.039994" fill="#000000" font-size="14.666667" font-family="Arial,Helvetica,'Helvetica Neue',sans-serif" font-weight="500.000000">10.0</text>
  <text x="19.557292" y="91.946670" fill="#000000" font-size="14.666667" font-family="Arial,Helvetica,'Helvetica Neue',sans-serif" font-weight="500.000000">20.0</text>
  <text x="19.557292" y="67.853330" fill="#000000" font-size="14.666667" font-family="Arial,Helvetica,'Helvetica Neue',sans-serif" font-weight="500.000000">30.0</text>
  <text x="19.557292" y="43.759991" fill="#000000" font-size="14.666667" font-family="Arial,Helvetica,'Helvetica Neue',sans-serif" font-weight="500.000000">40.0</text>
  <text x="19.557292" y="19.666667" fill="#000000" font-size="14.666667" font-family="Arial,Helvetica,'Helvetica Neue',sans-serif" font-weight="500.000000">50.0</text>
</svg>