<svg xmlns="http://www.w3.org/2000/svg" width="900.000000" height="80.000000" viewBox="0 0 900 80">
  <rect width="900.000000" height="80.000000" fill="#ffffff"/>
  <path stroke-width="1.333333" stroke="#333333" fill="none" d="M39.1111 40 L860.889 40 "/>
  <path stroke-width="1.333333" stroke="#333333" fill="none" d="M39.1111 37.3333 L39.1111 42.6667 "/>
  <path stroke-width="1.333333" stroke="#333333" fill="none" d="M121.289 37.3333 L121.289 42.6667 "/>
  <path stroke-width="1.333333" stroke="#333333" fill="none" d="M203.467 37.3333 L203.467 42.6667 "/>
  <path stroke-width="1.333333" stroke="#333333" fill="none" d="M285.644 37.3333 L285.644 42.6667 "/>
  <path stroke-width="1.333333" stroke="#333333" fill="none" d="M367.822 37.3333 L367.822 42.6667 "/>
  <path stroke-width="1.333333" stroke="#333333" fill="none" d="M450 37.3333 L450 42.6667 "/>
  <path stroke-width="1.333333" stroke="#333333" fill="none" d="M532.178 37.3333 L532.178 42.6667 "/>
  <path stroke-width="1.333333" stroke="#333333" fill="none" d="M614.356 37.3333 L614.356 42.6667 "/>
  <path stroke-width="1.333333" stroke="#333333" fill="none" d="M696.533 37.3333 L696.533 42.6667 "/>
  <path stroke-width="1.333333" stroke="#333333" fill="none" d="M778.711 37.3333 L778.711 42.6667 "/>
  <path stroke-width="1.333333" stroke="#333333" fill="none" d="M860.889 37.3333 L860.889 42.6667 "/>
  <text x="28.915799" y="65.733333" fill="#333333" font-size="14.666667" font-family="Arial,Helvetica,'Helvetica Neue',sans-serif">1.0</text>
  <text x="111.093578" y="65.733333" fill="#333333" font-size="14.666667" font-family="Arial,Helvetica,'Helvetica Neue',sans-serif">2.5</text>
  <text x="193.271357" y="65.733333" fill="#333333" font-size="14.666667" font-family="Arial,Helvetica,'Helvetica Neue',sans-serif">4.0</text>
  <text x="275.449142" y="65.733333" fill="#333333" font-size="14.666667" font-family="Arial,Helvetica,'Helvetica Neue',sans-serif">5.5</text>
  <text x="357.626915" y="65.733333" fill="#333333" font-size="14.666667" font-family="Arial,Helvetica,'Helvetica Neue',sans-serif">7.0</text>
  <text x="439.804688" y="65.733333" fill="#333333" font-size="14.666667" font-family="Arial,Helvetica,'Helvetica Neue',sans-serif">8.5</text>
  <text x="517.904360" y="65.733333" fill="#333333" font-size="14.666667" font-family="Arial,Helvetica,'Helvetica Neue',sans-serif">10.0</text>
  <text x="600.628983" y="65.733333" fill="#333333" font-size="14.666667" font-family="Arial,Helvetica,'Helvetica Neue',sans-serif">11.5</text>
  <text x="682.259906" y="65.733333" fill="#333333" font-size="14.666667" font-family="Arial,Helvetica,'Helvetica Neue',sans-serif">13.0</text>
  <text x="764.437703" y="65.733333" fill="#333333" font-size="14.666667" font-family="Arial,Helvetica,'Helvetica Neue',sans-serif">14.5</text>
  <text x="846.615451" y="65.733333" fill="#333333" font-size="14.666667" font-family="Arial,Helvetica,'Helvetica Neue',sans-serif">16.0</text>
</svg>