<svg xmlns="http://www.w3.org/2000/svg" width="900.000000" height="60.000000" viewBox="0 0 900 60">
  <rect width="900.000000" height="60.000000" fill="#ffffff"/>
  <path stroke-width="1.333333" stroke="#333333" fill="none" d="M19.5556 30 L880.444 30 "/>
  <path stroke-width="1.333333" stroke="#333333" fill="none" d="M19.5556 27.3333 L19.5556 32.6667 "/>
  <path stroke-width="1.333333" stroke="#333333" fill="none" d="M76.9481 27.3333 L76.9481 32.6667 "/>
  <path stroke-width="1.333333" stroke="#333333" fill="none" d="M134.341 27.3333 L134.341 32.6667 "/>
  <path stroke-width="1.333333" stroke="#333333" fill="none" d="M191.733 27.3333 L191.733 32.6667 "/>
  <path stroke-width="1.333333" stroke="#333333" fill="none" d="M249.126 27.3333 L249.126 32.6667 "/>
  <path stroke-width="1.333333" stroke="#333333" fill="none" d="M306.519 27.3333 L306.519 32.6667 "/>
  <path stroke-width="1.333333" stroke="#333333" fill="none" d="M363.911 27.3333 L363.911 32.6667 "/>
  <path stroke-width="1.333333" stroke="#333333" fill="none" d="M421.304 27.3333 L421.304 32.6667 "/>
  <path stroke-width="1.333333" stroke="#333333" fill="none" d="M478.696 27.3333 L478.696 32.6667 "/>
  <path stroke-width="1.333333" stroke="#333333" fill="none" d="M536.089 27.3333 L536.089 32.6667 "/>
  <path stroke-width="1.333333" stroke="#333333" fill="none" d="M593.481 27.3333 L593.481 32.6667 "/>
  <path stroke-width="1.333333" stroke="#333333" fill="none" d="M650.874 27.3333 L650.874 32.6667 "/>
  <path stroke-width="1.333333" stroke="#333333" fill="none" d="M708.267 27.3333 L708.267 32.6667 "/>
  <path stroke-width="1.333333" stroke="#333333" fill="none" d="M765.659 27.3333 L765.659 32.6667 "/>
  <path stroke-width="1.333333" stroke="#333333" fill="none" d="M823.052 27.3333 L823.052 32.6667 "/>
  <path stroke-width="1.333333" stroke="#333333" fill="none" d="M880.444 27.3333 L880.444 32.6667 "/>
  <text x="15.477431" y="55.733333" fill="#333333" font-size="14.666667" font-family="Arial,Helvetica,'Helvetica Neue',sans-serif">1</text>
  <text x="72.870023" y="55.733333" fill="#333333" font-size="14.666667" font-family="Arial,Helvetica,'Helvetica Neue',sans-serif">2</text>
  <text x="130.262616" y="55.733333" fill="#333333" font-size="14.666667" font-family="Arial,Helvetica,'Helvetica Neue',sans-serif">3</text>
  <text x="187.655208" y="55.733333" fill="#333333" font-size="14.666667" font-family="Arial,Helvetica,'Helvetica Neue',sans-serif">4</text>
  <text x="245.047801" y="55.733333" fill="#333333" font-size="14.666667" font-family="Arial,Helvetica,'Helvetica Neue',sans-serif">5</text>
  <text x="302.440394" y="55.733333" fill="#333333" font-size="14.666667" font-family="Arial,Helvetica,'Helvetica Neue',sans-serif">6</text>
  <text x="359.832986" y="55.733333" fill="#333333" font-size="14.666667" font-family="Arial,Helvetica,'Helvetica Neue',sans-serif">7</text>
  <text x="417.225579" y="55.733333" fill="#333333" font-size="14.666667" font-family="Arial,Helvetica,'Helvetica Neue',sans-serif">8</text>
  <text x="474.618171" y="55.733333" fill="#333333" font-size="14.666667" font-family="Arial,Helvetica,'Helvetica Neue',sans-serif">9</text>
  <text x="527.932639" y="55.733333" fill="#333333" font-size="14.666667" font-family="Arial,Helvetica,'Helvetica Neue',sans-serif">10</text>
  <text x="585.872106" y="55.733333" fill="#333333" font-size="14.666667" font-family="Arial,Helvetica,'Helvetica Neue',sans-serif">11</text>
  <text x="642.717824" y="55.733333" fill="#333333" font-size="14.666667" font-family="Arial,Helvetica,'Helvetica Neue',sans-serif">12</text>
  <text x="700.110417" y="55.733333" fill="#333333" font-size="14.666667" font-family="Arial,Helvetica,'Helvetica Neue',sans-serif">13</text>
  <text x="757.503009" y="55.733333" fill="#333333" font-size="14.666667" font-family="Arial,Helvetica,'Helvetica Neue',sans-serif">14</text>
  <text x="814.895602" y="55.733333" fill="#333333" font-size="14.666667" font-family="Arial,Helvetica,'Helvetica Neue',sans-serif">15</text>
  <text x="872.288194" y="55.733333" fill="#333333" font-size="14.666667" font-family="Arial,Helvetica,'Helvetica Neue',sans-serif">16</text>
</svg>