<svg xmlns="http://www.w3.org/2000/svg" width="900.000000" height="480.000000" viewBox="0 0 900 480">
  <rect width="900.000000" height="480.000000" fill="#ffffff"/>
  <path fill="#000000" d="M47.1111 39.1111 M31.1111 39.1111 a8 8 0 1 0 16 0 a8 8 0 1 0 -16 0 "/>
  <path stroke-width="1.600000" stroke="#000000" fill="none" d="M164.508 39.1111 M148.508 39.1111 a8 8 0 1 0 16 0 a8 8 0 1 0 -16 0 "/>
  <text x="268.107887" y="45.611111" fill="#000000" font-size="19.200000" font-family="Arial,Helvetica,'Helvetica Neue',sans-serif">■</text>
  <text x="385.504712" y="45.611111" fill="#000000" font-size="19.200000" font-family="Arial,Helvetica,'Helvetica Neue',sans-serif">□</text>
  <text x="501.503100" y="45.611111" fill="#000000" font-size="19.200000" font-family="Arial,Helvetica,'Helvetica Neue',sans-serif">◧</text>
  <text x="618.899926" y="45.611111" fill="#000000" font-size="19.200000" font-family="Arial,Helvetica,'Helvetica Neue',sans-serif">◨</text>
  <text x="736.296751" y="45.611111" fill="#000000" font-size="19.200000" font-family="Arial,Helvetica,'Helvetica Neue',sans-serif">⬢</text>
  <text x="853.693576" y="45.611111" fill="#000000" font-size="19.200000" font-family="Arial,Helvetica,'Helvetica Neue',sans-serif">⬡</text>
  <text x="21.978299" y="21.244444" fill="#000000" font-size="14.666667" font-family="Arial,Helvetica,'Helvetica Neue',sans-serif">circle</text>
  <text x="132.851687" y="21.244444" fill="#000000" font-size="14.666667" font-family="Arial,Helvetica,'Helvetica Neue',sans-serif">circle-o</text>
  <text x="251.475074" y="21.244444" fill="#000000" font-size="14.666667" font-family="Arial,Helvetica,'Helvetica Neue',sans-serif">square</text>
  <text x="362.348462" y="21.244444" fill="#000000" font-size="14.666667" font-family="Arial,Helvetica,'Helvetica Neue',sans-serif">square-o</text>
  <text x="474.034350" y="21.244444" fill="#000000" font-size="14.666667" font-family="Arial,Helvetica,'Helvetica Neue',sans-serif">square-left</text>
  <text x="586.946801" y="21.244444" fill="#000000" font-size="14.666667" font-family="Arial,Helvetica,'Helvetica Neue',sans-serif">square-right</text>
  <text x="715.351438" y="21.244444" fill="#000000" font-size="14.666667" font-family="Arial,Helvetica,'Helvetica Neue',sans-serif">hexagon</text>
  <text x="826.224826" y="21.244444" fill="#000000" font-size="14.666667" font-family="Arial,Helvetica,'Helvetica Neue',sans-serif">hexagon-o</text>
</svg>