<svg xmlns="http://www.w3.org/2000/svg" width="900.000000" height="60.000000" viewBox="0 0 900 60">
  <rect width="900.000000" height="60.000000" fill="#ffffff"/>
  <path stroke-width="1.333333" stroke="#333333" fill="none" d="M19.5556 30 L880.444 30 "/>
  <path stroke-width="1.333333" stroke="#333333" fill="none" d="M19.5556 27.3333 L19.5556 32.6667 "/>
  <path stroke-width="1.333333" stroke="#333333" fill="none" d="M105.644 27.3333 L105.644 32.6667 "/>
  <path stroke-width="1.333333" stroke="#333333" fill="none" d="M191.733 27.3333 L191.733 32.6667 "/>
  <path stroke-width="1.333333" stroke="#333333" fill="none" d="M277.822 27.3333 L277.822 32.6667 "/>
  <path stroke-width="1.333333" stroke="#333333" fill="none" d="M363.911 27.3333 L363.911 32.6667 "/>
  <path stroke-width="1.333333" stroke="#333333" fill="none" d="M450 27.3333 L450 32.6667 "/>
  <path stroke-width="1.333333" stroke="#333333" fill="none" d="M536.089 27.3333 L536.089 32.6667 "/>
  <path stroke-width="1.333333" stroke="#333333" fill="none" d="M622.178 27.3333 L622.178 32.6667 "/>
  <path stroke-width="1.333333" stroke="#333333" fill="none" d="M708.267 27.3333 L708.267 32.6667 "/>
  <path stroke-width="1.333333" stroke="#333333" fill="none" d="M794.356 27.3333 L794.356 32.6667 "/>
  <path stroke-width="1.333333" stroke="#333333" fill="none" d="M880.444 27.3333 L880.444 32.6667 "/>
  <text x="9.360243" y="55.733333" fill="#333333" font-size="14.666667" font-family="Arial,Helvetica,'Helvetica Neue',sans-serif">1.0</text>
  <text x="95.449132" y="55.733333" fill="#333333" font-size="14.666667" font-family="Arial,Helvetica,'Helvetica Neue',sans-serif">2.0</text>
  <text x="181.538021" y="55.733333" fill="#333333" font-size="14.666667" font-family="Arial,Helvetica,'Helvetica Neue',sans-serif">4.0</text>
  <text x="267.626910" y="55.733333" fill="#333333" font-size="14.666667" font-family="Arial,Helvetica,'Helvetica Neue',sans-serif">8.0</text>
  <text x="349.637674" y="55.733333" fill="#333333" font-size="14.666667" font-family="Arial,Helvetica,'Helvetica Neue',sans-serif">16.0</text>
  <text x="435.726562" y="55.733333" fill="#333333" font-size="14.666667" font-family="Arial,Helvetica,'Helvetica Neue',sans-serif">32.0</text>
  <text x="521.815451" y="55.733333" fill="#333333" font-size="14.666667" font-family="Arial,Helvetica,'Helvetica Neue',sans-serif">64.0</text>
  <text x="603.826215" y="55.733333" fill="#333333" font-size="14.666667" font-family="Arial,Helvetica,'Helvetica Neue',sans-serif">128.0</text>
  <text x="689.915104" y="55.733333" fill="#333333" font-size="14.666667" font-family="Arial,Helvetica,'Helvetica Neue',sans-serif">256.0</text>
  <text x="776.003993" y="55.733333" fill="#333333" font-size="14.666667" font-family="Arial,Helvetica,'Helvetica Neue',sans-serif">512.0</text>
  <text x="858.014757" y="55.733333" fill="#333333" font-size="14.666667" font-family="Arial,Helvetica,'Helvetica Neue',sans-serif">1024.0</text>
</svg>