<svg xmlns="http://www.w3.org/2000/svg" width="900.000000" height="60.000000" viewBox="0 0 900 60">
  <rect width="900.000000" height="60.000000" fill="#ffffff"/>
  <path stroke-width="1.333333" stroke="#333333" fill="none" d="M19.5556 30 L880.444 30 "/>
  <path stroke-width="1.333333" stroke="#333333" fill="none" d="M19.5556 27.3333 L19.5556 32.6667 "/>
  <path stroke-width="1.333333" stroke="#333333" fill="none" d="M84.3439 27.3333 L84.3439 32.6667 "/>
  <path stroke-width="1.333333" stroke="#333333" fill="none" d="M122.243 27.3333 L122.243 32.6667 "/>
  <path stroke-width="1.333333" stroke="#333333" fill="none" d="M149.132 27.3333 L149.132 32.6667 "/>
  <path stroke-width="1.333333" stroke="#333333" fill="none" d="M169.989 27.3333 L169.989 32.6667 "/>
  <path stroke-width="1.333333" stroke="#333333" fill="none" d="M187.031 27.3333 L187.031 32.6667 "/>
  <path stroke-width="1.333333" stroke="#333333" fill="none" d="M201.439 27.3333 L201.439 32.6667 "/>
  <path stroke-width="1.333333" stroke="#333333" fill="none" d="M213.921 27.3333 L213.921 32.6667 "/>
  <path stroke-width="1.333333" stroke="#333333" fill="none" d="M224.93 27.3333 L224.93 32.6667 "/>
  <path stroke-width="1.333333" stroke="#333333" fill="none" d="M234.778 27.3333 L234.778 32.6667 "/>
  <path stroke-width="1.333333" stroke="#333333" fill="none" d="M299.566 27.3333 L299.566 32.6667 "/>
  <path stroke-width="1.333333" stroke="#333333" fill="none" d="M337.465 27.3333 L337.465 32.6667 "/>
  <path stroke-width="1.333333" stroke="#333333" fill="none" d="M364.354 27.3333 L364.354 32.6667 "/>
  <path stroke-width="1.333333" stroke="#333333" fill="none" d="M385.212 27.3333 L385.212 32.6667 "/>
  <path stroke-width="1.333333" stroke="#333333" fill="none" d="M402.253 27.3333 L402.253 32.6667 "/>
  <path stroke-width="1.333333" stroke="#333333" fill="none" d="M416.662 27.3333 L416.662 32.6667 "/>
  <path stroke-width="1.333333" stroke="#333333" fill="none" d="M429.143 27.3333 L429.143 32.6667 "/>
  <path stroke-width="1.333333" stroke="#333333" fill="none" d="M440.152 27.3333 L440.152 32.6667 "/>
  <path stroke-width="1.333333" stroke="#333333" fill="none" d="M450 27.3333 L450 32.6667 "/>
  <path stroke-width="1.333333" stroke="#333333" fill="none" d="M514.788 27.3333 L514.788 32.6667 "/>
  <path stroke-width="1.333333" stroke="#333333" fill="none" d="M552.687 27.3333 L552.687 32.6667 "/>
  <path stroke-width="1.333333" stroke="#333333" fill="none" d="M579.577 27.3333 L579.577 32.6667 "/>
  <path stroke-width="1.333333" stroke="#333333" fill="none" d="M600.434 27.3333 L600.434 32.6667 "/>
  <path stroke-width="1.333333" stroke="#333333" fill="none" d="M617.475 27.3333 L617.475 32.6667 "/>
  <path stroke-width="1.333333" stroke="#333333" fill="none" d="M631.884 27.3333 L631.884 32.6667 "/>
  <path stroke-width="1.333333" stroke="#333333" fill="none" d="M644.365 27.3333 L644.365 32.6667 "/>
  <path stroke-width="1.333333" stroke="#333333" fill="none" d="M655.374 27.3333 L655.374 32.6667 "/>
  <path stroke-width="1.333333" stroke="#333333" fill="none" d="M665.222 27.3333 L665.222 32.6667 "/>
  <path stroke-width="1.333333" stroke="#333333" fill="none" d="M730.011 27.3333 L730.011 32.6667 "/>
  <path stroke-width="1.333333" stroke="#333333" fill="none" d="M767.909 27.3333 L767.909 32.6667 "/>
  <path stroke-width="1.333333" stroke="#333333" fill="none" d="M794.799 27.3333 L794.799 32.6667 "/>
  <path stroke-width="1.333333" stroke="#333333" fill="none" d="M815.656 27.3333 L815.656 32.6667 "/>
  <path stroke-width="1.333333" stroke="#333333" fill="none" d="M832.698 27.3333 L832.698 32.6667 "/>
  <path stroke-width="1.333333" stroke="#333333" fill="none" d="M847.106 27.3333 L847.106 32.6667 "/>
  <path stroke-width="1.333333" stroke="#333333" fill="none" d="M859.587 27.3333 L859.587 32.6667 "/>
  <path stroke-width="1.333333" stroke="#333333" fill="none" d="M870.596 27.3333 L870.596 32.6667 "/>
  <path stroke-width="1.333333" stroke="#333333" fill="none" d="M880.444 27.3333 L880.444 32.6667 "/>
  <text x="9.360243" y="55.733333" fill="#333333" font-size="14.666667" font-family="Arial,Helvetica,'Helvetica Neue',sans-serif">1.0</text>
  <text x="220.504340" y="55.733333" fill="#333333" font-size="14.666667" font-family="Arial,Helvetica,'Helvetica Neue',sans-serif">10.0</text>
  <text x="431.648438" y="55.733333" fill="#333333" font-size="14.666667" font-family="Arial,Helvetica,'Helvetica Neue',sans-serif">100.0</text>
  <text x="642.792535" y="55.733333" fill="#333333" font-size="14.666667" font-family="Arial,Helvetica,'Helvetica Neue',sans-serif">1000.0</text>
  <text x="853.936632" y="55.733333" fill="#333333" font-size="14.666667" font-family="Arial,Helvetica,'Helvetica Neue',sans-serif">10000.0</text>
</svg>