<?xml version="1.0" encoding="UTF-8" ?>
<!-- Generated by clip v0.6.0 (clip-lang.org) -->
<svg xmlns="http://www.w3.org/2000/svg" width="2048.000000" height="800.000000">
  <rect width="2048.000000" height="800.000000" fill="#ffffff" fill-opacity="1.000000"/>
  <path d="M326.875 763.333 L326.875 36.6667 " fill="none" stroke-width="3.333333" stroke="#000000ff"/>
  <path d="M326.875 763.333 L340.208 763.333 " fill="none" stroke-width="3.333333" stroke="#000000ff"/>
  <path d="M326.875 682.593 L340.208 682.593 " fill="none" stroke-width="3.333333" stroke="#000000ff"/>
  <path d="M326.875 601.852 L340.208 601.852 " fill="none" stroke-width="3.333333" stroke="#000000ff"/>
  <path d="M326.875 521.111 L340.208 521.111 " fill="none" stroke-width="3.333333" stroke="#000000ff"/>
  <path d="M326.875 440.37 L340.208 440.37 " fill="none" stroke-width="3.333333" stroke="#000000ff"/>
  <path d="M326.875 359.63 L340.208 359.63 " fill="none" stroke-width="3.333333" stroke="#000000ff"/>
  <path d="M326.875 278.889 L340.208 278.889 " fill="none" stroke-width="3.333333" stroke="#000000ff"/>
  <path d="M326.875 198.148 L340.208 198.148 " fill="none" stroke-width="3.333333" stroke="#000000ff"/>
  <path d="M326.875 117.407 L340.208 117.407 " fill="none" stroke-width="3.333333" stroke="#000000ff"/>
  <path d="M326.875 36.6667 L340.208 36.6667 " fill="none" stroke-width="3.333333" stroke="#000000ff"/>
  <text x="77.416667" y="735.962963" fill="#000000ff" font-size="36.666667" font-family="Arial,Helvetica,'Helvetica Neue',sans-serif" font-weight="500.000000">United States</text>
  <text x="201.744792" y="655.222222" fill="#000000ff" font-size="36.666667" font-family="Arial,Helvetica,'Helvetica Neue',sans-serif" font-weight="500.000000">China</text>
  <text x="197.635417" y="574.481481" fill="#000000ff" font-size="36.666667" font-family="Arial,Helvetica,'Helvetica Neue',sans-serif" font-weight="500.000000">Japan</text>
  <text x="146.729167" y="493.740741" fill="#000000ff" font-size="36.666667" font-family="Arial,Helvetica,'Helvetica Neue',sans-serif" font-weight="500.000000">Germany</text>
  <text x="36.666667" y="413.000000" fill="#000000ff" font-size="36.666667" font-family="Arial,Helvetica,'Helvetica Neue',sans-serif" font-weight="500.000000">United Kingdom</text>
  <text x="183.401042" y="332.259259" fill="#000000ff" font-size="36.666667" font-family="Arial,Helvetica,'Helvetica Neue',sans-serif" font-weight="500.000000">France</text>
  <text x="218.041667" y="251.518519" fill="#000000ff" font-size="36.666667" font-family="Arial,Helvetica,'Helvetica Neue',sans-serif" font-weight="500.000000">India</text>
  <text x="230.291667" y="170.777778" fill="#000000ff" font-size="36.666667" font-family="Arial,Helvetica,'Helvetica Neue',sans-serif" font-weight="500.000000">Italy</text>
  <text x="205.854167" y="90.037037" fill="#000000ff" font-size="36.666667" font-family="Arial,Helvetica,'Helvetica Neue',sans-serif" font-weight="500.000000">Brazil</text>
  <path d="M326.875 748.63 L1634.01 748.63 L1634.01 697.296 L326.875 697.296 Z" fill="#4c7bb0" fill-opacity="1.000000"/>
  <path d="M326.875 667.889 L1114.22 667.889 L1114.22 616.556 L326.875 616.556 Z" fill="#4c7bb0" fill-opacity="1.000000"/>
  <path d="M326.875 587.148 L673.312 587.148 L673.312 535.815 L326.875 535.815 Z" fill="#4c7bb0" fill-opacity="1.000000"/>
  <path d="M326.875 506.407 L570.911 506.407 L570.911 455.074 L326.875 455.074 Z" fill="#4c7bb0" fill-opacity="1.000000"/>
  <path d="M326.875 425.667 L512.657 425.667 L512.657 374.333 L326.875 374.333 Z" fill="#4c7bb0" fill-opacity="1.000000"/>
  <path d="M326.875 344.926 L499.883 344.926 L499.883 293.593 L326.875 293.593 Z" fill="#4c7bb0" fill-opacity="1.000000"/>
  <path d="M326.875 264.185 L485.425 264.185 L485.425 212.852 L326.875 212.852 Z" fill="#4c7bb0" fill-opacity="1.000000"/>
  <path d="M326.875 183.444 L457.28 183.444 L457.28 132.111 L326.875 132.111 Z" fill="#4c7bb0" fill-opacity="1.000000"/>
  <path d="M326.875 102.704 L452.858 102.704 L452.858 51.3704 L326.875 51.3704 Z" fill="#4c7bb0" fill-opacity="1.000000"/>
  <text x="1640.614667" y="735.962963" fill="#000000ff" font-size="36.666667" font-family="Arial,Helvetica,'Helvetica Neue',sans-serif" font-weight="500.000000">$18,624bln</text>
  <text x="1120.818899" y="655.222222" fill="#000000ff" font-size="36.666667" font-family="Arial,Helvetica,'Helvetica Neue',sans-serif" font-weight="500.000000">$11,218bln</text>
  <text x="679.911931" y="574.481481" fill="#000000ff" font-size="36.666667" font-family="Arial,Helvetica,'Helvetica Neue',sans-serif" font-weight="500.000000">$11,218bln</text>
  <text x="577.510901" y="493.740741" fill="#000000ff" font-size="36.666667" font-family="Arial,Helvetica,'Helvetica Neue',sans-serif" font-weight="500.000000">$11,218bln</text>
  <text x="519.256717" y="413.000000" fill="#000000ff" font-size="36.666667" font-family="Arial,Helvetica,'Helvetica Neue',sans-serif" font-weight="500.000000">$11,218bln</text>
  <text x="506.482908" y="332.259259" fill="#000000ff" font-size="36.666667" font-family="Arial,Helvetica,'Helvetica Neue',sans-serif" font-weight="500.000000">$2,465bln</text>
  <text x="492.024641" y="251.518519" fill="#000000ff" font-size="36.666667" font-family="Arial,Helvetica,'Helvetica Neue',sans-serif" font-weight="500.000000">$2.259bln</text>
  <text x="463.880149" y="170.777778" fill="#000000ff" font-size="36.666667" font-family="Arial,Helvetica,'Helvetica Neue',sans-serif" font-weight="500.000000">$1.858bln</text>
  <text x="459.458446" y="90.037037" fill="#000000ff" font-size="36.666667" font-family="Arial,Helvetica,'Helvetica Neue',sans-serif" font-weight="500.000000">$1.795bln</text>
</svg>