<?xml version="1.0" encoding="UTF-8" ?>
<!-- Generated by clip v0.7.0 (clip-lang.org) -->
<svg xmlns="http://www.w3.org/2000/svg" width="1600.000000" height="800.000000">
  <rect width="1600.000000" height="800.000000" fill="#ffffff" fill-opacity="1.000000"/>
  <path d="M213.578 692 L1563.33 692 " fill="none" stroke-width="3.333333" stroke="#000000ff"/>
  <path d="M269.818 692 L269.818 678.667 " fill="none" stroke-width="3.333333" stroke="#000000ff"/>
  <path d="M382.298 692 L382.298 678.667 " fill="none" stroke-width="3.333333" stroke="#000000ff"/>
  <path d="M494.777 692 L494.777 678.667 " fill="none" stroke-width="3.333333" stroke="#000000ff"/>
  <path d="M607.257 692 L607.257 678.667 " fill="none" stroke-width="3.333333" stroke="#000000ff"/>
  <path d="M719.736 692 L719.736 678.667 " fill="none" stroke-width="3.333333" stroke="#000000ff"/>
  <path d="M832.216 692 L832.216 678.667 " fill="none" stroke-width="3.333333" stroke="#000000ff"/>
  <path d="M944.696 692 L944.696 678.667 " fill="none" stroke-width="3.333333" stroke="#000000ff"/>
  <path d="M1057.18 692 L1057.18 678.667 " fill="none" stroke-width="3.333333" stroke="#000000ff"/>
  <path d="M1169.65 692 L1169.65 678.667 " fill="none" stroke-width="3.333333" stroke="#000000ff"/>
  <path d="M1282.13 692 L1282.13 678.667 " fill="none" stroke-width="3.333333" stroke="#000000ff"/>
  <path d="M1394.61 692 L1394.61 678.667 " fill="none" stroke-width="3.333333" stroke="#000000ff"/>
  <path d="M1507.09 692 L1507.09 678.667 " fill="none" stroke-width="3.333333" stroke="#000000ff"/>
  <text x="240.255425" y="755.333333" fill="#000000ff" font-size="36.666667" font-family="Arial,Helvetica,'Helvetica Neue',sans-serif" font-weight="500.000000">Jan</text>
  <text x="350.703776" y="755.333333" fill="#000000ff" font-size="36.666667" font-family="Arial,Helvetica,'Helvetica Neue',sans-serif" font-weight="500.000000">Feb</text>
  <text x="463.199002" y="755.333333" fill="#000000ff" font-size="36.666667" font-family="Arial,Helvetica,'Helvetica Neue',sans-serif" font-weight="500.000000">Mar</text>
  <text x="578.725477" y="755.333333" fill="#000000ff" font-size="36.666667" font-family="Arial,Helvetica,'Helvetica Neue',sans-serif" font-weight="500.000000">Apr</text>
  <text x="685.095703" y="755.333333" fill="#000000ff" font-size="36.666667" font-family="Arial,Helvetica,'Helvetica Neue',sans-serif" font-weight="500.000000">May</text>
  <text x="802.653429" y="755.333333" fill="#000000ff" font-size="36.666667" font-family="Arial,Helvetica,'Helvetica Neue',sans-serif" font-weight="500.000000">Jun</text>
  <text x="921.258030" y="755.333333" fill="#000000ff" font-size="36.666667" font-family="Arial,Helvetica,'Helvetica Neue',sans-serif" font-weight="500.000000">Jul</text>
  <text x="1024.557943" y="755.333333" fill="#000000ff" font-size="36.666667" font-family="Arial,Helvetica,'Helvetica Neue',sans-serif" font-weight="500.000000">Aug</text>
  <text x="1137.037543" y="755.333333" fill="#000000ff" font-size="36.666667" font-family="Arial,Helvetica,'Helvetica Neue',sans-serif" font-weight="500.000000">Sep</text>
  <text x="1253.603082" y="755.333333" fill="#000000ff" font-size="36.666667" font-family="Arial,Helvetica,'Helvetica Neue',sans-serif" font-weight="500.000000">Oct</text>
  <text x="1362.004557" y="755.333333" fill="#000000ff" font-size="36.666667" font-family="Arial,Helvetica,'Helvetica Neue',sans-serif" font-weight="500.000000">Nov</text>
  <text x="1474.484158" y="755.333333" fill="#000000ff" font-size="36.666667" font-family="Arial,Helvetica,'Helvetica Neue',sans-serif" font-weight="500.000000">Dec</text>
  <path d="M213.578 692 L213.578 36.6667 " fill="none" stroke-width="3.333333" stroke="#000000ff"/>
  <path d="M213.578 626.467 L226.911 626.467 " fill="none" stroke-width="3.333333" stroke="#000000ff"/>
  <path d="M213.578 560.933 L226.911 560.933 " fill="none" stroke-width="3.333333" stroke="#000000ff"/>
  <path d="M213.578 495.4 L226.911 495.4 " fill="none" stroke-width="3.333333" stroke="#000000ff"/>
  <path d="M213.578 429.867 L226.911 429.867 " fill="none" stroke-width="3.333333" stroke="#000000ff"/>
  <path d="M213.578 364.333 L226.911 364.333 " fill="none" stroke-width="3.333333" stroke="#000000ff"/>
  <path d="M213.578 298.8 L226.911 298.8 " fill="none" stroke-width="3.333333" stroke="#000000ff"/>
  <path d="M213.578 233.267 L226.911 233.267 " fill="none" stroke-width="3.333333" stroke="#000000ff"/>
  <path d="M213.578 167.733 L226.911 167.733 " fill="none" stroke-width="3.333333" stroke="#000000ff"/>
  <path d="M213.578 102.2 L226.911 102.2 " fill="none" stroke-width="3.333333" stroke="#000000ff"/>
  <path d="M213.578 36.6667 L226.911 36.6667 " fill="none" stroke-width="3.333333" stroke="#000000ff"/>
  <text x="100.666667" y="639.466667" fill="#000000ff" font-size="36.666667" font-family="Arial,Helvetica,'Helvetica Neue',sans-serif" font-weight="500.000000">-10.0</text>
  <text x="121.057292" y="573.933333" fill="#000000ff" font-size="36.666667" font-family="Arial,Helvetica,'Helvetica Neue',sans-serif" font-weight="500.000000">-5.0</text>
  <text x="133.276042" y="508.400000" fill="#000000ff" font-size="36.666667" font-family="Arial,Helvetica,'Helvetica Neue',sans-serif" font-weight="500.000000">0.0</text>
  <text x="133.276042" y="442.866667" fill="#000000ff" font-size="36.666667" font-family="Arial,Helvetica,'Helvetica Neue',sans-serif" font-weight="500.000000">5.0</text>
  <text x="112.885417" y="377.333333" fill="#000000ff" font-size="36.666667" font-family="Arial,Helvetica,'Helvetica Neue',sans-serif" font-weight="500.000000">10.0</text>
  <text x="112.885417" y="311.800000" fill="#000000ff" font-size="36.666667" font-family="Arial,Helvetica,'Helvetica Neue',sans-serif" font-weight="500.000000">15.0</text>
  <text x="112.885417" y="246.266667" fill="#000000ff" font-size="36.666667" font-family="Arial,Helvetica,'Helvetica Neue',sans-serif" font-weight="500.000000">20.0</text>
  <text x="112.885417" y="180.733333" fill="#000000ff" font-size="36.666667" font-family="Arial,Helvetica,'Helvetica Neue',sans-serif" font-weight="500.000000">25.0</text>
  <text x="112.885417" y="115.200000" fill="#000000ff" font-size="36.666667" font-family="Arial,Helvetica,'Helvetica Neue',sans-serif" font-weight="500.000000">30.0</text>
  <text x="112.885417" y="49.666667" fill="#000000ff" font-size="36.666667" font-family="Arial,Helvetica,'Helvetica Neue',sans-serif" font-weight="500.000000">35.0</text>
  <text x="-83.153646" y="377.333333" fill="#000000ff" font-size="36.666667" font-family="Arial,Helvetica,'Helvetica Neue',sans-serif" font-weight="500.000000" transform="matrix(6.12323e-17 -1 1 6.12323e-17 -306.667 422)">Temperature (°C)</text>
  <path d="M269.818 547.827 L382.298 513.749 L494.777 424.624 L607.257 318.46 L719.736 234.577 L832.216 190.015 L944.696 176.908 L1057.18 182.151 L1169.65 234.577 L1282.13 323.703 L1394.61 433.799 L1507.09 518.992 " fill="none" stroke-width="5.000000" stroke="#aa4643ff"/>
  <path d="M269.818 554.493 C266.136 554.493 263.151 551.509 263.151 547.827 C263.151 544.145 266.136 541.16 269.818 541.16 C273.5 541.16 276.485 544.145 276.485 547.827 C276.485 551.509 273.5 554.493 269.818 554.493 Z" fill="#aa4643" fill-opacity="1.000000"/>
  <path d="M382.298 520.416 C378.616 520.416 375.631 517.431 375.631 513.749 C375.631 510.067 378.616 507.083 382.298 507.083 C385.979 507.083 388.964 510.067 388.964 513.749 C388.964 517.431 385.979 520.416 382.298 520.416 Z" fill="#aa4643" fill-opacity="1.000000"/>
  <path d="M494.777 431.291 C491.095 431.291 488.11 428.306 488.11 424.624 C488.11 420.942 491.095 417.957 494.777 417.957 C498.459 417.957 501.444 420.942 501.444 424.624 C501.444 428.306 498.459 431.291 494.777 431.291 Z" fill="#aa4643" fill-opacity="1.000000"/>
  <path d="M607.257 325.127 C603.575 325.127 600.59 322.142 600.59 318.46 C600.59 314.778 603.575 311.793 607.257 311.793 C610.939 311.793 613.923 314.778 613.923 318.46 C613.923 322.142 610.939 325.127 607.257 325.127 Z" fill="#aa4643" fill-opacity="1.000000"/>
  <path d="M719.736 241.244 C716.054 241.244 713.07 238.259 713.07 234.577 C713.07 230.895 716.054 227.911 719.736 227.911 C723.418 227.911 726.403 230.895 726.403 234.577 C726.403 238.259 723.418 241.244 719.736 241.244 Z" fill="#aa4643" fill-opacity="1.000000"/>
  <path d="M832.216 196.681 C828.534 196.681 825.549 193.697 825.549 190.015 C825.549 186.333 828.534 183.348 832.216 183.348 C835.898 183.348 838.883 186.333 838.883 190.015 C838.883 193.697 835.898 196.681 832.216 196.681 Z" fill="#aa4643" fill-opacity="1.000000"/>
  <path d="M944.696 183.575 C941.014 183.575 938.029 180.59 938.029 176.908 C938.029 173.226 941.014 170.241 944.696 170.241 C948.377 170.241 951.362 173.226 951.362 176.908 C951.362 180.59 948.377 183.575 944.696 183.575 Z" fill="#aa4643" fill-opacity="1.000000"/>
  <path d="M1057.18 188.817 C1053.49 188.817 1050.51 185.833 1050.51 182.151 C1050.51 178.469 1053.49 175.484 1057.18 175.484 C1060.86 175.484 1063.84 178.469 1063.84 182.151 C1063.84 185.833 1060.86 188.817 1057.18 188.817 Z" fill="#aa4643" fill-opacity="1.000000"/>
  <path d="M1169.65 241.244 C1165.97 241.244 1162.99 238.259 1162.99 234.577 C1162.99 230.895 1165.97 227.911 1169.65 227.911 C1173.34 227.911 1176.32 230.895 1176.32 234.577 C1176.32 238.259 1173.34 241.244 1169.65 241.244 Z" fill="#aa4643" fill-opacity="1.000000"/>
  <path d="M1282.13 330.369 C1278.45 330.369 1275.47 327.385 1275.47 323.703 C1275.47 320.021 1278.45 317.036 1282.13 317.036 C1285.82 317.036 1288.8 320.021 1288.8 323.703 C1288.8 327.385 1285.82 330.369 1282.13 330.369 Z" fill="#aa4643" fill-opacity="1.000000"/>
  <path d="M1394.61 440.465 C1390.93 440.465 1387.95 437.481 1387.95 433.799 C1387.95 430.117 1390.93 427.132 1394.61 427.132 C1398.3 427.132 1401.28 430.117 1401.28 433.799 C1401.28 437.481 1398.3 440.465 1394.61 440.465 Z" fill="#aa4643" fill-opacity="1.000000"/>
  <path d="M1507.09 525.659 C1503.41 525.659 1500.43 522.674 1500.43 518.992 C1500.43 515.31 1503.41 512.325 1507.09 512.325 C1510.78 512.325 1513.76 515.31 1513.76 518.992 C1513.76 522.674 1510.78 525.659 1507.09 525.659 Z" fill="#aa4643" fill-opacity="1.000000"/>
  <path d="M269.818 592.389 L382.298 571.419 L494.777 496.711 L607.257 402.343 L719.736 302.732 L832.216 263.412 L944.696 225.403 L1057.18 248.995 L1169.65 330.256 L1282.13 415.449 L1394.61 480.983 L1507.09 542.584 " fill="none" stroke-width="5.000000" stroke="#89a54eff"/>
  <path d="M269.818 599.056 C266.136 599.056 263.151 596.071 263.151 592.389 C263.151 588.707 266.136 585.723 269.818 585.723 C273.5 585.723 276.485 588.707 276.485 592.389 C276.485 596.071 273.5 599.056 269.818 599.056 Z" fill="#89a54e" fill-opacity="1.000000"/>
  <path d="M382.298 578.085 C378.616 578.085 375.631 575.101 375.631 571.419 C375.631 567.737 378.616 564.752 382.298 564.752 C385.979 564.752 388.964 567.737 388.964 571.419 C388.964 575.101 385.979 578.085 382.298 578.085 Z" fill="#89a54e" fill-opacity="1.000000"/>
  <path d="M494.777 503.377 C491.095 503.377 488.11 500.393 488.11 496.711 C488.11 493.029 491.095 490.044 494.777 490.044 C498.459 490.044 501.444 493.029 501.444 496.711 C501.444 500.393 498.459 503.377 494.777 503.377 Z" fill="#89a54e" fill-opacity="1.000000"/>
  <path d="M607.257 409.009 C603.575 409.009 600.59 406.025 600.59 402.343 C600.59 398.661 603.575 395.676 607.257 395.676 C610.939 395.676 613.923 398.661 613.923 402.343 C613.923 406.025 610.939 409.009 607.257 409.009 Z" fill="#89a54e" fill-opacity="1.000000"/>
  <path d="M719.736 309.399 C716.054 309.399 713.07 306.414 713.07 302.732 C713.07 299.05 716.054 296.065 719.736 296.065 C723.418 296.065 726.403 299.05 726.403 302.732 C726.403 306.414 723.418 309.399 719.736 309.399 Z" fill="#89a54e" fill-opacity="1.000000"/>
  <path d="M832.216 270.079 C828.534 270.079 825.549 267.094 825.549 263.412 C825.549 259.73 828.534 256.745 832.216 256.745 C835.898 256.745 838.883 259.73 838.883 263.412 C838.883 267.094 835.898 270.079 832.216 270.079 Z" fill="#89a54e" fill-opacity="1.000000"/>
  <path d="M944.696 232.069 C941.014 232.069 938.029 229.085 938.029 225.403 C938.029 221.721 941.014 218.736 944.696 218.736 C948.377 218.736 951.362 221.721 951.362 225.403 C951.362 229.085 948.377 232.069 944.696 232.069 Z" fill="#89a54e" fill-opacity="1.000000"/>
  <path d="M1057.18 255.661 C1053.49 255.661 1050.51 252.677 1050.51 248.995 C1050.51 245.313 1053.49 242.328 1057.18 242.328 C1060.86 242.328 1063.84 245.313 1063.84 248.995 C1063.84 252.677 1060.86 255.661 1057.18 255.661 Z" fill="#89a54e" fill-opacity="1.000000"/>
  <path d="M1169.65 336.923 C1165.97 336.923 1162.99 333.938 1162.99 330.256 C1162.99 326.574 1165.97 323.589 1169.65 323.589 C1173.34 323.589 1176.32 326.574 1176.32 330.256 C1176.32 333.938 1173.34 336.923 1169.65 336.923 Z" fill="#89a54e" fill-opacity="1.000000"/>
  <path d="M1282.13 422.116 C1278.45 422.116 1275.47 419.131 1275.47 415.449 C1275.47 411.767 1278.45 408.783 1282.13 408.783 C1285.82 408.783 1288.8 411.767 1288.8 415.449 C1288.8 419.131 1285.82 422.116 1282.13 422.116 Z" fill="#89a54e" fill-opacity="1.000000"/>
  <path d="M1394.61 487.649 C1390.93 487.649 1387.95 484.665 1387.95 480.983 C1387.95 477.301 1390.93 474.316 1394.61 474.316 C1398.3 474.316 1401.28 477.301 1401.28 480.983 C1401.28 484.665 1398.3 487.649 1394.61 487.649 Z" fill="#89a54e" fill-opacity="1.000000"/>
  <path d="M1507.09 549.251 C1503.41 549.251 1500.43 546.266 1500.43 542.584 C1500.43 538.902 1503.41 535.917 1507.09 535.917 C1510.78 535.917 1513.76 538.902 1513.76 542.584 C1513.76 546.266 1510.78 549.251 1507.09 549.251 Z" fill="#89a54e" fill-opacity="1.000000"/>
  <path d="M269.818 325.013 L382.298 325.013 L494.777 298.8 L607.257 246.373 L719.736 180.84 L832.216 154.627 L944.696 128.413 L1057.18 128.413 L1169.65 167.733 L1282.13 193.947 L1394.61 259.48 L1507.09 311.907 " fill="none" stroke-width="5.000000" stroke="#4572a7ff"/>
  <path d="M269.818 331.68 C266.136 331.68 263.151 328.695 263.151 325.013 C263.151 321.331 266.136 318.347 269.818 318.347 C273.5 318.347 276.485 321.331 276.485 325.013 C276.485 328.695 273.5 331.68 269.818 331.68 Z" fill="#4572a7" fill-opacity="1.000000"/>
  <path d="M382.298 331.68 C378.616 331.68 375.631 328.695 375.631 325.013 C375.631 321.331 378.616 318.347 382.298 318.347 C385.979 318.347 388.964 321.331 388.964 325.013 C388.964 328.695 385.979 331.68 382.298 331.68 Z" fill="#4572a7" fill-opacity="1.000000"/>
  <path d="M494.777 305.467 C491.095 305.467 488.11 302.482 488.11 298.8 C488.11 295.118 491.095 292.133 494.777 292.133 C498.459 292.133 501.444 295.118 501.444 298.8 C501.444 302.482 498.459 305.467 494.777 305.467 Z" fill="#4572a7" fill-opacity="1.000000"/>
  <path d="M607.257 253.04 C603.575 253.04 600.59 250.055 600.59 246.373 C600.59 242.691 603.575 239.707 607.257 239.707 C610.939 239.707 613.923 242.691 613.923 246.373 C613.923 250.055 610.939 253.04 607.257 253.04 Z" fill="#4572a7" fill-opacity="1.000000"/>
  <path d="M719.736 187.507 C716.054 187.507 713.07 184.522 713.07 180.84 C713.07 177.158 716.054 174.173 719.736 174.173 C723.418 174.173 726.403 177.158 726.403 180.84 C726.403 184.522 723.418 187.507 719.736 187.507 Z" fill="#4572a7" fill-opacity="1.000000"/>
  <path d="M832.216 161.293 C828.534 161.293 825.549 158.309 825.549 154.627 C825.549 150.945 828.534 147.96 832.216 147.96 C835.898 147.96 838.883 150.945 838.883 154.627 C838.883 158.309 835.898 161.293 832.216 161.293 Z" fill="#4572a7" fill-opacity="1.000000"/>
  <path d="M944.696 135.08 C941.014 135.08 938.029 132.095 938.029 128.413 C938.029 124.731 941.014 121.747 944.696 121.747 C948.377 121.747 951.362 124.731 951.362 128.413 C951.362 132.095 948.377 135.08 944.696 135.08 Z" fill="#4572a7" fill-opacity="1.000000"/>
  <path d="M1057.18 135.08 C1053.49 135.08 1050.51 132.095 1050.51 128.413 C1050.51 124.731 1053.49 121.747 1057.18 121.747 C1060.86 121.747 1063.84 124.731 1063.84 128.413 C1063.84 132.095 1060.86 135.08 1057.18 135.08 Z" fill="#4572a7" fill-opacity="1.000000"/>
  <path d="M1169.65 174.4 C1165.97 174.4 1162.99 171.415 1162.99 167.733 C1162.99 164.051 1165.97 161.067 1169.65 161.067 C1173.34 161.067 1176.32 164.051 1176.32 167.733 C1176.32 171.415 1173.34 174.4 1169.65 174.4 Z" fill="#4572a7" fill-opacity="1.000000"/>
  <path d="M1282.13 200.613 C1278.45 200.613 1275.47 197.629 1275.47 193.947 C1275.47 190.265 1278.45 187.28 1282.13 187.28 C1285.82 187.28 1288.8 190.265 1288.8 193.947 C1288.8 197.629 1285.82 200.613 1282.13 200.613 Z" fill="#4572a7" fill-opacity="1.000000"/>
  <path d="M1394.61 266.147 C1390.93 266.147 1387.95 263.162 1387.95 259.48 C1387.95 255.798 1390.93 252.813 1394.61 252.813 C1398.3 252.813 1401.28 255.798 1401.28 259.48 C1401.28 263.162 1398.3 266.147 1394.61 266.147 Z" fill="#4572a7" fill-opacity="1.000000"/>
  <path d="M1507.09 318.573 C1503.41 318.573 1500.43 315.589 1500.43 311.907 C1500.43 308.225 1503.41 305.24 1507.09 305.24 C1510.78 305.24 1513.76 308.225 1513.76 311.907 C1513.76 315.589 1510.78 318.573 1507.09 318.573 Z" fill="#4572a7" fill-opacity="1.000000"/>
  <text x="639.268229" y="640.166667" fill="#000000ff" font-size="36.666667" font-family="Arial,Helvetica,'Helvetica Neue',sans-serif" font-weight="500.000000">Москва</text>
  <path d="M604.435 640.917 C596.841 640.917 590.685 634.761 590.685 627.167 C590.685 619.573 596.841 613.417 604.435 613.417 C612.029 613.417 618.185 619.573 618.185 627.167 C618.185 634.761 612.029 640.917 604.435 640.917 Z" fill="#89a54e" fill-opacity="1.000000"/>
  <text x="856.138021" y="640.166667" fill="#000000ff" font-size="36.666667" font-family="Arial,Helvetica,'Helvetica Neue',sans-serif" font-weight="500.000000">תל אביב</text>
  <path d="M821.305 640.917 C813.711 640.917 807.555 634.761 807.555 627.167 C807.555 619.573 813.711 613.417 821.305 613.417 C828.899 613.417 835.055 619.573 835.055 627.167 C835.055 634.761 828.899 640.917 821.305 640.917 Z" fill="#4572a7" fill-opacity="1.000000"/>
  <text x="1067.960938" y="641.666667" fill="#000000ff" font-size="36.666667" font-family="Arial,Helvetica,'Helvetica Neue',sans-serif" font-weight="500.000000">北京市</text>
  <path d="M1033.13 640.917 C1025.53 640.917 1019.38 634.761 1019.38 627.167 C1019.38 619.573 1025.53 613.417 1033.13 613.417 C1040.72 613.417 1046.88 619.573 1046.88 627.167 C1046.88 634.761 1040.72 640.917 1033.13 640.917 Z" fill="#aa4643" fill-opacity="1.000000"/>
</svg>