<?xml version="1.0" encoding="UTF-8" ?>
<!-- Generated by clip v0.6.0 (clip-lang.org) -->
<svg xmlns="http://www.w3.org/2000/svg" width="2048.000000" height="700.000000">
  <rect width="2048.000000" height="700.000000" fill="#ffffff" fill-opacity="1.000000"/>
  <path d="M213.578 592 L2011.33 592 " fill="none" stroke-width="3.333333" stroke="#000000ff"/>
  <path d="M288.485 592 L288.485 578.667 " fill="none" stroke-width="3.333333" stroke="#000000ff"/>
  <path d="M438.298 592 L438.298 578.667 " fill="none" stroke-width="3.333333" stroke="#000000ff"/>
  <path d="M588.11 592 L588.11 578.667 " fill="none" stroke-width="3.333333" stroke="#000000ff"/>
  <path d="M737.923 592 L737.923 578.667 " fill="none" stroke-width="3.333333" stroke="#000000ff"/>
  <path d="M887.736 592 L887.736 578.667 " fill="none" stroke-width="3.333333" stroke="#000000ff"/>
  <path d="M1037.55 592 L1037.55 578.667 " fill="none" stroke-width="3.333333" stroke="#000000ff"/>
  <path d="M1187.36 592 L1187.36 578.667 " fill="none" stroke-width="3.333333" stroke="#000000ff"/>
  <path d="M1337.18 592 L1337.18 578.667 " fill="none" stroke-width="3.333333" stroke="#000000ff"/>
  <path d="M1486.99 592 L1486.99 578.667 " fill="none" stroke-width="3.333333" stroke="#000000ff"/>
  <path d="M1636.8 592 L1636.8 578.667 " fill="none" stroke-width="3.333333" stroke="#000000ff"/>
  <path d="M1786.61 592 L1786.61 578.667 " fill="none" stroke-width="3.333333" stroke="#000000ff"/>
  <path d="M1936.43 592 L1936.43 578.667 " fill="none" stroke-width="3.333333" stroke="#000000ff"/>
  <text x="258.922092" y="655.333333" fill="#000000ff" font-size="36.666667" font-family="Arial,Helvetica,'Helvetica Neue',sans-serif" font-weight="500.000000">Jan</text>
  <text x="406.703776" y="655.333333" fill="#000000ff" font-size="36.666667" font-family="Arial,Helvetica,'Helvetica Neue',sans-serif" font-weight="500.000000">Feb</text>
  <text x="556.532335" y="655.333333" fill="#000000ff" font-size="36.666667" font-family="Arial,Helvetica,'Helvetica Neue',sans-serif" font-weight="500.000000">Mar</text>
  <text x="709.392144" y="655.333333" fill="#000000ff" font-size="36.666667" font-family="Arial,Helvetica,'Helvetica Neue',sans-serif" font-weight="500.000000">Apr</text>
  <text x="853.095703" y="655.333333" fill="#000000ff" font-size="36.666667" font-family="Arial,Helvetica,'Helvetica Neue',sans-serif" font-weight="500.000000">May</text>
  <text x="1007.986762" y="655.333333" fill="#000000ff" font-size="36.666667" font-family="Arial,Helvetica,'Helvetica Neue',sans-serif" font-weight="500.000000">Jun</text>
  <text x="1163.924696" y="655.333333" fill="#000000ff" font-size="36.666667" font-family="Arial,Helvetica,'Helvetica Neue',sans-serif" font-weight="500.000000">Jul</text>
  <text x="1304.557943" y="655.333333" fill="#000000ff" font-size="36.666667" font-family="Arial,Helvetica,'Helvetica Neue',sans-serif" font-weight="500.000000">Aug</text>
  <text x="1454.370877" y="655.333333" fill="#000000ff" font-size="36.666667" font-family="Arial,Helvetica,'Helvetica Neue',sans-serif" font-weight="500.000000">Sep</text>
  <text x="1608.269748" y="655.333333" fill="#000000ff" font-size="36.666667" font-family="Arial,Helvetica,'Helvetica Neue',sans-serif" font-weight="500.000000">Oct</text>
  <text x="1754.004557" y="655.333333" fill="#000000ff" font-size="36.666667" font-family="Arial,Helvetica,'Helvetica Neue',sans-serif" font-weight="500.000000">Nov</text>
  <text x="1903.817491" y="655.333333" fill="#000000ff" font-size="36.666667" font-family="Arial,Helvetica,'Helvetica Neue',sans-serif" font-weight="500.000000">Dec</text>
  <path d="M213.578 592 L213.578 36.6667 " fill="none" stroke-width="3.333333" stroke="#000000ff"/>
  <path d="M213.578 530.296 L226.911 530.296 " fill="none" stroke-width="3.333333" stroke="#000000ff"/>
  <path d="M213.578 468.593 L226.911 468.593 " fill="none" stroke-width="3.333333" stroke="#000000ff"/>
  <path d="M213.578 406.889 L226.911 406.889 " fill="none" stroke-width="3.333333" stroke="#000000ff"/>
  <path d="M213.578 345.185 L226.911 345.185 " fill="none" stroke-width="3.333333" stroke="#000000ff"/>
  <path d="M213.578 283.481 L226.911 283.481 " fill="none" stroke-width="3.333333" stroke="#000000ff"/>
  <path d="M213.578 221.778 L226.911 221.778 " fill="none" stroke-width="3.333333" stroke="#000000ff"/>
  <path d="M213.578 160.074 L226.911 160.074 " fill="none" stroke-width="3.333333" stroke="#000000ff"/>
  <path d="M213.578 98.3704 L226.911 98.3704 " fill="none" stroke-width="3.333333" stroke="#000000ff"/>
  <path d="M213.578 36.6667 L226.911 36.6667 " fill="none" stroke-width="3.333333" stroke="#000000ff"/>
  <text x="100.666667" y="543.296296" fill="#000000ff" font-size="36.666667" font-family="Arial,Helvetica,'Helvetica Neue',sans-serif" font-weight="500.000000">-10.0</text>
  <text x="121.057292" y="481.592593" fill="#000000ff" font-size="36.666667" font-family="Arial,Helvetica,'Helvetica Neue',sans-serif" font-weight="500.000000">-5.0</text>
  <text x="133.276042" y="419.888889" fill="#000000ff" font-size="36.666667" font-family="Arial,Helvetica,'Helvetica Neue',sans-serif" font-weight="500.000000">0.0</text>
  <text x="133.276042" y="358.185185" fill="#000000ff" font-size="36.666667" font-family="Arial,Helvetica,'Helvetica Neue',sans-serif" font-weight="500.000000">5.0</text>
  <text x="112.885417" y="296.481481" fill="#000000ff" font-size="36.666667" font-family="Arial,Helvetica,'Helvetica Neue',sans-serif" font-weight="500.000000">10.0</text>
  <text x="112.885417" y="234.777778" fill="#000000ff" font-size="36.666667" font-family="Arial,Helvetica,'Helvetica Neue',sans-serif" font-weight="500.000000">15.0</text>
  <text x="112.885417" y="173.074074" fill="#000000ff" font-size="36.666667" font-family="Arial,Helvetica,'Helvetica Neue',sans-serif" font-weight="500.000000">20.0</text>
  <text x="112.885417" y="111.370370" fill="#000000ff" font-size="36.666667" font-family="Arial,Helvetica,'Helvetica Neue',sans-serif" font-weight="500.000000">25.0</text>
  <text x="112.885417" y="49.666667" fill="#000000ff" font-size="36.666667" font-family="Arial,Helvetica,'Helvetica Neue',sans-serif" font-weight="500.000000">30.0</text>
  <text x="-83.153646" y="327.333333" fill="#000000ff" font-size="36.666667" font-family="Arial,Helvetica,'Helvetica Neue',sans-serif" font-weight="500.000000" transform="matrix(6.12323e-17 -1 1 6.12323e-17 -256.667 372)">Temperature (°C)</text>
  <path d="M288.485 456.252 L438.298 424.166 L588.11 340.249 L737.923 240.289 L887.736 161.308 L1037.55 119.35 L1187.36 107.009 L1337.18 111.945 L1486.99 161.308 L1636.8 245.225 L1786.61 348.887 L1936.43 429.102 " fill="none" stroke-width="5.000000" stroke="#aa4643ff"/>
  <path d="M288.485 462.919 C284.803 462.919 281.818 459.934 281.818 456.252 C281.818 452.57 284.803 449.585 288.485 449.585 C292.166 449.585 295.151 452.57 295.151 456.252 C295.151 459.934 292.166 462.919 288.485 462.919 Z" fill="#aa4643" fill-opacity="1.000000"/>
  <path d="M438.298 430.833 C434.616 430.833 431.631 427.848 431.631 424.166 C431.631 420.484 434.616 417.499 438.298 417.499 C441.979 417.499 444.964 420.484 444.964 424.166 C444.964 427.848 441.979 430.833 438.298 430.833 Z" fill="#aa4643" fill-opacity="1.000000"/>
  <path d="M588.11 346.916 C584.429 346.916 581.444 343.931 581.444 340.249 C581.444 336.567 584.429 333.582 588.11 333.582 C591.792 333.582 594.777 336.567 594.777 340.249 C594.777 343.931 591.792 346.916 588.11 346.916 Z" fill="#aa4643" fill-opacity="1.000000"/>
  <path d="M737.923 246.956 C734.241 246.956 731.257 243.971 731.257 240.289 C731.257 236.607 734.241 233.622 737.923 233.622 C741.605 233.622 744.59 236.607 744.59 240.289 C744.59 243.971 741.605 246.956 737.923 246.956 Z" fill="#aa4643" fill-opacity="1.000000"/>
  <path d="M887.736 167.975 C884.054 167.975 881.07 164.99 881.07 161.308 C881.07 157.626 884.054 154.641 887.736 154.641 C891.418 154.641 894.403 157.626 894.403 161.308 C894.403 164.99 891.418 167.975 887.736 167.975 Z" fill="#aa4643" fill-opacity="1.000000"/>
  <path d="M1037.55 126.016 C1033.87 126.016 1030.88 123.032 1030.88 119.35 C1030.88 115.668 1033.87 112.683 1037.55 112.683 C1041.23 112.683 1044.22 115.668 1044.22 119.35 C1044.22 123.032 1041.23 126.016 1037.55 126.016 Z" fill="#aa4643" fill-opacity="1.000000"/>
  <path d="M1187.36 113.676 C1183.68 113.676 1180.7 110.691 1180.7 107.009 C1180.7 103.327 1183.68 100.342 1187.36 100.342 C1191.04 100.342 1194.03 103.327 1194.03 107.009 C1194.03 110.691 1191.04 113.676 1187.36 113.676 Z" fill="#aa4643" fill-opacity="1.000000"/>
  <path d="M1337.18 118.612 C1333.49 118.612 1330.51 115.627 1330.51 111.945 C1330.51 108.263 1333.49 105.279 1337.18 105.279 C1340.86 105.279 1343.84 108.263 1343.84 111.945 C1343.84 115.627 1340.86 118.612 1337.18 118.612 Z" fill="#aa4643" fill-opacity="1.000000"/>
  <path d="M1486.99 167.975 C1483.31 167.975 1480.32 164.99 1480.32 161.308 C1480.32 157.626 1483.31 154.641 1486.99 154.641 C1490.67 154.641 1493.65 157.626 1493.65 161.308 C1493.65 164.99 1490.67 167.975 1486.99 167.975 Z" fill="#aa4643" fill-opacity="1.000000"/>
  <path d="M1636.8 251.892 C1633.12 251.892 1630.13 248.907 1630.13 245.225 C1630.13 241.543 1633.12 238.559 1636.8 238.559 C1640.48 238.559 1643.47 241.543 1643.47 245.225 C1643.47 248.907 1640.48 251.892 1636.8 251.892 Z" fill="#aa4643" fill-opacity="1.000000"/>
  <path d="M1786.61 355.554 C1782.93 355.554 1779.95 352.569 1779.95 348.887 C1779.95 345.206 1782.93 342.221 1786.61 342.221 C1790.3 342.221 1793.28 345.206 1793.28 348.887 C1793.28 352.569 1790.3 355.554 1786.61 355.554 Z" fill="#aa4643" fill-opacity="1.000000"/>
  <path d="M1936.43 435.769 C1932.74 435.769 1929.76 432.784 1929.76 429.102 C1929.76 425.42 1932.74 422.436 1936.43 422.436 C1940.11 422.436 1943.09 425.42 1943.09 429.102 C1943.09 432.784 1940.11 435.769 1936.43 435.769 Z" fill="#aa4643" fill-opacity="1.000000"/>
  <path d="M288.485 498.21 L438.298 478.465 L588.11 408.123 L737.923 319.27 L887.736 225.48 L1037.55 188.458 L1187.36 152.67 L1337.18 174.883 L1486.99 251.396 L1636.8 331.61 L1786.61 393.314 L1936.43 451.316 " fill="none" stroke-width="5.000000" stroke="#89a54eff"/>
  <path d="M288.485 504.877 C284.803 504.877 281.818 501.892 281.818 498.21 C281.818 494.528 284.803 491.544 288.485 491.544 C292.166 491.544 295.151 494.528 295.151 498.21 C295.151 501.892 292.166 504.877 288.485 504.877 Z" fill="#89a54e" fill-opacity="1.000000"/>
  <path d="M438.298 485.132 C434.616 485.132 431.631 482.147 431.631 478.465 C431.631 474.783 434.616 471.799 438.298 471.799 C441.979 471.799 444.964 474.783 444.964 478.465 C444.964 482.147 441.979 485.132 438.298 485.132 Z" fill="#89a54e" fill-opacity="1.000000"/>
  <path d="M588.11 414.79 C584.429 414.79 581.444 411.805 581.444 408.123 C581.444 404.441 584.429 401.456 588.11 401.456 C591.792 401.456 594.777 404.441 594.777 408.123 C594.777 411.805 591.792 414.79 588.11 414.79 Z" fill="#89a54e" fill-opacity="1.000000"/>
  <path d="M737.923 325.936 C734.241 325.936 731.257 322.952 731.257 319.27 C731.257 315.588 734.241 312.603 737.923 312.603 C741.605 312.603 744.59 315.588 744.59 319.27 C744.59 322.952 741.605 325.936 737.923 325.936 Z" fill="#89a54e" fill-opacity="1.000000"/>
  <path d="M887.736 232.147 C884.054 232.147 881.07 229.162 881.07 225.48 C881.07 221.798 884.054 218.813 887.736 218.813 C891.418 218.813 894.403 221.798 894.403 225.48 C894.403 229.162 891.418 232.147 887.736 232.147 Z" fill="#89a54e" fill-opacity="1.000000"/>
  <path d="M1037.55 195.124 C1033.87 195.124 1030.88 192.14 1030.88 188.458 C1030.88 184.776 1033.87 181.791 1037.55 181.791 C1041.23 181.791 1044.22 184.776 1044.22 188.458 C1044.22 192.14 1041.23 195.124 1037.55 195.124 Z" fill="#89a54e" fill-opacity="1.000000"/>
  <path d="M1187.36 159.336 C1183.68 159.336 1180.7 156.352 1180.7 152.67 C1180.7 148.988 1183.68 146.003 1187.36 146.003 C1191.04 146.003 1194.03 148.988 1194.03 152.67 C1194.03 156.352 1191.04 159.336 1187.36 159.336 Z" fill="#89a54e" fill-opacity="1.000000"/>
  <path d="M1337.18 181.55 C1333.49 181.55 1330.51 178.565 1330.51 174.883 C1330.51 171.201 1333.49 168.216 1337.18 168.216 C1340.86 168.216 1343.84 171.201 1343.84 174.883 C1343.84 178.565 1340.86 181.55 1337.18 181.55 Z" fill="#89a54e" fill-opacity="1.000000"/>
  <path d="M1486.99 258.062 C1483.31 258.062 1480.32 255.077 1480.32 251.396 C1480.32 247.714 1483.31 244.729 1486.99 244.729 C1490.67 244.729 1493.65 247.714 1493.65 251.396 C1493.65 255.077 1490.67 258.062 1486.99 258.062 Z" fill="#89a54e" fill-opacity="1.000000"/>
  <path d="M1636.8 338.277 C1633.12 338.277 1630.13 335.292 1630.13 331.61 C1630.13 327.928 1633.12 324.944 1636.8 324.944 C1640.48 324.944 1643.47 327.928 1643.47 331.61 C1643.47 335.292 1640.48 338.277 1636.8 338.277 Z" fill="#89a54e" fill-opacity="1.000000"/>
  <path d="M1786.61 399.981 C1782.93 399.981 1779.95 396.996 1779.95 393.314 C1779.95 389.632 1782.93 386.647 1786.61 386.647 C1790.3 386.647 1793.28 389.632 1793.28 393.314 C1793.28 396.996 1790.3 399.981 1786.61 399.981 Z" fill="#89a54e" fill-opacity="1.000000"/>
  <path d="M1936.43 457.982 C1932.74 457.982 1929.76 454.997 1929.76 451.316 C1929.76 447.634 1932.74 444.649 1936.43 444.649 C1940.11 444.649 1943.09 447.634 1943.09 451.316 C1943.09 454.997 1940.11 457.982 1936.43 457.982 Z" fill="#89a54e" fill-opacity="1.000000"/>
  <path d="M288.485 246.459 L438.298 246.459 L588.11 221.778 L737.923 172.415 L887.736 110.711 L1037.55 86.0296 L1187.36 61.3481 L1337.18 61.3481 L1486.99 98.3704 L1636.8 123.052 L1786.61 184.756 L1936.43 234.119 " fill="none" stroke-width="5.000000" stroke="#4572a7ff"/>
  <path d="M288.485 253.126 C284.803 253.126 281.818 250.141 281.818 246.459 C281.818 242.777 284.803 239.793 288.485 239.793 C292.166 239.793 295.151 242.777 295.151 246.459 C295.151 250.141 292.166 253.126 288.485 253.126 Z" fill="#4572a7" fill-opacity="1.000000"/>
  <path d="M438.298 253.126 C434.616 253.126 431.631 250.141 431.631 246.459 C431.631 242.777 434.616 239.793 438.298 239.793 C441.979 239.793 444.964 242.777 444.964 246.459 C444.964 250.141 441.979 253.126 438.298 253.126 Z" fill="#4572a7" fill-opacity="1.000000"/>
  <path d="M588.11 228.444 C584.429 228.444 581.444 225.46 581.444 221.778 C581.444 218.096 584.429 215.111 588.11 215.111 C591.792 215.111 594.777 218.096 594.777 221.778 C594.777 225.46 591.792 228.444 588.11 228.444 Z" fill="#4572a7" fill-opacity="1.000000"/>
  <path d="M737.923 179.081 C734.241 179.081 731.257 176.097 731.257 172.415 C731.257 168.733 734.241 165.748 737.923 165.748 C741.605 165.748 744.59 168.733 744.59 172.415 C744.59 176.097 741.605 179.081 737.923 179.081 Z" fill="#4572a7" fill-opacity="1.000000"/>
  <path d="M887.736 117.378 C884.054 117.378 881.07 114.393 881.07 110.711 C881.07 107.029 884.054 104.044 887.736 104.044 C891.418 104.044 894.403 107.029 894.403 110.711 C894.403 114.393 891.418 117.378 887.736 117.378 Z" fill="#4572a7" fill-opacity="1.000000"/>
  <path d="M1037.55 92.6963 C1033.87 92.6963 1030.88 89.7115 1030.88 86.0296 C1030.88 82.3477 1033.87 79.363 1037.55 79.363 C1041.23 79.363 1044.22 82.3477 1044.22 86.0296 C1044.22 89.7115 1041.23 92.6963 1037.55 92.6963 Z" fill="#4572a7" fill-opacity="1.000000"/>
  <path d="M1187.36 68.0148 C1183.68 68.0148 1180.7 65.03 1180.7 61.3481 C1180.7 57.6662 1183.68 54.6815 1187.36 54.6815 C1191.04 54.6815 1194.03 57.6662 1194.03 61.3481 C1194.03 65.03 1191.04 68.0148 1187.36 68.0148 Z" fill="#4572a7" fill-opacity="1.000000"/>
  <path d="M1337.18 68.0148 C1333.49 68.0148 1330.51 65.03 1330.51 61.3481 C1330.51 57.6662 1333.49 54.6815 1337.18 54.6815 C1340.86 54.6815 1343.84 57.6662 1343.84 61.3481 C1343.84 65.03 1340.86 68.0148 1337.18 68.0148 Z" fill="#4572a7" fill-opacity="1.000000"/>
  <path d="M1486.99 105.037 C1483.31 105.037 1480.32 102.052 1480.32 98.3704 C1480.32 94.6885 1483.31 91.7037 1486.99 91.7037 C1490.67 91.7037 1493.65 94.6885 1493.65 98.3704 C1493.65 102.052 1490.67 105.037 1486.99 105.037 Z" fill="#4572a7" fill-opacity="1.000000"/>
  <path d="M1636.8 129.719 C1633.12 129.719 1630.13 126.734 1630.13 123.052 C1630.13 119.37 1633.12 116.385 1636.8 116.385 C1640.48 116.385 1643.47 119.37 1643.47 123.052 C1643.47 126.734 1640.48 129.719 1636.8 129.719 Z" fill="#4572a7" fill-opacity="1.000000"/>
  <path d="M1786.61 191.422 C1782.93 191.422 1779.95 188.437 1779.95 184.756 C1779.95 181.074 1782.93 178.089 1786.61 178.089 C1790.3 178.089 1793.28 181.074 1793.28 184.756 C1793.28 188.437 1790.3 191.422 1786.61 191.422 Z" fill="#4572a7" fill-opacity="1.000000"/>
  <path d="M1936.43 240.785 C1932.74 240.785 1929.76 237.8 1929.76 234.119 C1929.76 230.437 1932.74 227.452 1936.43 227.452 C1940.11 227.452 1943.09 230.437 1943.09 234.119 C1943.09 237.8 1940.11 240.785 1936.43 240.785 Z" fill="#4572a7" fill-opacity="1.000000"/>
  <text x="863.268229" y="540.166667" fill="#000000ff" font-size="36.666667" font-family="Arial,Helvetica,'Helvetica Neue',sans-serif" font-weight="500.000000">Москва</text>
  <path d="M828.435 540.917 C820.841 540.917 814.685 534.761 814.685 527.167 C814.685 519.573 820.841 513.417 828.435 513.417 C836.029 513.417 842.185 519.573 842.185 527.167 C842.185 534.761 836.029 540.917 828.435 540.917 Z" fill="#89a54e" fill-opacity="1.000000"/>
  <text x="1080.138021" y="540.166667" fill="#000000ff" font-size="36.666667" font-family="Arial,Helvetica,'Helvetica Neue',sans-serif" font-weight="500.000000">תל אביב</text>
  <path d="M1045.3 540.917 C1037.71 540.917 1031.55 534.761 1031.55 527.167 C1031.55 519.573 1037.71 513.417 1045.3 513.417 C1052.9 513.417 1059.05 519.573 1059.05 527.167 C1059.05 534.761 1052.9 540.917 1045.3 540.917 Z" fill="#4572a7" fill-opacity="1.000000"/>
  <text x="1291.960938" y="541.666667" fill="#000000ff" font-size="36.666667" font-family="Arial,Helvetica,'Helvetica Neue',sans-serif" font-weight="500.000000">北京市</text>
  <path d="M1257.13 540.917 C1249.53 540.917 1243.38 534.761 1243.38 527.167 C1243.38 519.573 1249.53 513.417 1257.13 513.417 C1264.72 513.417 1270.88 519.573 1270.88 527.167 C1270.88 534.761 1264.72 540.917 1257.13 540.917 Z" fill="#aa4643" fill-opacity="1.000000"/>
</svg>