<svg xmlns="http://www.w3.org/2000/svg" width="2048.000000" height="800.000000">
  <rect width="2048.000000" height="800.000000" fill="#ffffff" fill-opacity="1.000000"/>
  <path d="M36.6667 692 L2011.33 692 " fill="none" stroke-width="3.333333" stroke="#000000ff"/>
  <path d="M118.944 692 L118.944 678.667 " fill="none" stroke-width="3.333333" stroke="#000000ff"/>
  <path d="M283.5 692 L283.5 678.667 " fill="none" stroke-width="3.333333" stroke="#000000ff"/>
  <path d="M448.056 692 L448.056 678.667 " fill="none" stroke-width="3.333333" stroke="#000000ff"/>
  <path d="M612.611 692 L612.611 678.667 " fill="none" stroke-width="3.333333" stroke="#000000ff"/>
  <path d="M777.167 692 L777.167 678.667 " fill="none" stroke-width="3.333333" stroke="#000000ff"/>
  <path d="M941.722 692 L941.722 678.667 " fill="none" stroke-width="3.333333" stroke="#000000ff"/>
  <path d="M1106.28 692 L1106.28 678.667 " fill="none" stroke-width="3.333333" stroke="#000000ff"/>
  <path d="M1270.83 692 L1270.83 678.667 " fill="none" stroke-width="3.333333" stroke="#000000ff"/>
  <path d="M1435.39 692 L1435.39 678.667 " fill="none" stroke-width="3.333333" stroke="#000000ff"/>
  <path d="M1599.94 692 L1599.94 678.667 " fill="none" stroke-width="3.333333" stroke="#000000ff"/>
  <path d="M1764.5 692 L1764.5 678.667 " fill="none" stroke-width="3.333333" stroke="#000000ff"/>
  <path d="M1929.06 692 L1929.06 678.667 " fill="none" stroke-width="3.333333" stroke="#000000ff"/>
  <text x="89.381944" y="755.333333" fill="#000000ff" font-size="36.666667" font-family="Arial,Helvetica,'Helvetica Neue',sans-serif" font-weight="500.000000">Jan</text>
  <text x="251.906250" y="755.333333" fill="#000000ff" font-size="36.666667" font-family="Arial,Helvetica,'Helvetica Neue',sans-serif" font-weight="500.000000">Feb</text>
  <text x="416.477431" y="755.333333" fill="#000000ff" font-size="36.666667" font-family="Arial,Helvetica,'Helvetica Neue',sans-serif" font-weight="500.000000">Mar</text>
  <text x="584.079861" y="755.333333" fill="#000000ff" font-size="36.666667" font-family="Arial,Helvetica,'Helvetica Neue',sans-serif" font-weight="500.000000">Apr</text>
  <text x="742.526042" y="755.333333" fill="#000000ff" font-size="36.666667" font-family="Arial,Helvetica,'Helvetica Neue',sans-serif" font-weight="500.000000">May</text>
  <text x="912.159722" y="755.333333" fill="#000000ff" font-size="36.666667" font-family="Arial,Helvetica,'Helvetica Neue',sans-serif" font-weight="500.000000">Jun</text>
  <text x="1082.840278" y="755.333333" fill="#000000ff" font-size="36.666667" font-family="Arial,Helvetica,'Helvetica Neue',sans-serif" font-weight="500.000000">Jul</text>
  <text x="1238.216146" y="755.333333" fill="#000000ff" font-size="36.666667" font-family="Arial,Helvetica,'Helvetica Neue',sans-serif" font-weight="500.000000">Aug</text>
  <text x="1402.771701" y="755.333333" fill="#000000ff" font-size="36.666667" font-family="Arial,Helvetica,'Helvetica Neue',sans-serif" font-weight="500.000000">Sep</text>
  <text x="1571.413194" y="755.333333" fill="#000000ff" font-size="36.666667" font-family="Arial,Helvetica,'Helvetica Neue',sans-serif" font-weight="500.000000">Oct</text>
  <text x="1731.890625" y="755.333333" fill="#000000ff" font-size="36.666667" font-family="Arial,Helvetica,'Helvetica Neue',sans-serif" font-weight="500.000000">Nov</text>
  <text x="1896.446181" y="755.333333" fill="#000000ff" font-size="36.666667" font-family="Arial,Helvetica,'Helvetica Neue',sans-serif" font-weight="500.000000">Dec</text>
  <path d="M118.944 589.768 L283.5 581.904 L448.056 542.584 L612.611 469.187 L777.167 380.061 L941.722 293.557 L1106.28 246.373 L1270.83 256.859 L1435.39 319.771 L1599.94 422.003 L1764.5 518.992 L1929.06 566.176 " fill="none" stroke-width="5.000000" stroke="#4572a7ff"/>
  <path d="M118.944 598.101 C114.342 598.101 110.611 594.37 110.611 589.768 C110.611 585.166 114.342 581.435 118.944 581.435 C123.547 581.435 127.278 585.166 127.278 589.768 C127.278 594.37 123.547 598.101 118.944 598.101 Z" fill="#4572a7" fill-opacity="1.000000"/>
  <path d="M283.5 590.237 C278.898 590.237 275.167 586.506 275.167 581.904 C275.167 577.302 278.898 573.571 283.5 573.571 C288.102 573.571 291.833 577.302 291.833 581.904 C291.833 586.506 288.102 590.237 283.5 590.237 Z" fill="#4572a7" fill-opacity="1.000000"/>
  <path d="M448.056 550.917 C443.453 550.917 439.722 547.186 439.722 542.584 C439.722 537.982 443.453 534.251 448.056 534.251 C452.658 534.251 456.389 537.982 456.389 542.584 C456.389 547.186 452.658 550.917 448.056 550.917 Z" fill="#4572a7" fill-opacity="1.000000"/>
  <path d="M612.611 477.52 C608.009 477.52 604.278 473.789 604.278 469.187 C604.278 464.584 608.009 460.853 612.611 460.853 C617.213 460.853 620.944 464.584 620.944 469.187 C620.944 473.789 617.213 477.52 612.611 477.52 Z" fill="#4572a7" fill-opacity="1.000000"/>
  <path d="M777.167 388.395 C772.564 388.395 768.833 384.664 768.833 380.061 C768.833 375.459 772.564 371.728 777.167 371.728 C781.769 371.728 785.5 375.459 785.5 380.061 C785.5 384.664 781.769 388.395 777.167 388.395 Z" fill="#4572a7" fill-opacity="1.000000"/>
  <path d="M941.722 301.891 C937.12 301.891 933.389 298.16 933.389 293.557 C933.389 288.955 937.12 285.224 941.722 285.224 C946.325 285.224 950.056 288.955 950.056 293.557 C950.056 298.16 946.325 301.891 941.722 301.891 Z" fill="#4572a7" fill-opacity="1.000000"/>
  <path d="M1106.28 254.707 C1101.68 254.707 1097.94 250.976 1097.94 246.373 C1097.94 241.771 1101.68 238.04 1106.28 238.04 C1110.88 238.04 1114.61 241.771 1114.61 246.373 C1114.61 250.976 1110.88 254.707 1106.28 254.707 Z" fill="#4572a7" fill-opacity="1.000000"/>
  <path d="M1270.83 265.192 C1266.23 265.192 1262.5 261.461 1262.5 256.859 C1262.5 252.256 1266.23 248.525 1270.83 248.525 C1275.44 248.525 1279.17 252.256 1279.17 256.859 C1279.17 261.461 1275.44 265.192 1270.83 265.192 Z" fill="#4572a7" fill-opacity="1.000000"/>
  <path d="M1435.39 328.104 C1430.79 328.104 1427.06 324.373 1427.06 319.771 C1427.06 315.168 1430.79 311.437 1435.39 311.437 C1439.99 311.437 1443.72 315.168 1443.72 319.771 C1443.72 324.373 1439.99 328.104 1435.39 328.104 Z" fill="#4572a7" fill-opacity="1.000000"/>
  <path d="M1599.94 430.336 C1595.34 430.336 1591.61 426.605 1591.61 422.003 C1591.61 417.4 1595.34 413.669 1599.94 413.669 C1604.55 413.669 1608.28 417.4 1608.28 422.003 C1608.28 426.605 1604.55 430.336 1599.94 430.336 Z" fill="#4572a7" fill-opacity="1.000000"/>
  <path d="M1764.5 527.325 C1759.9 527.325 1756.17 523.594 1756.17 518.992 C1756.17 514.39 1759.9 510.659 1764.5 510.659 C1769.1 510.659 1772.83 514.39 1772.83 518.992 C1772.83 523.594 1769.1 527.325 1764.5 527.325 Z" fill="#4572a7" fill-opacity="1.000000"/>
  <path d="M1929.06 574.509 C1924.45 574.509 1920.72 570.778 1920.72 566.176 C1920.72 561.574 1924.45 557.843 1929.06 557.843 C1933.66 557.843 1937.39 561.574 1937.39 566.176 C1937.39 570.778 1933.66 574.509 1929.06 574.509 Z" fill="#4572a7" fill-opacity="1.000000"/>
  <text x="72.881944" y="550.434667" fill="#000000ff" font-size="36.666667" font-family="Arial,Helvetica,'Helvetica Neue',sans-serif" font-weight="500.000000">3.9°C</text>
  <text x="237.437500" y="542.570667" fill="#000000ff" font-size="36.666667" font-family="Arial,Helvetica,'Helvetica Neue',sans-serif" font-weight="500.000000">4.2°C</text>
  <text x="401.993056" y="503.250667" fill="#000000ff" font-size="36.666667" font-family="Arial,Helvetica,'Helvetica Neue',sans-serif" font-weight="500.000000">5.7°C</text>
  <text x="566.548611" y="429.853333" fill="#000000ff" font-size="36.666667" font-family="Arial,Helvetica,'Helvetica Neue',sans-serif" font-weight="500.000000">8.5°C</text>
  <text x="722.268229" y="340.728000" fill="#000000ff" font-size="36.666667" font-family="Arial,Helvetica,'Helvetica Neue',sans-serif" font-weight="500.000000">11.9°C</text>
  <text x="885.464410" y="254.224000" fill="#000000ff" font-size="36.666667" font-family="Arial,Helvetica,'Helvetica Neue',sans-serif" font-weight="500.000000">15.2°C</text>
  <text x="1050.019965" y="207.040000" fill="#000000ff" font-size="36.666667" font-family="Arial,Helvetica,'Helvetica Neue',sans-serif" font-weight="500.000000">17.0°C</text>
  <text x="1214.575521" y="217.525333" fill="#000000ff" font-size="36.666667" font-family="Arial,Helvetica,'Helvetica Neue',sans-serif" font-weight="500.000000">16.6°C</text>
  <text x="1379.131076" y="280.437333" fill="#000000ff" font-size="36.666667" font-family="Arial,Helvetica,'Helvetica Neue',sans-serif" font-weight="500.000000">14.2°C</text>
  <text x="1543.686632" y="382.669333" fill="#000000ff" font-size="36.666667" font-family="Arial,Helvetica,'Helvetica Neue',sans-serif" font-weight="500.000000">10.3°C</text>
  <text x="1718.437500" y="479.658667" fill="#000000ff" font-size="36.666667" font-family="Arial,Helvetica,'Helvetica Neue',sans-serif" font-weight="500.000000">6.6°C</text>
  <text x="1882.993056" y="526.842667" fill="#000000ff" font-size="36.666667" font-family="Arial,Helvetica,'Helvetica Neue',sans-serif" font-weight="500.000000">4.8°C</text>
  <text x="135.666667" y="114.666667" fill="#000000ff" font-size="36.666667" font-family="Arial,Helvetica,'Helvetica Neue',sans-serif" font-weight="500.000000">London - Average Temperature</text>
  <path d="M100.833 115.417 C93.2394 115.417 87.0833 109.261 87.0833 101.667 C87.0833 94.0728 93.2394 87.9167 100.833 87.9167 C108.427 87.9167 114.583 94.0728 114.583 101.667 C114.583 109.261 108.427 115.417 100.833 115.417 Z" fill="#4572a7" fill-opacity="1.000000"/>
</svg>