<?xml version="1.0" encoding="UTF-8" ?>
<!-- Generated by clip v0.6.0 (clip-lang.org) -->
<svg xmlns="http://www.w3.org/2000/svg" width="1600.000000" height="800.000000">
  <rect width="1600.000000" height="800.000000" fill="#ffffff" fill-opacity="1.000000"/>
  <path d="M36.6667 692 L1563.33 692 " fill="none" stroke-width="3.333333" stroke="#000000ff"/>
  <path d="M100.278 692 L100.278 678.667 " fill="none" stroke-width="3.333333" stroke="#000000ff"/>
  <path d="M227.5 692 L227.5 678.667 " fill="none" stroke-width="3.333333" stroke="#000000ff"/>
  <path d="M354.722 692 L354.722 678.667 " fill="none" stroke-width="3.333333" stroke="#000000ff"/>
  <path d="M481.944 692 L481.944 678.667 " fill="none" stroke-width="3.333333" stroke="#000000ff"/>
  <path d="M609.167 692 L609.167 678.667 " fill="none" stroke-width="3.333333" stroke="#000000ff"/>
  <path d="M736.389 692 L736.389 678.667 " fill="none" stroke-width="3.333333" stroke="#000000ff"/>
  <path d="M863.611 692 L863.611 678.667 " fill="none" stroke-width="3.333333" stroke="#000000ff"/>
  <path d="M990.833 692 L990.833 678.667 " fill="none" stroke-width="3.333333" stroke="#000000ff"/>
  <path d="M1118.06 692 L1118.06 678.667 " fill="none" stroke-width="3.333333" stroke="#000000ff"/>
  <path d="M1245.28 692 L1245.28 678.667 " fill="none" stroke-width="3.333333" stroke="#000000ff"/>
  <path d="M1372.5 692 L1372.5 678.667 " fill="none" stroke-width="3.333333" stroke="#000000ff"/>
  <path d="M1499.72 692 L1499.72 678.667 " fill="none" stroke-width="3.333333" stroke="#000000ff"/>
  <text x="70.715278" y="755.333333" fill="#000000ff" font-size="36.666667" font-family="Arial,Helvetica,'Helvetica Neue',sans-serif" font-weight="500.000000">Jan</text>
  <text x="195.906250" y="755.333333" fill="#000000ff" font-size="36.666667" font-family="Arial,Helvetica,'Helvetica Neue',sans-serif" font-weight="500.000000">Feb</text>
  <text x="323.144097" y="755.333333" fill="#000000ff" font-size="36.666667" font-family="Arial,Helvetica,'Helvetica Neue',sans-serif" font-weight="500.000000">Mar</text>
  <text x="453.413194" y="755.333333" fill="#000000ff" font-size="36.666667" font-family="Arial,Helvetica,'Helvetica Neue',sans-serif" font-weight="500.000000">Apr</text>
  <text x="574.526042" y="755.333333" fill="#000000ff" font-size="36.666667" font-family="Arial,Helvetica,'Helvetica Neue',sans-serif" font-weight="500.000000">May</text>
  <text x="706.826389" y="755.333333" fill="#000000ff" font-size="36.666667" font-family="Arial,Helvetica,'Helvetica Neue',sans-serif" font-weight="500.000000">Jun</text>
  <text x="840.173611" y="755.333333" fill="#000000ff" font-size="36.666667" font-family="Arial,Helvetica,'Helvetica Neue',sans-serif" font-weight="500.000000">Jul</text>
  <text x="958.216146" y="755.333333" fill="#000000ff" font-size="36.666667" font-family="Arial,Helvetica,'Helvetica Neue',sans-serif" font-weight="500.000000">Aug</text>
  <text x="1085.438368" y="755.333333" fill="#000000ff" font-size="36.666667" font-family="Arial,Helvetica,'Helvetica Neue',sans-serif" font-weight="500.000000">Sep</text>
  <text x="1216.746528" y="755.333333" fill="#000000ff" font-size="36.666667" font-family="Arial,Helvetica,'Helvetica Neue',sans-serif" font-weight="500.000000">Oct</text>
  <text x="1339.890625" y="755.333333" fill="#000000ff" font-size="36.666667" font-family="Arial,Helvetica,'Helvetica Neue',sans-serif" font-weight="500.000000">Nov</text>
  <text x="1467.112847" y="755.333333" fill="#000000ff" font-size="36.666667" font-family="Arial,Helvetica,'Helvetica Neue',sans-serif" font-weight="500.000000">Dec</text>
  <path d="M100.278 589.768 L227.5 581.904 L354.722 542.584 L481.944 469.187 L609.167 380.061 L736.389 293.557 L863.611 246.373 L990.833 256.859 L1118.06 319.771 L1245.28 422.003 L1372.5 518.992 L1499.72 566.176 " fill="none" stroke-width="5.000000" stroke="#4572a7ff"/>
  <path d="M100.278 598.101 C95.6754 598.101 91.9444 594.37 91.9444 589.768 C91.9444 585.166 95.6754 581.435 100.278 581.435 C104.88 581.435 108.611 585.166 108.611 589.768 C108.611 594.37 104.88 598.101 100.278 598.101 Z" fill="#4572a7" fill-opacity="1.000000"/>
  <path d="M227.5 590.237 C222.898 590.237 219.167 586.506 219.167 581.904 C219.167 577.302 222.898 573.571 227.5 573.571 C232.102 573.571 235.833 577.302 235.833 581.904 C235.833 586.506 232.102 590.237 227.5 590.237 Z" fill="#4572a7" fill-opacity="1.000000"/>
  <path d="M354.722 550.917 C350.12 550.917 346.389 547.186 346.389 542.584 C346.389 537.982 350.12 534.251 354.722 534.251 C359.325 534.251 363.056 537.982 363.056 542.584 C363.056 547.186 359.325 550.917 354.722 550.917 Z" fill="#4572a7" fill-opacity="1.000000"/>
  <path d="M481.944 477.52 C477.342 477.52 473.611 473.789 473.611 469.187 C473.611 464.584 477.342 460.853 481.944 460.853 C486.547 460.853 490.278 464.584 490.278 469.187 C490.278 473.789 486.547 477.52 481.944 477.52 Z" fill="#4572a7" fill-opacity="1.000000"/>
  <path d="M609.167 388.395 C604.564 388.395 600.833 384.664 600.833 380.061 C600.833 375.459 604.564 371.728 609.167 371.728 C613.769 371.728 617.5 375.459 617.5 380.061 C617.5 384.664 613.769 388.395 609.167 388.395 Z" fill="#4572a7" fill-opacity="1.000000"/>
  <path d="M736.389 301.891 C731.787 301.891 728.056 298.16 728.056 293.557 C728.056 288.955 731.787 285.224 736.389 285.224 C740.991 285.224 744.722 288.955 744.722 293.557 C744.722 298.16 740.991 301.891 736.389 301.891 Z" fill="#4572a7" fill-opacity="1.000000"/>
  <path d="M863.611 254.707 C859.009 254.707 855.278 250.976 855.278 246.373 C855.278 241.771 859.009 238.04 863.611 238.04 C868.213 238.04 871.944 241.771 871.944 246.373 C871.944 250.976 868.213 254.707 863.611 254.707 Z" fill="#4572a7" fill-opacity="1.000000"/>
  <path d="M990.833 265.192 C986.231 265.192 982.5 261.461 982.5 256.859 C982.5 252.256 986.231 248.525 990.833 248.525 C995.436 248.525 999.167 252.256 999.167 256.859 C999.167 261.461 995.436 265.192 990.833 265.192 Z" fill="#4572a7" fill-opacity="1.000000"/>
  <path d="M1118.06 328.104 C1113.45 328.104 1109.72 324.373 1109.72 319.771 C1109.72 315.168 1113.45 311.437 1118.06 311.437 C1122.66 311.437 1126.39 315.168 1126.39 319.771 C1126.39 324.373 1122.66 328.104 1118.06 328.104 Z" fill="#4572a7" fill-opacity="1.000000"/>
  <path d="M1245.28 430.336 C1240.68 430.336 1236.94 426.605 1236.94 422.003 C1236.94 417.4 1240.68 413.669 1245.28 413.669 C1249.88 413.669 1253.61 417.4 1253.61 422.003 C1253.61 426.605 1249.88 430.336 1245.28 430.336 Z" fill="#4572a7" fill-opacity="1.000000"/>
  <path d="M1372.5 527.325 C1367.9 527.325 1364.17 523.594 1364.17 518.992 C1364.17 514.39 1367.9 510.659 1372.5 510.659 C1377.1 510.659 1380.83 514.39 1380.83 518.992 C1380.83 523.594 1377.1 527.325 1372.5 527.325 Z" fill="#4572a7" fill-opacity="1.000000"/>
  <path d="M1499.72 574.509 C1495.12 574.509 1491.39 570.778 1491.39 566.176 C1491.39 561.574 1495.12 557.843 1499.72 557.843 C1504.32 557.843 1508.06 561.574 1508.06 566.176 C1508.06 570.778 1504.32 574.509 1499.72 574.509 Z" fill="#4572a7" fill-opacity="1.000000"/>
  <text x="58.418403" y="551.768000" fill="#000000ff" font-size="33.333333" font-family="Arial,Helvetica,'Helvetica Neue',sans-serif" font-weight="500.000000">3.9°C</text>
  <text x="185.640625" y="543.904000" fill="#000000ff" font-size="33.333333" font-family="Arial,Helvetica,'Helvetica Neue',sans-serif" font-weight="500.000000">4.2°C</text>
  <text x="312.862847" y="504.584000" fill="#000000ff" font-size="33.333333" font-family="Arial,Helvetica,'Helvetica Neue',sans-serif" font-weight="500.000000">5.7°C</text>
  <text x="440.085069" y="431.186667" fill="#000000ff" font-size="33.333333" font-family="Arial,Helvetica,'Helvetica Neue',sans-serif" font-weight="500.000000">8.5°C</text>
  <text x="559.276042" y="342.061333" fill="#000000ff" font-size="33.333333" font-family="Arial,Helvetica,'Helvetica Neue',sans-serif" font-weight="500.000000">11.9°C</text>
  <text x="685.263889" y="255.557333" fill="#000000ff" font-size="33.333333" font-family="Arial,Helvetica,'Helvetica Neue',sans-serif" font-weight="500.000000">15.2°C</text>
  <text x="812.486111" y="208.373333" fill="#000000ff" font-size="33.333333" font-family="Arial,Helvetica,'Helvetica Neue',sans-serif" font-weight="500.000000">17.0°C</text>
  <text x="939.708333" y="218.858667" fill="#000000ff" font-size="33.333333" font-family="Arial,Helvetica,'Helvetica Neue',sans-serif" font-weight="500.000000">16.6°C</text>
  <text x="1066.930556" y="281.770667" fill="#000000ff" font-size="33.333333" font-family="Arial,Helvetica,'Helvetica Neue',sans-serif" font-weight="500.000000">14.2°C</text>
  <text x="1194.152778" y="384.002667" fill="#000000ff" font-size="33.333333" font-family="Arial,Helvetica,'Helvetica Neue',sans-serif" font-weight="500.000000">10.3°C</text>
  <text x="1330.640625" y="480.992000" fill="#000000ff" font-size="33.333333" font-family="Arial,Helvetica,'Helvetica Neue',sans-serif" font-weight="500.000000">6.6°C</text>
  <text x="1457.862847" y="528.176000" fill="#000000ff" font-size="33.333333" font-family="Arial,Helvetica,'Helvetica Neue',sans-serif" font-weight="500.000000">4.8°C</text>
  <text x="135.666667" y="114.666667" fill="#000000ff" font-size="36.666667" font-family="Arial,Helvetica,'Helvetica Neue',sans-serif" font-weight="500.000000">London - Average Temperature</text>
  <path d="M100.833 115.417 C93.2394 115.417 87.0833 109.261 87.0833 101.667 C87.0833 94.0728 93.2394 87.9167 100.833 87.9167 C108.427 87.9167 114.583 94.0728 114.583 101.667 C114.583 109.261 108.427 115.417 100.833 115.417 Z" fill="#4572a7" fill-opacity="1.000000"/>
</svg>