<?xml version="1.0" encoding="UTF-8" ?>
<!-- Generated by clip v0.6.0 (clip-lang.org) -->
<svg xmlns="http://www.w3.org/2000/svg" width="1600.000000" height="800.000000">
  <rect width="1600.000000" height="800.000000" fill="#ffffff" fill-opacity="1.000000"/>
  <path d="M137.359 692 L1563.33 692 " fill="none" stroke-width="3.333333" stroke="#000000ff"/>
  <path d="M137.359 692 L137.359 678.667 " fill="none" stroke-width="3.333333" stroke="#000000ff"/>
  <path d="M279.957 692 L279.957 678.667 " fill="none" stroke-width="3.333333" stroke="#000000ff"/>
  <path d="M422.554 692 L422.554 678.667 " fill="none" stroke-width="3.333333" stroke="#000000ff"/>
  <path d="M565.152 692 L565.152 678.667 " fill="none" stroke-width="3.333333" stroke="#000000ff"/>
  <path d="M707.749 692 L707.749 678.667 " fill="none" stroke-width="3.333333" stroke="#000000ff"/>
  <path d="M850.346 692 L850.346 678.667 " fill="none" stroke-width="3.333333" stroke="#000000ff"/>
  <path d="M992.944 692 L992.944 678.667 " fill="none" stroke-width="3.333333" stroke="#000000ff"/>
  <path d="M1135.54 692 L1135.54 678.667 " fill="none" stroke-width="3.333333" stroke="#000000ff"/>
  <path d="M1278.14 692 L1278.14 678.667 " fill="none" stroke-width="3.333333" stroke="#000000ff"/>
  <path d="M1420.74 692 L1420.74 678.667 " fill="none" stroke-width="3.333333" stroke="#000000ff"/>
  <path d="M1563.33 692 L1563.33 678.667 " fill="none" stroke-width="3.333333" stroke="#000000ff"/>
  <text x="111.875000" y="755.333333" fill="#000000ff" font-size="36.666667" font-family="Arial,Helvetica,'Helvetica Neue',sans-serif" font-weight="500.000000">0.0</text>
  <text x="244.277085" y="755.333333" fill="#000000ff" font-size="36.666667" font-family="Arial,Helvetica,'Helvetica Neue',sans-serif" font-weight="500.000000">10.0</text>
  <text x="386.874483" y="755.333333" fill="#000000ff" font-size="36.666667" font-family="Arial,Helvetica,'Helvetica Neue',sans-serif" font-weight="500.000000">20.0</text>
  <text x="529.471892" y="755.333333" fill="#000000ff" font-size="36.666667" font-family="Arial,Helvetica,'Helvetica Neue',sans-serif" font-weight="500.000000">30.0</text>
  <text x="672.069279" y="755.333333" fill="#000000ff" font-size="36.666667" font-family="Arial,Helvetica,'Helvetica Neue',sans-serif" font-weight="500.000000">40.0</text>
  <text x="814.666667" y="755.333333" fill="#000000ff" font-size="36.666667" font-family="Arial,Helvetica,'Helvetica Neue',sans-serif" font-weight="500.000000">50.0</text>
  <text x="957.264096" y="755.333333" fill="#000000ff" font-size="36.666667" font-family="Arial,Helvetica,'Helvetica Neue',sans-serif" font-weight="500.000000">60.0</text>
  <text x="1099.861441" y="755.333333" fill="#000000ff" font-size="36.666667" font-family="Arial,Helvetica,'Helvetica Neue',sans-serif" font-weight="500.000000">70.0</text>
  <text x="1242.458871" y="755.333333" fill="#000000ff" font-size="36.666667" font-family="Arial,Helvetica,'Helvetica Neue',sans-serif" font-weight="500.000000">80.0</text>
  <text x="1385.056301" y="755.333333" fill="#000000ff" font-size="36.666667" font-family="Arial,Helvetica,'Helvetica Neue',sans-serif" font-weight="500.000000">90.0</text>
  <text x="1517.458333" y="755.333333" fill="#000000ff" font-size="36.666667" font-family="Arial,Helvetica,'Helvetica Neue',sans-serif" font-weight="500.000000">100.0</text>
  <text x="137.359375" y="632.185185" fill="#666666ff" font-size="36.666667" font-family="Arial,Helvetica,'Helvetica Neue',sans-serif" font-weight="500.000000">10.0</text>
  <text x="137.359375" y="559.370370" fill="#666666ff" font-size="36.666667" font-family="Arial,Helvetica,'Helvetica Neue',sans-serif" font-weight="500.000000">20.0</text>
  <text x="137.359375" y="486.555556" fill="#666666ff" font-size="36.666667" font-family="Arial,Helvetica,'Helvetica Neue',sans-serif" font-weight="500.000000">30.0</text>
  <text x="137.359375" y="413.740741" fill="#666666ff" font-size="36.666667" font-family="Arial,Helvetica,'Helvetica Neue',sans-serif" font-weight="500.000000">40.0</text>
  <text x="137.359375" y="340.925926" fill="#666666ff" font-size="36.666667" font-family="Arial,Helvetica,'Helvetica Neue',sans-serif" font-weight="500.000000">50.0</text>
  <text x="137.359375" y="268.111111" fill="#666666ff" font-size="36.666667" font-family="Arial,Helvetica,'Helvetica Neue',sans-serif" font-weight="500.000000">60.0</text>
  <text x="137.359375" y="195.296296" fill="#666666ff" font-size="36.666667" font-family="Arial,Helvetica,'Helvetica Neue',sans-serif" font-weight="500.000000">70.0</text>
  <text x="137.359375" y="122.481481" fill="#666666ff" font-size="36.666667" font-family="Arial,Helvetica,'Helvetica Neue',sans-serif" font-weight="500.000000">80.0</text>
  <path d="M137.359 109.481 L1563.33 109.481 " fill="none" stroke-width="3.333333" stroke="#00000019"/>
  <path d="M137.359 182.296 L1563.33 182.296 " fill="none" stroke-width="3.333333" stroke="#00000019"/>
  <path d="M137.359 255.111 L1563.33 255.111 " fill="none" stroke-width="3.333333" stroke="#00000019"/>
  <path d="M137.359 327.926 L1563.33 327.926 " fill="none" stroke-width="3.333333" stroke="#00000019"/>
  <path d="M137.359 400.741 L1563.33 400.741 " fill="none" stroke-width="3.333333" stroke="#00000019"/>
  <path d="M137.359 473.556 L1563.33 473.556 " fill="none" stroke-width="3.333333" stroke="#00000019"/>
  <path d="M137.359 546.37 L1563.33 546.37 " fill="none" stroke-width="3.333333" stroke="#00000019"/>
  <path d="M137.359 619.185 L1563.33 619.185 " fill="none" stroke-width="3.333333" stroke="#00000019"/>
  <path d="M208.658 641.03 L279.957 597.341 L422.554 568.215 L565.152 495.4 L707.749 415.304 L850.346 408.022 L992.944 313.363 L1135.54 262.393 L1278.14 342.489 L1420.74 255.111 L1563.33 218.704 L1563.33 692 L1420.74 692 L1278.14 692 L1135.54 692 L992.944 692 L850.346 692 L707.749 692 L565.152 692 L422.554 692 L279.957 692 L208.658 692 Z" fill="#80699b" fill-opacity="1.000000"/>
  <path d="M208.658 641.03 L279.957 597.341 L422.554 568.215 L565.152 495.4 L707.749 415.304 L850.346 408.022 L992.944 313.363 L1135.54 262.393 L1278.14 342.489 L1420.74 255.111 L1563.33 218.704 " fill="none" stroke-width="2.000000" stroke="#0000007f"/>
  <path d="M1563.33 692 L1420.74 692 L1278.14 692 L1135.54 692 L992.944 692 L850.346 692 L707.749 692 L565.152 692 L422.554 692 L279.957 692 L208.658 692 " fill="none" stroke-width="2.000000" stroke="#0000007f"/>
  <path d="M208.658 662.874 L279.957 604.622 L422.554 582.778 L565.152 531.807 L707.749 437.148 L850.346 415.304 L992.944 349.77 L1135.54 349.77 L1278.14 386.178 L1420.74 306.081 L1563.33 255.111 L1563.33 692 L1420.74 692 L1278.14 692 L1135.54 692 L992.944 692 L850.346 692 L707.749 692 L565.152 692 L422.554 692 L279.957 692 L208.658 692 Z" fill="#89a54e" fill-opacity="1.000000"/>
  <path d="M208.658 662.874 L279.957 604.622 L422.554 582.778 L565.152 531.807 L707.749 437.148 L850.346 415.304 L992.944 349.77 L1135.54 349.77 L1278.14 386.178 L1420.74 306.081 L1563.33 255.111 " fill="none" stroke-width="2.000000" stroke="#00000066"/>
  <path d="M1563.33 692 L1420.74 692 L1278.14 692 L1135.54 692 L992.944 692 L850.346 692 L707.749 692 L565.152 692 L422.554 692 L279.957 692 L208.658 692 " fill="none" stroke-width="2.000000" stroke="#00000066"/>
  <path d="M208.658 670.156 L279.957 619.185 L422.554 619.185 L565.152 560.933 L707.749 458.993 L850.346 444.43 L992.944 386.178 L1135.54 400.741 L1278.14 429.867 L1420.74 357.052 L1563.33 298.8 L1563.33 692 L1420.74 692 L1278.14 692 L1135.54 692 L992.944 692 L850.346 692 L707.749 692 L565.152 692 L422.554 692 L279.957 692 L208.658 692 Z" fill="#db843d" fill-opacity="1.000000"/>
  <path d="M208.658 670.156 L279.957 619.185 L422.554 619.185 L565.152 560.933 L707.749 458.993 L850.346 444.43 L992.944 386.178 L1135.54 400.741 L1278.14 429.867 L1420.74 357.052 L1563.33 298.8 " fill="none" stroke-width="2.000000" stroke="#0000007f"/>
  <path d="M1563.33 692 L1420.74 692 L1278.14 692 L1135.54 692 L992.944 692 L850.346 692 L707.749 692 L565.152 692 L422.554 692 L279.957 692 L208.658 692 " fill="none" stroke-width="2.000000" stroke="#0000007f"/>
  <path d="M208.658 677.437 L279.957 648.311 L422.554 648.311 L565.152 633.748 L707.749 560.933 L850.346 546.37 L992.944 473.556 L1135.54 473.556 L1278.14 473.556 L1420.74 429.867 L1563.33 437.148 L1563.33 692 L1420.74 692 L1278.14 692 L1135.54 692 L992.944 692 L850.346 692 L707.749 692 L565.152 692 L422.554 692 L279.957 692 L208.658 692 Z" fill="#aa4643" fill-opacity="1.000000"/>
  <path d="M208.658 677.437 L279.957 648.311 L422.554 648.311 L565.152 633.748 L707.749 560.933 L850.346 546.37 L992.944 473.556 L1135.54 473.556 L1278.14 473.556 L1420.74 429.867 L1563.33 437.148 " fill="none" stroke-width="2.000000" stroke="#0000007f"/>
  <path d="M1563.33 692 L1420.74 692 L1278.14 692 L1135.54 692 L992.944 692 L850.346 692 L707.749 692 L565.152 692 L422.554 692 L279.957 692 L208.658 692 " fill="none" stroke-width="2.000000" stroke="#0000007f"/>
  <path d="M208.658 684.719 L279.957 677.437 L422.554 662.874 L565.152 641.03 L707.749 597.341 L850.346 582.778 L992.944 546.37 L1135.54 575.496 L1278.14 560.933 L1420.74 524.526 L1563.33 560.933 L1563.33 692 L1420.74 692 L1278.14 692 L1135.54 692 L992.944 692 L850.346 692 L707.749 692 L565.152 692 L422.554 692 L279.957 692 L208.658 692 Z" fill="#4572a7" fill-opacity="1.000000"/>
  <path d="M208.658 684.719 L279.957 677.437 L422.554 662.874 L565.152 641.03 L707.749 597.341 L850.346 582.778 L992.944 546.37 L1135.54 575.496 L1278.14 560.933 L1420.74 524.526 L1563.33 560.933 " fill="none" stroke-width="2.000000" stroke="#0000007f"/>
  <path d="M1563.33 692 L1420.74 692 L1278.14 692 L1135.54 692 L992.944 692 L850.346 692 L707.749 692 L565.152 692 L422.554 692 L279.957 692 L208.658 692 " fill="none" stroke-width="2.000000" stroke="#0000007f"/>
  <text x="501.729167" y="70.666667" fill="#000000ff" font-size="36.666667" font-family="Arial,Helvetica,'Helvetica Neue',sans-serif" font-weight="500.000000">Series A</text>
  <path d="M466.896 71.4167 C459.302 71.4167 453.146 65.2606 453.146 57.6667 C453.146 50.0728 459.302 43.9167 466.896 43.9167 C474.49 43.9167 480.646 50.0728 480.646 57.6667 C480.646 65.2606 474.49 71.4167 466.896 71.4167 Z" fill="#4572a7" fill-opacity="1.000000"/>
  <text x="729.958333" y="70.666667" fill="#000000ff" font-size="36.666667" font-family="Arial,Helvetica,'Helvetica Neue',sans-serif" font-weight="500.000000">Series B</text>
  <path d="M695.125 71.4167 C687.531 71.4167 681.375 65.2606 681.375 57.6667 C681.375 50.0728 687.531 43.9167 695.125 43.9167 C702.719 43.9167 708.875 50.0728 708.875 57.6667 C708.875 65.2606 702.719 71.4167 695.125 71.4167 Z" fill="#aa4643" fill-opacity="1.000000"/>
  <text x="960.203125" y="70.666667" fill="#000000ff" font-size="36.666667" font-family="Arial,Helvetica,'Helvetica Neue',sans-serif" font-weight="500.000000">Series C</text>
  <path d="M925.37 71.4167 C917.776 71.4167 911.62 65.2606 911.62 57.6667 C911.62 50.0728 917.776 43.9167 925.37 43.9167 C932.964 43.9167 939.12 50.0728 939.12 57.6667 C939.12 65.2606 932.964 71.4167 925.37 71.4167 Z" fill="#db843d" fill-opacity="1.000000"/>
  <text x="1192.479167" y="70.666667" fill="#000000ff" font-size="36.666667" font-family="Arial,Helvetica,'Helvetica Neue',sans-serif" font-weight="500.000000">Series D</text>
  <path d="M1157.65 71.4167 C1150.05 71.4167 1143.9 65.2606 1143.9 57.6667 C1143.9 50.0728 1150.05 43.9167 1157.65 43.9167 C1165.24 43.9167 1171.4 50.0728 1171.4 57.6667 C1171.4 65.2606 1165.24 71.4167 1157.65 71.4167 Z" fill="#89a54e" fill-opacity="1.000000"/>
  <text x="1424.755208" y="70.666667" fill="#000000ff" font-size="36.666667" font-family="Arial,Helvetica,'Helvetica Neue',sans-serif" font-weight="500.000000">Series E</text>
  <path d="M1389.92 71.4167 C1382.33 71.4167 1376.17 65.2606 1376.17 57.6667 C1376.17 50.0728 1382.33 43.9167 1389.92 43.9167 C1397.52 43.9167 1403.67 50.0728 1403.67 57.6667 C1403.67 65.2606 1397.52 71.4167 1389.92 71.4167 Z" fill="#80699b" fill-opacity="1.000000"/>
</svg>