<?xml version="1.0" encoding="UTF-8" ?>
<!-- Generated by clip v0.6.0 (clip-lang.org) -->
<svg xmlns="http://www.w3.org/2000/svg" width="1600.000000" height="800.000000">
  <rect width="1600.000000" height="800.000000" fill="#ffffff" fill-opacity="1.000000"/>
  <path d="M36.6667 692 L1563.33 692 " fill="none" stroke-width="3.333333" stroke="#000000ff"/>
  <path d="M73.0159 692 L73.0159 678.667 " fill="none" stroke-width="3.333333" stroke="#000000ff"/>
  <path d="M218.413 692 L218.413 678.667 " fill="none" stroke-width="3.333333" stroke="#000000ff"/>
  <path d="M363.81 692 L363.81 678.667 " fill="none" stroke-width="3.333333" stroke="#000000ff"/>
  <path d="M509.206 692 L509.206 678.667 " fill="none" stroke-width="3.333333" stroke="#000000ff"/>
  <path d="M654.603 692 L654.603 678.667 " fill="none" stroke-width="3.333333" stroke="#000000ff"/>
  <path d="M800 692 L800 678.667 " fill="none" stroke-width="3.333333" stroke="#000000ff"/>
  <path d="M945.397 692 L945.397 678.667 " fill="none" stroke-width="3.333333" stroke="#000000ff"/>
  <path d="M1090.79 692 L1090.79 678.667 " fill="none" stroke-width="3.333333" stroke="#000000ff"/>
  <path d="M1236.19 692 L1236.19 678.667 " fill="none" stroke-width="3.333333" stroke="#000000ff"/>
  <path d="M1381.59 692 L1381.59 678.667 " fill="none" stroke-width="3.333333" stroke="#000000ff"/>
  <path d="M1526.98 692 L1526.98 678.667 " fill="none" stroke-width="3.333333" stroke="#000000ff"/>
  <text x="47.531498" y="755.333333" fill="#000000ff" font-size="36.666667" font-family="Arial,Helvetica,'Helvetica Neue',sans-serif" font-weight="500.000000">0.0</text>
  <text x="192.928323" y="755.333333" fill="#000000ff" font-size="36.666667" font-family="Arial,Helvetica,'Helvetica Neue',sans-serif" font-weight="500.000000">0.2</text>
  <text x="338.325149" y="755.333333" fill="#000000ff" font-size="36.666667" font-family="Arial,Helvetica,'Helvetica Neue',sans-serif" font-weight="500.000000">0.4</text>
  <text x="483.721974" y="755.333333" fill="#000000ff" font-size="36.666667" font-family="Arial,Helvetica,'Helvetica Neue',sans-serif" font-weight="500.000000">0.6</text>
  <text x="629.118800" y="755.333333" fill="#000000ff" font-size="36.666667" font-family="Arial,Helvetica,'Helvetica Neue',sans-serif" font-weight="500.000000">0.8</text>
  <text x="774.515625" y="755.333333" fill="#000000ff" font-size="36.666667" font-family="Arial,Helvetica,'Helvetica Neue',sans-serif" font-weight="500.000000">1.0</text>
  <text x="919.912450" y="755.333333" fill="#000000ff" font-size="36.666667" font-family="Arial,Helvetica,'Helvetica Neue',sans-serif" font-weight="500.000000">1.2</text>
  <text x="1065.309276" y="755.333333" fill="#000000ff" font-size="36.666667" font-family="Arial,Helvetica,'Helvetica Neue',sans-serif" font-weight="500.000000">1.4</text>
  <text x="1210.706101" y="755.333333" fill="#000000ff" font-size="36.666667" font-family="Arial,Helvetica,'Helvetica Neue',sans-serif" font-weight="500.000000">1.6</text>
  <text x="1356.102927" y="755.333333" fill="#000000ff" font-size="36.666667" font-family="Arial,Helvetica,'Helvetica Neue',sans-serif" font-weight="500.000000">1.8</text>
  <text x="1501.499752" y="755.333333" fill="#000000ff" font-size="36.666667" font-family="Arial,Helvetica,'Helvetica Neue',sans-serif" font-weight="500.000000">2.0</text>
  <path d="M59.2659 692 L59.2659 613.98 L86.7659 613.98 L86.7659 692 Z" fill="#9fc3f5" fill-opacity="1.000000"/>
  <path d="M91.576 692 L91.576 615.932 L119.076 615.932 L119.076 692 Z" fill="#9fc3f5" fill-opacity="1.000000"/>
  <path d="M123.887 692 L123.887 616.531 L151.387 616.531 L151.387 692 Z" fill="#9fc3f5" fill-opacity="1.000000"/>
  <path d="M156.197 692 L156.197 615.771 L183.697 615.771 L183.697 692 Z" fill="#9fc3f5" fill-opacity="1.000000"/>
  <path d="M188.508 692 L188.508 613.653 L216.008 613.653 L216.008 692 Z" fill="#9fc3f5" fill-opacity="1.000000"/>
  <path d="M220.818 692 L220.818 610.188 L248.318 610.188 L248.318 692 Z" fill="#9fc3f5" fill-opacity="1.000000"/>
  <path d="M253.129 692 L253.129 605.391 L280.629 605.391 L280.629 692 Z" fill="#9fc3f5" fill-opacity="1.000000"/>
  <path d="M285.439 692 L285.439 599.287 L312.939 599.287 L312.939 692 Z" fill="#9fc3f5" fill-opacity="1.000000"/>
  <path d="M317.749 692 L317.749 591.908 L345.249 591.908 L345.249 692 Z" fill="#9fc3f5" fill-opacity="1.000000"/>
  <path d="M350.06 692 L350.06 583.291 L377.56 583.291 L377.56 692 Z" fill="#9fc3f5" fill-opacity="1.000000"/>
  <path d="M382.37 692 L382.37 573.484 L409.87 573.484 L409.87 692 Z" fill="#9fc3f5" fill-opacity="1.000000"/>
  <path d="M414.68 692 L414.68 562.537 L442.18 562.537 L442.18 692 Z" fill="#9fc3f5" fill-opacity="1.000000"/>
  <path d="M446.99 692 L446.99 550.509 L474.49 550.509 L474.49 692 Z" fill="#9fc3f5" fill-opacity="1.000000"/>
  <path d="M479.301 692 L479.301 537.465 L506.801 537.465 L506.801 692 Z" fill="#9fc3f5" fill-opacity="1.000000"/>
  <path d="M511.611 692 L511.611 523.474 L539.111 523.474 L539.111 692 Z" fill="#9fc3f5" fill-opacity="1.000000"/>
  <path d="M543.922 692 L543.922 508.612 L571.422 508.612 L571.422 692 Z" fill="#9fc3f5" fill-opacity="1.000000"/>
  <path d="M576.232 692 L576.232 492.959 L603.732 492.959 L603.732 692 Z" fill="#9fc3f5" fill-opacity="1.000000"/>
  <path d="M608.543 692 L608.543 476.598 L636.043 476.598 L636.043 692 Z" fill="#9fc3f5" fill-opacity="1.000000"/>
  <path d="M640.853 692 L640.853 459.618 L668.353 459.618 L668.353 692 Z" fill="#9fc3f5" fill-opacity="1.000000"/>
  <path d="M673.163 692 L673.163 442.111 L700.663 442.111 L700.663 692 Z" fill="#9fc3f5" fill-opacity="1.000000"/>
  <path d="M705.474 692 L705.474 424.169 L732.974 424.169 L732.974 692 Z" fill="#9fc3f5" fill-opacity="1.000000"/>
  <path d="M737.784 692 L737.784 405.889 L765.284 405.889 L765.284 692 Z" fill="#9fc3f5" fill-opacity="1.000000"/>
  <path d="M770.095 692 L770.095 387.369 L797.595 387.369 L797.595 692 Z" fill="#9fc3f5" fill-opacity="1.000000"/>
  <path d="M802.405 692 L802.405 368.708 L829.905 368.708 L829.905 692 Z" fill="#9fc3f5" fill-opacity="1.000000"/>
  <path d="M834.716 692 L834.716 350.004 L862.216 350.004 L862.216 692 Z" fill="#9fc3f5" fill-opacity="1.000000"/>
  <path d="M867.026 692 L867.026 331.357 L894.526 331.357 L894.526 692 Z" fill="#9fc3f5" fill-opacity="1.000000"/>
  <path d="M899.337 692 L899.337 312.866 L926.837 312.866 L926.837 692 Z" fill="#9fc3f5" fill-opacity="1.000000"/>
  <path d="M931.647 692 L931.647 294.627 L959.147 294.627 L959.147 692 Z" fill="#9fc3f5" fill-opacity="1.000000"/>
  <path d="M963.957 692 L963.957 276.735 L991.457 276.735 L991.457 692 Z" fill="#9fc3f5" fill-opacity="1.000000"/>
  <path d="M996.268 692 L996.268 259.285 L1023.77 259.285 L1023.77 692 Z" fill="#9fc3f5" fill-opacity="1.000000"/>
  <path d="M1028.58 692 L1028.58 242.367 L1056.08 242.367 L1056.08 692 Z" fill="#9fc3f5" fill-opacity="1.000000"/>
  <path d="M1060.89 692 L1060.89 226.066 L1088.39 226.066 L1088.39 692 Z" fill="#9fc3f5" fill-opacity="1.000000"/>
  <path d="M1093.2 692 L1093.2 210.467 L1120.7 210.467 L1120.7 692 Z" fill="#9fc3f5" fill-opacity="1.000000"/>
  <path d="M1125.51 692 L1125.51 195.647 L1153.01 195.647 L1153.01 692 Z" fill="#9fc3f5" fill-opacity="1.000000"/>
  <path d="M1157.82 692 L1157.82 181.682 L1185.32 181.682 L1185.32 692 Z" fill="#9fc3f5" fill-opacity="1.000000"/>
  <path d="M1190.13 692 L1190.13 168.64 L1217.63 168.64 L1217.63 692 Z" fill="#9fc3f5" fill-opacity="1.000000"/>
  <path d="M1222.44 692 L1222.44 156.585 L1249.94 156.585 L1249.94 692 Z" fill="#9fc3f5" fill-opacity="1.000000"/>
  <path d="M1254.75 692 L1254.75 145.574 L1282.25 145.574 L1282.25 692 Z" fill="#9fc3f5" fill-opacity="1.000000"/>
  <path d="M1287.06 692 L1287.06 135.659 L1314.56 135.659 L1314.56 692 Z" fill="#9fc3f5" fill-opacity="1.000000"/>
  <path d="M1319.37 692 L1319.37 126.886 L1346.87 126.886 L1346.87 692 Z" fill="#9fc3f5" fill-opacity="1.000000"/>
  <path d="M1351.68 692 L1351.68 119.293 L1379.18 119.293 L1379.18 692 Z" fill="#9fc3f5" fill-opacity="1.000000"/>
  <path d="M1383.99 692 L1383.99 112.912 L1411.49 112.912 L1411.49 692 Z" fill="#9fc3f5" fill-opacity="1.000000"/>
  <path d="M1416.3 692 L1416.3 107.769 L1443.8 107.769 L1443.8 692 Z" fill="#9fc3f5" fill-opacity="1.000000"/>
  <path d="M1448.61 692 L1448.61 103.883 L1476.11 103.883 L1476.11 692 Z" fill="#9fc3f5" fill-opacity="1.000000"/>
  <path d="M1480.92 692 L1480.92 101.263 L1508.42 101.263 L1508.42 692 Z" fill="#9fc3f5" fill-opacity="1.000000"/>
  <path d="M1513.23 692 L1513.23 99.9164 L1540.73 99.9164 L1540.73 692 Z" fill="#9fc3f5" fill-opacity="1.000000"/>
  <path d="M59.2659 692 L59.2659 639.497 L86.7659 639.497 L86.7659 692 Z" fill="#88ade0" fill-opacity="1.000000"/>
  <path d="M91.576 692 L91.576 640.771 L119.076 640.771 L119.076 692 Z" fill="#88ade0" fill-opacity="1.000000"/>
  <path d="M123.887 692 L123.887 640.998 L151.387 640.998 L151.387 692 Z" fill="#88ade0" fill-opacity="1.000000"/>
  <path d="M156.197 692 L156.197 640.173 L183.697 640.173 L183.697 692 Z" fill="#88ade0" fill-opacity="1.000000"/>
  <path d="M188.508 692 L188.508 638.298 L216.008 638.298 L216.008 692 Z" fill="#88ade0" fill-opacity="1.000000"/>
  <path d="M220.818 692 L220.818 635.382 L248.318 635.382 L248.318 692 Z" fill="#88ade0" fill-opacity="1.000000"/>
  <path d="M253.129 692 L253.129 631.438 L280.629 631.438 L280.629 692 Z" fill="#88ade0" fill-opacity="1.000000"/>
  <path d="M285.439 692 L285.439 626.488 L312.939 626.488 L312.939 692 Z" fill="#88ade0" fill-opacity="1.000000"/>
  <path d="M317.749 692 L317.749 620.557 L345.249 620.557 L345.249 692 Z" fill="#88ade0" fill-opacity="1.000000"/>
  <path d="M350.06 692 L350.06 613.677 L377.56 613.677 L377.56 692 Z" fill="#88ade0" fill-opacity="1.000000"/>
  <path d="M382.37 692 L382.37 605.888 L409.87 605.888 L409.87 692 Z" fill="#88ade0" fill-opacity="1.000000"/>
  <path d="M414.68 692 L414.68 597.23 L442.18 597.23 L442.18 692 Z" fill="#88ade0" fill-opacity="1.000000"/>
  <path d="M446.99 692 L446.99 587.754 L474.49 587.754 L474.49 692 Z" fill="#88ade0" fill-opacity="1.000000"/>
  <path d="M479.301 692 L479.301 577.512 L506.801 577.512 L506.801 692 Z" fill="#88ade0" fill-opacity="1.000000"/>
  <path d="M511.611 692 L511.611 566.562 L539.111 566.562 L539.111 692 Z" fill="#88ade0" fill-opacity="1.000000"/>
  <path d="M543.922 692 L543.922 554.964 L571.422 554.964 L571.422 692 Z" fill="#88ade0" fill-opacity="1.000000"/>
  <path d="M576.232 692 L576.232 542.786 L603.732 542.786 L603.732 692 Z" fill="#88ade0" fill-opacity="1.000000"/>
  <path d="M608.543 692 L608.543 530.094 L636.043 530.094 L636.043 692 Z" fill="#88ade0" fill-opacity="1.000000"/>
  <path d="M640.853 692 L640.853 516.962 L668.353 516.962 L668.353 692 Z" fill="#88ade0" fill-opacity="1.000000"/>
  <path d="M673.163 692 L673.163 503.463 L700.663 503.463 L700.663 692 Z" fill="#88ade0" fill-opacity="1.000000"/>
  <path d="M705.474 692 L705.474 489.673 L732.974 489.673 L732.974 692 Z" fill="#88ade0" fill-opacity="1.000000"/>
  <path d="M737.784 692 L737.784 475.67 L765.284 475.67 L765.284 692 Z" fill="#88ade0" fill-opacity="1.000000"/>
  <path d="M770.095 692 L770.095 461.533 L797.595 461.533 L797.595 692 Z" fill="#88ade0" fill-opacity="1.000000"/>
  <path d="M802.405 692 L802.405 447.341 L829.905 447.341 L829.905 692 Z" fill="#88ade0" fill-opacity="1.000000"/>
  <path d="M834.716 692 L834.716 433.173 L862.216 433.173 L862.216 692 Z" fill="#88ade0" fill-opacity="1.000000"/>
  <path d="M867.026 692 L867.026 419.109 L894.526 419.109 L894.526 692 Z" fill="#88ade0" fill-opacity="1.000000"/>
  <path d="M899.337 692 L899.337 405.225 L926.837 405.225 L926.837 692 Z" fill="#88ade0" fill-opacity="1.000000"/>
  <path d="M931.647 692 L931.647 391.6 L959.147 391.6 L959.147 692 Z" fill="#88ade0" fill-opacity="1.000000"/>
  <path d="M963.957 692 L963.957 378.308 L991.457 378.308 L991.457 692 Z" fill="#88ade0" fill-opacity="1.000000"/>
  <path d="M996.268 692 L996.268 365.422 L1023.77 365.422 L1023.77 692 Z" fill="#88ade0" fill-opacity="1.000000"/>
  <path d="M1028.58 692 L1028.58 353.011 L1056.08 353.011 L1056.08 692 Z" fill="#88ade0" fill-opacity="1.000000"/>
  <path d="M1060.89 692 L1060.89 341.143 L1088.39 341.143 L1088.39 692 Z" fill="#88ade0" fill-opacity="1.000000"/>
  <path d="M1093.2 692 L1093.2 329.881 L1120.7 329.881 L1120.7 692 Z" fill="#88ade0" fill-opacity="1.000000"/>
  <path d="M1125.51 692 L1125.51 319.284 L1153.01 319.284 L1153.01 692 Z" fill="#88ade0" fill-opacity="1.000000"/>
  <path d="M1157.82 692 L1157.82 309.408 L1185.32 309.408 L1185.32 692 Z" fill="#88ade0" fill-opacity="1.000000"/>
  <path d="M1190.13 692 L1190.13 300.304 L1217.63 300.304 L1217.63 692 Z" fill="#88ade0" fill-opacity="1.000000"/>
  <path d="M1222.44 692 L1222.44 292.017 L1249.94 292.017 L1249.94 692 Z" fill="#88ade0" fill-opacity="1.000000"/>
  <path d="M1254.75 692 L1254.75 284.589 L1282.25 284.589 L1282.25 692 Z" fill="#88ade0" fill-opacity="1.000000"/>
  <path d="M1287.06 692 L1287.06 278.055 L1314.56 278.055 L1314.56 692 Z" fill="#88ade0" fill-opacity="1.000000"/>
  <path d="M1319.37 692 L1319.37 272.446 L1346.87 272.446 L1346.87 692 Z" fill="#88ade0" fill-opacity="1.000000"/>
  <path d="M1351.68 692 L1351.68 267.787 L1379.18 267.787 L1379.18 692 Z" fill="#88ade0" fill-opacity="1.000000"/>
  <path d="M1383.99 692 L1383.99 264.096 L1411.49 264.096 L1411.49 692 Z" fill="#88ade0" fill-opacity="1.000000"/>
  <path d="M1416.3 692 L1416.3 261.387 L1443.8 261.387 L1443.8 692 Z" fill="#88ade0" fill-opacity="1.000000"/>
  <path d="M1448.61 692 L1448.61 259.668 L1476.11 259.668 L1476.11 692 Z" fill="#88ade0" fill-opacity="1.000000"/>
  <path d="M1480.92 692 L1480.92 258.94 L1508.42 258.94 L1508.42 692 Z" fill="#88ade0" fill-opacity="1.000000"/>
  <path d="M1513.23 692 L1513.23 259.2 L1540.73 259.2 L1540.73 692 Z" fill="#88ade0" fill-opacity="1.000000"/>
  <path d="M59.2659 692 L59.2659 665.014 L86.7659 665.014 L86.7659 692 Z" fill="#6393c9" fill-opacity="1.000000"/>
  <path d="M91.576 692 L91.576 665.61 L119.076 665.61 L119.076 692 Z" fill="#6393c9" fill-opacity="1.000000"/>
  <path d="M123.887 692 L123.887 665.465 L151.387 665.465 L151.387 692 Z" fill="#6393c9" fill-opacity="1.000000"/>
  <path d="M156.197 692 L156.197 664.575 L183.697 664.575 L183.697 692 Z" fill="#6393c9" fill-opacity="1.000000"/>
  <path d="M188.508 692 L188.508 662.943 L216.008 662.943 L216.008 692 Z" fill="#6393c9" fill-opacity="1.000000"/>
  <path d="M220.818 692 L220.818 660.576 L248.318 660.576 L248.318 692 Z" fill="#6393c9" fill-opacity="1.000000"/>
  <path d="M253.129 692 L253.129 657.485 L280.629 657.485 L280.629 692 Z" fill="#6393c9" fill-opacity="1.000000"/>
  <path d="M285.439 692 L285.439 653.688 L312.939 653.688 L312.939 692 Z" fill="#6393c9" fill-opacity="1.000000"/>
  <path d="M317.749 692 L317.749 649.205 L345.249 649.205 L345.249 692 Z" fill="#6393c9" fill-opacity="1.000000"/>
  <path d="M350.06 692 L350.06 644.063 L377.56 644.063 L377.56 692 Z" fill="#6393c9" fill-opacity="1.000000"/>
  <path d="M382.37 692 L382.37 638.291 L409.87 638.291 L409.87 692 Z" fill="#6393c9" fill-opacity="1.000000"/>
  <path d="M414.68 692 L414.68 631.924 L442.18 631.924 L442.18 692 Z" fill="#6393c9" fill-opacity="1.000000"/>
  <path d="M446.99 692 L446.99 625 L474.49 625 L474.49 692 Z" fill="#6393c9" fill-opacity="1.000000"/>
  <path d="M479.301 692 L479.301 617.56 L506.801 617.56 L506.801 692 Z" fill="#6393c9" fill-opacity="1.000000"/>
  <path d="M511.611 692 L511.611 609.649 L539.111 609.649 L539.111 692 Z" fill="#6393c9" fill-opacity="1.000000"/>
  <path d="M543.922 692 L543.922 601.317 L571.422 601.317 L571.422 692 Z" fill="#6393c9" fill-opacity="1.000000"/>
  <path d="M576.232 692 L576.232 592.613 L603.732 592.613 L603.732 692 Z" fill="#6393c9" fill-opacity="1.000000"/>
  <path d="M608.543 692 L608.543 583.591 L636.043 583.591 L636.043 692 Z" fill="#6393c9" fill-opacity="1.000000"/>
  <path d="M640.853 692 L640.853 574.306 L668.353 574.306 L668.353 692 Z" fill="#6393c9" fill-opacity="1.000000"/>
  <path d="M673.163 692 L673.163 564.816 L700.663 564.816 L700.663 692 Z" fill="#6393c9" fill-opacity="1.000000"/>
  <path d="M705.474 692 L705.474 555.178 L732.974 555.178 L732.974 692 Z" fill="#6393c9" fill-opacity="1.000000"/>
  <path d="M737.784 692 L737.784 545.452 L765.284 545.452 L765.284 692 Z" fill="#6393c9" fill-opacity="1.000000"/>
  <path d="M770.095 692 L770.095 535.698 L797.595 535.698 L797.595 692 Z" fill="#6393c9" fill-opacity="1.000000"/>
  <path d="M802.405 692 L802.405 525.975 L829.905 525.975 L829.905 692 Z" fill="#6393c9" fill-opacity="1.000000"/>
  <path d="M834.716 692 L834.716 516.343 L862.216 516.343 L862.216 692 Z" fill="#6393c9" fill-opacity="1.000000"/>
  <path d="M867.026 692 L867.026 506.86 L894.526 506.86 L894.526 692 Z" fill="#6393c9" fill-opacity="1.000000"/>
  <path d="M899.337 692 L899.337 497.585 L926.837 497.585 L926.837 692 Z" fill="#6393c9" fill-opacity="1.000000"/>
  <path d="M931.647 692 L931.647 488.574 L959.147 488.574 L959.147 692 Z" fill="#6393c9" fill-opacity="1.000000"/>
  <path d="M963.957 692 L963.957 479.881 L991.457 479.881 L991.457 692 Z" fill="#6393c9" fill-opacity="1.000000"/>
  <path d="M996.268 692 L996.268 471.558 L1023.77 471.558 L1023.77 692 Z" fill="#6393c9" fill-opacity="1.000000"/>
  <path d="M1028.58 692 L1028.58 463.656 L1056.08 463.656 L1056.08 692 Z" fill="#6393c9" fill-opacity="1.000000"/>
  <path d="M1060.89 692 L1060.89 456.22 L1088.39 456.22 L1088.39 692 Z" fill="#6393c9" fill-opacity="1.000000"/>
  <path d="M1093.2 692 L1093.2 449.295 L1120.7 449.295 L1120.7 692 Z" fill="#6393c9" fill-opacity="1.000000"/>
  <path d="M1125.51 692 L1125.51 442.921 L1153.01 442.921 L1153.01 692 Z" fill="#6393c9" fill-opacity="1.000000"/>
  <path d="M1157.82 692 L1157.82 437.134 L1185.32 437.134 L1185.32 692 Z" fill="#6393c9" fill-opacity="1.000000"/>
  <path d="M1190.13 692 L1190.13 431.967 L1217.63 431.967 L1217.63 692 Z" fill="#6393c9" fill-opacity="1.000000"/>
  <path d="M1222.44 692 L1222.44 427.449 L1249.94 427.449 L1249.94 692 Z" fill="#6393c9" fill-opacity="1.000000"/>
  <path d="M1254.75 692 L1254.75 423.604 L1282.25 423.604 L1282.25 692 Z" fill="#6393c9" fill-opacity="1.000000"/>
  <path d="M1287.06 692 L1287.06 420.451 L1314.56 420.451 L1314.56 692 Z" fill="#6393c9" fill-opacity="1.000000"/>
  <path d="M1319.37 692 L1319.37 418.006 L1346.87 418.006 L1346.87 692 Z" fill="#6393c9" fill-opacity="1.000000"/>
  <path d="M1351.68 692 L1351.68 416.281 L1379.18 416.281 L1379.18 692 Z" fill="#6393c9" fill-opacity="1.000000"/>
  <path d="M1383.99 692 L1383.99 415.28 L1411.49 415.28 L1411.49 692 Z" fill="#6393c9" fill-opacity="1.000000"/>
  <path d="M1416.3 692 L1416.3 415.005 L1443.8 415.005 L1443.8 692 Z" fill="#6393c9" fill-opacity="1.000000"/>
  <path d="M1448.61 692 L1448.61 415.453 L1476.11 415.453 L1476.11 692 Z" fill="#6393c9" fill-opacity="1.000000"/>
  <path d="M1480.92 692 L1480.92 416.617 L1508.42 416.617 L1508.42 692 Z" fill="#6393c9" fill-opacity="1.000000"/>
  <path d="M1513.23 692 L1513.23 418.483 L1540.73 418.483 L1540.73 692 Z" fill="#6393c9" fill-opacity="1.000000"/>
  <path d="M59.2659 692 L59.2659 666.483 L86.7659 666.483 L86.7659 692 Z" fill="#4c7bb0" fill-opacity="1.000000"/>
  <path d="M91.576 692 L91.576 667.161 L119.076 667.161 L119.076 692 Z" fill="#4c7bb0" fill-opacity="1.000000"/>
  <path d="M123.887 692 L123.887 667.533 L151.387 667.533 L151.387 692 Z" fill="#4c7bb0" fill-opacity="1.000000"/>
  <path d="M156.197 692 L156.197 667.598 L183.697 667.598 L183.697 692 Z" fill="#4c7bb0" fill-opacity="1.000000"/>
  <path d="M188.508 692 L188.508 667.355 L216.008 667.355 L216.008 692 Z" fill="#4c7bb0" fill-opacity="1.000000"/>
  <path d="M220.818 692 L220.818 666.806 L248.318 666.806 L248.318 692 Z" fill="#4c7bb0" fill-opacity="1.000000"/>
  <path d="M253.129 692 L253.129 665.953 L280.629 665.953 L280.629 692 Z" fill="#4c7bb0" fill-opacity="1.000000"/>
  <path d="M285.439 692 L285.439 664.8 L312.939 664.8 L312.939 692 Z" fill="#4c7bb0" fill-opacity="1.000000"/>
  <path d="M317.749 692 L317.749 663.351 L345.249 663.351 L345.249 692 Z" fill="#4c7bb0" fill-opacity="1.000000"/>
  <path d="M350.06 692 L350.06 661.614 L377.56 661.614 L377.56 692 Z" fill="#4c7bb0" fill-opacity="1.000000"/>
  <path d="M382.37 692 L382.37 659.596 L409.87 659.596 L409.87 692 Z" fill="#4c7bb0" fill-opacity="1.000000"/>
  <path d="M414.68 692 L414.68 657.306 L442.18 657.306 L442.18 692 Z" fill="#4c7bb0" fill-opacity="1.000000"/>
  <path d="M446.99 692 L446.99 654.755 L474.49 654.755 L474.49 692 Z" fill="#4c7bb0" fill-opacity="1.000000"/>
  <path d="M479.301 692 L479.301 651.952 L506.801 651.952 L506.801 692 Z" fill="#4c7bb0" fill-opacity="1.000000"/>
  <path d="M511.611 692 L511.611 648.912 L539.111 648.912 L539.111 692 Z" fill="#4c7bb0" fill-opacity="1.000000"/>
  <path d="M543.922 692 L543.922 645.648 L571.422 645.648 L571.422 692 Z" fill="#4c7bb0" fill-opacity="1.000000"/>
  <path d="M576.232 692 L576.232 642.173 L603.732 642.173 L603.732 692 Z" fill="#4c7bb0" fill-opacity="1.000000"/>
  <path d="M608.543 692 L608.543 638.504 L636.043 638.504 L636.043 692 Z" fill="#4c7bb0" fill-opacity="1.000000"/>
  <path d="M640.853 692 L640.853 634.656 L668.353 634.656 L668.353 692 Z" fill="#4c7bb0" fill-opacity="1.000000"/>
  <path d="M673.163 692 L673.163 630.648 L700.663 630.648 L700.663 692 Z" fill="#4c7bb0" fill-opacity="1.000000"/>
  <path d="M705.474 692 L705.474 626.496 L732.974 626.496 L732.974 692 Z" fill="#4c7bb0" fill-opacity="1.000000"/>
  <path d="M737.784 692 L737.784 622.219 L765.284 622.219 L765.284 692 Z" fill="#4c7bb0" fill-opacity="1.000000"/>
  <path d="M770.095 692 L770.095 617.836 L797.595 617.836 L797.595 692 Z" fill="#4c7bb0" fill-opacity="1.000000"/>
  <path d="M802.405 692 L802.405 613.367 L829.905 613.367 L829.905 692 Z" fill="#4c7bb0" fill-opacity="1.000000"/>
  <path d="M834.716 692 L834.716 608.831 L862.216 608.831 L862.216 692 Z" fill="#4c7bb0" fill-opacity="1.000000"/>
  <path d="M867.026 692 L867.026 604.248 L894.526 604.248 L894.526 692 Z" fill="#4c7bb0" fill-opacity="1.000000"/>
  <path d="M899.337 692 L899.337 599.64 L926.837 599.64 L926.837 692 Z" fill="#4c7bb0" fill-opacity="1.000000"/>
  <path d="M931.647 692 L931.647 595.026 L959.147 595.026 L959.147 692 Z" fill="#4c7bb0" fill-opacity="1.000000"/>
  <path d="M963.957 692 L963.957 590.427 L991.457 590.427 L991.457 692 Z" fill="#4c7bb0" fill-opacity="1.000000"/>
  <path d="M996.268 692 L996.268 585.864 L1023.77 585.864 L1023.77 692 Z" fill="#4c7bb0" fill-opacity="1.000000"/>
  <path d="M1028.58 692 L1028.58 581.355 L1056.08 581.355 L1056.08 692 Z" fill="#4c7bb0" fill-opacity="1.000000"/>
  <path d="M1060.89 692 L1060.89 576.923 L1088.39 576.923 L1088.39 692 Z" fill="#4c7bb0" fill-opacity="1.000000"/>
  <path d="M1093.2 692 L1093.2 572.586 L1120.7 572.586 L1120.7 692 Z" fill="#4c7bb0" fill-opacity="1.000000"/>
  <path d="M1125.51 692 L1125.51 568.363 L1153.01 568.363 L1153.01 692 Z" fill="#4c7bb0" fill-opacity="1.000000"/>
  <path d="M1157.82 692 L1157.82 564.274 L1185.32 564.274 L1185.32 692 Z" fill="#4c7bb0" fill-opacity="1.000000"/>
  <path d="M1190.13 692 L1190.13 560.337 L1217.63 560.337 L1217.63 692 Z" fill="#4c7bb0" fill-opacity="1.000000"/>
  <path d="M1222.44 692 L1222.44 556.568 L1249.94 556.568 L1249.94 692 Z" fill="#4c7bb0" fill-opacity="1.000000"/>
  <path d="M1254.75 692 L1254.75 552.985 L1282.25 552.985 L1282.25 692 Z" fill="#4c7bb0" fill-opacity="1.000000"/>
  <path d="M1287.06 692 L1287.06 549.604 L1314.56 549.604 L1314.56 692 Z" fill="#4c7bb0" fill-opacity="1.000000"/>
  <path d="M1319.37 692 L1319.37 546.44 L1346.87 546.44 L1346.87 692 Z" fill="#4c7bb0" fill-opacity="1.000000"/>
  <path d="M1351.68 692 L1351.68 543.506 L1379.18 543.506 L1379.18 692 Z" fill="#4c7bb0" fill-opacity="1.000000"/>
  <path d="M1383.99 692 L1383.99 540.816 L1411.49 540.816 L1411.49 692 Z" fill="#4c7bb0" fill-opacity="1.000000"/>
  <path d="M1416.3 692 L1416.3 538.382 L1443.8 538.382 L1443.8 692 Z" fill="#4c7bb0" fill-opacity="1.000000"/>
  <path d="M1448.61 692 L1448.61 536.215 L1476.11 536.215 L1476.11 692 Z" fill="#4c7bb0" fill-opacity="1.000000"/>
  <path d="M1480.92 692 L1480.92 534.323 L1508.42 534.323 L1508.42 692 Z" fill="#4c7bb0" fill-opacity="1.000000"/>
  <path d="M1513.23 692 L1513.23 532.716 L1540.73 532.716 L1540.73 692 Z" fill="#4c7bb0" fill-opacity="1.000000"/>
  <text x="135.666667" y="114.666667" fill="#000000ff" font-size="36.666667" font-family="Arial,Helvetica,'Helvetica Neue',sans-serif" font-weight="500.000000">Variable D</text>
  <path d="M100.833 115.417 C93.2394 115.417 87.0833 109.261 87.0833 101.667 C87.0833 94.0728 93.2394 87.9167 100.833 87.9167 C108.427 87.9167 114.583 94.0728 114.583 101.667 C114.583 109.261 108.427 115.417 100.833 115.417 Z" fill="#9fc3f5" fill-opacity="1.000000"/>
  <text x="135.666667" y="167.666667" fill="#000000ff" font-size="36.666667" font-family="Arial,Helvetica,'Helvetica Neue',sans-serif" font-weight="500.000000">Variable C</text>
  <path d="M100.833 168.417 C93.2394 168.417 87.0833 162.261 87.0833 154.667 C87.0833 147.073 93.2394 140.917 100.833 140.917 C108.427 140.917 114.583 147.073 114.583 154.667 C114.583 162.261 108.427 168.417 100.833 168.417 Z" fill="#88ade0" fill-opacity="1.000000"/>
  <text x="135.666667" y="220.666667" fill="#000000ff" font-size="36.666667" font-family="Arial,Helvetica,'Helvetica Neue',sans-serif" font-weight="500.000000">Variable B</text>
  <path d="M100.833 221.417 C93.2394 221.417 87.0833 215.261 87.0833 207.667 C87.0833 200.073 93.2394 193.917 100.833 193.917 C108.427 193.917 114.583 200.073 114.583 207.667 C114.583 215.261 108.427 221.417 100.833 221.417 Z" fill="#6393c9" fill-opacity="1.000000"/>
  <text x="135.666667" y="273.666667" fill="#000000ff" font-size="36.666667" font-family="Arial,Helvetica,'Helvetica Neue',sans-serif" font-weight="500.000000">Variable A</text>
  <path d="M100.833 274.417 C93.2394 274.417 87.0833 268.261 87.0833 260.667 C87.0833 253.073 93.2394 246.917 100.833 246.917 C108.427 246.917 114.583 253.073 114.583 260.667 C114.583 268.261 108.427 274.417 100.833 274.417 Z" fill="#4c7bb0" fill-opacity="1.000000"/>
</svg>